<?xml version="1.0" encoding="utf-8"?>
<!-- Generator: Adobe Illustrator 19.2.1, SVG Export Plug-In . SVG Version: 6.00 Build 0)  -->
<svg version="1.1" id="eo" xmlns="http://www.w3.org/2000/svg" xmlns:xlink="http://www.w3.org/1999/xlink" x="0px" y="0px"
	 viewBox="0 0 284 284.5" style="enable-background:new 0 0 284 284.5;" xml:space="preserve">
<style type="text/css">
	.st0{fill:#FFFFFF;}
	.st1{fill:url(#SVGID_1_);}
</style>
<path class="st0" d="M146.9,134.4L143.4,4.2c0,0-3.9-4.1-7.7-3.2c0.1-0.1-12.2,101.9-4.4,113.8c0.1,0.5,6.8,8.6,6.8,18
	c-0.1,0.1,5.5,2.9,5.5,2.9L146.9,134.4z"/>
<path class="st0" d="M134.7,141l-111,68.1c0,0-1.6,5.4,1,8.3c-0.1-0.1,94.3-40.4,100.8-53.1c0.4-0.4,4.1-10.2,12.1-14.9
	c0.1,0.1-0.2-6.2-0.2-6.2L134.7,141z"/>
<path class="st0" d="M145.4,148.3l114.5,62.1c0,0,5.5-1.3,6.7-5c0,0.2-82.1-61.5-96.4-60.7c-0.5-0.1-10.8,1.6-19-3.1
	c0-0.2-5.3,3.3-5.3,3.3L145.4,148.3z"/>
<radialGradient id="SVGID_1_" cx="142.0101" cy="142.5" r="13.5" gradientUnits="userSpaceOnUse">
	<stop  offset="0" style="stop-color:#FFFFFF"/>
	<stop  offset="1" style="stop-color:#DDDDDD"/>
</radialGradient>
<circle class="st1" cx="142" cy="142.5" r="13.5"/>
</svg>
