<?xml version="1.0" encoding="utf-8"?>
<!-- Generator: Adobe Illustrator 19.0.1, SVG Export Plug-In . SVG Version: 6.00 Build 0)  -->
<svg version="1.1" xmlns="http://www.w3.org/2000/svg" xmlns:xlink="http://www.w3.org/1999/xlink" x="0px" y="0px"
	 viewBox="0 0 1440 800" enable-background="new 0 0 1440 800" xml:space="preserve">
<g id="Calque_2">
	<rect fill="#C63647" width="1440" height="800"/>
	<polygon fill="#EB4E54" points="1188,0 0,460.7 0,800 954,800 1440,447.8 1440,0 	"/>
	<rect x="726.8" y="113.6" fill="#AA263C" width="477.9" height="589.9"/>
</g>
<g id="Calque_3">
	<rect x="747.1" y="100.1" fill="#FBC08E" width="477" height="578.4"/>
	<polygon fill="#F7AB72" points="747.1,100.1 776.6,136.3 776.6,641.7 747.1,678.6 	"/>
	<path fill="#F7AB72" d="M763.8,120.6c0.3,0.3,447.7,0,447.7,0v537.2H763.8V120.6z"/>
	<polygon fill="#EA9357" points="763.8,120.6 776.6,136.3 776.6,641.7 763.8,657.8 	"/>
	<polygon fill="#EA9357" points="1211.5,120.6 1197.9,136.3 1197.9,641.7 1211.5,657.8 	"/>
	<polygon fill="#F7AB72" points="1211.5,120.6 1224.1,100.1 1224.1,678.6 1211.5,657.8 	"/>
	<rect x="776.6" y="136.3" fill="#FFFFFF" width="421.3" height="505.4"/>
</g>
<g id="Calque_1">
	<g>
		<defs>
			<rect id="SVGID_1_" x="776.6" y="136.3" width="421.3" height="505.4"/>
		</defs>
		<clipPath id="SVGID_2_">
			<use xlink:href="#SVGID_1_"  overflow="visible"/>
		</clipPath>
		<path clip-path="url(#SVGID_2_)" fill="#21232D" d="M1017.5,369.8c8.6,24.2,9.7,50.2,13.1,75.6c12.8,96-87.7,148.9,41.2,242.6
			c82.2-2.3,217.5-3,297.8-20.6c-13-28.6-22.8-36.6-39-63.5c-25.4-42-44.8-87.3-68.8-130.1c-24-42.8-53.3-84-93.6-112
			c-17-11.8-36.3-21.3-56.9-22.7c-17-1.1-33.9,3.4-50.1,8.6c-16.4,5.3-33.1,11.9-45.3,24.1"/>
		<g clip-path="url(#SVGID_2_)">
			<defs>
				<path id="SVGID_3_" d="M1017.5,369.8c8.6,24.2,9.7,50.2,13.1,75.6c12.8,96-87.7,148.9,41.2,242.6c82.2-2.3,217.5-3,297.8-20.6
					c-13-28.6-22.8-36.6-39-63.5c-25.4-42-44.8-87.3-68.8-130.1c-24-42.8-53.3-84-93.6-112c-17-11.8-36.3-21.3-56.9-22.7
					c-17-1.1-33.9,3.4-50.1,8.6c-16.4,5.3-33.1,11.9-45.3,24.1"/>
			</defs>
			<clipPath id="SVGID_4_">
				<use xlink:href="#SVGID_3_"  overflow="visible"/>
			</clipPath>
			<path clip-path="url(#SVGID_4_)" fill="#16181E" d="M1005.9,482.4c23.7,6.5,49,5.5,73,0.6s47.2-13.6,70-22.7
				c22.3-8.9,45.8-19,59.6-38.7c-4,35.7-20.3,69.2-41.5,98.3c-14.1,19.3-30.7,37.1-50.6,50.4c-19.9,13.3-43.4,21.9-67.3,21.9
				c-9.3,0-18.9-1.3-27.2-5.6c-18.4-9.5-27.1-31.3-29-51.9c-1.8-19.7,2.4-41.7,18-53.9"/>
		</g>
		<path clip-path="url(#SVGID_2_)" fill="#21232D" d="M1095.9,332.5c18.7-9.1,41.4-12.6,63-9.7c7.7,1.1,15.3,2.9,21.8,6.4
			c7.2,3.8,12.8,9.4,17.9,15c4.6,5.1,9,10.3,12.5,16c15,24.2,11.7,53.9-1.9,78.7c-3.5,6.4-7.8,12.6-13.5,17.8
			c-14.4,13.2-66.9,31.7-88.6,30.5c-9.4-0.5,10.8-15.1,2.7-18.9c-8-3.8-14.5-9.6-18.5-16.3c-3.5-6-4.9-12.5-6.2-19
			c-2.3-11.4-4.1-22.8-5.6-34.3c-2.8-22-3.7-45.4,8.9-65c2.1-3.3,5.5-6.8,10-6.5"/>
		<path clip-path="url(#SVGID_2_)" fill="#16181E" d="M1010.2,366.4c-5.2,9.8-7.2,21.3-5.7,32.3c0.6,4.2,1.8,8.7,5.1,11.4
			c2.5,2.1,5.8,2.9,9,3.5c24.3,4.6,49.6,0.8,73.3-6.6c9.6-3,19.3-6.8,26.9-13.5c13.5-12,17.9-31.9,15-49.8
			c-1.1-6.5-3.1-13.1-7.8-17.7c-8.6-8.4-22.8-7.1-34.2-3.1c-12,4.2-23.2,10.6-32.9,18.9c-8.6,7.3-16.4,16.4-27.3,19.5
			c-7.6,2.1-16.7,1.4-22.1,7.2"/>
		<path clip-path="url(#SVGID_2_)" fill="#21232D" d="M922.8,399.6c5.5,4,12.4,5.9,19,7.4c33.8,7.9,68.7,11.3,103.4,10.1
			c0.8,0,1.7-0.1,2.3-0.7c0.7-0.7,0.6-1.8,0.5-2.7c-1.5-14.1-3.6-28.2-6.4-42.2c-0.5-2.3-1-4.8-2.6-6.5c-1.5-1.6-3.7-2.3-5.8-2.9
			c-13.5-4.1-27.3-7.2-41.2-9.4c-7.3-1.1-15.6-1.7-21.1,3.2c-2.3,2-3.8,4.8-5.3,7.5c-2.5,4.5-4.9,9-7.4,13.5
			c-1.9,3.4-3.8,6.9-6.8,9.4c-8.8,7.5-24,4.5-31.4,13.4"/>
		<path clip-path="url(#SVGID_2_)" fill="#FBC08E" d="M835.3,289.3c0,0,11.9,162.3,104.3,147c38.3-7.3,0,0,0,0s91-10.2,38-174.1
			L835.3,289.3z"/>
		<path clip-path="url(#SVGID_2_)" fill="#F7AB72" d="M843.3,325.9c-8-8-20-15.1-31.1-13.5c-6.8,1-12.9,5.4-16.2,11.3
			s-3.9,13.3-1.8,19.8c2.9,8.8,10.1,15.5,17.2,21.4c4.6,3.8,9.2,7.6,14.3,10.7c6,3.7,12.6,6.3,18.7,9.7c6.1,3.3,12.1,5.1,17.3,9.6
			c0.7,0.6,1.3,3.2,1.4,4c0.1,0.8-1.5,3.6-3.1,4.6c-3.2,1.9-6.7,5.9-4.3,8.7c1.4,1.7,4.1,1.5,6.2,0.8c7.9-3,12-13.4,8.2-20.9
			c-2.9-5.7-8.9-8.9-14.6-11.7c-9.6-4.6-19.4-8.9-28-15.2s-16.1-14.7-19-24.9c-1.3-4.4-1.4-9.8,1.8-13.1c4.3-4.4,11.7-2.7,17.2,0.2
			c5.4,2.9,11.2,6.7,17.2,5.6C846,329.3,845.8,328.6,843.3,325.9"/>
		<path clip-path="url(#SVGID_2_)" fill="#FBC08E" d="M982.7,301.3c4.5-10.4,13-21.4,24-24c6.6-1.6,14,0.2,19.3,4.6
			c5.3,4.3,8.6,11,9,17.8c0.6,9.3-3.7,18.1-8.1,26.3c-2.8,5.3-5.8,10.5-9.4,15.2c-4.2,5.6-9.3,10.5-13.9,15.9
			c-4.4,5.3-9.4,9.1-12.6,15.3c-0.4,0.8-0.1,3.4,0.2,4.3c0.3,0.8,2.7,2.8,4.6,3.1c3.7,0.6,8.4,3,7.2,6.5c-0.7,2.1-3.3,3-5.5,3
			c-8.4,0.2-16.1-8-15.3-16.4c0.6-6.3,5-11.6,9.3-16.3c7.2-7.8,14.7-15.5,20.5-24.4c5.7-9,9.6-19.6,8.5-30.1
			c-0.5-4.6-2.3-9.6-6.5-11.5c-5.6-2.5-11.9,1.8-15.9,6.5c-4,4.7-7.9,10.3-13.9,11.5C981.5,305.5,981.3,304.8,982.7,301.3"/>
		<g clip-path="url(#SVGID_2_)">
			<defs>
				<path id="SVGID_5_" d="M835.3,289.3c0,0,11.9,162.3,104.3,147c38.3-7.3,0,0,0,0s91-10.2,38-174.1L835.3,289.3z"/>
			</defs>
			<clipPath id="SVGID_6_">
				<use xlink:href="#SVGID_5_"  overflow="visible"/>
			</clipPath>
			<path clip-path="url(#SVGID_6_)" fill="#F7AB72" d="M873.6,282.7c2.5,23.2,5.1,46.5,11.9,68.8c3.7,12.2,8.8,24.2,16.8,34.1
				c11.6,14.2,29.3,23.4,47.6,24.6c24.6,1.6,47.9-10.3,68.8-23.3c-1.6,15.5-9.7,29.8-20.6,40.8c-10.9,11.1-24.4,19.3-38.3,26.2
				c-19.2,9.6-39.8,17.1-61.2,18.5c-30.7,2-61.6-9.1-85.8-28c-24.2-19-42.1-45.4-53.3-74c-4.2-10.8-7.6-22.1-7.2-33.7
				c0.4-11.4,4.6-22.4,10.5-32.2c9.6-15.9,24.5-29.1,42.3-34.6c17.8-5.5,38.4-2.7,52.9,9c2.3,1.8,4.5,3.9,7.2,4.8
				c2.8,0.8,6.4-0.2,7.3-2.9"/>
		</g>
		
			<ellipse transform="matrix(0.9823 -0.1874 0.1874 0.9823 -35.6424 174.7443)" clip-path="url(#SVGID_2_)" fill="#E28B50" cx="906.5" cy="275.9" rx="72.4" ry="11.2"/>
		
			<rect x="951.6" y="432" transform="matrix(0.9823 -0.1874 0.1874 0.9823 -69.2772 187.0847)" clip-path="url(#SVGID_2_)" fill="#F7AB72" width="6.7" height="55.9"/>
		<path clip-path="url(#SVGID_2_)" fill="#F7AB72" d="M959.5,479.5c0,0,0.8,8.4-25.4,19.2c0.3-0.1,54.5-12.1,54.5-12.1
			S963.4,489.3,959.5,479.5z"/>
		
			<rect x="933.9" y="492.6" transform="matrix(0.9761 -0.2175 0.2175 0.9761 -84.565 221.0699)" clip-path="url(#SVGID_2_)" fill="#F7AB72" width="55.9" height="4.1"/>
		<path clip-path="url(#SVGID_2_)" fill="#C63647" d="M938.4,250.5c0.9-11.9,5.7-23.5,13.4-32.6c1.9-2.3,4.1-4.4,6.8-5.7
			c2-0.9,4.6-1.2,6.1,0.4c0.6,0.7,0.9,1.6,1.1,2.5c0.9,4.2-0.1,8.7-2.1,12.6s-4.9,7.2-8,10.2c5.6-8.8,14.5-15.5,24.5-18.4
			c1.4-0.4,3.1-0.8,4.4-0.1c1.7,0.8,2.4,2.9,2.1,4.8c-0.3,1.8-1.4,3.4-2.6,4.9c-5.1,6.2-11.9,11-19.4,13.7c5.2-3,11-5.1,17-6.1
			c2.9-0.5,6-0.7,8.6,0.7c0.5,0.3,1.1,0.7,1.3,1.3c0.6,1.3-0.5,2.8-1.6,3.8c-5.7,4.9-13.5,6.1-20.9,7.1c6.1-0.6,12.3-0.4,18.4,0.4
			c0.6,0.1,1.3,0.2,1.8,0.5c1.3,0.8,1.3,2.7,0.6,4.1c-1.4,2.8-4.8,3.8-7.8,4.4c-10.1,2-20.5,2.2-30.8,1.6c-3.2-0.2-6.6-0.6-9.2-2.5
			C939.5,256.2,936.2,252.9,938.4,250.5"/>
		<path clip-path="url(#SVGID_2_)" fill="#EB4E54" d="M871.9,257.3c9.5-12.2,10.2-30.6,1.5-43.5c-0.4-0.6-0.9-1.3-1.6-1.5
			c-1.8-0.6-4.5,1.5-4.9,3.4c-2,8.1-1.1,16.9,0.2,25.2c-0.5-8.8-0.9-17.8-4-26.1c-3.1-8.3-9.2-15.9-17.6-18.5
			c-2.9-0.9-6.6-0.9-8.2,1.6c-1.1,1.7-0.9,3.8-0.6,5.8c2.3,14.5,7.4,28.5,14.9,41.1c-10.9-9.7-26-15.7-40.1-12.1
			c-1.1,0.3-2.3,0.7-3,1.7c-1.6,2.3,0.8,5.3,3.1,6.8c9.6,6.5,21.4,9.7,32.9,9c-8.2-2.3-17.2-1.7-25,1.6c-1.2,0.5-2.4,1.1-3.2,2.2
			s-0.9,2.6,0,3.6c0.6,0.6,1.4,0.8,2.2,1c7.2,1.6,14.8,1.7,22,0.1c-8-0.2-16.1,2.7-22.1,8c-0.7,0.6-1.5,1.6-1.1,2.4
			c0.2,0.5,0.8,0.8,1.3,1c9.6,3.7,19.6,4.5,29.2,0.8C857.7,267,863.7,263.8,871.9,257.3"/>
		<path clip-path="url(#SVGID_2_)" fill="#C63647" d="M901.9,237.9c-5.9-0.7-12.1-1.4-16.9-4.9c-1.6-1.1-3.1-2.7-3.1-4.6
			c0-2.4,2.3-4.2,4.5-5.2c4.5-2,9.5-2.7,14.3-1.8c-4-1.3-8-2.8-11.8-4.5c-1.9-0.8-3.8-1.9-4.7-3.7c-0.2-0.4-0.3-0.7-0.2-1.1
			c0.1-0.8,0.8-1.3,1.6-1.6c2-0.8,4.3-0.4,6.4,0.1c3.9,0.9,7.7,2.3,11.3,3.9c-5.5-3.2-10.3-7.9-13.6-13.3c-0.6-0.9-1.1-2-1.1-3.1
			c0.1-2.1,2.5-3.4,4.6-3.2s3.8,1.6,5.4,3c4,3.4,7.7,7.1,10.6,11.5c-4.9-6.9-7.3-15.3-9.6-23.5c-0.5-1.7-1.3-5.3,0-6.5
			c0.9-0.8,3.9-0.9,5-0.4c1.1,0.5,2,1.9,2.8,2.8c2.3,2.5,3.5,5.1,5.6,7.8c3.7,4.8,6.9,11.1,8.3,17c-1-4.8-2.1-9.6-3.1-14.4
			c-1.6-7.5-3.3-15.4-1.5-22.9c0.3-1.4,0.8-2.8,1.8-3.7c2-2,5.4-1.4,7.9,0c5,3,7.6,8.9,8.3,14.8c0.7,5.8-0.3,11.7-0.7,17.5
			c-0.4,4.9-0.4,9.8-2,14.4c2.6-5.3,5.3-10.7,10-14.3c1.7-1.3,4.3-2.3,6-1c0.8,0.6,1.2,1.6,1.5,2.6c1.4,5-0.2,10.3-2.4,15
			c-3.5,7.7-8.5,15-15.8,19.3c-5.4,3.1-11.7,4.4-17.9,5.5c-2,0.4-4.1,0.7-6.1,0.3C904.7,239.2,904.3,237,901.9,237.9"/>
		<path clip-path="url(#SVGID_2_)" fill="none" stroke="#323441" stroke-width="1.5" stroke-miterlimit="10" d="M841.7,230.5
			c8.7,1.2,16.1,7.2,21.7,14c3.3,4.1,6.3,8.9,6.1,14.1c-6.5-7.8-15.1-13.7-24.6-17.1"/>
		<path clip-path="url(#SVGID_2_)" fill="none" stroke="#323441" stroke-width="1.5" stroke-miterlimit="10" d="M962,235.6
			c-2.2,4.4-4.7,8.7-8.1,12.3s-7.8,6.3-12.7,7.1"/>
		<path clip-path="url(#SVGID_2_)" fill="none" stroke="#323441" stroke-width="1.5" stroke-miterlimit="10" d="M911.2,205.1
			c1.7,5.6,3.9,11.2,6.5,16.5c1.4,2.8,2.9,5.6,5.2,7.7c0.6-6.2,0-12.6-1.9-18.5"/>
		<path clip-path="url(#SVGID_2_)" fill="#EB4E54" d="M907.8,273.6c-10.2-0.8-19.8-7.4-24.1-16.6c-1.2-2.4-2-5.1-1.5-7.8
			c0.4-2.1,2.1-4.2,4.2-3.8c0.8,0.2,1.5,0.7,2.2,1.3c5.1,4.4,9.7,9.4,13.6,14.8c-3.7-6.5-5.2-13.9-6.6-21.3c-1-5.6-1.9-11.5-0.2-17
			c1.4-4.5,2.8-8.1,5.8-11.6c0.5-0.6,2.7-1.4,3.9-1.5c0.4,0,2.1,1,2.3,1.3c5.1,7.1,6.3,15.5,6.6,24.2c0.2,6.1-0.8,12.2-1.8,18.2
			c0.7-5.9,1.4-11.8,2.1-17.7c0.4-3.6,0.9-7.3,2.2-10.7c1.3-3.4,3.7-6.5,7-8c0.6-0.3,1.3-0.5,2-0.5c0.9,0,1.8,0.5,2.6,1
			c2.5,1.8,4.1,4.8,4.8,7.8s0.5,6.2,0,9.3c-1.3,7.7-4.7,15.1-9.7,21.2c-0.1-1.6,0.9-3,1.9-4.2c4.4-5.3,9.8-10.1,16.4-12.2
			c2.4-0.8,5.6-0.8,6.8,1.4c0.5,1,0.5,2.2,0.3,3.4c-0.9,4.5-4,8.3-7.7,10.9c-3.8,2.6-8.2,4.1-12.6,5.3c6.4-3.5,13.3-6,20.5-7.5
			c2.1-0.4,4.3-0.8,6.4-0.2c0.6,0.2,1.3,0.4,1.7,0.9c0.8,1,0.6,2.5-0.1,3.7c-1.9,3.7-6.1,5.4-9.9,6.9c-13,4.9-26.6,9.5-40.5,8.6"/>
		<path clip-path="url(#SVGID_2_)" fill="none" stroke="#323441" stroke-width="1.5" stroke-miterlimit="10" d="M906.4,243.8
			c1.5,9.6,4.3,19.1,8.2,28c1.6-3.2,3.2-6.4,4.2-9.8c1-3.4,1.4-7.1,0.6-10.6"/>
		<path clip-path="url(#SVGID_2_)" fill="none" stroke="#323441" stroke-width="1.5" stroke-miterlimit="10" d="M914.5,272.6
			c4.5-2.1,8-6,9.8-10.7"/>
		<circle clip-path="url(#SVGID_2_)" fill="#FBC08E" cx="842.6" cy="229.9" r="1.5"/>
		<circle clip-path="url(#SVGID_2_)" fill="#FBC08E" cx="845.2" cy="233" r="1.5"/>
		<circle clip-path="url(#SVGID_2_)" fill="#FBC08E" cx="844.7" cy="241.3" r="1.5"/>
		<circle clip-path="url(#SVGID_2_)" fill="#FBC08E" cx="850" cy="241.8" r="1.5"/>
		<circle clip-path="url(#SVGID_2_)" fill="#FBC08E" cx="906.9" cy="243.3" r="1.5"/>
		<circle clip-path="url(#SVGID_2_)" fill="#FBC08E" cx="905.6" cy="247.2" r="1.5"/>
		<circle clip-path="url(#SVGID_2_)" fill="#FBC08E" cx="910.4" cy="256.1" r="1.5"/>
		<circle clip-path="url(#SVGID_2_)" fill="#FBC08E" cx="919.2" cy="251.3" r="1.5"/>
		<circle clip-path="url(#SVGID_2_)" fill="#FBC08E" cx="923.4" cy="262.3" r="1.5"/>
		<circle clip-path="url(#SVGID_2_)" fill="#FBC08E" cx="912" cy="205.3" r="1.5"/>
		<circle clip-path="url(#SVGID_2_)" fill="#FBC08E" cx="920.4" cy="211.4" r="1.5"/>
		<circle clip-path="url(#SVGID_2_)" fill="#FBC08E" cx="961.1" cy="235.6" r="1.5"/>
		<circle clip-path="url(#SVGID_2_)" fill="#FBC08E" cx="960.9" cy="240.2" r="1.5"/>
		<g clip-path="url(#SVGID_2_)">
			<defs>
				<path id="SVGID_7_" d="M977.6,262.3c1.2,6.1-29.7,17.1-69,24.6s-72.1,8.6-73.2,2.5c-1.2-6.1,14.2-92.7,53.5-100.2
					S976.4,256.2,977.6,262.3z"/>
			</defs>
			<clipPath id="SVGID_8_">
				<use xlink:href="#SVGID_7_"  overflow="visible"/>
			</clipPath>
			<path clip-path="url(#SVGID_8_)" fill="none" stroke="#323441" stroke-width="1.5" stroke-miterlimit="10" d="M925.3,265.2
				c0.5,11.3,1,22.6,1.5,34c-0.1-0.3-0.2-0.6-0.4-0.9"/>
			<path clip-path="url(#SVGID_8_)" fill="none" stroke="#323441" stroke-width="1.5" stroke-miterlimit="10" d="M932.4,262.5
				c-0.4,13.4-3.7,26.8-2.5,40.1c0-0.3,0-0.5,0.1-0.8"/>
			<path clip-path="url(#SVGID_8_)" fill="none" stroke="#323441" stroke-width="1.5" stroke-miterlimit="10" d="M869,257.2
				c6,16.3,12.1,32.5,18.1,48.8"/>
			<path clip-path="url(#SVGID_8_)" fill="none" stroke="#323441" stroke-width="1.5" stroke-miterlimit="10" d="M914.8,271
				c0,2.7,0,5.5-0.3,8.2c-0.8,6.3-3.7,12.4-3.5,18.8c0,0.2,0,0.4,0.2,0.4c0.2,0,0.2-0.3,0-0.2"/>
		</g>
		<path clip-path="url(#SVGID_2_)" fill="#FFC197" d="M1067.1,351.1c5.2,1.9,10.9,2.5,16.5,2.2s11.1-1.4,16.5-2.9
			c5.2-1.4,10.4-3.2,15-5.9c-9.1,8.5-14.8,20.4-24.5,28.3c-2.1,1.7-4.3,3.2-6.3,4.9c-0.8-3.5-4.4-5.5-6.3-8.5
			c-1.1-1.8-1.7-3.8-2.3-5.8c-0.7-2.5-1.6-5-2.9-7.3c-1.4-2.2-3.3-4.2-5.8-5.1"/>
		<path clip-path="url(#SVGID_2_)" fill="#FFEAD9" d="M1000.1,278.8c-3.9-4.8-9.1-8.5-14.9-10.6c-2-0.7-4.2-1.2-6.3-0.9
			c-3.3,0.5-6,3.2-7.2,6.4s-0.8,6.7,0.4,9.9c2.4,6.4,7.9,11.3,14,14.4c0.6,0.3,1.2,0.6,1.8,0.6c1,0,1.9-0.9,2.5-1.6
			c4.4-5,7.7-11,9.6-17.3c0.2-0.6-0.3-1.5-0.6-1"/>
		<g clip-path="url(#SVGID_2_)">
			<defs>
				<path id="SVGID_9_" d="M1000.1,278.8c-3.9-4.8-9.1-8.5-14.9-10.6c-2-0.7-4.2-1.2-6.3-0.9c-3.3,0.5-6,3.2-7.2,6.4
					s-0.8,6.7,0.4,9.9c2.4,6.4,7.9,11.3,14,14.4c0.6,0.3,1.2,0.6,1.8,0.6c1,0,1.9-0.9,2.5-1.6c4.4-5,7.7-11,9.6-17.3
					c0.2-0.6-0.3-1.5-0.6-1"/>
			</defs>
			<clipPath id="SVGID_10_">
				<use xlink:href="#SVGID_9_"  overflow="visible"/>
			</clipPath>
			<path clip-path="url(#SVGID_10_)" fill="#FFD5B8" d="M966.5,284.9c5.4,3.5,12.4,4.2,18.5,2.2c6.1-2,11.2-6.6,14.1-12.3
				c-0.8,8.8-7.9,15.7-10.9,24c-0.2,0.6-0.5,1.4-1.1,1.6c-0.3,0.1-0.6,0.1-0.9,0.1c-5.1-0.4-9.8-2.8-13.6-6.2
				c-3.8-3.4-6.6-7.8-8.8-12.3c1.6,0.6,2.9,1.7,3.8,3.1"/>
		</g>
		<path clip-path="url(#SVGID_2_)" fill="#FFF2E6" d="M1000,269.7c0.2,7.8-4.9,14.6-8.5,21.6c-7.7,14.8-9.1,32.7-3.7,48.5
			c2.9,8.6,7.7,16.4,12.4,24.2c1.8,2.9,3.6,5.9,6,8.2c2.9,2.8,6.5,4.6,10,6.5c13.7,7.4,27.8,16.2,43.3,15.2c13.9-0.9,25.9-9.6,37-18
			c6.2-4.7,12.5-9.4,17.5-15.4c5-6,8.7-13.4,8.7-21.2c0.1-10.1-5.8-19.5-6.2-29.6c-0.2-4.7,0.9-9.3,1.6-13.9
			c1.7-11.2,1.4-22.5,1.2-33.8c-0.1-4.8-0.2-9.6-1.6-14.2c-1.1-3.8-3.1-7.3-5.1-10.7c-2.3-4-4.8-8-8.3-11
			c-4.4-3.7-10.1-5.5-15.8-6.8c-13.3-3-27.1-3.7-40.5-1.8c-6.5,0.9-13,2.5-18.7,5.7c-4.8,2.7-8.9,6.5-12.8,10.3
			c-4.9,4.8-9.6,9.8-12.9,15.8c-3.2,6-4.7,13.2-2.8,19.8"/>
		<path clip-path="url(#SVGID_2_)" fill="#FFEAD9" d="M999.8,270.3c0.2,7.8-10.8,16.8-14.4,23.7c-7.7,14.8-9.1,33.1-3.7,48.9
			c2.9,8.6,7.6,16,12.4,23.8c1.8,2.9,3.6,5.9,6,8.2c2.9,2.8,8.3,6.7,11.8,8.6c13.7,7.4,31.8,12,47.3,10.9
			c13.9-0.9,28.2-7.4,39.3-15.7c6.2-4.7,12.5-9,17.5-14.9c5-6,8.9-15.6,9-23.4c0.1-10.1-7.4-24.3-7.7-34.4c-0.2-4.7-0.2-5,0.5-9.6
			c1.7-11.2,1.4-22.5,1.2-33.8c-0.1-4.8-0.2-9.6-1.6-14.2c-1.1-3.8-3.1-7.3-5.1-10.7c-2.3-4-4.8-8-8.3-11
			c-4.4-3.7-10.1-5.5-15.8-6.8c-13.3-3-27.1-3.7-40.5-1.8c-6.5,0.9-13,2.5-18.7,5.7c-4.8,2.7-8.9,6.5-12.8,10.3
			c-4.9,4.8-9.6,9.8-12.9,15.8c-3.2,6-4.7,13.2-2.8,19.8"/>
		<path clip-path="url(#SVGID_2_)" fill="none" d="M1036.6,269.9c-0.2,0.1-0.4-0.1-0.5-0.2"/>
		<g clip-path="url(#SVGID_2_)">
			<defs>
				<path id="SVGID_11_" d="M1000.4,269.8c0.2,7.8-5.7,15.2-9.3,22.1c-7.7,14.8-9.1,32.7-3.7,48.5c2.9,8.6,7.7,16.4,12.4,24.2
					c1.8,2.9,3.6,5.9,6,8.2c2.9,2.8,6.5,4.6,10,6.5c13.7,7.4,27.8,16.2,43.3,15.2c13.9-0.9,25.9-9.6,37-18
					c6.2-4.7,12.5-9.4,17.5-15.4c5-6,8.7-13.4,8.7-21.2c0.1-10.1-5.8-19.5-6.2-29.6c-0.2-4.7,0.9-9.3,1.6-13.9
					c1.7-11.2,1.4-22.5,1.2-33.8c-0.1-4.8-0.2-9.6-1.6-14.2c-1.1-3.8-3.1-7.3-5.1-10.7c-2.3-4-4.8-8-8.3-11
					c-4.4-3.7-10.1-5.5-15.8-6.8c-13.3-3-27.1-3.7-40.5-1.8c-6.5,0.9-13,2.5-18.7,5.7c-4.8,2.7-8.9,6.5-12.8,10.3
					c-4.9,4.8-9.6,9.8-12.9,15.8S998.5,263.2,1000.4,269.8"/>
			</defs>
			<clipPath id="SVGID_12_">
				<use xlink:href="#SVGID_11_"  overflow="visible"/>
			</clipPath>
		</g>
		<path clip-path="url(#SVGID_2_)" fill="#FFE5CF" d="M1057.2,235.1c-4.4,2.6,12-2.3,11.4,2.8c-0.1,0.8-0.1,1.8,0.4,2.4
			c0.3,0.4,0.8,0.6,1.2,0.7c1.9,0.6,4,0.1,5.9-0.6c6.7-2.4,12.6-7,16.6-13c-0.8,2.5-1.6,5.1-1.2,7.7c0.2,1.8,1,3.6,2,5.2
			c1.8,3.1,4.1,5.9,7.1,8c2.9,2,6.5,3.3,10.1,3.1c1.2-0.1,2.5-0.4,3.1-1.5c0.5-0.9,0.1-2-0.2-3c-3.1-8.4-8.7-16-15.8-21.5
			c-3.2-2.4-6.8-4.5-10.7-4.9s-15.4-1-17.4,2.5"/>
		<path clip-path="url(#SVGID_2_)" fill="#FFD5B8" d="M1047.6,287.4c1.4-3.5,0.6-7.6-1.5-10.9c-2-3.3-5.1-5.9-8.4-8.1
			c-3.2-2.1-6.7-4-10.5-4.9c-3.8-0.9-7.9-0.6-11.3,1.3c-4.4,2.5-6.7,7.4-8.5,12c-0.4,1-0.7,5.1-0.6,6.1c0.7,4.3,4.9,6.2,6.1,6.6
			c2.7,1,3.1,1.3,5.9,2c7.4,1.8,14.3-3.3,21.9-2.1c2.5,0.4,5.5,0.6,7.1-1.3"/>
		<path clip-path="url(#SVGID_2_)" fill="#FFD5B8" d="M1011.5,279.2c-0.8,1.8-0.4,3.9,0.4,6c0.5,1.4,1.2,2.8,2.7,4.1
			c1.5,1.2,3.7,2.1,5.9,2.8c5.6,1.7,11.8,2,16.6,0.8s7.8-4.2,7.5-7.7c0-0.2,0-0.3-0.2-0.5c-0.2-0.3-0.7-0.4-1.2-0.6
			c-2.8-0.8-5.7-1.4-8.5-2c-5.6-1.2-11.3-2.4-16.9-3.6c-1.3-0.3-2.6-0.6-3.9-0.5s-2.3,0.6-2.2,1.4"/>
		<path clip-path="url(#SVGID_2_)" fill="#FFD5B8" d="M1060.7,285.7c-0.6,2.4,0.1,5,1.3,7.4c0.8,1.7,1.8,3.3,3.7,4.6
			c1.9,1.3,4.5,2,7.1,2.4c6.6,1.1,13.7,0.4,18.9-2.1c5.2-2.5,8.2-6.8,7.4-11c0-0.2-0.1-0.4-0.3-0.6c-0.3-0.3-0.9-0.4-1.5-0.5
			c-3.3-0.4-6.6-0.7-9.9-0.9c-6.6-0.5-13.2-0.9-19.7-1.4c-1.5-0.1-3.1-0.2-4.4,0.1s-2.5,1.2-2.3,2.1"/>
		<path clip-path="url(#SVGID_2_)" fill="#FFE1CA" d="M1029.6,234c6.5,4.5,14.4,6.5,22.2,8c5.5,1.1,11.2,2.1,16.8,2.1
			c9.9-0.1,19.8-3.2,29.5-1.7c-2.4-1.2-5.2-1.3-7.9-1.3c-5,0-10.1,0.5-15.1,0.6c-15.7,0.4-31.6-2.5-46.1-8.4c0.5,0.6,1,1.1,1.5,1.7"
			/>
		<path clip-path="url(#SVGID_2_)" fill="#FFE1CA" d="M1051.8,247.3c6.7,0.6,13.3-0.9,20-0.5c-4.8,1.1-9.7,1.7-14.6,1.8
			c-2.1,0-4.3-0.1-5.9-1.4"/>
		<path clip-path="url(#SVGID_2_)" fill="#FFD5B8" d="M1043.9,285c-0.1,2.5-0.9,5-2.3,7.1c-1.7,2.6-4.1,4.7-6.4,6.8
			c-2.3,2.2-4.4,4.6-5.2,7.7c-0.4,1.5-0.4,3.1-0.3,4.6c0.2,1.5,0.5,3,1.4,4.3c1.5,2.2,4.4,3.1,7,3c-0.2-5.1,2-9.9,4.5-14.3
			c2.4-4.4,5.2-8.8,6.3-13.8c0.3-1.2,0.4-2.4,0.2-3.6c-0.3-1.2-1.1-2.3-2.2-2.7c-1.2-0.4-2.6,0.2-3,1.3"/>
		<path clip-path="url(#SVGID_2_)" fill="#FFD5B8" d="M1026,293.1c1.6,0.5,3.2,1,4.5,1.9c1.3,1,2.4,2.4,2.5,4.1
			c0.1,2.6-2,4.7-2.3,7.3c-0.1,0.9,0.2,2,1,2.3c0.9,0.3,1.8-0.4,2.5-1.1c4.1-4.6,6.9-10.2,9.2-15.9c0.4-1,0.7-2.2,0-3
			c-0.6-0.7-1.8-0.6-2.7-0.4c-1.6,0.3-3.2,0.6-4.7,0.8c-3.2,0.6-6.5,1.2-9.6,2.1c-0.2,0.1-0.5,0.2-0.7,0.4c-0.5,0.5,0.1,1.5,0.8,1.4
			"/>
		<path clip-path="url(#SVGID_2_)" fill="#FFD5B8" d="M1019.6,362.4c1.1,3.4,1.3,6.9,2.3,10.3c1,3.4,3.2,6.9,7,8.7
			c3,1.4,6.7,1.6,10.1,1.5c3.4-0.1,6.8-0.6,10.2-0.2c2.4,0.3,4.8,1,7.3,1c3.2,0,6.1-1.2,8.3-2.9c2.2-1.7,3.7-3.9,4.9-6.2
			c1.6-3,2.6-6.2,3.7-9.4c-2.6,2-5.2,3.9-8.2,5.4s-6.6,2.5-10.3,2.3c-3.2-0.1-6.4-1.2-9.6-1.5c-3.9-0.4-7.7,0.1-11.6,0.1
			c-1.4,0-2.8-0.1-4.2-0.6c-1.2-0.4-2.2-1.1-3.1-1.8c-2.7-2-5.1-4.3-7.2-6.7"/>
		<path clip-path="url(#SVGID_2_)" fill="#FFEAD9" d="M1114.7,304.2c4.9-4.9,12.5-6.4,19.3-4.9c4.3,1,8.5,3.3,10.3,7.3
			c1.6,3.7,0.6,8.2-1.9,11.3s-6.3,5-10.2,5.9c-3.9,0.8-8,0.7-12,0.3c-0.8-0.1-1.7-0.2-2.4-0.7c-0.8-0.7-1.1-1.8-1.3-2.9
			c-1-5.6-1.6-11.3-1.8-17.1"/>
		<g clip-path="url(#SVGID_2_)">
			<defs>
				<path id="SVGID_13_" d="M1114.7,304.2c4.9-4.9,12.5-6.4,19.3-4.9c4.3,1,8.5,3.3,10.3,7.3c1.6,3.7,0.6,8.2-1.9,11.3
					s-6.3,5-10.2,5.9c-3.9,0.8-8,0.7-12,0.3c-0.8-0.1-1.7-0.2-2.4-0.7c-0.8-0.7-1.1-1.8-1.3-2.9c-1-5.6-1.6-11.3-1.8-17.1"/>
			</defs>
			<clipPath id="SVGID_14_">
				<use xlink:href="#SVGID_13_"  overflow="visible"/>
			</clipPath>
		</g>
		<path clip-path="url(#SVGID_2_)" fill="#FFD5B8" d="M1119.2,311c5.3-1.4,10.8-2.2,16.2-2.6c-3.2,1.1-6.6,1.7-10,2.3
			c-1.6,0.3-3.1,0.6-4.7,0.8c-0.2,0-0.5,0.1-0.7-0.1c-0.3-0.2-0.4-0.8-0.7-0.6"/>
		<path clip-path="url(#SVGID_2_)" fill="#FFD5B8" d="M1094.7,292.6c1.2-3.3,1.4-7.1,0.2-10.4c-1.3-3.3-4-6.2-7.5-7.2
			c-3-0.9-6.3-0.3-9.3,0.5c-3.1,0.9-6.2,2.2-8.4,4.4c-2.3,2.2-3.6,5.6-2.8,8.7c0.1,0.3,0.2,0.6,0.4,0.9c0.4,0.4,0.9,0.5,1.5,0.5
			c8.7,1.1,17.4,2.1,26.1,3"/>
		<g clip-path="url(#SVGID_2_)">
			<defs>
				<path id="SVGID_15_" d="M1040,279.5c-4.2-1.7-8.4-3.5-12.8-4.2c-4.2-0.6-8.6-0.2-12.7,1.2c-0.3,0.1-0.7,0.3-0.9,0.5
					c-0.5,0.6-0.1,1.6,0.4,2.1c0.8,0.8,1.9,1.2,2.9,1.6c7.3,2.6,15,4.2,22.7,5.1c1.2,0.1,2.4,0.2,3.5-0.2s2-1.6,1.8-2.8
					c-0.2-0.8-0.7-1.4-1.3-1.9c-1.4-1.2-2.9-2.1-4.6-2.7"/>
			</defs>
			<clipPath id="SVGID_16_">
				<use xlink:href="#SVGID_15_"  overflow="visible"/>
			</clipPath>
		</g>
		<path clip-path="url(#SVGID_2_)" fill="#323441" d="M1018.8,235.5c-3.2,1.6-5.4,4.8-6.6,8.3c-1.1,3.4-1.4,7.1-1.6,10.7
			c-0.4-0.9-0.7-1.9-0.6-2.8c-0.1,1.4-0.2,2.7-0.2,4.1c-0.3-0.9-0.5-1.7-0.8-2.6c0.4,3.5,0.5,7-0.3,10.4c-0.8,3.4-2.4,6.7-5.1,8.9
			c0.4-1,0.9-1.9,1.3-2.9c-0.8,1.7-2.1,3.2-3.8,4.2c0.7-0.9,1.3-1.8,2-2.7c-1,2.2-2.5,6.7-4.8,7.4c-1-0.6-2.5-4-3.1-4.9
			c-0.6-0.9-0.4-2.4,0.6-2.8c-0.5,0.5-1,1-1.6,1.6c0.4-1.3,0.9-2.7,1.4-3.9c-0.4,0.9-1.1,1.7-2,2.2c1.2-4.1,1.9-8.2,2.2-12.5
			c-0.6,1-1.1,2-1.4,3.1c0.2-1.7,0.4-3.5,0.8-5.2c-0.6,0.9-1.2,1.8-1.8,2.7c0.4-2.5,0.9-5.1,2.3-7.1c0.8-1.2,2-2.2,3-3.3
			c1.6-1.7,3-3.5,4.2-5.6c-0.8,1-1.7,1.9-2.5,2.9c2-4.5,5.5-8.3,9.8-10.6c0.6-0.3,1.2-0.6,1.9-0.7c0.7-0.1,1.4,0,2.1,0
			c1.3,0.1,2.7,0.3,4,0.4c0.5,0.1,1.1,0.4,0.9,0.8c-0.5,0.1-1,0.1-1.5,0.2"/>
		<path clip-path="url(#SVGID_2_)" fill="#323441" d="M1112.8,253.3c1.6,4.8,3.3,9.7,3,14.7c-0.2,3.5-1.3,7.2-0.1,10.4
			c0.3-0.9,0.7-1.9,1-2.8c-0.3,0.9-0.3,1.9-0.1,2.8c0.4-0.5,0.7-1,1.1-1.5c0.1,2.4-0.2,4.8-0.9,7.1c-0.6,2.1-1.5,4.2-1.8,6.4
			c-0.4,2.6,0.2,5.3,1.6,7.6c0.1-0.3,0.1-0.6,0.2-0.9c0,1.7-0.8,3.9,0.3,5.2c2.3-1.2,5.8-2.6,8.1-3c-0.2-0.7,0,0-0.2-0.7
			c0.5,0.6,1.2,1.9,1.3,3.9c0.9-4,0.7-10.3-1.4-13.6c0.8,1,1.5,2,2,3.1c-0.2-1.2-0.5-2.5-0.7-3.7c0.5,0.6,1,1.3,1.3,2.1
			c-0.7-1.7-0.5-3.6-0.1-5.4s1.2-3.4,1.6-5.2c0.7-3.2,0.3-6.6-1.1-9.5c0.7,0.7,1.3,1.5,1.7,2.4c-0.2-0.9-0.4-1.8-0.6-2.7
			c0.8,0.6,1.4,1.3,1.8,2.2c0.1-1.6-0.7-3.2-1.7-4.5c-1-1.3-2.2-2.5-2.9-3.9c0.9,0.7,1.7,1.3,2.6,2c-1-1.4-1.7-3-2.2-4.6
			c-0.4-1.5-0.7-3-1.3-4.4c-1.5-3.1-4.8-5-8.1-6c-1-0.3-2.1-0.5-2.9,0.1c-0.8,0.6-0.9,1.7-0.9,2.7"/>
		<path clip-path="url(#SVGID_2_)" fill="#FBC08E" d="M1102.1,218.3c2-3.3,2.6-7.5,1.7-11.3c2,2.1,3,5,3.2,7.9c0.1,1,0,2-0.3,2.9
			c-0.5,1.2-1.5,2.3-2.7,2.7c-0.7,0.2-1.4,0.3-2-0.1c-0.6-0.4-0.8-1.4-0.2-1.8"/>
		<path clip-path="url(#SVGID_2_)" fill="#FBC08E" d="M1100.7,217.2c1-7.3-1.7-14.6-6.2-19.4c-4.5-4.8-14.6-8.9-16.7-8.2
			c-3,0.5,3.9,3.5,5.8,7.1c-10.7-8.6-26-9.4-38.3-1.9c-5.3,3.2-10.2,8-15.9,9.4c-5.3,1.3-10.8-0.5-14.5-4.7
			c-6.7-7.6-6.9-21.9-15.1-27.2c-0.9-0.6-2.1-1.1-3.2,0.3c-0.5,0.5-0.8,1.2-0.9,2c-1,4.4,0.2,8.7,1.9,12.5c1.6,3.6,3.5,7,4.5,10.9
			c-2.4-5.9-8.7-16.4-10.9-14.7c-1.5,0.9-1.2,3.5-0.6,5.2c2.1,5.9,4.9,11.4,8.2,16.4c-2.4-4.9-9.9-12.7-11-10.3
			c-1.2,2.4,3.7,10.2,7.3,13.7c-3.2-3.6-9.5-11.6-11.3-8c-2.1,4.7,8.9,24.7,18.5,31.4c7.4,5.1,16.1,7.3,24.9,7.5
			c8.8,0.2,17.7-1.6,26.3-4.1c10-2.9,20.2-7,28.2-15.1c-2.9,3.6-11,9.1-8.9,13c2.7,2.2,12.6-1.8,19.5-5.2
			C1096.6,225.6,1100.1,222.2,1100.7,217.2"/>
		<path clip-path="url(#SVGID_2_)" fill="#FBC08E" d="M1095.8,227.8c0.2,9.9,5.2,21.5,14.5,27.1c5,3,10.7,4.4,16.5,5.2
			c2.7,0.4,5.5,0.6,8.2,0c1.9-0.4,5.2-2.5,4.2-3.6c-2.4-0.7-5-1.2-7.5-1.4c7.8,0.3,15.7-3.6,20.3-9.9c1.5-2.1,2.7-4.5,3-7
			c0.3-2.6-0.5-5.3-2.5-7c-0.4-0.4-0.9-0.7-1.4-0.7c-0.4,0-1,0-1.5,0.1c-2.7,0.6-5.9,9-12,8.9c2.7-1.6,5-4.1,4.9-7.2
			c0-1.2-1.4-1.8-2.3-1c-1.9,1.7-3.2,4.5-5.9,4.3c-0.9-0.1-1.6-0.5-2.3-1.1c-1.3-1.3-1.8-3-2.5-4.6c-2.8-6.6-9.1-11.7-16.2-13.1
			c-3.2-0.6-6.5-0.5-9.5,0.6c-3,1.1-5.7,3.3-7.1,6.2c-1,2.1-0.9,2.3-0.9,4.6"/>
		<path clip-path="url(#SVGID_2_)" fill="#323441" d="M1117,299.4c-0.5,0.7-0.5,1.5-0.3,2.3c0.2,0.8,0.5,1.6,0.7,2.3
			c0.2,1.1,0.1,2.4-0.3,3.5c1.5-1.6,3-3.4,3.3-5.5c0,0.9-0.2,1.9-0.7,2.7c2.2-1.4,3.2-4,3.6-6.6c0.1-0.4,0.1-0.8-0.2-1.1
			c-0.2-0.2-0.4-0.2-0.6-0.2C1120.3,296.7,1118.2,297.6,1117,299.4"/>
		<path clip-path="url(#SVGID_2_)" fill="#F7AB72" d="M1006.2,233.2c-3.3-2-6.8-3.6-10.6-4.7c-1.7-0.5-3.9-0.7-4.8,0.8
			c-0.6,1-0.3,2.3,0.4,3.2s1.8,1.5,2.8,2c17.3,8.2,37.9,6.6,56,0.4c6-2.1,12.3-5.1,15-10.9c0.2-0.4,0.3-0.8,0.1-1.1
			c-0.2-0.3-0.6-0.5-0.9-0.5c-3.9-0.9-8-0.7-12-0.3c-9.4,0.9-18.7,2.7-27.8,5.3c-6.6,1.9-13.2,4.2-20,3.6"/>
		<g clip-path="url(#SVGID_2_)">
			<defs>
				<path id="SVGID_17_" d="M1100.7,217.2c1-7.3-1.7-14.6-6.2-19.4c-4.5-4.8-14.6-8.9-16.7-8.2c-3,0.5,3.9,3.5,5.8,7.1
					c-10.7-8.6-26-9.4-38.3-1.9c-5.3,3.2-10.2,8-15.9,9.4c-5.3,1.3-10.8-0.5-14.5-4.7c-6.7-7.6-6.9-21.9-15.1-27.2
					c-0.9-0.6-2.1-1.1-3.2,0.3c-0.5,0.5-0.8,1.2-0.9,2c-1,4.4,0.2,8.7,1.9,12.5c1.6,3.6,3.5,7,4.5,10.9c-2.4-5.9-8.7-16.4-10.9-14.7
					c-1.5,0.9-1.2,3.5-0.6,5.2c2.1,5.9,4.9,11.4,8.2,16.4c-2.4-4.9-9.9-12.7-11-10.3c-1.2,2.4,3.7,10.2,7.3,13.7
					c-3.2-3.6-9.5-11.6-11.3-8c-2.1,4.7,8.9,24.7,18.5,31.4c7.4,5.1,16.1,7.3,24.9,7.5c8.8,0.2,17.7-1.6,26.3-4.1
					c10-2.9,20.2-7,28.2-15.1c-2.9,3.6-11,9.1-8.9,13c2.7,2.2,12.6-1.8,19.5-5.2C1096.6,225.6,1100.1,222.2,1100.7,217.2"/>
			</defs>
			<clipPath id="SVGID_18_">
				<use xlink:href="#SVGID_17_"  overflow="visible"/>
			</clipPath>
			<path clip-path="url(#SVGID_18_)" fill="#F7AB72" d="M1013.6,235.5c-9.2-1.4-17.7-7.1-22.5-15.2c-1.4-2.3-2.3-5.6-0.3-7.5
				c1.7-1.6,4.4-1,6.5-0.1c5,2.1,9.6,5.2,13.5,9.1c-1.6-1.5-3-3.4-3.9-5.5c-0.3-0.6-0.5-1.2-0.4-1.9c0.2-1.1,1.4-1.7,2.5-1.7
				c1.1,0,2.1,0.5,3.1,1c22.9,10.7,50.4,9.4,73.4-0.9c-1.4,1.6-2.8,3.3-3.5,5.3s-0.4,4.5,1.1,5.9c1.4,1.3,3.5,1.4,5.4,1.1
				c3.4-0.5,6.6-2.2,9-4.7c-1.1,7.3-7.5,12.8-14.4,15.2c-6.9,2.4-14.4,2.4-21.8,2.9c-15.1,0.9-30.7,3.7-45.1-1.1
				c-1.4-0.5-2.9-1-4.3-1.6"/>
		</g>
		<path clip-path="url(#SVGID_2_)" fill="#F7AB72" d="M1078.9,212.3c-6.2-0.1-12.6-2-18.6-0.4c-0.4,0.1-0.8,0.3-0.9,0.7
			c0,0.2,0,0.4,0.1,0.6c0.5,1.1,1.9,1.5,3.2,1.7c3.4,0.5,7,0.4,10.4-0.4c1.7-0.4,3.4-1,4.8-2"/>
		<g clip-path="url(#SVGID_2_)">
			<defs>
				<path id="SVGID_19_" d="M1095.8,227.8c0.2,9.9,5.2,21.5,14.5,27.1c5,3,10.7,4.4,16.5,5.2c2.7,0.4,5.5,0.6,8.2,0
					c1.9-0.4,5.2-2.5,4.2-3.6c-2.4-0.7-5-1.2-7.5-1.4c7.8,0.3,15.7-3.6,20.3-9.9c1.5-2.1,2.7-4.5,3-7c0.3-2.6-0.5-5.3-2.5-7
					c-0.4-0.4-0.9-0.7-1.4-0.7c-0.4,0-1,0-1.5,0.1c-2.7,0.6-5.9,9-12,8.9c2.7-1.6,5-4.1,4.9-7.2c0-1.2-1.4-1.8-2.3-1
					c-1.9,1.7-3.2,4.5-5.9,4.3c-0.9-0.1-1.6-0.5-2.3-1.1c-1.3-1.3-1.8-3-2.5-4.6c-2.8-6.6-9.1-11.7-16.2-13.1
					c-3.2-0.6-6.5-0.5-9.5,0.6c-3,1.1-5.7,3.3-7.1,6.2c-1,2.1-0.9,2.3-0.9,4.6"/>
			</defs>
			<clipPath id="SVGID_20_">
				<use xlink:href="#SVGID_19_"  overflow="visible"/>
			</clipPath>
			<path clip-path="url(#SVGID_20_)" fill="#F7AB72" d="M1094.7,230.2c1.3,3.8,2.6,7.8,4.9,11.1c4.9,6.9,14.6,10.1,22.6,7.4
				c5.8-1.9,10.9-6.5,17-6.1c0.8,0.1,1.6,0.2,2.1,0.8c0.9,1.2-0.3,2.9-1.5,3.8c-2.1,1.7-4.3,3.2-6.7,4.4c4.9-3.6,11.2-5.2,17.2-4.4
				c1.5,0.2,3,0.6,3.9,1.8c0.5,0.7,0.8,1.6,0.8,2.5c0.1,3-2,5.7-4.4,7.5c-3.4,2.6-7.6,3.9-11.9,4.4s-8.5,0.1-12.8-0.4
				c-8.5-1.1-17.4-3.2-23.6-9.1c-1.2-1.1-2.3-2.4-3-3.9c-0.5-1.1-0.8-2.2-1.1-3.4c-1.3-4.8-2.5-9.7-3.8-14.5"/>
		</g>
		<path opacity="0.49" clip-path="url(#SVGID_2_)" fill="none" stroke="#FFDEC5" stroke-width="3.1941" stroke-miterlimit="10" d="
			M1058.8,289c-0.7,1.1-0.9,2.4-1,3.7c-0.5,7.5,1.7,15.5-2,22.4"/>
		<path opacity="0.49" clip-path="url(#SVGID_2_)" fill="none" stroke="#FFDEC5" stroke-width="3.1941" stroke-miterlimit="10" d="
			M1064.1,295.3c1,3.4,3,6.8,6.3,8.6c1.7,1,3.7,1.5,5.7,1.9c5.4,0.9,11.4,0.2,15.3-3.2"/>
		<g clip-path="url(#SVGID_2_)">
			<defs>
				<path id="SVGID_21_" d="M1057.8,345.3c8.9-6,16.2-14.8,20.6-24.5c0.6-1.3,1.1-2.6,2-3.6s3.2-3.4,3.9-3.3
					c1.1,0.2,2.2,2.7,2.8,3.9c0.6,1.2,0.7,2.6,0.8,4c0.1,5.4-1.4,10.6-3.3,15.7c-0.4,1.1-0.8,2.2-1.6,3c-1.3,1.4-3.2,2-5.1,2.5
					C1071.3,344.6,1064.5,345.4,1057.8,345.3"/>
			</defs>
			<clipPath id="SVGID_22_">
				<use xlink:href="#SVGID_21_"  overflow="visible"/>
			</clipPath>
		</g>
		<path clip-path="url(#SVGID_2_)" fill="#FFD5B8" d="M1060.6,288.1c-0.2-0.9-0.1-1.9,0.1-2.8c1.4-6.6,6.2-12.3,12.5-15
			c6.3-2.7,13.8-2.1,19.6,1.3c1,0.6,2,1.3,2.8,2.1c2.7,2.8,3.3,7,3.7,10.9c0.1,1,0.2,2.1-0.1,3.1c-0.3,1-1,1.9-1.7,2.6
			c-4.2,4.5-10.6,6.7-16.8,6.7c-6.2-0.1-12.3-2.2-17.6-5.3c-0.6-0.3-1.1-0.7-1.5-1.2c-0.7-0.9-0.7-2.1-0.7-3.1"/>
		<path clip-path="url(#SVGID_2_)" fill="#FFFFFF" d="M1088.2,272.1c-3.2-1-7.2-0.1-10.3,1.1c-3.1,1.2-5.8,3.2-8.3,5.3
			c-2.8,2.4-5.4,5.2-6.1,8.5c-0.3,1.5-0.1,3.1,1.1,4.2c1.6,1.5,4.3,1.4,6.5,0.6c2.2-0.8,4.1-2,6.2-2.7c2.3-0.8,4.9-0.8,7.3-0.1
			c1.8,0.5,3.4,1.4,5.2,1.7c2.6,0.4,5.6-0.7,6.9-2.8c0.7-1.2,0.8-2.6,0.7-3.9c-0.1-2.6-0.9-5.1-2.5-7.3
			C1093.5,274.5,1091,272.8,1088.2,272.1"/>
		<path clip-path="url(#SVGID_2_)" fill="#FFFFFF" d="M1020.1,266.4c3.2-0.7,7.1,0.4,10.1,1.9c3,1.5,5.5,3.6,7.7,5.9
			c2.6,2.6,5,5.6,5.3,8.9c0.2,1.5-0.2,3.1-1.4,4.1c-1.7,1.3-4.4,1-6.4,0.1c-2.1-0.9-3.8-2.3-5.9-3.2c-2.2-0.9-4.8-1.2-7.1-0.7
			c-1.8,0.4-3.5,1.1-5.3,1.3c-2.6,0.2-5.5-1.1-6.5-3.3c-0.6-1.2-0.6-2.6-0.4-3.9c0.3-2.5,1.3-5,3-7
			C1014.8,268.4,1017.3,266.9,1020.1,266.4"/>
		<path clip-path="url(#SVGID_2_)" fill="#21232B" d="M1027.6,267.7c0.6,0.3,1.2,0.7,1.6,1.4c0.4,0.6,0.5,1.3,0.4,2
			c0,0.4-0.2,0.8-0.4,1.1c-0.2,0.3-0.5,0.5-0.8,0.7c-0.6,0.4-1.3,0.6-2,0.5c-0.7-0.1-1.4-0.5-1.8-1.1c-0.3-0.4-0.4-0.8-0.5-1.2
			c-0.1-0.6-0.1-1.2,0.1-1.8c0.2-0.6,0.6-1.1,1.1-1.4c0.5-0.3,1.2-0.3,1.8-0.2"/>
		<path clip-path="url(#SVGID_2_)" fill="#21232B" d="M1084.6,272.2c0.6,0.3,1.2,0.7,1.6,1.4s0.5,1.3,0.4,2c0,0.4-0.2,0.8-0.4,1.1
			c-0.2,0.3-0.5,0.5-0.8,0.7c-0.6,0.4-1.3,0.6-2,0.5c-0.7-0.1-1.4-0.5-1.8-1.1c-0.3-0.4-0.4-0.8-0.5-1.2c-0.1-0.6-0.1-1.2,0.1-1.8
			c0.2-0.6,0.6-1.1,1.1-1.4c0.5-0.3,1.2-0.3,1.8-0.2"/>
		<path clip-path="url(#SVGID_2_)" fill="#323441" d="M1096.6,255.1c-5.4-2.8-9.3-3.7-14.7-1.9c0.7,0.1,1.3,0.3,2,0.4
			c-0.7,0.2-1.4,0.3-2,0.3c1,0.5,2.1,0.8,3.3,0.9c-1.8,0.5-3.7,0-5.6-0.2c-1.9-0.2-4,0.1-5.2,1.6c0.5-0.1,1-0.2,1.5-0.1
			c-2.6,0.2-5.1,1.8-6.4,4.1c2.1-0.9,4.7,0.2,6.9-0.6c-0.7,0.4-1.4,0.7-2.2,1.1c0.5-0.1,1-0.3,1.5-0.4c-0.4,0.3-0.9,0.6-1.3,0.9
			c5-0.7,10.1-0.4,15.2,0c-0.5,0.2-1.1,0.4-1.6,0.6c1-0.3,2.2,0.1,3.1,0.7c3.9,2.3,6.9,6.2,8,10.6c-0.2-0.4-0.4-0.8-0.6-1.2
			c-0.7,2.4-0.2,5.1,1.3,7.1c0.1-0.3,0.2-0.5,0.4-0.8c0.1,0.6,0.1,1.2-0.1,1.8c1.5-1.4,2.3-3.4,2.4-5.5c0.1,0.7,0.3,1.4,0.4,2.2
			c0.6-2.3,0.9-4.7,0.9-7.1c0-3.7-0.7-7.6-3.2-10.4c0.6,0.6,1.2,1.1,1.7,1.7C1101.1,258.4,1099.1,256.4,1096.6,255.1"/>
		<path clip-path="url(#SVGID_2_)" fill="#323441" d="M1020.8,248.4c-2.5,1-4,2.3-5.7,4.2c0.5-0.4,1-0.7,1.7-0.9
			c-1.5,1.9-3,3.7-4.1,5.8c-1,2.1-1.6,4.6-0.9,6.8c0.2-0.4,0.5-0.8,0.7-1.3c-0.3,1.1-0.2,2.3,0.2,3.4c0-0.2,0.1-0.5,0.1-0.7
			c0.1,1.1,0.4,2.3,0.8,3.4c1-1.8,1.5-3.8,1.4-5.7c0.1,0.6,0.2,1.3,0.3,1.9c0.7-3.5,3.7-6.4,7.2-7.8c3.5-1.5,7.3-1.7,11.1-1.5
			c-0.5-0.4-1.1-0.8-1.8-1c1.7,0.3,3.5,0.7,5,1.6c0.6,0.4,1.2,0.8,1.9,1.2c1.9,1,4.1,1.2,6.3,1.1c-0.3-0.2-0.7-0.3-1-0.5
			c0.9,0.2,1.9,0.4,2.8,0.4c-2.3-2.5-4.7-5.1-8-6.1c0.9,0.1,1.8,0.2,2.7,0.3c-2-0.9-4-1.8-5.9-3c-1.2-0.8-2.4-1.7-3.8-2.3
			c-2-0.9-4.4-1.1-6.6-0.6c0.7,0,1.4,0.1,2,0.4C1024.9,247.4,1022.8,247.7,1020.8,248.4"/>
		<path clip-path="url(#SVGID_2_)" fill="#323441" d="M1095.7,332.1c-19.1,2.2-38.4,4.4-57.5,1.1c-12.4-2.1-24.5-6.5-37-7.6
			c-2-0.2-4.4,0-5.3,2c-0.6,1.3-0.3,2.8,0.1,4.2c2.1,7.2,7.2,12.9,13,16.6c5.8,3.6,12.4,5.4,18.8,6.6c13.8,2.6,27.8,3.2,41.5,0.8
			c10.4-1.8,21.5-6.2,26.7-16.7c0.7-1.4,1.3-3,0.9-4.6c-0.3-1.6-2-2.9-3.2-2.1"/>
		<path clip-path="url(#SVGID_2_)" fill="#FBC08E" d="M1036.6,316.9c-3.5,1-9,4.3-11.8,6.6c-1.8,1.5-3.6,3.5-3.6,5.8
			c0,0.5,0.1,1.2,0.6,1.5c0.4,0.3,0.9,0.2,1.3,0.2c3.6-0.4,7-1.8,9.8-4.1c-3.2,3.7-4.9,8.6-4.7,13.4c0,0.9,0.5,1.8,1.3,2.2
			c1.2,0.6,2.1,0,2.9-0.8c3.7-3.4,5.5-8.3,7.3-13c-1.5,3.1-2,6.6-1.6,10c0.1,0.6,0.4,1.2,1,1.4c1,0.4,1.7-0.4,2.2-1.2
			c1.3-2.2,2-4.8,2-7.4c-0.4,1.8-0.4,3.8,0,5.6c0.1,0.4,0.3,0.7,0.7,0.8c0.7,0.3,1.3-0.4,1.6-1.1c0.7-1.6,0.9-5.9,0.9-7.6
			c0,0,0.2,2.6,0.2,2.6c0,0.8,1.2,1.1,1.5,0.4c0.6-1.1,0.9-2.4,1-3.7c-0.9,2.5-0.4,5.4,1.2,7.6c1.3,1.8,4.2,1,4.3-1.2
			c0-1.4-0.1-2.9-0.3-4.3c-0.3,2.4,0.5,4.8,2.1,6.7c1,1.2,3,0.2,2.6-1.4c-0.4-1.5-0.8-3-1.4-4.5c0.5,2.6,2.4,4.9,4.8,5.9
			c0.5,0.2,1,0.3,1.5,0.1c1.3-0.3,1.4-1.4,1.4-2.3c-0.1-4-2.9-7.8-6.6-9c1.5,0.6,3,1.2,4.5,1.7c0.9,0.4,1.9,0.7,3,0.4
			c0.4-0.1,0.8-0.4,1-0.9c0.5-1.1-0.4-2-1.2-2.6c-2.5-1.8-5.6-2.6-8.6-3.3c-3.1-0.7-6.1-1.5-9.2-2.2
			C1043.4,318.2,1038.8,320.9,1036.6,316.9"/>
		<g clip-path="url(#SVGID_2_)">
			<defs>
				<path id="SVGID_23_" d="M1036.6,316.9c-3.5,1-9,4.3-11.8,6.6c-1.8,1.5-3.6,3.5-3.6,5.8c0,0.5,0.1,1.2,0.6,1.5
					c0.4,0.3,0.9,0.2,1.3,0.2c3.6-0.4,7-1.8,9.8-4.1c-3.2,3.7-4.9,8.6-4.7,13.4c0,0.9,0.5,1.8,1.3,2.2c1.2,0.6,2.1,0,2.9-0.8
					c3.7-3.4,5.5-8.3,7.3-13c-1.5,3.1-2,6.6-1.6,10c0.1,0.6,0.4,1.2,1,1.4c1,0.4,1.7-0.4,2.2-1.2c1.3-2.2,2-4.8,2-7.4
					c-0.4,1.8-0.4,3.8,0,5.6c0.1,0.4,0.3,0.7,0.7,0.8c0.7,0.3,1.3-0.4,1.6-1.1c0.7-1.6,0.9-5.9,0.9-7.6c0,0,0.2,2.6,0.2,2.6
					c0,0.8,1.2,1.1,1.5,0.4c0.6-1.1,0.9-2.4,1-3.7c-0.9,2.5-0.4,5.4,1.2,7.6c1.3,1.8,4.2,1,4.3-1.2c0-1.4-0.1-2.9-0.3-4.3
					c-0.3,2.4,0.5,4.8,2.1,6.7c1,1.2,3,0.2,2.6-1.4c-0.4-1.5-0.8-3-1.4-4.5c0.5,2.6,2.4,4.9,4.8,5.9c0.5,0.2,1,0.3,1.5,0.1
					c1.3-0.3,1.4-1.4,1.4-2.3c-0.1-4-2.9-7.8-6.6-9c1.5,0.6,3,1.2,4.5,1.7c0.9,0.4,1.9,0.7,3,0.4c0.4-0.1,0.8-0.4,1-0.9
					c0.5-1.1-0.4-2-1.2-2.6c-2.5-1.8-6.3-2.6-9.3-3.3c-3.1-0.7-5.4-1.4-8.4-2.2C1043.4,318.2,1038.8,320.9,1036.6,316.9"/>
			</defs>
			<clipPath id="SVGID_24_">
				<use xlink:href="#SVGID_23_"  overflow="visible"/>
			</clipPath>
			<path clip-path="url(#SVGID_24_)" fill="#F7AB72" d="M1037.8,315.7c-6.1,1.7-11.9,4.7-16.7,8.8c-0.9,0.7-1.7,1.5-2.2,2.5
				c-0.5,1-0.7,2.3-0.1,3.2c0.5,0.9,1.6,1.4,2.7,1.5s2.1-0.2,3.1-0.6c4.2-1.5,8-4.2,10.8-7.7c-2.2,2.9-3.9,6.2-5,9.7
				c-0.2,0.6-0.3,1.3,0,1.8c0.4,0.5,1.1,0.7,1.8,0.6c2-0.2,3.6-1.8,4.7-3.6c1-1.7,1.7-3.7,2.7-5.5c-0.5,1.2-0.8,2.5-0.8,3.8
				c0,0.7,0.2,1.4,0.7,1.8c1,0.5,2-0.7,2.4-1.7c1.2-2.7,2-5.6,2.4-8.5c0.2,2.5,1.7,6.2,3.9,7.3c0.5,0.2,1.9,0.4,2.4,0.2
				c1-0.5,2.1-1.2,2.1-2.3c0-0.8-0.1-5.6-0.4-6.4c-0.3-0.9-1.2-1.1-1.5-2c-0.4-1.1-1.9,0.4-2.7-0.5c-2.1-2.2-5.7-1.8-8.5-2.8"/>
		</g>
		<path clip-path="url(#SVGID_2_)" fill="#FFEAD9" d="M1048.3,283c-0.5,5.2-2,9-4.5,13.3s-5.4,8.3-7.6,12.8
			c-0.4,0.8-0.7,1.5-0.8,2.4c-0.1,1,0.1,1.9,0.4,2.8c0.3,1.2,0.8,2.3,1.4,3.3c1.3,2,2,6.6,4.1,7c2.1,0.4,9.4-3.3,11.5-3.9
			c0.5-0.1,1.5-3.6,1.7-4.2c1.4-3.4-1.8-0.1-3.4,1.9c-3.9,4.8,2.6-12.2,3.1-18.3c0.2-1.6,0.3-3.2,0.2-4.9
			C1054,291.3,1051.7,285.6,1048.3,283"/>
		<g clip-path="url(#SVGID_2_)">
			<defs>
				<path id="SVGID_25_" d="M1095.7,332.1c-19.1,2.2-38.4,4.4-57.5,1.1c-12.4-2.1-24.5-6.5-37-7.6c-2-0.2-4.4,0-5.3,2
					c-0.6,1.3-0.3,2.8,0.1,4.2c2.1,7.2,7.2,12.9,13,16.6c5.8,3.6,12.4,5.4,18.8,6.6c13.8,2.6,27.8,3.2,41.5,0.8
					c10.4-1.8,21.5-6.2,26.7-16.7c0.7-1.4,1.3-3,0.9-4.6c-0.3-1.6-2-2.9-3.2-2.1"/>
			</defs>
			<clipPath id="SVGID_26_">
				<use xlink:href="#SVGID_25_"  overflow="visible"/>
			</clipPath>
			<path clip-path="url(#SVGID_26_)" fill="#FFFFFF" d="M993.8,343.3c32.3,8.1,66.1,8.3,99.5,6.7c0.6,0,1.3,0,1.6,0.5
				c0.2,0.3,0.2,0.7,0.1,1.1c-0.4,1.9-1.8,3.4-3.4,4.3c-1.6,0.9-3.5,1.4-5.4,1.8c-25.8,6.1-52.9,10.2-78.5,3.4
				c-4.6-1.2-9.4-3-12.2-7c-1.5-2.2-2.2-4.8-2.9-7.4c-0.2-0.6-0.3-1.3,0-1.9c0.3-0.6,1.3-0.8,1.6-0.2"/>
		</g>
		<path clip-path="url(#SVGID_2_)" fill="#FFEAD9" d="M863.3,416.6c-13.6,0.2-27.2-2.4-39.7-7.7c-3.5-1.5-7-3.2-10-5.7
			c-0.6-0.5-1.2-1.1-1.2-1.9c0-1.1,1-1.8,2-2.2c2.5-0.9,5.3-0.6,8-0.2c10.8,1.4,21.6,3,32.4,4.8c-13.7-2.2-27.4-4.6-40.7-8.2
			c-4.9-1.3-9.8-2.8-14.3-5.3c-1.2-0.6-2.5-1.7-2.1-3c0.3-0.9,1.3-1.3,2.1-1.5c4.4-1.2,9.1-1,13.6-0.6c13.2,1.1,26.2,3.3,39.2,5.5
			c-13.1-1.9-26-5.7-38-11.3c-3.3-1.5-6.6-3.2-9.6-5.4c-1.2-0.9-2.4-2.3-1.8-3.6c0.5-1.1,1.9-1.4,3.2-1.4c4.9-0.2,9.8,0.9,14.6,2
			c10.4,2.3,20.9,4.6,31.3,6.9c-13.6-4-27.7-8.2-38.7-17.1c-1-0.8-3.1-3.1-2.3-4.1c0.5-0.6,0.7-1.2,3.5-0.9c4.5,0.5,9.1,1,13.6,2.1
			c18.1,4.3,36,11.1,51.8,21c4.8,3,9.5,6.6,12.5,11.4c3,4.8,4.1,11.2,1.6,16.3c-2.2,4.4-6.6,7.2-11.3,8.6c-4.7,1.3-9.6,1.4-14.5,1.4
			"/>
		<path clip-path="url(#SVGID_2_)" fill="#EFF0F4" d="M878.1,371.3c-5.2-1.6-10.6-2.5-16-2.5c-0.4,3.3,0.2,6.6,0.8,9.9
			c2.3,12,4.5,24,6.8,36c0.3,1.4,0.5,2.8,1.4,3.9c2.1,2.5,6.5,1.5,8.5-1.1c2-2.6,2.3-6.1,2.5-9.4c0.6-10.3,1.2-20.8-0.9-30.9
			c-0.6-2.7-1.9-5.9-4.7-6.3"/>
		<path clip-path="url(#SVGID_2_)" fill="#82D5E8" d="M1040.2,475c11.1,15.6,27.1,27,44.4,35.2c17.3,8.1,35.8,13.1,54.4,17.7
			c55.2,13.5,111.4,23.5,168.1,27.2c8.2,25.2,24.5,46.5,37.3,69.6c-46.7,1.6-93.7,3.2-140.2-1.9c-46.5-5.1-92.9-17.3-132.9-41.5
			c-11.8-7.1-23.1-15.4-31.9-25.9c-6.9-8.2-12.1-17.7-15.9-27.7c-5.6-14.6-8-30.4-7.9-46c8.5-3.2,17.5-4.8,26.6-4.7"/>
		<g clip-path="url(#SVGID_2_)">
			<defs>
				<path id="SVGID_27_" d="M1040.2,475c11.1,15.6,27.1,27,44.4,35.2c17.3,8.1,35.8,13.1,54.4,17.7c55.2,13.5,111.4,23.5,168.1,27.2
					c8.2,25.2,24.4,46,37.3,69.6c-46.7,1.6-93.7,3.2-140.2-1.9c-46.5-5.1-92.9-17.3-132.9-41.5c-11.8-7.1-23.1-15.4-31.9-25.9
					c-6.9-8.2-12.1-17.7-15.9-27.7c-5.6-14.6-8-30.4-7.9-46c8.5-3.2,17.5-4.8,26.6-4.7"/>
			</defs>
			<clipPath id="SVGID_28_">
				<use xlink:href="#SVGID_27_"  overflow="visible"/>
			</clipPath>
			<path clip-path="url(#SVGID_28_)" fill="#FFEBD3" d="M1030.8,464.4c13.4,27.2,27.5,55.4,51.1,74.4c16.4,13.2,36.4,21.1,56.6,27.1
				c61.8,18.4,127.4,20.4,191.7,15.1c1.1-0.1,2.3-0.3,3-1.2c0.5-0.7,0.4-1.7,0.3-2.6c-1.5-13.5-4.1-27-7.7-40.1
				c-19.5,2.7-39.3,1.7-58.9-0.5c-76.1-8.4-150.1-34.7-214.5-76.1c-4.1-2.6-8.6-5.5-13.4-5.1s-9.5,5.7-7.1,10"/>
			<path clip-path="url(#SVGID_28_)" fill="#F6995E" d="M1030.6,467.9c1.8,11,6.2,21.3,10.6,31.5c7.4,17.1,14.9,34.4,27.1,48.4
				c21.6,24.7,54.7,35.8,86.6,43.3c62.7,14.8,129.3,20,191.2,2c1-0.3,2.1-0.6,2.7-1.4c1-1.1,0.9-2.7,0.8-4.2
				c-0.7-8.5-1.4-16.9-2-25.4c-55.7,3.8-112.2,1.1-166.4-12.4c-23.2-5.8-46.7-14-64-30.5c-7.7-7.4-14-16.2-22-23.4
				c-7.4-6.6-16.1-11.6-24.7-16.5c-7.4-4.2-14.9-8.5-22.3-12.7c-3.9-2.2-8.5-4.4-12.5-2.5c-4.9,2.3-5.3,8.9-5.1,14.3"/>
		</g>
		<g clip-path="url(#SVGID_2_)">
			<g>
				<g>
					<g>
						<path fill="#DD9362" d="M964.1,327.5c-1.1,0.3-2.3,2.4-2,3.6c0.2,0.9,0.8,1.2,1.5,1c0,0,0,0,0.1,0c1.1-0.3,2.3-2.3,2-3.6
							C965.5,327.6,964.9,327.3,964.1,327.5C964.2,327.5,964.1,327.5,964.1,327.5z"/>
					</g>
				</g>
				<g>
					<g>
						<path fill="#DD9362" d="M970.1,330.1c-1.4,0.3-3.2,2.1-4.5,4.4c-0.4,0.7-0.7,1.4-1,2.1c-1,2.1-2.6,5.1-3.2,5.3
							c-0.1,0-0.2,0-0.3-0.2c0-0.2,0-0.7,0.2-1.8c0.3-1.2,0.8-2.8,1.6-4.6c-0.5-0.3-1-0.6-1.5-1c-0.2,0.3-0.5,0.9-0.7,1.3
							c-0.3,0.7-0.6,1.3-0.8,1.8c-1.4,3.2-3.8,8-4.7,8.3c-0.1,0-0.2,0-0.2-0.2c-0.1-0.4,0.3-1.6,1.4-4c1.1-2.3,1.5-3.7,1.3-4.6
							c-0.3-1.3-1.1-1.4-3.7-1.3c-1.2,3.4-3.2,8.6-4,8.8c-0.1,0-0.2,0-0.3-0.2c-0.1-0.6,0.3-2.3,1.4-5.2c0.4-1,0.7-1.9,1.1-2.8
							c-0.5-0.3-0.9-0.7-1.4-1c-0.3,0.6-0.5,1.2-0.8,1.8c-1.1,2.5-3.8,8.7-4.4,8.8c-0.1,0-0.2,0-0.3-0.2c-0.1-0.4,0-1.2,0.4-2.5
							c0.3-1.3,1-3,1.8-4.9c-0.5-0.4-1.1-0.7-1.6-1.1c-0.5,0.9-1,2.1-1.4,3.2c-0.1,0.3-0.2,0.6-0.3,0.9c-1,2.2-3.7,8.5-5.4,8.9
							c-0.5,0.1-0.9-0.2-1-1c-0.1-0.5-0.1-1.1,0-1.7c3-2.1,5.9-6.1,5.5-8.2c-0.2-0.8-0.7-1.3-1.7-1.1c-1.3,0.3-3.1,2.2-4.4,4.6
							c-0.5,1-1,2-1.3,3c-2.1,4.7-3.1,5.8-3.6,6c-0.2,0.1-0.4-0.2-0.5-0.6c-0.2-1.1,0.1-3,0.8-5.5c2.9-3.9,4.8-6.6,6-9.4
							c1.2-2.7,1.8-4.5,1.5-6c-0.2-1.1-0.7-1.6-1.5-1.4c-0.8,0.2-1.8,1.4-3.2,4.3c-1,1.9-2.1,4.3-3,6.8c-0.2,0.6-0.5,1.2-0.7,1.8
							c-0.1-0.3-0.2-0.5-0.2-0.7c-1.4,0.4-2.8,0.9-4.2,1.4c1.4-4.4,2.9-8.8,4.3-12.5c2-0.9,4.5-1.9,8-3.1c-0.2-0.6-0.4-1.2-0.7-1.8
							c-2.3,0.6-7.7,2.3-13.6,5.2c0.4,1.1,1.1,2.6,1.1,2.6c0.8-0.5,1.6-1,2.5-1.5c-1.3,3.2-2.9,7.6-4.4,12.2c-0.8,0.3-1.6,0.6-2,0.8
							c0.5,1.1,0.7,1.7,1,2.3c-1.3,3.9-2.4,7.8-3.4,11.4c0,0,1.5,1.4,2.1,2.1c1-4,2.5-9.3,4.2-14.8c1.7-0.8,3.2-1.4,4.8-2
							c-1.2,3.6-2,7-1.6,9.1c0.3,1.5,1,2.2,2,1.9c1.1-0.3,2.3-1.8,3.8-4.7c0,0.2,0,0.4,0.1,0.6c0.3,1.8,1.5,2.6,2.8,2.2
							c1.9-0.5,3.5-3.2,5-6.3c0,0.2,0,0.5,0.1,0.7c0.2,1.2,0.9,1.6,1.6,1.4c1.1-0.3,1.9-2.1,3.1-4.5c0,0,0,0,0-0.1
							c-0.2,0.7-0.1,1.3,0,1.8c0.2,1.1,0.9,1.4,1.4,1.2c1.7-0.5,4.1-6,5.2-9.4c0.1,0,0.2,0,0.2-0.1c0.7-0.2,0.8,0.1,0.8,0.2
							c0.1,0.5-0.4,1.7-1.3,3.7c-1.5,3.4-1.9,4.4-1.6,5.6c0.2,1,0.9,1.4,1.6,1.2c1.4-0.4,3.1-3.1,4.5-5.9c0,0.3,0,0.6,0.1,0.8
							c0.2,1.2,1,1.5,1.7,1.3c0.9-0.3,2-1.8,3-3.5c0,0.3,0,0.6,0.1,0.8c0.3,1.6,1.5,2.2,2.7,1.8c1.6-0.5,3.2-2.1,5.1-5
							c-0.1-0.6-0.1-1.2-0.2-1.9c-2.3,3.4-3.1,4.7-4.2,5c-0.5,0.1-1-0.2-1.1-1c-0.1-0.5-0.1-1,0-1.5c3.1-2.1,6.1-5.8,5.7-7.7
							C971.7,330.3,971.1,329.8,970.1,330.1z M938.8,343.7c1-2.3,2.2-4.2,2.7-4.3c0.1,0,0.2,0,0.2,0.2c0.2,1.1-1.6,4.3-3.6,6.2
							C938.3,345.1,938.5,344.4,938.8,343.7z M934.7,339.4c1.1-3,2-5.5,2.8-7.1c0.5-1.1,0.8-1.7,1.1-1.8c0.1,0,0.3,0,0.3,0.2
							c0.1,0.6-0.2,1.8-1.1,4c-1,2.3-2.4,4.8-4,7.4C934,341.3,934.3,340.4,934.7,339.4z M966.4,337.3c0.2-0.7,0.4-1.3,0.7-1.9
							c1-2.2,2.3-4,2.8-4.1c0.1,0,0.2,0,0.2,0.2C970.4,332.5,968.5,335.4,966.4,337.3z"/>
					</g>
				</g>
				<g>
					<g>
						<path fill="#DD9362" d="M897.9,341.3c-1.2,0.2-2.4,2.4-2.1,3.7c0.2,1,0.8,1.3,1.5,1.2c0,0,0,0,0.1,0c1.2-0.2,2.4-2.3,2.1-3.7
							C899.3,341.5,898.7,341.2,897.9,341.3C897.9,341.3,897.9,341.3,897.9,341.3z"/>
					</g>
				</g>
				<g>
					<g>
						<path fill="#DD9362" d="M916.7,342.8c-1.4,0.3-3.2,2.1-4.5,4.5c-0.4,0.7-0.7,1.5-1,2.2c-2.7,5.9-4.2,8.2-5,8.4
							c-0.2,0-0.4-0.2-0.5-0.6c-0.1-0.8,0-2,0.3-3.5c3-3.8,4.5-6.1,5.9-9.1c1.5-3.2,2.1-5.3,1.8-7.1c-0.2-1.1-0.7-1.6-1.5-1.4
							c-0.7,0.2-1.5,1.1-2.9,3.7c-1,1.8-1.7,3.2-2.7,5.6c-1.4,3.4-2.6,6.7-3,9.4c-1.3,1.8-2.7,2.7-3.3,2.8c-0.3,0-0.5-0.2-0.6-0.6
							c-0.1-0.7,0-1.8,0.3-3.2c2.8-3.6,4.7-6.4,6-9.2c1.5-3.3,2.5-5.7,2.1-7.4c-0.2-1.1-0.6-1.6-1.5-1.4c-0.8,0.2-1.7,1.3-3.2,4.1
							c-1,1.8-2,4.1-3,6.4c-0.6,1.6-1.2,3.1-1.7,4.5c-0.9,2.1-3,6.1-3.7,6.2c-0.2,0-0.3-0.1-0.3-0.3c-0.1-0.3,0-1.1,0.4-2.7
							c0.3-1.1,0.8-2.7,1.6-4.5c-0.5-0.4-1-0.8-1.6-1.2c-0.2,0.3-0.5,0.8-0.7,1.2c-1.9,3.7-2.2,6-1.9,7.6c0.3,1.3,1,1.9,1.9,1.8
							c1-0.1,2.1-1.6,3.1-3.2c-0.1,0.8-0.1,1.5,0,2.1c0.3,1.5,1,2.2,2.1,2c1.1-0.1,2.6-1.4,3.8-3.1c0,0.5,0,1,0.1,1.5
							c0.3,1.5,1,2.2,1.9,2c1.3-0.2,2.9-2.4,4.8-6.1c0,0.2,0,0.4,0.1,0.6c0.3,1.8,1.5,2.6,2.8,2.4c1.6-0.3,3.2-1.9,5.2-4.9
							c-0.1-0.7-0.1-1.4-0.2-2.1c-2.3,3.6-3.2,4.9-4.3,5.1c-0.5,0.1-1-0.3-1.1-1.3c-0.1-0.5-0.1-1.1,0-1.7c3.1-1.9,6.1-5.8,5.7-8
							C918.3,343.1,917.8,342.6,916.7,342.8z M908.7,345.3c1-2.7,1.6-4.2,2.3-5.6c0.5-1.1,0.9-1.7,1.1-1.7c0.1,0,0.3,0,0.3,0.2
							c0.1,0.8-0.3,2.5-1.7,5.4c-1.2,2.6-2.3,4.9-4.1,7.5C907.3,349.3,907.9,347.4,908.7,345.3z M902.6,346c1.1-2.8,2-5.2,2.8-6.8
							c0.5-1,0.8-1.6,1.1-1.7c0.1,0,0.2,0,0.3,0.2c0.1,0.7-0.4,2.5-1.8,5.7c-1,2.3-2.4,4.8-4,7.2C901.4,349.2,902,347.6,902.6,346z
							 M913,350.6c0.2-0.7,0.4-1.4,0.7-2c1-2.3,2.3-4.2,2.8-4.3c0.1,0,0.2,0,0.2,0.2C917,345.5,915.1,348.7,913,350.6z"/>
					</g>
				</g>
				<g>
					<g>
						<path fill="#DD9362" d="M882.6,364.3c0.6-0.4,15.1-26.6,16.9-30.7c-0.7-0.7-1.9-1.7-1.9-1.7c-5.3,10.8-11.2,22.3-14.7,28.4
							c0.4-5.7,1.1-14,2.4-22.9c-1.2-0.7-2.5-1.4-2.5-1.4c-1.9,13-2.3,24.9-2.3,27.2C881.3,363.6,882,364,882.6,364.3z"/>
					</g>
				</g>
				<g>
					<g>
						<g>
							<path fill="#DD9362" d="M894.1,379.7c-0.5,0-1,0-1.5,0c0.1,0.9,0.2,1.8,0.3,2.7c-0.8,0-1.5,0-2.3,0
								c-0.4-5.3-0.7-10.5-1.1-15.8c1,0,2-0.1,3-0.1c1.6,5.2,3.2,10.5,4.9,15.9c-0.8,0-1.7,0-2.5,0
								C894.6,381.5,894.3,380.6,894.1,379.7z M892.3,376.9c0.3,0,0.7,0,1,0c-0.5-1.8-1-3.6-1.5-5.4
								C891.9,373.3,892.1,375.1,892.3,376.9z"/>
						</g>
					</g>
					<g>
						<g>
							<path fill="#DD9362" d="M907.2,365c0.9,3.4,1.9,6.8,2.8,10.2c-0.3-3.5-0.7-7-1-10.5c0.8-0.1,1.7-0.3,2.5-0.4
								c0.4,5.5,0.7,11.1,1.1,16.7c-1,0.1-2,0.3-3,0.4c-0.8-3-1.6-5.9-2.4-8.9c0.3,3,0.6,6,0.9,9.1c-1,0.1-2,0.2-3.1,0.3
								c-1.6-5.4-3.2-10.7-4.7-16.1c0.9-0.1,1.8-0.2,2.7-0.3c0.9,3.4,1.8,6.9,2.7,10.3c-0.3-3.5-0.6-7-1-10.5
								C905.6,365.2,906.4,365.1,907.2,365z"/>
						</g>
					</g>
					<g>
						<g>
							<path fill="#DD9362" d="M924.1,376c-0.5,0.1-1,0.2-1.6,0.3c0.1,0.9,0.2,1.9,0.3,2.8c-0.8,0.2-1.5,0.3-2.3,0.5
								c-0.4-5.6-0.8-11.2-1.2-16.8c1-0.2,2.1-0.4,3.1-0.6c1.7,5.3,3.3,10.6,5,15.9c-0.8,0.2-1.7,0.4-2.5,0.6
								C924.6,377.8,924.3,376.9,924.1,376z M922.2,373.5c0.4-0.1,0.7-0.1,1.1-0.2c-0.5-1.8-1.1-3.7-1.6-5.5
								C921.9,369.7,922.1,371.6,922.2,373.5z"/>
						</g>
					</g>
					<g>
						<g>
							<path fill="#DD9362" d="M937,375.6c-0.9,0.3-1.7,0.5-2.6,0.7c-1-5.4-2-10.8-3-16.2c1.4-0.3,2.7-0.7,4.1-1.1
								c1.6-0.4,2.6,0.3,2.9,2c0.2,0.9,0.3,1.7,0.5,2.6c0.3,1.3-0.3,2.1-0.7,2.5c0.4,0.1,1.2,0.4,1.5,1.6c0.3,1.8,0.7,3.6,1,5.4
								c0.1,0.7,0.3,0.9,0.4,1.1c0,0,0,0.1,0,0.1c-0.9,0.3-1.7,0.5-2.6,0.8c-0.2-0.1-0.3-0.4-0.5-1.2c-0.3-1.6-0.6-3.1-0.9-4.7
								c-0.1-0.8-0.3-0.9-0.9-0.8c-0.2,0.1-0.4,0.1-0.5,0.2C936.2,371,936.6,373.3,937,375.6z M935.2,366c0.2,0,0.3-0.1,0.5-0.1
								c0.5-0.1,0.7-0.4,0.5-1.2c-0.1-0.7-0.3-1.5-0.4-2.2c-0.1-0.7-0.3-0.9-0.8-0.7c-0.2,0.1-0.4,0.1-0.6,0.2
								C934.7,363.3,935,364.7,935.2,366z"/>
						</g>
					</g>
					<g>
						<g>
							<path fill="#DD9362" d="M945.2,356.3c1.2-0.4,2.4-0.7,3.7-1.1c1.9-0.6,3,0.1,3.5,2.4c0.6,2.9,1.1,5.8,1.7,8.7
								c0.4,2.2,0,3.6-2.1,4.4c-1.2,0.4-2.4,0.9-3.7,1.3C947.2,366.8,946.2,361.6,945.2,356.3z M950.3,368.5
								c0.2-0.1,0.3-0.1,0.5-0.2c0.6-0.2,0.7-0.6,0.5-1.3c-0.5-2.8-1.1-5.5-1.6-8.3c-0.1-0.8-0.4-1-0.9-0.8
								c-0.2,0.1-0.4,0.1-0.6,0.2C949,361.5,949.6,365,950.3,368.5z"/>
						</g>
					</g>
					<g>
						<g>
							<path fill="#DD9362" d="M962.4,350.7c2-0.7,2.9,0,3.3,1.9c0.1,0.6,0.3,1.3,0.4,1.9c-0.8,0.3-1.6,0.6-2.5,0.9
								c-0.1-0.6-0.3-1.2-0.4-1.8c-0.1-0.5-0.3-0.7-0.7-0.6c-0.4,0.2-0.5,0.5-0.4,1c0,0.1,0,0.2,0.1,0.3c0.1,0.7,0.4,1.1,1.2,1.6
								c0.6,0.4,1.2,0.8,1.8,1.1c1.6,1,2.1,1.8,2.3,3.1c0,0.2,0.1,0.4,0.1,0.7c0.4,2.1-0.2,3.9-2.4,4.8c-0.2,0.1-0.3,0.1-0.5,0.2
								c-1.9,0.8-3.1,0.1-3.5-1.8c-0.2-0.9-0.4-1.8-0.5-2.7c0.8-0.3,1.7-0.6,2.5-0.9c0.2,0.8,0.3,1.6,0.5,2.3
								c0.1,0.6,0.4,0.8,0.8,0.6c0.4-0.2,0.6-0.6,0.4-1.3c0-0.1,0-0.2-0.1-0.3c-0.2-1-0.4-1.4-1.3-1.9c-0.6-0.4-1.2-0.7-1.8-1.1
								c-1.3-0.8-1.8-1.8-2.1-3.3c0-0.2-0.1-0.4-0.1-0.6c-0.4-1.9,0.5-3.4,2.3-3.9C962,350.8,962.2,350.7,962.4,350.7z"/>
						</g>
					</g>
				</g>
			</g>
		</g>
		<path clip-path="url(#SVGID_2_)" fill="#21232D" d="M1135.4,358c83.4,71.6-3.2-18,7.3-15.2c29.5,7.7,25.3,17.3,36,43.3
			s8.1,29.1-6,53.2c-5.9,10-13.6,18.7-22.1,26.4c-7.3,6.6-15.2,12.6-24.1,16.4c-9.6,4.1-20.1,5.3-30.3,6.6c-13,1.6-26,3.2-39,2.8
			c-34-1-66.2-15.4-97.9-28.5c-28-11.5-56.3-22.1-84.9-31.8c6-19.4,6.4-40.7,1.3-60.5c17.3,7.9,36.5,9.7,54.5,15.4
			c16.2,5.1,31.3,13.4,47.6,18.2c16.7,4.8,34.2,5.8,51.5,6.7c13.7,0.7,27.5,1.3,41-1c13.5-2.3,27.9-6.9,38.7-16
			c20.2-17,17.2-14.5,26.4-39.8c1.1-2.9,1.9-3.5,0-5.9C1133.5,345.9,1137.9,356.3,1135.4,358"/>
		<path clip-path="url(#SVGID_2_)" fill="#FFEAD9" d="M857,316.8c11.6-7,24.7-11.6,38.2-13.3c3.8-0.5,7.7-0.8,11.5-0.1
			c0.8,0.1,1.6,0.3,2,1c0.6,0.9,0,2.1-0.7,2.9c-1.7,2-4.3,3.2-6.8,4.2c-10,4.3-20.2,8.3-30.4,12.1c13-4.9,26-9.8,39.3-13.4
			c4.9-1.3,9.9-2.5,15-2.6c1.3,0,3,0.3,3.3,1.5c0.2,0.9-0.4,1.8-1.1,2.4c-3.2,3.3-7.3,5.4-11.5,7.3c-11.9,5.6-24.3,10.3-36.7,15
			c12.3-4.9,25.3-8.1,38.5-9.4c3.7-0.4,7.4-0.6,11-0.1c1.4,0.2,3.2,0.8,3.4,2.2c0.1,1.2-1,2.2-2,2.8c-4.2,2.6-8.9,4.1-13.6,5.6
			c-10.2,3.2-20.4,6.5-30.5,9.7c13.8-3.4,28-6.8,42.1-4.7c1.3,0.2,4.3,1.1,4.1,2.4c-0.1,0.8,0,1.4-2.5,2.6c-4.1,1.9-8.4,3.7-12.8,5
			c-17.9,5.4-36.7,8.5-55.3,7.9c-5.7-0.2-11.5-0.9-16.5-3.6c-5-2.7-9.1-7.6-9.5-13.3c-0.3-4.9,2.1-9.6,5.5-13.1
			c3.4-3.5,7.7-6,11.9-8.5"/>
		<path clip-path="url(#SVGID_2_)" fill="#EFF0F4" d="M844.2,314.2c5.8,15.4,11.7,30.8,17.5,46.2c-7.1,0.4-14.1,1.5-21,3.1
			c-3.2-11.2-6-22.5-8.6-33.9c-0.1-0.6-0.3-1.3-0.2-1.9c0.2-0.8,0.7-1.4,1.2-2c3.5-4,7.2-7.8,11.3-11.4"/>
	</g>
	<g>
		<defs>
			<rect id="SVGID_29_" width="1440" height="800"/>
		</defs>
		<clipPath id="SVGID_30_">
			<use xlink:href="#SVGID_29_"  overflow="visible"/>
		</clipPath>
		<g clip-path="url(#SVGID_30_)">
			<rect x="1298.2" y="385.7" fill="#AA263C" width="477.9" height="584.1"/>
			<g>
				<rect x="1316.7" y="361.7" fill="#FBC08E" width="399.7" height="511.3"/>
				<polygon fill="#F7AB72" points="1316.7,361.7 1341.3,386.8 1341.3,842.3 1316.7,873 				"/>
				<polyline fill="#F7AB72" points="1693.7,386.8 1716.4,361.7 1750.4,901.5 1693.7,842.3 1693.7,386.8 				"/>
				<path fill="#F7AB72" d="M1330.6,375.8c0.3,0.3,374.5,0,374.5,0v481.8h-374.5V375.8z"/>
				<polygon fill="#EA9357" points="1330.6,375.8 1341.3,386.8 1341.3,842.3 1330.6,857.6 				"/>
				<polygon fill="#EA9357" points="1705.1,375.8 1693.7,386.8 1693.7,842.3 1705.1,857.6 				"/>
				<rect x="1341.3" y="386.8" fill="#F9F9E8" width="352.5" height="455.5"/>
				
					<rect x="1354.2" y="399.7" fill="none" stroke="#EFD0A8" stroke-width="2" stroke-miterlimit="10" width="326.6" height="429.6"/>
				<g>
					<g>
						<rect x="1410.4" y="596.2" fill="#EFD0A8" width="217.7" height="6.1"/>
						<rect x="1410.4" y="612.3" fill="#EFD0A8" width="188.6" height="6.1"/>
						<rect x="1410.4" y="628.4" fill="#EFD0A8" width="203.6" height="6.1"/>
						<rect x="1410.4" y="644.6" fill="#EFD0A8" width="188.6" height="6.1"/>
						<rect x="1410.4" y="580.1" fill="#EFD0A8" width="210.5" height="6.1"/>
					</g>
					<g>
						<rect x="1410.4" y="693.9" fill="#EFD0A8" width="217.7" height="6.1"/>
						<rect x="1410.4" y="710" fill="#EFD0A8" width="193.1" height="6.1"/>
						<rect x="1410.4" y="726.2" fill="#EFD0A8" width="156.3" height="6.1"/>
						<rect x="1410.4" y="661.7" fill="#EFD0A8" width="210.7" height="6.1"/>
						<rect x="1410.4" y="677.8" fill="#EFD0A8" width="203.6" height="6.1"/>
					</g>
				</g>
				<g>
					<g>
						<path fill="#EFD0A8" d="M1552.6,463c3,3.7,3.5,8.6,5.1,12.8c1.7,4.3,4.5,8.4,4.8,13c0.2,4.6-2.2,9-3.4,13.4
							c-1.2,4.4-1.2,9.4-3.8,13.3c-2.4,3.7-7,5.9-10.6,8.8c-3.7,3-6.7,7-10.8,8.6c-4.3,1.7-9.3,0.7-13.8,0.9
							c-4.6,0.2-9.4,1.7-13.8,0.5c-4.4-1.2-7.8-4.8-11.7-7.4c-3.7-2.4-8.5-4-11.5-7.7c-3-3.7-3.5-8.6-5.1-12.8
							c-1.7-4.3-4.5-8.4-4.8-13c-0.2-4.6,2.2-9,3.4-13.4c1.2-4.4,1.2-9.4,3.8-13.3c2.4-3.7,7-5.9,10.6-8.8c3.7-3,6.7-7,10.8-8.6
							c4.3-1.7,9.3-0.7,13.8-0.9c4.6-0.2,9.4-1.7,13.8-0.5c4.4,1.2,7.8,4.8,11.7,7.4C1544.8,457.7,1549.6,459.3,1552.6,463z"/>
					</g>
					<circle fill="none" stroke="#F9F9E8" stroke-width="0.5" stroke-miterlimit="10" cx="1517.8" cy="491.1" r="30.9"/>
				</g>
				<path fill="none" stroke="#EFD0A8" stroke-width="0.5" stroke-miterlimit="10" d="M1575.7,799.1c5.1-17.8,14.2-32.7,17-31.6
					c4.3,1.9-7,30.7-2.9,31.5s9.1-24,13.2-22.9c2.7,0.7-1.3,17.8,1.3,17.5c2.7-0.3,8.6-13.3,23.5-10.4c7.6,1.5-37.8,6.3-58.8,5.5"/>
			</g>
		</g>
	</g>
	<g>
		<defs>
			<rect id="SVGID_31_" width="1440" height="800"/>
		</defs>
		<clipPath id="SVGID_32_">
			<use xlink:href="#SVGID_31_"  overflow="visible"/>
		</clipPath>
		<g clip-path="url(#SVGID_32_)">
			<rect x="1273.2" y="-274.4" fill="#AA263C" width="477.9" height="584.1"/>
			<g>
				<path fill="#F7AB72" d="M1659.1-134.2"/>
				<rect x="1288.4" y="-227.8" fill="#FBC08E" width="432.6" height="518.4"/>
				<polygon fill="#F7AB72" points="1288.4,-227.8 1315,-200.6 1315,257.3 1288.4,290.6 				"/>
				<polyline fill="#F7AB72" points="1696.5,-200.6 1721,-227.8 1721,290.6 1696.5,257.3 1696.5,-200.6 				"/>
				<path fill="#F7AB72" d="M1303.4-212.4c0.3,0.3,405.3,0,405.3,0V274h-405.3V-212.4z"/>
				<polygon fill="#EA9357" points="1303.4,-212.4 1315,-200.6 1315,257.3 1303.4,274 				"/>
				<polygon fill="#EA9357" points="1708.7,-212.4 1696.5,-200.6 1696.5,257.3 1708.7,274 				"/>
				<rect x="1315" y="-200.6" fill="#2C8591" width="381.4" height="457.9"/>
				<g>
					<defs>
						<rect id="SVGID_33_" x="1315" y="-200.6" width="381.4" height="457.9"/>
					</defs>
					<clipPath id="SVGID_34_">
						<use xlink:href="#SVGID_33_"  overflow="visible"/>
					</clipPath>
					<path clip-path="url(#SVGID_34_)" fill="#323441" d="M1486,96.6c-61,38-108.8,96.9-133.2,164.5c30.6-5.4,62-1.9,92.9,0.9
						c49,4.5,98.2,7.5,147.4,10c36.9,1.8,73.8,3.3,110.7,4.5c-1.9-47.3-3.9-94.6-5.8-141.9c-0.1-3.4-0.3-6.9-1.6-10.1
						c-1.8-4.5-5.5-7.8-9.2-10.8c-18.5-15-40.1-26.1-63-32.4c-5.5-1.5-11.1-2.8-16.8-2.7c-7.5,0-14.8,2.2-21.9,4.4
						c-12.9,4-25.9,8-38.8,11.9c-12.7,3.9-25.5,7.8-38.7,8.1c-7.4,0.2-14.7-0.8-21.8-2.8"/>
					<path clip-path="url(#SVGID_34_)" fill="#FFFFFF" d="M1504.1,124.6c-9.7,22.2-7.5,47.5-9.3,71.7c-1.7,23.1-7.3,46-6.6,69.1
						c22.5,3.3,45,6,67.7,8c13.9-34.4,20.4-71.7,19.1-108.8c-0.3-8.1-1.1-16.6-5.5-23.4c-3.7-5.7-9.6-9.6-15.6-13
						c-12.4-7-25.6-12.4-39.3-16.1c-1.3-0.3-2.6-0.7-3.8-0.2c-1,0.4-1.8,1.3-2.4,2.3c-2.7,3.8-4.7,8.1-5.8,12.6"/>
					<path clip-path="url(#SVGID_34_)" fill="#EB4E54" d="M1513.5,168.5c-7.9,11.5-11.3,25.4-14.1,39.1c-4.3,21.1-7.6,42.8-4.8,64.1
						c0.4,3.2,1.2,6.7,3.8,8.7c1.6,1.2,3.7,1.6,5.7,1.8c11.4,1.6,22.9,1.8,34.4,0.8c1.2-0.1,2.4-0.3,3.3-1c1.2-1,1.6-2.6,1.8-4.2
						c5-30.4,10.1-61.8,2.5-91.6c-1.8-7.1-4.6-14.4-10.6-18.6c-2.6-1.8-5.7-2.9-8.9-3.4c-4.1-0.6-8.6-0.2-12.1,2
						C1511.2,168.5,1512.8,164.4,1513.5,168.5"/>
					<g clip-path="url(#SVGID_34_)">
						<defs>
							<path id="SVGID_35_" d="M1513.5,168.5c-7.9,11.5-11.3,25.4-14.1,39.1c-4.3,21.1-7.6,42.8-4.8,64.1c0.4,3.2,1.2,6.7,3.8,8.7
								c1.6,1.2,3.7,1.6,5.7,1.8c11.4,1.6,22.9,1.8,34.4,0.8c1.2-0.1,2.4-0.3,3.3-1c1.2-1,1.6-2.6,1.8-4.2
								c5-30.4,10.1-61.8,2.5-91.6c-1.8-7.1-4.6-14.4-10.6-18.6c-2.6-1.8-5.7-2.9-8.9-3.4c-4.1-0.6-8.6-0.2-12.1,2
								C1511.2,168.5,1512.8,164.4,1513.5,168.5"/>
						</defs>
						<clipPath id="SVGID_36_">
							<use xlink:href="#SVGID_35_"  overflow="visible"/>
						</clipPath>
						<path clip-path="url(#SVGID_36_)" fill="#C63647" d="M1489.6,245.7c14.3-24.6,44.7-38.7,72.7-33.6c-2.2-8.2-4.9-16.3-8.1-24.1
							c-1.7-4.3-3.6-8.7-6.6-12.2c-5.5-6.4-14.2-9.3-22.6-9.2c-3.4,0-6.9,0.6-10,2.1c-3.6,1.9-6.4,5.1-8.7,8.5
							c-6.7,10-10.1,21.8-13.3,33.5c-2,7.1-3.9,14.2-5.9,21.3c-0.7,2.5-1.4,5-1.2,7.6c0.2,2.6,1.5,5.2,3.8,6.3"/>
					</g>
					<path clip-path="url(#SVGID_34_)" fill="#EB4E54" d="M1511,116.5c-3.3,11.6-5,23.7-5.1,35.8c0,6.7,0.9,14.3,6.1,18.6
						c2.2,1.7,4.9,2.7,7.5,3.4c6,1.7,12.6,2.3,18.5,0.3c1.7-0.6,3.3-1.4,4.5-2.7c1.4-1.5,2.2-3.5,2.8-5.5c3.3-10.2,4.8-21,4.5-31.7
						c-0.2-5.6-1-11.5-4.7-15.7c-3.4-3.8-8.5-5.4-13.5-6.6c-4.2-1-8.7-1.9-12.9-0.7c-4.2,1.2-7.9,5-7.6,9.3"/>
					<path clip-path="url(#SVGID_34_)" fill="#272933" d="M1506,84.5c-6.6,59.3-11.1,118.9-13.6,178.5c-28.7-2.3-57.3-4.6-86-6.9
						c19.8-47.4,32.2-98.6,61.2-141c9.6-14.1,22.2-27.7,38.9-30.9"/>
					<path clip-path="url(#SVGID_34_)" fill="#272933" d="M1564.1,69.9c26-4.3,49.8-5.4,75.4,15.7c-7.6,20.3-9.5,42.4-11.5,64.1
						c-3.8,41.5-8.2,83.5-22.6,122.4c-16.4-1.1-32.8-0.8-49.2,0.7c9-32.6,12.2-66.6,14.5-100.4c1.3-19.4,2.4-38.8,1.2-58.2
						c-0.9-14.2-3-28.3-5.1-42.4c-0.7,0,0.7,0,0,0"/>
					<path clip-path="url(#SVGID_34_)" fill="#EFEFEF" d="M1525.2,116c-13.1,3.3-24.7,14.7-29.8,27.1c1.4-6.6,0.4-16.2,0.1-22.9
						c-0.7-14.2,4.3-28.6,13.6-39.4c2.5-2.9,5.7-5.7,9.5-6.1c4.1,12,6.9,24.5,8.3,37.1c0.1,1.1-0.3,2.8-1.4,2.5"/>
					<path clip-path="url(#SVGID_34_)" fill="#E8C0A6" d="M1514.2,65.4c0.9,8.3,1.8,16.7,2.7,25c1,9,2,18.1,5.7,26.4
						c3.9-5.2,8.5-9.8,13.7-13.7c7.3-5.5,15.9-9.7,21.2-17.2c7-9.8,6.8-22.7,6.4-34.7c-11.7,3.1-23.6,5.2-35.6,6.4
						c-3.2,0.3-6.4,0.6-9.2,2c-2.8,1.5-5.1,4.4-4.7,7.6"/>
					<path clip-path="url(#SVGID_34_)" fill="#FFFFFF" d="M1564.1,67c-9.1,14.3-20.8,28.7-33,40.5c-3.3,3.2-6.9,5-8.4,9.2
						c10.3,0.8,19.9,7.9,27.2,15.3s12.5,16.5,17.3,25.7c7.1-8.5,10.4-19.6,11.2-30.6s-1-22.1-3.1-32.9
						C1573.2,84.6,1570.8,73,1564.1,67C1564.1,67,1564.1,67.6,1564.1,67"/>
					<g clip-path="url(#SVGID_34_)">
						<defs>
							<path id="SVGID_37_" d="M1564.1,67c-9.1,14.3-20.8,28.7-33,40.5c-3.3,3.2-6.9,5-8.4,9.2c10.3,0.8,19.9,7.9,27.2,15.3
								s12.5,16.5,17.3,25.7c7.1-8.5,10.4-19.6,11.2-30.6s-1-22.1-3.1-32.9C1573.2,84.6,1570.8,73,1564.1,67
								C1564.1,67,1564.1,67.6,1564.1,67"/>
						</defs>
						<clipPath id="SVGID_38_">
							<use xlink:href="#SVGID_37_"  overflow="visible"/>
						</clipPath>
						<path clip-path="url(#SVGID_38_)" fill="#EFEFEF" d="M1530,94.9c-3.6,5.1-2.3,12.7,2,17.3c4.3,4.6,11,6.4,17.3,5.9
							s12.2-2.8,17.9-5.5c8.5-4.1,17.3-10.2,19.3-19.4c7,16.5,8.5,35.4,4.2,52.8c-1.7,6.8-4.4,13.7-9.3,18.7
							c-8.8,9-24.4,10.2-34.5,2.8c-3-2.2-5.4-5-7.7-7.9c-3.4-4.2-6.4-8.7-8.9-13.5c-8.3-16.3-12.4-33.5-5-50.3"/>
					</g>
					<path clip-path="url(#SVGID_34_)" fill="#FFF2E6" d="M1465.5-71c-4.8,7,1.3,18-3,25.2c-1.8,3-3.1,5.3-5.5,7.9
						c-6,6.8-12.6,14.1-13.6,22.8c-2.9,25.4-0.2,51.8,19.1,73c5.1,5.6,10.1,11.8,20.8,15.3c8.6,2.8,20,6.6,29.1,7.2
						c13.4,0.9,19.8,0.4,29.8-1.3c17.8-3.1,44.1-16.1,51.4-31.5c8.3-17.3,4.3-27.8,6.4-38.6s7.5-13.1,8.2-24
						c0.8-14.8,3-33.6-0.1-48.2s-11.9-29-26.7-35.5c-12.7-5.6-27.6-4.5-41.8-4.6c-19.4-0.1-39-2.5-57.9,1.1c-2.1,0.4-4.2,0.9-5.9,2
						c-1.9,1.2-3.1,3.1-4.1,5c-3.5,6.2-5.7,13-6.5,19.9c-0.3,2.8-1.1,6.5-4.3,7"/>
					<path clip-path="url(#SVGID_34_)" fill="#FFE5CF" d="M1517.4-61.5c1.6-5.5,5-10.5,9.5-14.1c-2,1.8-3.5,4-4.5,6.4
						c-0.5,1.2-0.7,2.7,0.3,3.5c0.5,0.4,1.2,0.5,1.8,0.5c2,0.1,4-0.5,5.9-1c20.3-6,39-17.4,53.7-32.7c-0.7,3.3,0.1,6.7,1.8,9.7
						c1.6,2.9,3.9,5.4,6.2,7.9c1.3,1.4,2.6,2.8,4.2,3.9c1,0.7,2.3,1.3,3.5,1.2c2.1-0.2,3.6-2.3,3.8-4.5c0.2-2.1-0.6-4.2-1.5-6.1
						c-2.2-5-5-9.9-8.6-14.1c-2-2.3-4.3-4.4-7-5.6c-3.4-1.5-7.3-1.6-11-1.2c-8.5,0.8-16.8,3.6-24.1,8c-6.2,3.8-11.9,8.9-19,10.3
						c-3.6,0.7-7.6,0.5-10.7,2.4c-4,2.4-5.5,7.3-6.7,11.8c-0.6,2.3-1.2,4.7-1,7c0.3,2.4,1.7,4.8,4,5.5"/>
					<g clip-path="url(#SVGID_34_)">
						<defs>
							<path id="SVGID_39_" d="M1465.5-71c-4.8,7-1.6,16.5-5.9,23.7c-1.8,3-4.6,5.2-6.9,7.9c-6,6.8-8.3,15.6-9.3,24.3
								c-2.9,25.4-0.2,51.3,17.5,71.6c9.2,10.5,14.4,14.5,24.1,17.3c8.7,2.5,19.9-3.8,29-4.7c10.1-1,20.1-2,30.1-3.7
								c17.8-3.1,36-9.2,47.6-21.7c7.8-8.4,12-19.1,14.1-29.9s2.2-21.8,2.9-32.7c0.8-14.8,2.5-29.7-0.5-44.3s-11.9-29-26.7-35.5
								c-12.7-5.6-27.6-4.5-41.8-4.6c-19.4-0.1-39-2.5-57.9,1.1c-2.1,0.4-4.2,0.9-5.9,2c-1.9,1.2-3.1,3.1-4.1,5
								c-3.5,6.2-5.7,13-6.5,19.9c-0.3,2.8-1.1,6.5-4.3,7"/>
						</defs>
						<clipPath id="SVGID_40_">
							<use xlink:href="#SVGID_39_"  overflow="visible"/>
						</clipPath>
						<path clip-path="url(#SVGID_40_)" fill="#FFE5CF" d="M1524-92.1c0.2,21-7.5,42-21,58.1c-5.9,7-13.2,13.7-14.5,22.8
							c-0.6,4.4,0.1,9.5-2.8,12.9c-1.3,1.5-3.2,2.4-4.9,3.3c-11.4,6.6-17.9,20.7-15.5,33.7c2.3,12.5,11.8,22.6,15.3,34.9
							c1,3.3,1.1,7.6-1.8,9.5c-1.2,0.8-2.8,0.9-4.2,0.9c-8.9-0.3-16.4-6.5-22.7-12.9c-11-11.3-20.4-24.2-27.9-38.1
							c-2.5-4.7-4.8-9.6-6.2-14.8C1415,8,1416-2.7,1417-13.1c1.1-11.3,2.2-22.5,4.6-33.6c1.2-5.5,2.7-11,4.2-16.5
							c1.8-6.7,3.7-13.3,6.7-19.6c6.8-14.2,19.4-25.5,34.3-30.7c12.3-4.3,26-4.5,38.7-1.2c6.1,1.6,12.2,4.1,16.1,9.1
							c3.8,5,4.4,12.9-0.2,17.1"/>
					</g>
					<path clip-path="url(#SVGID_34_)" fill="#FFE5CF" d="M1534.6-32.7c-1.3,2.5-1.2,5.4-0.6,8.2c0.4,2,1.1,4,2.8,5.8
						c1.7,1.8,4.4,3.1,7.1,4.2c6.9,2.6,15,3.4,21.4,1.9c6.4-1.5,10.9-5.5,11.2-10.3c0-0.2,0-0.5-0.1-0.7c-0.3-0.4-0.9-0.6-1.5-0.8
						c-3.5-1.2-7.1-2.2-10.7-3.2c-7.1-1.9-14.3-3.9-21.4-5.8c-1.6-0.4-3.3-0.9-4.9-0.9c-1.6,0-3.1,0.7-3.2,1.8"/>
					<path clip-path="url(#SVGID_34_)" fill="#F9D1B4" d="M1508.6-36.6c0.3-1.6,0.5-4.8,0.4-7.4v0v0c0-1.3-0.1-2.4-0.3-3.1
						c0-0.1-0.1-0.1-0.1-0.2c-0.3-1.9-0.9-3.7-1.5-5.5c-1-2.9-2.2-5.9-4.4-8c-3.4-3.3-8.4-4.2-13.1-4.2c-2.7,0-5.4,0.2-8,1
						c-7.5,2.2-13.2,9.5-13.6,17.3l0.3-0.1c0,1,0.1,2,0.3,3c0.3,1.7,0.9,3.5,2.4,5.2c1.5,1.6,3.8,3,6.1,4.1c1.9,0.9,3.8,1.6,5.8,2.1
						c1.5,0.7,3.1,1.5,4.3,2.7c1.4,1.3,2.4,3.2,2.3,5.2c-0.1,1-0.5,1.9-1,2.8c-1.6,1.5-2.9,3.2-3.7,5.2c-0.7,1.7-1,3.5-1,5.4
						c-0.1,1.8,0.1,3.7,0.9,5.3c1.4,2.8,4.6,4.3,7.7,4.6c0.6-6,4-11.3,7.5-16.1c3.6-4.8,7.5-9.5,9.6-15.1
						C1510.2-34.1,1508.3-35.2,1508.6-36.6z"/>
					<path clip-path="url(#SVGID_34_)" fill="#FFF2E6" d="M1603.3-18.8c0.1-4.6,3.8-8.3,7.6-10.8c4.8-3.2,10.3-5.4,16-5.4
						c5.7,0.1,11.6,2.8,14.5,7.7c1.2,2.1,1.9,4.4,2.4,6.8c0.7,3.8,1,7.8-0.3,11.5c-1.5,4.3-4.8,7.8-8.8,10.1s-8.5,3.5-13,4.2
						c-4.8,0.8-9.8,1.2-14.7,1.1c-1.6,0-3.2-0.1-4.6-0.8c-4-1.9-4.8-7.2-4.3-11.6c0.7-5.5,2.7-10.9,5.8-15.5"/>
					<path clip-path="url(#SVGID_34_)" fill="#FFE5CF" d="M1461-44.2c1.9-9.7-2.1-20.4-10-26.4c-2.1-1.6-4.5-2.9-7.1-2.8
						c-4.9,0.2-8.2,5.5-8.8,10.4c-0.7,5.5,0.8,11.1,3.4,15.9c2.7,4.8,6.4,9,10.5,12.7c1.3,1.2,2.7,2.4,4.3,3c1.7,0.6,3.7,0.5,5-0.6
						c0.9-0.8,1.4-2,1.8-3.1c1-3.2,1.5-6.6,1.4-9.9"/>
					<path clip-path="url(#SVGID_34_)" fill="#323441" d="M1598.6-77.7c-1.1,8,2.2,19.3,3.2,24.8c1,5.4-1.9,10.9-1.8,16.4
						c0,2.3,0.7,5,2.9,5.7c-0.7-2.7,0-5.8,1.8-8c-0.7,4.5-1.2,9.8,1.9,13.1c-0.1-2.1,0-4.2,0.1-6.3c0.7,4.3,2.2,8.5,4.6,12.1
						c-0.5-3.8,1.6-7.4,3-10.9c4.5-11.3,2.4-24.1-0.8-35.8c-0.7-2.4-1.4-4.8-2.7-6.9c-1.4-2.1-3.5-3.8-5.9-4.2
						c-1.6-0.2-3.3,0.2-4.3,1.5c-1,1.4-0.1-1.7,0,0"/>
					<path clip-path="url(#SVGID_34_)" fill="#323441" d="M1474-94.2c-5.5,6.5-6.1,15.6-8.4,23.7c-1.6,5.7-4.2,11.2-7.5,16.1
						c0.9-3,1.9-5.9,2.8-8.9c-1.3,2.8-2.8,5.5-4.5,8.2c1.2-3.6,1.8-7.5,1.9-11.3c0-3.1-0.3-6.2-0.1-9.3c0.7-9.3,6.7-18,15.2-21.9
						c0.6-0.3,1.3-0.5,1.7,0c0.2,0.2,0.2,0.5,0.3,0.8c0.1,1.6-0.4,3.6-2,3.7"/>
					<path clip-path="url(#SVGID_34_)" fill="#FBC08E" d="M1652.4-80.8c-0.7-1.5-2.8-1.7-4.5-1.5c-3,0.3-5.9,1.1-8.6,2.3
						c3.5-1.9,6.9-4.3,9.9-6.9c1.3-1.1,2.6-2.4,3.1-4.1c0.4-1.2,0.2-2.5,0-3.8c-0.1-0.8-0.3-1.7-0.8-2.3c-0.7-0.8-1.8-1.1-2.9-1.2
						c-6-0.6-11.5,2.7-16.7,5.8c-5.1,3.1-10.9,6.2-16.8,5.3c-2.9-0.5-5.6-1.9-7.5-4.1c-2.8-3.1-4-7.2-6.1-10.7
						c-1.1-1.8-2.8-3.6-4.6-4.6c0.3-0.5,0.7-0.9,1-1.4c1.2-2,2.2-4.1,2.5-6.4c0.1-0.4,0.1-1.5-0.3-1.8c-1-0.6-2.5,0.6-2.8,0.7
						c-1.5,0.8-2.6,1.7-3.8,2.6c2-7.2,0.6-15.3-3.9-21.3c-0.9-1.3-2.8-2.5-3.9-1.4c-0.5,0.5-0.6,1.2-0.6,1.8
						c-0.5,5.3-0.2,10.6,0.8,15.8c-1.8-7.7-9.1-20.2-13-19.4c-3.8,2.8-0.4,13.3,2.2,19.3c-6.5-6.1-15-10-23.8-11
						c-14.6-1.7-30.2,4.3-43.6-1.5c-8.6-3.8-14.7-11.8-18.6-20.4c-2.3-5.1-4.1-10.5-7.4-15c-3.3-4.5-8.5-8.2-14-7.7
						c-4.4,9.4,0.3,20,5.9,29.1c-4-6.1-7.9-12.2-11.9-18.3c-0.9-1.3-1.9-2.8-3.5-3.2c-2-0.5-4,1.2-4.6,3.2c-0.6,2-0.1,4.1,0.5,6.1
						c2.8,9.3,9.6,14.8,15,24.4c-4.9-5.8-13.7-20.5-16.2-16.1c-1.1,6.4,2.5,12.7,6.7,17.8c6.3,7.7,14.2,14.1,23.1,18.7
						c-7.7-1.5-20.4-12.8-21.7-8.5c-2.1,3.9,1.6,8.3,5.1,11c5.5,4.1,11.3,7.8,17.3,11c-5.8-3.3-12.4-5.4-19-6.1
						c-2-0.2-4.3-0.2-5.7,1.2c-1.8,1.7-1.4,4.9,0.2,6.8c1.6,1.9,4.1,2.9,6.4,3.8c9.6,3.7,19.2,7.3,29.2,9.5
						c14.3,3.2,28.4,3.6,42,1.4c-0.9,0.5-1.7,0.9-2.6,1.4c-1.7,1.1-3.6,2.3-4.1,4.3c-0.1,0.4-0.1,0.9,0.1,1.2
						c0.4,0.8,1.5,0.8,2.4,0.7c18.6-2,36.5-9.1,51.5-20.1c1.3,1.5,3,2.8,4.4,4.1c2.1,2,3.6,4.6,5.1,7.1c2.3,3.8,4.6,7.6,6.6,11.5
						c2.1,4.1,3.8,8.3,6.2,12.2c2.4,3.9,5.5,7.5,9.5,9.6c1.7,0.9,3.7,1.4,5.4,0.6c1.6-0.8,2.3-2.8,2.2-4.5c-0.1-1.8-1-3.4-2-4.9
						c-2.3-3.5-5.1-6.7-8.4-9.3c4,2.2,8,4.4,12.4,5.6c4.4,1.2,9.2,1.2,13.3-0.9c1.1-0.6,2.3-1.8,1.7-2.9c-0.3-0.5-0.9-0.8-1.4-1
						c-5.2-2.2-10.9-3.4-16.5-3.5c9.2,0.9,18.7-0.9,27-5.1C1651.1-76.9,1653.3-78.9,1652.4-80.8z"/>
					<g clip-path="url(#SVGID_34_)">
						<defs>
							<path id="SVGID_41_" d="M1652.4-80.8c-0.7-1.5-2.8-1.7-4.5-1.5c-3,0.3-5.9,1.1-8.6,2.3c3.5-1.9,6.9-4.3,9.9-6.9
								c1.3-1.1,2.6-2.4,3.1-4.1c0.4-1.2,0.2-2.5,0-3.8c-0.1-0.8-0.3-1.7-0.8-2.3c-0.7-0.8-1.8-1.1-2.9-1.2
								c-6-0.6-11.5,2.7-16.7,5.8c-5.1,3.1-10.9,6.2-16.8,5.3c-2.9-0.5-5.6-1.9-7.5-4.1c-2.8-3.1-4-7.2-6.1-10.7
								c-1.1-1.8-2.8-3.6-4.6-4.6c0.3-0.5,0.7-0.9,1-1.4c1.2-2,2.2-4.1,2.5-6.4c0.1-0.4,0.1-1.5-0.3-1.8c-1-0.6-2.5,0.6-2.8,0.7
								c-1.5,0.8-2.6,1.7-3.8,2.6c2-7.2,0.6-15.3-3.9-21.3c-0.9-1.3-2.8-2.5-3.9-1.4c-0.5,0.5-0.6,1.2-0.6,1.8
								c-0.5,5.3-0.2,10.6,0.8,15.8c-1.8-7.7-9.1-20.2-13-19.4c-3.8,2.8-0.4,13.3,2.2,19.3c-6.5-6.1-15-10-23.8-11
								c-14.6-1.7-30.2,4.3-43.6-1.5c-8.6-3.8-14.7-11.8-18.6-20.4c-2.3-5.1-4.1-10.5-7.4-15c-3.3-4.5-8.5-8.2-14-7.7
								c-4.4,9.4,0.3,20,5.9,29.1c-4-6.1-7.9-12.2-11.9-18.3c-0.9-1.3-1.9-2.8-3.5-3.2c-2-0.5-4,1.2-4.6,3.2c-0.6,2-0.1,4.1,0.5,6.1
								c2.8,9.3,9.6,14.8,15,24.4c-4.9-5.8-13.7-20.5-16.2-16.1c-1.1,6.4,2.5,12.7,6.7,17.8c6.3,7.7,14.2,14.1,23.1,18.7
								c-7.7-1.5-20.4-12.8-21.7-8.5c-2.1,3.9,1.6,8.3,5.1,11c5.5,4.1,11.3,7.8,17.3,11c-5.8-3.3-12.4-5.4-19-6.1
								c-2-0.2-4.3-0.2-5.7,1.2c-1.8,1.7-1.4,4.9,0.2,6.8c1.6,1.9,4.1,2.9,6.4,3.8c9.6,3.7,19.2,7.3,29.2,9.5
								c14.3,3.2,28.4,3.6,42,1.4c-0.9,0.5-1.7,0.9-2.6,1.4c-1.7,1.1-3.6,2.3-4.1,4.3c-0.1,0.4-0.1,0.9,0.1,1.2
								c0.4,0.8,1.5,0.8,2.4,0.7c18.6-2,36.5-9.1,51.5-20.1c1.3,1.5,3,2.8,4.4,4.1c2.1,2,3.6,4.6,5.1,7.1c2.3,3.8,4.6,7.6,6.6,11.5
								c2.1,4.1,3.8,8.3,6.2,12.2c2.4,3.9,5.5,7.5,9.5,9.6c1.7,0.9,3.7,1.4,5.4,0.6c1.6-0.8,2.3-2.8,2.2-4.5c-0.1-1.8-1-3.4-2-4.9
								c-2.3-3.5-5.1-6.7-8.4-9.3c4,2.2,8,4.4,12.4,5.6c4.4,1.2,9.2,1.2,13.3-0.9c1.1-0.6,2.3-1.8,1.7-2.9c-0.3-0.5-0.9-0.8-1.4-1
								c-5.2-2.2-10.9-3.4-16.5-3.5c9.2,0.9,18.7-0.9,27-5.1C1651.1-76.9,1653.3-78.9,1652.4-80.8z"/>
						</defs>
						<clipPath id="SVGID_42_">
							<use xlink:href="#SVGID_41_"  overflow="visible"/>
						</clipPath>
						<path clip-path="url(#SVGID_42_)" fill="#F7AB72" d="M1583.7-93.4c-2.4,1.8-1.6,1.7-4.6,2.4c-1.9,0.4-6.3,0-8.1-0.8
							c-1.8-0.7-3.2-2.5-3.1-4.4c0.1-1.2,0.7-2.4,1.4-3.4c2-3,4.2-6,6.5-8.7c-5.7,6.4-15.3,7.6-23.7,6.3c-8.4-1.4-16.4-4.9-24.7-6.6
							c-1.5-0.3-3.2-0.6-4.6,0c-1.5,0.5-2.8,2-2.5,3.5c0.3,1.8,2.3,2.7,4,3.2c2.7,0.8,5.4,1.4,8.2,1.7c-5.6,1.1-11.2-1.2-16.3-3.7
							c-10-4.9-18.1-10.8-27.1-17.4c-2.1-1.5-6.8-6.1-8.1-3.9c-0.8,3.4,0.6,7,3,9.5c2.3,2.6,5.4,4.3,8.4,6
							c-14-8.5-29.1-17.3-45.4-16.7c-1.7,0.1-3.4,0.2-4.9,0.9c-1.6,0.7-2.9,2-4.1,3.4c-4.7,5.6-7.1,13-6.7,20.3
							c0.4,7.3,3.6,14.4,8.9,19.5c4.6,4.5,10.6,7.4,16.6,9.8c21.8,8.9,45.3,13.5,68.8,13.5c8.1,0,16.3-0.6,24-3.1
							c7.8-2.6,14.8-7.1,21.3-12C1577.3-79,1584-85.4,1583.7-93.4"/>
					</g>
					<g clip-path="url(#SVGID_34_)">
						<defs>
							<path id="SVGID_43_" d="M1652.4-80.8c-0.7-1.5-2.8-1.7-4.5-1.5c-3,0.3-5.9,1.1-8.6,2.3c3.5-1.9,6.9-4.3,9.9-6.9
								c1.3-1.1,2.6-2.4,3.1-4.1c0.4-1.2,0.2-2.5,0-3.8c-0.1-0.8-0.3-1.7-0.8-2.3c-0.7-0.8-1.8-1.1-2.9-1.2
								c-6-0.6-11.5,2.7-16.7,5.8c-5.1,3.1-10.9,6.2-16.8,5.3c-2.9-0.5-5.6-1.9-7.5-4.1c-2.8-3.1-4-7.2-6.1-10.7
								c-1.1-1.8-2.8-3.6-4.6-4.6c0.3-0.5,0.7-0.9,1-1.4c1.2-2,2.2-4.1,2.5-6.4c0.1-0.4,0.1-1.5-0.3-1.8c-1-0.6-2.5,0.6-2.8,0.7
								c-1.5,0.8-2.6,1.7-3.8,2.6c2-7.2,0.6-15.3-3.9-21.3c-0.9-1.3-2.8-2.5-3.9-1.4c-0.5,0.5-0.6,1.2-0.6,1.8
								c-0.5,5.3-0.2,10.6,0.8,15.8c-1.8-7.7-9.1-20.2-13-19.4c-3.8,2.8-0.4,13.3,2.2,19.3c-6.5-6.1-15-10-23.8-11
								c-14.6-1.7-30.2,4.3-43.6-1.5c-8.6-3.8-14.7-11.8-18.6-20.4c-2.3-5.1-4.1-10.5-7.4-15c-3.3-4.5-8.5-8.2-14-7.7
								c-4.4,9.4,0.3,20,5.9,29.1c-4-6.1-7.9-12.2-11.9-18.3c-0.9-1.3-1.9-2.8-3.5-3.2c-2-0.5-4,1.2-4.6,3.2c-0.6,2-0.1,4.1,0.5,6.1
								c2.8,9.3,9.6,14.8,15,24.4c-4.9-5.8-13.7-20.5-16.2-16.1c-1.1,6.4,2.5,12.7,6.7,17.8c6.3,7.7,14.2,14.1,23.1,18.7
								c-7.7-1.5-20.4-12.8-21.7-8.5c-2.1,3.9,1.6,8.3,5.1,11c5.5,4.1,11.3,7.8,17.3,11c-5.8-3.3-12.4-5.4-19-6.1
								c-2-0.2-4.3-0.2-5.7,1.2c-1.8,1.7-1.4,4.9,0.2,6.8c1.6,1.9,4.1,2.9,6.4,3.8c9.6,3.7,19.2,7.3,29.2,9.5
								c14.3,3.2,28.4,3.6,42,1.4c-0.9,0.5-1.7,0.9-2.6,1.4c-1.7,1.1-3.6,2.3-4.1,4.3c-0.1,0.4-0.1,0.9,0.1,1.2
								c0.4,0.8,1.5,0.8,2.4,0.7c18.6-2,36.5-9.1,51.5-20.1c1.3,1.5,3,2.8,4.4,4.1c2.1,2,3.6,4.6,5.1,7.1c2.3,3.8,4.6,7.6,6.6,11.5
								c2.1,4.1,3.8,8.3,6.2,12.2c2.4,3.9,5.5,7.5,9.5,9.6c1.7,0.9,3.7,1.4,5.4,0.6c1.6-0.8,2.3-2.8,2.2-4.5c-0.1-1.8-1-3.4-2-4.9
								c-2.3-3.5-5.1-6.7-8.4-9.3c4,2.2,8,4.4,12.4,5.6c4.4,1.2,9.2,1.2,13.3-0.9c1.1-0.6,2.3-1.8,1.7-2.9c-0.3-0.5-0.9-0.8-1.4-1
								c-5.2-2.2-10.9-3.4-16.5-3.5c9.2,0.9,18.7-0.9,27-5.1C1651.1-76.9,1653.3-78.9,1652.4-80.8z"/>
						</defs>
						<clipPath id="SVGID_44_">
							<use xlink:href="#SVGID_43_"  overflow="visible"/>
						</clipPath>
						<path clip-path="url(#SVGID_44_)" fill="#F7AB72" d="M1583.3-93.5c3.8,4.5,8.4,8.4,13.8,10.6s11.7,2.8,17.1,0.7
							c2.8-1.1,5.4-2.8,8.4-2.8c1.1,0,2.5,0.7,2.3,1.8c-0.1,0.4-0.4,0.8-0.7,1.1c-1.8,1.8-3.8,3.2-6.1,4.3c5.6-2.1,11.3-4.1,17-6
							c3.5-1.1,7-2.2,10.5-2.8c1.9-0.3,4-0.5,5.7,0.3c2.9,1.3,4.3,4.8,4,7.9c-0.3,3.1-2,5.9-3.8,8.5c-4.3,5.8-9.6,10.8-15.4,15.1
							c-4.9,3.7-10.4,7-16.6,7.9c-6,0.8-12.2-0.8-17.2-4.1s-8.8-8.4-11.1-14c-3.1-7.9-3.1-16.7-5.6-24.9c-0.4-1.3-1.4-2.9-2.7-2.5"
							/>
					</g>
					<path clip-path="url(#SVGID_34_)" fill="none" stroke="#323441" stroke-width="0.5" stroke-miterlimit="10" d="M1478.4-59.2
						c-1,2-1.2,4.3-1.3,6.5c-0.2,2.7-0.4,5.5,0.7,8c2,4.6,8,6.5,12.7,5c4.7-1.6,8.2-5.9,9.9-10.6"/>
					<path clip-path="url(#SVGID_34_)" fill="none" stroke="#323441" stroke-width="0.5" stroke-miterlimit="10" d="M1547.3-41
						c-1,2-1.2,4.3-1.3,6.5c-0.2,2.7-0.4,5.5,0.7,8c2,4.6,8,6.5,12.7,5c4.7-1.6,8.2-5.9,9.9-10.6"/>
					<path clip-path="url(#SVGID_34_)" fill="none" stroke="#323441" stroke-width="0.5" stroke-miterlimit="10" d="M1547-25.1
						c-1.2,1.1-2.5,2.1-3.7,3.2"/>
					<path clip-path="url(#SVGID_34_)" fill="none" stroke="#323441" stroke-width="0.5" stroke-miterlimit="10" d="M1552.8-21.3
						c-0.6,1.4-1,2.9-1.3,4.4"/>
					<path clip-path="url(#SVGID_34_)" fill="none" stroke="#323441" stroke-width="0.5" stroke-miterlimit="10" d="M1559.4-21.5
						c0.1,1.8,0.3,3.5,0.4,5.3"/>
					<path clip-path="url(#SVGID_34_)" fill="none" stroke="#323441" stroke-width="0.5" stroke-miterlimit="10" d="M1477.4-44.6
						c-1.4,0.9-2.7,1.8-4.1,2.7"/>
					<path clip-path="url(#SVGID_34_)" fill="none" stroke="#323441" stroke-width="0.5" stroke-miterlimit="10" d="M1483.2-39.4
						c-0.6,1.3-1.1,2.7-1.5,4.1"/>
					<path clip-path="url(#SVGID_34_)" fill="none" stroke="#323441" stroke-width="0.5" stroke-miterlimit="10" d="M1489.1-38.6
						c0.2,1.7,0.5,3.4,0.7,5"/>
					<path clip-path="url(#SVGID_34_)" fill="#323441" d="M1584.7-57.7c-0.1-2.4-1.1-5.5-3-7.1c-1.8-1.6-4.1-2.6-6.4-3.4
						c-5-1.6-10.3-2.3-15.6-1.8c3.2,0.2,6.3,1.3,8.9,3c-4.1-1.9-9-2.1-13.3-0.6c2.8-0.3,5.6,0.3,8,1.6c-3.9-0.5-8.1-0.2-11.6,1.6
						c-3.5,1.8-6.3,5.4-6.5,9.3c3.7-3.9,9.6-5,15-5.1c5.6-0.1,12.1,1,15,5.9c-1-0.9-2.3-1.6-3.7-1.7c3.9,3.5,8.1,7.4,8.8,12.6
						c3.2-4.9,6.3-11,4.9-16.8"/>
					<path clip-path="url(#SVGID_34_)" fill="#323441" d="M1502.5-82.5c-8.6-4-17.8-2.3-26.4,1.6c4.2-0.7,5.5-1.1,9-0.1
						c-6.2-1.3-12.9,3.3-14,9.5c1.3-1.2,2.7-2.2,4.3-2.9c-2.1,1.3-3.8,3.3-4.6,5.7c9.6-7.7,23.4-9.7,34.8-5
						c-2.2-0.7-4.5-1.1-6.8-1.2c3.9,1.3,7.4,3.9,10,7.2C1509.4-73.4,1507-79.2,1502.5-82.5"/>
					<path clip-path="url(#SVGID_34_)" fill="#FBC08E" d="M1504.7-11.9c-10.7,1.1-21.2,3.9-31,8.3c-1.1,0.5-2.3,1.1-3,2.1
						s-0.8,2.6,0.1,3.4c0.6,0.5,1.3,0.6,2,0.7c6.9,0.7,14-0.2,20.5-2.8c-5.3,1.3-10.1,4.7-13,9.4c-0.6,0.9-1,2.3-0.2,3
						c0.5,0.4,1.2,0.3,1.8,0.3c5.5-0.7,10.6-3.5,14.2-7.7c-1.4,1.5-2.4,3.5-2.7,5.6c-0.1,0.8-0.1,1.7,0.5,2.3c0.7,0.6,1.7,0.4,2.6,0
						c3.3-1.4,5.9-4.2,7-7.5c0.4,1.6-0.2,3.3-0.2,4.9s1,3.6,2.7,3.5c0.7,0,1.3-0.4,1.8-0.9c2.4-2,3.5-5.3,3-8.4
						c-1,3.8,2.3,9.6,5.4,9.3c2.1-0.8,0.7-6.6-0.6-9.6c-0.6,4.5,5.3,9.6,8.5,8c1.4-1.3-1.2-5.7-3.5-7.4c0.8,2.9,3.3,5.3,6.2,5.9
						c0.8,0.2,1.8,0.1,2.1-0.6c0.2-0.5-0.1-1.1-0.4-1.6c-1.2-2-2.7-3.8-4.4-5.3c2.1,1.8,3.9,4.1,6.4,5.3s6.3,0.4,6.8-2.4
						c0.3-1.6-0.6-3.3-1.6-4.6C1528.2-8.8,1517-12.5,1504.7-11.9"/>
					<path clip-path="url(#SVGID_34_)" fill="#F7AB72" d="M1507.7-11.7c-8.5-0.7-17.2,0.4-25.3,3c-0.8,0.2-1.6,0.6-1.9,1.4
						c-0.3,0.8,0.2,1.6,0.9,2c0.7,0.4,1.5,0.5,2.3,0.5c4.8,0.2,9.7-0.1,14.4-1c-2,1.6-3.2,4.2-3.1,6.7c0,0.5,0.1,1,0.4,1.3
						c0.6,0.7,1.7,0.4,2.5,0c2.9-1.4,5.3-3.8,6.7-6.8c-1.3,1.9-1.9,4.2-1.9,6.4c0,0.4,0.1,0.9,0.4,1.2c0.3,0.3,0.7,0.3,1.1,0.3
						c3.2-0.2,5-3.9,4.8-7c0.3,1,0.2,2.1,0.5,3.1c0.3,1,1.1,2,2.1,1.9c1.1-0.1,1.8-1.4,1.9-2.5c0.3-1.9,0-3.9-0.9-5.6
						c1.2,1.1,2.5,1.9,4,2.5c0.7,0.3,1.5,0.5,2.2,0.3c0.7-0.2,1.4-0.9,1.3-1.6c-0.1-0.6-0.5-1-1-1.4c-5.3-4.5-13-5.9-19.6-3.6"/>
					<path clip-path="url(#SVGID_34_)" fill="none" stroke="#323441" stroke-width="0.5" stroke-miterlimit="10" d="M1484,18.5
						c1.5,3.7,4.8,6.6,8.4,8.4c3.6,1.8,7.7,2.5,11.7,2.8c9.4,0.7,19.8-1.1,25.9-8.3"/>
					<path clip-path="url(#SVGID_34_)" fill="#FFE5CF" d="M1483.2,49c1.4,2.1,1.9,4.3,3.3,6.4c1.3,2.1,3.7,4.2,7.5,5.2
						c3,0.8,6.5,0.8,9.7,0.6c3.2-0.2,6.4-0.6,9.7-0.5c2.3,0.1,4.7,0.4,7,0.4c3-0.1,5.7-0.9,7.6-2.1s3.2-2.6,4.1-4.1
						c1.2-2,1.9-4,2.6-6.1c-2.3,1.3-4.5,2.7-7.3,3.7c-2.7,1-6,1.8-9.5,1.8c-3.1,0-6.2-0.5-9.3-0.6c-3.7-0.1-7.3,0.4-11,0.4
						c-1.3,0-2.7,0-4-0.2c-1.2-0.2-2.2-0.6-3.2-1c-2.8-1.2-5.3-2.5-7.5-4"/>
					<path clip-path="url(#SVGID_34_)" fill="#FFF2E6" d="M1511.1-45.5c-1.4,6-3.8,10.3-7.4,14.9s-7.7,8.8-11,13.8
						c-0.6,0.8-1.1,1.7-1.3,2.7c-0.3,1.1-0.2,2.2,0,3.3c0.2,1.4,0.5,2.8,1.1,4.1c1.2,2.5,1.2,8,3.7,8.8c2.4,0.8,11.6-2.4,14.2-2.7
						c0.6-0.1,2.3-4,2.7-4.6c2.2-3.8,2.7-12,0.5-9.9c-5.3,5,0.2-2.3,1.8-9.4c0.4-1.9,0.8-3.8,1-5.7
						C1516.6-34.8,1514.8-41.9,1511.1-45.5"/>
					<path clip-path="url(#SVGID_34_)" fill="#FFE5CF" d="M1628.5-15.5c-4.2-0.4-8.4,0.5-12.6,1.4c-2.1,0.4-4.3,1-5.6,2.6
						c0.7,0.5,1.6,0.6,2.4,0.6c5.5,0.1,11.1-0.7,16.3-2.4c0.5-0.2,1-0.3,1.3-0.7c0.3-0.4,0.4-1,0-1.3c-0.2-0.1-0.4-0.2-0.7-0.2
						c-0.9-0.1-1.9-0.1-2.9,0"/>
					<path clip-path="url(#SVGID_34_)" fill="#FFF2E6" d="M1553.6,267.1c0.8-18.4-1.8-37-7.6-54.4c-1.4-4.2-4-9.1-8.5-9.1
						c-2.7,12,7.5,24.7,2.9,36.1c-2.6-1.1-3.9-4-5.1-6.6c-8.1-18.9-19.4-36.5-33.1-51.9c-2-2.2-4.9-4.6-7.6-3.4
						c0.2,8.8,5.5,16.6,10.2,24.1c7,11.1,13.2,22.8,18.6,34.8c-9-13.9-18.6-27.3-28.8-40.3c-3.3-4.2-7.9-8.7-13-7.2
						c1.1,6.5,4.2,12.5,7.4,18.3c6.9,12.7,14.2,25.2,21.8,37.4c-8.5-11.9-17-23.8-25.5-35.7c-4.1-5.7-9.1-12-16.2-12.5
						c0.2,4.9,3.1,9.3,5.8,13.4c8.9,13.4,17.8,26.8,26.8,40.1c-10.2-11.3-20.5-22.7-30.7-34c-2-2.2-4.4-4.5-7.3-4.4
						c-0.9,5.8,2.3,11.5,5.5,16.4c11,17,24.2,32.6,37.9,47.5c5.8,6.3,12,12.7,19.9,16.1c3.5,1.5,7.3,2.4,11.1,1.7
						c5.9-1.1,10.5-6.1,12.8-11.7s2.7-11.7,3-17.8"/>
				</g>
			</g>
		</g>
	</g>
</g>
</svg>
