<svg xmlns="http://www.w3.org/2000/svg" x="0px" y="0px" xmlns:xlink="http://www.w3.org/1999/xlink" viewBox="0 0 1440 800">
  <path fill="#C63647" d="M0 0h1440v800H0z"/>
  <path fill="#EB4E54" d="M1188 0L0 460.7V800h954l486-352.2V0"/>
  <path fill="#AA263C" d="M726.8 113.6h477.9v589.9H726.8z"/>
  <path fill="#FBC08E" d="M747.1 100.1h477v578.4h-477z"/>
  <path fill="#F7AB72" d="M747.1 100.1l29.5 36.2v505.4l-29.5 36.9"/>
  <path fill="#F7AB72" d="M763.8 120.6c.3.3 447.7 0 447.7 0v537.2H763.8V120.6z"/>
  <path fill="#EA9357" d="M763.8 120.6l12.8 15.7v505.4l-12.8 16.1m447.7-537.2l-13.6 15.7v505.4l13.6 16.1"/>
  <path fill="#F7AB72" d="M1211.5 120.6l12.6-20.5v578.5l-12.6-20.8"/>
  <path fill="#FFF" d="M776.6 136.3h421.3v505.4H776.6z"/>
  <defs>
    <path id="a" d="M776.6 136.3h421.3v505.4H776.6z"/>
  </defs>
  <clipPath id="b">
    <use xlink:href="#a" overflow="visible"/>
  </clipPath>
  <path fill="#21232D" d="M1017.5 369.8c8.6 24.2 9.7 50.2 13.1 75.6 12.8 96-87.7 148.9 41.2 242.6 82.2-2.3 217.5-3 297.8-20.6-13-28.6-22.8-36.6-39-63.5-25.4-42-44.8-87.3-68.8-130.1s-53.3-84-93.6-112c-17-11.8-36.3-21.3-56.9-22.7-17-1.1-33.9 3.4-50.1 8.6-16.4 5.3-33.1 11.9-45.3 24.1" clip-path="url(#b)"/>
  <g clip-path="url(#b)">
    <defs>
      <path id="c" d="M1017.5 369.8c8.6 24.2 9.7 50.2 13.1 75.6 12.8 96-87.7 148.9 41.2 242.6 82.2-2.3 217.5-3 297.8-20.6-13-28.6-22.8-36.6-39-63.5-25.4-42-44.8-87.3-68.8-130.1s-53.3-84-93.6-112c-17-11.8-36.3-21.3-56.9-22.7-17-1.1-33.9 3.4-50.1 8.6-16.4 5.3-33.1 11.9-45.3 24.1"/>
    </defs>
    <clipPath id="d">
      <use xlink:href="#c" overflow="visible"/>
    </clipPath>
    <path fill="#16181E" d="M1005.9 482.4c23.7 6.5 49 5.5 73 .6s47.2-13.6 70-22.7c22.3-8.9 45.8-19 59.6-38.7-4 35.7-20.3 69.2-41.5 98.3-14.1 19.3-30.7 37.1-50.6 50.4-19.9 13.3-43.4 21.9-67.3 21.9-9.3 0-18.9-1.3-27.2-5.6-18.4-9.5-27.1-31.3-29-51.9-1.8-19.7 2.4-41.7 18-53.9" clip-path="url(#d)"/>
  </g>
  <path fill="#21232D" d="M1095.9 332.5c18.7-9.1 41.4-12.6 63-9.7 7.7 1.1 15.3 2.9 21.8 6.4 7.2 3.8 12.8 9.4 17.9 15 4.6 5.1 9 10.3 12.5 16 15 24.2 11.7 53.9-1.9 78.7-3.5 6.4-7.8 12.6-13.5 17.8-14.4 13.2-66.9 31.7-88.6 30.5-9.4-.5 10.8-15.1 2.7-18.9-8-3.8-14.5-9.6-18.5-16.3-3.5-6-4.9-12.5-6.2-19-2.3-11.4-4.1-22.8-5.6-34.3-2.8-22-3.7-45.4 8.9-65 2.1-3.3 5.5-6.8 10-6.5" clip-path="url(#b)"/>
  <path fill="#16181E" d="M1010.2 366.4c-5.2 9.8-7.2 21.3-5.7 32.3.6 4.2 1.8 8.7 5.1 11.4 2.5 2.1 5.8 2.9 9 3.5 24.3 4.6 49.6.8 73.3-6.6 9.6-3 19.3-6.8 26.9-13.5 13.5-12 17.9-31.9 15-49.8-1.1-6.5-3.1-13.1-7.8-17.7-8.6-8.4-22.8-7.1-34.2-3.1-12 4.2-23.2 10.6-32.9 18.9-8.6 7.3-16.4 16.4-27.3 19.5-7.6 2.1-16.7 1.4-22.1 7.2" clip-path="url(#b)"/>
  <path fill="#21232D" d="M922.8 399.6c5.5 4 12.4 5.9 19 7.4 33.8 7.9 68.7 11.3 103.4 10.1.8 0 1.7-.1 2.3-.7.7-.7.6-1.8.5-2.7-1.5-14.1-3.6-28.2-6.4-42.2-.5-2.3-1-4.8-2.6-6.5-1.5-1.6-3.7-2.3-5.8-2.9-13.5-4.1-27.3-7.2-41.2-9.4-7.3-1.1-15.6-1.7-21.1 3.2-2.3 2-3.8 4.8-5.3 7.5-2.5 4.5-4.9 9-7.4 13.5-1.9 3.4-3.8 6.9-6.8 9.4-8.8 7.5-24 4.5-31.4 13.4" clip-path="url(#b)"/>
  <path fill="#FBC08E" d="M835.3 289.3s11.9 162.3 104.3 147c38.3-7.3 0 0 0 0s91-10.2 38-174.1l-142.3 27.1z" clip-path="url(#b)"/>
  <path fill="#F7AB72" d="M843.3 325.9c-8-8-20-15.1-31.1-13.5-6.8 1-12.9 5.4-16.2 11.3s-3.9 13.3-1.8 19.8c2.9 8.8 10.1 15.5 17.2 21.4 4.6 3.8 9.2 7.6 14.3 10.7 6 3.7 12.6 6.3 18.7 9.7 6.1 3.3 12.1 5.1 17.3 9.6.7.6 1.3 3.2 1.4 4 .1.8-1.5 3.6-3.1 4.6-3.2 1.9-6.7 5.9-4.3 8.7 1.4 1.7 4.1 1.5 6.2.8 7.9-3 12-13.4 8.2-20.9-2.9-5.7-8.9-8.9-14.6-11.7-9.6-4.6-19.4-8.9-28-15.2s-16.1-14.7-19-24.9c-1.3-4.4-1.4-9.8 1.8-13.1 4.3-4.4 11.7-2.7 17.2.2 5.4 2.9 11.2 6.7 17.2 5.6 1.3-3.7 1.1-4.4-1.4-7.1" clip-path="url(#b)"/>
  <path fill="#FBC08E" d="M982.7 301.3c4.5-10.4 13-21.4 24-24 6.6-1.6 14 .2 19.3 4.6 5.3 4.3 8.6 11 9 17.8.6 9.3-3.7 18.1-8.1 26.3-2.8 5.3-5.8 10.5-9.4 15.2-4.2 5.6-9.3 10.5-13.9 15.9-4.4 5.3-9.4 9.1-12.6 15.3-.4.8-.1 3.4.2 4.3.3.8 2.7 2.8 4.6 3.1 3.7.6 8.4 3 7.2 6.5-.7 2.1-3.3 3-5.5 3-8.4.2-16.1-8-15.3-16.4.6-6.3 5-11.6 9.3-16.3 7.2-7.8 14.7-15.5 20.5-24.4 5.7-9 9.6-19.6 8.5-30.1-.5-4.6-2.3-9.6-6.5-11.5-5.6-2.5-11.9 1.8-15.9 6.5s-7.9 10.3-13.9 11.5c-2.7-3.1-2.9-3.8-1.5-7.3" clip-path="url(#b)"/>
  <g clip-path="url(#b)">
    <defs>
      <path id="e" d="M835.3 289.3s11.9 162.3 104.3 147c38.3-7.3 0 0 0 0s91-10.2 38-174.1l-142.3 27.1z"/>
    </defs>
    <clipPath id="f">
      <use xlink:href="#e" overflow="visible"/>
    </clipPath>
    <path fill="#F7AB72" d="M873.6 282.7c2.5 23.2 5.1 46.5 11.9 68.8 3.7 12.2 8.8 24.2 16.8 34.1 11.6 14.2 29.3 23.4 47.6 24.6 24.6 1.6 47.9-10.3 68.8-23.3-1.6 15.5-9.7 29.8-20.6 40.8-10.9 11.1-24.4 19.3-38.3 26.2-19.2 9.6-39.8 17.1-61.2 18.5-30.7 2-61.6-9.1-85.8-28-24.2-19-42.1-45.4-53.3-74-4.2-10.8-7.6-22.1-7.2-33.7.4-11.4 4.6-22.4 10.5-32.2 9.6-15.9 24.5-29.1 42.3-34.6 17.8-5.5 38.4-2.7 52.9 9 2.3 1.8 4.5 3.9 7.2 4.8 2.8.8 6.4-.2 7.3-2.9" clip-path="url(#f)"/>
  </g>
  <ellipse cx="906.5" cy="275.9" fill="#E28B50" transform="rotate(-10.796 906.417 275.806)" clip-path="url(#b)" rx="72.4" ry="11.2"/>
  <path fill="#F7AB72" d="M951.6 432h6.7v55.9h-6.7z" transform="rotate(-10.796 954.883 459.865)" clip-path="url(#b)"/>
  <path fill="#F7AB72" d="M959.5 479.5s.8 8.4-25.4 19.2c.3-.1 54.5-12.1 54.5-12.1s-25.2 2.7-29.1-7.1z" clip-path="url(#b)"/>
  <path fill="#F7AB72" d="M933.9 492.6h55.9v4.1h-55.9z" transform="rotate(-12.562 961.967 494.682)" clip-path="url(#b)"/>
  <path fill="#C63647" d="M938.4 250.5c.9-11.9 5.7-23.5 13.4-32.6 1.9-2.3 4.1-4.4 6.8-5.7 2-.9 4.6-1.2 6.1.4.6.7.9 1.6 1.1 2.5.9 4.2-.1 8.7-2.1 12.6s-4.9 7.2-8 10.2c5.6-8.8 14.5-15.5 24.5-18.4 1.4-.4 3.1-.8 4.4-.1 1.7.8 2.4 2.9 2.1 4.8-.3 1.8-1.4 3.4-2.6 4.9-5.1 6.2-11.9 11-19.4 13.7 5.2-3 11-5.1 17-6.1 2.9-.5 6-.7 8.6.7.5.3 1.1.7 1.3 1.3.6 1.3-.5 2.8-1.6 3.8-5.7 4.9-13.5 6.1-20.9 7.1 6.1-.6 12.3-.4 18.4.4.6.1 1.3.2 1.8.5 1.3.8 1.3 2.7.6 4.1-1.4 2.8-4.8 3.8-7.8 4.4-10.1 2-20.5 2.2-30.8 1.6-3.2-.2-6.6-.6-9.2-2.5-2.6-1.9-5.9-5.2-3.7-7.6" clip-path="url(#b)"/>
  <path fill="#EB4E54" d="M871.9 257.3c9.5-12.2 10.2-30.6 1.5-43.5-.4-.6-.9-1.3-1.6-1.5-1.8-.6-4.5 1.5-4.9 3.4-2 8.1-1.1 16.9.2 25.2-.5-8.8-.9-17.8-4-26.1s-9.2-15.9-17.6-18.5c-2.9-.9-6.6-.9-8.2 1.6-1.1 1.7-.9 3.8-.6 5.8 2.3 14.5 7.4 28.5 14.9 41.1-10.9-9.7-26-15.7-40.1-12.1-1.1.3-2.3.7-3 1.7-1.6 2.3.8 5.3 3.1 6.8 9.6 6.5 21.4 9.7 32.9 9-8.2-2.3-17.2-1.7-25 1.6-1.2.5-2.4 1.1-3.2 2.2s-.9 2.6 0 3.6c.6.6 1.4.8 2.2 1 7.2 1.6 14.8 1.7 22 .1-8-.2-16.1 2.7-22.1 8-.7.6-1.5 1.6-1.1 2.4.2.5.8.8 1.3 1 9.6 3.7 19.6 4.5 29.2.8 9.9-3.9 15.9-7.1 24.1-13.6" clip-path="url(#b)"/>
  <path fill="#C63647" d="M901.9 237.9c-5.9-.7-12.1-1.4-16.9-4.9-1.6-1.1-3.1-2.7-3.1-4.6 0-2.4 2.3-4.2 4.5-5.2 4.5-2 9.5-2.7 14.3-1.8-4-1.3-8-2.8-11.8-4.5-1.9-.8-3.8-1.9-4.7-3.7-.2-.4-.3-.7-.2-1.1.1-.8.8-1.3 1.6-1.6 2-.8 4.3-.4 6.4.1 3.9.9 7.7 2.3 11.3 3.9-5.5-3.2-10.3-7.9-13.6-13.3-.6-.9-1.1-2-1.1-3.1.1-2.1 2.5-3.4 4.6-3.2s3.8 1.6 5.4 3c4 3.4 7.7 7.1 10.6 11.5-4.9-6.9-7.3-15.3-9.6-23.5-.5-1.7-1.3-5.3 0-6.5.9-.8 3.9-.9 5-.4s2 1.9 2.8 2.8c2.3 2.5 3.5 5.1 5.6 7.8 3.7 4.8 6.9 11.1 8.3 17-1-4.8-2.1-9.6-3.1-14.4-1.6-7.5-3.3-15.4-1.5-22.9.3-1.4.8-2.8 1.8-3.7 2-2 5.4-1.4 7.9 0 5 3 7.6 8.9 8.3 14.8.7 5.8-.3 11.7-.7 17.5-.4 4.9-.4 9.8-2 14.4 2.6-5.3 5.3-10.7 10-14.3 1.7-1.3 4.3-2.3 6-1 .8.6 1.2 1.6 1.5 2.6 1.4 5-.2 10.3-2.4 15-3.5 7.7-8.5 15-15.8 19.3-5.4 3.1-11.7 4.4-17.9 5.5-2 .4-4.1.7-6.1.3-2.6-.5-3-2.7-5.4-1.8" clip-path="url(#b)"/>
  <path fill="none" stroke="#323441" stroke-width="1.5" stroke-miterlimit="10" d="M841.7 230.5c8.7 1.2 16.1 7.2 21.7 14 3.3 4.1 6.3 8.9 6.1 14.1-6.5-7.8-15.1-13.7-24.6-17.1m117.1-5.9c-2.2 4.4-4.7 8.7-8.1 12.3s-7.8 6.3-12.7 7.1m-30-49.9c1.7 5.6 3.9 11.2 6.5 16.5 1.4 2.8 2.9 5.6 5.2 7.7.6-6.2 0-12.6-1.9-18.5" clip-path="url(#b)"/>
  <path fill="#EB4E54" d="M907.8 273.6c-10.2-.8-19.8-7.4-24.1-16.6-1.2-2.4-2-5.1-1.5-7.8.4-2.1 2.1-4.2 4.2-3.8.8.2 1.5.7 2.2 1.3 5.1 4.4 9.7 9.4 13.6 14.8-3.7-6.5-5.2-13.9-6.6-21.3-1-5.6-1.9-11.5-.2-17 1.4-4.5 2.8-8.1 5.8-11.6.5-.6 2.7-1.4 3.9-1.5.4 0 2.1 1 2.3 1.3 5.1 7.1 6.3 15.5 6.6 24.2.2 6.1-.8 12.2-1.8 18.2l2.1-17.7c.4-3.6.9-7.3 2.2-10.7 1.3-3.4 3.7-6.5 7-8 .6-.3 1.3-.5 2-.5.9 0 1.8.5 2.6 1 2.5 1.8 4.1 4.8 4.8 7.8s.5 6.2 0 9.3c-1.3 7.7-4.7 15.1-9.7 21.2-.1-1.6.9-3 1.9-4.2 4.4-5.3 9.8-10.1 16.4-12.2 2.4-.8 5.6-.8 6.8 1.4.5 1 .5 2.2.3 3.4-.9 4.5-4 8.3-7.7 10.9-3.8 2.6-8.2 4.1-12.6 5.3 6.4-3.5 13.3-6 20.5-7.5 2.1-.4 4.3-.8 6.4-.2.6.2 1.3.4 1.7.9.8 1 .6 2.5-.1 3.7-1.9 3.7-6.1 5.4-9.9 6.9-13 4.9-26.6 9.5-40.5 8.6" clip-path="url(#b)"/>
  <path fill="none" stroke="#323441" stroke-width="1.5" stroke-miterlimit="10" d="M906.4 243.8c1.5 9.6 4.3 19.1 8.2 28 1.6-3.2 3.2-6.4 4.2-9.8 1-3.4 1.4-7.1.6-10.6m-4.9 21.2c4.5-2.1 8-6 9.8-10.7" clip-path="url(#b)"/>
  <circle cx="842.6" cy="229.9" r="1.5" fill="#FBC08E" clip-path="url(#b)"/>
  <circle cx="845.2" cy="233" r="1.5" fill="#FBC08E" clip-path="url(#b)"/>
  <circle cx="844.7" cy="241.3" r="1.5" fill="#FBC08E" clip-path="url(#b)"/>
  <circle cx="850" cy="241.8" r="1.5" fill="#FBC08E" clip-path="url(#b)"/>
  <circle cx="906.9" cy="243.3" r="1.5" fill="#FBC08E" clip-path="url(#b)"/>
  <circle cx="905.6" cy="247.2" r="1.5" fill="#FBC08E" clip-path="url(#b)"/>
  <circle cx="910.4" cy="256.1" r="1.5" fill="#FBC08E" clip-path="url(#b)"/>
  <circle cx="919.2" cy="251.3" r="1.5" fill="#FBC08E" clip-path="url(#b)"/>
  <circle cx="923.4" cy="262.3" r="1.5" fill="#FBC08E" clip-path="url(#b)"/>
  <circle cx="912" cy="205.3" r="1.5" fill="#FBC08E" clip-path="url(#b)"/>
  <circle cx="920.4" cy="211.4" r="1.5" fill="#FBC08E" clip-path="url(#b)"/>
  <circle cx="961.1" cy="235.6" r="1.5" fill="#FBC08E" clip-path="url(#b)"/>
  <circle cx="960.9" cy="240.2" r="1.5" fill="#FBC08E" clip-path="url(#b)"/>
  <g clip-path="url(#b)">
    <defs>
      <path id="g" d="M977.6 262.3c1.2 6.1-29.7 17.1-69 24.6s-72.1 8.6-73.2 2.5c-1.2-6.1 14.2-92.7 53.5-100.2s87.5 67 88.7 73.1z"/>
    </defs>
    <clipPath id="h">
      <use xlink:href="#g" overflow="visible"/>
    </clipPath>
    <path fill="none" stroke="#323441" stroke-width="1.5" stroke-miterlimit="10" d="M925.3 265.2c.5 11.3 1 22.6 1.5 34-.1-.3-.2-.6-.4-.9m6-35.8c-.4 13.4-3.7 26.8-2.5 40.1 0-.3 0-.5.1-.8m-61-44.6c6 16.3 12.1 32.5 18.1 48.8m27.7-35c0 2.7 0 5.5-.3 8.2-.8 6.3-3.7 12.4-3.5 18.8 0 .2 0 .4.2.4s.2-.3 0-.2" clip-path="url(#h)"/>
  </g>
  <path fill="#FFC197" d="M1067.1 351.1c5.2 1.9 10.9 2.5 16.5 2.2s11.1-1.4 16.5-2.9c5.2-1.4 10.4-3.2 15-5.9-9.1 8.5-14.8 20.4-24.5 28.3-2.1 1.7-4.3 3.2-6.3 4.9-.8-3.5-4.4-5.5-6.3-8.5-1.1-1.8-1.7-3.8-2.3-5.8-.7-2.5-1.6-5-2.9-7.3-1.4-2.2-3.3-4.2-5.8-5.1" clip-path="url(#b)"/>
  <path fill="#FFEAD9" d="M1000.1 278.8c-3.9-4.8-9.1-8.5-14.9-10.6-2-.7-4.2-1.2-6.3-.9-3.3.5-6 3.2-7.2 6.4s-.8 6.7.4 9.9c2.4 6.4 7.9 11.3 14 14.4.6.3 1.2.6 1.8.6 1 0 1.9-.9 2.5-1.6 4.4-5 7.7-11 9.6-17.3.2-.6-.3-1.5-.6-1" clip-path="url(#b)"/>
  <g clip-path="url(#b)">
    <defs>
      <path id="i" d="M1000.1 278.8c-3.9-4.8-9.1-8.5-14.9-10.6-2-.7-4.2-1.2-6.3-.9-3.3.5-6 3.2-7.2 6.4s-.8 6.7.4 9.9c2.4 6.4 7.9 11.3 14 14.4.6.3 1.2.6 1.8.6 1 0 1.9-.9 2.5-1.6 4.4-5 7.7-11 9.6-17.3.2-.6-.3-1.5-.6-1"/>
    </defs>
    <clipPath id="j">
      <use xlink:href="#i" overflow="visible"/>
    </clipPath>
    <path fill="#FFD5B8" d="M966.5 284.9c5.4 3.5 12.4 4.2 18.5 2.2s11.2-6.6 14.1-12.3c-.8 8.8-7.9 15.7-10.9 24-.2.6-.5 1.4-1.1 1.6-.3.1-.6.1-.9.1-5.1-.4-9.8-2.8-13.6-6.2-3.8-3.4-6.6-7.8-8.8-12.3 1.6.6 2.9 1.7 3.8 3.1" clip-path="url(#j)"/>
  </g>
  <path fill="#FFF2E6" d="M1000 269.7c.2 7.8-4.9 14.6-8.5 21.6-7.7 14.8-9.1 32.7-3.7 48.5 2.9 8.6 7.7 16.4 12.4 24.2 1.8 2.9 3.6 5.9 6 8.2 2.9 2.8 6.5 4.6 10 6.5 13.7 7.4 27.8 16.2 43.3 15.2 13.9-.9 25.9-9.6 37-18 6.2-4.7 12.5-9.4 17.5-15.4s8.7-13.4 8.7-21.2c.1-10.1-5.8-19.5-6.2-29.6-.2-4.7.9-9.3 1.6-13.9 1.7-11.2 1.4-22.5 1.2-33.8-.1-4.8-.2-9.6-1.6-14.2-1.1-3.8-3.1-7.3-5.1-10.7-2.3-4-4.8-8-8.3-11-4.4-3.7-10.1-5.5-15.8-6.8-13.3-3-27.1-3.7-40.5-1.8-6.5.9-13 2.5-18.7 5.7-4.8 2.7-8.9 6.5-12.8 10.3-4.9 4.8-9.6 9.8-12.9 15.8-3.2 6-4.7 13.2-2.8 19.8" clip-path="url(#b)"/>
  <path fill="#FFEAD9" d="M999.8 270.3c.2 7.8-10.8 16.8-14.4 23.7-7.7 14.8-9.1 33.1-3.7 48.9 2.9 8.6 7.6 16 12.4 23.8 1.8 2.9 3.6 5.9 6 8.2 2.9 2.8 8.3 6.7 11.8 8.6 13.7 7.4 31.8 12 47.3 10.9 13.9-.9 28.2-7.4 39.3-15.7 6.2-4.7 12.5-9 17.5-14.9 5-6 8.9-15.6 9-23.4.1-10.1-7.4-24.3-7.7-34.4-.2-4.7-.2-5 .5-9.6 1.7-11.2 1.4-22.5 1.2-33.8-.1-4.8-.2-9.6-1.6-14.2-1.1-3.8-3.1-7.3-5.1-10.7-2.3-4-4.8-8-8.3-11-4.4-3.7-10.1-5.5-15.8-6.8-13.3-3-27.1-3.7-40.5-1.8-6.5.9-13 2.5-18.7 5.7-4.8 2.7-8.9 6.5-12.8 10.3-4.9 4.8-9.6 9.8-12.9 15.8-3.2 6-4.7 13.2-2.8 19.8" clip-path="url(#b)"/>
  <path fill="none" d="M1036.6 269.9c-.2.1-.4-.1-.5-.2" clip-path="url(#b)"/>
  <path fill="#FFE5CF" d="M1057.2 235.1c-4.4 2.6 12-2.3 11.4 2.8-.1.8-.1 1.8.4 2.4.3.4.8.6 1.2.7 1.9.6 4 .1 5.9-.6 6.7-2.4 12.6-7 16.6-13-.8 2.5-1.6 5.1-1.2 7.7.2 1.8 1 3.6 2 5.2 1.8 3.1 4.1 5.9 7.1 8 2.9 2 6.5 3.3 10.1 3.1 1.2-.1 2.5-.4 3.1-1.5.5-.9.1-2-.2-3-3.1-8.4-8.7-16-15.8-21.5-3.2-2.4-6.8-4.5-10.7-4.9s-15.4-1-17.4 2.5" clip-path="url(#b)"/>
  <path fill="#FFD5B8" d="M1047.6 287.4c1.4-3.5.6-7.6-1.5-10.9-2-3.3-5.1-5.9-8.4-8.1-3.2-2.1-6.7-4-10.5-4.9-3.8-.9-7.9-.6-11.3 1.3-4.4 2.5-6.7 7.4-8.5 12-.4 1-.7 5.1-.6 6.1.7 4.3 4.9 6.2 6.1 6.6 2.7 1 3.1 1.3 5.9 2 7.4 1.8 14.3-3.3 21.9-2.1 2.5.4 5.5.6 7.1-1.3" clip-path="url(#b)"/>
  <path fill="#FFD5B8" d="M1011.5 279.2c-.8 1.8-.4 3.9.4 6 .5 1.4 1.2 2.8 2.7 4.1 1.5 1.2 3.7 2.1 5.9 2.8 5.6 1.7 11.8 2 16.6.8s7.8-4.2 7.5-7.7c0-.2 0-.3-.2-.5-.2-.3-.7-.4-1.2-.6-2.8-.8-5.7-1.4-8.5-2-5.6-1.2-11.3-2.4-16.9-3.6-1.3-.3-2.6-.6-3.9-.5s-2.3.6-2.2 1.4m49 6.3c-.6 2.4.1 5 1.3 7.4.8 1.7 1.8 3.3 3.7 4.6 1.9 1.3 4.5 2 7.1 2.4 6.6 1.1 13.7.4 18.9-2.1 5.2-2.5 8.2-6.8 7.4-11 0-.2-.1-.4-.3-.6-.3-.3-.9-.4-1.5-.5-3.3-.4-6.6-.7-9.9-.9-6.6-.5-13.2-.9-19.7-1.4-1.5-.1-3.1-.2-4.4.1s-2.5 1.2-2.3 2.1" clip-path="url(#b)"/>
  <path fill="#FFE1CA" d="M1029.6 234c6.5 4.5 14.4 6.5 22.2 8 5.5 1.1 11.2 2.1 16.8 2.1 9.9-.1 19.8-3.2 29.5-1.7-2.4-1.2-5.2-1.3-7.9-1.3-5 0-10.1.5-15.1.6-15.7.4-31.6-2.5-46.1-8.4.5.6 1 1.1 1.5 1.7m21.3 12.3c6.7.6 13.3-.9 20-.5-4.8 1.1-9.7 1.7-14.6 1.8-2.1 0-4.3-.1-5.9-1.4" clip-path="url(#b)"/>
  <path fill="#FFD5B8" d="M1043.9 285c-.1 2.5-.9 5-2.3 7.1-1.7 2.6-4.1 4.7-6.4 6.8-2.3 2.2-4.4 4.6-5.2 7.7-.4 1.5-.4 3.1-.3 4.6.2 1.5.5 3 1.4 4.3 1.5 2.2 4.4 3.1 7 3-.2-5.1 2-9.9 4.5-14.3 2.4-4.4 5.2-8.8 6.3-13.8.3-1.2.4-2.4.2-3.6-.3-1.2-1.1-2.3-2.2-2.7-1.2-.4-2.6.2-3 1.3" clip-path="url(#b)"/>
  <path fill="#FFD5B8" d="M1026 293.1c1.6.5 3.2 1 4.5 1.9 1.3 1 2.4 2.4 2.5 4.1.1 2.6-2 4.7-2.3 7.3-.1.9.2 2 1 2.3.9.3 1.8-.4 2.5-1.1 4.1-4.6 6.9-10.2 9.2-15.9.4-1 .7-2.2 0-3-.6-.7-1.8-.6-2.7-.4-1.6.3-3.2.6-4.7.8-3.2.6-6.5 1.2-9.6 2.1-.2.1-.5.2-.7.4-.5.5.1 1.5.8 1.4m-6.9 69.4c1.1 3.4 1.3 6.9 2.3 10.3 1 3.4 3.2 6.9 7 8.7 3 1.4 6.7 1.6 10.1 1.5 3.4-.1 6.8-.6 10.2-.2 2.4.3 4.8 1 7.3 1 3.2 0 6.1-1.2 8.3-2.9 2.2-1.7 3.7-3.9 4.9-6.2 1.6-3 2.6-6.2 3.7-9.4-2.6 2-5.2 3.9-8.2 5.4s-6.6 2.5-10.3 2.3c-3.2-.1-6.4-1.2-9.6-1.5-3.9-.4-7.7.1-11.6.1-1.4 0-2.8-.1-4.2-.6-1.2-.4-2.2-1.1-3.1-1.8-2.7-2-5.1-4.3-7.2-6.7" clip-path="url(#b)"/>
  <path fill="#FFEAD9" d="M1114.7 304.2c4.9-4.9 12.5-6.4 19.3-4.9 4.3 1 8.5 3.3 10.3 7.3 1.6 3.7.6 8.2-1.9 11.3s-6.3 5-10.2 5.9c-3.9.8-8 .7-12 .3-.8-.1-1.7-.2-2.4-.7-.8-.7-1.1-1.8-1.3-2.9-1-5.6-1.6-11.3-1.8-17.1" clip-path="url(#b)"/>
  <path fill="#FFD5B8" d="M1119.2 311c5.3-1.4 10.8-2.2 16.2-2.6-3.2 1.1-6.6 1.7-10 2.3-1.6.3-3.1.6-4.7.8-.2 0-.5.1-.7-.1-.3-.2-.4-.8-.7-.6m-24.6-18.2c1.2-3.3 1.4-7.1.2-10.4-1.3-3.3-4-6.2-7.5-7.2-3-.9-6.3-.3-9.3.5-3.1.9-6.2 2.2-8.4 4.4-2.3 2.2-3.6 5.6-2.8 8.7.1.3.2.6.4.9.4.4.9.5 1.5.5 8.7 1.1 17.4 2.1 26.1 3" clip-path="url(#b)"/>
  <path fill="#323441" d="M1018.8 235.5c-3.2 1.6-5.4 4.8-6.6 8.3-1.1 3.4-1.4 7.1-1.6 10.7-.4-.9-.7-1.9-.6-2.8-.1 1.4-.2 2.7-.2 4.1-.3-.9-.5-1.7-.8-2.6.4 3.5.5 7-.3 10.4-.8 3.4-2.4 6.7-5.1 8.9.4-1 .9-1.9 1.3-2.9-.8 1.7-2.1 3.2-3.8 4.2.7-.9 1.3-1.8 2-2.7-1 2.2-2.5 6.7-4.8 7.4-1-.6-2.5-4-3.1-4.9-.6-.9-.4-2.4.6-2.8l-1.6 1.6c.4-1.3.9-2.7 1.4-3.9-.4.9-1.1 1.7-2 2.2 1.2-4.1 1.9-8.2 2.2-12.5-.6 1-1.1 2-1.4 3.1.2-1.7.4-3.5.8-5.2l-1.8 2.7c.4-2.5.9-5.1 2.3-7.1.8-1.2 2-2.2 3-3.3 1.6-1.7 3-3.5 4.2-5.6-.8 1-1.7 1.9-2.5 2.9 2-4.5 5.5-8.3 9.8-10.6.6-.3 1.2-.6 1.9-.7.7-.1 1.4 0 2.1 0 1.3.1 2.7.3 4 .4.5.1 1.1.4.9.8-.5.1-1 .1-1.5.2m95.2 17.5c1.6 4.8 3.3 9.7 3 14.7-.2 3.5-1.3 7.2-.1 10.4.3-.9.7-1.9 1-2.8-.3.9-.3 1.9-.1 2.8.4-.5.7-1 1.1-1.5.1 2.4-.2 4.8-.9 7.1-.6 2.1-1.5 4.2-1.8 6.4-.4 2.6.2 5.3 1.6 7.6.1-.3.1-.6.2-.9 0 1.7-.8 3.9.3 5.2 2.3-1.2 5.8-2.6 8.1-3l-.2-.7c.5.6 1.2 1.9 1.3 3.9.9-4 .7-10.3-1.4-13.6.8 1 1.5 2 2 3.1-.2-1.2-.5-2.5-.7-3.7.5.6 1 1.3 1.3 2.1-.7-1.7-.5-3.6-.1-5.4s1.2-3.4 1.6-5.2c.7-3.2.3-6.6-1.1-9.5.7.7 1.3 1.5 1.7 2.4l-.6-2.7c.8.6 1.4 1.3 1.8 2.2.1-1.6-.7-3.2-1.7-4.5-1-1.3-2.2-2.5-2.9-3.9.9.7 1.7 1.3 2.6 2-1-1.4-1.7-3-2.2-4.6-.4-1.5-.7-3-1.3-4.4-1.5-3.1-4.8-5-8.1-6-1-.3-2.1-.5-2.9.1-.8.6-.9 1.7-.9 2.7" clip-path="url(#b)"/>
  <path fill="#FBC08E" d="M1102.1 218.3c2-3.3 2.6-7.5 1.7-11.3 2 2.1 3 5 3.2 7.9.1 1 0 2-.3 2.9-.5 1.2-1.5 2.3-2.7 2.7-.7.2-1.4.3-2-.1-.6-.4-.8-1.4-.2-1.8m-1.1-1.4c1-7.3-1.7-14.6-6.2-19.4-4.5-4.8-14.6-8.9-16.7-8.2-3 .5 3.9 3.5 5.8 7.1-10.7-8.6-26-9.4-38.3-1.9-5.3 3.2-10.2 8-15.9 9.4-5.3 1.3-10.8-.5-14.5-4.7-6.7-7.6-6.9-21.9-15.1-27.2-.9-.6-2.1-1.1-3.2.3-.5.5-.8 1.2-.9 2-1 4.4.2 8.7 1.9 12.5 1.6 3.6 3.5 7 4.5 10.9-2.4-5.9-8.7-16.4-10.9-14.7-1.5.9-1.2 3.5-.6 5.2 2.1 5.9 4.9 11.4 8.2 16.4-2.4-4.9-9.9-12.7-11-10.3-1.2 2.4 3.7 10.2 7.3 13.7-3.2-3.6-9.5-11.6-11.3-8-2.1 4.7 8.9 24.7 18.5 31.4 7.4 5.1 16.1 7.3 24.9 7.5 8.8.2 17.7-1.6 26.3-4.1 10-2.9 20.2-7 28.2-15.1-2.9 3.6-11 9.1-8.9 13 2.7 2.2 12.6-1.8 19.5-5.2 4.3-2.2 7.8-5.6 8.4-10.6" clip-path="url(#b)"/>
  <path fill="#FBC08E" d="M1095.8 227.8c.2 9.9 5.2 21.5 14.5 27.1 5 3 10.7 4.4 16.5 5.2 2.7.4 5.5.6 8.2 0 1.9-.4 5.2-2.5 4.2-3.6-2.4-.7-5-1.2-7.5-1.4 7.8.3 15.7-3.6 20.3-9.9 1.5-2.1 2.7-4.5 3-7 .3-2.6-.5-5.3-2.5-7-.4-.4-.9-.7-1.4-.7-.4 0-1 0-1.5.1-2.7.6-5.9 9-12 8.9 2.7-1.6 5-4.1 4.9-7.2 0-1.2-1.4-1.8-2.3-1-1.9 1.7-3.2 4.5-5.9 4.3-.9-.1-1.6-.5-2.3-1.1-1.3-1.3-1.8-3-2.5-4.6-2.8-6.6-9.1-11.7-16.2-13.1-3.2-.6-6.5-.5-9.5.6s-5.7 3.3-7.1 6.2c-1 2.1-.9 2.3-.9 4.6" clip-path="url(#b)"/>
  <path fill="#323441" d="M1117 299.4c-.5.7-.5 1.5-.3 2.3.2.8.5 1.6.7 2.3.2 1.1.1 2.4-.3 3.5 1.5-1.6 3-3.4 3.3-5.5 0 .9-.2 1.9-.7 2.7 2.2-1.4 3.2-4 3.6-6.6.1-.4.1-.8-.2-1.1-.2-.2-.4-.2-.6-.2-2.2-.1-4.3.8-5.5 2.6" clip-path="url(#b)"/>
  <path fill="#F7AB72" d="M1006.2 233.2c-3.3-2-6.8-3.6-10.6-4.7-1.7-.5-3.9-.7-4.8.8-.6 1-.3 2.3.4 3.2s1.8 1.5 2.8 2c17.3 8.2 37.9 6.6 56 .4 6-2.1 12.3-5.1 15-10.9.2-.4.3-.8.1-1.1-.2-.3-.6-.5-.9-.5-3.9-.9-8-.7-12-.3-9.4.9-18.7 2.7-27.8 5.3-6.6 1.9-13.2 4.2-20 3.6" clip-path="url(#b)"/>
  <g clip-path="url(#b)">
    <defs>
      <path id="k" d="M1100.7 217.2c1-7.3-1.7-14.6-6.2-19.4-4.5-4.8-14.6-8.9-16.7-8.2-3 .5 3.9 3.5 5.8 7.1-10.7-8.6-26-9.4-38.3-1.9-5.3 3.2-10.2 8-15.9 9.4-5.3 1.3-10.8-.5-14.5-4.7-6.7-7.6-6.9-21.9-15.1-27.2-.9-.6-2.1-1.1-3.2.3-.5.5-.8 1.2-.9 2-1 4.4.2 8.7 1.9 12.5 1.6 3.6 3.5 7 4.5 10.9-2.4-5.9-8.7-16.4-10.9-14.7-1.5.9-1.2 3.5-.6 5.2 2.1 5.9 4.9 11.4 8.2 16.4-2.4-4.9-9.9-12.7-11-10.3-1.2 2.4 3.7 10.2 7.3 13.7-3.2-3.6-9.5-11.6-11.3-8-2.1 4.7 8.9 24.7 18.5 31.4 7.4 5.1 16.1 7.3 24.9 7.5 8.8.2 17.7-1.6 26.3-4.1 10-2.9 20.2-7 28.2-15.1-2.9 3.6-11 9.1-8.9 13 2.7 2.2 12.6-1.8 19.5-5.2 4.3-2.2 7.8-5.6 8.4-10.6"/>
    </defs>
    <clipPath id="l">
      <use xlink:href="#k" overflow="visible"/>
    </clipPath>
    <path fill="#F7AB72" d="M1013.6 235.5c-9.2-1.4-17.7-7.1-22.5-15.2-1.4-2.3-2.3-5.6-.3-7.5 1.7-1.6 4.4-1 6.5-.1 5 2.1 9.6 5.2 13.5 9.1-1.6-1.5-3-3.4-3.9-5.5-.3-.6-.5-1.2-.4-1.9.2-1.1 1.4-1.7 2.5-1.7s2.1.5 3.1 1c22.9 10.7 50.4 9.4 73.4-.9-1.4 1.6-2.8 3.3-3.5 5.3s-.4 4.5 1.1 5.9c1.4 1.3 3.5 1.4 5.4 1.1 3.4-.5 6.6-2.2 9-4.7-1.1 7.3-7.5 12.8-14.4 15.2-6.9 2.4-14.4 2.4-21.8 2.9-15.1.9-30.7 3.7-45.1-1.1-1.4-.5-2.9-1-4.3-1.6" clip-path="url(#l)"/>
  </g>
  <path fill="#F7AB72" d="M1078.9 212.3c-6.2-.1-12.6-2-18.6-.4-.4.1-.8.3-.9.7 0 .2 0 .4.1.6.5 1.1 1.9 1.5 3.2 1.7 3.4.5 7 .4 10.4-.4 1.7-.4 3.4-1 4.8-2" clip-path="url(#b)"/>
  <g clip-path="url(#b)">
    <defs>
      <path id="m" d="M1095.8 227.8c.2 9.9 5.2 21.5 14.5 27.1 5 3 10.7 4.4 16.5 5.2 2.7.4 5.5.6 8.2 0 1.9-.4 5.2-2.5 4.2-3.6-2.4-.7-5-1.2-7.5-1.4 7.8.3 15.7-3.6 20.3-9.9 1.5-2.1 2.7-4.5 3-7 .3-2.6-.5-5.3-2.5-7-.4-.4-.9-.7-1.4-.7-.4 0-1 0-1.5.1-2.7.6-5.9 9-12 8.9 2.7-1.6 5-4.1 4.9-7.2 0-1.2-1.4-1.8-2.3-1-1.9 1.7-3.2 4.5-5.9 4.3-.9-.1-1.6-.5-2.3-1.1-1.3-1.3-1.8-3-2.5-4.6-2.8-6.6-9.1-11.7-16.2-13.1-3.2-.6-6.5-.5-9.5.6s-5.7 3.3-7.1 6.2c-1 2.1-.9 2.3-.9 4.6"/>
    </defs>
    <clipPath id="n">
      <use xlink:href="#m" overflow="visible"/>
    </clipPath>
    <path fill="#F7AB72" d="M1094.7 230.2c1.3 3.8 2.6 7.8 4.9 11.1 4.9 6.9 14.6 10.1 22.6 7.4 5.8-1.9 10.9-6.5 17-6.1.8.1 1.6.2 2.1.8.9 1.2-.3 2.9-1.5 3.8-2.1 1.7-4.3 3.2-6.7 4.4 4.9-3.6 11.2-5.2 17.2-4.4 1.5.2 3 .6 3.9 1.8.5.7.8 1.6.8 2.5.1 3-2 5.7-4.4 7.5-3.4 2.6-7.6 3.9-11.9 4.4s-8.5.1-12.8-.4c-8.5-1.1-17.4-3.2-23.6-9.1-1.2-1.1-2.3-2.4-3-3.9-.5-1.1-.8-2.2-1.1-3.4-1.3-4.8-2.5-9.7-3.8-14.5" clip-path="url(#n)"/>
  </g>
  <path fill="none" stroke="#FFDEC5" stroke-width="3.1941" stroke-miterlimit="10" d="M1058.8 289c-.7 1.1-.9 2.4-1 3.7-.5 7.5 1.7 15.5-2 22.4m8.3-19.8c1 3.4 3 6.8 6.3 8.6 1.7 1 3.7 1.5 5.7 1.9 5.4.9 11.4.2 15.3-3.2" opacity="0.49" clip-path="url(#b)"/>
  <path fill="#FFD5B8" d="M1060.6 288.1c-.2-.9-.1-1.9.1-2.8 1.4-6.6 6.2-12.3 12.5-15 6.3-2.7 13.8-2.1 19.6 1.3 1 .6 2 1.3 2.8 2.1 2.7 2.8 3.3 7 3.7 10.9.1 1 .2 2.1-.1 3.1-.3 1-1 1.9-1.7 2.6-4.2 4.5-10.6 6.7-16.8 6.7-6.2-.1-12.3-2.2-17.6-5.3-.6-.3-1.1-.7-1.5-1.2-.7-.9-.7-2.1-.7-3.1" clip-path="url(#b)"/>
  <path fill="#FFF" d="M1088.2 272.1c-3.2-1-7.2-.1-10.3 1.1-3.1 1.2-5.8 3.2-8.3 5.3-2.8 2.4-5.4 5.2-6.1 8.5-.3 1.5-.1 3.1 1.1 4.2 1.6 1.5 4.3 1.4 6.5.6 2.2-.8 4.1-2 6.2-2.7 2.3-.8 4.9-.8 7.3-.1 1.8.5 3.4 1.4 5.2 1.7 2.6.4 5.6-.7 6.9-2.8.7-1.2.8-2.6.7-3.9-.1-2.6-.9-5.1-2.5-7.3-1.4-2.2-3.9-3.9-6.7-4.6m-68.1-5.7c3.2-.7 7.1.4 10.1 1.9s5.5 3.6 7.7 5.9c2.6 2.6 5 5.6 5.3 8.9.2 1.5-.2 3.1-1.4 4.1-1.7 1.3-4.4 1-6.4.1-2.1-.9-3.8-2.3-5.9-3.2-2.2-.9-4.8-1.2-7.1-.7-1.8.4-3.5 1.1-5.3 1.3-2.6.2-5.5-1.1-6.5-3.3-.6-1.2-.6-2.6-.4-3.9.3-2.5 1.3-5 3-7 1.6-2.1 4.1-3.6 6.9-4.1" clip-path="url(#b)"/>
  <path fill="#21232B" d="M1027.6 267.7c.6.3 1.2.7 1.6 1.4.4.6.5 1.3.4 2 0 .4-.2.8-.4 1.1-.2.3-.5.5-.8.7-.6.4-1.3.6-2 .5-.7-.1-1.4-.5-1.8-1.1-.3-.4-.4-.8-.5-1.2-.1-.6-.1-1.2.1-1.8.2-.6.6-1.1 1.1-1.4.5-.3 1.2-.3 1.8-.2m57.5 4.5c.6.3 1.2.7 1.6 1.4s.5 1.3.4 2c0 .4-.2.8-.4 1.1-.2.3-.5.5-.8.7-.6.4-1.3.6-2 .5-.7-.1-1.4-.5-1.8-1.1-.3-.4-.4-.8-.5-1.2-.1-.6-.1-1.2.1-1.8.2-.6.6-1.1 1.1-1.4.5-.3 1.2-.3 1.8-.2" clip-path="url(#b)"/>
  <path fill="#323441" d="M1096.6 255.1c-5.4-2.8-9.3-3.7-14.7-1.9.7.1 1.3.3 2 .4-.7.2-1.4.3-2 .3 1 .5 2.1.8 3.3.9-1.8.5-3.7 0-5.6-.2-1.9-.2-4 .1-5.2 1.6.5-.1 1-.2 1.5-.1-2.6.2-5.1 1.8-6.4 4.1 2.1-.9 4.7.2 6.9-.6-.7.4-1.4.7-2.2 1.1.5-.1 1-.3 1.5-.4-.4.3-.9.6-1.3.9 5-.7 10.1-.4 15.2 0-.5.2-1.1.4-1.6.6 1-.3 2.2.1 3.1.7 3.9 2.3 6.9 6.2 8 10.6l-.6-1.2c-.7 2.4-.2 5.1 1.3 7.1.1-.3.2-.5.4-.8.1.6.1 1.2-.1 1.8 1.5-1.4 2.3-3.4 2.4-5.5.1.7.3 1.4.4 2.2.6-2.3.9-4.7.9-7.1 0-3.7-.7-7.6-3.2-10.4.6.6 1.2 1.1 1.7 1.7-1.2-2.5-3.2-4.5-5.7-5.8m-75.8-6.7c-2.5 1-4 2.3-5.7 4.2.5-.4 1-.7 1.7-.9-1.5 1.9-3 3.7-4.1 5.8-1 2.1-1.6 4.6-.9 6.8.2-.4.5-.8.7-1.3-.3 1.1-.2 2.3.2 3.4 0-.2.1-.5.1-.7.1 1.1.4 2.3.8 3.4 1-1.8 1.5-3.8 1.4-5.7.1.6.2 1.3.3 1.9.7-3.5 3.7-6.4 7.2-7.8 3.5-1.5 7.3-1.7 11.1-1.5-.5-.4-1.1-.8-1.8-1 1.7.3 3.5.7 5 1.6.6.4 1.2.8 1.9 1.2 1.9 1 4.1 1.2 6.3 1.1-.3-.2-.7-.3-1-.5.9.2 1.9.4 2.8.4-2.3-2.5-4.7-5.1-8-6.1l2.7.3c-2-.9-4-1.8-5.9-3-1.2-.8-2.4-1.7-3.8-2.3-2-.9-4.4-1.1-6.6-.6.7 0 1.4.1 2 .4-2.3-.1-4.4.2-6.4.9m74.9 83.7c-19.1 2.2-38.4 4.4-57.5 1.1-12.4-2.1-24.5-6.5-37-7.6-2-.2-4.4 0-5.3 2-.6 1.3-.3 2.8.1 4.2 2.1 7.2 7.2 12.9 13 16.6 5.8 3.6 12.4 5.4 18.8 6.6 13.8 2.6 27.8 3.2 41.5.8 10.4-1.8 21.5-6.2 26.7-16.7.7-1.4 1.3-3 .9-4.6-.3-1.6-2-2.9-3.2-2.1" clip-path="url(#b)"/>
  <path fill="#FBC08E" d="M1036.6 316.9c-3.5 1-9 4.3-11.8 6.6-1.8 1.5-3.6 3.5-3.6 5.8 0 .5.1 1.2.6 1.5.4.3.9.2 1.3.2 3.6-.4 7-1.8 9.8-4.1-3.2 3.7-4.9 8.6-4.7 13.4 0 .9.5 1.8 1.3 2.2 1.2.6 2.1 0 2.9-.8 3.7-3.4 5.5-8.3 7.3-13-1.5 3.1-2 6.6-1.6 10 .1.6.4 1.2 1 1.4 1 .4 1.7-.4 2.2-1.2 1.3-2.2 2-4.8 2-7.4-.4 1.8-.4 3.8 0 5.6.1.4.3.7.7.8.7.3 1.3-.4 1.6-1.1.7-1.6.9-5.9.9-7.6l.2 2.6c0 .8 1.2 1.1 1.5.4.6-1.1.9-2.4 1-3.7-.9 2.5-.4 5.4 1.2 7.6 1.3 1.8 4.2 1 4.3-1.2 0-1.4-.1-2.9-.3-4.3-.3 2.4.5 4.8 2.1 6.7 1 1.2 3 .2 2.6-1.4-.4-1.5-.8-3-1.4-4.5.5 2.6 2.4 4.9 4.8 5.9.5.2 1 .3 1.5.1 1.3-.3 1.4-1.4 1.4-2.3-.1-4-2.9-7.8-6.6-9 1.5.6 3 1.2 4.5 1.7.9.4 1.9.7 3 .4.4-.1.8-.4 1-.9.5-1.1-.4-2-1.2-2.6-2.5-1.8-5.6-2.6-8.6-3.3-3.1-.7-6.1-1.5-9.2-2.2-4.9-1-9.5 1.7-11.7-2.3" clip-path="url(#b)"/>
  <g clip-path="url(#b)">
    <defs>
      <path id="o" d="M1036.6 316.9c-3.5 1-9 4.3-11.8 6.6-1.8 1.5-3.6 3.5-3.6 5.8 0 .5.1 1.2.6 1.5.4.3.9.2 1.3.2 3.6-.4 7-1.8 9.8-4.1-3.2 3.7-4.9 8.6-4.7 13.4 0 .9.5 1.8 1.3 2.2 1.2.6 2.1 0 2.9-.8 3.7-3.4 5.5-8.3 7.3-13-1.5 3.1-2 6.6-1.6 10 .1.6.4 1.2 1 1.4 1 .4 1.7-.4 2.2-1.2 1.3-2.2 2-4.8 2-7.4-.4 1.8-.4 3.8 0 5.6.1.4.3.7.7.8.7.3 1.3-.4 1.6-1.1.7-1.6.9-5.9.9-7.6l.2 2.6c0 .8 1.2 1.1 1.5.4.6-1.1.9-2.4 1-3.7-.9 2.5-.4 5.4 1.2 7.6 1.3 1.8 4.2 1 4.3-1.2 0-1.4-.1-2.9-.3-4.3-.3 2.4.5 4.8 2.1 6.7 1 1.2 3 .2 2.6-1.4-.4-1.5-.8-3-1.4-4.5.5 2.6 2.4 4.9 4.8 5.9.5.2 1 .3 1.5.1 1.3-.3 1.4-1.4 1.4-2.3-.1-4-2.9-7.8-6.6-9 1.5.6 3 1.2 4.5 1.7.9.4 1.9.7 3 .4.4-.1.8-.4 1-.9.5-1.1-.4-2-1.2-2.6-2.5-1.8-6.3-2.6-9.3-3.3-3.1-.7-5.4-1.4-8.4-2.2-5-1-9.6 1.7-11.8-2.3"/>
    </defs>
    <clipPath id="p">
      <use xlink:href="#o" overflow="visible"/>
    </clipPath>
    <path fill="#F7AB72" d="M1037.8 315.7c-6.1 1.7-11.9 4.7-16.7 8.8-.9.7-1.7 1.5-2.2 2.5-.5 1-.7 2.3-.1 3.2.5.9 1.6 1.4 2.7 1.5s2.1-.2 3.1-.6c4.2-1.5 8-4.2 10.8-7.7-2.2 2.9-3.9 6.2-5 9.7-.2.6-.3 1.3 0 1.8.4.5 1.1.7 1.8.6 2-.2 3.6-1.8 4.7-3.6 1-1.7 1.7-3.7 2.7-5.5-.5 1.2-.8 2.5-.8 3.8 0 .7.2 1.4.7 1.8 1 .5 2-.7 2.4-1.7 1.2-2.7 2-5.6 2.4-8.5.2 2.5 1.7 6.2 3.9 7.3.5.2 1.9.4 2.4.2 1-.5 2.1-1.2 2.1-2.3 0-.8-.1-5.6-.4-6.4-.3-.9-1.2-1.1-1.5-2-.4-1.1-1.9.4-2.7-.5-2.1-2.2-5.7-1.8-8.5-2.8" clip-path="url(#p)"/>
  </g>
  <path fill="#FFEAD9" d="M1048.3 283c-.5 5.2-2 9-4.5 13.3s-5.4 8.3-7.6 12.8c-.4.8-.7 1.5-.8 2.4-.1 1 .1 1.9.4 2.8.3 1.2.8 2.3 1.4 3.3 1.3 2 2 6.6 4.1 7 2.1.4 9.4-3.3 11.5-3.9.5-.1 1.5-3.6 1.7-4.2 1.4-3.4-1.8-.1-3.4 1.9-3.9 4.8 2.6-12.2 3.1-18.3.2-1.6.3-3.2.2-4.9-.4-3.9-2.7-9.6-6.1-12.2" clip-path="url(#b)"/>
  <g clip-path="url(#b)">
    <defs>
      <path id="q" d="M1095.7 332.1c-19.1 2.2-38.4 4.4-57.5 1.1-12.4-2.1-24.5-6.5-37-7.6-2-.2-4.4 0-5.3 2-.6 1.3-.3 2.8.1 4.2 2.1 7.2 7.2 12.9 13 16.6 5.8 3.6 12.4 5.4 18.8 6.6 13.8 2.6 27.8 3.2 41.5.8 10.4-1.8 21.5-6.2 26.7-16.7.7-1.4 1.3-3 .9-4.6-.3-1.6-2-2.9-3.2-2.1"/>
    </defs>
    <clipPath id="r">
      <use xlink:href="#q" overflow="visible"/>
    </clipPath>
    <path fill="#FFF" d="M993.8 343.3c32.3 8.1 66.1 8.3 99.5 6.7.6 0 1.3 0 1.6.5.2.3.2.7.1 1.1-.4 1.9-1.8 3.4-3.4 4.3-1.6.9-3.5 1.4-5.4 1.8-25.8 6.1-52.9 10.2-78.5 3.4-4.6-1.2-9.4-3-12.2-7-1.5-2.2-2.2-4.8-2.9-7.4-.2-.6-.3-1.3 0-1.9.3-.6 1.3-.8 1.6-.2" clip-path="url(#r)"/>
  </g>
  <path fill="#FFEAD9" d="M863.3 416.6c-13.6.2-27.2-2.4-39.7-7.7-3.5-1.5-7-3.2-10-5.7-.6-.5-1.2-1.1-1.2-1.9 0-1.1 1-1.8 2-2.2 2.5-.9 5.3-.6 8-.2 10.8 1.4 21.6 3 32.4 4.8-13.7-2.2-27.4-4.6-40.7-8.2-4.9-1.3-9.8-2.8-14.3-5.3-1.2-.6-2.5-1.7-2.1-3 .3-.9 1.3-1.3 2.1-1.5 4.4-1.2 9.1-1 13.6-.6 13.2 1.1 26.2 3.3 39.2 5.5-13.1-1.9-26-5.7-38-11.3-3.3-1.5-6.6-3.2-9.6-5.4-1.2-.9-2.4-2.3-1.8-3.6.5-1.1 1.9-1.4 3.2-1.4 4.9-.2 9.8.9 14.6 2 10.4 2.3 20.9 4.6 31.3 6.9-13.6-4-27.7-8.2-38.7-17.1-1-.8-3.1-3.1-2.3-4.1.5-.6.7-1.2 3.5-.9 4.5.5 9.1 1 13.6 2.1 18.1 4.3 36 11.1 51.8 21 4.8 3 9.5 6.6 12.5 11.4 3 4.8 4.1 11.2 1.6 16.3-2.2 4.4-6.6 7.2-11.3 8.6-4.7 1.3-9.6 1.4-14.5 1.4" clip-path="url(#b)"/>
  <path fill="#EFF0F4" d="M878.1 371.3c-5.2-1.6-10.6-2.5-16-2.5-.4 3.3.2 6.6.8 9.9 2.3 12 4.5 24 6.8 36 .3 1.4.5 2.8 1.4 3.9 2.1 2.5 6.5 1.5 8.5-1.1s2.3-6.1 2.5-9.4c.6-10.3 1.2-20.8-.9-30.9-.6-2.7-1.9-5.9-4.7-6.3" clip-path="url(#b)"/>
  <path fill="#82D5E8" d="M1040.2 475c11.1 15.6 27.1 27 44.4 35.2 17.3 8.1 35.8 13.1 54.4 17.7 55.2 13.5 111.4 23.5 168.1 27.2 8.2 25.2 24.5 46.5 37.3 69.6-46.7 1.6-93.7 3.2-140.2-1.9-46.5-5.1-92.9-17.3-132.9-41.5-11.8-7.1-23.1-15.4-31.9-25.9-6.9-8.2-12.1-17.7-15.9-27.7-5.6-14.6-8-30.4-7.9-46 8.5-3.2 17.5-4.8 26.6-4.7" clip-path="url(#b)"/>
  <g clip-path="url(#b)">
    <defs>
      <path id="s" d="M1040.2 475c11.1 15.6 27.1 27 44.4 35.2 17.3 8.1 35.8 13.1 54.4 17.7 55.2 13.5 111.4 23.5 168.1 27.2 8.2 25.2 24.4 46 37.3 69.6-46.7 1.6-93.7 3.2-140.2-1.9-46.5-5.1-92.9-17.3-132.9-41.5-11.8-7.1-23.1-15.4-31.9-25.9-6.9-8.2-12.1-17.7-15.9-27.7-5.6-14.6-8-30.4-7.9-46 8.5-3.2 17.5-4.8 26.6-4.7"/>
    </defs>
    <clipPath id="t">
      <use xlink:href="#s" overflow="visible"/>
    </clipPath>
    <path fill="#FFEBD3" d="M1030.8 464.4c13.4 27.2 27.5 55.4 51.1 74.4 16.4 13.2 36.4 21.1 56.6 27.1 61.8 18.4 127.4 20.4 191.7 15.1 1.1-.1 2.3-.3 3-1.2.5-.7.4-1.7.3-2.6-1.5-13.5-4.1-27-7.7-40.1-19.5 2.7-39.3 1.7-58.9-.5-76.1-8.4-150.1-34.7-214.5-76.1-4.1-2.6-8.6-5.5-13.4-5.1s-9.5 5.7-7.1 10" clip-path="url(#t)"/>
    <path fill="#F6995E" d="M1030.6 467.9c1.8 11 6.2 21.3 10.6 31.5 7.4 17.1 14.9 34.4 27.1 48.4 21.6 24.7 54.7 35.8 86.6 43.3 62.7 14.8 129.3 20 191.2 2 1-.3 2.1-.6 2.7-1.4 1-1.1.9-2.7.8-4.2-.7-8.5-1.4-16.9-2-25.4-55.7 3.8-112.2 1.1-166.4-12.4-23.2-5.8-46.7-14-64-30.5-7.7-7.4-14-16.2-22-23.4-7.4-6.6-16.1-11.6-24.7-16.5-7.4-4.2-14.9-8.5-22.3-12.7-3.9-2.2-8.5-4.4-12.5-2.5-4.9 2.3-5.3 8.9-5.1 14.3" clip-path="url(#t)"/>
  </g>
  <g fill="#DD9362" clip-path="url(#b)">
    <path d="M964.1 327.5c-1.1.3-2.3 2.4-2 3.6.2.9.8 1.2 1.5 1h.1c1.1-.3 2.3-2.3 2-3.6-.2-.9-.8-1.2-1.6-1 .1 0 0 0 0 0z"/>
    <path d="M970.1 330.1c-1.4.3-3.2 2.1-4.5 4.4-.4.7-.7 1.4-1 2.1-1 2.1-2.6 5.1-3.2 5.3-.1 0-.2 0-.3-.2 0-.2 0-.7.2-1.8.3-1.2.8-2.8 1.6-4.6-.5-.3-1-.6-1.5-1-.2.3-.5.9-.7 1.3-.3.7-.6 1.3-.8 1.8-1.4 3.2-3.8 8-4.7 8.3-.1 0-.2 0-.2-.2-.1-.4.3-1.6 1.4-4 1.1-2.3 1.5-3.7 1.3-4.6-.3-1.3-1.1-1.4-3.7-1.3-1.2 3.4-3.2 8.6-4 8.8-.1 0-.2 0-.3-.2-.1-.6.3-2.3 1.4-5.2.4-1 .7-1.9 1.1-2.8-.5-.3-.9-.7-1.4-1-.3.6-.5 1.2-.8 1.8-1.1 2.5-3.8 8.7-4.4 8.8-.1 0-.2 0-.3-.2-.1-.4 0-1.2.4-2.5.3-1.3 1-3 1.8-4.9-.5-.4-1.1-.7-1.6-1.1-.5.9-1 2.1-1.4 3.2l-.3.9c-1 2.2-3.7 8.5-5.4 8.9-.5.1-.9-.2-1-1-.1-.5-.1-1.1 0-1.7 3-2.1 5.9-6.1 5.5-8.2-.2-.8-.7-1.3-1.7-1.1-1.3.3-3.1 2.2-4.4 4.6-.5 1-1 2-1.3 3-2.1 4.7-3.1 5.8-3.6 6-.2.1-.4-.2-.5-.6-.2-1.1.1-3 .8-5.5 2.9-3.9 4.8-6.6 6-9.4 1.2-2.7 1.8-4.5 1.5-6-.2-1.1-.7-1.6-1.5-1.4-.8.2-1.8 1.4-3.2 4.3-1 1.9-2.1 4.3-3 6.8-.2.6-.5 1.2-.7 1.8-.1-.3-.2-.5-.2-.7-1.4.4-2.8.9-4.2 1.4 1.4-4.4 2.9-8.8 4.3-12.5 2-.9 4.5-1.9 8-3.1-.2-.6-.4-1.2-.7-1.8-2.3.6-7.7 2.3-13.6 5.2.4 1.1 1.1 2.6 1.1 2.6.8-.5 1.6-1 2.5-1.5-1.3 3.2-2.9 7.6-4.4 12.2-.8.3-1.6.6-2 .8.5 1.1.7 1.7 1 2.3-1.3 3.9-2.4 7.8-3.4 11.4 0 0 1.5 1.4 2.1 2.1 1-4 2.5-9.3 4.2-14.8 1.7-.8 3.2-1.4 4.8-2-1.2 3.6-2 7-1.6 9.1.3 1.5 1 2.2 2 1.9 1.1-.3 2.3-1.8 3.8-4.7 0 .2 0 .4.1.6.3 1.8 1.5 2.6 2.8 2.2 1.9-.5 3.5-3.2 5-6.3 0 .2 0 .5.1.7.2 1.2.9 1.6 1.6 1.4 1.1-.3 1.9-2.1 3.1-4.5v-.1c-.2.7-.1 1.3 0 1.8.2 1.1.9 1.4 1.4 1.2 1.7-.5 4.1-6 5.2-9.4.1 0 .2 0 .2-.1.7-.2.8.1.8.2.1.5-.4 1.7-1.3 3.7-1.5 3.4-1.9 4.4-1.6 5.6.2 1 .9 1.4 1.6 1.2 1.4-.4 3.1-3.1 4.5-5.9 0 .3 0 .6.1.8.2 1.2 1 1.5 1.7 1.3.9-.3 2-1.8 3-3.5 0 .3 0 .6.1.8.3 1.6 1.5 2.2 2.7 1.8 1.6-.5 3.2-2.1 5.1-5-.1-.6-.1-1.2-.2-1.9-2.3 3.4-3.1 4.7-4.2 5-.5.1-1-.2-1.1-1-.1-.5-.1-1 0-1.5 3.1-2.1 6.1-5.8 5.7-7.7-.1-.7-.7-1.2-1.7-.9zm-31.3 13.6c1-2.3 2.2-4.2 2.7-4.3.1 0 .2 0 .2.2.2 1.1-1.6 4.3-3.6 6.2.2-.7.4-1.4.7-2.1zm-4.1-4.3c1.1-3 2-5.5 2.8-7.1.5-1.1.8-1.7 1.1-1.8.1 0 .3 0 .3.2.1.6-.2 1.8-1.1 4-1 2.3-2.4 4.8-4 7.4.2-.8.5-1.7.9-2.7zm31.7-2.1c.2-.7.4-1.3.7-1.9 1-2.2 2.3-4 2.8-4.1.1 0 .2 0 .2.2.3 1-1.6 3.9-3.7 5.8zm-68.5 4c-1.2.2-2.4 2.4-2.1 3.7.2 1 .8 1.3 1.5 1.2h.1c1.2-.2 2.4-2.3 2.1-3.7-.2-1-.8-1.3-1.6-1.2z"/>
    <path d="M916.7 342.8c-1.4.3-3.2 2.1-4.5 4.5-.4.7-.7 1.5-1 2.2-2.7 5.9-4.2 8.2-5 8.4-.2 0-.4-.2-.5-.6-.1-.8 0-2 .3-3.5 3-3.8 4.5-6.1 5.9-9.1 1.5-3.2 2.1-5.3 1.8-7.1-.2-1.1-.7-1.6-1.5-1.4-.7.2-1.5 1.1-2.9 3.7-1 1.8-1.7 3.2-2.7 5.6-1.4 3.4-2.6 6.7-3 9.4-1.3 1.8-2.7 2.7-3.3 2.8-.3 0-.5-.2-.6-.6-.1-.7 0-1.8.3-3.2 2.8-3.6 4.7-6.4 6-9.2 1.5-3.3 2.5-5.7 2.1-7.4-.2-1.1-.6-1.6-1.5-1.4-.8.2-1.7 1.3-3.2 4.1-1 1.8-2 4.1-3 6.4-.6 1.6-1.2 3.1-1.7 4.5-.9 2.1-3 6.1-3.7 6.2-.2 0-.3-.1-.3-.3-.1-.3 0-1.1.4-2.7.3-1.1.8-2.7 1.6-4.5-.5-.4-1-.8-1.6-1.2-.2.3-.5.8-.7 1.2-1.9 3.7-2.2 6-1.9 7.6.3 1.3 1 1.9 1.9 1.8 1-.1 2.1-1.6 3.1-3.2-.1.8-.1 1.5 0 2.1.3 1.5 1 2.2 2.1 2 1.1-.1 2.6-1.4 3.8-3.1 0 .5 0 1 .1 1.5.3 1.5 1 2.2 1.9 2 1.3-.2 2.9-2.4 4.8-6.1 0 .2 0 .4.1.6.3 1.8 1.5 2.6 2.8 2.4 1.6-.3 3.2-1.9 5.2-4.9-.1-.7-.1-1.4-.2-2.1-2.3 3.6-3.2 4.9-4.3 5.1-.5.1-1-.3-1.1-1.3-.1-.5-.1-1.1 0-1.7 3.1-1.9 6.1-5.8 5.7-8-.1-1.2-.6-1.7-1.7-1.5zm-8 2.5c1-2.7 1.6-4.2 2.3-5.6.5-1.1.9-1.7 1.1-1.7.1 0 .3 0 .3.2.1.8-.3 2.5-1.7 5.4-1.2 2.6-2.3 4.9-4.1 7.5.7-1.8 1.3-3.7 2.1-5.8zm-6.1.7c1.1-2.8 2-5.2 2.8-6.8.5-1 .8-1.6 1.1-1.7.1 0 .2 0 .3.2.1.7-.4 2.5-1.8 5.7-1 2.3-2.4 4.8-4 7.2.4-1.4 1-3 1.6-4.6zm10.4 4.6c.2-.7.4-1.4.7-2 1-2.3 2.3-4.2 2.8-4.3.1 0 .2 0 .2.2.3 1-1.6 4.2-3.7 6.1zm-30.4 13.7c.6-.4 15.1-26.6 16.9-30.7-.7-.7-1.9-1.7-1.9-1.7-5.3 10.8-11.2 22.3-14.7 28.4.4-5.7 1.1-14 2.4-22.9-1.2-.7-2.5-1.4-2.5-1.4-1.9 13-2.3 24.9-2.3 27.2.8.4 1.5.8 2.1 1.1zm11.5 15.4h-1.5l.3 2.7h-2.3c-.4-5.3-.7-10.5-1.1-15.8 1 0 2-.1 3-.1 1.6 5.2 3.2 10.5 4.9 15.9h-2.5c-.3-.9-.6-1.8-.8-2.7zm-1.8-2.8h1l-1.5-5.4c.1 1.8.3 3.6.5 5.4zm14.9-11.9c.9 3.4 1.9 6.8 2.8 10.2-.3-3.5-.7-7-1-10.5.8-.1 1.7-.3 2.5-.4.4 5.5.7 11.1 1.1 16.7-1 .1-2 .3-3 .4-.8-3-1.6-5.9-2.4-8.9.3 3 .6 6 .9 9.1-1 .1-2 .2-3.1.3-1.6-5.4-3.2-10.7-4.7-16.1l2.7-.3c.9 3.4 1.8 6.9 2.7 10.3-.3-3.5-.6-7-1-10.5.9-.1 1.7-.2 2.5-.3zm16.9 11c-.5.1-1 .2-1.6.3.1.9.2 1.9.3 2.8-.8.2-1.5.3-2.3.5l-1.2-16.8c1-.2 2.1-.4 3.1-.6 1.7 5.3 3.3 10.6 5 15.9-.8.2-1.7.4-2.5.6-.3-.9-.6-1.8-.8-2.7zm-1.9-2.5c.4-.1.7-.1 1.1-.2-.5-1.8-1.1-3.7-1.6-5.5.2 1.9.4 3.8.5 5.7zm14.8 2.1c-.9.3-1.7.5-2.6.7l-3-16.2c1.4-.3 2.7-.7 4.1-1.1 1.6-.4 2.6.3 2.9 2 .2.9.3 1.7.5 2.6.3 1.3-.3 2.1-.7 2.5.4.1 1.2.4 1.5 1.6.3 1.8.7 3.6 1 5.4.1.7.3.9.4 1.1v.1c-.9.3-1.7.5-2.6.8-.2-.1-.3-.4-.5-1.2-.3-1.6-.6-3.1-.9-4.7-.1-.8-.3-.9-.9-.8-.2.1-.4.1-.5.2.5 2.4.9 4.7 1.3 7zm-1.8-9.6c.2 0 .3-.1.5-.1.5-.1.7-.4.5-1.2-.1-.7-.3-1.5-.4-2.2-.1-.7-.3-.9-.8-.7-.2.1-.4.1-.6.2.3 1.3.6 2.7.8 4zm10-9.7c1.2-.4 2.4-.7 3.7-1.1 1.9-.6 3 .1 3.5 2.4.6 2.9 1.1 5.8 1.7 8.7.4 2.2 0 3.6-2.1 4.4-1.2.4-2.4.9-3.7 1.3-1.1-5.2-2.1-10.4-3.1-15.7zm5.1 12.2c.2-.1.3-.1.5-.2.6-.2.7-.6.5-1.3-.5-2.8-1.1-5.5-1.6-8.3-.1-.8-.4-1-.9-.8-.2.1-.4.1-.6.2.8 3.4 1.4 6.9 2.1 10.4zm12.1-17.8c2-.7 2.9 0 3.3 1.9.1.6.3 1.3.4 1.9-.8.3-1.6.6-2.5.9-.1-.6-.3-1.2-.4-1.8-.1-.5-.3-.7-.7-.6-.4.2-.5.5-.4 1 0 .1 0 .2.1.3.1.7.4 1.1 1.2 1.6.6.4 1.2.8 1.8 1.1 1.6 1 2.1 1.8 2.3 3.1 0 .2.1.4.1.7.4 2.1-.2 3.9-2.4 4.8-.2.1-.3.1-.5.2-1.9.8-3.1.1-3.5-1.8-.2-.9-.4-1.8-.5-2.7.8-.3 1.7-.6 2.5-.9.2.8.3 1.6.5 2.3.1.6.4.8.8.6.4-.2.6-.6.4-1.3 0-.1 0-.2-.1-.3-.2-1-.4-1.4-1.3-1.9-.6-.4-1.2-.7-1.8-1.1-1.3-.8-1.8-1.8-2.1-3.3 0-.2-.1-.4-.1-.6-.4-1.9.5-3.4 2.3-3.9.2-.1.4-.2.6-.2z"/>
  </g>
  <path fill="#21232D" d="M1135.4 358c83.4 71.6-3.2-18 7.3-15.2 29.5 7.7 25.3 17.3 36 43.3s8.1 29.1-6 53.2c-5.9 10-13.6 18.7-22.1 26.4-7.3 6.6-15.2 12.6-24.1 16.4-9.6 4.1-20.1 5.3-30.3 6.6-13 1.6-26 3.2-39 2.8-34-1-66.2-15.4-97.9-28.5-28-11.5-56.3-22.1-84.9-31.8 6-19.4 6.4-40.7 1.3-60.5 17.3 7.9 36.5 9.7 54.5 15.4 16.2 5.1 31.3 13.4 47.6 18.2 16.7 4.8 34.2 5.8 51.5 6.7 13.7.7 27.5 1.3 41-1s27.9-6.9 38.7-16c20.2-17 17.2-14.5 26.4-39.8 1.1-2.9 1.9-3.5 0-5.9-1.9-2.4 2.5 8 0 9.7" clip-path="url(#b)"/>
  <path fill="#FFEAD9" d="M857 316.8c11.6-7 24.7-11.6 38.2-13.3 3.8-.5 7.7-.8 11.5-.1.8.1 1.6.3 2 1 .6.9 0 2.1-.7 2.9-1.7 2-4.3 3.2-6.8 4.2-10 4.3-20.2 8.3-30.4 12.1 13-4.9 26-9.8 39.3-13.4 4.9-1.3 9.9-2.5 15-2.6 1.3 0 3 .3 3.3 1.5.2.9-.4 1.8-1.1 2.4-3.2 3.3-7.3 5.4-11.5 7.3-11.9 5.6-24.3 10.3-36.7 15 12.3-4.9 25.3-8.1 38.5-9.4 3.7-.4 7.4-.6 11-.1 1.4.2 3.2.8 3.4 2.2.1 1.2-1 2.2-2 2.8-4.2 2.6-8.9 4.1-13.6 5.6-10.2 3.2-20.4 6.5-30.5 9.7 13.8-3.4 28-6.8 42.1-4.7 1.3.2 4.3 1.1 4.1 2.4-.1.8 0 1.4-2.5 2.6-4.1 1.9-8.4 3.7-12.8 5-17.9 5.4-36.7 8.5-55.3 7.9-5.7-.2-11.5-.9-16.5-3.6s-9.1-7.6-9.5-13.3c-.3-4.9 2.1-9.6 5.5-13.1s7.7-6 11.9-8.5" clip-path="url(#b)"/>
  <path fill="#EFF0F4" d="M844.2 314.2c5.8 15.4 11.7 30.8 17.5 46.2-7.1.4-14.1 1.5-21 3.1-3.2-11.2-6-22.5-8.6-33.9-.1-.6-.3-1.3-.2-1.9.2-.8.7-1.4 1.2-2 3.5-4 7.2-7.8 11.3-11.4" clip-path="url(#b)"/>
  <defs>
    <path id="u" d="M0 0h1440v800H0z"/>
  </defs>
  <clipPath id="v">
    <use xlink:href="#u" overflow="visible"/>
  </clipPath>
  <g clip-path="url(#v)">
    <path fill="#AA263C" d="M1298.2 385.7h477.9v584.1h-477.9z"/>
    <path fill="#FBC08E" d="M1316.7 361.7h399.7V873h-399.7z"/>
    <path fill="#F7AB72" d="M1316.7 361.7l24.6 25.1v455.5l-24.6 30.7m377-486.2l22.7-25.1 34 539.8-56.7-59.2V386.8"/>
    <path fill="#F7AB72" d="M1330.6 375.8c.3.3 374.5 0 374.5 0v481.8h-374.5V375.8z"/>
    <path fill="#EA9357" d="M1330.6 375.8l10.7 11v455.5l-10.7 15.3m374.5-481.8l-11.4 11v455.5l11.4 15.3"/>
    <path fill="#F9F9E8" d="M1341.3 386.8h352.5v455.5h-352.5z"/>
    <path fill="none" stroke="#EFD0A8" stroke-width="2" stroke-miterlimit="10" d="M1354.2 399.7h326.6v429.6h-326.6z"/>
    <path fill="#EFD0A8" d="M1410.4 596.2h217.7v6.1h-217.7zm0 16.1H1599v6.1h-188.6zm0 16.1H1614v6.1h-203.6zm0 16.2H1599v6.1h-188.6zm0-64.5h210.5v6.1h-210.5zm0 113.8h217.7v6.1h-217.7zm0 16.1h193.1v6.1h-193.1zm0 16.2h156.3v6.1h-156.3zm0-64.5h210.7v6.1h-210.7zm0 16.1H1614v6.1h-203.6zM1552.6 463c3 3.7 3.5 8.6 5.1 12.8 1.7 4.3 4.5 8.4 4.8 13 .2 4.6-2.2 9-3.4 13.4-1.2 4.4-1.2 9.4-3.8 13.3-2.4 3.7-7 5.9-10.6 8.8-3.7 3-6.7 7-10.8 8.6-4.3 1.7-9.3.7-13.8.9-4.6.2-9.4 1.7-13.8.5s-7.8-4.8-11.7-7.4c-3.7-2.4-8.5-4-11.5-7.7s-3.5-8.6-5.1-12.8c-1.7-4.3-4.5-8.4-4.8-13-.2-4.6 2.2-9 3.4-13.4 1.2-4.4 1.2-9.4 3.8-13.3 2.4-3.7 7-5.9 10.6-8.8 3.7-3 6.7-7 10.8-8.6 4.3-1.7 9.3-.7 13.8-.9 4.6-.2 9.4-1.7 13.8-.5s7.8 4.8 11.7 7.4c3.7 2.4 8.5 4 11.5 7.7z"/>
    <circle cx="1517.8" cy="491.1" r="30.9" fill="none" stroke="#F9F9E8" stroke-width="0.5" stroke-miterlimit="10"/>
    <path fill="none" stroke="#EFD0A8" stroke-width="0.5" stroke-miterlimit="10" d="M1575.7 799.1c5.1-17.8 14.2-32.7 17-31.6 4.3 1.9-7 30.7-2.9 31.5s9.1-24 13.2-22.9c2.7.7-1.3 17.8 1.3 17.5 2.7-.3 8.6-13.3 23.5-10.4 7.6 1.5-37.8 6.3-58.8 5.5"/>
  </g>
  <defs>
    <path id="w" d="M0 0h1440v800H0z"/>
  </defs>
  <clipPath id="x">
    <use xlink:href="#w" overflow="visible"/>
  </clipPath>
  <g clip-path="url(#x)">
    <path fill="#AA263C" d="M1273.2-274.4h477.9v584.1h-477.9z"/>
    <path fill="#FBC08E" d="M1288.4-227.8H1721v518.4h-432.6z"/>
    <path fill="#F7AB72" d="M1288.4-227.8l26.6 27.2v457.9l-26.6 33.3m408.1-491.2l24.5-27.2v518.4l-24.5-33.3v-457.9"/>
    <path fill="#F7AB72" d="M1303.4-212.4c.3.3 405.3 0 405.3 0V274h-405.3v-486.4z"/>
    <path fill="#EA9357" d="M1303.4-212.4l11.6 11.8v457.9l-11.6 16.7m405.3-486.4l-12.2 11.8v457.9l12.2 16.7"/>
    <path fill="#2C8591" d="M1315-200.6h381.4v457.9H1315z"/>
    <defs>
      <path id="y" d="M1315-200.6h381.4v457.9H1315z"/>
    </defs>
    <clipPath id="z">
      <use xlink:href="#y" overflow="visible"/>
    </clipPath>
    <path fill="#323441" d="M1486 96.6c-61 38-108.8 96.9-133.2 164.5 30.6-5.4 62-1.9 92.9.9 49 4.5 98.2 7.5 147.4 10 36.9 1.8 73.8 3.3 110.7 4.5-1.9-47.3-3.9-94.6-5.8-141.9-.1-3.4-.3-6.9-1.6-10.1-1.8-4.5-5.5-7.8-9.2-10.8-18.5-15-40.1-26.1-63-32.4-5.5-1.5-11.1-2.8-16.8-2.7-7.5 0-14.8 2.2-21.9 4.4-12.9 4-25.9 8-38.8 11.9-12.7 3.9-25.5 7.8-38.7 8.1-7.4.2-14.7-.8-21.8-2.8" clip-path="url(#z)"/>
    <path fill="#FFF" d="M1504.1 124.6c-9.7 22.2-7.5 47.5-9.3 71.7-1.7 23.1-7.3 46-6.6 69.1 22.5 3.3 45 6 67.7 8 13.9-34.4 20.4-71.7 19.1-108.8-.3-8.1-1.1-16.6-5.5-23.4-3.7-5.7-9.6-9.6-15.6-13-12.4-7-25.6-12.4-39.3-16.1-1.3-.3-2.6-.7-3.8-.2-1 .4-1.8 1.3-2.4 2.3-2.7 3.8-4.7 8.1-5.8 12.6" clip-path="url(#z)"/>
    <path fill="#EB4E54" d="M1513.5 168.5c-7.9 11.5-11.3 25.4-14.1 39.1-4.3 21.1-7.6 42.8-4.8 64.1.4 3.2 1.2 6.7 3.8 8.7 1.6 1.2 3.7 1.6 5.7 1.8 11.4 1.6 22.9 1.8 34.4.8 1.2-.1 2.4-.3 3.3-1 1.2-1 1.6-2.6 1.8-4.2 5-30.4 10.1-61.8 2.5-91.6-1.8-7.1-4.6-14.4-10.6-18.6-2.6-1.8-5.7-2.9-8.9-3.4-4.1-.6-8.6-.2-12.1 2-3.3 2.3-1.7-1.8-1 2.3" clip-path="url(#z)"/>
    <g clip-path="url(#z)">
      <defs>
        <path id="A" d="M1513.5 168.5c-7.9 11.5-11.3 25.4-14.1 39.1-4.3 21.1-7.6 42.8-4.8 64.1.4 3.2 1.2 6.7 3.8 8.7 1.6 1.2 3.7 1.6 5.7 1.8 11.4 1.6 22.9 1.8 34.4.8 1.2-.1 2.4-.3 3.3-1 1.2-1 1.6-2.6 1.8-4.2 5-30.4 10.1-61.8 2.5-91.6-1.8-7.1-4.6-14.4-10.6-18.6-2.6-1.8-5.7-2.9-8.9-3.4-4.1-.6-8.6-.2-12.1 2-3.3 2.3-1.7-1.8-1 2.3"/>
      </defs>
      <clipPath id="B">
        <use xlink:href="#A" overflow="visible"/>
      </clipPath>
      <path fill="#C63647" d="M1489.6 245.7c14.3-24.6 44.7-38.7 72.7-33.6-2.2-8.2-4.9-16.3-8.1-24.1-1.7-4.3-3.6-8.7-6.6-12.2-5.5-6.4-14.2-9.3-22.6-9.2-3.4 0-6.9.6-10 2.1-3.6 1.9-6.4 5.1-8.7 8.5-6.7 10-10.1 21.8-13.3 33.5-2 7.1-3.9 14.2-5.9 21.3-.7 2.5-1.4 5-1.2 7.6.2 2.6 1.5 5.2 3.8 6.3" clip-path="url(#B)"/>
    </g>
    <path fill="#EB4E54" d="M1511 116.5c-3.3 11.6-5 23.7-5.1 35.8 0 6.7.9 14.3 6.1 18.6 2.2 1.7 4.9 2.7 7.5 3.4 6 1.7 12.6 2.3 18.5.3 1.7-.6 3.3-1.4 4.5-2.7 1.4-1.5 2.2-3.5 2.8-5.5 3.3-10.2 4.8-21 4.5-31.7-.2-5.6-1-11.5-4.7-15.7-3.4-3.8-8.5-5.4-13.5-6.6-4.2-1-8.7-1.9-12.9-.7-4.2 1.2-7.9 5-7.6 9.3" clip-path="url(#z)"/>
    <path fill="#272933" d="M1506 84.5c-6.6 59.3-11.1 118.9-13.6 178.5-28.7-2.3-57.3-4.6-86-6.9 19.8-47.4 32.2-98.6 61.2-141 9.6-14.1 22.2-27.7 38.9-30.9m57.6-14.3c26-4.3 49.8-5.4 75.4 15.7-7.6 20.3-9.5 42.4-11.5 64.1-3.8 41.5-8.2 83.5-22.6 122.4-16.4-1.1-32.8-.8-49.2.7 9-32.6 12.2-66.6 14.5-100.4 1.3-19.4 2.4-38.8 1.2-58.2-.9-14.2-3-28.3-5.1-42.4-.7 0 .7 0 0 0" clip-path="url(#z)"/>
    <path fill="#EFEFEF" d="M1525.2 116c-13.1 3.3-24.7 14.7-29.8 27.1 1.4-6.6.4-16.2.1-22.9-.7-14.2 4.3-28.6 13.6-39.4 2.5-2.9 5.7-5.7 9.5-6.1 4.1 12 6.9 24.5 8.3 37.1.1 1.1-.3 2.8-1.4 2.5" clip-path="url(#z)"/>
    <path fill="#E8C0A6" d="M1514.2 65.4c.9 8.3 1.8 16.7 2.7 25 1 9 2 18.1 5.7 26.4 3.9-5.2 8.5-9.8 13.7-13.7 7.3-5.5 15.9-9.7 21.2-17.2 7-9.8 6.8-22.7 6.4-34.7-11.7 3.1-23.6 5.2-35.6 6.4-3.2.3-6.4.6-9.2 2-2.8 1.5-5.1 4.4-4.7 7.6" clip-path="url(#z)"/>
    <path fill="#FFF" d="M1564.1 67c-9.1 14.3-20.8 28.7-33 40.5-3.3 3.2-6.9 5-8.4 9.2 10.3.8 19.9 7.9 27.2 15.3s12.5 16.5 17.3 25.7c7.1-8.5 10.4-19.6 11.2-30.6s-1-22.1-3.1-32.9c-2.1-9.6-4.5-21.2-11.2-27.2 0 0 0 .6 0 0" clip-path="url(#z)"/>
    <g clip-path="url(#z)">
      <defs>
        <path id="C" d="M1564.1 67c-9.1 14.3-20.8 28.7-33 40.5-3.3 3.2-6.9 5-8.4 9.2 10.3.8 19.9 7.9 27.2 15.3s12.5 16.5 17.3 25.7c7.1-8.5 10.4-19.6 11.2-30.6s-1-22.1-3.1-32.9c-2.1-9.6-4.5-21.2-11.2-27.2 0 0 0 .6 0 0"/>
      </defs>
      <clipPath id="D">
        <use xlink:href="#C" overflow="visible"/>
      </clipPath>
      <path fill="#EFEFEF" d="M1530 94.9c-3.6 5.1-2.3 12.7 2 17.3 4.3 4.6 11 6.4 17.3 5.9s12.2-2.8 17.9-5.5c8.5-4.1 17.3-10.2 19.3-19.4 7 16.5 8.5 35.4 4.2 52.8-1.7 6.8-4.4 13.7-9.3 18.7-8.8 9-24.4 10.2-34.5 2.8-3-2.2-5.4-5-7.7-7.9-3.4-4.2-6.4-8.7-8.9-13.5-8.3-16.3-12.4-33.5-5-50.3" clip-path="url(#D)"/>
    </g>
    <path fill="#FFF2E6" d="M1465.5-71c-4.8 7 1.3 18-3 25.2-1.8 3-3.1 5.3-5.5 7.9-6 6.8-12.6 14.1-13.6 22.8-2.9 25.4-.2 51.8 19.1 73 5.1 5.6 10.1 11.8 20.8 15.3 8.6 2.8 20 6.6 29.1 7.2 13.4.9 19.8.4 29.8-1.3 17.8-3.1 44.1-16.1 51.4-31.5 8.3-17.3 4.3-27.8 6.4-38.6s7.5-13.1 8.2-24c.8-14.8 3-33.6-.1-48.2s-11.9-29-26.7-35.5c-12.7-5.6-27.6-4.5-41.8-4.6-19.4-.1-39-2.5-57.9 1.1-2.1.4-4.2.9-5.9 2-1.9 1.2-3.1 3.1-4.1 5-3.5 6.2-5.7 13-6.5 19.9-.3 2.8-1.1 6.5-4.3 7" clip-path="url(#z)"/>
    <path fill="#FFE5CF" d="M1517.4-61.5c1.6-5.5 5-10.5 9.5-14.1-2 1.8-3.5 4-4.5 6.4-.5 1.2-.7 2.7.3 3.5.5.4 1.2.5 1.8.5 2 .1 4-.5 5.9-1 20.3-6 39-17.4 53.7-32.7-.7 3.3.1 6.7 1.8 9.7 1.6 2.9 3.9 5.4 6.2 7.9 1.3 1.4 2.6 2.8 4.2 3.9 1 .7 2.3 1.3 3.5 1.2 2.1-.2 3.6-2.3 3.8-4.5.2-2.1-.6-4.2-1.5-6.1-2.2-5-5-9.9-8.6-14.1-2-2.3-4.3-4.4-7-5.6-3.4-1.5-7.3-1.6-11-1.2-8.5.8-16.8 3.6-24.1 8-6.2 3.8-11.9 8.9-19 10.3-3.6.7-7.6.5-10.7 2.4-4 2.4-5.5 7.3-6.7 11.8-.6 2.3-1.2 4.7-1 7 .3 2.4 1.7 4.8 4 5.5" clip-path="url(#z)"/>
    <g clip-path="url(#z)">
      <defs>
        <path id="E" d="M1465.5-71c-4.8 7-1.6 16.5-5.9 23.7-1.8 3-4.6 5.2-6.9 7.9-6 6.8-8.3 15.6-9.3 24.3-2.9 25.4-.2 51.3 17.5 71.6 9.2 10.5 14.4 14.5 24.1 17.3 8.7 2.5 19.9-3.8 29-4.7 10.1-1 20.1-2 30.1-3.7 17.8-3.1 36-9.2 47.6-21.7 7.8-8.4 12-19.1 14.1-29.9s2.2-21.8 2.9-32.7c.8-14.8 2.5-29.7-.5-44.3s-11.9-29-26.7-35.5c-12.7-5.6-27.6-4.5-41.8-4.6-19.4-.1-39-2.5-57.9 1.1-2.1.4-4.2.9-5.9 2-1.9 1.2-3.1 3.1-4.1 5-3.5 6.2-5.7 13-6.5 19.9-.3 2.8-1.1 6.5-4.3 7"/>
      </defs>
      <clipPath id="F">
        <use xlink:href="#E" overflow="visible"/>
      </clipPath>
      <path fill="#FFE5CF" d="M1524-92.1c.2 21-7.5 42-21 58.1-5.9 7-13.2 13.7-14.5 22.8-.6 4.4.1 9.5-2.8 12.9-1.3 1.5-3.2 2.4-4.9 3.3-11.4 6.6-17.9 20.7-15.5 33.7 2.3 12.5 11.8 22.6 15.3 34.9 1 3.3 1.1 7.6-1.8 9.5-1.2.8-2.8.9-4.2.9-8.9-.3-16.4-6.5-22.7-12.9-11-11.3-20.4-24.2-27.9-38.1-2.5-4.7-4.8-9.6-6.2-14.8-2.8-10.2-1.8-20.9-.8-31.3 1.1-11.3 2.2-22.5 4.6-33.6 1.2-5.5 2.7-11 4.2-16.5 1.8-6.7 3.7-13.3 6.7-19.6 6.8-14.2 19.4-25.5 34.3-30.7 12.3-4.3 26-4.5 38.7-1.2 6.1 1.6 12.2 4.1 16.1 9.1 3.8 5 4.4 12.9-.2 17.1" clip-path="url(#F)"/>
    </g>
    <path fill="#FFE5CF" d="M1534.6-32.7c-1.3 2.5-1.2 5.4-.6 8.2.4 2 1.1 4 2.8 5.8 1.7 1.8 4.4 3.1 7.1 4.2 6.9 2.6 15 3.4 21.4 1.9 6.4-1.5 10.9-5.5 11.2-10.3 0-.2 0-.5-.1-.7-.3-.4-.9-.6-1.5-.8-3.5-1.2-7.1-2.2-10.7-3.2-7.1-1.9-14.3-3.9-21.4-5.8-1.6-.4-3.3-.9-4.9-.9-1.6 0-3.1.7-3.2 1.8" clip-path="url(#z)"/>
    <path fill="#F9D1B4" d="M1508.6-36.6c.3-1.6.5-4.8.4-7.4 0-1.3-.1-2.4-.3-3.1 0-.1-.1-.1-.1-.2-.3-1.9-.9-3.7-1.5-5.5-1-2.9-2.2-5.9-4.4-8-3.4-3.3-8.4-4.2-13.1-4.2-2.7 0-5.4.2-8 1-7.5 2.2-13.2 9.5-13.6 17.3l.3-.1c0 1 .1 2 .3 3 .3 1.7.9 3.5 2.4 5.2 1.5 1.6 3.8 3 6.1 4.1 1.9.9 3.8 1.6 5.8 2.1 1.5.7 3.1 1.5 4.3 2.7 1.4 1.3 2.4 3.2 2.3 5.2-.1 1-.5 1.9-1 2.8-1.6 1.5-2.9 3.2-3.7 5.2-.7 1.7-1 3.5-1 5.4-.1 1.8.1 3.7.9 5.3 1.4 2.8 4.6 4.3 7.7 4.6.6-6 4-11.3 7.5-16.1 3.6-4.8 7.5-9.5 9.6-15.1.7-1.7-1.2-2.8-.9-4.2z" clip-path="url(#z)"/>
    <path fill="#FFF2E6" d="M1603.3-18.8c.1-4.6 3.8-8.3 7.6-10.8 4.8-3.2 10.3-5.4 16-5.4 5.7.1 11.6 2.8 14.5 7.7 1.2 2.1 1.9 4.4 2.4 6.8.7 3.8 1 7.8-.3 11.5-1.5 4.3-4.8 7.8-8.8 10.1s-8.5 3.5-13 4.2c-4.8.8-9.8 1.2-14.7 1.1-1.6 0-3.2-.1-4.6-.8-4-1.9-4.8-7.2-4.3-11.6.7-5.5 2.7-10.9 5.8-15.5" clip-path="url(#z)"/>
    <path fill="#FFE5CF" d="M1461-44.2c1.9-9.7-2.1-20.4-10-26.4-2.1-1.6-4.5-2.9-7.1-2.8-4.9.2-8.2 5.5-8.8 10.4-.7 5.5.8 11.1 3.4 15.9 2.7 4.8 6.4 9 10.5 12.7 1.3 1.2 2.7 2.4 4.3 3 1.7.6 3.7.5 5-.6.9-.8 1.4-2 1.8-3.1 1-3.2 1.5-6.6 1.4-9.9" clip-path="url(#z)"/>
    <path fill="#323441" d="M1598.6-77.7c-1.1 8 2.2 19.3 3.2 24.8 1 5.4-1.9 10.9-1.8 16.4 0 2.3.7 5 2.9 5.7-.7-2.7 0-5.8 1.8-8-.7 4.5-1.2 9.8 1.9 13.1-.1-2.1 0-4.2.1-6.3.7 4.3 2.2 8.5 4.6 12.1-.5-3.8 1.6-7.4 3-10.9 4.5-11.3 2.4-24.1-.8-35.8-.7-2.4-1.4-4.8-2.7-6.9-1.4-2.1-3.5-3.8-5.9-4.2-1.6-.2-3.3.2-4.3 1.5-1 1.4-.1-1.7 0 0m-126.6-18c-5.5 6.5-6.1 15.6-8.4 23.7-1.6 5.7-4.2 11.2-7.5 16.1.9-3 1.9-5.9 2.8-8.9-1.3 2.8-2.8 5.5-4.5 8.2 1.2-3.6 1.8-7.5 1.9-11.3 0-3.1-.3-6.2-.1-9.3.7-9.3 6.7-18 15.2-21.9.6-.3 1.3-.5 1.7 0 .2.2.2.5.3.8.1 1.6-.4 3.6-2 3.7" clip-path="url(#z)"/>
    <path fill="#FBC08E" d="M1652.4-80.8c-.7-1.5-2.8-1.7-4.5-1.5-3 .3-5.9 1.1-8.6 2.3 3.5-1.9 6.9-4.3 9.9-6.9 1.3-1.1 2.6-2.4 3.1-4.1.4-1.2.2-2.5 0-3.8-.1-.8-.3-1.7-.8-2.3-.7-.8-1.8-1.1-2.9-1.2-6-.6-11.5 2.7-16.7 5.8-5.1 3.1-10.9 6.2-16.8 5.3-2.9-.5-5.6-1.9-7.5-4.1-2.8-3.1-4-7.2-6.1-10.7-1.1-1.8-2.8-3.6-4.6-4.6.3-.5.7-.9 1-1.4 1.2-2 2.2-4.1 2.5-6.4.1-.4.1-1.5-.3-1.8-1-.6-2.5.6-2.8.7-1.5.8-2.6 1.7-3.8 2.6 2-7.2.6-15.3-3.9-21.3-.9-1.3-2.8-2.5-3.9-1.4-.5.5-.6 1.2-.6 1.8-.5 5.3-.2 10.6.8 15.8-1.8-7.7-9.1-20.2-13-19.4-3.8 2.8-.4 13.3 2.2 19.3-6.5-6.1-15-10-23.8-11-14.6-1.7-30.2 4.3-43.6-1.5-8.6-3.8-14.7-11.8-18.6-20.4-2.3-5.1-4.1-10.5-7.4-15-3.3-4.5-8.5-8.2-14-7.7-4.4 9.4.3 20 5.9 29.1-4-6.1-7.9-12.2-11.9-18.3-.9-1.3-1.9-2.8-3.5-3.2-2-.5-4 1.2-4.6 3.2-.6 2-.1 4.1.5 6.1 2.8 9.3 9.6 14.8 15 24.4-4.9-5.8-13.7-20.5-16.2-16.1-1.1 6.4 2.5 12.7 6.7 17.8 6.3 7.7 14.2 14.1 23.1 18.7-7.7-1.5-20.4-12.8-21.7-8.5-2.1 3.9 1.6 8.3 5.1 11 5.5 4.1 11.3 7.8 17.3 11-5.8-3.3-12.4-5.4-19-6.1-2-.2-4.3-.2-5.7 1.2-1.8 1.7-1.4 4.9.2 6.8 1.6 1.9 4.1 2.9 6.4 3.8 9.6 3.7 19.2 7.3 29.2 9.5 14.3 3.2 28.4 3.6 42 1.4-.9.5-1.7.9-2.6 1.4-1.7 1.1-3.6 2.3-4.1 4.3-.1.4-.1.9.1 1.2.4.8 1.5.8 2.4.7 18.6-2 36.5-9.1 51.5-20.1 1.3 1.5 3 2.8 4.4 4.1 2.1 2 3.6 4.6 5.1 7.1 2.3 3.8 4.6 7.6 6.6 11.5 2.1 4.1 3.8 8.3 6.2 12.2 2.4 3.9 5.5 7.5 9.5 9.6 1.7.9 3.7 1.4 5.4.6 1.6-.8 2.3-2.8 2.2-4.5-.1-1.8-1-3.4-2-4.9-2.3-3.5-5.1-6.7-8.4-9.3 4 2.2 8 4.4 12.4 5.6 4.4 1.2 9.2 1.2 13.3-.9 1.1-.6 2.3-1.8 1.7-2.9-.3-.5-.9-.8-1.4-1-5.2-2.2-10.9-3.4-16.5-3.5 9.2.9 18.7-.9 27-5.1 1.8-1.1 4-3.1 3.1-5z" clip-path="url(#z)"/>
    <g clip-path="url(#z)">
      <defs>
        <path id="G" d="M1652.4-80.8c-.7-1.5-2.8-1.7-4.5-1.5-3 .3-5.9 1.1-8.6 2.3 3.5-1.9 6.9-4.3 9.9-6.9 1.3-1.1 2.6-2.4 3.1-4.1.4-1.2.2-2.5 0-3.8-.1-.8-.3-1.7-.8-2.3-.7-.8-1.8-1.1-2.9-1.2-6-.6-11.5 2.7-16.7 5.8-5.1 3.1-10.9 6.2-16.8 5.3-2.9-.5-5.6-1.9-7.5-4.1-2.8-3.1-4-7.2-6.1-10.7-1.1-1.8-2.8-3.6-4.6-4.6.3-.5.7-.9 1-1.4 1.2-2 2.2-4.1 2.5-6.4.1-.4.1-1.5-.3-1.8-1-.6-2.5.6-2.8.7-1.5.8-2.6 1.7-3.8 2.6 2-7.2.6-15.3-3.9-21.3-.9-1.3-2.8-2.5-3.9-1.4-.5.5-.6 1.2-.6 1.8-.5 5.3-.2 10.6.8 15.8-1.8-7.7-9.1-20.2-13-19.4-3.8 2.8-.4 13.3 2.2 19.3-6.5-6.1-15-10-23.8-11-14.6-1.7-30.2 4.3-43.6-1.5-8.6-3.8-14.7-11.8-18.6-20.4-2.3-5.1-4.1-10.5-7.4-15-3.3-4.5-8.5-8.2-14-7.7-4.4 9.4.3 20 5.9 29.1-4-6.1-7.9-12.2-11.9-18.3-.9-1.3-1.9-2.8-3.5-3.2-2-.5-4 1.2-4.6 3.2-.6 2-.1 4.1.5 6.1 2.8 9.3 9.6 14.8 15 24.4-4.9-5.8-13.7-20.5-16.2-16.1-1.1 6.4 2.5 12.7 6.7 17.8 6.3 7.7 14.2 14.1 23.1 18.7-7.7-1.5-20.4-12.8-21.7-8.5-2.1 3.9 1.6 8.3 5.1 11 5.5 4.1 11.3 7.8 17.3 11-5.8-3.3-12.4-5.4-19-6.1-2-.2-4.3-.2-5.7 1.2-1.8 1.7-1.4 4.9.2 6.8 1.6 1.9 4.1 2.9 6.4 3.8 9.6 3.7 19.2 7.3 29.2 9.5 14.3 3.2 28.4 3.6 42 1.4-.9.5-1.7.9-2.6 1.4-1.7 1.1-3.6 2.3-4.1 4.3-.1.4-.1.9.1 1.2.4.8 1.5.8 2.4.7 18.6-2 36.5-9.1 51.5-20.1 1.3 1.5 3 2.8 4.4 4.1 2.1 2 3.6 4.6 5.1 7.1 2.3 3.8 4.6 7.6 6.6 11.5 2.1 4.1 3.8 8.3 6.2 12.2 2.4 3.9 5.5 7.5 9.5 9.6 1.7.9 3.7 1.4 5.4.6 1.6-.8 2.3-2.8 2.2-4.5-.1-1.8-1-3.4-2-4.9-2.3-3.5-5.1-6.7-8.4-9.3 4 2.2 8 4.4 12.4 5.6 4.4 1.2 9.2 1.2 13.3-.9 1.1-.6 2.3-1.8 1.7-2.9-.3-.5-.9-.8-1.4-1-5.2-2.2-10.9-3.4-16.5-3.5 9.2.9 18.7-.9 27-5.1 1.8-1.1 4-3.1 3.1-5z"/>
      </defs>
      <clipPath id="H">
        <use xlink:href="#G" overflow="visible"/>
      </clipPath>
      <path fill="#F7AB72" d="M1583.7-93.4c-2.4 1.8-1.6 1.7-4.6 2.4-1.9.4-6.3 0-8.1-.8-1.8-.7-3.2-2.5-3.1-4.4.1-1.2.7-2.4 1.4-3.4 2-3 4.2-6 6.5-8.7-5.7 6.4-15.3 7.6-23.7 6.3-8.4-1.4-16.4-4.9-24.7-6.6-1.5-.3-3.2-.6-4.6 0-1.5.5-2.8 2-2.5 3.5.3 1.8 2.3 2.7 4 3.2 2.7.8 5.4 1.4 8.2 1.7-5.6 1.1-11.2-1.2-16.3-3.7-10-4.9-18.1-10.8-27.1-17.4-2.1-1.5-6.8-6.1-8.1-3.9-.8 3.4.6 7 3 9.5 2.3 2.6 5.4 4.3 8.4 6-14-8.5-29.1-17.3-45.4-16.7-1.7.1-3.4.2-4.9.9-1.6.7-2.9 2-4.1 3.4-4.7 5.6-7.1 13-6.7 20.3.4 7.3 3.6 14.4 8.9 19.5 4.6 4.5 10.6 7.4 16.6 9.8 21.8 8.9 45.3 13.5 68.8 13.5 8.1 0 16.3-.6 24-3.1 7.8-2.6 14.8-7.1 21.3-12 6.4-4.9 13.1-11.3 12.8-19.3" clip-path="url(#H)"/>
    </g>
    <g clip-path="url(#z)">
      <defs>
        <path id="I" d="M1652.4-80.8c-.7-1.5-2.8-1.7-4.5-1.5-3 .3-5.9 1.1-8.6 2.3 3.5-1.9 6.9-4.3 9.9-6.9 1.3-1.1 2.6-2.4 3.1-4.1.4-1.2.2-2.5 0-3.8-.1-.8-.3-1.7-.8-2.3-.7-.8-1.8-1.1-2.9-1.2-6-.6-11.5 2.7-16.7 5.8-5.1 3.1-10.9 6.2-16.8 5.3-2.9-.5-5.6-1.9-7.5-4.1-2.8-3.1-4-7.2-6.1-10.7-1.1-1.8-2.8-3.6-4.6-4.6.3-.5.7-.9 1-1.4 1.2-2 2.2-4.1 2.5-6.4.1-.4.1-1.5-.3-1.8-1-.6-2.5.6-2.8.7-1.5.8-2.6 1.7-3.8 2.6 2-7.2.6-15.3-3.9-21.3-.9-1.3-2.8-2.5-3.9-1.4-.5.5-.6 1.2-.6 1.8-.5 5.3-.2 10.6.8 15.8-1.8-7.7-9.1-20.2-13-19.4-3.8 2.8-.4 13.3 2.2 19.3-6.5-6.1-15-10-23.8-11-14.6-1.7-30.2 4.3-43.6-1.5-8.6-3.8-14.7-11.8-18.6-20.4-2.3-5.1-4.1-10.5-7.4-15-3.3-4.5-8.5-8.2-14-7.7-4.4 9.4.3 20 5.9 29.1-4-6.1-7.9-12.2-11.9-18.3-.9-1.3-1.9-2.8-3.5-3.2-2-.5-4 1.2-4.6 3.2-.6 2-.1 4.1.5 6.1 2.8 9.3 9.6 14.8 15 24.4-4.9-5.8-13.7-20.5-16.2-16.1-1.1 6.4 2.5 12.7 6.7 17.8 6.3 7.7 14.2 14.1 23.1 18.7-7.7-1.5-20.4-12.8-21.7-8.5-2.1 3.9 1.6 8.3 5.1 11 5.5 4.1 11.3 7.8 17.3 11-5.8-3.3-12.4-5.4-19-6.1-2-.2-4.3-.2-5.7 1.2-1.8 1.7-1.4 4.9.2 6.8 1.6 1.9 4.1 2.9 6.4 3.8 9.6 3.7 19.2 7.3 29.2 9.5 14.3 3.2 28.4 3.6 42 1.4-.9.5-1.7.9-2.6 1.4-1.7 1.1-3.6 2.3-4.1 4.3-.1.4-.1.9.1 1.2.4.8 1.5.8 2.4.7 18.6-2 36.5-9.1 51.5-20.1 1.3 1.5 3 2.8 4.4 4.1 2.1 2 3.6 4.6 5.1 7.1 2.3 3.8 4.6 7.6 6.6 11.5 2.1 4.1 3.8 8.3 6.2 12.2 2.4 3.9 5.5 7.5 9.5 9.6 1.7.9 3.7 1.4 5.4.6 1.6-.8 2.3-2.8 2.2-4.5-.1-1.8-1-3.4-2-4.9-2.3-3.5-5.1-6.7-8.4-9.3 4 2.2 8 4.4 12.4 5.6 4.4 1.2 9.2 1.2 13.3-.9 1.1-.6 2.3-1.8 1.7-2.9-.3-.5-.9-.8-1.4-1-5.2-2.2-10.9-3.4-16.5-3.5 9.2.9 18.7-.9 27-5.1 1.8-1.1 4-3.1 3.1-5z"/>
      </defs>
      <clipPath id="J">
        <use xlink:href="#I" overflow="visible"/>
      </clipPath>
      <path fill="#F7AB72" d="M1583.3-93.5c3.8 4.5 8.4 8.4 13.8 10.6s11.7 2.8 17.1.7c2.8-1.1 5.4-2.8 8.4-2.8 1.1 0 2.5.7 2.3 1.8-.1.4-.4.8-.7 1.1-1.8 1.8-3.8 3.2-6.1 4.3 5.6-2.1 11.3-4.1 17-6 3.5-1.1 7-2.2 10.5-2.8 1.9-.3 4-.5 5.7.3 2.9 1.3 4.3 4.8 4 7.9-.3 3.1-2 5.9-3.8 8.5-4.3 5.8-9.6 10.8-15.4 15.1-4.9 3.7-10.4 7-16.6 7.9-6 .8-12.2-.8-17.2-4.1s-8.8-8.4-11.1-14c-3.1-7.9-3.1-16.7-5.6-24.9-.4-1.3-1.4-2.9-2.7-2.5" clip-path="url(#J)"/>
    </g>
    <path fill="none" stroke="#323441" stroke-width="0.5" stroke-miterlimit="10" d="M1478.4-59.2c-1 2-1.2 4.3-1.3 6.5-.2 2.7-.4 5.5.7 8 2 4.6 8 6.5 12.7 5 4.7-1.6 8.2-5.9 9.9-10.6m46.9 9.3c-1 2-1.2 4.3-1.3 6.5-.2 2.7-.4 5.5.7 8 2 4.6 8 6.5 12.7 5 4.7-1.6 8.2-5.9 9.9-10.6m-22.3 7c-1.2 1.1-2.5 2.1-3.7 3.2m9.5.6c-.6 1.4-1 2.9-1.3 4.4m7.9-4.6c.1 1.8.3 3.5.4 5.3m-82.4-28.4c-1.4.9-2.7 1.8-4.1 2.7m9.9 2.5c-.6 1.3-1.1 2.7-1.5 4.1m7.4-3.3c.2 1.7.5 3.4.7 5" clip-path="url(#z)"/>
    <path fill="#323441" d="M1584.7-57.7c-.1-2.4-1.1-5.5-3-7.1-1.8-1.6-4.1-2.6-6.4-3.4-5-1.6-10.3-2.3-15.6-1.8 3.2.2 6.3 1.3 8.9 3-4.1-1.9-9-2.1-13.3-.6 2.8-.3 5.6.3 8 1.6-3.9-.5-8.1-.2-11.6 1.6s-6.3 5.4-6.5 9.3c3.7-3.9 9.6-5 15-5.1 5.6-.1 12.1 1 15 5.9-1-.9-2.3-1.6-3.7-1.7 3.9 3.5 8.1 7.4 8.8 12.6 3.2-4.9 6.3-11 4.9-16.8m-82.7-22.3c-8.6-4-17.8-2.3-26.4 1.6 4.2-.7 5.5-1.1 9-.1-6.2-1.3-12.9 3.3-14 9.5 1.3-1.2 2.7-2.2 4.3-2.9-2.1 1.3-3.8 3.3-4.6 5.7 9.6-7.7 23.4-9.7 34.8-5-2.2-.7-4.5-1.1-6.8-1.2 3.9 1.3 7.4 3.9 10 7.2.6-5.7-1.8-11.5-6.3-14.8" clip-path="url(#z)"/>
    <path fill="#FBC08E" d="M1504.7-11.9c-10.7 1.1-21.2 3.9-31 8.3-1.1.5-2.3 1.1-3 2.1s-.8 2.6.1 3.4c.6.5 1.3.6 2 .7 6.9.7 14-.2 20.5-2.8-5.3 1.3-10.1 4.7-13 9.4-.6.9-1 2.3-.2 3 .5.4 1.2.3 1.8.3 5.5-.7 10.6-3.5 14.2-7.7-1.4 1.5-2.4 3.5-2.7 5.6-.1.8-.1 1.7.5 2.3.7.6 1.7.4 2.6 0 3.3-1.4 5.9-4.2 7-7.5.4 1.6-.2 3.3-.2 4.9s1 3.6 2.7 3.5c.7 0 1.3-.4 1.8-.9 2.4-2 3.5-5.3 3-8.4-1 3.8 2.3 9.6 5.4 9.3 2.1-.8.7-6.6-.6-9.6-.6 4.5 5.3 9.6 8.5 8 1.4-1.3-1.2-5.7-3.5-7.4.8 2.9 3.3 5.3 6.2 5.9.8.2 1.8.1 2.1-.6.2-.5-.1-1.1-.4-1.6-1.2-2-2.7-3.8-4.4-5.3 2.1 1.8 3.9 4.1 6.4 5.3s6.3.4 6.8-2.4c.3-1.6-.6-3.3-1.6-4.6-7.5-10.1-18.7-13.8-31-13.2" clip-path="url(#z)"/>
    <path fill="#F7AB72" d="M1507.7-11.7c-8.5-.7-17.2.4-25.3 3-.8.2-1.6.6-1.9 1.4-.3.8.2 1.6.9 2 .7.4 1.5.5 2.3.5 4.8.2 9.7-.1 14.4-1-2 1.6-3.2 4.2-3.1 6.7 0 .5.1 1 .4 1.3.6.7 1.7.4 2.5 0 2.9-1.4 5.3-3.8 6.7-6.8-1.3 1.9-1.9 4.2-1.9 6.4 0 .4.1.9.4 1.2.3.3.7.3 1.1.3 3.2-.2 5-3.9 4.8-7 .3 1 .2 2.1.5 3.1s1.1 2 2.1 1.9c1.1-.1 1.8-1.4 1.9-2.5.3-1.9 0-3.9-.9-5.6 1.2 1.1 2.5 1.9 4 2.5.7.3 1.5.5 2.2.3.7-.2 1.4-.9 1.3-1.6-.1-.6-.5-1-1-1.4-5.3-4.5-13-5.9-19.6-3.6" clip-path="url(#z)"/>
    <path fill="none" stroke="#323441" stroke-width="0.5" stroke-miterlimit="10" d="M1484 18.5c1.5 3.7 4.8 6.6 8.4 8.4 3.6 1.8 7.7 2.5 11.7 2.8 9.4.7 19.8-1.1 25.9-8.3" clip-path="url(#z)"/>
    <path fill="#FFE5CF" d="M1483.2 49c1.4 2.1 1.9 4.3 3.3 6.4 1.3 2.1 3.7 4.2 7.5 5.2 3 .8 6.5.8 9.7.6 3.2-.2 6.4-.6 9.7-.5 2.3.1 4.7.4 7 .4 3-.1 5.7-.9 7.6-2.1s3.2-2.6 4.1-4.1c1.2-2 1.9-4 2.6-6.1-2.3 1.3-4.5 2.7-7.3 3.7-2.7 1-6 1.8-9.5 1.8-3.1 0-6.2-.5-9.3-.6-3.7-.1-7.3.4-11 .4-1.3 0-2.7 0-4-.2-1.2-.2-2.2-.6-3.2-1-2.8-1.2-5.3-2.5-7.5-4" clip-path="url(#z)"/>
    <path fill="#FFF2E6" d="M1511.1-45.5c-1.4 6-3.8 10.3-7.4 14.9s-7.7 8.8-11 13.8c-.6.8-1.1 1.7-1.3 2.7-.3 1.1-.2 2.2 0 3.3.2 1.4.5 2.8 1.1 4.1 1.2 2.5 1.2 8 3.7 8.8 2.4.8 11.6-2.4 14.2-2.7.6-.1 2.3-4 2.7-4.6 2.2-3.8 2.7-12 .5-9.9-5.3 5 .2-2.3 1.8-9.4.4-1.9.8-3.8 1-5.7.2-4.6-1.6-11.7-5.3-15.3" clip-path="url(#z)"/>
    <path fill="#FFE5CF" d="M1628.5-15.5c-4.2-.4-8.4.5-12.6 1.4-2.1.4-4.3 1-5.6 2.6.7.5 1.6.6 2.4.6 5.5.1 11.1-.7 16.3-2.4.5-.2 1-.3 1.3-.7.3-.4.4-1 0-1.3-.2-.1-.4-.2-.7-.2-.9-.1-1.9-.1-2.9 0" clip-path="url(#z)"/>
    <path fill="#FFF2E6" d="M1553.6 267.1c.8-18.4-1.8-37-7.6-54.4-1.4-4.2-4-9.1-8.5-9.1-2.7 12 7.5 24.7 2.9 36.1-2.6-1.1-3.9-4-5.1-6.6-8.1-18.9-19.4-36.5-33.1-51.9-2-2.2-4.9-4.6-7.6-3.4.2 8.8 5.5 16.6 10.2 24.1 7 11.1 13.2 22.8 18.6 34.8-9-13.9-18.6-27.3-28.8-40.3-3.3-4.2-7.9-8.7-13-7.2 1.1 6.5 4.2 12.5 7.4 18.3 6.9 12.7 14.2 25.2 21.8 37.4l-25.5-35.7c-4.1-5.7-9.1-12-16.2-12.5.2 4.9 3.1 9.3 5.8 13.4 8.9 13.4 17.8 26.8 26.8 40.1-10.2-11.3-20.5-22.7-30.7-34-2-2.2-4.4-4.5-7.3-4.4-.9 5.8 2.3 11.5 5.5 16.4 11 17 24.2 32.6 37.9 47.5 5.8 6.3 12 12.7 19.9 16.1 3.5 1.5 7.3 2.4 11.1 1.7 5.9-1.1 10.5-6.1 12.8-11.7s2.7-11.7 3-17.8" clip-path="url(#z)"/>
  </g>
</svg>
