<?xml version="1.0" encoding="utf-8"?>
<!-- Generator: Adobe Illustrator 19.0.1, SVG Export Plug-In . SVG Version: 6.00 Build 0)  -->
<svg version="1.1" id="Calque_1" xmlns="http://www.w3.org/2000/svg" xmlns:xlink="http://www.w3.org/1999/xlink" x="0px" y="0px"
	 viewBox="0 0 1920 1080" style="enable-background:new 0 0 1920 1080;" xml:space="preserve">
<style type="text/css">
	.st0{clip-path:url(#SVGID_2_);fill:#C63647;}
	.st1{clip-path:url(#SVGID_2_);fill:#EB4E54;}
	.st2{clip-path:url(#SVGID_2_);fill:#AA263C;}
	.st3{clip-path:url(#SVGID_2_);fill:#FBC08E;}
	.st4{clip-path:url(#SVGID_2_);fill:#F7AB72;}
	.st5{clip-path:url(#SVGID_2_);fill:#EA9357;}
	.st6{clip-path:url(#SVGID_2_);fill:#FFFFFF;}
	.st7{clip-path:url(#SVGID_2_);}
	.st8{clip-path:url(#SVGID_4_);fill:#21232D;}
	.st9{clip-path:url(#SVGID_4_);}
	.st10{clip-path:url(#SVGID_6_);fill:#16181E;}
	.st11{clip-path:url(#SVGID_4_);fill:#16181E;}
	.st12{clip-path:url(#SVGID_4_);fill:#FBC08E;}
	.st13{clip-path:url(#SVGID_4_);fill:#F7AB72;}
	.st14{clip-path:url(#SVGID_8_);fill:#F7AB72;}
	.st15{clip-path:url(#SVGID_4_);fill:#E28B50;}
	.st16{clip-path:url(#SVGID_4_);fill:#C63647;}
	.st17{clip-path:url(#SVGID_4_);fill:#EB4E54;}
	.st18{clip-path:url(#SVGID_4_);fill:none;stroke:#323441;stroke-width:1.5;stroke-miterlimit:10;}
	.st19{clip-path:url(#SVGID_10_);fill:none;stroke:#323441;stroke-width:1.5;stroke-miterlimit:10;}
	.st20{clip-path:url(#SVGID_4_);fill:#FFC197;}
	.st21{clip-path:url(#SVGID_4_);fill:#FFEAD9;}
	.st22{clip-path:url(#SVGID_12_);fill:#FFD5B8;}
	.st23{clip-path:url(#SVGID_4_);fill:#FFF2E6;}
	.st24{clip-path:url(#SVGID_4_);fill:none;}
	.st25{clip-path:url(#SVGID_4_);fill:#FFE5CF;}
	.st26{clip-path:url(#SVGID_4_);fill:#FFD5B8;}
	.st27{clip-path:url(#SVGID_4_);fill:#FFE1CA;}
	.st28{clip-path:url(#SVGID_4_);fill:#323441;}
	.st29{clip-path:url(#SVGID_20_);fill:#F7AB72;}
	.st30{clip-path:url(#SVGID_22_);fill:#F7AB72;}
	.st31{opacity:0.49;clip-path:url(#SVGID_4_);fill:none;stroke:#FFDEC5;stroke-width:3.1941;stroke-miterlimit:10;}
	.st32{clip-path:url(#SVGID_4_);fill:#FFFFFF;}
	.st33{clip-path:url(#SVGID_4_);fill:#21232B;}
	.st34{clip-path:url(#SVGID_26_);fill:#F7AB72;}
	.st35{clip-path:url(#SVGID_28_);fill:#FFFFFF;}
	.st36{clip-path:url(#SVGID_4_);fill:#EFF0F4;}
	.st37{clip-path:url(#SVGID_4_);fill:#82D5E8;}
	.st38{clip-path:url(#SVGID_30_);fill:#FFEBD3;}
	.st39{clip-path:url(#SVGID_30_);fill:#F6995E;}
	.st40{clip-path:url(#SVGID_4_);fill:#3D55AB;}
	.st41{clip-path:url(#SVGID_4_);fill:#EE7D72;}
	.st42{clip-path:url(#SVGID_4_);fill:#F0E9DD;}
	.st43{fill:#F7AB72;}
	.st44{fill:#FBC08E;}
	.st45{fill:#EA9357;}
	.st46{fill:#2C8591;}
	.st47{clip-path:url(#SVGID_32_);fill:#323441;}
	.st48{clip-path:url(#SVGID_32_);fill:#FFFFFF;}
	.st49{clip-path:url(#SVGID_32_);fill:#EB4E54;}
	.st50{clip-path:url(#SVGID_32_);}
	.st51{clip-path:url(#SVGID_34_);fill:#C63647;}
	.st52{clip-path:url(#SVGID_32_);fill:#272933;}
	.st53{clip-path:url(#SVGID_32_);fill:#EFEFEF;}
	.st54{clip-path:url(#SVGID_32_);fill:#E8C0A6;}
	.st55{clip-path:url(#SVGID_36_);fill:#EFEFEF;}
	.st56{clip-path:url(#SVGID_32_);fill:#FFF2E6;}
	.st57{clip-path:url(#SVGID_32_);fill:#FFE5CF;}
	.st58{clip-path:url(#SVGID_38_);fill:#FFE5CF;}
	.st59{clip-path:url(#SVGID_32_);fill:#F9D1B4;}
	.st60{clip-path:url(#SVGID_32_);fill:#FBC08E;}
	.st61{clip-path:url(#SVGID_40_);fill:#F7AB72;}
	.st62{clip-path:url(#SVGID_42_);fill:#F7AB72;}
	.st63{clip-path:url(#SVGID_32_);fill:none;stroke:#323441;stroke-width:0.5;stroke-miterlimit:10;}
	.st64{clip-path:url(#SVGID_32_);fill:#F7AB72;}
	.st65{fill:#F9F9E8;}
	.st66{fill:none;stroke:#EFD0A8;stroke-width:2;stroke-miterlimit:10;}
	.st67{fill:#EFD0A8;}
	.st68{fill:none;stroke:#F9F9E8;stroke-width:0.5;stroke-miterlimit:10;}
	.st69{fill:none;stroke:#EFD0A8;stroke-width:0.5;stroke-miterlimit:10;}
</style>
<g>
	<defs>
		<rect id="SVGID_1_" width="1920" height="1080"/>
	</defs>
	<clipPath id="SVGID_2_">
		<use xlink:href="#SVGID_1_"  style="overflow:visible;"/>
	</clipPath>
	<rect x="-10" y="-2.3" class="st0" width="1959.6" height="1088.7"/>
	<polygon class="st1" points="1606.7,-2 -10,624.6 -10,1086 1318.2,1086 1949,277.8 1949,-2 	"/>
	<rect x="979" y="152.3" class="st2" width="650.3" height="802.8"/>
	<rect x="1722.6" y="-375.7" class="st2" width="650.3" height="794.8"/>
	<rect x="1756.7" y="522.6" class="st2" width="650.3" height="794.8"/>
	<rect x="1006.7" y="134" class="st3" width="649" height="787.2"/>
	<polygon class="st4" points="1006.7,134 1046.8,183.2 1046.8,871 1006.7,921.1 	"/>
	<path class="st4" d="M1029.3,161.9c0.4,0.4,609.3,0,609.3,0v731h-609.3V161.9z"/>
	<polygon class="st5" points="1029.3,161.9 1046.8,183.2 1046.8,871 1029.3,892.8 	"/>
	<polygon class="st5" points="1638.6,161.9 1620.1,183.2 1620.1,871 1638.6,892.8 	"/>
	<polygon class="st4" points="1638.6,161.9 1655.8,134 1655.8,921.1 1638.6,892.8 	"/>
	<rect x="1046.8" y="183.2" class="st6" width="573.3" height="687.8"/>
	<g class="st7">
		<defs>
			<rect id="SVGID_3_" x="1046.8" y="183.2" width="573.3" height="687.8"/>
		</defs>
		<clipPath id="SVGID_4_">
			<use xlink:href="#SVGID_3_"  style="overflow:visible;"/>
		</clipPath>
		<path class="st8" d="M1374.7,501c11.7,32.9,13.2,68.3,17.8,102.9c17.4,130.6-119.3,202.6,56.1,330.1c111.8-3.1,296-4,405.3-28
			c-17.7-39-31-49.8-53.1-86.4c-34.5-57.2-61-118.8-93.7-177.1c-32.6-58.3-72.6-114.2-127.4-152.4c-23.1-16.1-49.3-29-77.4-30.8
			c-23.2-1.5-46.2,4.6-68.2,11.8c-22.3,7.3-45,16.2-61.7,32.7"/>
		<g class="st9">
			<defs>
				<path id="SVGID_5_" d="M1374.7,501c11.7,32.9,13.2,68.3,17.8,102.9c17.4,130.6-119.3,202.6,56.1,330.1c111.8-3.1,296-4,405.3-28
					c-17.7-39-31-49.8-53.1-86.4c-34.5-57.2-61-118.8-93.7-177.1c-32.6-58.3-72.6-114.2-127.4-152.4c-23.1-16.1-49.3-29-77.4-30.8
					c-23.2-1.5-46.2,4.6-68.2,11.8c-22.3,7.3-45,16.2-61.7,32.7"/>
			</defs>
			<clipPath id="SVGID_6_">
				<use xlink:href="#SVGID_5_"  style="overflow:visible;"/>
			</clipPath>
			<path class="st10" d="M1358.8,654.2c32.3,8.8,66.6,7.5,99.4,0.8c32.8-6.7,64.2-18.6,95.3-30.9c30.4-12.1,62.3-25.9,81.1-52.6
				c-5.4,48.6-27.6,94.2-56.5,133.7c-19.2,26.3-41.8,50.5-68.9,68.6s-59,29.8-91.6,29.8c-12.7,0-25.7-1.8-37-7.6
				c-25.1-12.9-36.9-42.6-39.4-70.6c-2.4-26.8,3.3-56.8,24.5-73.4"/>
		</g>
		<path class="st8" d="M1481.3,450.2c25.4-12.4,56.4-17.2,85.7-13.2c10.4,1.4,20.8,4,29.6,8.7c9.8,5.2,17.4,12.8,24.3,20.4
			c6.3,6.9,12.3,14.1,17,21.7c20.4,33,16,73.4-2.6,107c-4.8,8.7-10.6,17.1-18.3,24.3c-19.6,17.9-91.1,43.2-120.6,41.5
			c-12.8-0.7,14.6-20.5,3.6-25.8c-10.9-5.2-19.7-13-25.1-22.2c-4.7-8.1-6.7-17-8.5-25.9c-3.1-15.5-5.6-31.1-7.6-46.7
			c-3.8-30-5-61.7,12.1-88.5c2.8-4.4,7.4-9.2,13.6-8.9"/>
		<path class="st11" d="M1364.7,496.3c-7,13.4-9.8,29-7.8,44c0.8,5.8,2.5,11.8,6.9,15.6c3.4,2.9,7.9,4,12.3,4.8
			c33.1,6.3,67.5,1.1,99.7-9c13.1-4.1,26.3-9.2,36.6-18.3c18.4-16.3,24.4-43.4,20.4-67.7c-1.4-8.8-4.3-17.8-10.6-24
			c-11.8-11.5-31-9.6-46.5-4.2c-16.3,5.7-31.6,14.5-44.7,25.7c-11.7,10-22.4,22.3-37.2,26.5c-10.3,2.9-22.7,2-30,9.7"/>
		<path class="st8" d="M1245.8,541.5c7.5,5.5,16.8,8,25.9,10.1c46,10.8,93.4,15.4,140.7,13.8c1.1,0,2.4-0.1,3.2-0.9
			c0.9-0.9,0.8-2.4,0.7-3.7c-2-19.2-4.9-38.4-8.6-57.4c-0.6-3.2-1.4-6.5-3.6-8.8c-2-2.2-5-3.1-7.8-4c-18.4-5.6-37.1-9.9-56.1-12.8
			c-9.9-1.5-21.2-2.3-28.7,4.3c-3.1,2.8-5.2,6.5-7.2,10.1c-3.3,6.1-6.7,12.2-10,18.3c-2.5,4.7-5.2,9.4-9.2,12.9
			c-12,10.2-32.6,6.1-42.7,18.2"/>
		<path class="st12" d="M1126.7,391.4c0,0,16.2,220.8,141.9,200c52.1-9.9,0,0,0,0s123.9-13.8,51.7-236.9L1126.7,391.4z"/>
		<path class="st13" d="M1137.6,441.2c-10.9-10.9-27.1-20.5-42.4-18.3c-9.2,1.3-17.5,7.3-22.1,15.4c-4.6,8.1-5.3,18.1-2.5,27
			c3.9,12,13.7,21,23.4,29.2c6.2,5.2,12.6,10.4,19.5,14.6c8.2,5,17.1,8.6,25.5,13.2c8.3,4.5,16.4,6.9,23.6,13
			c0.9,0.8,1.8,4.3,1.9,5.5c0.1,1.1-2,4.9-4.2,6.2c-4.3,2.6-9.1,8-5.9,11.9c1.9,2.3,5.6,2.1,8.4,1c10.8-4,16.3-18.2,11.1-28.4
			c-3.9-7.7-12.1-12.2-19.9-15.9c-13-6.3-26.4-12.2-38.1-20.6c-11.7-8.5-21.9-19.9-25.8-33.9c-1.7-6.1-1.9-13.3,2.5-17.8
			c5.8-6,16-3.7,23.4,0.2c7.4,3.9,15.2,9.1,23.4,7.6C1141.2,445.8,1141,444.8,1137.6,441.2"/>
		<path class="st12" d="M1327.3,407.8c6.1-14.1,17.7-29.1,32.6-32.6c9-2.1,19,0.3,26.2,6.2c7.2,5.9,11.7,14.9,12.2,24.2
			c0.8,12.6-5,24.6-11,35.7c-3.9,7.2-7.9,14.3-12.8,20.7c-5.8,7.6-12.7,14.3-18.9,21.6c-6,7.2-12.7,12.4-17.1,20.8
			c-0.6,1.1-0.1,4.7,0.3,5.8c0.4,1.1,3.7,3.8,6.2,4.2c5,0.8,11.4,4.1,9.9,8.9c-0.9,2.9-4.4,4-7.4,4.1c-11.5,0.2-21.9-10.9-20.8-22.3
			c0.8-8.6,6.8-15.8,12.6-22.1c9.8-10.6,20.1-21,27.9-33.2c7.8-12.2,13-26.6,11.6-41c-0.6-6.3-3.1-13.1-8.9-15.6
			c-7.6-3.4-16.2,2.5-21.7,8.8c-5.5,6.4-10.7,14.1-19,15.7C1325.6,413.5,1325.4,412.5,1327.3,407.8"/>
		<g class="st9">
			<defs>
				<path id="SVGID_7_" d="M1126.7,391.4c0,0,16.2,220.8,141.9,200c52.1-9.9,0,0,0,0s123.9-13.8,51.7-236.9L1126.7,391.4z"/>
			</defs>
			<clipPath id="SVGID_8_">
				<use xlink:href="#SVGID_7_"  style="overflow:visible;"/>
			</clipPath>
			<path class="st14" d="M1178.8,382.5c3.5,31.6,7,63.3,16.2,93.7c5.1,16.6,11.9,33,22.9,46.5c15.8,19.4,39.8,31.8,64.8,33.4
				c33.4,2.2,65.2-14,93.6-31.7c-2.1,21-13.2,40.5-28,55.6s-33.2,26.2-52.1,35.7c-26.1,13-54.1,23.3-83.3,25.2
				c-41.8,2.7-83.8-12.3-116.8-38.1c-33-25.8-57.3-61.8-72.6-100.7c-5.8-14.6-10.4-30.1-9.8-45.8c0.6-15.5,6.2-30.5,14.2-43.8
				c13.1-21.7,33.3-39.6,57.5-47.1s52.3-3.7,72,12.3c3.1,2.5,6.1,5.3,9.8,6.5c3.8,1.1,8.7-0.2,10-4"/>
		</g>
		
			<ellipse transform="matrix(0.9823 -0.1874 0.1874 0.9823 -48.2543 235.8809)" class="st15" cx="1223.6" cy="373.2" rx="98.5" ry="15.3"/>
		
			<rect x="1268.6" y="569.3" transform="matrix(0.9823 -0.1874 0.1874 0.9823 -91.2544 249.3248)" class="st13" width="9.2" height="76.1"/>
		<path class="st13" d="M1279.3,633.9c0,0,1.2,11.4-34.5,26.1c0.4-0.1,74.2-16.5,74.2-16.5S1284.6,647.2,1279.3,633.9z"/>
		
			<rect x="1244.5" y="651.7" transform="matrix(0.9761 -0.2175 0.2175 0.9761 -111.6616 294.6626)" class="st13" width="76" height="5.6"/>
		<path class="st16" d="M1266.9,338.6c1.2-16.2,7.7-32,18.3-44.3c2.6-3.1,5.6-6,9.2-7.8c2.7-1.3,6.3-1.7,8.3,0.5
			c0.8,0.9,1.2,2.2,1.4,3.4c1.2,5.8-0.2,11.9-2.9,17.1c-2.7,5.3-6.6,9.8-10.8,13.9c7.7-12,19.8-21.1,33.4-25.1c2-0.6,4.2-1,6-0.1
			c2.3,1.1,3.2,4,2.8,6.5c-0.4,2.5-1.9,4.6-3.5,6.6c-6.9,8.5-16.2,15-26.5,18.7c7.1-4.1,15-6.9,23.1-8.3c3.9-0.7,8.2-1,11.7,1
			c0.7,0.4,1.4,1,1.8,1.7c0.8,1.8-0.6,3.9-2.2,5.2c-7.7,6.6-18.4,8.3-28.5,9.7c8.3-0.8,16.8-0.6,25.1,0.6c0.8,0.1,1.7,0.3,2.4,0.7
			c1.7,1.1,1.8,3.7,0.9,5.6c-1.9,3.8-6.5,5.2-10.6,6c-13.8,2.8-27.9,3-42,2.1c-4.4-0.3-9-0.8-12.5-3.4
			C1268.5,346.3,1264,341.9,1266.9,338.6"/>
		<path class="st17" d="M1176.5,347.8c13-16.6,13.8-41.7,2.1-59.2c-0.6-0.8-1.2-1.7-2.2-2c-2.5-0.9-6.1,2-6.7,4.6
			c-2.7,11.1-1.5,23,0.2,34.2c-0.6-12-1.3-24.2-5.5-35.5c-4.2-11.3-12.5-21.6-24-25.2c-3.9-1.2-8.9-1.2-11.2,2.2
			c-1.5,2.3-1.2,5.2-0.8,7.9c3.2,19.7,10.1,38.8,20.3,55.9c-14.8-13.1-35.4-21.4-54.6-16.5c-1.6,0.4-3.2,1-4.1,2.3
			c-2.2,3.1,1.1,7.2,4.2,9.3c13.1,8.8,29.1,13.2,44.8,12.2c-11.2-3.1-23.4-2.3-34,2.2c-1.6,0.7-3.3,1.5-4.3,3c-1,1.4-1.3,3.6,0,4.9
			c0.8,0.8,1.9,1.1,2.9,1.3c9.8,2.2,20.1,2.3,30,0.1c-10.9-0.3-21.9,3.7-30,10.9c-1,0.9-2,2.1-1.4,3.3c0.3,0.7,1.1,1.1,1.8,1.3
			c13,5,26.7,6.1,39.8,1.1C1157.2,361,1165.3,356.6,1176.5,347.8"/>
		<path class="st16" d="M1217.3,321.4c-8-0.9-16.4-2-23-6.6c-2.1-1.5-4.2-3.6-4.2-6.3c0-3.3,3.2-5.7,6.2-7c6.1-2.7,13-3.6,19.5-2.5
			c-5.5-1.7-10.8-3.8-16.1-6.1c-2.5-1.1-5.2-2.5-6.4-5.1c-0.2-0.5-0.4-1-0.3-1.5c0.1-1.1,1.2-1.8,2.2-2.2c2.7-1.1,5.8-0.5,8.7,0.2
			c5.3,1.3,10.4,3.1,15.3,5.3c-7.5-4.4-14-10.7-18.5-18.1c-0.8-1.3-1.6-2.7-1.5-4.2c0.2-2.9,3.5-4.7,6.3-4.3s5.2,2.2,7.4,4
			c5.4,4.6,10.5,9.7,14.4,15.7c-6.7-9.4-10-20.8-13.1-31.9c-0.6-2.3-1.8-7.2-0.1-8.8c1.2-1.1,5.3-1.2,6.7-0.5
			c1.5,0.7,2.7,2.6,3.8,3.8c3.1,3.4,4.8,6.9,7.6,10.6c5,6.5,9.4,15.1,11.3,23.2c-1.4-6.5-2.8-13.1-4.2-19.6
			c-2.2-10.3-4.4-20.9-2.1-31.2c0.4-1.9,1.1-3.8,2.4-5.1c2.8-2.7,7.4-2,10.7,0c6.8,4.1,10.4,12.2,11.3,20.1c0.9,7.9-0.4,15.9-1,23.8
			c-0.5,6.6-0.5,13.4-2.7,19.6c3.5-7.2,7.2-14.6,13.5-19.4c2.4-1.8,5.9-3.2,8.2-1.3c1.1,0.8,1.6,2.2,2,3.5c1.9,6.8-0.3,14-3.2,20.4
			c-4.7,10.5-11.6,20.4-21.6,26.2c-7.4,4.3-15.9,6-24.3,7.5c-2.7,0.5-5.5,1-8.2,0.5C1221.1,323.2,1220.5,320.2,1217.3,321.4"/>
		<path class="st18" d="M1135.3,311.4c11.9,1.6,21.9,9.8,29.5,19.1c4.5,5.5,8.6,12.1,8.2,19.2c-8.8-10.6-20.5-18.7-33.5-23.2"/>
		<path class="st18" d="M1299.1,318.4c-3,6-6.4,11.9-11,16.7s-10.6,8.6-17.2,9.7"/>
		<path class="st18" d="M1230,276.9c2.3,7.7,5.3,15.2,8.8,22.4c1.9,3.8,3.9,7.6,7,10.5c0.9-8.5,0-17.1-2.6-25.2"/>
		<path class="st17" d="M1225.4,370c-13.9-1.1-26.9-10-32.9-22.6c-1.6-3.3-2.7-7-2-10.6c0.5-2.8,2.9-5.8,5.7-5.2
			c1.1,0.2,2.1,1,2.9,1.8c6.9,6,13.1,12.8,18.4,20.2c-5.1-8.8-7.1-18.9-8.9-28.9c-1.4-7.7-2.6-15.7-0.3-23.1
			c1.9-6.1,3.8-11,7.9-15.8c0.7-0.8,3.7-1.9,5.3-2.1c0.5,0,2.8,1.3,3.1,1.7c7,9.6,8.6,21.1,9,33c0.3,8.3-1.1,16.5-2.5,24.7
			c0.9-8,1.9-16,2.8-24c0.6-4.9,1.2-9.9,3-14.5s5-8.9,9.5-10.9c0.9-0.4,1.8-0.7,2.7-0.7c1.3,0,2.4,0.7,3.5,1.4
			c3.4,2.5,5.6,6.5,6.5,10.6c0.9,4.2,0.7,8.5,0,12.7c-1.8,10.5-6.4,20.6-13.2,28.8c-0.1-2.1,1.3-4,2.6-5.7
			c6.1-7.2,13.4-13.8,22.3-16.7c3.3-1,7.6-1.1,9.2,1.9c0.7,1.4,0.7,3.1,0.3,4.6c-1.2,6.1-5.4,11.3-10.5,14.9
			c-5.1,3.5-11.1,5.6-17.1,7.2c8.7-4.8,18.1-8.2,27.9-10.2c2.9-0.6,5.8-1,8.7-0.3c0.9,0.2,1.7,0.6,2.3,1.3c1.2,1.3,0.8,3.4-0.1,5
			c-2.6,5-8.3,7.4-13.5,9.4c-17.7,6.7-36.2,12.9-55.1,11.8"/>
		<path class="st18" d="M1223.4,329.5c2.1,13.1,5.8,25.9,11.1,38.1c2.2-4.3,4.3-8.7,5.7-13.4c1.4-4.6,2-9.6,0.9-14.4"/>
		<path class="st18" d="M1234.5,368.7c6.1-2.9,10.9-8.2,13.3-14.5"/>
		<circle class="st12" cx="1136.6" cy="310.5" r="2.1"/>
		<circle class="st12" cx="1140.2" cy="314.7" r="2.1"/>
		<circle class="st12" cx="1139.5" cy="326.1" r="2.1"/>
		<circle class="st12" cx="1146.7" cy="326.8" r="2.1"/>
		<circle class="st12" cx="1224.1" cy="328.9" r="2.1"/>
		<circle class="st12" cx="1222.3" cy="334.1" r="2.1"/>
		<circle class="st12" cx="1228.9" cy="346.2" r="2.1"/>
		<circle class="st12" cx="1240.9" cy="339.7" r="2.1"/>
		<circle class="st12" cx="1246.6" cy="354.7" r="2.1"/>
		<circle class="st12" cx="1231.1" cy="277.1" r="2.1"/>
		<circle class="st12" cx="1242.5" cy="285.4" r="2.1"/>
		<circle class="st12" cx="1297.8" cy="318.3" r="2.1"/>
		<circle class="st12" cx="1297.6" cy="324.6" r="2.1"/>
		<g class="st9">
			<defs>
				<path id="SVGID_9_" d="M1320.3,354.7c1.6,8.3-40.5,23.3-93.9,33.5s-98.1,11.7-99.6,3.5c-1.6-8.3,19.4-126.2,72.8-136.4
					C1253,245,1318.8,346.4,1320.3,354.7z"/>
			</defs>
			<clipPath id="SVGID_10_">
				<use xlink:href="#SVGID_9_"  style="overflow:visible;"/>
			</clipPath>
			<path class="st19" d="M1249.1,358.6c0.7,15.4,1.4,30.8,2,46.2c-0.2-0.4-0.3-0.8-0.5-1.2"/>
			<path class="st19" d="M1258.8,355c-0.6,18.3-5,36.4-3.5,54.6c0-0.4,0.1-0.7,0.1-1.1"/>
			<path class="st19" d="M1172.6,347.7c8.2,22.1,16.4,44.3,24.6,66.4"/>
			<path class="st19" d="M1234.8,366.6c0,3.7,0,7.5-0.4,11.2c-1.1,8.6-5.1,16.8-4.8,25.5c0,0.2,0.1,0.5,0.3,0.5c0.2,0,0.2-0.4,0-0.3
				"/>
		</g>
		<path class="st20" d="M1442.1,475.5c7.1,2.6,14.8,3.4,22.4,3c7.6-0.4,15.1-1.9,22.4-3.9c7.1-1.9,14.1-4.3,20.4-8
			c-12.4,11.6-20.2,27.8-33.3,38.5c-2.8,2.3-5.8,4.3-8.6,6.7c-1.1-4.7-5.9-7.5-8.6-11.6c-1.5-2.4-2.3-5.2-3.1-7.9
			c-1-3.4-2.1-6.8-4-9.9c-1.9-3-4.5-5.7-7.9-6.9"/>
		<path class="st21" d="M1350.9,377.2c-5.3-6.5-12.4-11.6-20.3-14.4c-2.7-1-5.7-1.7-8.5-1.2c-4.5,0.7-8.2,4.4-9.7,8.7
			s-1.1,9.1,0.5,13.4c3.2,8.7,10.7,15.3,19,19.5c0.8,0.4,1.6,0.8,2.5,0.8c1.4-0.1,2.5-1.2,3.5-2.2c5.9-6.8,10.4-14.9,13.1-23.6
			c0.2-0.7-0.4-2-0.9-1.4"/>
		<g class="st9">
			<defs>
				<path id="SVGID_11_" d="M1350.9,377.2c-5.3-6.5-12.4-11.6-20.3-14.4c-2.7-1-5.7-1.7-8.5-1.2c-4.5,0.7-8.2,4.4-9.7,8.7
					s-1.1,9.1,0.5,13.4c3.2,8.7,10.7,15.3,19,19.5c0.8,0.4,1.6,0.8,2.5,0.8c1.4-0.1,2.5-1.2,3.5-2.2c5.9-6.8,10.4-14.9,13.1-23.6
					c0.2-0.7-0.4-2-0.9-1.4"/>
			</defs>
			<clipPath id="SVGID_12_">
				<use xlink:href="#SVGID_11_"  style="overflow:visible;"/>
			</clipPath>
			<path class="st22" d="M1305.2,385.5c7.3,4.7,16.8,5.7,25.1,3s15.3-9,19.2-16.8c-1.1,12-10.7,21.3-14.8,32.6
				c-0.3,0.9-0.7,1.9-1.6,2.2c-0.4,0.2-0.8,0.1-1.3,0.1c-6.9-0.5-13.4-3.8-18.5-8.5c-5.1-4.7-8.9-10.6-12-16.8
				c2.1,0.8,4,2.3,5.2,4.2"/>
		</g>
		<path class="st23" d="M1350.8,364.7c0.2,10.7-6.7,19.9-11.6,29.4c-10.5,20.1-12.4,44.6-5.1,66c4,11.7,10.4,22.3,16.9,32.9
			c2.4,4,4.9,8,8.2,11.2c3.9,3.8,8.8,6.3,13.5,8.8c18.6,10,37.9,22.1,59,20.7c18.9-1.2,35.2-13.1,50.4-24.5
			c8.5-6.4,17-12.8,23.8-20.9c6.8-8.1,11.8-18.2,11.9-28.8c0.1-13.8-7.9-26.5-8.4-40.3c-0.2-6.3,1.2-12.6,2.2-18.9
			c2.3-15.2,2-30.7,1.6-46c-0.2-6.5-0.3-13.1-2.2-19.3c-1.6-5.1-4.2-9.9-7-14.5c-3.2-5.4-6.5-10.9-11.4-15c-6-5.1-13.8-7.5-21.4-9.3
			c-18-4.1-36.8-5.1-55.2-2.5c-8.8,1.2-17.6,3.3-25.4,7.7c-6.5,3.7-12.1,8.8-17.5,14c-6.6,6.5-13.1,13.3-17.5,21.5
			c-4.4,8.2-6.4,18-3.8,26.9"/>
		<path class="st21" d="M1350.6,365.6c0.2,10.7-14.6,22.8-19.6,32.3c-10.5,20.1-12.3,45.1-5,66.6c4,11.7,10.4,21.8,16.8,32.4
			c2.4,4,4.9,8,8.2,11.2c3.9,3.8,11.3,9.1,16.1,11.7c18.6,10,43.3,16.3,64.4,14.9c18.9-1.2,38.4-10,53.5-21.4
			c8.5-6.4,17.1-12.2,23.8-20.3c6.8-8.1,12.1-21.2,12.2-31.8c0.1-13.8-10-33-10.5-46.8c-0.2-6.3-0.3-6.8,0.7-13.1
			c2.3-15.2,2-30.7,1.6-46c-0.2-6.5-0.3-13.1-2.2-19.3c-1.6-5.1-4.2-9.9-7-14.5c-3.2-5.4-6.5-10.9-11.4-15c-6-5.1-13.8-7.5-21.4-9.3
			c-18-4.1-36.8-5.1-55.2-2.5c-8.8,1.2-17.6,3.3-25.4,7.7c-6.5,3.7-12.1,8.8-17.5,14c-6.6,6.5-13.1,13.3-17.5,21.5
			c-4.4,8.2-6.4,18-3.8,26.9"/>
		<path class="st24" d="M1400.6,365c-0.3,0.1-0.6-0.1-0.7-0.3"/>
		<g class="st9">
			<defs>
				<path id="SVGID_13_" d="M1351.4,364.8c0.2,10.7-7.7,20.6-12.7,30.1c-10.5,20.1-12.4,44.6-5.1,66c4,11.7,10.4,22.3,16.9,32.9
					c2.4,4,4.9,8,8.2,11.2c3.9,3.8,8.8,6.3,13.5,8.8c18.6,10,37.9,22.1,59,20.7c18.9-1.2,35.2-13.1,50.4-24.5
					c8.5-6.4,17-12.8,23.8-20.9c6.8-8.1,11.8-18.2,11.9-28.8c0.1-13.8-7.9-26.5-8.4-40.3c-0.2-6.3,1.2-12.6,2.2-18.9
					c2.3-15.2,2-30.7,1.6-46c-0.2-6.5-0.3-13.1-2.2-19.3c-1.6-5.1-4.2-9.9-7-14.5c-3.2-5.4-6.5-10.9-11.4-15
					c-6-5.1-13.8-7.5-21.4-9.3c-18-4.1-36.8-5.1-55.2-2.5c-8.8,1.2-17.6,3.3-25.4,7.7c-6.5,3.7-12.1,8.8-17.5,14
					c-6.6,6.5-13.1,13.3-17.5,21.5C1350.8,346.1,1348.8,355.9,1351.4,364.8"/>
			</defs>
			<clipPath id="SVGID_14_">
				<use xlink:href="#SVGID_13_"  style="overflow:visible;"/>
			</clipPath>
		</g>
		<path class="st25" d="M1428.7,317.7c-6,3.5,16.3-3.1,15.5,3.8c-0.1,1.1-0.2,2.4,0.6,3.2c0.4,0.5,1,0.8,1.6,0.9
			c2.6,0.8,5.4,0.1,8-0.8c9.2-3.2,17.2-9.5,22.6-17.6c-1.1,3.4-2.1,6.9-1.7,10.4c0.3,2.5,1.4,4.9,2.7,7.1c2.4,4.2,5.6,8.1,9.6,10.9
			s8.9,4.4,13.8,4.2c1.6-0.1,3.5-0.5,4.2-2c0.6-1.2,0.2-2.7-0.3-4.1c-4.3-11.5-11.8-21.8-21.5-29.2c-4.3-3.3-9.2-6.2-14.6-6.7
			s-21-1.4-23.7,3.3"/>
		<path class="st26" d="M1415.5,388.9c1.9-4.8,0.8-10.4-2-14.9s-7-8-11.4-11c-4.4-2.9-9.1-5.5-14.3-6.6s-10.8-0.8-15.3,1.7
			c-6,3.4-9.1,10-11.6,16.3c-0.5,1.3-1,6.9-0.8,8.3c0.9,5.9,6.7,8.4,8.3,9c3.7,1.4,4.2,1.7,8,2.7c10.1,2.5,19.5-4.6,29.8-2.9
			c3.4,0.6,7.5,0.8,9.7-1.8"/>
		<path class="st26" d="M1366.5,377.6c-1.1,2.5-0.5,5.3,0.5,8.1c0.7,1.9,1.7,3.9,3.7,5.6c2.1,1.7,5,2.9,8,3.8
			c7.6,2.3,16.1,2.8,22.6,1s10.6-5.8,10.3-10.5c0-0.2,0-0.5-0.2-0.7c-0.3-0.4-1-0.6-1.6-0.8c-3.8-1-7.7-1.9-11.6-2.7
			c-7.7-1.6-15.4-3.3-23.1-4.9c-1.7-0.4-3.6-0.8-5.2-0.7c-1.7,0.1-3.2,0.8-3.1,1.8"/>
		<path class="st26" d="M1433.4,386.5c-0.8,3.3,0.2,6.8,1.8,10c1.1,2.2,2.5,4.5,5.1,6.2c2.6,1.7,6.1,2.7,9.6,3.3
			c8.9,1.5,18.7,0.5,25.7-2.9c7-3.4,11.1-9.2,10.1-15c-0.1-0.3-0.1-0.6-0.4-0.8c-0.4-0.4-1.2-0.5-2-0.6c-4.5-0.6-9-0.9-13.5-1.2
			c-9-0.6-17.9-1.3-26.9-1.9c-2-0.1-4.2-0.3-6,0.1c-1.9,0.4-3.5,1.6-3.2,2.9"/>
		<path class="st27" d="M1391.1,316.2c8.8,6.1,19.6,8.8,30.1,10.9c7.6,1.5,15.2,2.9,22.9,2.8c13.4-0.1,26.9-4.4,40.2-2.3
			c-3.3-1.6-7-1.8-10.7-1.8c-6.9,0-13.7,0.6-20.5,0.8c-21.4,0.6-42.9-3.3-62.8-11.4c0.7,0.8,1.4,1.5,2.1,2.3"/>
		<path class="st27" d="M1421.3,334.3c9,0.9,18.2-1.2,27.2-0.6c-6.5,1.5-13.2,2.3-19.9,2.4c-2.8,0.1-5.9-0.1-8-1.9"/>
		<path class="st26" d="M1410.6,385.6c-0.2,3.4-1.2,6.8-3.1,9.7c-2.3,3.6-5.6,6.3-8.7,9.3c-3.1,2.9-6,6.3-7.1,10.4
			c-0.5,2-0.6,4.2-0.3,6.3c0.2,2.1,0.7,4.1,1.9,5.8c2.1,3,5.9,4.2,9.5,4.1c-0.2-6.9,2.8-13.5,6.1-19.5c3.3-6,7.1-12,8.6-18.7
			c0.4-1.6,0.6-3.3,0.2-4.9c-0.4-1.6-1.4-3.2-3-3.7s-3.6,0.2-4.1,1.8"/>
		<path class="st26" d="M1386.2,396.6c2.2,0.6,4.3,1.3,6.2,2.6c1.8,1.3,3.3,3.3,3.4,5.5c0.2,3.5-2.7,6.5-3.1,9.9
			c-0.1,1.2,0.2,2.7,1.4,3.1c1.2,0.5,2.5-0.6,3.4-1.5c5.6-6.2,9.4-13.9,12.5-21.7c0.5-1.3,1-3,0-4.1c-0.9-0.9-2.4-0.8-3.6-0.6
			c-2.1,0.4-4.3,0.8-6.4,1.1c-4.4,0.8-8.8,1.6-13.1,2.9c-0.3,0.1-0.7,0.2-0.9,0.5c-0.7,0.7,0.1,2.1,1.1,1.9"/>
		<path class="st26" d="M1377.5,490.9c1.5,4.6,1.8,9.4,3.2,14s4.4,9.4,9.5,11.8c4.1,2,9.1,2.2,13.7,2c4.6-0.2,9.3-0.8,13.9-0.2
			c3.3,0.4,6.6,1.3,9.9,1.3c4.3,0,8.3-1.6,11.3-3.9c3-2.3,5.1-5.3,6.7-8.4c2.2-4.1,3.6-8.5,5-12.9c-3.5,2.7-7.1,5.3-11.2,7.4
			s-9,3.4-14,3.1c-4.4-0.2-8.7-1.6-13-2.1c-5.3-0.6-10.5,0.2-15.7,0.1c-1.9,0-3.9-0.2-5.7-0.8c-1.6-0.6-3-1.5-4.3-2.5
			c-3.7-2.7-7-5.8-9.8-9.1"/>
		<path class="st21" d="M1506.9,411.7c6.7-6.6,17-8.7,26.2-6.6c5.8,1.3,11.6,4.5,14,9.9c2.2,5,0.8,11.1-2.6,15.4
			c-3.4,4.3-8.6,6.9-13.9,8c-5.3,1.1-10.9,0.9-16.3,0.4c-1.1-0.1-2.3-0.2-3.2-0.9c-1.2-0.9-1.5-2.5-1.7-3.9
			c-1.3-7.7-2.2-15.4-2.5-23.2"/>
		<g class="st9">
			<defs>
				<path id="SVGID_15_" d="M1506.9,411.7c6.7-6.6,17-8.7,26.2-6.6c5.8,1.3,11.6,4.5,14,9.9c2.2,5,0.8,11.1-2.6,15.4
					c-3.4,4.3-8.6,6.9-13.9,8c-5.3,1.1-10.9,0.9-16.3,0.4c-1.1-0.1-2.3-0.2-3.2-0.9c-1.2-0.9-1.5-2.5-1.7-3.9
					c-1.3-7.7-2.2-15.4-2.5-23.2"/>
			</defs>
			<clipPath id="SVGID_16_">
				<use xlink:href="#SVGID_15_"  style="overflow:visible;"/>
			</clipPath>
		</g>
		<path class="st26" d="M1513,421c7.2-1.8,14.6-3,22.1-3.6c-4.4,1.5-9,2.4-13.6,3.2c-2.1,0.4-4.2,0.7-6.4,1.1
			c-0.3,0.1-0.7,0.1-1-0.1c-0.4-0.3-0.5-1-1-0.9"/>
		<path class="st26" d="M1479.7,395.9c1.7-4.5,1.9-9.7,0.2-14.2c-1.7-4.5-5.5-8.4-10.2-9.8c-4.1-1.2-8.5-0.5-12.6,0.7
			c-4.2,1.2-8.4,2.9-11.5,6s-4.9,7.6-3.8,11.8c0.1,0.4,0.3,0.8,0.6,1.2c0.5,0.5,1.3,0.6,2,0.7c11.8,1.5,23.6,2.9,35.5,4.1"/>
		<g class="st9">
			<defs>
				<path id="SVGID_17_" d="M1405.3,378c-5.7-2.4-11.4-4.8-17.5-5.7c-5.8-0.8-11.8-0.2-17.3,1.7c-0.5,0.2-1,0.4-1.3,0.7
					c-0.7,0.8-0.2,2.1,0.6,2.9c1.1,1.1,2.6,1.7,4,2.2c9.9,3.6,20.3,5.8,30.9,6.9c1.6,0.2,3.3,0.3,4.8-0.3c1.5-0.6,2.8-2.2,2.4-3.8
					c-0.2-1-1-1.9-1.8-2.5c-1.9-1.6-4-2.8-6.3-3.7"/>
			</defs>
			<clipPath id="SVGID_18_">
				<use xlink:href="#SVGID_17_"  style="overflow:visible;"/>
			</clipPath>
		</g>
		<path class="st28" d="M1376.4,318.2c-4.4,2.2-7.4,6.6-9,11.3c-1.6,4.7-1.9,9.6-2.2,14.6c-0.6-1.2-0.9-2.5-0.8-3.9
			c-0.1,1.9-0.2,3.7-0.3,5.6c-0.4-1.2-0.7-2.3-1.1-3.5c0.5,4.7,0.6,9.5-0.4,14.2s-3.3,9.1-7,12.1c0.6-1.3,1.2-2.6,1.8-3.9
			c-1.1,2.4-2.9,4.4-5.2,5.7c0.9-1.2,1.8-2.5,2.7-3.7c-1.4,2.9-3.3,9.2-6.5,10.1c-1.4-0.8-3.5-5.4-4.3-6.7c-0.8-1.3-0.6-3.3,0.8-3.8
			c-0.7,0.7-1.4,1.4-2.1,2.1c0.5-1.8,1.2-3.6,1.9-5.4c-0.5,1.3-1.5,2.3-2.7,2.9c1.6-5.5,2.6-11.2,3-17c-0.8,1.3-1.5,2.8-1.9,4.3
			c0.2-2.4,0.6-4.7,1.1-7.1c-0.8,1.2-1.7,2.5-2.5,3.7c0.6-3.4,1.2-6.9,3.1-9.7c1.1-1.7,2.7-3.1,4.1-4.5c2.2-2.3,4.1-4.8,5.7-7.6
			c-1.1,1.3-2.3,2.6-3.4,3.9c2.7-6.1,7.5-11.2,13.4-14.4c0.8-0.4,1.7-0.9,2.6-1c0.9-0.2,1.9-0.1,2.8,0c1.8,0.2,3.7,0.4,5.5,0.6
			c0.7,0.1,1.6,0.5,1.3,1.1c-0.7,0.1-1.3,0.1-2,0.2"/>
		<path class="st28" d="M1504.4,342.4c2.2,6.5,4.5,13.2,4.1,20c-0.3,4.8-1.8,9.7-0.1,14.2c0.4-1.3,0.9-2.6,1.3-3.8
			c-0.4,1.2-0.4,2.6-0.1,3.9c0.5-0.7,1-1.4,1.5-2.1c0.1,3.2-0.3,6.5-1.2,9.6c-0.8,2.9-2.1,5.7-2.5,8.7c-0.5,3.5,0.3,7.2,2.2,10.3
			c0.1-0.4,0.1-0.8,0.2-1.2c0,2.3-1.1,5.3,0.4,7.1c3.1-1.7,7.9-3.6,11-4.1c-0.2-1,0,0-0.2-1c0.6,0.8,1.6,2.6,1.8,5.3
			c1.2-5.4,1-14-1.9-18.5c1.1,1.3,2,2.7,2.7,4.3c-0.3-1.7-0.7-3.3-1-5c0.7,0.9,1.3,1.8,1.8,2.9c-1-2.3-0.7-4.9-0.1-7.3
			s1.6-4.7,2.2-7.1c1-4.3,0.4-9-1.6-12.9c1,0.9,1.8,2.1,2.3,3.3c-0.3-1.2-0.6-2.5-0.9-3.7c1,0.8,1.9,1.8,2.4,3
			c0.2-2.2-1-4.3-2.3-6.1s-2.9-3.4-4-5.3c1.2,0.9,2.4,1.8,3.6,2.7c-1.3-1.9-2.3-4.1-3-6.3c-0.6-2-0.9-4.1-1.8-6
			c-2-4.3-6.5-6.8-11-8.2c-1.3-0.4-2.9-0.7-4,0.2c-1.1,0.8-1.2,2.4-1.2,3.7"/>
		<path class="st12" d="M1489.7,294.8c2.8-4.6,3.6-10.2,2.3-15.4c2.7,2.9,4.1,6.8,4.3,10.8c0.1,1.3,0,2.7-0.4,4
			c-0.6,1.7-2,3.1-3.7,3.7c-0.9,0.3-2,0.4-2.8-0.1c-0.8-0.5-1-1.9-0.3-2.4"/>
		<path class="st12" d="M1487.9,293.2c1.3-9.9-2.4-19.8-8.4-26.3c-6.1-6.5-19.8-12.1-22.7-11.2c-4.1,0.7,5.3,4.8,7.8,9.7
			c-14.6-11.7-35.4-12.7-52.1-2.5c-7.2,4.4-13.8,10.8-21.7,12.8c-7.2,1.8-14.8-0.7-19.8-6.4c-9.1-10.4-9.4-29.8-20.6-37.1
			c-1.3-0.8-2.8-1.5-4.4,0.4c-0.6,0.7-1.1,1.7-1.3,2.7c-1.4,5.9,0.3,11.9,2.5,17c2.1,4.9,4.8,9.5,6.1,14.8
			c-3.3-8.1-11.9-22.3-14.8-20c-2.1,1.2-1.7,4.7-0.8,7.1c2.9,8,6.6,15.5,11.1,22.3c-3.3-6.7-13.4-17.3-15-14
			c-1.7,3.3,5.1,13.9,9.9,18.7c-4.4-4.9-12.9-15.8-15.3-10.9c-2.9,6.5,12.1,33.6,25.2,42.7c10,6.9,21.9,10,33.9,10.2
			c12,0.2,24-2.2,35.8-5.6c13.7-4,27.5-9.6,38.4-20.5c-3.9,4.9-15,12.5-12.2,17.8c3.6,3,17.2-2.5,26.5-7.1
			C1482.3,304.7,1487,300,1487.9,293.2"/>
		<path class="st12" d="M1481.1,307.7c0.2,13.4,7.1,29.3,19.7,36.8c6.8,4.1,14.6,6,22.4,7.1c3.7,0.5,7.5,0.8,11.1,0
			c2.6-0.6,7.1-3.4,5.7-4.9c-3.3-1-6.8-1.6-10.2-1.9c10.7,0.4,21.4-4.8,27.6-13.5c2.1-2.8,3.7-6.1,4-9.5s-0.7-7.2-3.4-9.5
			c-0.5-0.5-1.2-0.9-1.9-0.9c-0.6,0-1.4,0-2,0.2c-3.7,0.8-8.1,12.3-16.4,12.1c3.7-2.2,6.8-5.6,6.7-9.8c0-1.6-1.9-2.4-3.1-1.4
			c-2.6,2.3-4.4,6.1-8,5.8c-1.2-0.1-2.2-0.7-3.1-1.5c-1.8-1.7-2.5-4.1-3.5-6.3c-3.9-9-12.4-15.9-22-17.8c-4.3-0.8-8.8-0.7-12.9,0.8
			c-4.1,1.5-7.7,4.5-9.6,8.4c-1.3,2.8-1.2,3.1-1.2,6.2"/>
		<path class="st28" d="M1510.1,405.2c-0.6,0.9-0.7,2.1-0.4,3.2c0.2,1.1,0.7,2.1,0.9,3.2c0.3,1.6,0.2,3.2-0.4,4.7
			c2-2.2,4.1-4.6,4.4-7.5c0,1.3-0.3,2.6-0.9,3.7c3-1.9,4.4-5.5,4.9-9c0.1-0.5,0.1-1.1-0.3-1.5c-0.2-0.2-0.6-0.3-0.9-0.3
			c-2.7-0.3-5.6,1.1-7.1,3.4"/>
		<path class="st13" d="M1359.2,315c-4.5-2.8-9.3-4.9-14.4-6.4c-2.3-0.7-5.3-0.9-6.6,1.1c-0.8,1.3-0.4,3.2,0.6,4.4
			c1,1.2,2.4,2,3.9,2.7c23.5,11.2,51.5,9,76.2,0.6c8.2-2.8,16.8-6.9,20.4-14.8c0.2-0.5,0.4-1.1,0.2-1.5c-0.2-0.4-0.8-0.6-1.3-0.7
			c-5.3-1.2-10.9-0.9-16.3-0.4c-12.8,1.2-25.4,3.6-37.8,7.2c-8.9,2.5-18,5.7-27.2,4.9"/>
		<g class="st9">
			<defs>
				<path id="SVGID_19_" d="M1487.9,293.2c1.3-9.9-2.4-19.8-8.4-26.3c-6.1-6.5-19.8-12.1-22.7-11.2c-4.1,0.7,5.3,4.8,7.8,9.7
					c-14.6-11.7-35.4-12.7-52.1-2.5c-7.2,4.4-13.8,10.8-21.7,12.8c-7.2,1.8-14.8-0.7-19.8-6.4c-9.1-10.4-9.4-29.8-20.6-37.1
					c-1.3-0.8-2.8-1.5-4.4,0.4c-0.6,0.7-1.1,1.7-1.3,2.7c-1.4,5.9,0.3,11.9,2.5,17c2.1,4.9,4.8,9.5,6.1,14.8
					c-3.3-8.1-11.9-22.3-14.8-20c-2.1,1.2-1.7,4.7-0.8,7.1c2.9,8,6.6,15.5,11.1,22.3c-3.3-6.7-13.4-17.3-15-14
					c-1.7,3.3,5.1,13.9,9.9,18.7c-4.4-4.9-12.9-15.8-15.3-10.9c-2.9,6.5,12.1,33.6,25.2,42.7c10,6.9,21.9,10,33.9,10.2
					c12,0.2,24-2.2,35.8-5.6c13.7-4,27.5-9.6,38.4-20.5c-3.9,4.9-15,12.5-12.2,17.8c3.6,3,17.2-2.5,26.5-7.1
					C1482.3,304.7,1487,300,1487.9,293.2"/>
			</defs>
			<clipPath id="SVGID_20_">
				<use xlink:href="#SVGID_19_"  style="overflow:visible;"/>
			</clipPath>
			<path class="st29" d="M1369.3,318.2c-12.6-1.9-24.1-9.7-30.6-20.7c-1.9-3.2-3.1-7.7-0.4-10.1c2.3-2.1,6-1.3,8.9-0.1
				c6.8,2.8,13.1,7.1,18.3,12.4c-2.2-2.1-4-4.6-5.3-7.4c-0.4-0.8-0.7-1.7-0.5-2.5c0.3-1.5,1.9-2.4,3.4-2.3s2.9,0.7,4.2,1.3
				c31.1,14.6,68.5,12.8,99.9-1.3c-1.9,2.2-3.8,4.4-4.7,7.2s-0.6,6.1,1.5,8c1.9,1.8,4.8,1.9,7.4,1.6c4.6-0.7,9-3,12.2-6.4
				c-1.5,9.9-10.2,17.4-19.7,20.7c-9.4,3.3-19.7,3.3-29.6,3.9c-20.6,1.2-41.8,5.1-61.4-1.5c-2-0.7-3.9-1.4-5.8-2.2"/>
		</g>
		<path class="st13" d="M1458.2,286.7c-8.5-0.2-17.1-2.8-25.3-0.6c-0.5,0.1-1.1,0.4-1.2,0.9c-0.1,0.3,0,0.6,0.1,0.8
			c0.7,1.5,2.6,2.1,4.3,2.4c4.7,0.7,9.5,0.6,14.1-0.5c2.3-0.5,4.6-1.3,6.5-2.7"/>
		<g class="st9">
			<defs>
				<path id="SVGID_21_" d="M1481.1,307.7c0.2,13.4,7.1,29.3,19.7,36.8c6.8,4.1,14.6,6,22.4,7.1c3.7,0.5,7.5,0.8,11.1,0
					c2.6-0.6,7.1-3.4,5.7-4.9c-3.3-1-6.8-1.6-10.2-1.9c10.7,0.4,21.4-4.8,27.6-13.5c2.1-2.8,3.7-6.1,4-9.5s-0.7-7.2-3.4-9.5
					c-0.5-0.5-1.2-0.9-1.9-0.9c-0.6,0-1.4,0-2,0.2c-3.7,0.8-8.1,12.3-16.4,12.1c3.7-2.2,6.8-5.6,6.7-9.8c0-1.6-1.9-2.4-3.1-1.4
					c-2.6,2.3-4.4,6.1-8,5.8c-1.2-0.1-2.2-0.7-3.1-1.5c-1.8-1.7-2.5-4.1-3.5-6.3c-3.9-9-12.4-15.9-22-17.8
					c-4.3-0.8-8.8-0.7-12.9,0.8c-4.1,1.5-7.7,4.5-9.6,8.4c-1.3,2.8-1.2,3.1-1.2,6.2"/>
			</defs>
			<clipPath id="SVGID_22_">
				<use xlink:href="#SVGID_21_"  style="overflow:visible;"/>
			</clipPath>
			<path class="st30" d="M1479.7,310.9c1.7,5.2,3.5,10.6,6.7,15.1c6.7,9.4,19.8,13.7,30.8,10.1c7.9-2.6,14.9-8.8,23.2-8.2
				c1,0.1,2.2,0.3,2.8,1.1c1.2,1.6-0.4,3.9-2,5.2c-2.8,2.3-5.9,4.3-9.2,6c6.6-4.9,15.2-7.1,23.4-5.9c2,0.3,4.1,0.9,5.3,2.5
				c0.7,1,1.1,2.2,1.1,3.4c0.1,4.1-2.7,7.8-5.9,10.3c-4.6,3.5-10.4,5.4-16.1,6c-5.8,0.7-11.6,0.2-17.4-0.5
				c-11.6-1.5-23.6-4.4-32.1-12.4c-1.6-1.6-3.1-3.3-4.1-5.4c-0.7-1.5-1.1-3.1-1.5-4.6c-1.7-6.6-3.4-13.2-5.1-19.7"/>
		</g>
		<path class="st31" d="M1430.8,391.1c-1,1.5-1.2,3.3-1.3,5c-0.6,10.2,2.3,21.1-2.7,30.4"/>
		<path class="st31" d="M1438,399.6c1.3,4.6,4.1,9.2,8.6,11.7c2.3,1.3,5,2.1,7.7,2.5c7.3,1.3,15.5,0.3,20.8-4.3"/>
		<g class="st9">
			<defs>
				<path id="SVGID_23_" d="M1429.5,467.6c12.1-8.1,22.1-20.1,28-33.4c0.8-1.7,1.5-3.5,2.7-4.9c1.2-1.4,4.3-4.6,5.4-4.4
					c1.4,0.2,3,3.7,3.8,5.3c0.8,1.7,1,3.6,1,5.5c0.1,7.3-2,14.5-4.5,21.3c-0.6,1.5-1.1,3-2.2,4.1c-1.7,2-4.4,2.8-6.9,3.4
					C1447.9,466.7,1438.7,467.8,1429.5,467.6"/>
			</defs>
			<clipPath id="SVGID_24_">
				<use xlink:href="#SVGID_23_"  style="overflow:visible;"/>
			</clipPath>
		</g>
		<path class="st26" d="M1433.2,389.7c-0.3-1.3-0.1-2.6,0.1-3.8c1.9-8.9,8.5-16.8,17-20.4c8.5-3.6,18.8-2.9,26.7,1.8
			c1.4,0.8,2.7,1.7,3.7,2.9c3.7,3.9,4.5,9.5,5,14.8c0.1,1.4,0.3,2.9-0.1,4.2c-0.4,1.4-1.3,2.5-2.3,3.6c-5.7,6.1-14.4,9.2-22.9,9.1
			c-8.5-0.1-16.7-3-24-7.3c-0.8-0.4-1.5-0.9-2.1-1.6c-0.9-1.2-1-2.8-1-4.3"/>
		<path class="st32" d="M1470.9,368c-4.4-1.3-9.8-0.2-14,1.5c-4.2,1.7-7.9,4.3-11.2,7.2c-3.8,3.2-7.4,7-8.2,11.5
			c-0.4,2-0.1,4.3,1.5,5.7c2.1,2,5.9,1.9,8.8,0.8s5.5-2.8,8.5-3.7c3.2-1,6.7-1.1,9.9-0.2c2.4,0.7,4.6,1.9,7.1,2.3
			c3.6,0.6,7.7-0.9,9.4-3.8c0.9-1.6,1.1-3.5,1-5.3c-0.2-3.5-1.3-7-3.4-9.9C1478,371.3,1474.7,368.9,1470.9,368"/>
		<path class="st32" d="M1378.2,360.2c4.4-1,9.7,0.6,13.7,2.6c4,2,7.4,4.9,10.5,8c3.5,3.5,6.7,7.6,7.2,12.1c0.2,2-0.3,4.3-1.9,5.6
			c-2.3,1.8-5.9,1.4-8.8,0.2c-2.8-1.2-5.2-3.2-8.1-4.4c-3-1.3-6.5-1.6-9.7-0.9c-2.4,0.5-4.7,1.5-7.2,1.7c-3.6,0.3-7.5-1.5-8.9-4.5
			c-0.8-1.7-0.8-3.6-0.6-5.4c0.5-3.5,1.8-6.8,4.1-9.6C1371,362.9,1374.4,360.9,1378.2,360.2"/>
		<path class="st33" d="M1388.3,362c0.9,0.4,1.6,1,2.1,1.8s0.7,1.8,0.6,2.7c-0.1,0.5-0.2,1.1-0.5,1.5c-0.3,0.4-0.6,0.7-1,1
			c-0.8,0.5-1.8,0.8-2.8,0.7c-1-0.1-1.9-0.7-2.4-1.5c-0.3-0.5-0.5-1.1-0.7-1.7c-0.2-0.8-0.2-1.7,0.1-2.5s0.8-1.5,1.6-1.9
			c0.7-0.4,1.6-0.4,2.4-0.3"/>
		<path class="st33" d="M1466,368.1c0.9,0.4,1.6,1,2.1,1.8c0.5,0.8,0.7,1.8,0.6,2.7c-0.1,0.5-0.2,1.1-0.5,1.5c-0.3,0.4-0.6,0.7-1,1
			c-0.8,0.5-1.8,0.8-2.8,0.7c-1-0.1-1.9-0.7-2.4-1.5c-0.3-0.5-0.5-1.1-0.7-1.7c-0.2-0.8-0.2-1.7,0.1-2.5c0.3-0.8,0.8-1.5,1.6-1.9
			c0.7-0.4,1.6-0.4,2.4-0.3"/>
		<path class="st28" d="M1482.3,344.9c-7.4-3.8-12.6-5-20-2.5c0.9,0.2,1.8,0.3,2.7,0.5c-0.9,0.2-1.8,0.4-2.8,0.5
			c1.4,0.7,2.9,1.1,4.4,1.2c-2.5,0.7-5.1,0-7.6-0.3c-2.5-0.2-5.5,0.1-7,2.1c0.7-0.2,1.3-0.2,2-0.1c-3.6,0.3-7,2.4-8.7,5.6
			c2.9-1.3,6.4,0.3,9.4-0.8c-1,0.5-2,1-2.9,1.5c0.7-0.2,1.4-0.4,2.1-0.6c-0.6,0.4-1.2,0.8-1.8,1.2c6.8-1,13.8-0.5,20.7,0
			c-0.7,0.3-1.5,0.5-2.2,0.8c1.4-0.5,3,0.2,4.3,0.9c5.4,3.1,9.4,8.4,10.9,14.4c-0.3-0.6-0.5-1.1-0.8-1.7c-0.9,3.3-0.2,6.9,1.8,9.7
			c0.2-0.4,0.3-0.7,0.5-1.1c0.1,0.8,0.1,1.6-0.1,2.4c2-1.9,3.2-4.7,3.2-7.4c0.2,1,0.4,2,0.6,2.9c0.8-3.2,1.2-6.4,1.2-9.7
			c0-5-1-10.3-4.3-14.1c0.8,0.8,1.6,1.5,2.4,2.3C1488.4,349.4,1485.6,346.6,1482.3,344.9"/>
		<path class="st28" d="M1379.1,335.8c-3.4,1.3-5.4,3.1-7.8,5.8c0.7-0.5,1.4-0.9,2.2-1.2c-2.1,2.5-4.1,5.1-5.6,8
			c-1.4,2.9-2.1,6.2-1.3,9.3c0.3-0.6,0.6-1.1,1-1.7c-0.4,1.5-0.3,3.1,0.3,4.6c0-0.3,0.1-0.7,0.1-1c0.2,1.6,0.6,3.1,1.1,4.6
			c1.3-2.4,2-5.1,2-7.8c0.1,0.9,0.2,1.7,0.4,2.6c1-4.8,5.1-8.7,9.8-10.6s10-2.3,15.1-2c-0.7-0.6-1.5-1.1-2.4-1.4
			c2.3,0.5,4.7,1,6.8,2.1c0.9,0.5,1.7,1.1,2.5,1.6c2.5,1.4,5.6,1.7,8.6,1.5c-0.5-0.2-0.9-0.5-1.4-0.7c1.2,0.3,2.5,0.5,3.8,0.6
			c-3.1-3.4-6.5-6.9-10.9-8.4c1.2,0.1,2.5,0.3,3.7,0.4c-2.7-1.2-5.5-2.5-8-4.1c-1.7-1.1-3.3-2.3-5.1-3.1c-2.7-1.2-6-1.5-8.9-0.8
			c0.9-0.1,1.9,0.1,2.7,0.5C1384.7,334.4,1381.8,334.9,1379.1,335.8"/>
		<path class="st28" d="M1481.1,449.6c-26,3-52.3,5.9-78.3,1.5c-16.8-2.9-33.3-8.8-50.3-10.3c-2.7-0.2-5.9,0-7.2,2.7
			c-0.8,1.7-0.4,3.8,0.1,5.7c2.9,9.8,9.8,17.6,17.7,22.5c7.9,4.9,16.8,7.3,25.6,9c18.7,3.6,37.9,4.3,56.5,1
			c14.2-2.5,29.3-8.5,36.3-22.7c0.9-1.9,1.7-4.1,1.3-6.3s-2.7-3.9-4.4-2.8"/>
		<path class="st12" d="M1400.7,428.9c-4.7,1.3-12.2,5.9-16.1,9c-2.5,2-4.9,4.7-5,7.9c0,0.7,0.2,1.6,0.8,2c0.5,0.3,1.2,0.3,1.8,0.2
			c4.9-0.6,9.5-2.5,13.4-5.5c-4.3,5-6.7,11.7-6.4,18.3c0.1,1.2,0.7,2.4,1.8,3c1.6,0.9,2.9-0.1,3.9-1c5-4.6,7.5-11.3,9.9-17.6
			c-2,4.2-2.8,9-2.2,13.6c0.1,0.8,0.6,1.6,1.4,1.9c1.4,0.6,2.4-0.6,3-1.6c1.7-3,2.7-6.5,2.7-10c-0.5,2.5-0.5,5.1,0,7.6
			c0.1,0.5,0.4,1,0.9,1.2c1,0.4,1.7-0.6,2.1-1.5c0.9-2.1,1.2-8,1.2-10.3c0,0,0.2,3.5,0.2,3.5c0,1.1,1.6,1.5,2.1,0.5
			c0.8-1.6,1.3-3.3,1.4-5.1c-1.2,3.4-0.5,7.4,1.6,10.3c1.8,2.5,5.7,1.4,5.8-1.7c0.1-1.9-0.1-3.9-0.4-5.8c-0.4,3.2,0.7,6.6,2.8,9.1
			c1.4,1.7,4.1,0.3,3.6-1.9c-0.5-2.1-1.1-4.1-1.8-6.1c0.7,3.5,3.2,6.7,6.6,8.1c0.7,0.3,1.4,0.4,2.1,0.2c1.7-0.4,1.9-1.9,1.9-3.2
			c-0.1-5.4-3.9-10.6-9-12.3c2,0.8,4.1,1.6,6.1,2.4c1.3,0.5,2.7,1,4.1,0.5c0.6-0.2,1.1-0.6,1.4-1.2c0.7-1.4-0.5-2.7-1.6-3.6
			c-3.4-2.5-7.6-3.5-11.7-4.5c-4.2-1-8.4-2-12.5-3C1409.9,430.8,1403.6,434.4,1400.7,428.9"/>
		<g class="st9">
			<defs>
				<path id="SVGID_25_" d="M1400.7,428.9c-4.7,1.3-12.2,5.9-16.1,9c-2.5,2-4.9,4.7-5,7.9c0,0.7,0.2,1.6,0.8,2
					c0.5,0.3,1.2,0.3,1.8,0.2c4.9-0.6,9.5-2.5,13.4-5.5c-4.3,5-6.7,11.7-6.4,18.3c0.1,1.2,0.7,2.4,1.8,3c1.6,0.9,2.9-0.1,3.9-1
					c5-4.6,7.5-11.3,9.9-17.6c-2,4.2-2.8,9-2.2,13.6c0.1,0.8,0.6,1.6,1.4,1.9c1.4,0.6,2.4-0.6,3-1.6c1.7-3,2.7-6.5,2.7-10
					c-0.5,2.5-0.5,5.1,0,7.6c0.1,0.5,0.4,1,0.9,1.2c1,0.4,1.7-0.6,2.1-1.5c0.9-2.1,1.2-8,1.2-10.3c0,0,0.2,3.5,0.2,3.5
					c0,1.1,1.6,1.5,2.1,0.5c0.8-1.6,1.3-3.3,1.4-5.1c-1.2,3.4-0.5,7.4,1.6,10.3c1.8,2.5,5.7,1.4,5.8-1.7c0.1-1.9-0.1-3.9-0.4-5.8
					c-0.4,3.2,0.7,6.6,2.8,9.1c1.4,1.7,4.1,0.3,3.6-1.9c-0.5-2.1-1.1-4.1-1.8-6.1c0.7,3.5,3.2,6.7,6.6,8.1c0.7,0.3,1.4,0.4,2.1,0.2
					c1.7-0.4,1.9-1.9,1.9-3.2c-0.1-5.4-3.9-10.6-9-12.3c2,0.8,4.1,1.6,6.1,2.4c1.3,0.5,2.7,1,4.1,0.5c0.6-0.2,1.1-0.6,1.4-1.2
					c0.7-1.4-0.5-2.7-1.6-3.6c-3.4-2.5-8.6-3.6-12.7-4.5c-4.2-1-7.3-1.9-11.5-2.9C1409.9,430.8,1403.6,434.4,1400.7,428.9"/>
			</defs>
			<clipPath id="SVGID_26_">
				<use xlink:href="#SVGID_25_"  style="overflow:visible;"/>
			</clipPath>
			<path class="st34" d="M1402.3,427.3c-8.3,2.3-16.2,6.4-22.8,12c-1.2,1-2.3,2.1-3,3.4c-0.7,1.4-0.9,3.1-0.1,4.4
				c0.7,1.2,2.2,1.9,3.6,2c1.4,0.1,2.8-0.3,4.2-0.7c5.7-2,10.9-5.7,14.7-10.4c-3,4-5.3,8.5-6.8,13.2c-0.2,0.8-0.5,1.7,0,2.4
				c0.5,0.7,1.5,0.9,2.4,0.8c2.7-0.3,4.9-2.5,6.3-4.9c1.4-2.4,2.3-5,3.6-7.4c-0.7,1.6-1.1,3.4-1.1,5.2c0,0.9,0.2,2,1,2.4
				c1.3,0.7,2.7-0.9,3.3-2.3c1.6-3.7,2.7-7.6,3.3-11.6c0.3,3.5,2.3,8.4,5.4,10c0.6,0.3,2.6,0.6,3.3,0.3c1.4-0.6,2.9-1.6,2.9-3.2
				c0-1.1-0.2-7.6-0.5-8.6c-0.4-1.2-1.7-1.5-2.1-2.7c-0.6-1.6-2.5,0.6-3.7-0.6c-2.8-3-7.7-2.4-11.6-3.8"/>
		</g>
		<path class="st21" d="M1416.5,382.8c-0.6,7-2.7,12.3-6.1,18.1c-3.4,5.9-7.4,11.3-10.4,17.4c-0.5,1-1,2.1-1.1,3.2
			c-0.1,1.3,0.2,2.6,0.5,3.8c0.5,1.6,1,3.1,1.9,4.5c1.7,2.7,2.7,9,5.6,9.5c2.9,0.5,12.8-4.5,15.7-5.3c0.7-0.2,2-4.9,2.3-5.6
			c1.9-4.7-2.4-0.1-4.6,2.6c-5.3,6.6,3.5-16.5,4.3-24.9c0.2-2.2,0.4-4.4,0.2-6.6C1424.4,394.2,1421.2,386.3,1416.5,382.8"/>
		<g class="st9">
			<defs>
				<path id="SVGID_27_" d="M1481.1,449.6c-26,3-52.3,5.9-78.3,1.5c-16.8-2.9-33.3-8.8-50.3-10.3c-2.7-0.2-5.9,0-7.2,2.7
					c-0.8,1.7-0.4,3.8,0.1,5.7c2.9,9.8,9.8,17.6,17.7,22.5c7.9,4.9,16.8,7.3,25.6,9c18.7,3.6,37.9,4.3,56.5,1
					c14.2-2.5,29.3-8.5,36.3-22.7c0.9-1.9,1.7-4.1,1.3-6.3s-2.7-3.9-4.4-2.8"/>
			</defs>
			<clipPath id="SVGID_28_">
				<use xlink:href="#SVGID_27_"  style="overflow:visible;"/>
			</clipPath>
			<path class="st35" d="M1342.3,464.9c44,11.1,90,11.3,135.4,9.1c0.8,0,1.8,0,2.2,0.7c0.3,0.4,0.2,1,0.1,1.4
				c-0.5,2.5-2.4,4.6-4.7,5.9c-2.2,1.3-4.8,1.9-7.3,2.5c-35,8.3-72,13.8-106.8,4.6c-6.3-1.7-12.9-4.1-16.6-9.5
				c-2.1-3-3-6.6-3.9-10.1c-0.2-0.9-0.4-1.8,0-2.6c0.4-0.8,1.7-1.1,2.1-0.3"/>
		</g>
		<path class="st21" d="M1164.7,564.6c-18.5,0.3-37-3.3-54-10.5c-4.8-2-9.6-4.4-13.6-7.7c-0.8-0.7-1.6-1.5-1.7-2.6
			c-0.1-1.4,1.4-2.5,2.8-3c3.4-1.2,7.2-0.8,10.9-0.3c14.7,1.8,29.4,4,44.1,6.5c-18.6-3.1-37.2-6.2-55.4-11.2
			c-6.7-1.8-13.3-3.9-19.4-7.2c-1.6-0.9-3.4-2.4-2.8-4.1c0.4-1.2,1.7-1.8,2.9-2.1c6-1.7,12.3-1.3,18.5-0.8
			c17.9,1.6,35.6,4.5,53.4,7.5c-17.9-2.6-35.3-7.8-51.7-15.4c-4.5-2.1-9-4.4-13-7.4c-1.6-1.2-3.3-3.1-2.5-4.9c0.7-1.5,2.6-1.9,4.3-2
			c6.7-0.2,13.3,1.2,19.8,2.7c14.2,3.1,28.4,6.3,42.6,9.4c-18.6-5.4-37.6-11.1-52.7-23.3c-1.4-1.1-4.3-4.2-3.2-5.6
			c0.7-0.8,1-1.7,4.8-1.3c6.2,0.6,12.4,1.4,18.4,2.9c24.7,5.9,49,15.1,70.5,28.6c6.5,4.1,12.9,9,17,15.6c4.1,6.6,5.6,15.2,2.1,22.1
			c-2.9,6-9,9.9-15.4,11.7s-13.1,1.9-19.8,1.9"/>
		<path class="st36" d="M1184.9,503c-7-2.2-14.4-3.4-21.8-3.4c-0.6,4.5,0.3,9,1.1,13.4c3.1,16.3,6.2,32.6,9.2,49
			c0.4,1.9,0.7,3.8,2,5.3c2.9,3.4,8.9,2.1,11.6-1.4s3.1-8.3,3.4-12.8c0.8-14.1,1.6-28.3-1.2-42.1c-0.8-3.7-2.6-8.1-6.4-8.5"/>
		<path class="st37" d="M1405.5,644.1c15.1,21.2,36.9,36.8,60.4,47.9c23.5,11.1,48.8,17.9,74,24.1c75.1,18.4,151.6,32,228.8,37
			c11.1,34.2,33.3,63.2,50.8,94.7c-63.6,2.2-127.5,4.4-190.8-2.6c-63.3-7-126.4-23.6-180.8-56.5c-16.1-9.7-31.4-20.9-43.5-35.3
			c-9.3-11.2-16.5-24.1-21.7-37.7c-7.6-19.9-10.9-41.3-10.7-62.6c11.5-4.4,23.8-6.6,36.1-6.4"/>
		<g class="st9">
			<defs>
				<path id="SVGID_29_" d="M1405.5,644.1c15.1,21.2,36.9,36.8,60.4,47.9c23.5,11.1,48.8,17.9,74,24.1c75.1,18.4,151.6,32,228.8,37
					c11.1,34.2,33.2,62.5,50.8,94.7c-63.6,2.2-127.5,4.4-190.8-2.6c-63.3-7-126.4-23.6-180.8-56.5c-16.1-9.7-31.4-20.9-43.5-35.3
					c-9.3-11.2-16.5-24.1-21.7-37.7c-7.6-19.9-10.9-41.3-10.7-62.6c11.5-4.4,23.8-6.6,36.1-6.4"/>
			</defs>
			<clipPath id="SVGID_30_">
				<use xlink:href="#SVGID_29_"  style="overflow:visible;"/>
			</clipPath>
			<path class="st38" d="M1392.7,629.6c18.2,37.1,37.4,75.3,69.6,101.2c22.3,17.9,49.5,28.7,77,36.9c84.1,25,173.4,27.7,260.8,20.5
				c1.5-0.1,3.2-0.4,4-1.6c0.7-1,0.6-2.4,0.5-3.6c-2.1-18.4-5.6-36.7-10.4-54.6c-26.5,3.7-53.5,2.3-80.2-0.6
				c-103.5-11.5-204.3-47.2-291.9-103.6c-5.6-3.6-11.7-7.4-18.3-6.9c-6.6,0.5-12.9,7.8-9.7,13.6"/>
			<path class="st39" d="M1392.5,634.4c2.4,14.9,8.5,29,14.5,42.8c10,23.2,20.3,46.9,36.9,65.9c29.4,33.7,74.4,48.7,117.9,58.9
				c85.4,20.1,175.9,27.2,260.1,2.8c1.4-0.4,2.8-0.8,3.7-1.9c1.3-1.5,1.2-3.7,1.1-5.7c-0.9-11.5-1.9-23.1-2.8-34.6
				c-75.8,5.2-152.7,1.5-226.4-16.9c-31.6-7.9-63.6-19-87.1-41.5c-10.5-10.1-19-22.1-29.9-31.8c-10.1-9-21.9-15.7-33.7-22.4
				c-10.1-5.7-20.2-11.5-30.3-17.2c-5.2-3-11.6-6-17-3.4c-6.6,3.2-7.2,12.2-6.9,19.5"/>
		</g>
		<path class="st8" d="M1535.1,484.9c113.5,97.4-4.4-24.5,10-20.7c40.1,10.5,34.4,23.5,49,58.9c14.6,35.4,11.1,39.6-8.2,72.4
			c-8,13.6-18.5,25.5-30,36c-9.9,9-20.6,17.2-32.8,22.3c-13.1,5.5-27.3,7.3-41.3,9c-17.6,2.2-35.4,4.3-53.1,3.8
			c-46.3-1.4-90.1-21-133.2-38.7c-38.1-15.6-76.6-30.1-115.5-43.2c8.1-26.5,8.8-55.4,1.8-82.3c23.5,10.7,49.6,13.2,74.2,21
			c22,7,42.6,18.3,64.8,24.7c22.7,6.6,46.5,7.9,70,9.1c18.6,0.9,37.4,1.8,55.8-1.4s38-9.4,52.6-21.7c27.4-23.1,23.4-19.7,35.9-54.1
			c1.5-4,2.6-4.8,0-8C1532.5,468.4,1538.5,482.6,1535.1,484.9"/>
		<path class="st40" d="M1258.8,418.8L1258.8,418.8L1258.8,418.8c12-9.8,29.8,0.9,26.6,16.1v0l0,0c15.5,1.6,20.4,21.7,7.4,30.2l0,0
			v0c9.8,12-0.9,29.8-16.1,26.6v0v0c-1.6,15.5-21.7,20.4-30.2,7.4v0l0,0c-12,9.8-29.8-0.9-26.6-16.1v0h0
			c-15.5-1.6-20.4-21.7-7.4-30.2v0v0c-9.8-12,0.9-29.8,16.1-26.6l0,0v0C1230.2,410.8,1250.3,405.9,1258.8,418.8z"/>
		<path class="st41" d="M1264.6,507.3c-6.9,1.7-14-0.8-18.2-6.4c-1.9,1.4-3.9,2.3-6.1,2.8l0,0c-5.7,1.4-12.1-0.3-16.4-4.6
			c-4.1-3.9-5.9-9.4-5.1-15c-7-1.1-12.5-6.2-14.2-13.2c-1.7-6.9,0.8-14,6.4-18.2c-3.3-4.6-4.2-10.3-2.4-15.7
			c1.9-5.8,6.7-10.3,12.4-11.7c2.2-0.5,4.4-0.6,6.7-0.3c1.1-7,6.2-12.5,13.2-14.2c6.9-1.7,14,0.8,18.2,6.4c1.9-1.4,3.9-2.3,6.1-2.8
			c5.7-1.4,12.1,0.3,16.5,4.6c4.1,3.9,5.9,9.4,5.1,15c7,1.1,12.5,6.2,14.2,13.2c1.7,6.9-0.8,14-6.4,18.2c3.3,4.6,4.2,10.3,2.4,15.7
			c-1.9,5.8-6.7,10.3-12.4,11.7c-2.2,0.5-4.4,0.6-6.7,0.3C1276.6,500,1271.5,505.6,1264.6,507.3z M1246.8,497.7l0.7,1
			c4.4,6.7,11.5,7.7,16.6,6.5c5.1-1.3,10.9-5.5,11.7-13.4l0.1-1.2l1.2,0.2c2.4,0.5,4.7,0.5,6.9-0.1c5-1.2,9.2-5.2,10.9-10.3
			c1.7-5,0.7-10.3-2.7-14.5l-0.8-0.9l1-0.7c6.7-4.4,7.7-11.5,6.5-16.6c-1.3-5.1-5.5-10.9-13.5-11.7l-1.2-0.1l0.2-1.2
			c1.1-5.3-0.5-10.5-4.3-14.2c-3.9-3.7-9.4-5.3-14.4-4c-2.2,0.5-4.3,1.6-6.1,3.1l-0.9,0.8l-0.7-1c-4.4-6.7-11.5-7.7-16.6-6.5
			c-5.1,1.3-10.9,5.5-11.7,13.4l-0.1,1.2l-1.2-0.2c-2.4-0.5-4.7-0.5-6.9,0.1c-5,1.2-9.2,5.2-10.9,10.3c-1.7,5-0.7,10.3,2.7,14.5
			l0.8,0.9l-1,0.7c-6.7,4.4-7.7,11.5-6.5,16.6c1.3,5.1,5.5,10.9,13.4,11.7l1.2,0.1l-0.2,1.2c-1.1,5.3,0.5,10.5,4.3,14.2
			c3.9,3.7,9.4,5.3,14.4,4c0,0,0,0,0,0c2.2-0.5,4.3-1.6,6.1-3.1L1246.8,497.7z"/>
		<path class="st42" d="M1279.9,441.3c-0.8,0.2-1.6,1.7-1.4,2.5c0.2,0.6,0.6,0.8,1.1,0.7c0,0,0,0,0.1,0c0.8-0.2,1.6-1.6,1.4-2.5
			C1280.9,441.3,1280.5,441.2,1279.9,441.3C1279.9,441.3,1279.9,441.3,1279.9,441.3z"/>
		<path class="st42" d="M1284.3,443c-1,0.2-2.2,1.5-3.2,3.1c-0.3,0.5-0.5,1-0.7,1.4c-0.7,1.5-1.8,3.5-2.2,3.6c-0.1,0-0.2,0-0.2-0.2
			c0-0.1,0-0.5,0.1-1.3c0.2-0.8,0.5-1.9,1-3.2l-1.1-0.7c-0.1,0.2-0.3,0.6-0.5,0.9c-0.2,0.4-0.4,0.9-0.5,1.2c-1,2.2-2.6,5.4-3.3,5.5
			c-0.1,0-0.1,0-0.1-0.1c-0.1-0.3,0.2-1.1,1-2.7c0.8-1.5,1-2.5,0.9-3.1c-0.2-0.9-0.8-1-2.7-0.9c-0.8,2.3-2.1,5.7-2.7,5.8
			c-0.1,0-0.2,0-0.2-0.1c-0.1-0.4,0.2-1.5,0.9-3.5l0.7-1.9l-1-0.7l-0.5,1.2c-0.8,1.7-2.5,5.7-3,5.8c-0.1,0-0.2,0-0.2-0.2
			c-0.1-0.3,0-0.8,0.2-1.7c0.2-0.8,0.6-2,1.2-3.2l-1.2-0.7c-0.3,0.6-0.7,1.4-1,2.1c-0.1,0.2-0.2,0.4-0.2,0.6
			c-0.6,1.5-2.5,5.5-3.7,5.8c-0.4,0.1-0.6-0.1-0.8-0.7c-0.1-0.3-0.1-0.7,0-1.1c2.1-1.4,4.2-4,3.8-5.3c-0.1-0.5-0.5-0.9-1.3-0.7
			c-1,0.2-2.2,1.4-3.1,3.1c-0.4,0.7-0.7,1.3-0.9,1.9c-1.4,3.1-2.1,3.8-2.5,3.9c-0.2,0-0.3-0.1-0.4-0.4c-0.2-0.7,0-1.9,0.5-3.6
			c2-2.5,3.3-4.3,4.2-6.2c0.8-1.8,1.2-3,1-3.9c-0.2-0.7-0.5-1-1.1-0.9c-0.6,0.1-1.3,0.9-2.2,2.8c-0.7,1.3-1.4,2.8-2,4.4
			c-0.2,0.4-0.3,0.8-0.4,1.2c-0.1-0.2-0.1-0.3-0.2-0.5c-1,0.3-2,0.6-3,1c0.9-2.9,1.9-5.7,2.8-8.1c1.4-0.6,3.2-1.3,5.7-2.2l-0.5-1.2
			c-1.7,0.4-5.5,1.7-9.8,3.7c0.3,0.7,0.9,1.6,0.9,1.6c0.5-0.3,1.1-0.7,1.8-1c-0.8,2.1-1.9,4.9-2.9,8c-0.6,0.2-1.1,0.4-1.5,0.6
			c0.4,0.7,0.6,1.1,0.8,1.5c-0.8,2.5-1.6,5.1-2.1,7.4c0,0,1.1,0.9,1.6,1.2c0.6-2.6,1.6-6.1,2.7-9.6c1.2-0.5,2.3-1,3.4-1.4
			c-0.8,2.4-1.3,4.5-1,5.9c0.2,1,0.8,1.4,1.5,1.2c0.8-0.2,1.6-1.2,2.6-3c0,0.1,0,0.2,0.1,0.4c0.3,1.2,1.1,1.6,2,1.4
			c1.3-0.3,2.5-2.1,3.5-4.1c0,0.2,0,0.3,0.1,0.4c0.2,0.8,0.7,1.1,1.2,0.9c0.8-0.2,1.3-1.3,2.1-3l0,0c-0.1,0.5-0.1,0.9,0,1.2
			c0.2,0.7,0.7,0.9,1.1,0.8c1.3-0.3,2.8-3.9,3.6-6.2c0.1,0,0.1,0,0.2,0c0.5-0.1,0.6,0,0.6,0.1c0.1,0.3-0.2,1.1-0.8,2.5
			c-1,2.2-1.3,2.9-1.1,3.7c0.2,0.7,0.7,1,1.2,0.8c1-0.3,2.2-2,3.1-3.9c0,0.2,0,0.4,0.1,0.5c0.2,0.8,0.7,1.1,1.3,0.9
			c0.7-0.2,1.4-1.2,2.1-2.3c0,0.2,0,0.4,0.1,0.6c0.3,1.1,1.1,1.6,2.1,1.4c1.2-0.3,2.3-1.4,3.6-3.4l-0.2-1.4
			c-1.6,2.4-2.2,3.3-2.9,3.5c-0.3,0.1-0.7-0.1-0.9-0.8c-0.1-0.3-0.1-0.7,0-1.1c2.2-1.4,4.3-4,3.9-5.4
			C1285.4,443.2,1285,442.8,1284.3,443z M1261.9,452.3c0.6-1.5,1.5-2.8,1.8-2.8c0.1,0,0.1,0,0.1,0.1c0.2,0.7-1.1,2.8-2.5,4.1
			C1261.5,453.2,1261.7,452.8,1261.9,452.3z M1258.8,449.6c0.7-1.9,1.3-3.6,1.8-4.6c0.3-0.7,0.6-1.1,0.8-1.2c0.1,0,0.2,0,0.2,0.1
			c0.1,0.4-0.1,1.2-0.7,2.6c-0.7,1.5-1.6,3.1-2.7,4.8C1258.4,450.8,1258.6,450.2,1258.8,449.6z M1281.8,448.2
			c0.1-0.5,0.3-0.9,0.5-1.3c0.7-1.5,1.6-2.8,1.9-2.9c0.1,0,0.1,0,0.2,0.1C1284.6,444.8,1283.3,446.9,1281.8,448.2z"/>
		<path class="st42" d="M1232.2,452.3c-0.9,0.2-1.6,1.8-1.4,2.6c0.2,0.6,0.6,0.8,1.1,0.7c0,0,0,0,0.1,0c0.9-0.2,1.7-1.7,1.4-2.6
			C1233.3,452.3,1232.8,452.2,1232.2,452.3C1232.3,452.3,1232.3,452.3,1232.2,452.3z"/>
		<path class="st42" d="M1245.9,452.3c-1,0.2-2.2,1.5-3.2,3.1c-0.3,0.5-0.5,1-0.7,1.5c-1.8,4-2.8,5.6-3.4,5.8
			c-0.2,0-0.3-0.1-0.4-0.4c-0.1-0.5-0.1-1.3,0.2-2.3c2.1-2.7,3.1-4.2,4-6.3c1-2.1,1.4-3.5,1.1-4.7c-0.2-0.7-0.5-1-1.1-0.9
			c-0.5,0.1-1.1,0.8-2,2.5c-0.6,1.2-1.1,2.2-1.8,3.8c-0.9,2.3-1.7,4.5-1.9,6.4c-0.9,1.3-1.9,2-2.3,2.1c-0.2,0.1-0.4-0.1-0.5-0.4
			c-0.1-0.5-0.1-1.2,0.1-2.2c1.9-2.6,3.2-4.6,4.1-6.5c1-2.2,1.6-3.8,1.3-5c-0.2-0.7-0.5-1-1.1-0.9c-0.6,0.1-1.2,0.9-2.2,2.8
			c-0.7,1.3-1.4,2.8-2,4.4c-0.4,1.1-0.8,2.1-1.1,3.2c-0.6,1.5-2,4.4-2.5,4.5c-0.1,0-0.2,0-0.2-0.2c0-0.2,0-0.7,0.2-1.8
			c0.2-0.8,0.5-1.9,1-3.2l-1.2-0.7c-0.1,0.2-0.3,0.6-0.5,0.9c-1.2,2.7-1.5,4.3-1.2,5.4c0.2,0.9,0.8,1.2,1.4,1
			c0.7-0.2,1.5-1.3,2.2-2.5c0,0.5,0,1,0.1,1.4c0.2,1,0.8,1.3,1.6,1.2c0.8-0.2,1.8-1.2,2.7-2.4c0,0.3,0,0.7,0.1,1
			c0.2,1,0.8,1.3,1.5,1.2c1-0.2,2-1.8,3.3-4.4c0,0.1,0,0.2,0.1,0.4c0.3,1.1,1.1,1.6,2.1,1.4c1.2-0.3,2.3-1.4,3.6-3.4l-0.2-1.4
			c-1.6,2.4-2.2,3.3-2.9,3.5c-0.3,0.1-0.7-0.1-0.9-0.8c-0.1-0.3-0.1-0.7,0-1.1c2.2-1.4,4.3-4,3.9-5.4
			C1247.1,452.4,1246.7,452.1,1245.9,452.3z M1240.2,454.3c0.7-1.8,1-2.8,1.5-3.8c0.3-0.7,0.6-1.1,0.8-1.2c0.1,0,0.2,0,0.2,0.1
			c0.1,0.5-0.2,1.6-1.1,3.6c-0.8,1.7-1.6,3.3-2.7,5.1C1239.2,457,1239.7,455.7,1240.2,454.3z M1235.8,455.1c0.7-2,1.3-3.6,1.8-4.6
			c0.3-0.7,0.6-1.1,0.7-1.2c0.1,0,0.2,0,0.2,0.1c0.1,0.5-0.3,1.7-1.2,3.8c-0.7,1.6-1.6,3.3-2.7,5
			C1235,457.3,1235.4,456.2,1235.8,455.1z M1243.4,457.5c0.1-0.5,0.3-0.9,0.5-1.3c0.7-1.5,1.6-2.8,1.9-2.9c0.1,0,0.1,0,0.2,0.1
			C1246.2,454,1244.9,456.1,1243.4,457.5z"/>
		<path class="st42" d="M1221.8,470c0.5-0.9,10.2-20.5,11.4-22.9c-0.5-0.4-1.4-1.1-1.4-1.1c-3.5,7.4-7.5,16-9.9,21.1
			c0.2-4.1,0.4-10.2,1.1-16.6c-0.9-0.4-1.8-0.8-1.8-0.8c-1,9.5-1,18.3-0.9,19.9L1221.8,470z"/>
		<path class="st42" d="M1230.6,478.6l-1.1,0.3l0.3,1.8l-1.6,0.4l-1.2-10.7l2.2-0.5l4,10l-1.8,0.4L1230.6,478.6z M1229.2,477
			l0.8-0.2l-1.3-3.5L1229.2,477z"/>
		<path class="st42" d="M1239.6,467.2l2.3,6.4l-1-6.7l1.8-0.4l1.2,10.7l-2.1,0.5l-2-5.6l0.9,5.8l-2.2,0.5l-3.9-10.1l1.9-0.5l2.2,6.5
			l-1-6.8L1239.6,467.2z"/>
		<path class="st42" d="M1252,473.3l-1.1,0.3l0.3,1.8l-1.6,0.4l-1.2-10.7l2.2-0.5l4,10l-1.8,0.4L1252,473.3z M1250.7,471.8l0.8-0.2
			l-1.3-3.5L1250.7,471.8z"/>
		<path class="st42" d="M1261.3,472.9l-1.9,0.5l-2.6-10.4l2.9-0.7c1.1-0.3,1.9,0.2,2.1,1.3l0.4,1.7c0.2,0.9-0.2,1.4-0.5,1.6
			c0.3,0,0.9,0.3,1.1,1l0.9,3.5c0.1,0.4,0.2,0.6,0.3,0.7l0,0.1l-1.9,0.5c-0.1-0.1-0.3-0.3-0.4-0.8l-0.7-3c-0.1-0.5-0.3-0.6-0.6-0.5
			l-0.4,0.1L1261.3,472.9z M1259.8,466.7l0.4-0.1c0.4-0.1,0.5-0.3,0.4-0.8l-0.3-1.4c-0.1-0.4-0.2-0.6-0.6-0.5l-0.4,0.1L1259.8,466.7
			z"/>
		<path class="st42" d="M1266.8,460.5l2.6-0.7c1.4-0.3,2.2,0.1,2.6,1.7l1.4,5.9c0.4,1.5,0.1,2.4-1.5,2.8l-2.6,0.7L1266.8,460.5z
			 M1270.8,468.7l0.4-0.1c0.4-0.1,0.5-0.4,0.4-0.9l-1.4-5.6c-0.1-0.5-0.3-0.7-0.7-0.6l-0.4,0.1L1270.8,468.7z"/>
		<path class="st42" d="M1279.2,457.3c1.5-0.4,2.2,0.1,2.5,1.5l0.3,1.4l-1.8,0.4l-0.3-1.3c-0.1-0.3-0.2-0.5-0.5-0.4
			c-0.3,0.1-0.4,0.3-0.3,0.7l0.1,0.2c0.1,0.5,0.3,0.8,0.9,1.2l1.4,0.9c1.2,0.8,1.6,1.5,1.8,2.4l0.1,0.5c0.4,1.6-0.1,2.7-1.6,3.1
			l-0.4,0.1c-1.4,0.3-2.3-0.2-2.7-1.6l-0.5-1.9l1.8-0.5l0.4,1.7c0.1,0.4,0.3,0.6,0.6,0.5c0.3-0.1,0.4-0.4,0.3-0.9l0-0.2
			c-0.2-0.7-0.3-1-1-1.5l-1.4-0.9c-1-0.6-1.4-1.4-1.6-2.4l-0.1-0.4c-0.3-1.3,0.3-2.3,1.6-2.6L1279.2,457.3z"/>
		<path class="st41" d="M1244.1,430.5l1,0.3c0-0.2,0.1-0.3,0.2-0.4l-0.7-0.8c-0.1-0.1-0.2-0.1-0.3-0.2c-0.3-0.1-0.6,0.1-0.7,0.4
			C1243.6,430.1,1243.8,430.4,1244.1,430.5z"/>
		<path class="st41" d="M1244.3,431.8l0.9-0.5c0-0.1-0.1-0.1-0.1-0.2c0-0.1,0-0.2,0-0.2l-1.1-0.1c-0.1,0-0.2,0-0.3,0.1
			c-0.3,0.2-0.4,0.5-0.2,0.8S1244.1,432,1244.3,431.8z"/>
		<path class="st41" d="M1245.4,430.4c0.1,0,0.1-0.1,0.2-0.1s0.2,0,0.2,0l0.1-1.1c0-0.1,0-0.2-0.1-0.3c-0.2-0.3-0.5-0.4-0.8-0.2
			s-0.4,0.5-0.2,0.8L1245.4,430.4z"/>
		<path class="st41" d="M1246.3,430.5l0.8-0.7c0.1-0.1,0.1-0.2,0.2-0.3c0.1-0.3-0.1-0.6-0.4-0.7c-0.3-0.1-0.6,0.1-0.7,0.4l-0.3,1
			C1246.1,430.3,1246.2,430.4,1246.3,430.5z"/>
		<path class="st41" d="M1248,430.2c-0.2-0.3-0.5-0.4-0.8-0.2l-0.9,0.5c0,0.1,0.1,0.1,0.1,0.2c0,0.1,0,0.2,0,0.2l1.1,0.1
			c0.1,0,0.2,0,0.3-0.1C1248.1,430.8,1248.2,430.5,1248,430.2z"/>
		<path class="st41" d="M1247.5,431.3l-1-0.3c0,0.2-0.1,0.3-0.2,0.4l0.7,0.8c0.1,0.1,0.2,0.1,0.3,0.2c0.3,0.1,0.6-0.1,0.7-0.4
			C1247.9,431.7,1247.8,431.4,1247.5,431.3z"/>
		<path class="st41" d="M1246.2,431.5c-0.1,0-0.1,0.1-0.2,0.1c-0.1,0-0.2,0-0.2,0l-0.1,1.1c0,0.1,0,0.2,0.1,0.3
			c0.2,0.3,0.5,0.4,0.8,0.2c0.3-0.2,0.4-0.5,0.2-0.8L1246.2,431.5z"/>
		<path class="st41" d="M1245.3,431.3l-0.8,0.7c-0.1,0.1-0.1,0.2-0.2,0.3c-0.1,0.3,0.1,0.6,0.4,0.7c0.3,0.1,0.6-0.1,0.7-0.4l0.3-1
			C1245.5,431.5,1245.4,431.4,1245.3,431.3z"/>
		<path class="st41" d="M1257.8,486l1,0.3c0-0.2,0.1-0.3,0.2-0.4l-0.7-0.8c-0.1-0.1-0.2-0.1-0.3-0.2c-0.3-0.1-0.6,0.1-0.7,0.4
			C1257.3,485.6,1257.5,485.9,1257.8,486z"/>
		<path class="st41" d="M1258,487.3l0.9-0.5c0-0.1-0.1-0.1-0.1-0.2c0-0.1,0-0.2,0-0.2l-1.1-0.1c-0.1,0-0.2,0-0.3,0.1
			c-0.3,0.2-0.4,0.5-0.2,0.8C1257.4,487.3,1257.7,487.4,1258,487.3z"/>
		<path class="st41" d="M1259.1,485.8c0.1,0,0.1-0.1,0.2-0.1s0.2,0,0.2,0l0.1-1.1c0-0.1,0-0.2-0.1-0.3c-0.2-0.3-0.5-0.4-0.8-0.2
			c-0.3,0.2-0.4,0.5-0.2,0.8L1259.1,485.8z"/>
		<path class="st41" d="M1260,485.9l0.8-0.7c0.1-0.1,0.1-0.2,0.2-0.3c0.1-0.3-0.1-0.6-0.4-0.7s-0.6,0.1-0.7,0.4l-0.3,1
			C1259.7,485.7,1259.9,485.8,1260,485.9z"/>
		<path class="st41" d="M1261.7,485.6c-0.2-0.3-0.5-0.4-0.8-0.2l-0.9,0.5c0,0.1,0.1,0.1,0.1,0.2c0,0.1,0,0.2,0,0.2l1.1,0.1
			c0.1,0,0.2,0,0.3-0.1C1261.7,486.2,1261.8,485.9,1261.7,485.6z"/>
		<path class="st41" d="M1261.1,486.7l-1-0.3c0,0.2-0.1,0.3-0.2,0.4l0.7,0.8c0.1,0.1,0.2,0.1,0.3,0.2c0.3,0.1,0.6-0.1,0.7-0.4
			C1261.6,487.1,1261.4,486.8,1261.1,486.7z"/>
		<path class="st41" d="M1259.8,486.9c-0.1,0-0.1,0.1-0.2,0.1s-0.2,0-0.2,0l-0.1,1.1c0,0.1,0,0.2,0.1,0.3c0.2,0.3,0.5,0.4,0.8,0.2
			c0.3-0.2,0.4-0.5,0.2-0.8L1259.8,486.9z"/>
		<path class="st41" d="M1258.9,486.8l-0.8,0.7c-0.1,0.1-0.1,0.2-0.2,0.3c-0.1,0.3,0.1,0.6,0.4,0.7c0.3,0.1,0.6-0.1,0.7-0.4l0.3-1
			C1259.2,487,1259,486.9,1258.9,486.8z"/>
		<path class="st21" d="M1156.2,428.8c15.8-9.5,33.6-15.7,52-18.1c5.2-0.7,10.5-1,15.6-0.2c1,0.2,2.2,0.5,2.7,1.4
			c0.8,1.2,0,2.8-0.9,4c-2.4,2.8-5.9,4.3-9.2,5.8c-13.7,5.8-27.5,11.3-41.4,16.5c17.6-6.7,35.3-13.4,53.5-18.2
			c6.7-1.8,13.5-3.4,20.4-3.6c1.8-0.1,4.1,0.3,4.5,2.1c0.3,1.2-0.6,2.4-1.5,3.3c-4.3,4.5-10,7.3-15.6,10
			c-16.3,7.7-33.1,14-49.9,20.4c16.8-6.7,34.5-11,52.4-12.8c5-0.5,10-0.8,15-0.2c2,0.2,4.4,1,4.6,3c0.2,1.7-1.3,3-2.7,3.9
			c-5.7,3.5-12.1,5.6-18.5,7.7c-13.8,4.4-27.7,8.8-41.5,13.3c18.8-4.6,38.1-9.3,57.2-6.4c1.7,0.3,5.8,1.5,5.6,3.2
			c-0.1,1,0,1.9-3.5,3.5c-5.6,2.6-11.4,5-17.4,6.8c-24.3,7.3-49.9,11.6-75.3,10.7c-7.7-0.3-15.7-1.3-22.5-4.9
			c-6.8-3.6-12.4-10.3-13-18.1c-0.5-6.6,2.8-13.1,7.4-17.9c4.6-4.8,10.4-8.2,16.1-11.5"/>
		<path class="st36" d="M1138.8,425.2c7.9,21,15.9,41.9,23.8,62.9c-9.6,0.6-19.2,2-28.6,4.2c-4.3-15.3-8.2-30.7-11.7-46.2
			c-0.2-0.9-0.4-1.8-0.2-2.6c0.2-1.1,0.9-1.9,1.6-2.7c4.7-5.5,9.9-10.7,15.3-15.4"/>
	</g>
	<g class="st7">
		<path class="st43" d="M2247.7-184.9"/>
		<rect x="1743.3" y="-312.2" class="st44" width="588.6" height="705.4"/>
		<polygon class="st43" points="1743.3,-312.2 1779.5,-275.2 1779.5,347.9 1743.3,393.2 		"/>
		<polyline class="st43" points="2298.6,-275.2 2331.9,-312.2 2331.9,393.2 2298.6,347.9 2298.6,-275.2 		"/>
		<path class="st43" d="M1763.7-291.3c0.4,0.4,551.5,0,551.5,0v661.9h-551.5V-291.3z"/>
		<polygon class="st45" points="1763.7,-291.3 1779.5,-275.2 1779.5,347.9 1763.7,370.5 		"/>
		<polygon class="st45" points="2315.2,-291.3 2298.6,-275.2 2298.6,347.9 2315.2,370.5 		"/>
		<rect x="1779.5" y="-275.2" class="st46" width="519.1" height="623.1"/>
		<g>
			<defs>
				<rect id="SVGID_31_" x="1779.5" y="-275.2" width="519.1" height="623.1"/>
			</defs>
			<clipPath id="SVGID_32_">
				<use xlink:href="#SVGID_31_"  style="overflow:visible;"/>
			</clipPath>
			<path class="st47" d="M2012.2,129.2c-83.1,51.7-148,131.9-181.3,223.9c41.6-7.3,84.3-2.6,126.4,1.3
				c66.7,6.1,133.6,10.2,200.6,13.5c50.2,2.5,100.4,4.5,150.7,6.1c-2.6-64.4-5.3-128.7-7.9-193.1c-0.2-4.6-0.4-9.4-2.1-13.7
				c-2.4-6.1-7.5-10.6-12.5-14.7c-25.1-20.4-54.5-35.5-85.7-44.1c-7.5-2.1-15.1-3.8-22.8-3.7c-10.2,0-20.1,3.1-29.9,6.1
				c-17.6,5.4-35.2,10.8-52.8,16.2c-17.2,5.3-34.7,10.6-52.7,11c-10,0.2-20-1.1-29.7-3.9"/>
			<path class="st48" d="M2036.8,167.3c-13.2,30.3-10.2,64.7-12.7,97.6c-2.4,31.4-9.9,62.6-8.9,94.1c30.6,4.5,61.3,8.1,92.1,10.8
				c18.9-46.8,27.8-97.6,26.1-148c-0.4-11-1.4-22.5-7.4-31.8c-5.1-7.8-13.1-13.1-21.2-17.7c-16.8-9.5-34.8-16.9-53.5-21.9
				c-1.7-0.5-3.6-0.9-5.2-0.2c-1.4,0.6-2.4,1.8-3.3,3.1c-3.6,5.2-6.3,11-7.9,17.1"/>
			<path class="st49" d="M2049.7,227c-10.8,15.6-15.4,34.6-19.2,53.2c-5.8,28.7-10.4,58.2-6.5,87.2c0.6,4.4,1.6,9.2,5.2,11.8
				c2.2,1.6,5.1,2.1,7.8,2.5c15.5,2.1,31.2,2.5,46.8,1c1.6-0.1,3.3-0.4,4.5-1.3c1.7-1.3,2.1-3.6,2.5-5.7c6.9-41.3,13.7-84,3.5-124.6
				c-2.4-9.6-6.3-19.6-14.4-25.3c-3.6-2.5-7.8-3.9-12.1-4.6c-5.6-0.9-11.7-0.3-16.5,2.8C2046.5,227.1,2048.6,221.4,2049.7,227"/>
			<g class="st50">
				<defs>
					<path id="SVGID_33_" d="M2049.7,227c-10.8,15.6-15.4,34.6-19.2,53.2c-5.8,28.7-10.4,58.2-6.5,87.2c0.6,4.4,1.6,9.2,5.2,11.8
						c2.2,1.6,5.1,2.1,7.8,2.5c15.5,2.1,31.2,2.5,46.8,1c1.6-0.1,3.3-0.4,4.5-1.3c1.7-1.3,2.1-3.6,2.5-5.7
						c6.9-41.3,13.7-84,3.5-124.6c-2.4-9.6-6.3-19.6-14.4-25.3c-3.6-2.5-7.8-3.9-12.1-4.6c-5.6-0.9-11.7-0.3-16.5,2.8
						C2046.5,227.1,2048.6,221.4,2049.7,227"/>
				</defs>
				<clipPath id="SVGID_34_">
					<use xlink:href="#SVGID_33_"  style="overflow:visible;"/>
				</clipPath>
				<path class="st51" d="M2017.1,332c19.4-33.5,60.9-52.6,99-45.7c-3.1-11.1-6.7-22.1-11-32.9c-2.3-5.9-4.9-11.8-9-16.6
					c-7.4-8.7-19.3-12.7-30.7-12.5c-4.7,0.1-9.4,0.8-13.5,2.9c-5,2.6-8.7,7-11.9,11.6c-9.2,13.6-13.7,29.7-18.1,45.5
					c-2.7,9.7-5.3,19.3-8,29c-0.9,3.4-1.9,6.8-1.6,10.3c0.3,3.5,2,7.1,5.1,8.6"/>
			</g>
			<path class="st49" d="M2046.3,156.3c-4.5,15.8-6.8,32.2-6.9,48.7c0,9.2,1.2,19.5,8.4,25.2c3,2.4,6.6,3.7,10.3,4.7
				c8.2,2.3,17.1,3.2,25.2,0.4c2.3-0.8,4.5-1.9,6.1-3.6c1.9-2,3-4.8,3.8-7.5c4.5-13.9,6.6-28.5,6.1-43.1c-0.2-7.6-1.4-15.7-6.4-21.4
				c-4.6-5.2-11.6-7.4-18.3-9c-5.7-1.4-11.8-2.6-17.5-1c-5.7,1.6-10.8,6.8-10.4,12.7"/>
			<path class="st52" d="M2039.3,112.7c-8.9,80.7-15.1,161.8-18.5,243c-39-3.1-78-6.3-117-9.4c26.9-64.5,43.8-134.2,83.3-191.9
				c13.1-19.1,30.2-37.7,53-42.1"/>
			<path class="st52" d="M2118.5,92.9c35.3-5.8,67.8-7.3,102.6,21.4c-10.3,27.6-12.9,57.7-15.6,87.3
				c-5.1,56.5-11.1,113.7-30.7,166.6c-22.3-1.4-44.7-1.1-66.9,0.9c12.3-44.3,16.6-90.6,19.8-136.7c1.8-26.4,3.3-52.8,1.7-79.2
				c-1.2-19.3-4.1-38.5-6.9-57.6c-0.9,0,0.9,0,0,0"/>
			<path class="st53" d="M2065.5,155.6c-17.8,4.4-33.6,20-40.5,36.9c1.9-9,0.5-22,0.1-31.2c-0.9-19.3,5.9-38.9,18.5-53.6
				c3.4-4,7.7-7.8,12.9-8.3c5.6,16.4,9.4,33.3,11.4,50.5c0.2,1.5-0.4,3.8-1.9,3.4"/>
			<path class="st54" d="M2050.6,86.7c1.2,11.4,2.5,22.7,3.7,34.1c1.3,12.2,2.7,24.7,7.8,35.9c5.3-7,11.6-13.3,18.6-18.6
				c9.9-7.5,21.6-13.3,28.8-23.4c9.5-13.3,9.3-30.9,8.7-47.3c-15.9,4.2-32.1,7.1-48.5,8.7c-4.3,0.4-8.7,0.8-12.6,2.7
				c-3.8,2-7,6-6.4,10.3"/>
			<path class="st48" d="M2118.4,89c-12.3,19.5-28.3,39.1-44.9,55.2c-4.5,4.3-9.4,6.7-11.5,12.6c14,1.1,27.1,10.8,37,20.9
				c9.8,10.1,17,22.4,23.5,34.9c9.6-11.6,14.2-26.7,15.2-41.7c1-15-1.3-30-4.3-44.8C2130.9,112.8,2127.5,97,2118.4,89
				C2118.4,89,2118.4,89.7,2118.4,89"/>
			<g class="st50">
				<defs>
					<path id="SVGID_35_" d="M2118.4,89c-12.3,19.5-28.3,39.1-44.9,55.2c-4.5,4.3-9.4,6.7-11.5,12.6c14,1.1,27.1,10.8,37,20.9
						c9.8,10.1,17,22.4,23.5,34.9c9.6-11.6,14.2-26.7,15.2-41.7c1-15-1.3-30-4.3-44.8C2130.9,112.8,2127.5,97,2118.4,89
						C2118.4,89,2118.4,89.7,2118.4,89"/>
				</defs>
				<clipPath id="SVGID_36_">
					<use xlink:href="#SVGID_35_"  style="overflow:visible;"/>
				</clipPath>
				<path class="st55" d="M2072.1,126.9c-4.9,7-3.1,17.3,2.7,23.5c5.9,6.2,15,8.7,23.5,8.1c8.5-0.6,16.7-3.8,24.4-7.5
					c11.6-5.6,23.6-13.8,26.2-26.4c9.6,22.5,11.6,48.1,5.7,71.8c-2.3,9.3-6,18.6-12.7,25.5c-12,12.2-33.2,13.9-46.9,3.8
					c-4-3-7.4-6.8-10.5-10.7c-4.6-5.7-8.8-11.8-12.1-18.4c-11.3-22.2-16.9-45.7-6.8-68.5"/>
			</g>
			<path class="st56" d="M1984.3-98.8c-6.5,9.5,1.7,24.4-4.1,34.2c-2.4,4-4.3,7.2-7.4,10.7c-8.2,9.2-17.2,19.2-18.5,31
				c-4,34.6-0.2,70.4,26,99.3c6.9,7.6,13.7,16.1,28.3,20.9c11.7,3.8,27.3,9,39.6,9.8c18.2,1.2,27,0.6,40.5-1.8
				c24.3-4.3,60-21.9,70-42.9c11.3-23.6,5.8-37.9,8.7-52.6s10.3-17.8,11.1-32.7c1.1-20.1,4.1-45.8-0.1-65.5s-16.2-39.4-36.3-48.3
				c-17.3-7.6-37.6-6.2-56.9-6.2c-26.3-0.1-53-3.3-78.8,1.5c-2.8,0.5-5.7,1.2-8,2.7c-2.6,1.7-4.2,4.2-5.6,6.8
				c-4.7,8.4-7.7,17.6-8.8,27c-0.5,3.9-1.6,8.8-5.8,9.5"/>
			<path class="st57" d="M2054.9-86c2.2-7.5,6.8-14.3,12.9-19.2c-2.7,2.4-4.8,5.4-6.2,8.8c-0.6,1.6-1,3.7,0.4,4.8
				c0.7,0.5,1.6,0.7,2.4,0.7c2.7,0.1,5.4-0.6,8-1.4c27.6-8.2,53.1-23.7,73-44.5c-1,4.4,0.2,9.2,2.4,13.1s5.3,7.4,8.4,10.7
				c1.8,1.9,3.6,3.9,5.8,5.3c1.4,1,3.1,1.7,4.8,1.6c2.9-0.3,5-3.2,5.2-6.1c0.3-2.9-0.8-5.7-2-8.4c-3.1-6.9-6.8-13.5-11.7-19.2
				c-2.7-3.1-5.8-6-9.6-7.7c-4.7-2.1-9.9-2.1-15-1.6c-11.6,1.1-22.9,4.9-32.8,10.9c-8.4,5.2-16.2,12.1-25.8,14.1
				c-4.9,1-10.3,0.7-14.6,3.3c-5.4,3.2-7.5,9.9-9.2,16.1c-0.8,3.1-1.7,6.4-1.3,9.6c0.4,3.2,2.3,6.5,5.4,7.5"/>
			<g class="st50">
				<defs>
					<path id="SVGID_37_" d="M1984.3-98.8c-6.5,9.5-2.2,22.4-8,32.2c-2.4,4-6.3,7.1-9.5,10.7c-8.2,9.2-11.3,21.3-12.6,33
						c-4,34.6-0.3,69.8,23.8,97.5c12.5,14.3,19.6,19.7,32.8,23.5c11.8,3.4,27.1-5.2,39.4-6.4c13.7-1.3,27.4-2.7,40.9-5.1
						c24.3-4.3,49-12.5,64.8-29.5c10.6-11.5,16.3-26,19.2-40.7s3-29.6,3.9-44.5c1.1-20.1,3.5-40.5-0.7-60.2s-16.2-39.4-36.3-48.3
						c-17.3-7.6-37.6-6.2-56.9-6.2c-26.3-0.1-53-3.3-78.8,1.5c-2.8,0.5-5.7,1.2-8,2.7c-2.6,1.7-4.2,4.2-5.6,6.8
						c-4.7,8.4-7.7,17.6-8.8,27c-0.5,3.9-1.6,8.8-5.8,9.5"/>
				</defs>
				<clipPath id="SVGID_38_">
					<use xlink:href="#SVGID_37_"  style="overflow:visible;"/>
				</clipPath>
				<path class="st58" d="M2063.9-127.7c0.2,28.6-10.1,57.2-28.6,79c-8,9.5-18,18.7-19.8,31c-0.9,6,0.2,13-3.9,17.5
					c-1.8,2-4.3,3.2-6.6,4.5c-15.5,9-24.4,28.2-21.1,45.8c3.2,17.1,16,30.8,20.8,47.5c1.3,4.5,1.5,10.4-2.5,12.9
					c-1.7,1.1-3.8,1.2-5.8,1.2c-12.1-0.4-22.4-8.9-30.9-17.6c-15-15.4-27.8-32.9-37.9-51.8c-3.4-6.4-6.6-13.1-8.5-20.1
					c-3.6-13.7-2.3-28.2-0.9-42.3c1.5-15.3,3-30.7,6.2-45.7c1.6-7.5,3.6-15,5.7-22.4c2.5-9.1,5.1-18.2,9.1-26.6
					c9.3-19.3,26.4-34.7,46.7-41.8c16.8-5.9,35.4-6.1,52.6-1.6c8.3,2.1,16.6,5.6,21.9,12.3s6,17.5-0.3,23.3"/>
			</g>
			<path class="st57" d="M2078.3-46.7c-1.8,3.4-1.6,7.3-0.8,11.2c0.6,2.7,1.5,5.4,3.9,7.8c2.4,2.4,6,4.2,9.7,5.7
				c9.4,3.6,20.4,4.6,29.1,2.5c8.7-2.1,14.8-7.5,15.2-14c0-0.3,0-0.6-0.2-0.9c-0.4-0.5-1.2-0.9-2-1.1c-4.8-1.6-9.7-3-14.6-4.3
				c-9.7-2.6-19.4-5.3-29.1-7.9c-2.2-0.6-4.5-1.2-6.7-1.2s-4.3,0.9-4.3,2.4"/>
			<path class="st59" d="M2042.9-52.1c0.4-2.1,0.7-6.5,0.6-10.1v0v0c0-1.8-0.1-3.3-0.4-4.3c0-0.1-0.1-0.2-0.1-0.2
				c-0.5-2.6-1.2-5.1-2.1-7.5c-1.4-4-3-8-6-10.9c-4.6-4.5-11.4-5.7-17.8-5.7c-3.7,0-7.3,0.3-10.8,1.3c-10.2,3-18,12.9-18.5,23.6
				l0.5-0.2c0,1.3,0.1,2.7,0.4,4c0.5,2.3,1.2,4.8,3.2,7c2,2.2,5.1,4.1,8.3,5.6c2.5,1.2,5.2,2.1,7.9,2.9c2.1,1,4.2,2,5.9,3.6
				c1.9,1.8,3.3,4.4,3.1,7.1c-0.1,1.4-0.6,2.6-1.3,3.8c-2.1,2-4,4.3-5.1,7c-0.9,2.3-1.3,4.8-1.4,7.3c-0.1,2.4,0.2,5,1.3,7.2
				c1.9,3.8,6.3,5.9,10.5,6.3c0.8-8.1,5.4-15.4,10.3-21.9c4.9-6.6,10.2-12.9,13.1-20.6C2045.1-48.6,2042.5-50.2,2042.9-52.1z"/>
			<path class="st56" d="M2171.8-27.9c0.1-6.2,5.1-11.3,10.3-14.7c6.5-4.3,14-7.4,21.8-7.3c7.8,0.1,15.8,3.8,19.8,10.5
				c1.7,2.8,2.6,6,3.3,9.3c1,5.2,1.3,10.6-0.4,15.6c-2,5.9-6.6,10.6-12,13.8c-5.4,3.1-11.5,4.7-17.6,5.7c-6.6,1.1-13.3,1.6-20,1.4
				c-2.1,0-4.3-0.2-6.3-1.1c-5.4-2.5-6.6-9.8-5.9-15.8c0.9-7.5,3.7-14.8,7.9-21.1"/>
			<path class="st57" d="M1978.1-62.4c2.6-13.2-2.9-27.7-13.5-36c-2.8-2.2-6.2-4-9.7-3.8c-6.7,0.3-11.2,7.4-12,14.1
				c-1,7.5,1.1,15.1,4.7,21.7c3.6,6.6,8.7,12.2,14.3,17.3c1.8,1.6,3.6,3.2,5.9,4.1c2.3,0.8,5,0.7,6.8-0.8c1.2-1.1,1.9-2.7,2.4-4.3
				c1.4-4.4,2-8.9,1.9-13.5"/>
			<path class="st47" d="M2165.3-108.1c-1.4,10.9,3,26.2,4.4,33.7c1.4,7.4-2.5,14.8-2.4,22.3c0,3.1,0.9,6.8,3.9,7.8
				c-0.9-3.7,0-7.9,2.4-10.8c-1,6.2-1.7,13.3,2.6,17.9c-0.1-2.9-0.1-5.7,0.1-8.6c0.9,5.9,3,11.5,6.2,16.5c-0.7-5.2,2.2-10,4.1-14.8
				c6.2-15.3,3.3-32.8-1.1-48.7c-0.9-3.3-1.9-6.6-3.7-9.4c-1.8-2.9-4.7-5.2-8.1-5.7c-2.1-0.3-4.6,0.3-5.8,2c-1.4,1.9-0.1-2.4,0,0"/>
			<path class="st47" d="M1995.8-130.4c-7.4,8.8-8.3,21.2-11.5,32.3c-2.2,7.8-5.7,15.2-10.3,21.8c1.3-4,2.6-8.1,3.8-12.1
				c-1.8,3.8-3.9,7.5-6.1,11.2c1.6-4.9,2.5-10.1,2.6-15.4c0.1-4.2-0.4-8.4-0.1-12.7c0.9-12.6,9.1-24.5,20.7-29.8
				c0.8-0.3,1.8-0.6,2.3,0c0.3,0.3,0.3,0.7,0.3,1.2c0.1,2.1-0.6,4.9-2.7,5.1"/>
			<path class="st60" d="M2238.5-112.3c-1-2.1-3.8-2.3-6.1-2.1c-4,0.4-8,1.5-11.8,3.1c4.8-2.6,9.3-5.8,13.5-9.4
				c1.8-1.5,3.5-3.3,4.2-5.5c0.5-1.7,0.3-3.4,0.1-5.1c-0.2-1.1-0.4-2.3-1.1-3.1c-0.9-1.1-2.5-1.5-4-1.7c-8.1-0.8-15.7,3.6-22.7,7.9
				s-14.8,8.5-22.8,7.2c-3.9-0.6-7.6-2.6-10.3-5.5c-3.8-4.2-5.4-9.8-8.3-14.6c-1.5-2.5-3.8-4.8-6.3-6.3c0.4-0.6,0.9-1.2,1.3-1.8
				c1.7-2.7,3-5.6,3.4-8.7c0.1-0.6,0.1-2.1-0.4-2.4c-1.4-0.8-3.4,0.8-3.7,1c-2,1.1-3.6,2.3-5.1,3.5c2.7-9.8,0.8-20.8-5.3-29
				c-1.3-1.7-3.8-3.4-5.3-1.9c-0.6,0.6-0.8,1.6-0.8,2.5c-0.6,7.2-0.3,14.4,1,21.5c-2.5-10.5-12.4-27.4-17.7-26.5
				c-5.1,3.8-0.5,18.1,3.1,26.3c-8.8-8.3-20.3-13.6-32.4-15c-19.9-2.3-41.1,5.9-59.4-2.1c-11.7-5.1-20-16.1-25.3-27.7
				c-3.2-6.9-5.6-14.2-10.1-20.4c-4.4-6.2-11.5-11.1-19.1-10.5c-6,12.8,0.3,27.2,8.1,39.6c-5.4-8.3-10.8-16.6-16.2-25
				c-1.2-1.8-2.6-3.8-4.7-4.3c-2.7-0.6-5.5,1.7-6.3,4.4c-0.8,2.7-0.1,5.6,0.7,8.3c3.8,12.6,13,20.2,20.4,33.2
				c-6.7-7.9-18.6-27.9-22-21.9c-1.5,8.8,3.4,17.3,9.1,24.2c8.6,10.5,19.4,19.2,31.4,25.5c-10.4-2-27.8-17.4-29.5-11.6
				c-2.9,5.3,2.2,11.3,7,14.9c7.4,5.6,15.3,10.6,23.6,15c-7.9-4.5-16.8-7.3-25.9-8.2c-2.7-0.3-5.8-0.3-7.8,1.6
				c-2.5,2.4-1.9,6.7,0.3,9.3c2.2,2.6,5.5,4,8.7,5.2c13,5,26.1,9.9,39.8,13c19.4,4.4,38.7,5,57.1,2c-1.2,0.7-2.4,1.3-3.5,2
				c-2.4,1.4-4.9,3.2-5.5,5.9c-0.1,0.6-0.2,1.2,0.1,1.7c0.5,1.1,2,1.1,3.2,1c25.2-2.7,49.7-12.3,70.1-27.4c1.7,2,4.1,3.8,6,5.6
				c2.8,2.8,4.9,6.2,6.9,9.6c3.1,5.2,6.2,10.3,8.9,15.7c2.8,5.5,5.2,11.3,8.4,16.6c3.2,5.3,7.4,10.2,13,13c2.3,1.2,5.1,1.9,7.3,0.8
				c2.1-1.1,3.2-3.8,3-6.2c-0.2-2.4-1.4-4.6-2.7-6.7c-3.1-4.8-7-9.1-11.5-12.6c5.4,3,10.9,6,16.8,7.6c6,1.6,12.6,1.6,18-1.2
				c1.5-0.8,3.1-2.5,2.3-4c-0.4-0.7-1.2-1.1-1.9-1.4c-7.1-3-14.8-4.6-22.5-4.8c12.6,1.3,25.5-1.2,36.7-6.9
				C2236.9-106.9,2239.8-109.6,2238.5-112.3z"/>
			<g class="st50">
				<defs>
					<path id="SVGID_39_" d="M2238.5-112.3c-1-2.1-3.8-2.3-6.1-2.1c-4,0.4-8,1.5-11.8,3.1c4.8-2.6,9.3-5.8,13.5-9.4
						c1.8-1.5,3.5-3.3,4.2-5.5c0.5-1.7,0.3-3.4,0.1-5.1c-0.2-1.1-0.4-2.3-1.1-3.1c-0.9-1.1-2.5-1.5-4-1.7
						c-8.1-0.8-15.7,3.6-22.7,7.9s-14.8,8.5-22.8,7.2c-3.9-0.6-7.6-2.6-10.3-5.5c-3.8-4.2-5.4-9.8-8.3-14.6
						c-1.5-2.5-3.8-4.8-6.3-6.3c0.4-0.6,0.9-1.2,1.3-1.8c1.7-2.7,3-5.6,3.4-8.7c0.1-0.6,0.1-2.1-0.4-2.4c-1.4-0.8-3.4,0.8-3.7,1
						c-2,1.1-3.6,2.3-5.1,3.5c2.7-9.8,0.8-20.8-5.3-29c-1.3-1.7-3.8-3.4-5.3-1.9c-0.6,0.6-0.8,1.6-0.8,2.5c-0.6,7.2-0.3,14.4,1,21.5
						c-2.5-10.5-12.4-27.4-17.7-26.5c-5.1,3.8-0.5,18.1,3.1,26.3c-8.8-8.3-20.3-13.6-32.4-15c-19.9-2.3-41.1,5.9-59.4-2.1
						c-11.7-5.1-20-16.1-25.3-27.7c-3.2-6.9-5.6-14.2-10.1-20.4c-4.4-6.2-11.5-11.1-19.1-10.5c-6,12.8,0.3,27.2,8.1,39.6
						c-5.4-8.3-10.8-16.6-16.2-25c-1.2-1.8-2.6-3.8-4.7-4.3c-2.7-0.6-5.5,1.7-6.3,4.4c-0.8,2.7-0.1,5.6,0.7,8.3
						c3.8,12.6,13,20.2,20.4,33.2c-6.7-7.9-18.6-27.9-22-21.9c-1.5,8.8,3.4,17.3,9.1,24.2c8.6,10.5,19.4,19.2,31.4,25.5
						c-10.4-2-27.8-17.4-29.5-11.6c-2.9,5.3,2.2,11.3,7,14.9c7.4,5.6,15.3,10.6,23.6,15c-7.9-4.5-16.8-7.3-25.9-8.2
						c-2.7-0.3-5.8-0.3-7.8,1.6c-2.5,2.4-1.9,6.7,0.3,9.3c2.2,2.6,5.5,4,8.7,5.2c13,5,26.1,9.9,39.8,13c19.4,4.4,38.7,5,57.1,2
						c-1.2,0.7-2.4,1.3-3.5,2c-2.4,1.4-4.9,3.2-5.5,5.9c-0.1,0.6-0.2,1.2,0.1,1.7c0.5,1.1,2,1.1,3.2,1c25.2-2.7,49.7-12.3,70.1-27.4
						c1.7,2,4.1,3.8,6,5.6c2.8,2.8,4.9,6.2,6.9,9.6c3.1,5.2,6.2,10.3,8.9,15.7c2.8,5.5,5.2,11.3,8.4,16.6c3.2,5.3,7.4,10.2,13,13
						c2.3,1.2,5.1,1.9,7.3,0.8c2.1-1.1,3.2-3.8,3-6.2c-0.2-2.4-1.4-4.6-2.7-6.7c-3.1-4.8-7-9.1-11.5-12.6c5.4,3,10.9,6,16.8,7.6
						c6,1.6,12.6,1.6,18-1.2c1.5-0.8,3.1-2.5,2.3-4c-0.4-0.7-1.2-1.1-1.9-1.4c-7.1-3-14.8-4.6-22.5-4.8c12.6,1.3,25.5-1.2,36.7-6.9
						C2236.9-106.9,2239.8-109.6,2238.5-112.3z"/>
				</defs>
				<clipPath id="SVGID_40_">
					<use xlink:href="#SVGID_39_"  style="overflow:visible;"/>
				</clipPath>
				<path class="st61" d="M2145.2-129.3c-3.3,2.5-2.1,2.4-6.2,3.2c-2.5,0.5-8.6,0-11-1s-4.4-3.4-4.2-6c0.1-1.7,1-3.2,1.9-4.6
					c2.7-4.1,5.7-8.1,8.8-11.9c-7.7,8.7-20.8,10.4-32.3,8.5c-11.5-1.9-22.3-6.7-33.7-9c-2.1-0.4-4.3-0.8-6.3-0.1
					c-2,0.7-3.7,2.7-3.4,4.8c0.4,2.4,3.1,3.6,5.4,4.3c3.6,1.1,7.3,1.9,11.1,2.3c-7.6,1.5-15.3-1.6-22.2-5
					c-13.6-6.7-24.7-14.7-36.8-23.7c-2.8-2.1-9.2-8.3-11-5.3c-1.1,4.6,0.9,9.5,4,13s7.4,5.9,11.5,8.2
					c-19.1-11.6-39.5-23.5-61.8-22.8c-2.3,0.1-4.6,0.3-6.7,1.2c-2.2,1-4,2.8-5.5,4.6c-6.3,7.7-9.7,17.7-9.1,27.7s4.9,19.6,12,26.5
					c6.3,6.2,14.5,10,22.6,13.4c29.6,12.1,61.6,18.3,93.7,18.3c11,0,22.2-0.8,32.7-4.3c10.6-3.5,20.1-9.7,29-16.4
					C2136.5-109.8,2145.5-118.5,2145.2-129.3"/>
			</g>
			<g class="st50">
				<defs>
					<path id="SVGID_41_" d="M2238.5-112.3c-1-2.1-3.8-2.3-6.1-2.1c-4,0.4-8,1.5-11.8,3.1c4.8-2.6,9.3-5.8,13.5-9.4
						c1.8-1.5,3.5-3.3,4.2-5.5c0.5-1.7,0.3-3.4,0.1-5.1c-0.2-1.1-0.4-2.3-1.1-3.1c-0.9-1.1-2.5-1.5-4-1.7
						c-8.1-0.8-15.7,3.6-22.7,7.9s-14.8,8.5-22.8,7.2c-3.9-0.6-7.6-2.6-10.3-5.5c-3.8-4.2-5.4-9.8-8.3-14.6
						c-1.5-2.5-3.8-4.8-6.3-6.3c0.4-0.6,0.9-1.2,1.3-1.8c1.7-2.7,3-5.6,3.4-8.7c0.1-0.6,0.1-2.1-0.4-2.4c-1.4-0.8-3.4,0.8-3.7,1
						c-2,1.1-3.6,2.3-5.1,3.5c2.7-9.8,0.8-20.8-5.3-29c-1.3-1.7-3.8-3.4-5.3-1.9c-0.6,0.6-0.8,1.6-0.8,2.5c-0.6,7.2-0.3,14.4,1,21.5
						c-2.5-10.5-12.4-27.4-17.7-26.5c-5.1,3.8-0.5,18.1,3.1,26.3c-8.8-8.3-20.3-13.6-32.4-15c-19.9-2.3-41.1,5.9-59.4-2.1
						c-11.7-5.1-20-16.1-25.3-27.7c-3.2-6.9-5.6-14.2-10.1-20.4c-4.4-6.2-11.5-11.1-19.1-10.5c-6,12.8,0.3,27.2,8.1,39.6
						c-5.4-8.3-10.8-16.6-16.2-25c-1.2-1.8-2.6-3.8-4.7-4.3c-2.7-0.6-5.5,1.7-6.3,4.4c-0.8,2.7-0.1,5.6,0.7,8.3
						c3.8,12.6,13,20.2,20.4,33.2c-6.7-7.9-18.6-27.9-22-21.9c-1.5,8.8,3.4,17.3,9.1,24.2c8.6,10.5,19.4,19.2,31.4,25.5
						c-10.4-2-27.8-17.4-29.5-11.6c-2.9,5.3,2.2,11.3,7,14.9c7.4,5.6,15.3,10.6,23.6,15c-7.9-4.5-16.8-7.3-25.9-8.2
						c-2.7-0.3-5.8-0.3-7.8,1.6c-2.5,2.4-1.9,6.7,0.3,9.3c2.2,2.6,5.5,4,8.7,5.2c13,5,26.1,9.9,39.8,13c19.4,4.4,38.7,5,57.1,2
						c-1.2,0.7-2.4,1.3-3.5,2c-2.4,1.4-4.9,3.2-5.5,5.9c-0.1,0.6-0.2,1.2,0.1,1.7c0.5,1.1,2,1.1,3.2,1c25.2-2.7,49.7-12.3,70.1-27.4
						c1.7,2,4.1,3.8,6,5.6c2.8,2.8,4.9,6.2,6.9,9.6c3.1,5.2,6.2,10.3,8.9,15.7c2.8,5.5,5.2,11.3,8.4,16.6c3.2,5.3,7.4,10.2,13,13
						c2.3,1.2,5.1,1.9,7.3,0.8c2.1-1.1,3.2-3.8,3-6.2c-0.2-2.4-1.4-4.6-2.7-6.7c-3.1-4.8-7-9.1-11.5-12.6c5.4,3,10.9,6,16.8,7.6
						c6,1.6,12.6,1.6,18-1.2c1.5-0.8,3.1-2.5,2.3-4c-0.4-0.7-1.2-1.1-1.9-1.4c-7.1-3-14.8-4.6-22.5-4.8c12.6,1.3,25.5-1.2,36.7-6.9
						C2236.9-106.9,2239.8-109.6,2238.5-112.3z"/>
				</defs>
				<clipPath id="SVGID_42_">
					<use xlink:href="#SVGID_41_"  style="overflow:visible;"/>
				</clipPath>
				<path class="st62" d="M2144.6-129.6c5.2,6.1,11.4,11.4,18.8,14.5c7.3,3.1,15.9,3.8,23.3,0.9c3.8-1.5,7.4-3.8,11.4-3.8
					c1.5,0,3.4,0.9,3.1,2.4c-0.1,0.6-0.5,1.1-1,1.5c-2.4,2.4-5.2,4.4-8.2,5.9c7.7-2.9,15.4-5.6,23.2-8.1c4.7-1.5,9.5-3,14.4-3.8
					c2.6-0.4,5.4-0.6,7.8,0.4c3.9,1.7,5.8,6.5,5.4,10.7c-0.4,4.3-2.7,8.1-5.2,11.5c-5.8,7.9-13,14.7-20.9,20.6
					c-6.7,5-14.2,9.5-22.5,10.7c-8.1,1.2-16.6-1-23.4-5.6s-12-11.4-15-19.1c-4.3-10.8-4.3-22.8-7.6-33.9c-0.5-1.8-1.9-4-3.6-3.4"/>
			</g>
			<path class="st63" d="M2001.9-82.9c-1.3,2.7-1.6,5.8-1.8,8.8c-0.3,3.7-0.5,7.5,1,10.9c2.7,6.2,10.8,8.9,17.3,6.8
				s11.1-8,13.4-14.4"/>
			<path class="st63" d="M2095.7-58.1c-1.3,2.7-1.6,5.8-1.8,8.8c-0.3,3.7-0.5,7.5,1,10.9c2.7,6.2,10.8,8.9,17.3,6.8
				c6.5-2.1,11.1-8,13.4-14.4"/>
			<path class="st63" d="M2095.2-36.4c-1.7,1.4-3.4,2.9-5,4.3"/>
			<path class="st63" d="M2103.1-31.2c-0.8,1.9-1.4,3.9-1.8,6"/>
			<path class="st63" d="M2112-31.5c0.2,2.4,0.4,4.8,0.5,7.2"/>
			<path class="st63" d="M2000.4-63c-1.8,1.2-3.7,2.4-5.5,3.6"/>
			<path class="st63" d="M2008.4-56c-0.8,1.8-1.5,3.7-2.1,5.6"/>
			<path class="st63" d="M2016.4-54.7c0.3,2.3,0.7,4.6,1,6.8"/>
			<path class="st47" d="M2146.5-80.8c-0.1-3.3-1.6-7.5-4-9.7c-2.5-2.2-5.6-3.5-8.7-4.6c-6.8-2.2-14.1-3.1-21.2-2.5
				c4.3,0.3,8.5,1.7,12.1,4.1c-5.6-2.6-12.3-2.9-18.1-0.8c3.7-0.4,7.6,0.4,10.9,2.2c-5.4-0.7-11-0.3-15.8,2.1
				c-4.8,2.5-8.6,7.3-8.9,12.7c5.1-5.4,13-6.8,20.4-7c7.7-0.2,16.5,1.4,20.4,8c-1.4-1.3-3.1-2.1-5-2.4c5.3,4.8,11,10.1,12,17.2
				c4.4-6.6,8.6-15,6.7-22.9"/>
			<path class="st47" d="M2034.7-114.5c-11.7-5.5-24.2-3.1-36,2.1c5.7-1,7.4-1.4,12.3-0.2c-8.4-1.7-17.6,4.5-19.1,13
				c1.7-1.6,3.7-2.9,5.8-4c-2.9,1.8-5.2,4.5-6.3,7.7c13-10.5,31.8-13.2,47.3-6.9c-3-0.9-6.2-1.5-9.3-1.6c5.3,1.8,10.1,5.3,13.5,9.8
				C2044.1-102.1,2040.7-110,2034.7-114.5"/>
			<path class="st60" d="M2037.6-18.4c-14.5,1.5-28.8,5.3-42.2,11.2c-1.5,0.7-3.1,1.5-4.1,2.8s-1.1,3.5,0.1,4.6
				c0.8,0.7,1.8,0.8,2.8,0.9c9.4,1,19.1-0.3,27.9-3.8c-7.3,1.8-13.8,6.4-17.8,12.8c-0.8,1.3-1.4,3.1-0.2,4.1
				c0.6,0.5,1.6,0.5,2.4,0.4c7.4-1,14.4-4.8,19.3-10.5c-2,2.1-3.3,4.7-3.7,7.6c-0.2,1.1-0.1,2.4,0.7,3.1c0.9,0.8,2.4,0.5,3.5,0
				c4.4-1.9,8-5.7,9.5-10.3c0.5,2.2-0.3,4.4-0.3,6.7s1.4,4.9,3.6,4.7c0.9-0.1,1.7-0.6,2.4-1.2c3.2-2.8,4.8-7.3,4.1-11.4
				c-1.3,5.2,3.1,13.1,7.3,12.6c2.9-1.1,1-9-0.8-13.1c-0.8,6.1,7.1,13.1,11.6,10.9c1.9-1.8-1.7-7.8-4.8-10.1c1,3.9,4.4,7.1,8.4,8
				c1.1,0.2,2.4,0.1,2.8-0.9c0.3-0.7-0.1-1.5-0.5-2.2c-1.6-2.7-3.6-5.1-6-7.2c2.9,2.4,5.3,5.6,8.7,7.2s8.6,0.5,9.3-3.2
				c0.5-2.2-0.9-4.4-2.2-6.2C2069.6-14.2,2054.4-19.3,2037.6-18.4"/>
			<path class="st64" d="M2041.7-18.2c-11.6-0.9-23.4,0.5-34.4,4.1c-1,0.3-2.2,0.8-2.6,1.8c-0.4,1,0.3,2.2,1.3,2.8
				c0.9,0.6,2.1,0.6,3.2,0.7c6.6,0.3,13.2-0.1,19.6-1.3c-2.7,2.2-4.3,5.7-4.2,9.1c0,0.6,0.1,1.3,0.5,1.8c0.8,0.9,2.3,0.6,3.4,0.1
				c4-1.9,7.3-5.2,9.1-9.2c-1.7,2.6-2.6,5.7-2.5,8.8c0,0.6,0.1,1.2,0.5,1.6c0.4,0.4,1,0.5,1.5,0.4c4.3-0.2,6.8-5.2,6.6-9.5
				c0.4,1.4,0.3,2.8,0.6,4.2c0.4,1.4,1.5,2.7,2.9,2.6c1.6-0.1,2.4-1.9,2.6-3.5c0.4-2.6-0.1-5.3-1.3-7.7c1.6,1.5,3.5,2.6,5.5,3.4
				c1,0.4,2,0.7,3,0.4c1-0.2,1.9-1.2,1.8-2.2c-0.1-0.8-0.7-1.4-1.3-1.9c-7.2-6.1-17.7-8.1-26.7-4.9"/>
			<path class="st63" d="M2009.5,23c2.1,5.1,6.5,9,11.4,11.4c5,2.4,10.5,3.4,16,3.8c12.8,1,27-1.5,35.2-11.3"/>
			<path class="st57" d="M2008.3,64.4c1.9,2.8,2.6,5.8,4.4,8.7c1.8,2.9,5.1,5.7,10.3,7.1c4.1,1.1,8.8,1.1,13.2,0.8s8.7-0.8,13.2-0.6
				c3.2,0.1,6.4,0.6,9.6,0.5c4.1-0.1,7.8-1.3,10.4-2.9s4.3-3.5,5.5-5.5c1.6-2.7,2.6-5.5,3.5-8.3c-3.1,1.8-6.2,3.6-9.9,5
				s-8.2,2.4-13,2.5c-4.2,0-8.4-0.7-12.6-0.8c-5.1-0.2-9.9,0.5-15,0.6c-1.8,0-3.7,0-5.5-0.3c-1.6-0.3-3-0.9-4.3-1.4
				c-3.8-1.6-7.2-3.4-10.3-5.4"/>
			<path class="st56" d="M2046.4-64.2c-1.9,8.1-5.2,14-10.1,20.3s-10.5,12-15,18.7c-0.8,1.1-1.5,2.3-1.8,3.6c-0.4,1.5-0.2,3,0,4.5
				c0.3,1.9,0.7,3.9,1.5,5.6c1.6,3.4,1.7,10.9,5,12s15.7-3.2,19.3-3.7c0.8-0.1,3.2-5.4,3.6-6.3c3-5.2,3.7-16.3,0.7-13.4
				c-7.3,6.8,0.2-3.1,2.5-12.8c0.6-2.6,1.1-5.1,1.3-7.7C2053.8-49.6,2051.3-59.3,2046.4-64.2"/>
			<path class="st57" d="M2206-23.3c-5.7-0.6-11.5,0.6-17.1,1.8c-2.8,0.6-5.8,1.4-7.7,3.6c0.9,0.7,2.1,0.8,3.3,0.8
				c7.5,0.2,15.1-1,22.2-3.3c0.6-0.2,1.3-0.5,1.7-1c0.4-0.5,0.5-1.4-0.1-1.8c-0.3-0.2-0.6-0.2-0.9-0.3c-1.3-0.1-2.6-0.1-3.9,0"/>
			<path class="st56" d="M2104.2,361.2c1.1-25.1-2.4-50.3-10.3-74.1c-1.9-5.7-5.5-12.4-11.5-12.3c-3.7,16.3,10.2,33.6,4,49.1
				c-3.6-1.5-5.3-5.4-6.9-9c-11.1-25.8-26.3-49.7-45.1-70.6c-2.7-3-6.6-6.2-10.3-4.7c0.3,12,7.4,22.6,13.8,32.8
				c9.5,15.1,18,31,25.3,47.3c-12.2-18.9-25.3-37.2-39.2-54.8c-4.5-5.7-10.8-11.9-17.7-9.9c1.5,8.9,5.8,17,10.1,25
				c9.4,17.3,19.3,34.3,29.7,51c-11.6-16.2-23.1-32.4-34.7-48.5c-5.6-7.8-12.4-16.4-22-17.1c0.3,6.7,4.2,12.6,7.9,18.2
				c12.1,18.2,24.3,36.4,36.4,54.6c-13.9-15.4-27.9-30.9-41.8-46.3c-2.7-3-5.9-6.2-9.9-6c-1.2,8,3.1,15.6,7.4,22.4
				c15,23.2,32.9,44.3,51.6,64.6c7.9,8.6,16.3,17.3,27,21.9c4.7,2.1,10,3.3,15.1,2.3c8.1-1.5,14.3-8.3,17.5-15.9
				c3.1-7.6,3.6-16,4.1-24.2"/>
		</g>
	</g>
	<g class="st7">
		<rect x="1781.8" y="489.9" class="st44" width="543.9" height="695.8"/>
		<polygon class="st43" points="1781.8,489.9 1815.2,524.1 1815.2,1143.9 1781.8,1185.7 		"/>
		<polyline class="st43" points="2294.9,524.1 2325.7,489.9 2372,1224.6 2294.9,1143.9 2294.9,524.1 		"/>
		<path class="st43" d="M1800.7,509.2c0.3,0.4,509.6,0,509.6,0v655.6h-509.6V509.2z"/>
		<polygon class="st45" points="1800.7,509.2 1815.2,524.1 1815.2,1143.9 1800.7,1164.8 		"/>
		<polygon class="st45" points="2310.3,509.2 2294.9,524.1 2294.9,1143.9 2310.3,1164.8 		"/>
		<rect x="1815.2" y="524.1" class="st65" width="479.6" height="619.8"/>
		<rect x="1832.9" y="541.7" class="st66" width="444.4" height="584.6"/>
		<g>
			<g>
				<rect x="1909.3" y="809" class="st67" width="296.2" height="8.3"/>
				<rect x="1909.3" y="831" class="st67" width="256.7" height="8.3"/>
				<rect x="1909.3" y="852.9" class="st67" width="277.1" height="8.3"/>
				<rect x="1909.3" y="874.8" class="st67" width="256.7" height="8.3"/>
				<rect x="1909.3" y="787.1" class="st67" width="286.4" height="8.3"/>
			</g>
			<g>
				<rect x="1909.3" y="942" class="st67" width="296.2" height="8.3"/>
				<rect x="1909.3" y="964" class="st67" width="262.7" height="8.3"/>
				<rect x="1909.3" y="985.9" class="st67" width="212.7" height="8.3"/>
				<rect x="1909.3" y="898.1" class="st67" width="286.7" height="8.3"/>
				<rect x="1909.3" y="920.1" class="st67" width="277.1" height="8.3"/>
			</g>
		</g>
		<g>
			<g>
				<path class="st67" d="M2102.5,628c4,5,5.4,11.4,7.6,17.1c2.3,5.9,5.5,11.6,5.8,17.8c0.3,6.2-2.3,12.3-3.9,18.3
					c-1.6,6-2.3,12.5-5.8,17.8c-3.3,5.1-8.9,8.5-13.9,12.5c-5,4-9.4,8.8-15.1,11c-5.9,2.3-12.4,1.6-18.6,1.9
					c-6.2,0.3-12.7,1.6-18.7,0c-6-1.6-10.9-5.9-16.2-9.4c-5.1-3.3-11.1-6-15.1-11c-4-5-5.4-11.4-7.6-17.1
					c-2.3-5.9-5.5-11.6-5.8-17.8c-0.3-6.2,2.3-12.3,3.9-18.3c1.6-6,2.3-12.5,5.8-17.8c3.3-5.1,8.9-8.5,13.9-12.5
					c5-4,9.4-8.8,15.1-11c5.9-2.3,12.4-1.6,18.6-1.9c6.2-0.3,12.7-1.6,18.7,0c6,1.6,10.9,5.9,16.2,9.4
					C2092.4,620.3,2098.4,623,2102.5,628z"/>
			</g>
			<circle class="st68" cx="2055.5" cy="666" r="42"/>
		</g>
		<path class="st69" d="M2134.3,1085.2c6.9-24.2,19.4-44.6,23.1-42.9c5.9,2.6-9.5,41.8-4,42.9c5.5,1.1,12.3-32.7,18-31.2
			c3.7,1-1.8,24.2,1.8,23.9c3.7-0.4,11.8-18.1,31.9-14.1c10.3,2-51.4,8.6-80,7.5"/>
	</g>
</g>
</svg>
