<?xml version="1.0" encoding="utf-8"?>
<!-- Generator: Adobe Illustrator 18.1.0, SVG Export Plug-In . SVG Version: 6.00 Build 0)  -->
<svg version="1.1" id="Calque_1" xmlns="http://www.w3.org/2000/svg" xmlns:xlink="http://www.w3.org/1999/xlink" x="0px" y="0px"
	 viewBox="0 0 296.8 142.1" enable-background="new 0 0 296.8 142.1" xml:space="preserve">
<g>
	<g>
		<g>
			<path fill="#F0E9DD" d="M275.7,29.7c-3.6,0.1-8.3,5.4-8.2,9c0.1,2.7,1.6,3.9,3.9,3.9c0.1,0,0.2,0,0.2,0c3.6-0.1,8.4-5.1,8.3-9
				c-0.1-2.8-1.6-3.9-3.9-3.9C275.9,29.7,275.8,29.7,275.7,29.7z"/>
		</g>
	</g>
	<g>
		<g>
			<path fill="#F0E9DD" d="M292.2,41.4c-4.3,0-10.8,3.8-16.3,9.8c-1.6,1.7-3,3.5-4.3,5.2c-4.3,5.4-10.9,12.7-13,12.7
				c-0.4,0-0.7-0.3-0.7-0.9c0-0.6,0.3-2.2,1.8-5.1c1.5-3.1,4.1-7.4,7.5-12l-3.9-3.9c-0.8,0.8-2,2.2-2.8,3.2
				c-1.3,1.6-2.4,3.2-3.4,4.6c-6.3,8.1-16.2,19.6-19.1,19.6c-0.3,0-0.5-0.3-0.5-0.6c0-1.2,1.8-4.3,6.7-10c4.8-5.6,6.7-9.4,6.7-12
				c0-3.8-2.3-4.9-10.3-6.3c-5.6,8.6-14.6,21.4-17.2,21.4c-0.4,0-0.7-0.3-0.7-0.8c0-1.8,2.2-6.1,7.3-13.5l4.9-7.1l-3.6-3.8l-3.3,4.3
				c-4.8,6.3-16.4,21.1-18.3,21.1c-0.4,0-0.7-0.3-0.7-0.8c0-1.3,0.8-3.3,2.6-6.7c1.8-3.3,4.7-7.4,8.1-12.1l-4.2-4.2
				c-2,2.2-4.2,5-6.2,7.9c-0.5,0.8-1,1.5-1.5,2.2c-4.2,5.4-16,20.3-21.3,20.3c-1.6,0-2.5-1.1-2.5-3.5c0-1.4,0.3-2.9,0.9-4.5
				c10.3-3.6,21.3-12.2,21.3-18.2c0-2.3-1.3-4.1-4.6-4.1c-4.3,0-10.5,3.8-15.9,9.5c-2.2,2.4-4.1,4.8-5.5,7.2
				c-9.1,11.3-12.6,13.6-14.2,13.6c-0.7,0-1.1-0.7-1.1-1.8c0-3.1,2-7.9,5.6-14.3c10.9-8.5,18.1-14.6,23.5-21.3c5.1-6.4,8-11,8-15.3
				c0-3-1.1-4.9-3.8-4.9c-2.4,0-6.2,2.5-12.1,9.4c-4,4.5-8.6,10.2-13,16.3c-1,1.5-2,2.9-3,4.4c-0.1-0.8-0.2-1.5-0.3-2.1
				c-4.4,0.2-9,0.6-13.4,1c6.7-11,13.7-21.8,19.8-30.8c6.5-1.1,14.7-2.3,26-3.3l-1-5.4c-7.3,0.1-24.5,1.5-44.2,5.2
				c0.6,3.1,2,7.6,2,7.6c2.6-0.8,5.3-1.6,8.5-2.4c-5.6,7.8-12.9,18.5-20.2,30c-2.7,0.4-5,0.7-6.6,1c0.9,3.3,1.3,5.1,1.8,6.8
				c-5.9,9.6-11.7,19.5-16.4,28.5c0,0,3.6,4.7,5.2,6.8c5.2-10.1,12.7-23.5,20.9-37c5.4-1,10.3-1.8,15.5-2.3
				c-5.8,8.9-10,17.3-10,23.4c0,4.3,1.8,6.4,4.8,6.4c3.5,0,8-3.4,13.9-9.9c-0.1,0.5-0.1,1.1-0.1,1.6c0,5.1,3,7.9,7,7.9
				c5.8,0,12.4-6,18.7-13.3c-0.1,0.7-0.2,1.3-0.2,1.9c0,3.4,1.8,5.1,4,5.1c3.3,0,6.8-4.2,11.8-10.1l0.2-0.2
				c-0.9,1.9-1.1,3.5-1.1,4.9c0,3.2,1.8,4.5,3.6,4.5c5.5,0,15.7-13.3,21.2-22c0.3,0,0.5,0,0.7,0c2.2,0,2.3,0.7,2.3,1.2
				c0,1.3-2.1,4.5-6,9.5c-6.5,8.3-8.2,10.8-8.2,14.4c0,3,1.8,4.7,4.2,4.7c4.5,0,11.1-6.2,16.9-13c-0.1,0.8-0.2,1.6-0.2,2.3
				c0,3.6,2,5.2,4.4,5.2c3,0,7.2-3.4,11.1-7.4c-0.1,0.8-0.2,1.6-0.2,2.4c0,4.9,3.1,7.8,7.1,7.8c5.2,0,10.8-3.4,18.5-10.4l0.5-5.9
				c-8.9,8.4-12.3,11.5-15.7,11.5c-1.5,0-2.8-1.3-2.8-4c0-1.4,0.3-2.9,0.9-4.5c10.5-3.7,21.8-12.3,21.8-18.4
				C296.8,43.2,295.5,41.4,292.2,41.4z M189.8,57c4.2-5.5,9.1-9.9,10.5-9.9c0.3,0,0.5,0.2,0.5,0.6c0,3.1-7.2,10.5-14.3,14.3
				C187.5,60.4,188.6,58.6,189.8,57z M179.9,42.6c4.9-7.3,9.2-13.5,12.4-17.3c2.1-2.6,3.5-4,4.3-4c0.4,0,0.8,0.3,0.8,0.8
				c0,1.8-1.6,4.8-5.6,10c-4.3,5.5-9.9,11.4-16.3,17.2C176.8,47.3,178.3,45,179.9,42.6z M276.7,60.2c1-1.8,2.1-3.5,3.3-5.1
				c4.3-5.7,9.5-10.1,11-10.1c0.4,0,0.6,0.2,0.6,0.7C291.6,48.8,284.1,56.2,276.7,60.2z"/>
		</g>
	</g>
	<g>
		<g>
			<path fill="#F0E9DD" d="M67.1,26.7c-3.8,0.1-8.6,5.6-8.5,9.4c0.1,2.8,1.7,4.1,4,4.1c0.1,0,0.2,0,0.2,0c3.8-0.1,8.7-5.4,8.6-9.4
				c-0.1-2.9-1.7-4.1-4.1-4.1C67.2,26.6,67.1,26.6,67.1,26.7z"/>
		</g>
	</g>
	<g>
		<g>
			<path fill="#F0E9DD" d="M123.7,40.6c-4.3,0-10.8,3.8-16.3,9.8c-1.6,1.8-3.1,3.5-4.3,5.3C91.6,70.4,85.6,76.2,83.2,76.2
				c-0.8,0-1.3-0.7-1.3-1.9c0-2.3,1.1-5.5,3-9.5C96.3,55.6,102,50.3,108,43c6.4-7.8,9.5-13.2,9.5-18.1c0-3-1.1-4.8-3.8-4.8
				c-2.3,0-5.3,2.1-11,8.4c-3.9,4.4-6.9,7.8-11.2,13.8c-6,8.6-11.5,17.1-14.4,24.4c-5.1,4.4-9.8,6.4-11.7,6.4c-1,0-1.5-0.7-1.5-2
				c0-2.1,1-5.1,2.8-8.9c10.7-8.9,17.9-15.8,23.6-22.8c6.5-8.3,10.6-14.2,10.6-19.1c0-3-1.1-4.8-3.8-4.8c-2.4,0-5.9,2.5-11.9,9.4
				c-4,4.5-8.5,10.2-12.9,16.3c-2.9,4-5.6,8-7.9,11.9c-4.1,5.4-12.7,16-15.1,16c-0.5,0-0.8-0.3-0.8-0.9c0-0.8,0.7-3.1,2.8-7.4
				c1.5-3.1,4.1-7.4,7.5-12l-4.1-4.1c-0.8,0.8-2,2.2-2.8,3.2C44.2,57.6,41.6,64.2,41.6,69c0,3.9,2.2,5.6,4.9,5.6
				c3.2,0,7.5-3.8,11.5-8.2c-0.7,2.1-1.1,4.1-1.1,5.8c0,4.2,2,6.4,5.3,6.4c3.4,0,8.9-3.1,13.5-7.2c-0.3,1.4-0.5,2.8-0.5,4.1
				c0,4.2,1.8,6.4,4.9,6.4c4.2,0,10.3-5.5,18.1-14.7c-0.1,0.5-0.1,1-0.1,1.5c0,4.9,3.1,7.8,7.1,7.8c5.2,0,10.8-3.4,18.5-10.4
				l0.5-5.9c-8.9,8.4-12.3,11.5-15.7,11.5c-1.5,0-2.8-1.3-2.8-4c0-1.4,0.3-2.9,0.9-4.5c10.5-3.7,21.8-12.3,21.8-18.4
				C128.4,42.4,127,40.6,123.7,40.6z M98.1,42.9c4.7-6.9,7.1-10.5,10.1-14.1c2.1-2.6,3.5-4,4.3-4c0.4,0,0.8,0.3,0.8,0.8
				c0,2.3-2.3,6.4-8,13.8c-4.9,6.4-9.8,12-16.6,18.4C91.3,53.2,94.5,48.1,98.1,42.9z M79,41.8c4.9-7.4,9.2-13.5,12.4-17.3
				c2.1-2.6,3.4-4,4.3-4c0.4,0,0.8,0.2,0.8,0.8c0,2-2.8,6.7-8.8,14.6c-4.4,5.8-10,12-16.3,18.1C73.6,50.1,76.2,46.1,79,41.8z
				 M108.2,59.4c1-1.8,2.1-3.5,3.3-5.1c4.3-5.7,9.5-10.1,11-10.1c0.4,0,0.6,0.2,0.6,0.7C123.1,48.1,115.6,55.4,108.2,59.4z"/>
		</g>
	</g>
	<g>
		<g>
			<path fill="#F0E9DD" d="M5.9,89.2c2.9-3.3,63.4-74.5,70.8-83.3C74.9,3.6,71.9,0,71.9,0C49.6,27.2,24.6,58.7,9.4,77.2
				C14.3,60.2,21.5,35.4,31,9.6c-3.2-2.6-6.8-5.3-6.8-5.3C10.3,42.5,1.6,79,0,85.9L5.9,89.2z"/>
		</g>
	</g>
	<g>
		<g>
			<g>
				<path fill="#F0E9DD" d="M33.2,133.9h-4.9l-0.7,7.7h-7.2L26.1,96h9.7l6.2,45.6h-7.9L33.2,133.9z M29.1,126.1h3.3l-1.7-15.6
					L29.1,126.1z"/>
			</g>
		</g>
		<g>
			<g>
				<path fill="#F0E9DD" d="M82.5,96l2.9,28.9L88.1,96h7.9l-5.8,45.6h-9.3l-2.4-25.1L76,141.6h-9.6L60.7,96h8.5l2.6,29.3L74.7,96
					H82.5z"/>
			</g>
		</g>
		<g>
			<g>
				<path fill="#F0E9DD" d="M127.6,133.9h-4.9l-0.7,7.7h-7.2l5.8-45.6h9.7l6.2,45.6h-7.9L127.6,133.9z M123.5,126.1h3.3l-1.7-15.6
					L123.5,126.1z"/>
			</g>
		</g>
		<g>
			<g>
				<path fill="#F0E9DD" d="M166.6,141.6h-8.2V96h12.9c5,0,7.5,2.7,7.5,7.6v7.3c0,3.8-2.1,5.5-3.6,6.1c1.3,0.5,3.5,2,3.5,5.4v15.5
					c0,2,0.4,2.8,0.7,3.4v0.3h-8.2c-0.4-0.5-0.7-1.5-0.7-3.5v-13.3c0-2.1-0.5-2.7-2.1-2.7h-1.7V141.6z M166.6,114.5h1.6
					c1.7,0,2.3-0.6,2.3-2.8v-6.2c0-2-0.4-2.6-2-2.6h-1.8V114.5z"/>
			</g>
		</g>
		<g>
			<g>
				<path fill="#F0E9DD" d="M201.9,96h11.6c6.1,0,8.9,2.8,8.9,9.8v25.8c0,6.6-2.3,10.1-8.9,10.1h-11.6V96z M210,134h1.6
					c1.9,0,2.4-1,2.4-3.2v-24.5c0-2.2-0.6-3.1-2.1-3.1H210V134z"/>
			</g>
		</g>
		<g>
			<g>
				<path fill="#F0E9DD" d="M256.3,95.4c6.4,0,8.8,2.8,8.8,9v6.1h-7.9v-5.7c0-1.5-0.3-2.4-1.8-2.4c-1.4,0-1.8,0.9-1.8,2.5v1
					c0,2.1,0.5,3.6,2.5,5.9l4.7,5.2c4.1,4.7,5,7.7,5,11.7v2.1c0,6.9-3.1,11.3-9.9,11.3h-1.6c-6.2,0-9.3-3.3-9.3-9.4v-8.2h8v7.3
					c0,1.8,0.7,2.8,2.1,2.8c1.4,0,2-1.1,2-3.3v-0.9c0-3.2-0.2-4.5-2.6-7.1l-4.7-5.2c-3.4-3.7-4.4-7.2-4.4-11.6v-2
					c0-5.9,3.6-9.1,9.3-9.1H256.3z"/>
			</g>
		</g>
	</g>
</g>
</svg>
