<svg xmlns="http://www.w3.org/2000/svg" id="eo" x="0px" y="0px" viewBox="0 0 284 284.5">
  <style>
    .st0{fill:#FFFFFF;} .st1{fill:url(#SVGID_1_);}
  </style>
  <path d="M146.9 134.4L143.4 4.2S139.5.1 135.7 1c.1-.1-12.2 101.9-4.4 113.8.1.5 6.8 8.6 6.8 18-.1.1 5.5 2.9 5.5 2.9l3.3-1.3zm-12.2 6.6l-111 68.1s-1.6 5.4 1 8.3c-.1-.1 94.3-40.4 100.8-53.1.4-.4 4.1-10.2 12.1-14.9.1.1-.2-6.2-.2-6.2l-2.7-2.2zm10.7 7.3l114.5 62.1s5.5-1.3 6.7-5c0 .2-82.1-61.5-96.4-60.7-.5-.1-10.8 1.6-19-3.1 0-.2-5.3 3.3-5.3 3.3l-.5 3.4z" class="st0"/>
  <radialGradient id="SVGID_1_" cx="142.0101" cy="142.5" r="13.5" gradientUnits="userSpaceOnUse">
    <stop offset="0" stop-color="#FFF"/>
    <stop offset="1" stop-color="#DDD"/>
  </radialGradient>
  <circle cx="142" cy="142.5" r="13.5" class="st1"/>
</svg>
