<svg xmlns="http://www.w3.org/2000/svg" id="RSE_01" viewBox="0 0 1063.83 237.94">
  <defs>
    <style>
      .cls-1{fill:#00447a;}.cls-2{fill:#e30043;}
    </style>
  </defs>
  <g id="CCI_PARIS">
    <path d="M269.15 119.48v-5.2c0-25.3 8.39-43.36 39.17-43.36 23.13 0 33.53 9.68 36.14 30.92l-19.66 2.86c-.73-11.13-5.35-17.77-16.92-17.77-15.75 0-20.37 10.26-20.37 27.32v5.2c0 18.5 4.77 27.32 20.66 27.32 12.43 0 16.19-5.34 17.63-18.94l19.52 2.16c-3.47 20.1-13 32.67-38.58 32.67-28.76 0-37.58-18.21-37.58-43.22m82.54.04v-5.2c0-25.3 8.37-43.36 39.17-43.36 23.12 0 33.52 9.68 36.13 30.92l-19.66 2.86c-.72-11.13-5.35-17.77-16.92-17.77-15.75 0-20.38 10.26-20.38 27.32v5.2c0 18.5 4.77 27.32 20.67 27.32 12.44 0 16.19-5.34 17.63-18.94l19.51 2.16c-3.46 20.1-13 32.67-38.58 32.67-28.75 0-37.58-18.21-37.58-43.22m87.17-47.8h18.21v90.48h-18.21zm59.12.57h39.2c15.2 0 31.15 4.44 31.15 27.13 0 20.08-14.92 28.55-31.15 28.55H516.1v34.17h-18.12m36.89-48.94c8.74 0 15.35-2.74 15.35-13.06 0-10-5.88-12.91-15.35-12.91h-18.8v26h18.8zm67.17-41.62h18.37l30.57 90.56h-18.22l-6.19-18.1h-31.14l-6 18.1h-17.68m28.56-32.58h21.4l-10.78-31.71zm95.57-2.73h-17.51v35.31H660.3V72.21h39.17c15.94 0 31.14 4.58 31.14 26.84 0 14.07-7.46 21.68-16.64 25.12l18.08 37.89h-19.37m-15.51-50.23c10.18 0 15.35-3.6 15.35-12.48 0-8.34-4.89-12.2-15.35-12.2h-18.8v24.69h18.81zm47.19-39.62h18.09v89.85h-18.09zm28.99 62.87l19.38-2c1.87 9.17 6 13.92 19.94 13.92 10.34 0 17.09-2.73 17.09-10.92s-7.33-9.61-20.68-12.62c-16.5-3.58-31.58-7.45-31.58-26.55 0-14.21 9.48-25.4 34.6-25.4 19.94 0 31 8.18 34.87 23.67l-19.93 2.6c-1.45-7-5.47-10.33-14.94-10.33-12.06 0-16.38 3.15-16.38 9.19 0 6.31 5.61 8 18.67 11 21.1 4.74 33.57 9 33.57 28.56 0 17.79-15.77 26.55-35.44 26.55-26.7 0-35.31-11.47-39.18-27.69M884.7 72.21h18.08v89.85H884.7zm32.64 0h31.15c31.43 0 38.88 17.21 38.88 42v5.61c0 24.53-9.89 42.2-38.76 42.2h-31.27m31.27-15.07c16.81 0 20.52-10.63 20.52-27.28v-5.46c0-18.94-5-26.68-20.65-26.68h-13.05v59.42h13.19zm54.23-74.74h60.99v15.93h-42.91v19.09h38.62v15.92h-38.62v38.91h-18.08M-.02 118.96a118.86 118.86 0 0 0 192.11 93.74l-25.11-28a81.39 81.39 0 1 1-15.46-140.1l14.95-34.65a118.54 118.54 0 0 0-47.54-10C53.35 0-.02 53.4-.02 118.96" class="cls-1"/>
    <path d="M55.54 118.96a63.47 63.47 0 0 0 63.44 63.4c13.41 0 26.94-4.74 35.64-11.28 0 0-23.55-26.27-25.62-28.53a26.84 26.84 0 0 1-10 2.07 25.67 25.67 0 0 1-25.67-25.67 25.72 25.72 0 0 1 36.21-23.77l14.89-34.16a64.47 64.47 0 0 0-25.45-5.44 63.46 63.46 0 0 0-63.4 63.38" class="cls-1"/>
    <path d="M166.23 94.32a56.21 56.21 0 0 1 6.11 24.64c0 11.9-5 24.77-11.7 33.34l25.45 28a90.82 90.82 0 0 0 23.95-61.38 91.87 91.87 0 0 0-9.59-40.61m-44.79 1.94l64.59-30.26c-9.55-14-22.56-26.86-35.85-34.89l-28.93 65" class="cls-2"/>
  </g>
</svg>
