<svg id="RSE_01" xmlns="http://www.w3.org/2000/svg" viewBox="0 0 1063.83 237.94"><defs><style>.cls-1{fill:#00447a;}.cls-2{fill:#e30043;}</style></defs><title>Logo_CCI</title><g id="CCI_PARIS"><path class="cls-1" d="M315.17,243.78v-5.2c0-25.3,8.39-43.36,39.17-43.36,23.13,0,33.53,9.68,36.14,30.92L370.82,229c-0.73-11.13-5.35-17.77-16.92-17.77-15.75,0-20.37,10.26-20.37,27.32v5.2c0,18.5,4.77,27.32,20.66,27.32,12.43,0,16.19-5.34,17.63-18.94l19.52,2.16c-3.47,20.1-13,32.67-38.58,32.67-28.76,0-37.58-18.21-37.58-43.22" transform="translate(-46.02 -124.3)"/><path class="cls-1" d="M397.72,243.78v-5.2c0-25.3,8.37-43.36,39.17-43.36,23.12,0,33.52,9.68,36.13,30.92L453.36,229c-0.72-11.13-5.35-17.77-16.92-17.77-15.75,0-20.38,10.26-20.38,27.32v5.2c0,18.5,4.77,27.32,20.67,27.32,12.44,0,16.19-5.34,17.63-18.94l19.51,2.16c-3.46,20.1-13,32.67-38.58,32.67-28.75,0-37.58-18.21-37.58-43.22" transform="translate(-46.02 -124.3)"/><rect class="cls-1" x="438.86" y="71.64" width="18.21" height="90.48"/><path class="cls-1" d="M544,196.51H583.2c15.2,0,31.15,4.44,31.15,27.13,0,20.08-14.92,28.55-31.15,28.55H562.12v34.17H544m36.89-48.94c8.74,0,15.35-2.74,15.35-13.06,0-10-5.88-12.91-15.35-12.91h-18.8v26h18.8Z" transform="translate(-46.02 -124.3)"/><path class="cls-1" d="M648.06,195.8h18.37L697,286.36H678.78l-6.19-18.1H641.45l-6,18.1H617.77m28.56-32.58h21.4l-10.78-31.71Z" transform="translate(-46.02 -124.3)"/><path class="cls-1" d="M741.9,251.05H724.39v35.31H706.32V196.51h39.17c15.94,0,31.14,4.58,31.14,26.84,0,14.07-7.46,21.68-16.64,25.12l18.08,37.89H758.7m-15.51-50.23c10.18,0,15.35-3.6,15.35-12.48,0-8.34-4.89-12.2-15.35-12.2H724.39v24.69h18.81Z" transform="translate(-46.02 -124.3)"/><rect class="cls-1" x="744.36" y="72.21" width="18.09" height="89.85"/><path class="cls-1" d="M819.37,259.38l19.38-2c1.87,9.17,6,13.92,19.94,13.92,10.34,0,17.09-2.73,17.09-10.92s-7.33-9.61-20.68-12.62c-16.5-3.58-31.58-7.45-31.58-26.55,0-14.21,9.48-25.4,34.6-25.4,19.94,0,31,8.18,34.87,23.67l-19.93,2.6c-1.45-7-5.47-10.33-14.94-10.33-12.06,0-16.38,3.15-16.38,9.19,0,6.31,5.61,8,18.67,11,21.1,4.74,33.57,9,33.57,28.56,0,17.79-15.77,26.55-35.44,26.55-26.7,0-35.31-11.47-39.18-27.69" transform="translate(-46.02 -124.3)"/><rect class="cls-1" x="884.7" y="72.21" width="18.08" height="89.85"/><path class="cls-1" d="M963.36,196.51h31.15c31.43,0,38.88,17.21,38.88,42v5.61c0,24.53-9.89,42.2-38.76,42.2H963.36m31.27-15.07c16.81,0,20.52-10.63,20.52-27.28v-5.46c0-18.94-5-26.68-20.65-26.68H981.45v59.42h13.19Z" transform="translate(-46.02 -124.3)"/><polyline class="cls-1" points="1002.84 72.21 1063.83 72.21 1063.83 88.14 1020.92 88.14 1020.92 107.23 1059.54 107.23 1059.54 123.15 1020.92 123.15 1020.92 162.06 1002.84 162.06"/><path class="cls-1" d="M46,243.26A118.86,118.86,0,0,0,238.11,337L213,309A81.39,81.39,0,1,1,197.54,168.9l14.95-34.65a118.54,118.54,0,0,0-47.54-10C99.37,124.3,46,177.7,46,243.26" transform="translate(-46.02 -124.3)"/><path class="cls-1" d="M101.56,243.26A63.47,63.47,0,0,0,165,306.66c13.41,0,26.94-4.74,35.64-11.28,0,0-23.55-26.27-25.62-28.53a26.84,26.84,0,0,1-10,2.07,25.67,25.67,0,0,1-25.67-25.67,25.72,25.72,0,0,1,36.21-23.77l14.89-34.16A64.47,64.47,0,0,0,165,179.88a63.46,63.46,0,0,0-63.4,63.38" transform="translate(-46.02 -124.3)"/><path class="cls-2" d="M212.25,218.62a56.21,56.21,0,0,1,6.11,24.64c0,11.9-5,24.77-11.7,33.34l25.45,28a90.82,90.82,0,0,0,23.95-61.38,91.87,91.87,0,0,0-9.59-40.61" transform="translate(-46.02 -124.3)"/><path class="cls-2" d="M201.68,204.55l64.59-30.26c-9.55-14-22.56-26.86-35.85-34.89l-28.93,65" transform="translate(-46.02 -124.3)"/></g></svg>