<svg xmlns="http://www.w3.org/2000/svg" id="RSE_01" viewBox="0 0 511.19 354.54">
  <defs>
    <style>
      .cls-1{fill:#18589f;}.cls-2{fill:#887c70;}
    </style>
  </defs>
  <g id="GOBELINS_PARIS">
    <g id="g7354">
      <g id="g7356">
        <g id="g7362">
          <path id="path7364" d="M254.84 74.89a13.55 13.55 0 1 1 13.55-13.56 13.57 13.57 0 0 1-13.55 13.56m-.1-74.93a61.38 61.38 0 1 0 61.37 61.37A61.38 61.38 0 0 0 254.74-.04" class="cls-1"/>
        </g>
        <g id="g7366">
          <path id="path7368" d="M298.22 244.56l2.44-1.19c2.44-1.26 14.55-8 12.15-16.46-1.84-6.51-10.07-9.14-10.07-9.14s-51.14-15.33-82.9-25.68c-32.84-10.67-33.83-34.15-34.12-38.41-1.82-25.89 17.84-36.66 20.51-38l1.54-.75.57.93-1.09.57c-1.67.85-11.42 6.28-10.08 13.39 1.31 6.88 9.87 9.21 9.87 9.21s51.14 15.31 82.88 25.66c32.84 10.69 33.83 34.15 34.13 38.41 2 28.56-19.21 39.61-22.68 41.22l-2.49 1.21z" class="cls-1"/>
        </g>
        <g id="g7370">
          <path id="path7372" d="M38.99 270.46a16.21 16.21 0 0 0-12.89-6.51 16.85 16.85 0 0 0-17 16.61 17 17 0 0 0 4.74 11.4 17.51 17.51 0 0 0 12.69 5.52 16.63 16.63 0 0 0 14.31-8.82H20.33v-8.58h32v1.06c0 14.35-12.08 25.18-26.1 25.18S0 295.32 0 280.88a26 26 0 0 1 26.1-25.77c10 0 20.05 5.9 23.78 15.34H38.99z" class="cls-2"/>
        </g>
        <g id="g7374">
          <path id="path7376" d="M103.63 255.11a25.61 25.61 0 1 0 25.63 25.7 25.6 25.6 0 0 0-25.63-25.7m16.54 25.7a16.50003712 16.50003712 0 1 1-33 .07c0-9.29 7.3-16.94 16.46-16.74l-.07-.2a16.72 16.72 0 0 1 16.61 16.87" class="cls-2"/>
        </g>
        <g id="g7378">
          <path id="path7380" d="M171.4 274.89v-10h1.65c1.94 0 4.25-.33 6 .47a4.67 4.67 0 0 1 3.06 4.31 5 5 0 0 1-2.79 4.51c-1.72.8-4.25.73-6.16.73h-1.74zm-9.11 30.23h12.3c4.71-.14 9.7-.4 13.6-3.26a14.28 14.28 0 0 0 6-11.68c0-5.59-3-10.17-8.38-11.9 3.59-1.72 5.37-5.5 5.37-9.37a12.69 12.69 0 0 0-6.9-11c-4.12-2.07-8.63-1.87-13.09-1.87h-8.91v49.09zm9.11-8.84v-12.55h4c2.2 0 4.38-.07 6.45 1s3.25 2.67 3.25 5.06a5.38 5.38 0 0 1-2.38 4.78c-2.38 1.59-4.86 1.72-7.51 1.72h-3.78z" class="cls-2"/>
        </g>
        <g id="g7382">
          <path id="path7384" d="M230.4 256.04h26.38v8.85h-17.27v11.28h16.53v8.84h-16.53v11.28h17.27v8.84H230.4v-49.09z" class="cls-2"/>
        </g>
        <g id="g7386">
          <path id="path7388" d="M295.43 256.04h9.11v40.25h15v8.84h-24.11v-49.09z" class="cls-2"/>
        </g>
        <path id="path7390" d="M353.35 256.04h9.08v49.09h-9.08v-49.09z" class="cls-2"/>
        <g id="g7392">
          <path id="path7394" d="M403.32 256.04h10.24l20.45 35.85v-35.85h9.09v49.09h-10.08l-20.6-35.74v35.74h-9.09v-49.09z" class="cls-2"/>
        </g>
        <g id="g7396">
          <path id="path7398" d="M488.84 291.31c0 3.92 3.2 6.18 6.84 6.18a6.22 6.22 0 0 0 6.39-6.18c0-5.39-4.51-7-8.56-8.3-3.28-1.06-6-2-8.52-4.51a14 14 0 0 1-3.85-9.44c0-8 6.62-13.95 14.48-13.95 7.56 0 14.42 6.23 14.34 13.95h-9.38a5.35 5.35 0 0 0-5.49-5.11 4.77 4.77 0 0 0-4.86 5.19c-.07 3.58 3.28 5 6.18 6 3.46 1.19 6.77 2.18 9.55 4.51a13.29 13.29 0 0 1 5.19 11.16 15.69 15.69 0 0 1-15.95 15.54c-8.35 0-15.87-6.44-15.87-15h9.51z" class="cls-2"/>
        </g>
        <g id="g7400">
          <path id="path7402" d="M17.59 353.89h-17v-33.53H4.1v31.06h13.5v2.47z" class="cls-2"/>
        </g>
        <g id="g7404">
          <path id="path7406" d="M23.48 320.52h3.36l-3.43 9.21h-1.84z" class="cls-2"/>
        </g>
        <g id="g7408">
          <path id="path7410" d="M48.5 319.09h-2.66l5-4.42h4.67zm5.42 16.1v2.43H42.43v13.82h15.1v2.45H38.92v-33.5h18.14v2.43H42.43v12.4h11.49z" class="cls-2"/>
        </g>
        <g id="g7412">
          <path id="path7414" d="M99.58 345.89a17.31 17.31 0 0 1-15 8.68 18.18 18.18 0 0 1-12.21-4.24c-3.33-3-5.36-7.36-5.36-13.22 0-5.56 2-9.93 5.21-12.9a18.22 18.22 0 0 1 12.51-4.47c7 0 11.82 3.43 14.08 8l-3.61.72a11.08 11.08 0 0 0-10.49-6.41c-7.17 0-14.11 4.28-14.11 15.08 0 10.62 6.8 15.06 13.94 15.06 6.22 0 10-4.44 11.44-7.21z" class="cls-2"/>
        </g>
        <g id="g7416">
          <path id="path7418" d="M106.42 337.13c0 12 8 17.41 17.56 17.41s17.54-5.44 17.54-17.41-8-17.43-17.54-17.43-17.56 5.43-17.56 17.38zM123.98 322c7.15 0 13.95 4.47 13.95 15.08s-6.8 15.06-13.95 15.06-13.95-4.48-13.95-15.06S116.81 322 123.94 322z" class="cls-2"/>
        </g>
        <g id="g7420">
          <path id="path7422" d="M168.96 353.89h-17v-33.53h3.51v31.06h13.5v2.47z" class="cls-2"/>
        </g>
        <g id="g7424">
          <path id="path7426" d="M194.84 335.2v2.43h-11.49v13.82h15.09v2.44h-18.6v-33.5H198v2.43h-14.65v12.4h11.49z" class="cls-2"/>
        </g>
        <g id="g7428">
          <path id="path7430" d="M232.84 353.89c11.85 0 16.79-6.09 16.79-16.82 0-11-5.29-16.69-16.91-16.69h-10.6v33.51h10.72zm-7.21-2.41v-28.7h6.92c9.54 0 13.49 5.19 13.49 14.35 0 9.51-4.4 14.35-13.45 14.35h-7z" class="cls-2"/>
        </g>
        <g id="g7432">
          <path id="path7434" d="M277.07 335.2v2.43h-11.5v13.82h15.08v2.44h-18.6v-33.5h18.14v2.43h-14.62v12.4h11.49z" class="cls-2"/>
        </g>
        <g id="g7436">
          <path id="path7438" d="M320.08 353.89h-17v-33.53h3.51v31.06h13.5v2.47z" class="cls-2"/>
        </g>
        <g id="g7440">
          <path id="path7442" d="M326.12 321.44h3.36l-3.42 9.21h-1.84z" class="cls-2"/>
        </g>
        <path id="path7444" d="M342.6 320.37h3.56v33.52h-3.56v-33.52z" class="cls-2"/>
        <g id="g7446">
          <path id="path7448" d="M380.84 350.31c2-5.52 6-15.18 12.21-29.94h5.4v33.52h-3.32c0-15.2 0-25.44.17-30.87h-.19c-2.07 5.4-6.22 15.4-12.71 30.87h-3.35c-6.31-15.23-10.56-25.46-12.7-30.87h-.13c.13 5.43.14 15.64.14 30.87h-3.32v-33.52h5.44c6.11 14.85 10.13 24.44 12.17 29.94h.19z" class="cls-2"/>
        </g>
        <g id="g7450">
          <path id="path7452" d="M431.84 343.28l4.3 10.59h4l-14.3-33.5h-4.37l-14.16 33.52h3.92l4.25-10.59h16.36zm-1-2.39h-14.29l3.58-9.14c1.15-2.89 2.31-5.85 3.42-9h.24c1.15 3.26 2.34 6.18 3.49 9.15z" class="cls-2"/>
        </g>
        <g id="g7454">
          <path id="path7456" d="M480.14 350.31a26.53 26.53 0 0 1-14.93 4.22c-10.93 0-18.75-6.48-18.75-17.41 0-12.43 9.65-17.43 18.91-17.43a17.91 17.91 0 0 1 14.55 6.58l-3.58 1.08c-2.77-3.48-5.67-5.33-10.83-5.33-6.68 0-15.44 4-15.44 15.1 0 9.55 6.71 15.08 15.44 15.08a21.32 21.32 0 0 0 11.12-2.86v-8.79h-10.08v-2.36h13.59v12.12z" class="cls-2"/>
        </g>
        <g id="g7458">
          <path id="path7460" d="M507.26 335.2v2.43h-11.49v13.82h15.07v2.44h-18.59v-33.5h18.13v2.43h-14.61v12.4h11.49z" class="cls-2"/>
        </g>
      </g>
    </g>
  </g>
</svg>
