<?xml version="1.0" encoding="utf-8"?>
<!-- Generator: Adobe Illustrator 19.2.1, SVG Export Plug-In . SVG Version: 6.00 Build 0)  -->
<svg version="1.1" xmlns="http://www.w3.org/2000/svg" xmlns:xlink="http://www.w3.org/1999/xlink" x="0px" y="0px"
	 viewBox="0 0 330 330" enable-background="new 0 0 330 330" xml:space="preserve">
<g id="Dieu_corps">
</g>
<g id="Dieu_tete">
	<g display="none">
		<g display="inline">
			<path fill="#454466" d="M226.4,157.3c-1.8,8,0.3,18,1.1,23.2C240.6,177.9,248.1,157.3,226.4,157.3z"/>
		</g>
		<g display="inline">
			<path fill="#EFEFF4" d="M102.6,154.3c0.2,2-1.4,12.9-1.2,17.4c0.2,4.5,0.2,7.6-1.2,9.3C86.2,182.9,80.3,159.3,102.6,154.3z"/>
		</g>
		<path display="inline" fill="#EFEFF4" d="M160.2,291.1c-27.8,0-62.9-8-72.1-14.6c-0.2-6.3,0.1-17.8,18.4-30.8
			c7.3-5.2,13.9-7,22-11.9c2.1-1.3,4.3-2.6,6.6-3.4c2.5-0.9,5.2-1.1,7.8-1.4c5.2-0.6,10.5-1.3,15.7-1.5
			c29.7-1.1,61.7,19.9,77.2,45.3C223.6,282.8,183.2,291.1,160.2,291.1z"/>
		<path display="inline" fill="#454466" d="M182.3,234.6c-2.7,0.9-5.7,0.9-8.5,0.9c-10.8,0-21.8,0-32.3-2.8
			c-1.9-0.5-3.8-1.8-5.7-1.9s-3.9,0.8-5.6,2c3.6,5.1,9.3,8.7,14.9,11.4c12,5.8,25.2,9.3,38.5,10.4c2.5,0.2,5.2,0.6,7.6,0.8
			c5.3,0.4,13.5-0.6,15.5-3.6c3.5-5.3,0.3-8.7-3.5-11.1c-1.7-1.1-6.1-3.6-7.9-4.4c-1.7-0.7-3.2-1.7-4.9-2.4c-0.8-0.3-2-0.4-2.8-0.5
			C185.8,233.1,184.1,234,182.3,234.6z"/>
		<path display="inline" fill="#EFEFF4" d="M118.5,220.3c7.3,8.2,18,12.6,28.5,15.8c4.6,1.4,9.3,2.6,14.2,3.1
			c11.1,1.1,22.4-1.8,32.1-7.2c9.7-5.5,17.9-13.3,24.7-22.2c5.1-6.7,9.6-14.2,11.4-22.5c1.7-7.7,1.2-15.7,0.2-23.5
			c-0.7-5.8-1.6-11.7-3.8-17.1c-3.3-8-9.4-14.6-15.5-20.9c-2.7-2.8-5.5-5.7-8.7-7.9c-7.7-5.1-17.4-5.9-26.7-6.6
			c-8.6-0.6-17.2-1.2-25.7-0.3c-8.5,0.9-17.1,3.4-24,8.4c-6.5,4.7-11.2,11.3-15.6,18c-2.6,3.9-5,8-6.8,12.4
			c-3.6,9.2-3.6,19.4-3.6,29.3c0,4.7,5.1,21.2,7.4,24.6c2.1,3,4.1,6.1,6.2,9.1C114.8,215.4,116.5,218,118.5,220.3z"/>
		<path display="inline" fill="#BEBECE" d="M127.4,118.4c2.2-4.6,9.4-11.9,21.4-17.4c11.9-5.4,4.5,11.3,4.5,11.3
			S135.2,113.5,127.4,118.4z"/>
		<path display="inline" fill="#454466" d="M157.2,202.2c3.6,1.5,5.1,1.9,8.5,1.7c4.3-0.2,7.2-1.7,11-3.9c0.6-0.3,1.1-0.8,1.8-0.9
			c0.7-0.1,1.5,0.1,1.5,0.8c0,0.4-0.3,1-0.6,1.3c-0.9,0.9-1.9,1.7-2.9,2.4c-6.7,4.3-15.8,4.3-22.5,0c-0.7-0.5-1.5-1.1-1.7-2
			c-0.2-0.9,0.3-1.7,1.3-1.5C154.1,200.3,156.8,202,157.2,202.2z"/>
		<g display="inline">
			<ellipse fill="#454466" cx="187.5" cy="160.3" rx="4.4" ry="5.7"/>
		</g>
		<g display="inline">
			<ellipse fill="#454466" cx="137" cy="160.3" rx="5" ry="6.4"/>
		</g>
		<g display="inline">
			<defs>
				<path id="SVGID_1_" d="M127.4,118.4c2.2-4.6,9.4-11.9,21.4-17.4c11.9-5.4,4.5,11.3,4.5,11.3S135.2,113.5,127.4,118.4z"/>
			</defs>
			<clipPath id="SVGID_2_">
				<use xlink:href="#SVGID_1_"  overflow="visible"/>
			</clipPath>
			<path clip-path="url(#SVGID_2_)" fill="#454466" d="M145.5,101.5c1.3,0.8,0,3.1-0.4,4.5c-1.4,4.3-8,8.3-10.4,9.3
				c-2.4,1-4.7,2.3-6.4,4.3c5.7-1.6,11.4-2.9,17.2-4c1.7-0.3,3.5-0.6,5.1-1.3c0.5-0.2,1-0.4,1.3-0.8c0.4-0.6,0.4-1.3,0.4-2
				c-0.1-2.1-0.3-4.2-0.8-6.3c-0.3-1.3-0.7-2.7-1.6-3.7c-0.9-1.1-2.3-1.8-3.6-1.5c-0.6,0.1-1.2,0.5-1.6,1c0.3,0.1,0.6,0.2,0.9,0.4"
				/>
		</g>
		<path display="inline" fill="#BEBECE" d="M199.8,120c0,0,1.2-13.4-15-16.5c-12-2.3-24.5,1.5-23.6-9.9c0.6-6.6,11.2-8.2,13.9-4.7
			c3.8,5.1-0.7,7.6-1.5,7.8c4.9,0.1,7.1-4.5,5.7-8.7c-1.3-4.1-8.9-11.5-19.4-5.8c-8.4,4.5-11.7,17.1-11.7,22.7
			c0,11.5,10.8,16.4,21.3,16.4s16.5-5,20.8-4.5C194.8,117.3,195.6,117.1,199.8,120z"/>
		<g display="inline">
			<defs>
				<path id="SVGID_3_" d="M199.8,120c0,0,1.2-13.4-15-16.5c-12-2.3-24.5,1.5-23.6-9.9c0.6-6.6,11.2-8.2,13.9-4.7
					c3.8,5.1-0.7,7.6-1.5,7.8c4.9,0.1,7.1-4.5,5.7-8.7c-1.3-4.1-8.9-11.5-19.4-5.8c-8.4,4.5-11.7,17.1-11.7,22.7
					c0,11.5,10.8,16.4,21.3,16.4s16.5-5,20.8-4.5C194.8,117.3,195.6,117.1,199.8,120z"/>
			</defs>
			<clipPath id="SVGID_4_">
				<use xlink:href="#SVGID_3_"  overflow="visible"/>
			</clipPath>
			<path clip-path="url(#SVGID_4_)" fill="#454466" d="M149.7,113.3c2.2,2.1,5.6,2.7,8.6,2.4c3.1-0.4,5.9-1.7,8.7-2.9
				c2.1-0.9,4.2-1.9,6.3-2.8c2.8-1.3,5.6-2.5,8.6-3.1c4.8-0.8,11.5,0.4,15.1,3.7c3.6,3.2,3.8,8.5,2.2,13
				c-10.4,0.3-20.8,0.6-31.3,0.9c-4.9,0.1-10,0.3-14.7-1.4c-1.7-0.6-3.4-1.5-4.6-2.9c-1.2-1.4-1.8-3.3-1.3-5.1
				c0.3-1.2,1.6-2.4,2.8-1.8"/>
		</g>
		<path display="inline" fill="#BEBECE" d="M142,144.5c-4.2-0.8-8.6,0.6-11.9,3.3c-0.5,0.4-1.1,0.9-1.2,1.5
			c-0.2,0.6,0.2,1.5,0.9,1.5c0.5,0,0.9-0.4,1.2-0.8c2.1-2.1,4.9-3.4,7.9-3.6c0.7,0,1.5,0,2.2-0.1c0.4,0,0.7-0.1,1.1-0.3
			s0.5-0.6,0.5-0.9C142.6,144.7,142.4,144.7,142,144.5"/>
		<path display="inline" fill="#BEBECE" d="M182.4,145.6c4.2-0.8,8.6,0.6,11.9,3.3c0.5,0.4,1.1,0.9,1.2,1.5c0.2,0.6-0.2,1.5-0.9,1.5
			c-0.5,0-0.9-0.4-1.2-0.8c-2.1-2.1-4.9-3.4-7.9-3.6c-0.7,0-1.5,0-2.2-0.1c-0.4,0-0.7-0.1-1.1-0.3s-0.5-0.6-0.5-0.9
			S181.8,145.8,182.4,145.6"/>
		<path display="inline" fill="#454466" d="M92.4,168.9c0.4,0.4,2.8,1.7,4.1,2.4c1.3,0.7,2.8,1.2,4.2,1.1c0.5-2.7,0.9-5.4,1.4-8.1
			c-0.7,1-0.8,2.3-1.5,3.4c-0.7,1.1-2,1.7-3.2,1.9c-1.3,0.2-2.5,0.3-3.7-0.2C93.3,169.2,92.8,169.1,92.4,168.9"/>
		<g display="inline">
			<defs>
				<path id="SVGID_5_" d="M118.5,220.3c7.3,8.2,18,12.6,28.5,15.8c4.6,1.4,9.3,2.6,14.2,3.1c11.1,1.1,22.4-1.8,32.1-7.2
					c9.7-5.5,17.9-13.3,24.7-22.2c5.1-6.7,9.6-14.2,11.4-22.5c1.7-7.7,2-15.6,1.1-23.4c-0.7-5.8-2.5-11.7-4.7-17.1
					c-3.3-8-9.4-14.6-15.5-20.9c-2.7-2.8-5.5-5.7-8.7-7.9c-7.7-5.1-17.4-5.9-26.7-6.6c-8.6-0.6-17.2-1.2-25.7-0.3
					c-8.5,0.9-17.1,3.4-24,8.4c-6.5,4.7-11.2,11.3-15.6,18c-2.6,3.9-5,8-6.8,12.4c-3.6,9.2-3.6,19.4-3.6,29.3
					c0,4.7,5.1,21.2,7.4,24.6c2.1,3,4.1,6.1,6.2,9.1C114.8,215.4,116.5,218,118.5,220.3z"/>
			</defs>
			<clipPath id="SVGID_6_">
				<use xlink:href="#SVGID_5_"  overflow="visible"/>
			</clipPath>
			<path clip-path="url(#SVGID_6_)" fill="#454466" d="M188.1,235.2c8.2-3,12.5-6.4,18.7-12.5c3.4-3.3,5.5-5.8,8.6-9.4
				c2.4-2.7,5.2-6.2,7.1-9.3c3.5-5.8,5.9-11,7.3-18.3c0.3-1.6,0.5-3.3,0.7-5.3c1-1.3,2.5-1.8,3.7-2.8c2-1.6,3.7-3.2,4.9-5.8
				c1.2-2.7,1.9-3.4,1.3-6.7c-0.8-4.5-2.9-5.4-5.9-6.7c-3.2-1.3-4.6-0.8-5.4-1.3c-0.6-0.4-0.5-0.9-0.6-1.6
				c-2.5-14.5-12.5-26.5-24.5-36c-3.7-2.9-8.4-6.4-12.6-4.4c5.5,2,10.3,5.6,13.9,10.2c5.3,6.9,12,15,14.2,25.3
				c1.8,8.5,3,19.1,1.1,31.3c-2,12.7-4.2,17.9-11.8,29.2C201.1,222.9,196.5,226.8,188.1,235.2z"/>
		</g>
		<path display="inline" fill="#454466" d="M169.9,177.9c-2.3-1-4.4-1-6.9-0.2c-0.4,0.1-1,0.7-1.1,1.3c-0.1,0.5,0.2,1,0.5,1.3
			c0.7,0.6,1.7,0.7,2.5,0.8c1.6,0.1,3.2,0.3,4.7-0.8c0.3-0.2,0.7-0.6,0.8-1.1C170.5,178.7,170.4,178.4,169.9,177.9"/>
	</g>
	<g display="none">
		<path display="inline" fill="#FFFFFF" d="M140.2,283.9c-18.5,0-32.2-0.8-50.6-2.6c-13.7-1.3-14-3.6-26.9-8.7
			c-0.3-8.5-2.6-36.9,28.2-54.5c10.6-6,18.9-9.5,29.8-16.1c2.9-1.7,5.8-3.5,9-4.6c3.4-1.2,7-1.5,10.6-1.9c7.1-0.8,14.2-1.7,21.3-2
			c40.2-1.5,83.5,26.9,104.4,61.3c-17.6,11-38.3,24.8-59,27.2C187.7,284.3,150.7,283.9,140.2,283.9z"/>
		<path display="inline" fill="#454466" d="M192.5,202.6c-3.9,1.3-8.2,1.3-12.4,1.4c-15.7,0-31.6,0.1-46.8-4.1
			c-2.7-0.8-5.5-2.6-8.3-2.8s-5.6,1.2-8.1,2.9c5.2,7.3,13.5,12.6,21.6,16.5c17.5,8.4,36.4,13.5,55.7,15c3.6,0.3,7.5,0.8,11.1,1.1
			c7.6,0.6,19.6-0.9,22.4-5.2c5.1-7.6,1.9-12.7-3.6-16.3c-2.4-1.6-9-5-11.7-6.2c-2.4-1.1-5.9-2.5-8.3-3.5c-1.1-0.5-2.9-2.1-4.1-2.3
			C197.5,198.7,195,201.7,192.5,202.6z"/>
		<path display="inline" fill="#BEBECE" d="M238.9,147.3c-0.8,0.3-1.5,0.9-2.1,1.5c-2.8,2.9-4.9,6.6-5.9,10.5
			c-0.5,2.2-0.8,4.5-1.8,6.5c-0.9,1.9-2.5,3.3-3.5,5.1c-1.4,2.3-2,5.1-2.5,7.8c-1.2,7.4-1.2,15-0.1,22.4c2.6,17,11.1,32.5,19.4,47.5
			c1,1.8,2,3.5,3.2,5.1c0.5,0.6,1.8,2.1,1.9,2.1c0,0,1.5-1.1,1.9-1.7c4.9-7.9,8.5-16.4,10-25.5c2.1-12.8,4.9-22.3,4.9-35.3
			c0-5.8-1.9-15.6-3.4-21.1c-2-7.9-6.9-14.2-11.4-21c-0.4-0.6-0.8-1.2-1.4-1.5c-0.7-0.5-1.6-0.5-2.4-0.7
			C243.4,148.4,241.2,146.5,238.9,147.3z"/>
		<g display="inline">
			<defs>
				<path id="SVGID_7_" d="M238.9,147.3c-0.8,0.3-1.5,0.9-2.1,1.5c-2.8,2.9-4.9,6.6-5.9,10.5c-0.5,2.2-0.8,4.5-1.8,6.5
					c-0.9,1.9-2.5,3.3-3.5,5.1c-1.4,2.3-2,5.1-2.5,7.8c-1.2,7.4-1.2,15-0.1,22.4c2.6,17,11.1,32.5,19.4,47.5c1,1.8,2,3.5,3.2,5.1
					c0.5,0.6,1.8,2.1,1.9,2.1c0,0,1.5-1.1,1.9-1.7c4.9-7.9,8.5-16.4,10-25.5c2.1-12.8,4.9-22.3,4.9-35.3c0-5.8-1.9-15.6-3.4-21.1
					c-2-7.9-6.9-14.2-11.4-21c-0.4-0.6-0.8-1.2-1.4-1.5c-0.7-0.5-1.6-0.5-2.4-0.7C243.4,148.4,241.2,146.5,238.9,147.3z"/>
			</defs>
			<clipPath id="SVGID_8_">
				<use xlink:href="#SVGID_7_"  overflow="visible"/>
			</clipPath>
			<path clip-path="url(#SVGID_8_)" fill="#454466" d="M232.7,157.3c-2.5,11.8-0.5,24.1,3.5,35.4c2.7,7.6,6.6,15.2,13.2,19.6
				c0.2-2.3,0.2-4.6,0-6.9c2.4,3.8,2.6,8.6,1.9,13.1c-0.7,4.4-2.3,8.7-3.5,13c-2.6,9.5-2.8,20.5,3.2,28.2c0.4,0.5,0.8,0.9,1.4,0.9
				c0.4,0,0.8-0.3,1.1-0.6c8.5-7.7,12.7-19,15.6-30.1c3.4-13,5.2-26.4,5.5-39.9c0.2-10.1-0.5-20.4-4.6-29.6s-12.1-17.1-22-18.9
				c-2.7-0.5-5.6-0.4-7.9,1.1c-2.2,1.4-3.3,3.9-4.3,6.3c-1.4,3.4-2.5,6.9-3.5,10.4"/>
		</g>
		<path display="inline" fill="#BEBECE" d="M97.5,263.2c4.5-4.4,7.3-7.2,10.2-11.4c11.4-16.7,15.9-37.9,12.4-57.7
			c-0.7-3.7-1.6-7.3-3-10.7c-1.4-3.4-3.3-6.6-5.3-9.7c-4.4-6.8-9.3-13.3-14.6-19.4c-6.2,2.7-11.2,7.5-14.9,13.1
			c-3.7,5.6-6.7,11.1-8.7,17.5c-1.2,3.9-2.5,9.1-2.5,13.2c0,3.5,1,18.3,1.8,21.8c3.9,17.9,7.8,25.2,17.9,40.4c0.7,1.1,3.6,4.9,4,5
			C94.7,265.3,97,263.7,97.5,263.2z"/>
		<g display="inline">
			<defs>
				<path id="SVGID_9_" d="M97.5,263.2c4.5-4.4,7.3-7.2,10.2-11.4c11.4-16.7,15.9-37.9,12.4-57.7c-0.7-3.7-1.6-7.3-3-10.7
					c-1.4-3.4-3.3-6.6-5.3-9.7c-4.4-6.8-9.3-13.3-14.6-19.4c-6.2,2.7-11.2,7.5-14.9,13.1c-3.7,5.6-6.7,11.1-8.7,17.5
					c-1.2,3.9-2.5,9.1-2.5,13.2c0,3.5,1,18.3,1.8,21.8c3.9,17.9,7.8,25.2,17.9,40.4c0.7,1.1,3.6,4.9,4,5
					C94.7,265.3,97,263.7,97.5,263.2z"/>
			</defs>
			<clipPath id="SVGID_10_">
				<use xlink:href="#SVGID_9_"  overflow="visible"/>
			</clipPath>
			<path clip-path="url(#SVGID_10_)" fill="#454466" d="M91.6,151.3c-2.3,10.6,4,21,6.3,31.6c1.7,7.9,1.2,16.2,0.3,24.2
				c1.5-2.4,2.6-5,3.5-7.6c2.2,10.5,4.4,21.4,2.4,32c-2.4,12.8-10.7,23.8-13.8,36.5c-0.8,3.3-1.2,6.8,0,10
				c19.1-12.8,32.8-33.4,37.1-55.9c1.8-9.3,2-19,0.2-28.4c-1.3-6.3-3.5-12.5-6.1-18.4c-4.4-10.1-10.7-20.4-20.9-24.7
				c-2.3-1-4.8-1.6-7.1-0.9c-2.3,0.7-4.3,3.1-3.8,5.5"/>
		</g>
		<path display="inline" fill="#BEBECE" d="M207.9,61c0.1-1,0.2-2,0.4-2.9c0.1-0.8,0.3-1.6,0.5-2.3c0.3-0.9,0.8-1.8,1.3-2.7
			c0.6-1.1,1.3-2.2,2.2-3.1c1.4-1.6,3.4-2.7,5.5-3.4c2.1-0.6,4.3-0.7,6.4-0.5c-2.8,1.2-5.6,2.3-8,4.2c-2.4,1.9-4.2,4.7-4.3,7.7
			c0.3-0.7,0.8-1.2,1.4-1.7c3.1-2.5,7.2-3.6,11.2-4.1c-1.9,0.6-3.6,1.6-5.2,2.6c-0.9,0.6-1.9,1.3-2.6,2.1c-0.8,0.8-1.4,1.8-1.6,2.9
			c-0.1,0.6-0.2,1.2-0.5,1.7c-0.3,0.5-0.9,0.8-1.5,0.9c-1.7,0.4-3.7-0.3-4.7-1.8"/>
		<path display="inline" fill="#FFFFFF" d="M113.9,188.2c8.4,9.5,20.7,14.5,32.9,18.2c5.3,1.6,10.8,3,16.3,3.6
			c12.8,1.3,25.8-2.1,37.1-8.4c11.2-6.3,20.7-15.4,28.5-25.6c5.9-7.8,11-16.4,13.2-26c2-8.9,1.3-18.1,0.3-27.1
			c-0.8-6.7-1.8-13.4-4.4-19.7c-3.9-9.3-10.9-16.8-17.8-24c-3.1-3.3-6.3-6.6-10.1-9.1c-8.9-5.9-20.1-6.8-30.7-7.6
			c-9.9-0.7-19.8-1.4-29.6-0.3c-9.8,1-19.7,3.9-27.7,9.7c-7.5,5.4-12.9,13.1-18,20.8c-3,4.6-5.8,9.2-7.8,14.3
			c-4.2,10.6-4.2,22.4-4.1,33.8c0,5.5,5.9,24.5,8.5,28.3c2.4,3.5,4.8,7,7.1,10.5C109.5,182.6,111.5,185.5,113.9,188.2z"/>
		<path display="inline" fill="#454466" d="M241.4,128.1c2-6.3,8.9-10.7,15.5-9.9c1.3,0.2,2.7,0.6,3.5,1.5c0.6,0.7,0.9,1.6,1.2,2.5
			c1.5,5.6,0.1,11.6-1.6,17.2c-0.9,3-2,6.1-4.1,8.5c-4.5,5.1-13.2,5.3-18.5,1"/>
		<path display="inline" fill="#454466" d="M157.9,176.4c2,2.1,5.2,2.4,8.2,2.3c3.7-0.2,7.4-0.8,10.4-2.9c0.5-0.3,1-0.7,1.5-0.8
			c0.6-0.1,1.3,0.3,1.3,0.9c0,0.4-0.3,0.7-0.5,1c-0.7,0.8-1.6,1.4-2.5,2c-5.6,3.6-13.4,3.6-19.1,0c-0.6-0.4-1.3-0.9-1.5-1.7
			c-0.2-0.7,0.5-1.7,1.2-1.5C157.4,175.8,157.6,176.2,157.9,176.4z"/>
		<g display="inline">
			<ellipse fill="#454466" cx="196.9" cy="134.1" rx="5.8" ry="7.4"/>
		</g>
		<g display="inline">
			<ellipse fill="#454466" cx="138.4" cy="134.7" rx="5.2" ry="6.7"/>
		</g>
		<path display="inline" fill="#BEBECE" d="M188.7,111.3c-0.5,0.2-1.1,0.6-1,1.2c0.1,0.6,0.9,0.8,1.5,0.9c4.6,0.5,9,2.6,12.4,5.7
			c0.6,0.6,1.4,1.2,2.1,0.9c0.5-0.2,0.8-0.7,0.9-1.3c0.1-0.9-0.3-1.9-1-2.5c-0.6-0.7-1.5-1.1-2.3-1.6c-1.9-1-3.8-1.8-5.8-2.6
			C193.3,111.1,190.9,110.5,188.7,111.3z"/>
		<path display="inline" fill="#FFFFFF" d="M83.5,160.3c2,0.6,4.1,1,6.1,0.6c4.6-0.9,7.5-5.7,7.8-10.3c0.3-4.6-1.3-9.1-3-13.5
			c-0.5-1.2-0.9-2.5-1.4-3.7c-1.2-3-2.6-6.4-5.5-7.8c-3.4-1.6-7.7,0.2-9.9,3.2c-2.2,3-2.9,6.9-3,10.7c-0.2,4.9,0.3,9.8,2,14.4
			c0.6,1.5,1.3,2.9,2.4,4C80.2,159.1,81.8,159.8,83.5,160.3z"/>
		<path display="inline" fill="#BEBECE" d="M208.6,60.6c-1.8-2.9-4-5.5-6.6-7.7c-4.1-3.6-9-6.3-14.1-8.1
			c-12.7-4.6-26.8-4.4-39.9-0.9c-13,3.5-25,10.3-35.8,18.5c-4.3,3.3-8.5,6.9-11.9,11.1c-6.4,8.1-13,20-13.8,30.4s0.3,21.2,4.3,29.5
			c19.8-0.7,42.5-4.1,59-16.7c-1.4,7-10.2,13.5-13.7,15.5c-0.9,0.5-7.8,3.4-8.2,3.9c-0.4,0.6,9.7-1.1,11.3-1.6
			c19.8-5.9,35.6-19.1,49.8-34.1c8.8-9.3,17.3-19.6,20.6-32c0.3-1.2,0.6-2.5,0.4-3.8C210,63.1,209.3,61.8,208.6,60.6z"/>
		<path display="inline" fill="#454466" d="M79.8,147.8c0.4-1.9,1.2-3.7,2.2-5.3c0.4-0.6,0.7-1.6,1.4-2c0.8-0.4,1.4-0.7,2.3-0.7
			c0.6,0,1.2,0.2,1.6,0.6c0.5,0.4,1.1,1,1.5,2c0.4-1,0.8-1.8,0.7-2.8c-0.1-1.5-0.4-3-0.9-4.5c-1.2-2.9-3.8-3.1-5.7-2.3
			c-0.9,0.4-2.7,1.3-3.3,4.3c-0.2,1.2-0.5,3.3-0.6,4.5C79,143.7,79.3,145.8,79.8,147.8z"/>
		<path display="inline" fill="#BEBECE" d="M255.1,140.7c0,0.7-1.6,2.6-2.4,3.1c-2.1,1.5-5,1.4-7.5,0.9c0.8-1.6,0.8-1.2,1.1-3.2
			c1,0.3,0.6,0.2,1.2,0.4c1.2,0.3,2.2,0.1,3.2,0.2S254,141.5,255.1,140.7z"/>
		<g display="inline">
			<defs>
				<path id="SVGID_11_" d="M113.9,188.2c8.4,9.5,20.7,14.5,32.9,18.2c5.3,1.6,10.8,3,16.3,3.6c12.8,1.3,25.8-2.1,37.1-8.4
					c11.2-6.3,20.7-15.4,28.5-25.6c5.9-7.8,11.4-15.7,13.5-25.2c2-8.9,1-18.8-0.1-27.8c-0.8-6.7-1.8-13.4-4.4-19.7
					c-3.9-9.3-10.9-16.8-17.8-24c-3.1-3.3-6.3-6.6-10.1-9.1c-8.9-5.9-20.1-6.8-30.7-7.6c-9.9-0.7-19.8-1.4-29.6-0.3
					c-9.8,1-19.7,3.9-27.7,9.7c-7.5,5.4-12.9,13.1-18,20.8c-3,4.6-5.8,9.2-7.8,14.3c-4.2,10.6-4.2,22.4-4.1,33.8
					c0,5.5,5.9,24.5,8.5,28.3c2.4,3.5,4.8,7,7.1,10.5C109.5,182.6,111.5,185.5,113.9,188.2z"/>
			</defs>
			<clipPath id="SVGID_12_">
				<use xlink:href="#SVGID_11_"  overflow="visible"/>
			</clipPath>
			<path clip-path="url(#SVGID_12_)" fill="#454466" d="M240,156.8c0.3-0.9,0.9-1.8,1.3-2.7c1.3-2.8,2.3-0.3,4.2-0.2
				c7.3,0.4,14.3-1.7,17.7-11.1c2.4-6.6,4.4-12.3,4.8-19.3c0.1-1.6-0.5-5.7-1.2-7.2c-1.1-2.5-4.1-3.8-7-4.3
				c-2.9-0.4-5.9,0.4-8.8-0.1c-6.7-1.3-11.7-6.5-16.7-11c-6-5.5-9.4-11.1-16.5-15.2c-0.9-0.5-2-1-2.8-0.5c-1.2,0.7,0.6,6.2,1.3,7.4
				c10.9,20.4,15.1,34,14.2,52.4c-1.9,38.4-38.5,67.1-33.1,63.8c6.7-4.1,12.7-9.4,18-15C225.7,182.9,235.8,170.8,240,156.8z"/>
		</g>
		<path display="inline" fill="#BEBECE" d="M246.9,125.1c1.6-1.6,2.8-3.7,3.9-5.7c1.9-3.4,3.9-6.9,4.8-10.8c0.6-2.6,0.7-5.4,0.5-8.1
			c-0.3-5.6-1.5-11.1-3.6-16.3c-2.9-7.4-7.7-14.2-14.2-18.8s-14.8-6.9-22.6-5.5c-2.5,0.5-5.8,0.5-7.1,2.8c-1.1,1.9-0.2,5.1,0,7.3
			c0.3,2.6,0.6,5.3,1.2,7.8c0.7,2.6,1.7,5.1,2.7,7.6c3.5,8.6,7,17.3,12.4,24.8c4.5,6.3,10.3,11.6,16.8,15.7c0.6,0.4,1.3,0.8,2.1,0.8
			C245,126.7,246.1,126,246.9,125.1z"/>
		<g display="inline">
			<defs>
				<path id="SVGID_13_" d="M208.6,60.6c-1.8-2.9-4-5.5-6.6-7.7c-4.1-3.6-9-6.3-14.1-8.1c-12.7-4.6-26.8-4.4-39.9-0.9
					c-13,3.5-25,10.3-35.8,18.5c-4.3,3.3-8.5,6.9-11.9,11.1c-6.4,8.1-13,20-13.8,30.4s0.3,21.2,4.3,29.5c19.8-0.7,42.5-4.1,59-16.7
					c-1.4,7-10.2,13.5-13.7,15.5c-0.9,0.5-7.8,3.4-8.2,3.9c-0.4,0.6,9.7-1.1,11.3-1.6c19.8-5.9,35.6-19.1,49.8-34.1
					c8.8-9.3,17.3-19.6,20.6-32c0.3-1.2,0.6-2.5,0.4-3.8C210,63.1,209.3,61.8,208.6,60.6z"/>
			</defs>
			<clipPath id="SVGID_14_">
				<use xlink:href="#SVGID_13_"  overflow="visible"/>
			</clipPath>
			<path clip-path="url(#SVGID_14_)" fill="#454466" d="M175.2,32.6c-1.6,7.4,0.7,9.4,3,17.9c2,7.3-0.1,17.8-3.5,27.3
				c1.9-2.3,9.1-8.2,8.5-11.9c1.5,7.3-0.9,17.5-3.1,25.5c-2,7.1-8.2,15-14.3,20.6c-6.5,5.9-22.8,19.5-12.8,21.5
				c9-4.6,18-9.1,26.3-14.9c8.2-5.8,15.7-12.9,20.8-21.6c3.2-5.5,5.4-11.6,7.1-17.8c0.9-3.1,1.6-6.2,1.8-9.4
				c0.4-6-1.2-11.9-2.9-17.6c-2.4-7.9-5.3-16.2-11.7-21.5c-3-2.5-6.8-4.3-10.7-4.2c-3.9,0.1-7.9,2.3-9.3,6"/>
		</g>
		<g display="inline">
			<defs>
				<path id="SVGID_15_" d="M247.7,125.6c1.6-1.6,2.9-3.6,4-5.6c1.9-3.4,3-7.5,3.9-11.3c0.6-2.6,0.7-5.4,0.5-8.1
					c-0.3-5.6-1.5-11.1-3.6-16.3c-2.9-7.4-7.7-14.2-14.2-18.8s-14.8-6.9-22.6-5.5c-2.5,0.5-5.8,0.5-7.1,2.8c-1.1,1.9-0.2,5.1,0,7.3
					c0.3,2.6,0.6,5.3,1.2,7.8c0.7,2.6,1.7,5.1,2.7,7.6c3.5,8.6,7,17.3,12.4,24.8c4.5,6.3,9.8,12.2,16.5,15.9c1,0.5,1.7,0.8,2.4,0.8
					C245.1,127,246.9,126.4,247.7,125.6z"/>
			</defs>
			<clipPath id="SVGID_16_">
				<use xlink:href="#SVGID_15_"  overflow="visible"/>
			</clipPath>
			<path clip-path="url(#SVGID_16_)" fill="#454466" d="M240.4,65.9c2,6.8,3.8,14.1,1.9,21c-0.9,3.4-2.7,6.5-3.9,9.8
				s-1.8,7-0.3,10.2c-1.4-1.8-2.6-3.8-3.5-6c-2.3,9.8,1.5,20.8,9.4,27c1.3,1,2.8,2,4.5,2.1c3.7,0.1,6.1-3.8,7.4-7.2
				c4.8-13.1,5.1-27.7,1.3-41.1c-1.8-6.4-5.1-13-11.2-15.8c-1-0.5-2.1-0.8-3.2-0.6c-1.1,0.3-2,1.3-1.8,2.4"/>
		</g>
		<path display="inline" fill="#454466" d="M173.3,153.8c-3.4-1.1-6.2-0.8-9.5,0.5c-0.5,0.2-1.3,1-1.4,1.7c-0.1,0.7,0.4,1.2,0.9,1.5
			c1.1,0.7,2.4,0.7,3.6,0.7c2.2,0,4.5,0,6.4-1.5c0.4-0.3,0.8-0.8,0.9-1.4S174,154.4,173.3,153.8"/>
	</g>
	<g>
		<path fill="#FFFFFF" d="M113.3,101.6c-3.2-3.8-6.6-7.8-11.2-9.7s-10.8-1.1-13.4,3.2c-1.7,2.8-1.4,6.4-0.5,9.5s2.5,6,3.5,9.1
			c0.8,2.6,1.2,5.3,2.4,7.6c1.2,2.3,3.1,4.2,5.2,5.9c3.3,2.6,7.4,4.8,11.6,4.2s7.9-4.9,6.6-8.9"/>
		<path fill="#454466" d="M103.2,100.2c-0.4-0.5-1.1-0.7-1.7-0.8c-0.7-0.2-1.3-0.4-2-0.6c-1.6-0.4-3.4-0.8-4.7,0.1
			c-1.1,0.8-1.5,2.4-1.3,3.7c0.2,1.4,1,2.6,1.7,3.8c0.7,1.2,1.5,2.4,1.8,3.7c0.8-0.7,0.8-1.9,0.7-3c-0.1-1.1-0.2-2.3,0.5-3
			c0.5-0.5,1.3-0.7,2-0.6c0.7,0.1,1.4,0.3,2.1,0.4c0.2,0,0.4,0,0.5,0c0.4-0.1,0.5-0.6,0.6-1C103.7,101.9,103.8,100.9,103.2,100.2z"
			/>
		<g>
			<defs>
				<path id="SVGID_17_" d="M113.3,101.6c-3.2-3.8-6.6-7.8-11.2-9.7s-10.8-1.1-13.4,3.2c-1.7,2.8-1.4,6.4-0.5,9.5s2.5,6,3.5,9.1
					c0.8,2.6,1.2,5.3,2.4,7.6c1.2,2.3,3,4.4,5.1,6.1c3.3,2.6,7.5,4.9,11.6,4.3c4.2-0.6,8-5.1,6.6-9.1"/>
			</defs>
			<clipPath id="SVGID_18_">
				<use xlink:href="#SVGID_17_"  overflow="visible"/>
			</clipPath>
			<path clip-path="url(#SVGID_18_)" fill="#454466" d="M104.9,128.8c-0.8-0.1-1.6-0.4-2.4-0.7c-1.3-0.5-2.6-0.9-3.9-1.4
				c-0.1,0.3,0.1,0.6,0.3,0.8c2.9,2.8,6.9,4.8,10.9,4.6c0.9-0.1,1.7-0.1,2.5-0.7c-0.4-2-0.6-4.2-1-6.2c-0.1-0.4-0.4-0.9-0.8-0.7
				c-0.1,0.1-0.2,0.2-0.2,0.3c-0.2,0.6-0.2,1-0.4,1.6c0,0.2-0.2,0.6-0.5,1c-0.2,0.2-0.8,0.6-1.1,0.8
				C107.1,128.9,106.3,129.1,104.9,128.8z"/>
		</g>
		<g>
			<path fill="#FFFFFF" d="M196.3,192.4c14.8,6,28.9,13.8,41.9,23.2c-2.9,2.1-5.9,4-9,5.8c17.3,6,35.4,12.4,48,25.8
				c9.7,10.4,15.3,24.2,17.4,38.2c-38.7,9.7-75.1,28.1-114.5,33.8c-41,5.9-82.6-2.1-122.7-12.6c-7.7-2-15.8-4.4-21.1-10.4
				c-1.3-1.4-2.3-3.1-2.4-5c-0.1-1.8,0.7-3.5,1.5-5c4.4-8.7,9.1-17.2,14.1-25.6c6-10,17.1-28.9,27.8-33.6
				c10.2-4.6,25.4-7.3,35.3-12.3c-3.4-1.9-10.9-2.7-14.7-3c23.7-29.8,62.5-33.6,98.2-20.5"/>
		</g>
		<path fill="#454466" d="M168,229.3c8.1,5.2,18,9.5,27.7,10.5c4.1,0.4,14.5,2.3,16.6-2.1c2.3-4.8-7-13.3-7.7-16
			c-1.6-6.3,1.5-11.2,8.6-7.8c3.5,1.6,5.7,1.2,7.3,0.5c2.5-1,4.5-3.1,6.8-6.5c-8.9-6-13.4-7.3-21.8-12.1c-1.6-0.9-3.2-1.8-5-2.3
			c-3.7-1-7.6-0.2-11.3,0.5c-13.9,2.7-28.6,3.5-42-1.2c-3.2-1.1-6.8-2.9-9.5-0.8C138.6,211,159.9,224.1,168,229.3z"/>
		<path fill="#454466" d="M142.1,192.6c0.5,1,0.7,2.2,0.8,3.3c0.4,3.5,0.8,6.9,1.2,10.4c-3.2-2.1-4.8-5.8-6.2-9.4
			c-1.4-3.6-5.1-6.6-8.5-8.3c1.5-0.3,5-2.2,6.5-1.8c0.9,0.3,1.5,1.1,2.1,1.8C139.3,190,141.2,190.9,142.1,192.6z"/>
		<path fill="#FFFFFF" d="M187,207.5c10.2-3.2,14.2-7.7,20.2-15.6c5.9-7.8,10.4-17.9,14-27c8.1-20.4,13.8-41.2,15.1-63.1
			c0.7-11.8-0.4-23.6-2.7-35.2c-1-4.9-2.2-9.8-4.6-14.1c-2.6-4.6-6.4-8.3-10.5-11.5c-14-10.9-32.1-16.1-49.8-15.5s-30,7.4-44.9,16.9
			c-2.2,1.4-4.4,3-5.9,5.1c-1.5,2.3-2.1,5.2-2.6,7.9c-1.8,9.9-3.4,19.9-4.8,29.8c-1,6.5-1.9,12.9-1.8,19.5c0,5.2,0.6,10.4,1.5,15.6
			c4,23.2,6,48.9,19.3,68.3c4.5,6.6,10.5,12.1,18.3,14.4c7.4,2.2,12.4,4.3,18,5.3C171.2,209.3,181.5,209.2,187,207.5z"/>
		<path fill="#FFFFFF" d="M233,101.7c2.5-4.6,6.1-8.6,10.4-11.6c3.6-2.6,8.7-4.4,12.3-1.8c2,1.4,3.1,3.9,3.3,6.3s-0.3,4.9-0.9,7.3
			c-1.6,7.1-4.1,14.7-10.1,18.7c-5.6,3.7-13.7,3.2-18.8-1.2"/>
		<path fill="#454466" d="M192,165.8c0.2-0.1,0.3-0.3,0.3-0.5c0-0.1-0.1-0.2-0.2-0.3c-2.8-2.2-6.7-1.8-10.2-1.4
			c-2.7,0.4-5.5,0.7-8.2,1.1c-1.5,0.2-3.1,0.4-4.6,0.4c-1,0-2.1-0.1-3.1-0.1c-2.1,0.1-4.1,0.8-6,1.8c-1.2,0.6-2.3,1.3-3.4,2
			c6.9,1.3,14,2,21.1,1.8c1.5,0,2.9-0.1,4.3-0.7c0.7-0.3,1.4-0.8,2.1-1.1c1-0.4,2-0.6,3.1-0.8C188.9,167.6,190.6,166.8,192,165.8z"
			/>
		<path fill="#BEBECE" d="M203.4,92.3c0.6,0.1,1.4,0.1,1.8-0.2c0.6-0.4,0.2-1.1-0.3-1.5c-2.1-1.7-5.7-1.9-8.9-1.6
			c-2.1,0.2-3.8,0.6-4.8,2c-0.7,1-1,1.7,0.6,2c1.2,0.2,3.2-0.6,4.4-0.8C198.7,91.8,201,92,203.4,92.3z"/>
		<path fill="#BEBECE" d="M138.2,98.3c-0.2-1.2,0.4-2.4,1.3-3.3c1.4-1.4,3.3-2.1,5.3-2.4c1.9-0.2,3.9,0,5.8,0.4
			c0.9,0.2,1.9,0.5,2.4,1.2c0.5,0.7,0.3,2.1-0.6,2.2c-0.2,0-0.5,0-0.7,0c-3.1-0.6-6.5-1.3-9.4-0.1C140.9,97,139.7,98,138.2,98.3z"/>
		<path fill="#454466" d="M199.9,165.9c0.6,0.1,1.3,0,1.8-0.3c0.6-0.3,1-0.8,1-1.5c-0.1,0.3-0.3,0.5-0.6,0.5s-0.6,0-0.8,0
			c-1.6-0.4-3.1-1.2-4.6-2c-2.3-1.2-4.8-2.3-7.3-3.1c-0.1,0.3,0,0.7,0.2,1c0.2,0.4,0.6,0.6,1,0.9c1.7,1,3.4,1.9,5.1,2.9
			C197.1,165,198.4,165.7,199.9,165.9z"/>
		<g>
			<defs>
				<path id="SVGID_19_" d="M184.6,208.1c16.6-6.1,16.3-7.8,23.1-16.6c6-7.7,9.5-16.1,13.1-25.3c8.1-20.4,14.4-42.1,15.5-64.5
					c0.6-11.8-0.4-23.6-2.7-35.2c-1-4.9-2.2-9.8-4.6-14.1c-2.6-4.6-6.4-8.3-10.5-11.5c-14-10.9-32.1-16.1-49.8-15.5
					s-30,7.4-44.9,16.9c-2.2,1.4-4.4,3-5.9,5.1c-1.5,2.3-2.1,5.2-2.6,7.9c-1.8,9.9-3.4,19.9-4.8,29.8c-1,6.5-1.9,12.9-1.8,19.5
					c0,5.2,0.6,10.4,1.5,15.6c4,23.2,10,46.6,23.3,66.1c4.5,6.6,8.3,11,15.4,14.9c5,2.8,10.6,4.1,16.2,5.1
					C170.6,207.3,179.2,210.1,184.6,208.1z"/>
			</defs>
			<clipPath id="SVGID_20_">
				<use xlink:href="#SVGID_19_"  overflow="visible"/>
			</clipPath>
			<path clip-path="url(#SVGID_20_)" fill="#454466" d="M213.8,69.1c2.5,9.5,13.6,21.4,13.6,35.1c0,30.6-7.2,51.8-11.2,64.8
				c-3.1,10-11.2,26-20.1,34.3c2.1-1.1,7.6-6.3,8.4-7.2c5.6-6.2,9-13.1,12.2-20.8c1.7-3.9,5.4-11,6.8-15
				c4.5-13.7,8.1-24.4,10.5-38.8c6.3,2.8,14.1,0,18.4-5.3s6-12.1,7-18.8c0.1-0.4,0-2.2-1.5-2.5c-3.3-0.5-2-4.3-4.4-6.5
				c-1.6-1.5-6.9-0.3-9.1-0.9c-1.7,1.2-3.4,2.2-5.1,2.4c-1.4,0.1-2.7-0.6-3.8-1.4c-3.3-2.2-6-5.1-8.8-8c-2.8-3-5.7-6-8.5-8.9
				c-0.5,2.2-0.2,4.7,0.9,6.7"/>
			<path clip-path="url(#SVGID_20_)" fill="#454466" d="M221,155.6c3.2-3.7,3.7-9,5.2-13.7c0.7-2.3,1.7-4.5,2.1-6.9
				c0.5-2.4-0.6-10-1.9-12.1c-0.5,6.4-1.8,6.4-3.5,7.4c-1.4,0.8-2.2,2.3-2.6,3.8c-0.4,1.5-0.3,3.2-0.2,4.7c0.2,4.3,0.1,8.7-1.3,21.3
				C218.8,161.5,220.2,154.8,221,155.6z"/>
		</g>
		<g>
			<defs>
				<path id="SVGID_21_" d="M233,101.7c2.5-4.6,6.1-8.6,10.4-11.6c3.6-2.6,8.7-4.4,12.3-1.8c2,1.4,3.1,3.9,3.3,6.3s-0.3,4.9-0.9,7.3
					c-1.6,7.1-4.1,14.7-10.1,18.7c-5.6,3.7-13.7,3.2-18.8-1.2"/>
			</defs>
			<clipPath id="SVGID_22_">
				<use xlink:href="#SVGID_21_"  overflow="visible"/>
			</clipPath>
			<path clip-path="url(#SVGID_22_)" fill="#454466" d="M242.2,87.7c0.2,1.8,0.3,3.7,1,5.4c0.7,1.7,2,3.2,3.8,3.7
				c2.4,0.7,4.8-0.6,7.1-1.6c1.8-0.8,3.7-1.5,5.6-1.8c1.1-0.2,2.4-0.2,3.4,0.3c1.5,0.7,2.5,2.3,2.8,3.9s0,3.4-0.5,5
				c-1,3.3-2.5,6.5-4.2,9.5c-1.9,3.3-3.9,6.5-6.1,9.6c-1.2,1.6-2.4,3.2-4,4.4c-2.2,1.6-5,2.1-7.7,2.5c-2.1,0.3-4.2,0.6-6.2,0.4
				c-2.1-0.2-4.2-1-5.5-2.6c-1.8-2.1-2.1-5.1-2.2-7.8c-0.2-7.8,0.9-15.7,3.5-23.1c1.5-4.3,3.8-8.7,7.9-10.9c0.5-0.2,1.1-0.4,1.5-0.1
				c0.2,0.2,0.3,0.5,0.4,0.8c0.3,1.2,0.3,2.4,0.1,3.5"/>
		</g>
		<path fill="#BEBECE" d="M137.2,121.9c3.5,2,6.9,2.3,10.1,0.1s4.7-6.6,3.7-10.4c-0.9,3.4-3.8,6.1-7.2,6.8c-1.8,0.4-3.7,0.2-5.6,0.2
			c-1,0-2.4,0.4-2.4,1.4C135.9,120.8,136.6,121.4,137.2,121.9"/>
		<path fill="#BEBECE" d="M206.5,120.5c-3.5,2-6.9,2.3-10.1,0.1c-3.2-2.2-4.7-6.6-3.7-10.4c0.9,3.4,3.8,6.1,7.2,6.8
			c1.8,0.4,3.7,0.2,5.6,0.2c1,0,2.4,0.4,2.4,1.4C207.9,119.4,207.2,120,206.5,120.5"/>
		<path fill="#454466" d="M147.2,102.1c-3.5,0.3-5.8,5.4-6,9.7c-0.1,2.1,0.2,4.3,1.9,6c0.5,0.5,1.7,1,2.3,1.2c1.3,0.2,2.4-0.4,3.5-1
			c1.1-0.6,1.8-2.2,2.3-3.6c0.9-2.7,1-6.7-0.2-9.3C150,102.8,148.6,102,147.2,102.1z"/>
		<path fill="#454466" d="M192.4,112.8c0.3-5.9,3.3-10.3,5.1-10.6c2.1-0.3,4.3,0.8,5.1,3.3c0.8,2.5,0.5,5.4-0.2,8
			c-0.4,1.5-1,3.1-2,3.8c-1.1,0.7-2.6,1.1-3.8,0.8c-1.6-0.4-3-1.6-3.8-3.4c-0.4-0.9-0.4-1.9-0.3-2.9"/>
		<path fill="#BEBECE" d="M123.1,93.8c-2.3,2.7-3.7,6.4-4,10.1c-0.6,6.9,2.5,13.8,1.2,20.6c-0.6-1.9-1.2-3.7-1.8-5.6
			c0.2,2.2-0.1,4.4-0.8,6.3c-0.2-1.8-0.5-3.6-1-5.3c-0.4,4.7-3.3,9-7.2,10.4c0.3-7-2.1-13.7-2.8-20.6c-0.4-3.9,0-8.4,2.5-10.9
			c1-1,2.3-1.6,3.6-2.2c2.6-1.2,5.3-2.4,8-3.5c0.4-0.2,0.9-0.4,1.4-0.3c0.5,0.1,0.9,0.7,0.7,1.2"/>
		<path fill="#BEBECE" d="M77.4,85.1c5.8,3.9,13.5,3.4,20.5,2.8c-3.7,3-11,3.5-15.8,3.8c5.7,5.4,17,10.8,24.6,9.1
			c7.6-1.7,16.9-4.2,24.1-7.3c9.7-4.2,17.8-11.7,27-16.9c16.4-9.3,28.2-26.3,31.4-44.9c0.4-2.1,0.6-4.3,0.1-6.4
			c-0.5-1.8-1.5-3.4-2.6-4.9c-2.9-4.1-6.5-7.9-11.1-10.1c-4.3-2-9.2-2.4-13.9-2.3c-23.7,0.8-46.4,16.4-55.6,38.3
			c-1.5,3.5-2.6,7-4,10.5C97.4,68.8,89.3,80.3,77.4,85.1z"/>
		<g>
			<defs>
				<path id="SVGID_23_" d="M77.4,85.1c5.8,3.9,13.5,3.4,20.5,2.8c-3.7,3-11,3.5-15.8,3.8c5.7,5.4,17,10.8,24.6,9.1
					c7.6-1.7,16.9-4.2,24.1-7.3c9.7-4.2,17.8-11.7,27-16.9c16.4-9.3,28.2-26.3,31.4-44.9c0.4-2.1,0.6-4.3,0.1-6.4
					c-0.5-1.8-1.5-3.4-2.6-4.9c-2.9-4.1-6.5-7.9-11.1-10.1c-4.3-2-9.2-2.4-13.9-2.3c-23.7,0.8-46.4,16.4-55.6,38.3
					c-1.5,3.5-2.6,7-4,10.5C97.4,68.8,89.3,80.3,77.4,85.1z"/>
			</defs>
			<clipPath id="SVGID_24_">
				<use xlink:href="#SVGID_23_"  overflow="visible"/>
			</clipPath>
			<path clip-path="url(#SVGID_24_)" fill="#454466" d="M181.9,10.7c-4.7,6.3-5,14.9-9.1,21.6c-3.3,5.4-8.7,9-13.7,12.9
				c-5,3.9-10,8.4-11.6,14.6c1.7-1.1,3.3-2.2,5-3.3c-2,6.6-7.8,11.4-13.7,15C133,75,126.6,78,121.6,82.7c-5,4.8-8.4,12.1-6.1,18.7
				c18.1-5.5,36.1-11.9,52.2-21.9c5.9-3.7,11.6-7.9,15.6-13.6c4.6-6.5,6.6-14.8,5.5-22.8c-0.1-1-0.3-2-0.2-3.1
				c0.2-1.1,0.7-2.2,1.2-3.2c2.8-6.1,3.2-13.1,1.3-19.5c-0.8-2.5-2-5.1-4.3-6.4s-5.7-0.7-6.7,1.7"/>
		</g>
		<path fill="#BEBECE" d="M222,88c3.6,6.6,4.7,14.5,3,21.9c-0.5,2.1-1.2,4.3-1.3,6.5c-0.1,3.1,1.3,6.2,3.6,8.3
			c-0.6-1.6-0.5-3.4,0.1-5c0.2,2.3,1.3,4.5,3,6.1c-0.6-1.4-0.7-2.9-0.5-4.4c0.8,1.7,2.4,2.9,4.1,3.7s3.6,1,5.5,1
			c-1.5-0.4-2.5-1.9-2.8-3.4c-0.4-1.9,0-4,0.4-5.9c0.8-3.1,1.7-6.2,2.3-9.3s0.7-6.5-0.3-9.5c-0.7-2.1-1.8-4-3.1-5.8
			c-2-2.8-4.4-5.5-7.7-6.4c-1.3-0.4-2.8-0.4-4,0.2c-1.2,0.6-2.2,1.9-2,3.2"/>
		<g>
			<defs>
				<path id="SVGID_25_" d="M123.1,93.8c-2.3,2.7-3.7,6.4-4,10.1c-0.6,6.9,2.5,13.8,1.2,20.6c-0.6-1.9-1.2-3.7-1.8-5.6
					c0.2,2.2-0.1,4.4-0.8,6.3c-0.2-1.8-0.5-3.6-1-5.3c-0.4,4.7-3.3,9-7.2,10.4c0.3-7-2.1-13.7-2.8-20.6c-0.4-3.9,0-8.4,2.5-10.9
					c1-1,2.3-1.6,3.6-2.2c2.6-1.2,5.3-2.4,8-3.5c0.4-0.2,0.9-0.4,1.4-0.3c0.5,0.1,0.9,0.7,0.7,1.2"/>
			</defs>
			<clipPath id="SVGID_26_">
				<use xlink:href="#SVGID_25_"  overflow="visible"/>
			</clipPath>
			<path clip-path="url(#SVGID_26_)" fill="#454466" d="M115.2,95.9c-0.5,1.2-0.6,2.6-0.3,3.9c0.2,1.1,0.8,2.1,1.1,3.2
				c0.8,2.9,0.1,6-0.7,8.9c1.5-1.2,2.8-2.7,3.8-4.3c-0.6,1.5-1.2,3-1.8,4.5c2.5-1.6,3.4-4.7,3.9-7.6c0.3-1.6,0.5-3.2,0.7-4.8
				c0.1-0.9,0.2-1.9,0-2.8c-0.2-0.9-0.7-1.8-1.6-2.2c-0.9-0.4-2-0.3-2.9,0.1c-0.9,0.4-1.6,1.2-2.3,1.9"/>
		</g>
		<path fill="#BEBECE" d="M214.7,82c-3.3-3.5-6.2-6.7-8.9-10.6c-9-12.7-15.7-27.2-19.6-42.3c3.3-3.8,6.7-7.7,10.9-10.4
			s9.5-4.3,14.4-3c3.1,0.8,5.9,2.7,8.4,4.8c5.1,4.4,9.2,9.8,12.1,15.9c7.1,15.3,7.7,32.8,8.6,49.7c0.4,6.1,1.1,13.1,4.4,15
			c-2.9,0.2-7.3-3.6-8.3-6.7c0.6,2.9-0.6,4.7,6.5,10.7C234.2,102.2,222.1,90.2,214.7,82"/>
		<g>
			<defs>
				<path id="SVGID_27_" d="M214.7,82c-3.3-3.5-6.2-6.7-8.9-10.6c-9-12.7-15.7-27.2-19.6-42.3c3.3-3.8,6.7-7.7,10.9-10.4
					s9.5-4.3,14.4-3c3.1,0.8,5.9,2.7,8.4,4.8c5.1,4.4,9.2,9.8,12.1,15.9c7.1,15.3,7.9,32.7,8.9,49.5c0.4,6.1,2.9,15.1,5.8,16.5
					c-3.2,0.7-8.8-4.7-9.8-7.8c-0.7,2.9-0.7,4.4,6.4,10.4C234.2,102.2,222.1,90.2,214.7,82"/>
			</defs>
			<clipPath id="SVGID_28_">
				<use xlink:href="#SVGID_27_"  overflow="visible"/>
			</clipPath>
			<path clip-path="url(#SVGID_28_)" fill="#454466" d="M219,3.1c-4.3,1.6-7,6.3-7.4,10.9c-0.4,4.6,1.1,9.2,2.9,13.5
				c1.9,4.3,4.1,8.3,5.5,12.8c-3-1.6-5.7-3.7-7.9-6.4c0.6,1.5,1.4,2.8,2.2,4.2c6.6,11.6,6.9,25.8,13,37.6c2.5,4.8,5.9,9.1,7.8,14.2
				c1.2,3.1,1.8,6.4,3.3,9.3c1.6,2.9,4.6,5.4,7.8,5c3-0.3,5.3-2.9,6.4-5.6c1.1-2.6,1.5-5.4,1.7-8.2c2.7-30.5-7.8-61.9-28.4-84.5
				c-1.3-1.4-2.6-2.8-4.4-3.4c-1.8-0.6-4.1-0.1-4.9,1.6"/>
		</g>
		<g>
			<defs>
				<path id="SVGID_29_" d="M214.7,82c-3.3-3.5-6.2-6.7-8.9-10.6c-9-12.7-16-27.2-19.9-42.3c3.3-3.8,6.9-7.6,11.2-10.4
					s9.5-4.3,14.4-3c3.1,0.8,5.9,2.7,8.4,4.8c5.1,4.4,9.2,9.8,12.1,15.9c7.1,15.3,7.7,32.8,8.6,49.7c0.4,6.1,1.1,13.1,4.4,15
					c-2.9,0.2-7.3-3.6-8.3-6.7c0.6,2.9-0.6,4.7,6.5,10.7C234.2,102.2,222.1,90.2,214.7,82"/>
			</defs>
			<clipPath id="SVGID_30_">
				<use xlink:href="#SVGID_29_"  overflow="visible"/>
			</clipPath>
			<path clip-path="url(#SVGID_30_)" fill="#454466" d="M190.2,21.9c-0.7,3-0.7,6.1,0.1,9c0.7,2.7,2.1,5.2,2.4,7.9
				c0.3,2.7-0.7,6-3.3,6.9c-5-6.8-5.5-16.6-1.4-24c0.3-0.6,0.8-1.2,1.4-1.2c1,0,1.2,1.5,0.9,2.5"/>
		</g>
		<path fill="#BEBECE" d="M189.9,159.7c0.9,1.5,1.6,3.6,0.4,4.9c-1.1,1.1-2.9,0.7-4.2-0.2c-1.2-0.9-2.1-2.2-3.2-3.2
			c0.5,1.7-0.2,3.7-1.6,4.9c-0.4,0.3-0.9,0.6-1.4,0.6c-0.8,0-1.4-0.7-1.6-1.4c-0.2-0.7-0.1-1.5,0-2.3c-0.1,2.4-2.5,5.5-4.3,5.5
			c-1-0.3-0.6-3.2,0-4.6c-1,1.7-2.5,3.1-4.3,4c-1.4,0.7-3.6,0.8-4.2-0.7c-0.4-1.2,0.6-2.4,1.5-3.2c-4.6,2.3-13.8,6.5-15,4.8
			c0-0.1-0.2-0.4-0.2-0.5c-0.3-1.1,0.3-2.6,1.3-3.2c-2.4,1.4-5,2.9-7.8,3.1c-0.6,0-1.2,0-1.6-0.3c-1.1-0.7-0.6-2.5,0.3-3.5
			c2.3-2.9,5.6-4.6,9.1-6c5.6-2.2,7.2-2.6,10.7-3.9c1.9-0.7,3.6-1.2,5.5-1.7c2.2-0.6,5.4,0,7.7,0c9,0,18.3,2.2,24.7,8.4
			c0.6,0.5,1.1,1.2,1.1,2c-0.1,0.9-0.9,1.5-1.8,1.5c-0.9,0.1-1.7-0.2-2.5-0.6C195.6,162.9,192.7,161.4,189.9,159.7z"/>
		<path fill="#454466" d="M162.4,141c0.5-1.8,2.1-0.8,3.3-0.8c2.5,0,3.4,1.2,5.8,1.2c2.1,0,3-1.5,5-1.5c0.3,0,2.6,0.5,2.9,0.3
			c0.2-0.1,0.6-1.1,0.6-1.3c0.5-3.1-2-6.4-1.3-9.4c0.1-0.4,0.3-0.8,0.6-0.9c0.7-0.3,1.2,0.6,1.5,1.2c1.2,2.9,2.8,5.7,4.8,8.2
			c2,2.5,4.5,5,5,8.2c0,0.2,0.1,0.5-0.1,0.7c-0.1,0.1-0.2,0.2-0.4,0.3c-2.3,1.3-5.1,0.8-7.5-0.1c-2.4-0.9-4.8-2.2-7.3-2.6
			c-2.3-0.4-4.7,0-7.1-0.1S162.4,142.8,162.4,141z"/>
	</g>
	<g display="none">
		<path display="inline" fill="#FFFFFF" d="M89.5,124.4c0.7,10.7-1.7,21.3-2,31.9c-0.4,13.4-0.3,29.6,5.7,41.6
			c0.2,0.4,0.4,0.9,0.8,1.1c0.5,0.3,1.2,0.2,1.8,0.2c4.4-0.2,9.7,1.9,14.3,3c2.7,0.6,5.2,2,8,2.2c4.3,0.4,8.7-0.7,12.9-2
			c-2.1-4.4-2.5-8.8-2.3-13.6c0.2-4.9,1.1-9.7,1.3-14.6c0.6-15.3-5-30.1-11.1-44.2c-1.5-3.3-3-6.8-5.8-9.1c-2.5-2.1-5.7-3-8.9-3.6
			c-3.7-0.6-7.6-0.7-11.1,0.7c-1.4,0.6-2.7,1.4-3.6,2.7s-1,3-0.2,4.3"/>
		<path display="inline" fill="#BEBECE" d="M195.5,164.2c16.3,4,28,17.8,42.2,26.5c3.5,2.1,7.1,4,10.2,6.6c3.1,2.6,5.5,5.9,7.8,9.2
			c9,12.4,18,25,24.2,39c1.6,3.5,2.9,7.6,1.2,11c-0.9,1.8-2.6,3.1-4.3,4.3c-14.2,9.3-32.4,8.2-49.3,9.1
			c-24.8,1.3-49.1,7.5-73.7,11.1c-32.2,4.7-65.1,5-97.3-0.1c-2.7-0.4-5.7-1-7.7-2.9c-4.3-4-2.3-11.1,0-16.4
			c5.3-12.5,10.6-25,15.9-37.5c2.4-5.7,4.9-11.5,8.6-16.5c4.6-6.2,13.1-16.1,19.3-20.6c11.2-8.1,20.5-10.6,32-18.4
			c4.5-3.1,9.2-6.2,14.5-7.5c7.8-1.8,15.8,0.7,23.8,0.7c6.9,0,13.8-1.7,20.7-1.8c6.9-0.1,14.5,2.1,18.2,7.9"/>
		<g display="inline">
			<defs>
				<path id="SVGID_31_" d="M195.5,164.2c16.3,4,28,17.8,42.2,26.5c3.5,2.1,7.1,4,10.2,6.6c3.1,2.6,5.5,5.9,7.8,9.2
					c9,12.4,18,25,24.2,39c1.6,3.5,2.9,7.6,1.2,11c-0.9,1.8-2.6,3.1-4.3,4.3c-14.2,9.3-32.4,8.2-49.3,9.1
					c-24.8,1.3-49.1,7.5-73.7,11.1c-32.2,4.7-65.1,5-97.3-0.1c-2.7-0.4-5.7-1-7.7-2.9c-4.3-4-2.3-11.1,0-16.4
					c5.3-12.5,10.6-25,15.9-37.5c2.4-5.7,4.9-11.5,8.6-16.5c4.6-6.2,13.1-16.1,19.3-20.6c11.2-8.1,20.5-10.6,32-18.4
					c4.5-3.1,9.2-6.2,14.5-7.5c7.8-1.8,15.8,0.7,23.8,0.7c6.9,0,13.8-1.7,20.7-1.8c6.9-0.1,14.5,2.1,18.2,7.9"/>
			</defs>
			<clipPath id="SVGID_32_">
				<use xlink:href="#SVGID_31_"  overflow="visible"/>
			</clipPath>
			<path clip-path="url(#SVGID_32_)" fill="#454466" d="M132.1,161.4c-5.1,1.5-10.3,4.8-11.2,10.1c-0.9,5.1,2.8,10,6.8,13.3
				c10.7,8.6,25.1,11,38.8,11c6.3,0,12.6-0.5,18.8,0.4c3.1,0.5,6.4,1.4,8.3,3.9c1.4,1.8,1.9,4,3.1,5.9c3.3,4.9,10.4,5,16.2,4
				c16.1-2.7,32.2-10.6,40.2-24.8c1.6-2.8,2.8-5.8,2.8-9c0-3.9-1.9-7.7-4.6-10.6c-2.7-2.9-6.2-4.9-9.7-6.6
				c-15.4-7.2-32.8-8-49.8-9.2c-11.9-0.8-24-1.9-35.6,1c-9.1,2.3-17.4,7.1-25.6,11.8"/>
		</g>
		<path display="inline" fill="#FFFFFF" d="M171.3,64.1c-1.1-2.3,0.1-4.9,1.6-6.9c6.1-8,16.4-11.2,26.1-13.5
			c7.7-1.8,16-3.2,23.4-0.3c6.1,2.4,13.1,6.7,17.2,11.8c3.2,3.9,6,8,8,12.7c5.2,11.9,4.4,24.9,3.4,37.4c-1.1,12.5-3.7,24.9-4.4,37.5
			c-0.9,16.6,1.7,33.3,0.3,49.9c-0.1,1.4,0.5,4-0.1,5.3c-2.1,4-7.2,5-11.7,5.1c-4.6,0.2-7.8,0-14.7,0c-1.2,0-5.2-0.3-6.4-0.5
			c-2-0.4-2.2-0.7-2.6-2.7c-1.6-7.7-0.6-18.7,0.5-26.5c1.4-10.1,4.2-17.3,4-27.6c-0.2-9.4,0.2-18.8-0.8-28.1
			c-1-9.3-3.5-18.7-8.8-26.4c-7.6-10.9-19.9-17.4-31.4-23.9C173.4,66.4,171.9,65.6,171.3,64.1z"/>
		<path display="inline" fill="#BEBECE" d="M218.5,162.3c10.2-13.1,16.1-28.3,14.1-43.9c-0.9-7.2-3.6-14-6.3-20.7
			c-2.1-5-4.3-10.1-7.8-14.3c-3.2-3.7-7.3-6.5-11.5-8.9c-18.9-11.1-42.2-17.2-62.9-10.1c-5.8,2-11.2,4.9-16.5,7.8
			c-2,1.1-3.9,2.1-5.7,3.5c-2,1.6-3.6,3.6-5.2,5.5c-2.1,2.5-4.3,5-6.3,7.7c-10.5,14.2-13.5,33.4-8.2,50.2s18.6,30.8,35.1,37.1
			c3.8,1.5,7.8,2.6,11.8,3.6c10.9,2.7,23.7,3.7,34.7,1.4c6.9-1.4,11.4-3.2,16.1-5.2c3.6-1.5,5.7-2.5,8.8-4.9
			C212.2,168.4,215.8,165.8,218.5,162.3z"/>
		<path display="inline" fill="#454466" d="M195.5,119.8c0.8,0.8,2,1.3,3.1,1.1c1.4-0.3,2.4-1.5,3-2.8c0.2-0.4,0.3-0.8,0.5-1.3
			c1.1-3.4-0.1-10.3-5-7.4C193.8,111.3,192.8,117.1,195.5,119.8z"/>
		<path display="inline" fill="#454466" d="M136.6,112.3c-0.4,1.3-0.8,2.7-0.7,4c0.1,1.8,1.1,3.5,2.7,4.4c1.6,0.9,3.7,0.8,5.1-0.3
			c1.6-1.3,2.1-3.4,2.3-5.4c0.1-1,0.2-2.6-0.2-3.6c-0.2-0.6-1-1.7-1.5-2.1c-0.8-0.6-1.5-1-2.7-1c-1,0-2.3,0.5-3.2,1.1
			C137.3,110.1,137,111.2,136.6,112.3z"/>
		<path display="inline" fill="#BEBECE" d="M247.6,111.5c0.2,3.5,0.2,7-0.4,10.5c-0.5,2.8-1.5,5.6-3.3,7.8s-4.4,3.9-7.3,4
			s-5.8-1.5-6.9-4.1c-0.5-1.3-0.6-2.6-0.8-4c-0.5-3.3-1.5-6.5-3-9.5c1.5-2.7,2.8-5.5,4.6-8s4.1-4.8,7.1-5.7c2.9-0.9,6.5-0.2,8.4,2.3
			C247.3,106.6,247.5,109.1,247.6,111.5z"/>
		<path display="inline" fill="#FFFFFF" d="M179.6,55.4c-1.4-3.6-5.4-7.4-8.8-9.3s-8-3.8-11.9-4.5c-13.6-2.4-27.5-1.3-40.7,3
			c-3.2,1-6.5,3.2-9.3,5.1c-2.4,1.7-6.4,4.9-8.3,7.1c-6.9,8.1-11.2,17.8-13,28.3c-1.9,11.4,1.5,23,5.4,34c0.3,0.8,0.6,1.6,1.1,2.3
			c1.5,2.1,5.5-10.6,7.3-8.7c8-2.8,8.1-4.8,9.7-6.1c0.7-0.6,2.6-2.2,3.4-2.4c2-0.7,2.8-0.5,4.5-0.8c12.8-2.1,19.9-5.8,29.4-12.3
			c3.7-2.6,7.4-5.2,11.1-7.8c3.4-2.4,6.8-4.8,9.5-7.8c3.7-4,6.2-9,8.4-14.1c0.4-0.8,0.8-1.7,0.9-2.6
			C178.5,57.8,180.1,56.5,179.6,55.4z"/>
		<path display="inline" fill="#BEBECE" d="M101.5,112.8c-2.3-1.8-4.6-3.5-6.8-5.3c-1-0.8-2.1-1.6-3.3-1.8c-2.7-0.5-5.2,1.8-6.4,4.3
			c-1.3,2.6-1.9,5.6-1.6,8.6c0.4,4,2.2,7.6,3.9,11.2c0.6,1.2,1.2,2.3,2.1,3.2c1.3,1.3,3.4,2,5.2,1.6s3.5-1.6,4.3-3.3
			c0.2-0.5,0.4-1,0.8-1.4c0.4-0.4,0.9-0.6,1.3-0.9c1.3-1.1,1.1-3.1,0.8-4.8"/>
		<path display="inline" fill="#454466" d="M89.1,122.6c-1.3-3.3-2.3-7.5-0.2-10.5c1.5-0.7,3.2,0.1,4.7,0.8c1.2,0.6,2.5,1.3,3.7,1.9
			c0.2,0.1,0.5,0.3,0.6,0.5c0.1,0.2,0,0.4,0,0.6c-0.1,0.8-0.3,1.5-0.4,2.3c-1.5-0.4-3-1-4.3-1.9c-0.5-0.3-1-0.7-1.6-0.6
			c-1,0.1-1.5,1.1-1.8,2.1C89.3,119.4,89.1,121,89.1,122.6z"/>
		<path display="inline" fill="#FFFFFF" d="M198.6,97c-1.1-0.5-2.2-1-3.4-1c-1.2,0-2.5,0.6-2.9,1.8c-0.1,0.5-0.1,1,0.2,1.1
			c0.5,0.2,4.6,0.1,6.5,1.3c1.6,1,3,2.7,4.9,2.4c0.6-0.8,0.4-2.1-0.3-2.9s-1.6-1.3-2.6-1.7C200.2,97.7,199.4,97.3,198.6,97z"/>
		<path display="inline" fill="#FFFFFF" d="M134.6,100.8c0.9-0.4,1.8-0.6,2.7-0.8c1.5-0.4,3.1-0.8,4.6-1.1c0.6-0.1,1.2-0.3,1.7-0.2
			c0.6,0.1,1.2,0.4,1.3,1c0.2,0.6,0.3,1.2,0,1.7c-0.3,0.5-0.5,0.4-2.1,0.4c-2.6-0.1-4.4,0.1-6.3,1.3c-0.8,0.5-1.4,1.1-2.2,1.6
			c-0.5,0.4-1.2,0.7-1.8,0.7c-0.7,0-1.4-0.4-1.6-1c-0.2-0.8,0.5-1.7,1.2-2.2C133,101.7,133.8,101.2,134.6,100.8z"/>
		<path display="inline" fill="#454466" d="M204,122.9c0.1,0,0.2-0.1,0.3,0c0.1,0,0.1,0.1,0.1,0.2c0.4,0.8,0,1.8-0.6,2.5
			c-1.6,2.2-4.4,3.4-7.1,3.2c-1-0.1-6.7-1.8-5.4-3.7c0.7-1.1,5,1.1,5.9,1.3c1.4,0.3,3.2,0.1,4.4-0.8
			C202.6,124.9,202.9,123.4,204,122.9z"/>
		<path display="inline" fill="#454466" d="M145,124c-0.4,1-0.4,0.8-1,1.7c-0.5,0.7-1.1,1.4-1.8,2c-0.7,0.5-1.5,1-2.3,1.3
			c-1.7,0.7-3.6,1.1-5.5,1.1c-1.9,0-3.9-0.7-4.7-2.4c-0.1-0.1-0.1-0.6,0-0.7c0-0.2,0.2-0.5,0.4-0.5c1.1-0.5,2.5,0,3.7,0.1
			c1,0.1,2.1,0.2,3.2,0.2c0.7,0,1.5,0,2.2-0.3c0.6-0.3,1.1-0.7,1.6-1.2c0.8-0.8,1.6-1.7,2.3-2.7c0.3-0.4,0.6-0.8,1-0.8
			c0.5,0,0.9,0.5,0.9,1C145.2,123.1,145.2,123.6,145,124"/>
		<path display="inline" fill="#FFFFFF" d="M232.8,120.6c0.5,2.7,1.6,2.6,2.4,2.4c1.3-0.3,2-0.7,2.6-1.1c1.8-1.1,3.7-2.2,4.7-4.4
			c0.5,4.3-3.5,9.6-7.8,9.5c-0.5,0-1.3-0.1-1.6-0.5c-0.2-0.3-0.3-0.6-0.4-1C232,123.7,232.7,122.2,232.8,120.6"/>
		<path display="inline" fill="#454466" d="M184.2,149.4c0.1,0.4-0.3,1.3-1.2,1.6c-5.7,2.3-8.9,3.6-16,3.4c-3.4-0.1-4.8-0.4-6.2-0.8
			c-1.8-0.5-2.8-1-4.3-2.2c-0.7-0.6-1.2-1.5-0.5-2.1c0.5-0.4,1.2-0.1,1.7,0.2c7,3.5,15.5,2.4,22.7-0.6c0.8-0.3,1.5-0.7,2.3-0.6
			C183.6,148.4,184,148.6,184.2,149.4z"/>
		<path display="inline" fill="#FFFFFF" d="M191.9,80.7c2,4.9,5.2,8.8,8.9,12.5c2.9,3,7,5.4,10.8,7.1c6.5,2.8,13.7,4.5,20.2,1.8
			c0.8-0.3,2.1-4.7,2.2-5.6c0.1-0.6-0.3-1.2-0.7-1.7c-4.5-6.3-10.4-11.4-15.5-17.3c-2.4-2.8-4.7-5.8-7.4-8.3
			c-6.9-6.4-24.5-8-33.8-6.8C184.2,66.4,189.3,74.5,191.9,80.7z"/>
		<path display="inline" fill="#FFFFFF" d="M246.7,129.5c-1.5,14.8,6.7,28.6,9.2,43.2c1.2,6.9,1.1,14,1,21.1
			c-4.7,0.1-9.5,0.9-14,2.5c-2.1-16.7-1.8-33.7,0.9-50.2c0.4-2.7,1-5.4,2.1-7.8"/>
		<path display="inline" fill="#454466" d="M151.7,145c-0.3,6.1-4.6,14.6-10.1,20.2c-1,1-3.4,2.7-2.6,3.5c0.7,0.6,1.8,0.1,2.6-0.4
			c6.8-4.9,11.1-12.9,12-21.3c0.1-0.8,0.3-2-0.2-2.5C152.9,143.8,151.8,143.6,151.7,145"/>
		<path display="inline" fill="#454466" d="M188.5,144.3c0.3,6.1,4.6,14.6,10.1,20.2c1,1,3.4,2.7,2.6,3.5c-0.7,0.6-1.8,0.1-2.6-0.4
			c-6.8-4.9-11.1-12.9-12-21.3c-0.1-0.8-0.3-2,0.2-2.5C187.4,143.2,188.5,143,188.5,144.3"/>
		<path display="inline" fill="#454466" d="M166.2,135.2c-1.3-1-2.5-2.1-3.1-3.6c1.9,0.5,3.3,0.6,5.1,0.8c1,0.1,2.2,0,3-0.7
			c1.4-1.3,0.6-4.9,0.6-5.7c0.3-0.2,1.7,2.5,1.9,2.9c0.4,0.7,1,2.3,1.2,2.7c0.6,1.2,0.7,1.3,1.3,2.9c0.4,1.1,0.9,2.3,0.4,3.3
			c-0.4,0.7-1.2,1.1-2,1.3C172.8,139.7,167.6,136.4,166.2,135.2z"/>
	</g>
	<g display="none">
		<path display="inline" fill="#BEBECE" d="M23.3,68.3c-1.8,2-2.1,4.9-2.2,7.6c-0.9,27.3,3.5,54.7,13,80.3c0.8,2.2,1.7,4.5,3.2,6.3
			c2.1,2.5,5.3,3.9,8.3,5.2c36.4,15.7,72.9,31.4,109.3,47.1c35.3,15.2,70.8,30.5,103.4,50.9c2.3,1.4,4.7,2.9,7.4,3
			c1.8,0,3.6-0.6,5.3-1.3c10.2-3.8,20.3-7.7,30.5-11.5c1.6-0.6,3.2-1.2,4.2-2.5c1.4-1.7,1.5-4,1.5-6.2c0.1-16.7,0.3-33.5,0.4-50.2
			c0-1.9,0-3.9-0.7-5.7c-1-2.5-3.3-4.3-5.5-5.9c-44.4-33.4-88.8-66.8-133.2-100.2c-6.7-5-13.5-10.1-21.2-13.3
			c-5.7-2.4-11.8-3.6-17.9-4.9c-14.4-2.9-28.7-5.9-43.1-8.8c-4.5-0.9-9.1-1.9-13.7-1.8c-4.5,0.1-8.9,1.1-13.3,2.1
			c-9.8,2.3-19.7,4.6-29.5,6.9C27.2,66,24.8,66.6,23.3,68.3z"/>
		<path display="inline" fill="#454466" d="M89,95c2.5-1.6,5-3.2,7.5-4.9c-5.8-2.9-11.6-5.9-17.5-8.8c5.1-2.9,11.1-5.9,16.6-3.9
			c3.7,1.3,6.6,4.8,10.5,4.8c4.1,0,7.1-3.6,11-4.9c4.3-1.5,9.6,0.6,11.7,4.6c-2.4,1.5-8.8,4.5-13.1,6.7c14.7,7.7,41,23.6,42.1,26.7
			c0.7,4.9-5.3,6.3-9.2,5.2c-3.9-1.1-6.9-4.2-9.9-6.8c-5.8-5.1-12.5-9.1-19.1-13c-2.9-1.7-5.9-3.4-9.2-4s-7.1,0.3-9.1,2.9
			c-1.2,1.5-2.2,3.8-4.1,3.6c-0.7-0.1-1.3-0.5-1.9-0.9c-2.1-1.5-4.2-3.1-6.3-4.6c-0.5-0.3-1-0.8-1-1.4C88,95.7,88.5,95.3,89,95z"/>
		<path display="inline" fill="#454466" d="M297.8,211.7c2.2-3.6,4.8-7.2,6.4-12.1c0.1,13.6,0,27.1-0.6,41.5c-0.1,1.4,0,2.8-0.6,4
			c-0.6,1.3-1.9,2.2-3.1,3.1c-9.7,6.7-20.4,12.1-31.5,15.8c0.2-8.1,0.5-16.1,0.7-24.2c0.1-4.9,0.5-10.3,3.8-13.9
			c4.9-5.3,13.1-4.9,19.4-8.3C294.6,216.4,296.6,213.8,297.8,211.7z"/>
		<path display="inline" fill="#454466" d="M44.3,109.2c-1.1,13.5-2.2,27-3.3,40.5c-0.2,2.1-0.3,5.3-0.1,7.4
			c0.4,5.9,8.1,7.4,13.7,9.6c71.2,27.8,140.7,62.5,208.5,96.7c1.7-12.5,1.8-23.5,2.7-34.7c0.2-2.9,0.4-6.1-1.1-8.7
			c-1.3-2.3-3.7-3.7-6-5c-58.3-33.6-119.7-63.2-183.3-86.2C63.6,124.6,50.8,119.8,44.3,109.2z"/>
		<path display="inline" fill="#FFFFFF" d="M153.3,93.5c-1.6,0.8-13-8.3-19.3-12.9c-6.3-4.6-14.4-8.2-21.7-5.5
			c-2.4,0.9-4.6,2.4-7.1,2.7c-4.4,0.6-7.3-2.8-11.6-4.1c-7.7-2.5-20.6,3.6-20.6,9.8c0.1,2.9,11.4,4,16.4,7.5
			c1.7,1.4-5.7,2.1-7.2,5.1c-0.5,2.7,1.1,4.3,3.3,5.4c6.5,3.3,13,6.7,19.5,10c3.9,3.6-6.4,1.6-9.4,0.1c-3-1.6-7.4-4.1-9.6-2.3
			c-0.5,3.6,29.1,16.6,28.1,20.7c-1.2,2.7-22.3-2-33-4.9c-11.2-3-22.6-7.3-30.7-15.8c-7.2-7.5-11-17.6-14.7-27.4
			c-1.3-3.5-2.6-7.8-0.4-10.9c1.7-2.6,5.1-3.3,8.1-3.9c13-2.5,18.2-8.7,31.5-7.6c16.1,1.3,51.6,9.3,72.4,16.9c8.5,4.3-2.5,6.5-1,9.6
			C147.8,89.1,155.5,91.2,153.3,93.5z"/>
		<path display="inline" fill="#FFFFFF" d="M27.2,76c-1.4-0.4-2.2,1.5-2.4,2.9c-1.5,11.9-0.9,24.1,2,35.8c1,4.1,2.3,8.1,3.5,12.1
			c1.3,4.2,2.7,8.5,4,12.7c0.1,0.3,0.2,0.6,0.4,0.8c0.6,0.7,1.8,0.2,2.3-0.6c0.4-0.8,0.3-1.8,0.2-2.7c-0.7-5.4-0.4-11,0.7-16.4
			c1.2-5.5,3.3-11.2,1.6-16.5c-0.9-2.7-3.9-3.9-5.4-6.3C30,91.6,28.9,75.9,27.2,76z"/>
		<path display="inline" fill="#FFFFFF" d="M245.7,158.7c-1.1,0.7-2.6,0-3.7-0.8c-5.6-3.9-11.3-7.9-16.9-11.8
			c-3.4-2.4-4.8-4.1-8.2-6.5c-3-2.1-6.7-5.1-9.4-7.5c-2-1.8-4.8-4.6-7.4-6.6c-4.6-3.4-7.5-7.4-11.4-11.6c-1-1.1-2-3-0.9-3.9
			c1-0.8,2.4,0,3.4,0.8c17.6,14.2,35.3,28.5,52.9,42.7C245.9,154.8,247.5,157.5,245.7,158.7z"/>
		<path display="inline" fill="#FFFFFF" d="M223.1,202.6c11.3,6.6,22.6,13.2,33.9,19.7c1.3,0.8,2.7,1.6,3.4,3
			c0.6,1.1,0.6,2.3,0.6,3.5c0.3,9.5-1.6,17.9-1.3,27.4c-9.9-4.7-17.5-8.6-27.2-13.7c-3.2-1.7-6.9-4.2-6.4-6.2
			c0.6-1.7,9.3,3.1,14.1,5.5c1.6,0.8,3.5,1.2,5.2,1.9c5.3,2,7.7-4.7,2.6-6.4c-4.1-0.9-8.4-3.7-7.7-6.1c1-2.5,7.8,3.6,10.6-1.5
			c1.3-3.5-0.3-4.8-2.5-6.8c-4.5-4-10.6-7.2-15.8-10.1c-7.3-4.1-19.2-5.9-17.8-10.5c1.2-2.4,7.9-0.6,11.5,2.2"/>
		<path display="inline" fill="#FFFFFF" d="M225.3,225.8c2,0.7,4.1,1.3,6.2,1.8c0.2,0,0.4,0.1,0.6,0c0.1-0.1,1.3-1.3,0.5-1.8
			c-3.2-1.5-6.2-3.6-9.3-5.5c-0.4-0.2-0.8-0.4-1.2-0.4c-0.7,0.1-1.1,0.8-1,1.5c0.1,0.7,0.5,1.2,0.8,1.8c0.4,0.6,0.9,1.2,1.5,1.7
			C224,225.3,224.6,225.6,225.3,225.8z"/>
		<path display="inline" fill="#454466" d="M291.6,200.5c-6,2.4-12.1,4.8-18.1,7.2c-2.6,1-5.4,2.1-8.2,1.9c-2.6-0.2-4.9-1.4-7.2-2.6
			c-25.8-13.4-51.6-26.8-77.5-40.1c-1.8-0.9-4.8-2.1-3-4.4c1.9-1.4,48.7,24.2,73.1,36.3c4.9,2.4,10.1,4.9,15.6,4.9
			c12.2-0.2,29.8-13.6,34.4-10.2C302.2,195.2,295.3,199,291.6,200.5z"/>
	</g>
</g>
</svg>
