<svg xmlns="http://www.w3.org/2000/svg" x="0px" y="0px" xmlns:xlink="http://www.w3.org/1999/xlink" viewBox="0 0 240 240">
  <path fill="#FFF" d="M79.7 91.1c-2.3-2.8-4.8-5.7-8.1-7.1s-7.8-.8-9.7 2.3c-1.2 2-1 4.6-.4 6.9.7 2.3 1.8 4.4 2.6 6.6.6 1.9.9 3.8 1.8 5.5.9 1.7 2.3 3.1 3.8 4.3 2.4 1.9 5.4 3.5 8.4 3.1s5.8-3.6 4.8-6.5"/>
  <path fill="#454466" d="M72.4 90c-.3-.4-.8-.5-1.2-.6-.5-.1-1-.3-1.5-.4-1.1-.3-2.4-.6-3.4.1-.8.6-1.1 1.7-.9 2.7.2 1 .7 1.9 1.2 2.7s1.1 1.7 1.3 2.7c.6-.5.6-1.4.5-2.2-.1-.8-.2-1.7.4-2.2.4-.4.9-.5 1.5-.4.5 0 1 .2 1.6.3h.4c.3-.1.4-.4.4-.7.1-.7.2-1.5-.3-2z"/>
  <defs>
    <path id="a" d="M79.7 91.1c-2.3-2.8-4.8-5.7-8.1-7.1s-7.8-.8-9.7 2.3c-1.2 2-1 4.6-.4 6.9.7 2.3 1.8 4.4 2.6 6.6.6 1.9.9 3.8 1.8 5.5.9 1.7 2.2 3.2 3.7 4.4 2.4 1.9 5.4 3.5 8.4 3.1s5.8-3.7 4.8-6.6"/>
  </defs>
  <clipPath id="b">
    <use xlink:href="#a" overflow="visible"/>
  </clipPath>
  <path fill="#454466" d="M73.6 110.8c-.6-.1-1.2-.3-1.7-.5-.9-.3-1.9-.7-2.8-1-.1.2.1.4.2.6 2.1 2 5 3.5 7.9 3.3.7 0 1.2-.1 1.8-.5-.3-1.5-.4-3-.7-4.5-.1-.3-.3-.7-.5-.5-.1 0-.1.1-.2.2-.2.5-.2.7-.3 1.2 0 .1-.1.5-.3.7-.2.2-.6.5-.8.6-1 .5-1.5.6-2.6.4z" clip-path="url(#b)"/>
  <path fill="#FFF" d="M140 157c10.8 4.4 21 10.1 30.4 16.8-2.1 1.5-4.3 2.9-6.5 4.2 12.6 4.3 25.7 9 34.8 18.7 7.1 7.5 19.7 31.5 16.4 50.1-28.1 7.1-58.3-2-86.9 2.2-29.8 4.3-58.7 13.4-87.8 5.7-5.6-1.5-22.4 3.7-26.2-.6-.9-1-1.7-2.3-1.8-3.6-.1-1.3.5-2.5 1.1-3.7 3.2-6.3 16.2-34.4 19.8-40.4 4.4-7.3 12.4-21 20.2-24.4 7.4-3.3 18.4-5.3 25.6-8.9-2.4-1.4-7.9-2-10.7-2.2 17.2-21.6 45.4-24.4 71.3-14.9"/>
  <path fill="#454466" d="M119.5 183.8c5.9 3.8 13.1 6.9 20.1 7.6 3 .3 10.5 1.7 12.1-1.5 1.6-3.5-5.1-9.6-5.6-11.6-1.1-4.6 1.1-8.1 6.2-5.7 2.5 1.2 4.2.9 5.3.4 1.8-.7 3.3-2.2 5-4.7-6.4-4.4-9.7-5.3-15.9-8.8-1.2-.7-2.3-1.3-3.6-1.7-2.7-.8-5.5-.1-8.2.4-10.1 1.9-20.8 2.5-30.5-.8-2.3-.8-4.9-2.1-6.9-.6.6 13.7 16.1 23.2 22 27z"/>
  <path fill="#454466" d="M100.6 157.2c.4.7.5 1.6.6 2.4.3 2.5.6 5 .9 7.6-2.3-1.5-3.5-4.2-4.5-6.8s-3.7-4.8-6.2-6c1.1-.2 3.7-1.6 4.7-1.3.6.2 1.1.8 1.6 1.3.9.9 2.3 1.5 2.9 2.8z"/>
  <path fill="#FFF" d="M133.3 168c7.4-2.3 10.3-5.6 14.6-11.3 4.3-5.7 7.5-13 10.2-19.6 5.9-14.8 10-29.9 11-45.8.5-8.5-.3-17.1-1.9-25.5-.7-3.5-1.6-7.1-3.3-10.2-1.9-3.3-4.6-6-7.6-8.4-10.3-8.1-23.4-11.8-36.3-11.4-12.9.4-21.8 5.4-32.6 12.3-1.6 1-3.2 2.1-4.3 3.7-1.1 1.7-1.5 3.7-1.9 5.7-1.3 7.2-2.5 14.4-3.5 21.7-.7 4.7-1.3 9.4-1.3 14.1 0 3.8.4 7.6 1.1 11.3 2.9 16.8 4.3 35.5 14 49.6 3.3 4.8 7.7 8.8 13.3 10.4 5.4 1.6 9 3.1 13.1 3.8 3.9.9 11.4.8 15.4-.4z"/>
  <path fill="#FFF" d="M166.7 91.1c1.8-3.3 4.4-6.2 7.6-8.4 2.6-1.9 6.3-3.2 8.9-1.3 1.5 1 2.2 2.8 2.4 4.6.2 1.8-.2 3.6-.6 5.3-1.2 5.1-3 10.6-7.3 13.6-4.1 2.7-10 2.3-13.7-.9"/>
  <path fill="#454466" d="M136.9 137.7c.1-.1.3-.2.2-.4 0-.1-.1-.2-.2-.2-2-1.6-4.9-1.3-7.4-1-2 .3-4 .5-5.9.8-1.1.1-2.2.3-3.3.3-.7 0-1.5-.1-2.2 0-1.5.1-3 .6-4.3 1.3-.9.4-1.7.9-2.5 1.4 5 1 10.2 1.4 15.3 1.3 1.1 0 2.1-.1 3.1-.5.5-.2 1-.6 1.5-.8.7-.3 1.5-.4 2.2-.6 1.3-.3 2.5-.9 3.5-1.6z"/>
  <path fill="#BEBECE" d="M145.2 84.3c.5.1 1 .1 1.3-.1.4-.3.2-.8-.2-1.1-1.5-1.2-4.1-1.4-6.4-1.2-1.5.1-2.8.5-3.5 1.4-.5.7-.7 1.3.4 1.4.9.1 2.3-.4 3.2-.6 1.7-.2 3.5 0 5.2.2zm-47.4 4.4c-.2-.9.3-1.7 1-2.4 1-1 2.4-1.6 3.8-1.7 1.4-.2 2.9 0 4.2.3.6.1 1.3.4 1.7.9s.2 1.5-.5 1.6h-.5c-2.3-.4-4.7-1-6.9-.1-.8.4-1.7 1.2-2.8 1.4z"/>
  <path fill="#454466" d="M142.7 137.7c.5 0 .9 0 1.3-.2s.7-.6.8-1.1c-.1.2-.2.3-.4.4h-.6c-1.2-.3-2.2-.9-3.3-1.5-1.7-.9-3.5-1.7-5.3-2.2-.1.2 0 .5.1.7.2.3.5.5.8.6 1.2.7 2.4 1.4 3.7 2.1.8.6 1.8 1.1 2.9 1.2z"/>
  <defs>
    <path id="c" d="M131.5 168.4c12-4.4 11.8-5.7 16.8-12 4.4-5.6 6.9-11.7 9.5-18.3 5.9-14.8 10.5-30.6 11.3-46.8.4-8.5-.3-17.1-1.9-25.5-.7-3.5-1.6-7.1-3.3-10.2-1.9-3.3-4.6-6-7.6-8.4-10.2-7.9-23.3-11.7-36.2-11.3-12.9.4-21.8 5.4-32.6 12.3-1.6 1-3.2 2.1-4.3 3.7-1.1 1.7-1.5 3.7-1.9 5.7-1.3 7.2-2.5 14.4-3.5 21.7-.7 4.7-1.3 9.4-1.3 14.1 0 3.8.4 7.6 1.1 11.3 2.9 16.8 7.2 33.9 16.9 48 3.3 4.8 6.1 8 11.2 10.8 3.6 2 7.7 3 11.8 3.7 3.9.6 10.1 2.6 14 1.2z"/>
  </defs>
  <clipPath id="d">
    <use xlink:href="#c" overflow="visible"/>
  </clipPath>
  <path fill="#454466" d="M152.7 67.5c1.8 6.9 9.9 15.6 9.9 25.5 0 22.2-5.2 37.6-8.1 47.1-2.2 7.3-8.1 18.9-14.6 24.9 1.6-.8 5.5-4.5 6.1-5.2 4.1-4.5 6.5-9.5 8.9-15.1 1.2-2.8 4-8 4.9-10.9 3.3-9.9 5.9-17.7 7.6-28.2 4.5 2 10.2 0 13.4-3.8 3.1-3.8 4.4-8.8 5.1-13.7 0-.3 0-1.6-1.1-1.8-2.4-.4-1.4-3.1-3.2-4.7-1.2-1.1-5-.2-6.6-.6-1.3.9-2.5 1.6-3.7 1.7-1 .1-1.9-.4-2.8-1-2.4-1.6-4.4-3.7-6.4-5.8-2.1-2.2-4.1-4.3-6.2-6.5-.3 1.6-.1 3.4.6 4.9" clip-path="url(#d)"/>
  <path fill="#454466" d="M158 130.3c2.3-2.7 2.7-6.5 3.8-9.9.5-1.7 1.2-3.3 1.6-5 .3-1.7-.4-7.3-1.4-8.8-.4 4.7-1.3 4.7-2.6 5.4-1 .6-1.6 1.7-1.9 2.8-.3 1.1-.2 2.3-.2 3.4.1 3.2.1 6.3-.9 15.5 0 .8 1-4 1.6-3.4z" clip-path="url(#d)"/>
  <defs>
    <path id="e" d="M166.7 91.1c1.8-3.3 4.4-6.2 7.6-8.4 2.6-1.9 6.3-3.2 8.9-1.3 1.5 1 2.2 2.8 2.4 4.6.2 1.8-.2 3.6-.6 5.3-1.2 5.1-3 10.6-7.3 13.6-4.1 2.7-10 2.3-13.7-.9"/>
  </defs>
  <clipPath id="f">
    <use xlink:href="#e" overflow="visible"/>
  </clipPath>
  <path fill="#454466" d="M173.4 81c.1 1.3.3 2.7.8 3.9s1.5 2.3 2.7 2.7c1.7.5 3.5-.4 5.1-1.2 1.3-.6 2.7-1.1 4.1-1.3.8-.1 1.7-.1 2.5.2 1.1.5 1.8 1.7 2 2.9.2 1.2 0 2.4-.4 3.6-.7 2.4-1.8 4.7-3.1 6.9-1.4 2.4-2.8 4.7-4.5 7-.8 1.2-1.7 2.3-2.9 3.2-1.6 1.1-3.6 1.5-5.6 1.8-1.5.2-3 .5-4.5.3s-3-.8-4-1.9c-1.3-1.5-1.5-3.7-1.6-5.7-.1-5.7.6-11.4 2.5-16.8 1.1-3.1 2.8-6.3 5.7-7.9.3-.2.8-.3 1.1-.1.2.1.2.3.3.5.2.8.2 1.7 0 2.6" clip-path="url(#f)"/>
  <path fill="#BEBECE" d="M97.2 105.8c2.5 1.4 5 1.7 7.4.1 2.4-1.6 3.4-4.8 2.7-7.6-.6 2.4-2.7 4.4-5.2 4.9-1.3.3-2.7.1-4.1.2-.8 0-1.7.3-1.8 1.1-.1.5.5 1 1 1.3m50.3-1c-2.5 1.4-5 1.7-7.4.1s-3.4-4.8-2.7-7.6c.6 2.4 2.7 4.4 5.2 4.9 1.3.3 2.7.1 4.1.2.8 0 1.7.3 1.8 1.1 0 .5-.6.9-1 1.3"/>
  <path fill="#454466" d="M104.4 91.4c-2.6.2-4.2 3.9-4.4 7-.1 1.5.1 3.2 1.4 4.3.4.3 1.2.8 1.7.8.9.2 1.7-.3 2.6-.8.8-.5 1.3-1.6 1.7-2.6.7-2 .7-4.9-.2-6.7-.8-1.5-1.8-2-2.8-2zm32.8 7.8c.3-4.3 2.4-7.5 3.7-7.7 1.5-.2 3.1.5 3.7 2.4.6 1.8.3 4-.1 5.8-.3 1.1-.7 2.2-1.5 2.8-.8.5-1.9.8-2.8.6-1.1-.3-2.2-1.2-2.7-2.5-.3-.6-.3-1.4-.2-2.1"/>
  <path fill="#BEBECE" d="M86.9 85.4c-1.6 2-2.7 4.6-2.9 7.4-.4 5 1.8 10 .8 14.9-.4-1.4-.8-2.7-1.3-4.1.1 1.6-.1 3.2-.6 4.6-.1-1.3-.4-2.6-.7-3.8-.3 3.4-2.4 6.5-5.2 7.5.2-5.1-1.5-9.9-2-15-.3-2.8 0-6.1 1.8-7.9.8-.8 1.7-1.2 2.6-1.6 1.9-.9 3.9-1.7 5.8-2.6.3-.1.7-.3 1-.2.3.1.6.5.5.9"/>
  <path fill="#BEBECE" d="M53.7 79.1c4.2 2.9 9.8 2.5 14.9 2-2.7 2.2-8 2.5-11.4 2.8 4.1 3.9 12.3 7.9 17.9 6.6 5.5-1.3 12.3-3.1 17.5-5.3 7-3.1 12.9-8.5 19.6-12.3 11.9-6.8 20.5-19.1 22.8-32.6.3-1.5.4-3.1 0-4.6-.3-1.3-1.1-2.5-1.9-3.6-2.1-3-4.8-5.8-8.1-7.3-3.1-1.5-6.6-1.8-10.1-1.6-17.2.5-33.7 11.8-40.4 27.7-1.1 2.5-1.9 5.1-2.9 7.6-3.4 8.8-9.2 17.1-17.9 20.6z"/>
  <defs>
    <path id="g" d="M53.7 79.1c4.2 2.9 9.8 2.5 14.9 2-2.7 2.2-8 2.5-11.4 2.8 4.1 3.9 12.3 7.9 17.9 6.6 5.5-1.3 12.3-3.1 17.5-5.3 7-3.1 12.9-8.5 19.6-12.3 11.9-6.8 20.5-19.1 22.8-32.6.3-1.5.4-3.1 0-4.6-.3-1.3-1.1-2.5-1.9-3.6-2.1-3-4.8-5.8-8.1-7.3-3.1-1.5-6.6-1.8-10.1-1.6-17.2.5-33.7 11.8-40.4 27.7-1.1 2.5-1.9 5.1-2.9 7.6-3.4 8.8-9.2 17.1-17.9 20.6z"/>
  </defs>
  <clipPath id="h">
    <use xlink:href="#g" overflow="visible"/>
  </clipPath>
  <path fill="#454466" d="M129.6 25.1c-3.4 4.6-3.6 10.8-6.6 15.7-2.4 3.9-6.3 6.6-10 9.4-3.6 2.8-7.2 6.1-8.4 10.6l3.6-2.4c-1.5 4.8-5.6 8.3-9.9 10.9s-8.9 4.8-12.6 8.2c-3.6 3.5-6.1 8.8-4.4 13.5 13.1-4 26.2-8.6 37.9-15.9 4.3-2.7 8.4-5.7 11.3-9.8 3.3-4.8 4.8-10.8 4-16.5-.1-.7-.2-1.5-.1-2.2.1-.8.5-1.6.9-2.3 2-4.4 2.3-9.5.9-14.2-.6-1.8-1.5-3.7-3.1-4.6s-4.2-.5-4.9 1.2" clip-path="url(#h)"/>
  <path fill="#BEBECE" d="M158.7 81.2c2.6 4.8 3.4 10.6 2.2 15.9-.4 1.6-.9 3.1-.9 4.7-.1 2.3.9 4.5 2.6 6-.4-1.2-.4-2.5 0-3.7.1 1.7.9 3.3 2.2 4.4-.4-1-.5-2.1-.4-3.2.6 1.2 1.7 2.1 3 2.7s2.6.7 4 .8c-1.1-.3-1.8-1.4-2-2.5-.3-1.4 0-2.9.3-4.3.6-2.3 1.3-4.5 1.7-6.8.4-2.3.5-4.7-.2-6.9-.5-1.5-1.3-2.9-2.2-4.2-1.4-2-3.2-4-5.6-4.7-.9-.3-2-.3-2.9.1-.9.4-1.6 1.4-1.4 2.4"/>
  <defs>
    <path id="i" d="M86.9 85.4c-1.6 2-2.7 4.6-2.9 7.4-.4 5 1.8 10 .8 14.9-.4-1.4-.8-2.7-1.3-4.1.1 1.6-.1 3.2-.6 4.6-.1-1.3-.4-2.6-.7-3.8-.3 3.4-2.4 6.5-5.2 7.5.2-5.1-1.5-9.9-2-15-.3-2.8 0-6.1 1.8-7.9.8-.8 1.7-1.2 2.6-1.6 1.9-.9 3.9-1.7 5.8-2.6.3-.1.7-.3 1-.2.3.1.6.5.5.9"/>
  </defs>
  <clipPath id="j">
    <use xlink:href="#i" overflow="visible"/>
  </clipPath>
  <path fill="#454466" d="M81.1 86.9c-.4.9-.4 1.9-.2 2.8.2.8.5 1.5.8 2.3.6 2.1.1 4.3-.5 6.4 1.1-.9 2-1.9 2.7-3.1-.4 1.1-.9 2.2-1.3 3.2 1.8-1.2 2.5-3.4 2.8-5.5.2-1.2.4-2.3.5-3.5.1-.7.1-1.4 0-2s-.5-1.3-1.1-1.6c-.6-.3-1.4-.2-2.1.1-.6.3-1.2.8-1.7 1.4" clip-path="url(#j)"/>
  <path fill="#BEBECE" d="M153.4 76.8c-2.4-2.5-4.5-4.9-6.5-7.7-6.6-9.3-11.4-19.7-14.3-30.7 2.4-2.8 4.9-5.6 7.9-7.6 3.1-2 6.9-3.1 10.5-2.2 2.3.6 4.3 2 6.1 3.5 3.7 3.2 6.7 7.1 8.8 11.6 5.2 11.1 5.6 23.8 6.3 36.1.3 4.4.8 9.5 3.2 10.9-2.1.1-5.3-2.6-6-4.9.4 2.1-.4 3.4 4.7 7.7-6.5-2-15.3-10.7-20.7-16.7"/>
  <defs>
    <path id="k" d="M153.4 76.8c-2.4-2.5-4.5-4.9-6.5-7.7-6.6-9.3-11.4-19.7-14.3-30.7 2.4-2.8 4.9-5.6 7.9-7.6 3.1-2 6.9-3.1 10.5-2.2 2.3.6 4.3 2 6.1 3.5 3.7 3.2 6.7 7.1 8.8 11.6 5.2 11.1 5.7 23.7 6.4 36 .3 4.4 2.1 10.9 4.2 12-2.4.5-6.4-3.4-7.1-5.7-.5 2.1-.5 3.2 4.7 7.5-6.5-2-15.3-10.7-20.7-16.7"/>
  </defs>
  <clipPath id="l">
    <use xlink:href="#k" overflow="visible"/>
  </clipPath>
  <path fill="#454466" d="M156.5 19.5c-3.2 1.2-5.1 4.6-5.4 7.9s.8 6.7 2.1 9.8c1.4 3.1 3 6.1 4 9.3-2.2-1.1-4.2-2.7-5.7-4.6.4 1.1 1.1 2 1.6 3 4.8 8.4 5 18.7 9.5 27.3 1.8 3.5 4.3 6.6 5.7 10.3.8 2.2 1.3 4.6 2.4 6.7 1.1 2.1 3.3 3.9 5.7 3.6 2.2-.2 3.8-2.1 4.7-4.1.8-1.9 1.1-3.9 1.2-6 2-22.1-5.7-44.9-20.6-61.3-.9-1-1.9-2-3.2-2.5-1.3-.4-3-.1-3.6 1.1" clip-path="url(#l)"/>
  <defs>
    <path id="m" d="M153.4 76.8c-2.4-2.5-4.5-4.9-6.5-7.7-6.6-9.3-11.6-19.7-14.4-30.7 2.4-2.8 5-5.6 8.1-7.5 3.1-2 6.9-3.1 10.5-2.2 2.3.6 4.3 2 6.1 3.5 3.7 3.2 6.7 7.1 8.8 11.6 5.2 11.1 5.6 23.8 6.3 36.1.3 4.4.8 9.5 3.2 10.9-2.1.1-5.3-2.6-6-4.9.4 2.1-.4 3.4 4.7 7.7-6.6-2.1-15.4-10.8-20.8-16.8"/>
  </defs>
  <clipPath id="n">
    <use xlink:href="#m" overflow="visible"/>
  </clipPath>
  <path fill="#454466" d="M135.6 33.2c-.5 2.1-.5 4.4.1 6.5.5 1.9 1.5 3.8 1.7 5.7s-.5 4.3-2.4 5c-3.6-5-4-12-1-17.4.2-.4.6-.9 1-.8.7 0 .9 1.1.7 1.8" clip-path="url(#n)"/>
  <path fill="#BEBECE" d="M135.4 133.2c.7 1.1 1.2 2.6.3 3.5-.8.8-2.1.5-3-.1-.9-.7-1.5-1.6-2.3-2.3.3 1.3-.1 2.7-1.1 3.5-.3.2-.6.4-1 .4-.6 0-1-.5-1.2-1s-.1-1.1 0-1.6c-.1 1.8-1.9 4-3.1 4-.7-.2-.4-2.4 0-3.3-.7 1.2-1.8 2.3-3.1 2.9-1 .5-2.6.6-3-.5-.3-.9.4-1.7 1.1-2.4-3.4 1.7-10 4.7-10.9 3.5 0 0-.2-.3-.2-.4-.2-.8.2-1.9 1-2.3-1.8 1-3.6 2.1-5.7 2.2-.4 0-.8 0-1.2-.2-.8-.5-.4-1.8.2-2.5 1.7-2.1 4.1-3.3 6.6-4.3 4.1-1.6 5.2-1.9 7.8-2.8 1.4-.5 2.6-.8 4-1.2 1.6-.4 4 0 5.6 0 6.5 0 13.3 1.6 17.9 6.1.4.4.8.9.8 1.5-.1.6-.7 1.1-1.3 1.1-.6.1-1.2-.2-1.8-.4-2.3-1-4.4-2.1-6.4-3.4z"/>
  <path fill="#454466" d="M115.4 119.7c.4-1.3 1.6-.6 2.4-.6 1.8 0 2.5.9 4.2.9 1.6 0 2.2-1.1 3.6-1.1.2 0 1.9.3 2.1.2.1-.1.4-.8.5-.9.4-2.2-1.5-4.6-.9-6.8.1-.3.2-.6.5-.7.5-.2.9.4 1.1.9.9 2.1 2.1 4.1 3.5 5.9 1.5 1.8 3.3 3.6 3.6 5.9 0 .2 0 .4-.1.5-.1.1-.2.2-.3.2-1.6.9-3.7.6-5.5 0-1.8-.6-3.5-1.6-5.3-1.9-1.7-.3-3.4 0-5.1-.1-1.7-.1-4.3-1.1-4.3-2.4z"/>
</svg>
