<svg xmlns="http://www.w3.org/2000/svg" x="0px" y="0px" xmlns:xlink="http://www.w3.org/1999/xlink" viewBox="0 0 240 240">
  <path fill="#454466" d="M164 156.6c-1.2 5.3.2 11.9.7 15.4 8.7-1.7 13.7-15.4-.7-15.4z"/>
  <path fill="#EFEFF4" d="M81.8 154.6c.2 1.3-.9 8.6-.8 11.6.1 3 .2 5-.8 6.2-9.3 1.2-13.2-14.4 1.6-17.8zm49 89.2c-4.9 1.7-11.1 1.7-16.2 1.7-9.1 0-18-4.8-27-5.7-6.8-.7-9.4 5.5-15.7 3-.1-4.2.1-18.9 12.2-27.5 4.9-3.5 9.3-4.7 14.6-7.9 1.4-.9 2.8-1.7 4.4-2.2 1.7-.6 3.5-.8 5.2-1 3.5-.4 7-.8 10.5-1 19.8-.7 44.7 13.3 58.3 36.8-8.6 5.4-27.6-2.1-37.3 1.1-3 1-6 1.7-9 2.7z"/>
  <path fill="#454466" d="M134.5 208c-1.8.6-3.8.6-5.7.6-7.2 0-14.5 0-21.5-1.9-1.2-.3-2.5-1.2-3.8-1.3s-2.6.6-3.7 1.3c2.4 3.4 6.2 5.8 9.9 7.5 8 3.8 16.7 6.2 25.6 6.9 1.6.1 3.4.4 5.1.5 3.5.3 9-.4 10.3-2.4 2.3-3.5.2-5.8-2.3-7.4-1.1-.7-4-2.4-5.2-2.9-1.1-.5-2.2-1.1-3.3-1.6-.5-.2-1.3-.2-1.9-.3-1.2 0-2.3.6-3.5 1z"/>
  <path fill="#EFEFF4" d="M92.1 198.4c4.9 5.5 11.9 8.4 18.9 10.5 3.1.9 6.2 1.8 9.4 2.1 7.4.8 14.9-1.2 21.3-4.8 6.5-3.6 11.9-8.9 16.4-14.8 3.4-4.5 6.4-9.5 7.6-15 1.1-5.1.8-10.4.2-15.6-.5-3.9-1.1-7.7-2.5-11.3-2.2-5.3-6.3-9.7-10.3-13.9-1.8-1.9-3.6-3.8-5.8-5.2-5.1-3.4-11.6-3.9-17.7-4.4-5.7-.4-11.4-.8-17.1-.2-5.7.6-11.3 2.2-15.9 5.6-4.3 3.1-7.5 7.5-10.3 12-1.7 2.6-3.4 5.3-4.5 8.2-2.4 6.1-2.4 12.9-2.4 19.5 0 3.1 3.4 14.1 4.9 16.3 1.4 2 2.7 4 4.1 6.1 1.2 1.7 2.4 3.4 3.7 4.9z"/>
  <path fill="#BEBECE" d="M98 130.8c1.5-3.1 6.2-7.9 14.2-11.5 7.9-3.6 3 7.5 3 7.5s-12 .7-17.2 4z"/>
  <path fill="#454466" d="M117.9 186.5c2.4 1 3.4 1.3 5.7 1.2 2.9-.1 4.8-1.1 7.3-2.6.4-.2.8-.6 1.2-.6.5-.1 1 .1 1 .6 0 .3-.2.7-.4.9-.6.6-1.2 1.1-1.9 1.6-4.4 2.9-10.5 2.9-14.9 0-.5-.3-1-.7-1.1-1.3-.1-.6.2-1.1.8-1 .2-.1 2 1 2.3 1.2z"/>
  <ellipse cx="137.6" cy="159.1" fill="#454466" rx="3.3" ry="4.3"/>
  <ellipse cx="104.4" cy="158.6" fill="#454466" rx="3.3" ry="4.3"/>
  <defs>
    <path id="a" d="M98 130.8c1.5-3.1 6.2-7.9 14.2-11.5 7.9-3.6 3 7.5 3 7.5s-12 .7-17.2 4z"/>
  </defs>
  <clipPath id="b">
    <use xlink:href="#a" overflow="visible"/>
  </clipPath>
  <path fill="#454466" d="M110.1 119.6c.8.5 1.2 1.6 1.3 2.6.1.5.1 1 0 1.5-.2.8-.7 1.6-1.4 2.1s-1.5.9-2.3 1.2c-1.6.6-3.3 1.1-4.9 1.7-1.6.6-3.2 1.5-4.2 2.9 3.8-1 7.6-1.9 11.4-2.7 1.2-.2 2.3-.4 3.4-.9.3-.1.6-.3.8-.6.3-.4.3-.9.3-1.4-.1-1.4-.2-2.8-.5-4.2-.2-.9-.5-1.8-1.1-2.5-.6-.7-1.5-1.2-2.4-1-.4.1-.8.3-1 .7.2.1.4.2.6.2" clip-path="url(#b)"/>
  <path fill="#BEBECE" d="M146.1 131.8s.8-8.9-10-11c-8-1.5-16.3 1-15.7-6.6.4-4.4 7.4-5.5 9.2-3.1 2.6 3.4-.5 5.1-1 5.2 3.3.1 4.7-3 3.8-5.8-.9-2.7-5.9-7.6-12.9-3.9-5.6 3-7.8 11.3-7.8 15.1 0 7.6 7.2 10.9 14.2 10.9 7 0 11-3.3 13.8-3s3.6.3 6.4 2.2z"/>
  <defs>
    <path id="c" d="M146.1 131.8s.8-8.9-10-11c-8-1.5-16.3 1-15.7-6.6.4-4.4 7.4-5.5 9.2-3.1 2.6 3.4-.5 5.1-1 5.2 3.3.1 4.7-3 3.8-5.8-.9-2.7-5.9-7.6-12.9-3.9-5.6 3-7.8 11.3-7.8 15.1 0 7.6 7.2 10.9 14.2 10.9 7 0 11-3.3 13.8-3s3.6.3 6.4 2.2z"/>
  </defs>
  <clipPath id="d">
    <use xlink:href="#c" overflow="visible"/>
  </clipPath>
  <path fill="#454466" d="M112.8 127.4c1.5 1.4 3.7 1.8 5.7 1.6s3.9-1.1 5.8-1.9c1.4-.6 2.8-1.3 4.2-1.9 1.9-.8 3.7-1.7 5.7-2 3.2-.6 7.6.3 10 2.4 2.4 2.1 2.5 5.6 1.5 8.7-6.9.2-13.9.4-20.8.6-3.3.1-6.7.2-9.7-.9-1.1-.4-2.2-1-3-1.9-.8-.9-1.2-2.2-.9-3.4.2-.8 1.1-1.6 1.8-1.2" clip-path="url(#d)"/>
  <path fill="#BEBECE" d="M107.7 148.1c-2.8-.6-5.7.4-7.9 2.2-.3.3-.7.6-.8 1s.2 1 .6 1c.3 0 .6-.3.8-.5 1.4-1.4 3.3-2.3 5.3-2.4.5 0 1 0 1.5-.1.2 0 .5-.1.7-.2s.4-.4.3-.6-.2-.3-.5-.4m26.9.7c2.8-.6 5.7.4 7.9 2.2.3.3.7.6.8 1s-.2 1-.6 1c-.3 0-.6-.3-.8-.5-1.4-1.4-3.3-2.3-5.3-2.4-.5 0-1 0-1.5-.1-.2 0-.5-.1-.7-.2-.2-.1-.4-.4-.3-.6.1-.2.1-.2.5-.4"/>
  <path fill="#454466" d="M74.8 164.3c.2.3 1.8 1.1 2.7 1.6.9.5 1.8.8 2.8.7l.9-5.4c-.4.7-.5 1.6-1 2.2-.5.7-1.3 1.2-2.2 1.3-.9.1-1.7.2-2.5-.1-.1-.1-.4-.2-.7-.3"/>
  <defs>
    <path id="e" d="M92.1 198.4c4.9 5.5 11.9 8.4 18.9 10.5 3.1.9 6.2 1.8 9.4 2.1 7.4.8 14.9-1.2 21.3-4.8 6.5-3.6 11.9-8.9 16.4-14.8 3.4-4.5 6.4-9.5 7.6-15 1.1-5.1 1.4-10.4.7-15.5-.5-3.9-1.6-7.8-3.1-11.4-2.2-5.3-6.3-9.7-10.3-13.9-1.8-1.9-3.6-3.8-5.8-5.2-5.1-3.4-11.6-3.9-17.7-4.4-5.7-.4-11.4-.8-17.1-.2-5.7.6-11.3 2.2-15.9 5.6-4.3 3.1-7.5 7.5-10.3 12-1.7 2.6-3.4 5.3-4.5 8.2-2.4 6.1-2.4 12.9-2.4 19.5 0 3.1 3.4 14.1 4.9 16.3 1.4 2 2.7 4 4.1 6.1 1.3 1.7 2.5 3.4 3.8 4.9z"/>
  </defs>
  <clipPath id="f">
    <use xlink:href="#e" overflow="visible"/>
  </clipPath>
  <path fill="#454466" d="M138.4 208.4c5.5-2 8.3-4.3 12.4-8.3 2.2-2.2 3.6-3.9 5.7-6.3 1.6-1.8 3.4-4.1 4.7-6.2 2.4-3.8 3.9-7.3 4.9-12.2.2-1.1.3-2.2.4-3.5.6-.8 1.6-1.2 2.5-1.9 1.3-1.1 2.5-2.1 3.3-3.8.8-1.8 1.3-2.2.9-4.4-.5-3-1.9-3.6-3.9-4.4-2.1-.9-3.1-.5-3.6-.9-.4-.3-.3-.6-.4-1.1-1.6-9.6-8.3-17.6-16.3-23.9-2.5-2-5.6-4.3-8.4-2.9 3.6 1.4 6.9 3.7 9.2 6.8 3.5 4.6 8 10 9.4 16.8 1.2 5.7 2 12.7.8 20.8-1.3 8.4-2.8 11.9-7.8 19.4-5.2 7.8-8.2 10.4-13.8 16z" clip-path="url(#f)"/>
  <path fill="#454466" d="M126.3 170.3c-1.6-.7-2.9-.7-4.6-.1-.3.1-.7.5-.7.8-.1.3.1.7.4.8.5.4 1.1.5 1.7.5 1 .1 2.2.2 3.1-.5.2-.2.4-.4.5-.7s-.1-.5-.4-.8"/>
</svg>
