<svg xmlns="http://www.w3.org/2000/svg" x="0px" y="0px" viewBox="0 0 240 240">
  <path fill="#BEBECE" d="M51.1 61.8c-1.8 1.7-2.3 4.4-2.5 6.9-2.8 25.1-.7 50.7 6.2 75 .6 2.1 1.2 4.2 2.5 6 1.8 2.5 4.6 4 7.3 5.4 32.4 17.1 64.9 34.1 97.3 51.2 31.4 16.5 63 33.2 91.6 54.3 2 1.5 4.1 3 6.6 3.3 1.7.2 3.3-.3 4.9-.8 9.6-2.8 19.3-5.6 28.9-8.4 1.5-.4 3-.9 4.1-2 1.4-1.4 1.6-3.6 1.8-5.6 1.3-15.4 2.7-30.8 4-46.2.2-1.8.3-3.6-.2-5.3-.7-2.4-2.7-4.2-4.6-5.9-38.5-34-77-67.9-115.5-101.9-5.8-5.1-11.7-10.3-18.6-13.8-5.1-2.6-10.7-4.2-16.2-5.8-13-3.7-26-7.5-39.1-11.2-4.1-1.2-8.2-2.4-12.5-2.6-4.2-.3-8.3.4-12.4 1-9.2 1.4-18.5 2.8-27.7 4.3-2.1.3-4.3.7-5.9 2.1z"/>
  <path fill="#454466" d="M109.8 91.1c2.4-1.3 4.8-2.6 7.2-4-5.2-3.1-10.3-6.3-15.5-9.4 4.9-2.3 10.6-4.6 15.6-2.4 3.3 1.5 5.8 4.9 9.3 5.2 3.7.3 6.8-2.8 10.5-3.8 4.1-1 8.8 1.3 10.5 5.1-2.4 1.2-8.4 3.5-12.6 5.2 13 8.2 36.1 24.7 36.8 27.6.3 4.6-5.3 5.4-8.9 4.1s-6-4.3-8.6-7c-5-5.1-10.8-9.2-16.7-13.3-2.5-1.8-5.2-3.6-8.2-4.3-3-.8-6.5-.3-8.6 2.1-1.2 1.3-2.3 3.3-4 3-.7-.1-1.2-.6-1.7-1-1.8-1.6-3.6-3.1-5.5-4.7-.4-.4-.9-.8-.8-1.3.2-.5.7-.8 1.2-1.1zm184 122.6c2.3-3.2 5-6.3 6.8-10.7-.9 12.6-1.9 25-3.5 38.2-.2 1.3-.2 2.6-.8 3.7-.7 1.2-1.9 1.9-3.1 2.6-9.4 5.5-19.6 9.6-30.2 12.3l2.4-22.2c.5-4.5 1.2-9.5 4.5-12.6 4.9-4.5 12.5-3.5 18.5-6.3 2.1-1 4.1-3.2 5.4-5zM67.6 101c-2 12.4-4 24.7-6 37.1-.3 1.9-.6 4.9-.6 6.8 0 5.5 7 7.4 12 9.8 63.6 30.7 125.2 67.7 185.2 104.1 2.5-11.4 3.3-21.6 5-31.8.4-2.7.8-5.6-.4-8.1-1-2.2-3.1-3.7-5.1-5-51.3-35.1-105.8-66.8-162.6-92.6-10.8-4.7-22.3-10.1-27.5-20.3z"/>
  <path fill="#FFF" d="M169.1 94.3c-1.6.6-11.4-8.6-16.8-13.3-5.4-4.7-12.7-8.6-19.6-6.6-2.3.6-4.4 1.9-6.7 2-4.1.2-6.5-3.1-10.4-4.6-6.9-2.8-19.2 1.8-19.7 7.6-.1 2.7 10.2 4.5 14.5 8.1 1.4 1.5-5.4 1.5-7 4.1-.7 2.4.7 4.1 2.6 5.3 5.7 3.5 11.5 7.1 17.2 10.6 3.3 3.6-6 1-8.7-.6-2.7-1.7-6.5-4.3-8.7-2.8-.7 3.3 25.6 17.4 24.4 21.1-1.3 2.4-20.4-3.5-30.1-6.9-10.1-3.6-20.3-8.4-27.1-16.7-6.1-7.5-8.9-17-11.5-26.3-1-3.4-1.8-7.3.4-10.1 1.8-2.2 4.9-2.7 7.8-3 12.2-1.4 17.4-6.7 29.5-4.8 14.7 2.4 46.9 12.3 65.5 20.7 7.6 4.5-2.8 5.8-1.6 8.8s8.2 5.5 6 7.4zM54.2 69.2c-1.2-.5-2.2 1.2-2.4 2.5-2.3 10.9-2.5 22.2-.7 33.1.6 3.8 1.5 7.6 2.4 11.4.9 4 1.9 8 2.8 12 .1.3.1.5.3.8.5.7 1.7.4 2.1-.4.4-.7.4-1.6.4-2.5-.2-5.1.4-10.2 1.9-15 1.5-5 3.9-10 2.7-15.1-.6-2.5-3.3-3.9-4.6-6.2-3.5-6-3.3-20.6-4.9-20.6zm195.4 91.9c-1.1.6-2.4-.2-3.3-1-4.9-4-9.8-8-14.8-12.1-3-2.5-4.1-4.1-7.1-6.6-2.6-2.2-5.8-5.2-8.1-7.6-1.7-1.8-4.1-4.6-6.3-6.6-4-3.5-6.4-7.3-9.6-11.5-.9-1.1-1.7-2.9-.5-3.7 1-.7 2.2.2 3.1 1 15.2 14.4 30.5 28.8 45.7 43.1 1.3 1.4 2.6 4 .9 5zm-24 38.8c9.9 6.9 19.9 13.7 29.8 20.6 1.2.8 2.4 1.7 2.9 3 .4 1 .4 2.2.3 3.3-.4 8.8-2.8 16.4-3.2 25.1-8.8-5-15.6-9.2-24.1-14.6-2.8-1.8-6.1-4.3-5.4-6.1.7-1.5 8.4 3.5 12.6 6 1.4.9 3.1 1.4 4.6 2.1 4.7 2.2 7.4-3.8 2.8-5.7-3.7-1.1-7.5-4-6.6-6.2 1.1-2.2 6.9 3.9 9.9-.6 1.4-3.1.1-4.4-1.8-6.4-3.8-4-9.2-7.4-13.8-10.4-6.5-4.3-17.3-6.8-15.7-10.9 1.3-2.2 7.3 0 10.4 2.8"/>
  <path fill="#FFF" d="M226 221.5c1.8.8 3.7 1.5 5.6 2.1.2.1.4.1.5 0 .1-.1 1.3-1.1.6-1.7-2.8-1.6-5.5-3.8-8.2-5.7-.3-.2-.7-.5-1.1-.4-.6 0-1 .7-1 1.3s.3 1.2.6 1.7c.4.6.7 1.2 1.2 1.7.6.4 1.2.7 1.8 1z"/>
  <path fill="#454466" d="M288.8 202.9c-5.7 1.8-11.5 3.5-17.2 5.3-2.5.8-5.1 1.6-7.7 1.2-2.3-.4-4.4-1.6-6.5-2.9-22.8-14.2-45.7-28.4-68.5-42.6-1.6-1-4.2-2.3-2.4-4.3 1.9-1.2 43.1 25.8 64.7 38.7 4.4 2.6 8.9 5.3 14 5.6 11.2.7 28.5-10.4 32.4-7 1.4 1.8-5.2 4.9-8.8 6z"/>
</svg>
