<?xml version="1.0" encoding="utf-8"?>
<!-- Generator: Adobe Illustrator 19.2.1, SVG Export Plug-In . SVG Version: 6.00 Build 0)  -->
<svg version="1.1" xmlns="http://www.w3.org/2000/svg" xmlns:xlink="http://www.w3.org/1999/xlink" x="0px" y="0px"
	 viewBox="0 0 330 330" enable-background="new 0 0 330 330" xml:space="preserve">
<g id="Dieu_corps">
</g>
<g id="Dieu_tete">
	<g>
		<path fill="#454466" d="M265.2,265c3.2,3.4,0.1,15.2-57,21.4c-61.2,6.6-90-5-119.6-15.4c-11.6-4.1,122.7-33.6,141.2-26.3
			S256.5,255.9,265.2,265z"/>
	</g>
	<g>
		<path fill="#FFFFFF" d="M245,211c-6.4-31.4-4.9-71.6-10-110c0,0-0.1,0-0.2-0.1c-2.4-33.2-24-59.2-67.3-59.2
			c-34.2,0-60.4,26.2-63.1,59.6c0,0,0,0,0,0c-3.1,35.6-3.4,54.7-9.1,80.8c-2.9,13.2-16.3,56-19.1,80.6
			c42.1,39.7,134.9-26.4,189.1,2.3C258.3,249,251.1,240.8,245,211z"/>
	</g>
	<g>
		<ellipse fill="#454466" cx="189.9" cy="100.9" rx="6.2" ry="8.6"/>
	</g>
	<g>
		<ellipse fill="#454466" cx="151.4" cy="100.9" rx="6.2" ry="8.6"/>
	</g>
	<g>
		<path fill="#BEBECE" d="M266,265.5c-6.8-16.1-14.1-24.2-20.2-54c-6.4-31.4-5.8-73.3-11.2-112c0,0-0.4-3.8,0,0
			c2.2,37.1,0.2,104.1,6.1,124.4c7,24.3,2.4,29.4-20.3,34.2l0,0C234,256.7,252.6,258.4,266,265.5z"/>
	</g>
</g>
</svg>
