<svg xmlns="http://www.w3.org/2000/svg" x="0px" y="0px" viewBox="0 0 330 330">
  <path fill="#454466" d="M265.2 265c3.2 3.4.1 15.2-57 21.4-61.2 6.6-90-5-119.6-15.4-11.6-4.1 122.7-33.6 141.2-26.3s26.7 11.2 35.4 20.3z"/>
  <path fill="#FFF" d="M245 211c-6.4-31.4-4.9-71.6-10-110 0 0-.1 0-.2-.1-2.4-33.2-24-59.2-67.3-59.2-34.2 0-60.4 26.2-63.1 59.6-3.1 35.6-3.4 54.7-9.1 80.8-2.9 13.2-16.3 56-19.1 80.6 42.1 39.7 134.9-26.4 189.1 2.3-7-16-14.2-24.2-20.3-54z"/>
  <ellipse cx="189.9" cy="100.9" fill="#454466" rx="6.2" ry="8.6"/>
  <ellipse cx="151.4" cy="100.9" fill="#454466" rx="6.2" ry="8.6"/>
  <path fill="#BEBECE" d="M266 265.5c-6.8-16.1-14.1-24.2-20.2-54-6.4-31.4-5.8-73.3-11.2-112 0 0-.4-3.8 0 0 2.2 37.1.2 104.1 6.1 124.4 7 24.3 2.4 29.4-20.3 34.2 13.6-1.4 32.2.3 45.6 7.4z"/>
</svg>
