<?xml version="1.0" encoding="utf-8"?>
<!-- Generator: Adobe Illustrator 19.0.1, SVG Export Plug-In . SVG Version: 6.00 Build 0)  -->
<svg version="1.1" id="Calque_1" xmlns="http://www.w3.org/2000/svg" xmlns:xlink="http://www.w3.org/1999/xlink" x="0px" y="0px"
	 viewBox="-177 300.9 240 240" enable-background="new -177 300.9 240 240" xml:space="preserve">
<g>
	<g id="Dieu_corps">
		<g>
			<path fill="#FFFFFF" d="M-26.1,460.9c2.1,4,17.5-8.9,32.1-1.2c14.6,7.8,45.4,19.6,50.7,23.9c1.5,1.2,3.7,3.2,6.3,5.9
				c0,9.1,0,40.5,0,51.4c-13.5,0-240,0-240,0s0-33.6,0-49.4c4.2-4.1,8.8-7.6,13.6-9.8c15.2-6.8,58.8-20.4,64.5-24.3
				C-93.2,453.4-26.1,460.9-26.1,460.9z"/>
		</g>
		<g>
			<path fill="#454466" d="M-15.4,484.4c14-4.5,25.8-17.2,22.3-24.2l0,0c-0.3-0.2-0.6-0.3-0.9-0.5c-14.6-7.8-14.4-10.4-16.5-14.4
				c0,0-82.7,8-88.4,12c-0.7,0.5-2.1,1.2-4,2l0,0C-94.4,473.4-62.9,499.6-15.4,484.4z"/>
		</g>
		<g>
			<path fill="#454466" d="M-45.8,539.7c-5.8-6.3-5.1-24.1-7.6-24.1c-1.6,0-1.4,8.5-3.9,23.3c-0.8,5,0.6,13.9,3.7,13.9
				S-43.8,541.9-45.8,539.7z"/>
		</g>
	</g>
	<g id="Dieu_tete">
		<g>
			<path fill="#BEBECE" d="M-56.6,320.5c19.7,0,32.9,9.6,39.8,24.5c6.9,14.8,5.1,24.1,7.3,29.6C-7.3,380.2,0,404.1,0,418
				c0,4.3-7.9,11.6-8.4,15.2c1.1,6.7-6.2,38.2-46,38.5c-39.8,0.4-50.8-28.5-52.2-38.2c-8.8-3.7-10.6-9.3-10.6-12.6
				c0-3.3,2.2-14.1,2.9-18.9c0.7-4.8,5.5-17.8,5.8-27.4s2.6-23.7,15.3-38.5C-80.5,321.3-72,320.5-56.6,320.5z"/>
		</g>
		<g>
			<path fill="#FFFFFF" d="M-74.9,342.4c6.9,17.9,32.1,22.2,51.4,18.2c0,9.8,2.9,18.6,5.5,21.5c-4.7,4.7-8.6,10-9.7,15.9
				c-1.1,5.8-1.8,11.3-3.3,12.8c-3.3-3.3-18.2-5.3-25.5-1.1c-10.6-6.2-22.4-1.5-27.7,1.1c-3.5-12.4-9.7-21.9-14.8-24.4
				c2.9-5.3,4.9-15.7,3.1-25.3C-91.8,361-80.4,353.4-74.9,342.4z"/>
		</g>
		<g>
			<path fill="#FFFFFF" d="M-106,374.5c0,2-1.7,13-1.9,17.7c-0.2,4.7-0.4,7.8-1.4,9.3C-116.7,397.3-121,380.6-106,374.5z"/>
		</g>
		<g>
			<path fill="#454466" d="M-8.4,432.7c0.3-7.5-0.3-17.3-0.7-21.9c3.1,5.4,5.2,11.4,6.9,12.6c-1.1,2.1-5.7,8.3-6,9.5"/>
		</g>
		<g>
			<ellipse fill="#454466" cx="-42.5" cy="383" rx="3.3" ry="5.7"/>
		</g>
		<g>
			<path fill="#BEBECE" d="M-34.8,373.7c-2.2-0.8-9.2-1.4-12.5,1.1s-0.4,3.8,1.7,2.3c2.1-1.5,8.5-0.9,9.7-0.6
				C-34.7,376.7-31.2,375-34.8,373.7z"/>
		</g>
		<g>
			<ellipse fill="#454466" cx="-70" cy="383" rx="2.8" ry="5.7"/>
		</g>
		<g>
			<path fill="#BEBECE" d="M-78.5,373.7c2.2-0.8,9.2-1.4,12.5,1.1s-0.1,4.4-2.2,2.9c-2.1-1.5-8-1.6-9.2-1.3
				C-78.6,376.7-82.1,375-78.5,373.7z"/>
		</g>
		<g>
			<path fill="#FFFFFF" d="M-10.3,376.6c-1,8.3,1.6,18.5,1.9,24C-1.6,395.3,4.1,379-10.3,376.6z"/>
		</g>
	</g>
</g>
</svg>
