<?xml version="1.0" encoding="utf-8"?>
<!-- Generator: Adobe Illustrator 19.2.1, SVG Export Plug-In . SVG Version: 6.00 Build 0)  -->
<svg version="1.1" xmlns="http://www.w3.org/2000/svg" xmlns:xlink="http://www.w3.org/1999/xlink" x="0px" y="0px"
	 viewBox="0 0 330 330" enable-background="new 0 0 330 330" xml:space="preserve">
<g id="Dieu_corps">
	<g>
		<path fill="#FFFFFF" d="M195.9,171.4c2.1,4,17.5-8.9,32.1-1.2c14.6,7.8,45.4,19.6,50.7,23.9s20.2,19.2,25.4,34.4
			c-12.4,15.7-14.6,129.2-148.6,129.2c-105.2,0-124.7-123.5-130.3-125.9c5.4-13.2,18.2-32.8,33.4-39.6s58.8-20.4,64.5-24.3
			C128.8,163.9,195.9,171.4,195.9,171.4z"/>
	</g>
	<g>
		<path fill="#454466" d="M206.6,194.9c14-4.5,25.8-17.2,22.3-24.2c0,0,0,0,0,0c-0.3-0.2-0.6-0.3-0.9-0.5
			c-14.6-7.8-14.4-10.4-16.5-14.4c0,0-82.7,8-88.4,12c-0.7,0.5-2.1,1.2-4,2l0,0C127.6,183.9,159.1,210.1,206.6,194.9z"/>
	</g>
	<g>
		<path fill="#454466" d="M176.2,250.2c-5.8-6.3-5.1-24.1-7.6-24.1c-1.6,0-1.4,8.5-3.9,23.3c-0.8,5,0.6,13.9,3.7,13.9
			S178.2,252.4,176.2,250.2z"/>
	</g>
</g>
<g id="Dieu_tete">
	<g>
		<path fill="#BEBECE" d="M165.4,31c19.7,0,32.9,9.6,39.8,24.5c6.9,14.8,5.1,24.1,7.3,29.6c2.2,5.6,9.5,29.5,9.5,43.4
			c0,4.3-7.9,11.6-8.4,15.2c1.1,6.7-6.2,38.2-46,38.5c-39.8,0.4-50.8-28.5-52.2-38.2c-8.8-3.7-10.6-9.3-10.6-12.6
			c0-3.3,2.2-14.1,2.9-18.9c0.7-4.8,5.5-17.8,5.8-27.4s2.6-23.7,15.3-38.5S150,31,165.4,31z"/>
	</g>
	<g>
		<path fill="#FFFFFF" d="M147.1,52.9c6.9,17.9,32.1,22.2,51.4,18.2c0,9.8,2.9,18.6,5.5,21.5c-4.7,4.7-8.6,10-9.7,15.9
			c-1.1,5.8-1.8,11.3-3.3,12.8c-3.3-3.3-18.2-5.3-25.5-1.1c-10.6-6.2-22.4-1.5-27.7,1.1c-3.5-12.4-9.7-21.9-14.8-24.4
			c2.9-5.3,4.9-15.7,3.1-25.3C130.2,71.5,141.6,63.9,147.1,52.9z"/>
	</g>
	<g>
		<path fill="#FFFFFF" d="M116,85c0,2-1.7,13-1.9,17.7c-0.2,4.7-0.4,7.8-1.4,9.3C105.3,107.8,101,91.1,116,85z"/>
	</g>
	<g>
		<path fill="#454466" d="M213.6,143.2c0.3-7.5-0.3-17.3-0.7-21.9c3.1,5.4,5.2,11.4,6.9,12.6c-1.1,2.1-5.7,8.3-6,9.5"/>
	</g>
	<g>
		<ellipse fill="#454466" cx="179.5" cy="93.5" rx="3.3" ry="5.7"/>
	</g>
	<g>
		<path fill="#BEBECE" d="M187.2,84.2c-2.2-0.8-9.2-1.4-12.5,1.1s-0.4,3.8,1.7,2.3c2.1-1.5,8.5-0.9,9.7-0.6
			C187.3,87.2,190.8,85.5,187.2,84.2z"/>
	</g>
	<g>
		<ellipse fill="#454466" cx="152" cy="93.5" rx="2.8" ry="5.7"/>
	</g>
	<g>
		<path fill="#BEBECE" d="M143.5,84.2c2.2-0.8,9.2-1.4,12.5,1.1s-0.1,4.4-2.2,2.9c-2.1-1.5-8-1.6-9.2-1.3
			C143.4,87.2,139.9,85.5,143.5,84.2z"/>
	</g>
	<g>
		<path fill="#FFFFFF" d="M211.7,87.1c-1,8.3,1.6,18.5,1.9,24C220.4,105.8,226.1,89.5,211.7,87.1z"/>
	</g>
</g>
</svg>
