<svg xmlns="http://www.w3.org/2000/svg" x="0px" y="0px" viewBox="-177 300.9 240 240">
  <path fill="#FFF" d="M-26.1 460.9c2.1 4 17.5-8.9 32.1-1.2 14.6 7.8 45.4 19.6 50.7 23.9 1.5 1.2 3.7 3.2 6.3 5.9v51.4h-240v-49.4c4.2-4.1 8.8-7.6 13.6-9.8 15.2-6.8 58.8-20.4 64.5-24.3 5.7-4 72.8 3.5 72.8 3.5z"/>
  <path fill="#454466" d="M-15.4 484.4c14-4.5 25.8-17.2 22.3-24.2-.3-.2-.6-.3-.9-.5-14.6-7.8-14.4-10.4-16.5-14.4 0 0-82.7 8-88.4 12-.7.5-2.1 1.2-4 2 8.5 14.1 40 40.3 87.5 25.1zm-30.4 55.3c-5.8-6.3-5.1-24.1-7.6-24.1-1.6 0-1.4 8.5-3.9 23.3-.8 5 .6 13.9 3.7 13.9s9.8-10.9 7.8-13.1z"/>
  <path fill="#BEBECE" d="M-56.6 320.5c19.7 0 32.9 9.6 39.8 24.5 6.9 14.8 5.1 24.1 7.3 29.6C-7.3 380.2 0 404.1 0 418c0 4.3-7.9 11.6-8.4 15.2 1.1 6.7-6.2 38.2-46 38.5-39.8.4-50.8-28.5-52.2-38.2-8.8-3.7-10.6-9.3-10.6-12.6 0-3.3 2.2-14.1 2.9-18.9.7-4.8 5.5-17.8 5.8-27.4s2.6-23.7 15.3-38.5c12.7-14.8 21.2-15.6 36.6-15.6z"/>
  <path fill="#FFF" d="M-74.9 342.4c6.9 17.9 32.1 22.2 51.4 18.2 0 9.8 2.9 18.6 5.5 21.5-4.7 4.7-8.6 10-9.7 15.9-1.1 5.8-1.8 11.3-3.3 12.8-3.3-3.3-18.2-5.3-25.5-1.1-10.6-6.2-22.4-1.5-27.7 1.1-3.5-12.4-9.7-21.9-14.8-24.4 2.9-5.3 4.9-15.7 3.1-25.3 4.1-.1 15.5-7.7 21-18.7zm-31.1 32.1c0 2-1.7 13-1.9 17.7-.2 4.7-.4 7.8-1.4 9.3-7.4-4.2-11.7-20.9 3.3-27z"/>
  <path fill="#454466" d="M-8.4 432.7c.3-7.5-.3-17.3-.7-21.9 3.1 5.4 5.2 11.4 6.9 12.6-1.1 2.1-5.7 8.3-6 9.5"/>
  <ellipse cx="-42.5" cy="383" fill="#454466" rx="3.3" ry="5.7"/>
  <path fill="#BEBECE" d="M-34.8 373.7c-2.2-.8-9.2-1.4-12.5 1.1s-.4 3.8 1.7 2.3 8.5-.9 9.7-.6c1.2.2 4.7-1.5 1.1-2.8z"/>
  <ellipse cx="-70" cy="383" fill="#454466" rx="2.8" ry="5.7"/>
  <path fill="#BEBECE" d="M-78.5 373.7c2.2-.8 9.2-1.4 12.5 1.1s-.1 4.4-2.2 2.9c-2.1-1.5-8-1.6-9.2-1.3-1.2.3-4.7-1.4-1.1-2.7z"/>
  <path fill="#FFF" d="M-10.3 376.6c-1 8.3 1.6 18.5 1.9 24 6.8-5.3 12.5-21.6-1.9-24z"/>
</svg>
