<?xml version="1.0" encoding="utf-8"?>
<!-- Generator: Adobe Illustrator 19.0.1, SVG Export Plug-In . SVG Version: 6.00 Build 0)  -->
<svg version="1.1" id="Main_v1" xmlns="http://www.w3.org/2000/svg" xmlns:xlink="http://www.w3.org/1999/xlink" x="0px" y="0px"
	 viewBox="-350.5 318 697.6 174.7" style="enable-background:new -350.5 318 697.6 174.7;" xml:space="preserve">
<style type="text/css">
	.st0{fill:#454466;}
	.st1{fill:#FFFFFF;stroke:#454466;stroke-miterlimit:10;}
	.st2{fill:#BEBECE;}
	.st3{fill:#FFFFFF;}
	.st4{clip-path:url(#SVGID_2_);fill:#454466;}
</style>
<path class="st0" d="M-41.3,385.7c-2.3-5-9.7-11.8-10.3-11.8c-4.7-0.2-7.1,20.7-7.8,31c-0.6,8-1.6,15.9-2.3,23.8
	c-1.2,13.8,3.2,34.1,7.7,36.5c1.1,0.6,5-1.8,6.1-3c8.4-10,13.8-22.4,15.5-35.4c0.5-4,0.6-8.1,0.7-12.2c0.1-4.7,0.1-9.7-2.1-13.8
	c-0.8-1.5-1.9-2.9-2.7-4.4c-1.7-3-2.3-6.6-4.3-9.5"/>
<path class="st0" d="M-56.7,394.6c-1.5-3.5-6.6-8.4-7-8.5c-3.3-0.2-5.3,14.4-6,21.6c-0.5,5.6-1.4,11.1-2,16.7
	c-1.1,9.6,1.6,24,4.7,25.7c0.8,0.5,3.5-1.2,4.3-2c6.1-6.9,10.1-15.5,11.5-24.5c0.4-2.8,0.6-5.7,0.7-8.5c0.2-3.3,0.2-6.8-1.2-9.7
	c-0.5-1.1-1.3-2.1-1.8-3.2c-1.1-2.2-1.5-4.7-2.8-6.7"/>
<path class="st1" d="M27.9,468.9c-14.6-4.3-137-35.3-142.8-36.2c-6.9,9.2-1-1-26.3,5.2c-25.4,6.2-20.5,0.7-21-5
	c-0.9-11.7-38.4-29.2-61-24.8c-35.1,6.8-75,8.2-79.1-6.5c5.5-4,50.9-7.7,63.4-12.3c-33.4-3.9-86.4,1.6-110.9-26.9
	c-0.5-0.5-0.1-1.4,0.6-1.3c16.2,0.9,57.9,5,67.1,4.2c-21.5-10.9-51.4-29.8-48.9-46.6c8.3-3.2,70.6,33.2,113.4,46.2
	c24.4,7.5,92.9,27.3,134,25.1c21.3-1.1,75.5,2.5,114.5-0.8C44.7,388.1,27.9,468.9,27.9,468.9z"/>
<g>
	<path class="st0" d="M-111.5,421.5c9.5,1.6,64.4,12.6,64.4,12.6l-3.8,16.4c-15.3-4-56.6-13.5-62.3-14.5"/>
</g>
<path class="st0" d="M-97.7,438.9c-0.3,0.8-0.8,1.5-1.5,2c-0.1,0.1,0,0.6-0.2,0.5s-0.6-0.6-0.7-0.7c-0.4-0.7-0.3-1.7-0.3-2.6
	c0.4-0.1,0.9,0.2,1.3,0.4c0.4,0.2,0.7,0.3,1.1,0.4"/>
<path class="st0" d="M-73.3,439.2c-2.8-1.4-4.5-4.3-5.4-7.3s-1.1-6.1-1.4-9.2c-1-9.7-3.8-19.5-1.6-29c0.2-0.7,0.4-1.5,0.8-2.1
	c0.5-0.7,1.3-1.2,2.1-1.6c1.2-0.7,2.4-1.3,3.6-1.9c0.6-0.3,1.2-0.6,1.9-0.4c0.5,0.2,0.9,0.6,1.2,1.1c1.6,2.6,2.1,5.8,2.6,8.8
	c1.1,7.1,2.1,14.2,3.2,21.3c0.3,1.8,0.6,3.6,1.7,5.1c1.1,1.4,3.2,2.2,4.7,1.2c1.3-0.9,1.5-2.7,2.1-4.2c0.1-0.3,0.2-0.5,0.4-0.7
	c0.4-0.3,0.9-0.2,1.3-0.1c1.5,0.4,2.7,1.7,3.4,3.1c0.7,1.4,0.9,3,1.1,4.6c0.2,1.9,0.4,3.8,0.1,5.7s-1.2,3.7-2.7,4.8
	c-1.4,1-3.1,1.4-4.8,1.6c-2.5,0.4-5,0.5-7.6,0.5C-69,440.4-71.3,440.2-73.3,439.2z"/>
<path class="st2" d="M-99.5,388.6c2.9,8.5,3.5,17.5,4,26.4c0.6,8.9-0.5,18.5-4.1,25.8c4.6,3.6,19.1,7.4,22.4,4.6
	c2.8-3.2,4.1-8.6,4.8-13.7c1.8-13.2,1.3-25.7-1.6-38.7c-1-4.6-3.1-5-5.2-4.9C-87,388.5-99.5,388.6-99.5,388.6z"/>
<path class="st3" d="M-70.9,387.8c-0.2-1.8,1-2.5,0.9-4.3c-0.1-1.1-2.8-1.2-5.7-3.4c-7.9,0.9-25.1,0.4-28.4,0.3
	c-6.7-0.2-6,0.7-6.3,1.4c-0.5,1.1,0.2,6.4,0.8,7.5c0.7,1.1,2.1,1.2,3.2,1.3c8,0.4,16.2,0.6,24.3,0.3
	C-70.7,390.3-70.7,390.1-70.9,387.8z"/>
<path class="st0" d="M-88.7,383.3c-0.2,0.4-0.4,1-0.4,1.5c0,1.6,1.4,2.8,3,2.8c0.5,0,1-0.1,1.4-0.4c-0.5,0.9-1.5,1.7-3,1.5
	c-1.7-0.2-2.6-1.3-2.7-2.8C-90.5,384.5-89.1,383.6-88.7,383.3z"/>
<path class="st0" d="M-97.1,442.3c1.3-2,2-3.2,3-5.5c0.8-1.7,4.4-1,4.9-0.9c2.6,0.5,5,1.2,7.9,1.9c4.9,1.2,3.1,3.5,2.8,4.3
	c-0.5,1-2,3.3-3.2,4.2c-0.6,0.5,3,0.4,4.5-0.8c0.8-0.7,1.7-2,2.2-3c1.3-2.8,1.8-4.4-1.5-5.9c-4-1.9-8.4-3-12.9-3.4
	c-2-0.2-7.3-1-7.8,0.9c-0.5,1.9-2.2,5.1-2.5,6.5C-100.2,441.1-97.6,442.9-97.1,442.3z"/>
<path class="st0" d="M-90.7,444.8c1-0.5,1.5-1.5,1.9-2.5c0.1-0.2,0-0.8,1.7-0.3c0.9,0.2,1.2,0.4,0.5,2c-0.2,0.4-0.4,0.8-0.6,1.2
	c-0.6,0.9-0.8,0.8-1.4,0.8c-0.5,0-0.9-0.1-1.4-0.3C-90.5,445.4-91.2,445-90.7,444.8z"/>
<path class="st0" d="M-81.1,413.3c-0.1-0.9,0-0.9-1.4-0.9c-0.8,0-1.3,0-2.2,0.1c-0.4,0-1.2,0.1-1.1,0.6c0,0.3,0.1,1.2,0.2,1.6
	c0.1,0.5,0.5,0.4,1.1,0.4c1-0.1,2.5-0.1,2.8-0.2c0.8-0.1,0.8-0.1,0.8-0.6C-81.1,413.7-81.1,413.3-81.1,413.3z"/>
<path class="st0" d="M-81.2,422.5c0-0.7,0.1-0.7-1.3-0.9c-0.8-0.1-1.2-0.2-2.2-0.3c-0.4,0-1.2-0.1-1.2,0.3c0,0.2,0,0.9,0.1,1.3
	c0,0.4,0.5,0.4,1,0.5c1,0.1,2.4,0.2,2.8,0.2c0.8,0,0.8,0,0.9-0.3C-81.2,422.8-81.2,422.5-81.2,422.5z"/>
<path class="st0" d="M-81.9,430.2c0-0.6,0.1-0.5-1.3-0.8c-0.8-0.2-1.2-0.3-2.2-0.4c-0.3,0-1-0.1-1.2,0.1c-0.1,0.2-0.2,0.8-0.1,1
	c0.1,0.3,0.6,0.4,1.1,0.5c1,0.2,2.4,0.4,2.7,0.4c0.7,0.1,0.8,0,0.9-0.3C-81.9,430.3-81.9,430.2-81.9,430.2z"/>
<g>
	<g>
		<defs>
			<path id="SVGID_1_" d="M-70.5,379.2c-1.5-0.3-3.2-0.7-4.5,0.2c-0.8,0.6-1.3,1.5-1.6,2.5c-0.3,1-0.4,2-0.7,2.9
				c-0.9,2.5-3.1,4.4-5.6,5.1c-1.7,0.5-3.5,0.5-5.2,0.9c-0.4,0.1-0.9,0.4-0.8,0.8c0,0.1,0.1,0.2,0.2,0.3c0.4,0.3,0.9,0.4,1.4,0.5
				c2.5,0.4,5.1,0.2,7.7,0.1c2.7-0.2,5.4-0.4,8-1c0.9-0.2,1.7-0.5,2.4-1c1.1-0.9,1.5-2.4,1.6-3.8c0.1-3.1-1.1-6.2-3.4-8.3"/>
		</defs>
		<clipPath id="SVGID_2_">
			<use xlink:href="#SVGID_1_"  style="overflow:visible;"/>
		</clipPath>
		<path class="st4" d="M-68.7,388.1c-0.2-1.8-0.3-2.7-0.5-4.5c-0.1-1.1-0.4-4.3-5-3.7c-7.9,1-26.6,0.6-29.9,0.5
			c-6.7-0.2-6,0.7-6.3,1.4c-0.5,1.1,0.2,6.4,0.8,7.5c0.7,1.1,2.1,1.2,3.2,1.3c8,0.4,16.2,0.6,24.3,0.3
			C-70.7,390.3-68.5,390.4-68.7,388.1z"/>
	</g>
</g>
<path class="st2" d="M-63.7,386.1c22.4-0.7,28.8,5,44.6,3.8c7.6-0.5,34.4,2.1,42.3,2.8c0.5,0.1,1.1,0.1,1.5,0.5
	c0.4,0.4,0.4,0.9,0.4,1.4c0.7,9.4,1.3,15,0.9,24.4c-0.5,10.2-2.3,20.3-4.1,30.3c-1.1,6.2-2.3,12.5-4.4,18.4
	c-3.8-1.8-38.6-10.3-42.8-11.2c-8.9-1.9-36.1-3.8-41.8-6.6c1.9,0.7,8.9-17.4,8.4-32.9C-59.3,397.9-61.6,388.4-63.7,386.1z"/>
<path class="st0" d="M347.1,383.2c-7.4-2.5-61.3-3.7-69.1-3.2c-67.9,4.3-136.1,4.5-204.1,0.5c-0.5-0.2-1-0.2-1.5-0.3
	c-11.2-0.8-49.5-3.6-60.3-2.5c-22.5,2.2-31.7-5.6-63.7-3.8c1.6,1.6,3.2,5.7,4.7,12.9c-0.5,0-1-0.1-1.4-0.1
	c0.5,1.5,2.4,18.3,0.5,34.7c-4.6-0.2-8.4-0.4-10.9-0.4c-0.8,14.7-7.9,28.4-9.6,27.7c-0.2,2,6,3.4,13.9,4.4c2.1,0.4,4.1,0.7,5.9,0.9
	c0,0,0.1,0,0.2,0c-2.2,7-4.6,11.5-5.8,11.1c8.2,3.7,47.1,5.5,59.8,7.8c5.9,1.1,55.8,11.9,61.3,14.3c0-0.1,0.1-0.3,0.1-0.4
	c6.5,1.6,13.5,2.3,21.9,2.7c17.8,1,42.3,1.7,60.1,0.6c50.7-3.1,147.3,4.2,198,2.3C347.1,456.2,347.1,419.7,347.1,383.2z"/>
<path class="st2" d="M77.4,380.7c-0.8,0-4.2-0.4-5-0.5c-11.2-0.8-49.5-3.6-60.3-2.5c-22.5,2.2-31.7-5.6-63.7-3.8
	c2.3,2.4,8.3,16.3,8.1,39.9c2.4,1.5,39.7-10.3,56.6-9c2.2,0.2,15.1,0.5,15.1,6.2c0,4.4-7.9,5.2-7.4,10.1c0.5,4.4,10.5,5.9,12.4,5.9
	c42.4,1,202.1-7.7,186.1-29.2c-3.9-5.3-2.7-14.4-8.8-14.4C149.9,383.3,114.5,382.1,77.4,380.7z"/>
</svg>
