<?xml version="1.0" encoding="utf-8"?>
<!-- Generator: Adobe Illustrator 19.0.1, SVG Export Plug-In . SVG Version: 6.00 Build 0)  -->
<svg version="1.1" id="Main_v1" xmlns="http://www.w3.org/2000/svg" xmlns:xlink="http://www.w3.org/1999/xlink" x="0px" y="0px"
	 viewBox="-700.5 636.3 697.6 174.7" style="enable-background:new -700.5 636.3 697.6 174.7;" xml:space="preserve">
<style type="text/css">
	.st0{fill:#454466;}
	.st1{fill:#FFFFFF;stroke:#454466;stroke-miterlimit:10;}
	.st2{fill:#BEBECE;}
	.st3{fill:#FFFFFF;}
	.st4{clip-path:url(#SVGID_2_);fill:#454466;}
</style>
<path class="st0" d="M-391.3,704c-2.3-5-9.7-11.8-10.3-11.8c-4.7-0.2-7.1,20.7-7.8,31c-0.6,8-1.6,15.9-2.3,23.8
	c-1.2,13.8,3.2,34.1,7.7,36.5c1.1,0.6,5-1.8,6.1-3c8.4-10,13.8-22.4,15.5-35.4c0.5-4,0.6-8.1,0.7-12.2c0.1-4.7,0.1-9.7-2.1-13.8
	c-0.8-1.5-1.9-2.9-2.7-4.4c-1.7-3-2.3-6.6-4.3-9.5"/>
<path class="st0" d="M-406.7,712.9c-1.5-3.5-6.6-8.4-7-8.5c-3.3-0.2-5.3,14.4-6,21.6c-0.5,5.6-1.4,11.1-2,16.7
	c-1.1,9.6,1.6,24,4.7,25.7c0.8,0.5,3.5-1.2,4.3-2c6.1-6.9,10.1-15.5,11.5-24.5c0.4-2.8,0.6-5.7,0.7-8.5c0.2-3.3,0.2-6.8-1.2-9.7
	c-0.5-1.1-1.3-2.1-1.8-3.2c-1.1-2.2-1.5-4.7-2.8-6.7"/>
<path class="st1" d="M-319.1,707.5c-39,3.3-93.2-0.3-114.5,0.8c-41.1,2.2-109.6-17.6-134-25.1c-42.8-13-105.1-49.4-113.4-46.2
	c-2.5,16.8,27.4,35.7,48.9,46.6c-9.2,0.8-50.9-3.3-67.1-4.2c-0.7-0.1-1.1,0.8-0.6,1.3c24.5,28.5,77.5,23,110.9,26.9
	c-12.5,4.6-57.9,8.3-63.4,12.3c4.1,14.7,44,13.3,79.1,6.5c1.9-0.4,3.9-0.6,6-0.6c33.2-3,47.2,10.9,75.1,18.9
	c19,5.5,28.4-3.9,30.6-4.9c9.5,1.6,64.4,12.6,64.4,12.6l-3.4,14.5c34.2,8.7,70.8,18.1,78.4,20.3
	C-322.1,787.2-305.3,706.4-319.1,707.5z"/>
<g>
	<path class="st0" d="M-461.5,739.8c9.5,1.6,64.4,12.6,64.4,12.6l-3.8,16.4c-15.3-4-56.6-13.5-62.3-14.5"/>
</g>
<path class="st0" d="M-447.7,757.2c-0.3,0.8-0.8,1.5-1.5,2c-0.1,0.1,0,0.6-0.2,0.5c-0.2-0.1-0.6-0.6-0.7-0.7
	c-0.4-0.7-0.3-1.7-0.3-2.6c0.4-0.1,0.9,0.2,1.3,0.4s0.7,0.3,1.1,0.4"/>
<path class="st0" d="M-423.3,757.5c-2.8-1.4-4.5-4.3-5.4-7.3s-1.1-6.1-1.4-9.2c-1-9.7-3.8-19.5-1.6-29c0.2-0.7,0.4-1.5,0.8-2.1
	c0.5-0.7,1.3-1.2,2.1-1.6c1.2-0.7,2.4-1.3,3.6-1.9c0.6-0.3,1.2-0.6,1.9-0.4c0.5,0.2,0.9,0.6,1.2,1.1c1.6,2.6,2.1,5.8,2.6,8.8
	c1.1,7.1,2.1,14.2,3.2,21.3c0.3,1.8,0.6,3.6,1.7,5.1c1.1,1.4,3.2,2.2,4.7,1.2c1.3-0.9,1.5-2.7,2.1-4.2c0.1-0.3,0.2-0.5,0.4-0.7
	c0.4-0.3,0.9-0.2,1.3-0.1c1.5,0.4,2.7,1.7,3.4,3.1c0.7,1.4,0.9,3,1.1,4.6c0.2,1.9,0.4,3.8,0.1,5.7c-0.3,1.9-1.2,3.7-2.7,4.8
	c-1.4,1-3.1,1.4-4.8,1.6c-2.5,0.4-5,0.5-7.6,0.5C-419,758.7-421.3,758.5-423.3,757.5z"/>
<path class="st2" d="M-449.5,706.9c2.9,8.5,3.5,17.5,4,26.4c0.6,8.9-0.5,18.5-4.1,25.8c4.6,3.6,19.1,7.4,22.4,4.6
	c2.8-3.2,4.1-8.6,4.8-13.7c1.8-13.2,1.3-25.7-1.6-38.7c-1-4.6-3.1-5-5.2-4.9C-437,706.8-449.5,706.9-449.5,706.9z"/>
<path class="st3" d="M-420.9,706.1c-0.2-1.8,1-2.5,0.9-4.3c-0.1-1.1-2.8-1.2-5.7-3.4c-7.9,0.9-25.1,0.4-28.4,0.3
	c-6.7-0.2-6,0.7-6.3,1.4c-0.5,1.1,0.2,6.4,0.8,7.5c0.7,1.1,2.1,1.2,3.2,1.3c8,0.4,16.2,0.6,24.3,0.3
	C-420.7,708.6-420.7,708.4-420.9,706.1z"/>
<path class="st0" d="M-438.7,701.6c-0.2,0.4-0.4,1-0.4,1.5c0,1.6,1.4,2.8,3,2.8c0.5,0,1-0.1,1.4-0.4c-0.5,0.9-1.5,1.7-3,1.5
	c-1.7-0.2-2.6-1.3-2.7-2.8C-440.5,702.8-439.1,701.9-438.7,701.6z"/>
<path class="st0" d="M-447.1,760.6c1.3-2,2-3.2,3-5.5c0.8-1.7,4.4-1,4.9-0.9c2.6,0.5,5,1.2,7.9,1.9c4.9,1.2,3.1,3.5,2.8,4.3
	c-0.5,1-2,3.3-3.2,4.2c-0.6,0.5,3,0.4,4.5-0.8c0.8-0.7,1.7-2,2.2-3c1.3-2.8,1.8-4.4-1.5-5.9c-4-1.9-8.4-3-12.9-3.4
	c-2-0.2-7.3-1-7.8,0.9c-0.5,1.9-2.2,5.1-2.5,6.5C-450.2,759.4-447.6,761.2-447.1,760.6z"/>
<path class="st0" d="M-440.7,763.1c1-0.5,1.5-1.5,1.9-2.5c0.1-0.2,0-0.8,1.7-0.3c0.9,0.2,1.2,0.4,0.5,2c-0.2,0.4-0.4,0.8-0.6,1.2
	c-0.6,0.9-0.8,0.8-1.4,0.8c-0.5,0-0.9-0.1-1.4-0.3C-440.5,763.7-441.2,763.3-440.7,763.1z"/>
<path class="st0" d="M-431.1,731.6c-0.1-0.9,0-0.9-1.4-0.9c-0.8,0-1.3,0-2.2,0.1c-0.4,0-1.2,0.1-1.1,0.6c0,0.3,0.1,1.2,0.2,1.6
	c0.1,0.5,0.5,0.4,1.1,0.4c1-0.1,2.5-0.1,2.8-0.2c0.8-0.1,0.8-0.1,0.8-0.6C-431.1,732-431.1,731.6-431.1,731.6z"/>
<path class="st0" d="M-431.2,740.8c0-0.7,0.1-0.7-1.3-0.9c-0.8-0.1-1.2-0.2-2.2-0.3c-0.4,0-1.2-0.1-1.2,0.3c0,0.2,0,0.9,0.1,1.3
	c0,0.4,0.5,0.4,1,0.5c1,0.1,2.4,0.2,2.8,0.2c0.8,0,0.8,0,0.9-0.3C-431.2,741.1-431.2,740.8-431.2,740.8z"/>
<path class="st0" d="M-431.9,748.5c0-0.6,0.1-0.5-1.3-0.8c-0.8-0.2-1.2-0.3-2.2-0.4c-0.3,0-1-0.1-1.2,0.1c-0.1,0.2-0.2,0.8-0.1,1
	c0.1,0.3,0.6,0.4,1.1,0.5c1,0.2,2.4,0.4,2.7,0.4c0.7,0.1,0.8,0,0.9-0.3C-431.9,748.6-431.9,748.5-431.9,748.5z"/>
<g>
	<g>
		<g>
			<defs>
				<path id="SVGID_1_" d="M-420.5,697.5c-1.5-0.3-3.2-0.7-4.5,0.2c-0.8,0.6-1.3,1.5-1.6,2.5c-0.3,1-0.4,2-0.7,2.9
					c-0.9,2.5-3.1,4.4-5.6,5.1c-1.7,0.5-3.5,0.5-5.2,0.9c-0.4,0.1-0.9,0.4-0.8,0.8c0,0.1,0.1,0.2,0.2,0.3c0.4,0.3,0.9,0.4,1.4,0.5
					c2.5,0.4,5.1,0.2,7.7,0.1c2.7-0.2,5.4-0.4,8-1c0.9-0.2,1.7-0.5,2.4-1c1.1-0.9,1.5-2.4,1.6-3.8c0.1-3.1-1.1-6.2-3.4-8.3"/>
			</defs>
			<clipPath id="SVGID_2_">
				<use xlink:href="#SVGID_1_"  style="overflow:visible;"/>
			</clipPath>
			<path class="st4" d="M-418.7,706.4c-0.2-1.8-0.3-2.7-0.5-4.5c-0.1-1.1-0.4-4.3-5-3.7c-7.9,1-26.6,0.6-29.9,0.5
				c-6.7-0.2-6,0.7-6.3,1.4c-0.5,1.1,0.2,6.4,0.8,7.5c0.7,1.1,2.1,1.2,3.2,1.3c8,0.4,16.2,0.6,24.3,0.3
				C-420.7,708.6-418.5,708.7-418.7,706.4z"/>
		</g>
	</g>
</g>
<path class="st2" d="M-413.7,704.4c22.4-0.7,28.8,5,44.6,3.8c7.6-0.5,34.4,2.1,42.3,2.8c0.5,0.1,1.1,0.1,1.5,0.5
	c0.4,0.4,0.4,0.9,0.4,1.4c0.7,9.4,1.3,15,0.9,24.4c-0.5,10.2-2.3,20.3-4.1,30.3c-1.1,6.2-2.3,12.5-4.4,18.4
	c-3.8-1.8-38.6-10.3-42.8-11.2c-8.9-1.9-36.1-3.8-41.8-6.6c1.9,0.7,8.9-17.4,8.4-32.9C-409.3,716.2-411.6,706.7-413.7,704.4z"/>
<path class="st0" d="M-2.9,701.5c-7.4-2.5-61.3-3.7-69.1-3.2c-67.9,4.3-136.1,4.5-204.1,0.5c-0.5-0.2-1-0.2-1.5-0.3
	c-11.2-0.8-49.5-3.6-60.3-2.5c-22.5,2.2-31.7-5.6-63.7-3.8c1.6,1.6,3.2,5.7,4.7,12.9c-0.5,0-1-0.1-1.4-0.1
	c0.5,1.5,2.4,18.3,0.5,34.7c-4.6-0.2-8.4-0.4-10.9-0.4c-0.8,14.7-7.9,28.4-9.6,27.7c-0.2,2,6,3.4,13.9,4.4c2.1,0.4,4.1,0.7,5.9,0.9
	c0,0,0.1,0,0.2,0c-2.2,7-4.6,11.5-5.8,11.1c8.2,3.7,47.1,5.5,59.8,7.8c5.9,1.1,55.8,11.9,61.3,14.3c0-0.1,0.1-0.3,0.1-0.4
	c6.5,1.6,13.5,2.3,21.9,2.7c17.8,1,42.3,1.7,60.1,0.6c50.7-3.1,147.3,4.2,198,2.3C-2.9,774.5-2.9,738-2.9,701.5z"/>
<path class="st2" d="M-272.6,699c-0.8,0-4.2-0.4-5-0.5c-11.2-0.8-49.5-3.6-60.3-2.5c-22.5,2.2-31.7-5.6-63.7-3.8
	c2.3,2.4,8.3,16.3,8.1,39.9c2.4,1.5,39.7-10.3,56.6-9c2.2,0.2,15.1,0.5,15.1,6.2c0,4.4-7.9,5.2-7.4,10.1c0.5,4.4,10.5,5.9,12.4,5.9
	c42.4,1,202.1-7.7,186.1-29.2c-3.9-5.3-2.7-14.4-8.8-14.4C-200.1,701.6-235.5,700.4-272.6,699z"/>
</svg>
