<?xml version="1.0" encoding="utf-8"?>
<!-- Generator: Adobe Illustrator 19.0.1, SVG Export Plug-In . SVG Version: 6.00 Build 0)  -->
<svg version="1.1" id="Main_v1" xmlns="http://www.w3.org/2000/svg" xmlns:xlink="http://www.w3.org/1999/xlink" x="0px" y="0px"
	 viewBox="0 0 697.2 174.5" enable-background="new 0 0 697.2 174.5" xml:space="preserve">
<path fill="#454466" d="M308.7,67.2c-2.3-5-9.7-11.8-10.3-11.8c-4.7-0.2-7.1,20.7-7.8,31c-0.6,8-1.6,15.9-2.3,23.8
	c-1.2,13.8,3.2,34.1,7.7,36.5c1.1,0.6,5-1.8,6.1-3c8.4-10,13.8-22.4,15.5-35.4c0.5-4,0.6-8.1,0.7-12.2c0.1-4.7,0.1-9.7-2.1-13.8
	c-0.8-1.5-1.9-2.9-2.7-4.4c-1.7-3-2.3-6.6-4.3-9.5"/>
<path fill="#454466" d="M293.3,76.1c-1.5-3.5-6.6-8.4-7-8.5c-3.3-0.2-5.3,14.4-6,21.6c-0.5,5.6-1.4,11.1-2,16.7
	c-1.1,9.6,1.6,24,4.7,25.7c0.8,0.5,3.5-1.2,4.3-2c6.1-6.9,10.1-15.5,11.5-24.5c0.4-2.8,0.6-5.7,0.7-8.5c0.2-3.3,0.2-6.8-1.2-9.7
	c-0.5-1.1-1.3-2.1-1.8-3.2c-1.1-2.2-1.5-4.7-2.8-6.7"/>
<path fill="#FFFFFF" d="M377.9,150.4c-14.6-4.3-137-35.3-142.8-36.2c-6.9,9.2-1-1-26.3,5.2c-25.4,6.2-20.5,0.7-21-5
	c-0.9-11.7-38.4-29.2-61-24.8c-35.1,6.8-75,8.2-79.1-6.5c5.5-4,50.9-7.7,63.4-12.3C77.7,66.9,24.7,72.4,0.2,43.9
	c-0.5-0.5-0.1-1.4,0.6-1.3c16.2,0.9,57.9,5,67.1,4.2C46.4,35.9,16.5,17,19,0.2C27.3-3,89.6,33.4,132.4,46.4
	c24.4,7.5,92.9,27.3,134,25.1c21.3-1.1,75.5,2.5,114.5-0.8C394.7,69.6,377.9,150.4,377.9,150.4z"/>
<g>
	<path fill="#454466" d="M149.5,140.5c16.7-6.1,23.8-9.8,23.8-18.4c0-11.2-22.3-33.6-43.8-32.8c35.6-4.3,49.6,10.3,78.4,18.6
		c19,5.5,28.4-3.9,30.6-4.9c9.5,1.6,64.4,12.6,64.4,12.6l-3.8,16.4c-15.3-4-56.6-13.5-62.3-14.5c-6.9,9.2-3,13.2-28.3,19.4
		c-25.4,6.2-70.3,26.7-77,32C127.1,160.8,132.8,146.6,149.5,140.5z"/>
</g>
<path fill="#454466" d="M252.3,120.4c-0.3,0.8-0.8,1.5-1.5,2c-0.1,0.1,0,0.6-0.2,0.5c-0.2-0.1-0.6-0.6-0.7-0.7
	c-0.4-0.7-0.3-1.7-0.3-2.6c0.4-0.1,0.9,0.2,1.3,0.4c0.4,0.2,0.7,0.3,1.1,0.4"/>
<path fill="#454466" d="M276.7,120.7c-2.8-1.4-4.5-4.3-5.4-7.3s-1.1-6.1-1.4-9.2c-1-9.7-3.8-19.5-1.6-29c0.2-0.7,0.4-1.5,0.8-2.1
	c0.5-0.7,1.3-1.2,2.1-1.6c1.2-0.7,2.4-1.3,3.6-1.9c0.6-0.3,1.2-0.6,1.9-0.4c0.5,0.2,0.9,0.6,1.2,1.1c1.6,2.6,2.1,5.8,2.6,8.8
	c1.1,7.1,2.1,14.2,3.2,21.3c0.3,1.8,0.6,3.6,1.7,5.1c1.1,1.4,3.2,2.2,4.7,1.2c1.3-0.9,1.5-2.7,2.1-4.2c0.1-0.3,0.2-0.5,0.4-0.7
	c0.4-0.3,0.9-0.2,1.3-0.1c1.5,0.4,2.7,1.7,3.4,3.1c0.7,1.4,0.9,3,1.1,4.6c0.2,1.9,0.4,3.8,0.1,5.7c-0.3,1.9-1.2,3.7-2.7,4.8
	c-1.4,1-3.1,1.4-4.8,1.6c-2.5,0.4-5,0.5-7.6,0.5C281,121.9,278.7,121.7,276.7,120.7z"/>
<path fill="#BEBECE" d="M250.5,70.1c2.9,8.5,3.5,17.5,4,26.4c0.6,8.9-0.5,18.5-4.1,25.8c4.6,3.6,19.1,7.4,22.4,4.6
	c2.8-3.2,4.1-8.6,4.8-13.7c1.8-13.2,1.3-25.7-1.6-38.7c-1-4.6-3.1-5-5.2-4.9C263,70,250.5,70.1,250.5,70.1z"/>
<path fill="#FFFFFF" d="M279.1,69.3c-0.2-1.8,1-2.5,0.9-4.3c-0.1-1.1-2.8-1.2-5.7-3.4c-7.9,0.9-25.1,0.4-28.4,0.3
	c-6.7-0.2-6,0.7-6.3,1.4c-0.5,1.1,0.2,6.4,0.8,7.5c0.7,1.1,2.1,1.2,3.2,1.3c8,0.4,16.2,0.6,24.3,0.3
	C279.3,71.8,279.3,71.6,279.1,69.3z"/>
<path fill="#454466" d="M261.3,64.8c-0.2,0.4-0.4,1-0.4,1.5c0,1.6,1.4,2.8,3,2.8c0.5,0,1-0.1,1.4-0.4c-0.5,0.9-1.5,1.7-3,1.5
	c-1.7-0.2-2.6-1.3-2.7-2.8C259.5,66,260.9,65.1,261.3,64.8z"/>
<path fill="#454466" d="M252.9,123.8c1.3-2,2-3.2,3-5.5c0.8-1.7,4.4-1,4.9-0.9c2.6,0.5,5,1.2,7.9,1.9c4.9,1.2,3.1,3.5,2.8,4.3
	c-0.5,1-2,3.3-3.2,4.2c-0.6,0.5,3,0.4,4.5-0.8c0.8-0.7,1.7-2,2.2-3c1.3-2.8,1.8-4.4-1.5-5.9c-4-1.9-8.4-3-12.9-3.4
	c-2-0.2-7.3-1-7.8,0.9c-0.5,1.9-2.2,5.1-2.5,6.5C249.8,122.6,252.4,124.4,252.9,123.8z"/>
<path fill="#454466" d="M259.3,126.3c1-0.5,1.5-1.5,1.9-2.5c0.1-0.2,0-0.8,1.7-0.3c0.9,0.2,1.2,0.4,0.5,2c-0.2,0.4-0.4,0.8-0.6,1.2
	c-0.6,0.9-0.8,0.8-1.4,0.8c-0.5,0-0.9-0.1-1.4-0.3C259.5,126.9,258.8,126.5,259.3,126.3z"/>
<path fill="#454466" d="M268.9,94.8c-0.1-0.9,0-0.9-1.4-0.9c-0.8,0-1.3,0-2.2,0.1c-0.4,0-1.2,0.1-1.1,0.6c0,0.3,0.1,1.2,0.2,1.6
	c0.1,0.5,0.5,0.4,1.1,0.4c1-0.1,2.5-0.1,2.8-0.2c0.8-0.1,0.8-0.1,0.8-0.6C268.9,95.2,268.9,94.8,268.9,94.8z"/>
<path fill="#454466" d="M268.8,104c0-0.7,0.1-0.7-1.3-0.9c-0.8-0.1-1.2-0.2-2.2-0.3c-0.4,0-1.2-0.1-1.2,0.3c0,0.2,0,0.9,0.1,1.3
	c0,0.4,0.5,0.4,1,0.5c1,0.1,2.4,0.2,2.8,0.2c0.8,0,0.8,0,0.9-0.3C268.8,104.3,268.8,104,268.8,104z"/>
<path fill="#454466" d="M268.1,111.7c0-0.6,0.1-0.5-1.3-0.8c-0.8-0.2-1.2-0.3-2.2-0.4c-0.3,0-1-0.1-1.2,0.1c-0.1,0.2-0.2,0.8-0.1,1
	c0.1,0.3,0.6,0.4,1.1,0.5c1,0.2,2.4,0.4,2.7,0.4c0.7,0.1,0.8,0,0.9-0.3C268.1,111.8,268.1,111.7,268.1,111.7z"/>
<g>
	<defs>
		<path id="SVGID_1_" d="M279.5,60.7c-1.5-0.3-3.2-0.7-4.5,0.2c-0.8,0.6-1.3,1.5-1.6,2.5c-0.3,1-0.4,2-0.7,2.9
			c-0.9,2.5-3.1,4.4-5.6,5.1c-1.7,0.5-3.5,0.5-5.2,0.9c-0.4,0.1-0.9,0.4-0.8,0.8c0,0.1,0.1,0.2,0.2,0.3c0.4,0.3,0.9,0.4,1.4,0.5
			c2.5,0.4,5.1,0.2,7.7,0.1c2.7-0.2,5.4-0.4,8-1c0.9-0.2,1.7-0.5,2.4-1c1.1-0.9,1.5-2.4,1.6-3.8c0.1-3.1-1.1-6.2-3.4-8.3"/>
	</defs>
	<clipPath id="SVGID_2_">
		<use xlink:href="#SVGID_1_"  overflow="visible"/>
	</clipPath>
	<path clip-path="url(#SVGID_2_)" fill="#454466" d="M281.3,69.6c-0.2-1.8-0.3-2.7-0.5-4.5c-0.1-1.1-0.4-4.3-5-3.7
		c-7.9,1-26.6,0.6-29.9,0.5c-6.7-0.2-6,0.7-6.3,1.4c-0.5,1.1,0.2,6.4,0.8,7.5c0.7,1.1,2.1,1.2,3.2,1.3c8,0.4,16.2,0.6,24.3,0.3
		C279.3,71.8,281.5,71.9,281.3,69.6z"/>
</g>
<path fill="#BEBECE" d="M286.3,67.6c22.4-0.7,28.8,5,44.6,3.8c7.6-0.5,34.4,2.1,42.3,2.8c0.5,0.1,1.1,0.1,1.5,0.5
	c0.4,0.4,0.4,0.9,0.4,1.4c0.7,9.4,1.3,15,0.9,24.4c-0.5,10.2-2.3,20.3-4.1,30.3c-1.1,6.2-2.3,12.5-4.4,18.4
	c-3.8-1.8-38.6-10.3-42.8-11.2c-8.9-1.9-36.1-3.8-41.8-6.6c1.9,0.7,8.9-17.4,8.4-32.9C290.7,79.4,288.4,69.9,286.3,67.6z"/>
<path fill="#454466" d="M697.1,64.7c-7.4-2.5-61.3-3.7-69.1-3.2C560.1,65.8,491.9,66,423.9,62c-0.5-0.2-1-0.2-1.5-0.3
	c-11.2-0.8-49.5-3.6-60.3-2.5c-22.5,2.2-31.7-5.6-63.7-3.8c1.6,1.6,3.2,5.7,4.7,12.9c-0.5,0-1-0.1-1.4-0.1
	c0.5,1.5,2.4,18.3,0.5,34.7c-4.6-0.2-8.4-0.4-10.9-0.4c-0.8,14.7-7.9,28.4-9.6,27.7c-0.2,2,6,3.4,13.9,4.4c2.1,0.4,4.1,0.7,5.9,0.9
	c0,0,0.1,0,0.2,0c-2.2,7-4.6,11.5-5.8,11.1c8.2,3.7,47.1,5.5,59.8,7.8c5.9,1.1,55.8,11.9,61.3,14.3c0-0.1,0.1-0.3,0.1-0.4
	c6.5,1.6,13.5,2.3,21.9,2.7c17.8,1,42.3,1.7,60.1,0.6c50.7-3.1,147.3,4.2,198,2.3C697.1,137.7,697.1,101.2,697.1,64.7z"/>
<path fill="#BEBECE" d="M427.4,62.2c-0.8,0-4.2-0.4-5-0.5c-11.2-0.8-49.5-3.6-60.3-2.5c-22.5,2.2-31.7-5.6-63.7-3.8
	c2.3,2.4,8.3,16.3,8.1,39.9c2.4,1.5,39.7-10.3,56.6-9c2.2,0.2,15.1,0.5,15.1,6.2c0,4.4-7.9,5.2-7.4,10.1c0.5,4.4,10.5,5.9,12.4,5.9
	c42.4,1,202.1-7.7,186.1-29.2c-3.9-5.3-2.7-14.4-8.8-14.4C499.9,64.8,464.5,63.6,427.4,62.2z"/>
</svg>
