<svg xmlns="http://www.w3.org/2000/svg" x="0px" y="0px" xmlns:xlink="http://www.w3.org/1999/xlink" viewBox="0 0 697.2 174.5">
  <path fill="#454466" d="M308.7 67.2c-2.3-5-9.7-11.8-10.3-11.8-4.7-.2-7.1 20.7-7.8 31-.6 8-1.6 15.9-2.3 23.8-1.2 13.8 3.2 34.1 7.7 36.5 1.1.6 5-1.8 6.1-3 8.4-10 13.8-22.4 15.5-35.4.5-4 .6-8.1.7-12.2.1-4.7.1-9.7-2.1-13.8-.8-1.5-1.9-2.9-2.7-4.4-1.7-3-2.3-6.6-4.3-9.5"/>
  <path fill="#454466" d="M293.3 76.1c-1.5-3.5-6.6-8.4-7-8.5-3.3-.2-5.3 14.4-6 21.6-.5 5.6-1.4 11.1-2 16.7-1.1 9.6 1.6 24 4.7 25.7.8.5 3.5-1.2 4.3-2 6.1-6.9 10.1-15.5 11.5-24.5.4-2.8.6-5.7.7-8.5.2-3.3.2-6.8-1.2-9.7-.5-1.1-1.3-2.1-1.8-3.2-1.1-2.2-1.5-4.7-2.8-6.7"/>
  <path fill="#FFF" d="M377.9 150.4c-14.6-4.3-137-35.3-142.8-36.2-6.9 9.2-1-1-26.3 5.2-25.4 6.2-20.5.7-21-5-.9-11.7-38.4-29.2-61-24.8-35.1 6.8-75 8.2-79.1-6.5 5.5-4 50.9-7.7 63.4-12.3C77.7 66.9 24.7 72.4.2 43.9c-.5-.5-.1-1.4.6-1.3 16.2.9 57.9 5 67.1 4.2C46.4 35.9 16.5 17 19 .2 27.3-3 89.6 33.4 132.4 46.4c24.4 7.5 92.9 27.3 134 25.1 21.3-1.1 75.5 2.5 114.5-.8 13.8-1.1-3 79.7-3 79.7z"/>
  <path fill="#454466" d="M149.5 140.5c16.7-6.1 23.8-9.8 23.8-18.4 0-11.2-22.3-33.6-43.8-32.8 35.6-4.3 49.6 10.3 78.4 18.6 19 5.5 28.4-3.9 30.6-4.9 9.5 1.6 64.4 12.6 64.4 12.6l-3.8 16.4c-15.3-4-56.6-13.5-62.3-14.5-6.9 9.2-3 13.2-28.3 19.4-25.4 6.2-70.3 26.7-77 32-4.4-8.1 1.3-22.3 18-28.4z"/>
  <path fill="#454466" d="M252.3 120.4c-.3.8-.8 1.5-1.5 2-.1.1 0 .6-.2.5-.2-.1-.6-.6-.7-.7-.4-.7-.3-1.7-.3-2.6.4-.1.9.2 1.3.4s.7.3 1.1.4m24.7.3c-2.8-1.4-4.5-4.3-5.4-7.3s-1.1-6.1-1.4-9.2c-1-9.7-3.8-19.5-1.6-29 .2-.7.4-1.5.8-2.1.5-.7 1.3-1.2 2.1-1.6 1.2-.7 2.4-1.3 3.6-1.9.6-.3 1.2-.6 1.9-.4.5.2.9.6 1.2 1.1 1.6 2.6 2.1 5.8 2.6 8.8 1.1 7.1 2.1 14.2 3.2 21.3.3 1.8.6 3.6 1.7 5.1 1.1 1.4 3.2 2.2 4.7 1.2 1.3-.9 1.5-2.7 2.1-4.2.1-.3.2-.5.4-.7.4-.3.9-.2 1.3-.1 1.5.4 2.7 1.7 3.4 3.1.7 1.4.9 3 1.1 4.6.2 1.9.4 3.8.1 5.7-.3 1.9-1.2 3.7-2.7 4.8-1.4 1-3.1 1.4-4.8 1.6-2.5.4-5 .5-7.6.5-2.4-.1-4.7-.3-6.7-1.3z"/>
  <path fill="#BEBECE" d="M250.5 70.1c2.9 8.5 3.5 17.5 4 26.4.6 8.9-.5 18.5-4.1 25.8 4.6 3.6 19.1 7.4 22.4 4.6 2.8-3.2 4.1-8.6 4.8-13.7 1.8-13.2 1.3-25.7-1.6-38.7-1-4.6-3.1-5-5.2-4.9-7.8.4-20.3.5-20.3.5z"/>
  <path fill="#FFF" d="M279.1 69.3c-.2-1.8 1-2.5.9-4.3-.1-1.1-2.8-1.2-5.7-3.4-7.9.9-25.1.4-28.4.3-6.7-.2-6 .7-6.3 1.4-.5 1.1.2 6.4.8 7.5.7 1.1 2.1 1.2 3.2 1.3 8 .4 16.2.6 24.3.3 11.4-.6 11.4-.8 11.2-3.1z"/>
  <path fill="#454466" d="M261.3 64.8c-.2.4-.4 1-.4 1.5 0 1.6 1.4 2.8 3 2.8.5 0 1-.1 1.4-.4-.5.9-1.5 1.7-3 1.5-1.7-.2-2.6-1.3-2.7-2.8-.1-1.4 1.3-2.3 1.7-2.6zm-8.4 59c1.3-2 2-3.2 3-5.5.8-1.7 4.4-1 4.9-.9 2.6.5 5 1.2 7.9 1.9 4.9 1.2 3.1 3.5 2.8 4.3-.5 1-2 3.3-3.2 4.2-.6.5 3 .4 4.5-.8.8-.7 1.7-2 2.2-3 1.3-2.8 1.8-4.4-1.5-5.9-4-1.9-8.4-3-12.9-3.4-2-.2-7.3-1-7.8.9s-2.2 5.1-2.5 6.5c-.5.5 2.1 2.3 2.6 1.7z"/>
  <path fill="#454466" d="M259.3 126.3c1-.5 1.5-1.5 1.9-2.5.1-.2 0-.8 1.7-.3.9.2 1.2.4.5 2l-.6 1.2c-.6.9-.8.8-1.4.8-.5 0-.9-.1-1.4-.3-.5-.3-1.2-.7-.7-.9zm9.6-31.5c-.1-.9 0-.9-1.4-.9-.8 0-1.3 0-2.2.1-.4 0-1.2.1-1.1.6 0 .3.1 1.2.2 1.6.1.5.5.4 1.1.4 1-.1 2.5-.1 2.8-.2.8-.1.8-.1.8-.6-.2-.6-.2-1-.2-1zm-.1 9.2c0-.7.1-.7-1.3-.9-.8-.1-1.2-.2-2.2-.3-.4 0-1.2-.1-1.2.3 0 .2 0 .9.1 1.3 0 .4.5.4 1 .5 1 .1 2.4.2 2.8.2.8 0 .8 0 .9-.3-.1-.5-.1-.8-.1-.8zm-.7 7.7c0-.6.1-.5-1.3-.8-.8-.2-1.2-.3-2.2-.4-.3 0-1-.1-1.2.1-.1.2-.2.8-.1 1 .1.3.6.4 1.1.5 1 .2 2.4.4 2.7.4.7.1.8 0 .9-.3.1-.4.1-.5.1-.5z"/>
  <defs>
    <path id="a" d="M279.5 60.7c-1.5-.3-3.2-.7-4.5.2-.8.6-1.3 1.5-1.6 2.5-.3 1-.4 2-.7 2.9-.9 2.5-3.1 4.4-5.6 5.1-1.7.5-3.5.5-5.2.9-.4.1-.9.4-.8.8 0 .1.1.2.2.3.4.3.9.4 1.4.5 2.5.4 5.1.2 7.7.1 2.7-.2 5.4-.4 8-1 .9-.2 1.7-.5 2.4-1 1.1-.9 1.5-2.4 1.6-3.8.1-3.1-1.1-6.2-3.4-8.3"/>
  </defs>
  <clipPath id="b">
    <use xlink:href="#a" overflow="visible"/>
  </clipPath>
  <path fill="#454466" d="M281.3 69.6l-.5-4.5c-.1-1.1-.4-4.3-5-3.7-7.9 1-26.6.6-29.9.5-6.7-.2-6 .7-6.3 1.4-.5 1.1.2 6.4.8 7.5.7 1.1 2.1 1.2 3.2 1.3 8 .4 16.2.6 24.3.3 11.4-.6 13.6-.5 13.4-2.8z" clip-path="url(#b)"/>
  <path fill="#BEBECE" d="M286.3 67.6c22.4-.7 28.8 5 44.6 3.8 7.6-.5 34.4 2.1 42.3 2.8.5.1 1.1.1 1.5.5.4.4.4.9.4 1.4.7 9.4 1.3 15 .9 24.4-.5 10.2-2.3 20.3-4.1 30.3-1.1 6.2-2.3 12.5-4.4 18.4-3.8-1.8-38.6-10.3-42.8-11.2-8.9-1.9-36.1-3.8-41.8-6.6 1.9.7 8.9-17.4 8.4-32.9-.6-19.1-2.9-28.6-5-30.9z"/>
  <path fill="#454466" d="M697.1 64.7c-7.4-2.5-61.3-3.7-69.1-3.2-67.9 4.3-136.1 4.5-204.1.5-.5-.2-1-.2-1.5-.3-11.2-.8-49.5-3.6-60.3-2.5-22.5 2.2-31.7-5.6-63.7-3.8 1.6 1.6 3.2 5.7 4.7 12.9-.5 0-1-.1-1.4-.1.5 1.5 2.4 18.3.5 34.7-4.6-.2-8.4-.4-10.9-.4-.8 14.7-7.9 28.4-9.6 27.7-.2 2 6 3.4 13.9 4.4 2.1.4 4.1.7 5.9.9h.2c-2.2 7-4.6 11.5-5.8 11.1 8.2 3.7 47.1 5.5 59.8 7.8 5.9 1.1 55.8 11.9 61.3 14.3 0-.1.1-.3.1-.4 6.5 1.6 13.5 2.3 21.9 2.7 17.8 1 42.3 1.7 60.1.6 50.7-3.1 147.3 4.2 198 2.3V64.7z"/>
  <path fill="#BEBECE" d="M427.4 62.2c-.8 0-4.2-.4-5-.5-11.2-.8-49.5-3.6-60.3-2.5-22.5 2.2-31.7-5.6-63.7-3.8 2.3 2.4 8.3 16.3 8.1 39.9 2.4 1.5 39.7-10.3 56.6-9 2.2.2 15.1.5 15.1 6.2 0 4.4-7.9 5.2-7.4 10.1.5 4.4 10.5 5.9 12.4 5.9 42.4 1 202.1-7.7 186.1-29.2-3.9-5.3-2.7-14.4-8.8-14.4-60.6-.1-96-1.3-133.1-2.7z"/>
</svg>
