<svg xmlns="http://www.w3.org/2000/svg" x="0px" y="0px" xmlns:xlink="http://www.w3.org/1999/xlink" viewBox="0 0 1042.1 308.4">
  <path fill="#454466" d="M306.2 218.1c15.2.8 312.2-6.6 318-6.9 4.6-10.6-1-14.7 22.3-26.5s58.6-38.9 63.8-45.5c6.2 6.9 4.7 14.9-10.1 24.7s-24.1 18.8-22.3 24.2c3.6 11.1 36.4 31.8 57.4 22.4 32.6-14.6 71.2-25 78.6-11.6-4.5 5.1-47.8 19.1-59 26.3 33.4-3.8 83.7-21.2 114 1 .6.4.4 1.3-.3 1.5-16 2.8-57.5 8.3-66.3 11.2 23.5 5.6 56.9 17.3 58.3 34.2-7.4 5-76.3-16.3-120.9-19.2-25.5-1.7-95.6-1.1-136.2 6-60.5 10.5-150.7 19.7-284.7 37.7-150.6-2.6-294-24.1-315.5-37-6-3.6-12-48.6 65.5-63.5 77.9-15.1 237.4 21 237.4 21z"/>
  <path fill="#454466" d="M260.5 209c3.7-5.5 13.9-12.3 14.7-12.2 5.6.7 4.5 26.3 3.4 38.8-.9 9.7-1.2 19.4-1.9 29.1-1.2 16.8-10.7 39.2-16.6 41.2-1.5.5-5.4-2-6.4-3.6-8.2-13.6-12.3-29.7-11.7-45.5.2-5 .8-9.9 1.5-14.8.8-5.7 1.7-11.7 5.2-16.2 1.3-1.7 2.9-3.1 4.1-4.8 2.6-3.3 4-7.5 7-10.6"/>
  <path fill="#FFF" d="M701.6 166.2c-14.9 9.8-21 15-19 23.3 2.6 10.9 29.4 27.7 50.1 22-33.7 12.3-50.6 1.2-80.6-.3-14-.7-21.7 4.8-25.6 8.6-2.2 2.1-5.1 3.3-8.1 3.4-16.7.7-56.9 2.6-56.9 2.6l-6.3-12.7c15.9.4 60.6-4.3 66.4-4.6 4.6-10.6-.1-13.5 23.2-25.4 23.3-11.8 62.4-42 67.7-48.6 6.3 6.8 4 21.9-10.9 31.7z"/>
  <defs>
    <path id="a" d="M306.2 218.1c15.2.8 312.2-6.6 318-6.9 4.6-10.6-1-14.7 22.3-26.5s58.6-38.9 63.8-45.5c6.2 6.9 4.7 14.9-10.1 24.7s-24.1 18.8-22.3 24.2c3.6 11.1 36.4 31.8 57.4 22.4 32.6-14.6 71.2-25 78.6-11.6-4.5 5.1-47.8 19.1-59 26.3 33.4-3.8 83.7-21.2 114 1 .6.4.4 1.3-.3 1.5-16 2.8-57.5 8.3-66.3 11.2 23.5 5.6 56.9 17.3 58.3 34.2-7.4 5-76.3-16.3-120.9-19.2-25.5-1.7-95.6-1.1-136.2 6-140.9 24.5-563-11.5-600.2.7-10.9 3.6 173.4-56.4 249.2-51.8 17 1 53.7 9.3 53.7 9.3z"/>
  </defs>
  <clipPath id="b">
    <use xlink:href="#a" overflow="visible"/>
  </clipPath>
  <path fill="#FFF" d="M517.8 171.7c-18.4-.5-36.8.6-55.1 1.7-9.3.6-18.7 1.1-27.8 3.2-12.9 3-25 9-36.2 16.2-8.8 5.8-4.7 13.7-15.2 13.7-13 0-178.4-19.4-178.8-14.9-.5 7.2 27.7 38.9 54.2 44.3 5.1 1 75 4.6 129.3 8.3 30.5 2.1 52.2 3.3 80.8-4 27.3-7 56.1-15 84.3-14.6 8.1.1 16.9.9 23.4-3.9 7.9-5.7 8.9-17.8 4.3-26.3-4.6-8.5-13.5-14-22.6-17.3-12.9-4.7-26.8-6-40.6-6.4z" clip-path="url(#b)"/>
  <path fill="#BEBECE" d="M275.2 196.8c-37.7-8.9-50.3-1.5-76.7-8.9-12.7-3.5-88.4-11.2-101.9-12.7-6.1-.7-15.2 29.6-17.7 45.7-2.7 17.4-6 33.2-6.3 50.8-.2 10.9-2.8 25-1.3 35.8 7.1-1.7 96.3-4.1 114.7-4.5 15.7-.4 62.4 5.9 72.9 3.3-3.4.6-9.2-32.4-2.9-58.5 7.7-32.7 14.8-47.9 19.2-51z"/>
  <path fill="#454466" d="M76.7 234.1c-7.9 0-5 29.6-5.2 37.5-.2 10.9-2.8 26-1.3 36.8 7.1-1.7 108.5-5.5 115.7-5.5 15.7-.2 74.8 9.3 75.5 1.4-3.1.5-10.4-25.1-6.7-50.2-26.4-5-168.5-20-178-20zm187.8 2.4c9.2.9 36.9 3.5 40.3-4.3 1.5-3.6-.8-7 .5-7 3.7 0 7.8 13.6 30.1 16.1 5.9.7-14.7.7-14 2.9.1.4-41-2.9-41.6-3.9-1.2-.9-15.3-3.8-15.3-3.8z"/>
  <path fill="none" stroke="#454466" stroke-width="1.5" stroke-miterlimit="10" d="M780.7 21.2c.2-5.5 3.9-16.8 13.6-16.4 7.3.3 12.5 11.7 7.9 12-6.6.4 4.2-18.6 15.8-13.6 10.7 4.6 5.4 22.6 1.2 19.5-3.2-2.4 3.7-9.4 11.6-2.5 4.5 3.9 4.1 8.3 3.2 12.5"/>
  <path fill="#454466" d="M939 240.2l-226.4-9c-13.8-.6-24.5-12.2-24-26l.7-16.8c.6-13.8 26.8-62.5 40.6-61.9l120.8 27.1c13.8.6 115.3 37 114.8 50.8l-.5 11.9c-.6 13.7-12.2 24.4-26 23.9z"/>
  <path fill="#FFF" d="M784.4 25.3c.1-2.1-1.6-3.9-3.7-4-2.1-.1-3.9 1.6-4 3.7"/>
  <path fill="#454466" d="M784.2 23.8c-.5-1.5-1.9-2.5-3.5-2.6 1.2.7 1.6 1.7 1.7 2.5"/>
  <path fill="#FFF" d="M825.77800348 34.29145337l60.55152 2.42013614-.11182147 2.79776-60.55152-2.4201361z"/>
  <path fill="#454466" d="M886.2 39.5l-8.9-.3-6.9-3.1 15.9.6m-15.95805974 2.16748967l1.59872.063898-.0838661 2.09832-1.59872-.063898zM837.54139738 37.569721l1.59872.06389798-.0838661 2.09832-1.59872-.06389798z"/>
  <path fill="#FFF" d="M939.3 231.9l-226.4-9c-13.8-.6-24.5-12.2-24-26l5-125.4c.6-13.8 12.2-24.5 26-24l226.4 9c13.8.6 24.5 12.2 24 26l-5 125.4c-.6 13.8-12.2 24.6-26 24z"/>
  <path fill="#BEBECE" d="M884.07923638 87.2335118l59.952 2.3961744-3.11502672 77.9376-59.952-2.3961744z"/>
  <path fill="#454466" d="M855.8 111.8l-6.4-.3c-.6 0-1.2-.3-1.7-.8l-4.2-5.2 2.4-15.8 6.5-3.5 5 4.8c.3.4.5.9.5 1.4l-.7 18.2c-.1.7-.7 1.2-1.4 1.2z"/>
  <path fill="#BEBECE" d="M850.9 106.2l-6.7-.3c-.6 0-1-.5-1-1l.7-18.3c0-.6.5-1 1-1l6.7.3c.6 0 1 .5 1 1l-.7 18.3c.1.6-.4 1-1 1z"/>
  <path fill="#454466" d="M854.6 141.5l-6.4-.3c-.6 0-1.2-.3-1.7-.8l-4.2-5.2 2.4-15.8 6.5-3.5 5 4.8c.3.4.5.9.5 1.4l-.7 18.2c-.1.7-.7 1.2-1.4 1.2z"/>
  <path fill="#BEBECE" d="M849.8 135.9l-6.7-.3c-.6 0-1-.5-1-1l.7-18.3c0-.6.5-1 1-1l6.7.3c.6 0 1 .5 1 1l-.7 18.3c0 .6-.5 1-1 1z"/>
  <path fill="#454466" d="M853.5 169.5l-6.4-.3c-.6 0-1.2-.3-1.7-.8l-4.2-5.2 2.4-15.8 6.5-3.5 5 4.8c.3.4.5.9.5 1.4l-.7 18.2c-.1.7-.7 1.2-1.4 1.2z"/>
  <path fill="#BEBECE" d="M848.6 163.9l-6.7-.3c-.6 0-1-.5-1-1l.7-18.3c0-.6.5-1 1-1l6.7.3c.6 0 1 .5 1 1l-.7 18.3c.1.6-.4 1-1 1zm31.77985593 15.20233207l59.952 2.3961744-.11980872 2.9976-59.952-2.3961744zm-.69786683 18.40142463l59.952 2.3961744-.1198087 2.9976-59.952-2.3961744z"/>
  <path fill="#454466" d="M894.0505 203.02471l7.348-6.783 10.37799 11.24244-7.348 6.783z"/>
  <g fill="#BEBECE">
    <circle cx="717.6" cy="56.2" r="1.5"/>
    <circle cx="702" cy="71.6" r="1.5"/>
    <circle cx="962.1" cy="81" r="1.5"/>
    <circle cx="945.6" cy="66.3" r="1.5"/>
    <circle cx="941.3" cy="225.2" r="1.5"/>
    <circle cx="956.9" cy="209.9" r="1.5"/>
    <circle cx="696.8" cy="200.5" r="1.5"/>
    <circle cx="713.3" cy="215.1" r="1.5"/>
  </g>
  <path fill="#454466" d="M925.45196 185.81883l7.348-6.783 10.37799 11.24244-7.348 6.783z"/>
  <circle cx="939.6" cy="193.8" r="5" fill="#454466"/>
  <circle cx="929.2" cy="182.5" r="5" fill="#FFF"/>
  <circle cx="897.8" cy="199.7" r="5" fill="#FFF"/>
  <circle cx="897.8" cy="199.7" r="2.4" fill="#454466"/>
  <circle cx="929.2" cy="182.5" r="2.4" fill="#454466"/>
  <circle cx="908.2" cy="211" r="5" fill="#454466"/>
  <path fill="#FFF" d="M940.9 44.8l-5.9-.2c-1.5-.1-2.9 1.1-2.9 2.7l-.3 8.7 11.5.5.3-8.7c.1-1.6-1.1-2.9-2.7-3z"/>
  <path fill="#454466" d="M940.9 44.8l-3.5-.1c1.5.1 2.8 1.4 2.7 2.9l-.3 8.7 3.5.1.3-8.7c.1-1.5-1.1-2.8-2.7-2.9z"/>
  <path fill="#FFF" d="M981.4 94.1l.2-5.9c.1-1.5-1.1-2.9-2.7-2.9l-8.7-.3-.5 11.5 8.7.3c1.6 0 2.9-1.2 3-2.7z"/>
  <path fill="#454466" d="M978.7 91.1l-8.7-.3-.2 5.7 8.7.3c1.5.1 2.9-1.1 2.9-2.7l.2-5.7c-.1 1.5-1.4 2.8-2.9 2.7z"/>
  <path fill="#BEBECE" d="M923.3 55.6l-103.8-4.1c-1.1 0-2-1-1.9-2.1l.3-8.5c0-1.1 1-2 2.1-1.9l103.8 4.1c1.1 0 2 1 1.9 2.1l-.3 8.5c-.1 1.1-1 2-2.1 1.9zm-111.4-4.4L708.1 47c-1.1 0-2-1-1.9-2.1l.9-22.2c0-1.1 1-2 2.1-1.9L812.9 25c1.1 0 2 1 1.9 2.1l-.8 22.2c-.1 1.1-1 1.9-2.1 1.9z"/>
  <path fill="#454466" d="M763.1 25.7l-.5 12.4-16.3-.7 10 11.6 24.9 1"/>
  <path fill="#FFF" d="M767.8289824 25.91451058l39.76816 1.58946235-.8306738 20.78336-39.76816-1.58946235z"/>
  <path fill="#454466" d="M814 49.3l.5-12.9-6.9-8.8-.8 20.8-39.8-1.7 2.8 2.8 42.1 1.7c1.1 0 2-.8 2.1-1.9z"/>
  <path fill="#FFF" d="M746.7516195 25.07778316l16.38688.65495434-.49520937 12.39008-16.38688-.65495434zm114.3874497 18.83271948l54.65624 2.18451233-.23961744 5.9952-54.65624-2.18451233z"/>
  <path fill="#454466" d="M924.2 55.5l-8.4-9.4-.2 6-54.6-2.2 3.3 3.4 59.1 2.4c.2-.1.5-.1.8-.2z"/>
  <path fill="none" stroke="#454466" stroke-width="3" stroke-miterlimit="10" d="M938 44.7c.9-22 12-44.8 29-43.1 16.9 1.7 15.7 26.2 7.3 24.8-6.8-1.1 2.4-30.8 25.4-23 19 6.5 1.4 40.7-6.8 32-9.2-9.8 38-30.3 46.6-7.4s-37.1 37.2-36.1 26.5c.9-10.3 28.8-5.2 22.1 11.5-6.7 16.7-32.9 15.2-29.3 8.1 3.5-7.1 18 .5 11.4 8.5s-20.3 8.8-26.1 8.6"/>
  <path fill="#454466" d="M933.57299585 47.28854642l.69944.02795536-.3514389 8.79296-.69944-.02795536zm1.99910637.10129248l.69944.02795536-.3514389 8.79296-.69944-.02795536zm1.99910638.10129248l.69944.02795536-.3514389 8.79296-.69944-.02795536zm1.90318-.00262115l.69944.02795537-.3514389 8.79296-.69944-.02795537zm1.99910638.10129247l.69944.02795538-.35143892 8.79296-.69944-.02795537zM978.851315 86.6905002l-.02795538.69944-8.79296-.3514389.02795537-.69944zm-.01068638 1.94860114l-.02795537.69944-8.79296-.3514389.02795537-.69944zm-.11050638 1.94440752l-.02795537.69944-8.79296-.3514389.02795537-.69944zm-.11060638 1.94460752l-.02795536.69944-8.79296-.3514389.02795536-.69944zm-.01458 2.04842115l-.02795536.69944-8.79296-.3514389.02795536-.69944z"/>
  <path fill="#BEBECE" d="M739.222669 174.6107541l59.952 2.3961744-.7987248 19.984-59.952-2.3961744z"/>
  <text fill="#FFF" transform="rotate(2.292 -4302.68 18728.066)" font-family="'Monaco'" font-size="8px">
    09.06.2017
  </text>
  <path fill="#BEBECE" stroke="#454466" stroke-width="3" stroke-miterlimit="10" d="M818.5 176.3l-99-4c-5.3-.2-9.4-4.7-9.2-10l3.4-86c.2-5.3 4.7-9.4 10-9.2l99 4c5.3.2 9.4 4.7 9.2 10l-3.4 86c-.2 5.3-4.7 9.5-10 9.2z"/>
  <path fill="#FFF" d="M735.75148256 5.82990452l8.79296.3514389-.50319662 12.58992-8.79296-.3514389z"/>
  <path fill="#FFF" d="M738.07137956 18.43904512l3.09752.12380234-.13977684 3.4972-3.09752-.12380234z"/>
  <path fill="#454466" d="M741.2 18.6s-2.1-.1-3.1-.1c1.3.9 1.5 3.6 1.5 3.6l1.5.1.1-3.6zM740.1 6l-.1 3.1c.7 0 1.3.6 1.2 1.3 0 .7-.6 1.3-1.3 1.2v1.2c.7 0 1.3.6 1.2 1.3 0 .7-.6 1.3-1.3 1.2l-.1 3.1 4.4.2.5-12.6h-4.5z"/>
  <path fill="#FFF" d="M757.25383357 6.62879368l8.79296.3514389-.50319663 12.58992-8.79296-.3514389zm2.41592337 12.71295422l3.09752.12380235-.13977684 3.4972-3.09752-.12380235z"/>
  <path fill="#454466" d="M762.7 19.5s-2.1-.1-3.1-.1c1.3.9 1.5 3.6 1.5 3.6l1.5.1.1-3.6zm-1-12.7l-.1 3.1c.7 0 1.3.6 1.2 1.3s-.6 1.3-1.3 1.2v1.2c.7 0 1.3.6 1.2 1.3 0 .7-.6 1.3-1.3 1.2l-.1 3.1 4.4.2.4-12.4-4.4-.2z"/>
  <path fill="#FFF" d="M846.45277662 23.9293663l8.79296.3514389-.50319663 12.58992-8.79296-.3514389zM848.76878 36.6383269l3.09752.12380233-.13977685 3.4972-3.09752-.12380234z"/>
  <path fill="#454466" d="M851.9 36.7s-2.1-.1-3.1-.1c1.3.9 1.5 3.6 1.5 3.6l1.5.1.1-3.6zm-1.1-12.6l-.1 3.1c.7 0 1.3.6 1.2 1.3 0 .7-.6 1.3-1.3 1.2v1.2c.7 0 1.3.6 1.2 1.3 0 .7-.6 1.3-1.3 1.2l-.1 3.1 4.4.2.5-12.6h-4.5z"/>
  <path fill="#FFF" d="M894.75385776 25.82956668l8.79296.3514389-.50319662 12.58992-8.79296-.3514389zm2.31600338 12.7090606l3.09752.12380234-.13977684 3.4972-3.09752-.12380234z"/>
  <path fill="#454466" d="M900.2 38.7s-2.1-.1-3.1-.1c1.3.9 1.5 3.6 1.5 3.6l1.5.1.1-3.6zM899.1 26l-.1 3.1c.7 0 1.3.6 1.2 1.3 0 .7-.6 1.3-1.3 1.2v1.2c.7 0 1.3.6 1.2 1.3 0 .7-.6 1.3-1.3 1.2l-.1 3.1 4.4.2.5-12.6h-4.5z"/>
  <path fill="#FFF" d="M838 36.2c.1-2.1-1.6-3.9-3.7-4-2.1-.1-3.9 1.6-4 3.7"/>
  <path fill="#454466" d="M837.8 34.7c-.5-1.5-1.9-2.5-3.5-2.6 1.2.7 1.6 1.7 1.7 2.5m-115.3-8.1l-7.2 6.6 7.6 8.2-2 1.9 4.1 4.4 17.6.7"/>
  <circle cx="717.2" cy="29.9" r="4.9" fill="#FFF"/>
  <circle cx="717.2" cy="29.9" r="2.1" fill="#454466"/>
  <circle cx="720.7" cy="41.5" r="2.4" fill="#FFF"/>
  <circle cx="720.7" cy="41.5" r="1.2" fill="#454466"/>
  <path fill="#454466" d="M835 44.3l-3.4 3.2 4.2 4.6 6.7.3"/>
  <circle cx="833.4" cy="46" r="2.4" fill="#FFF"/>
  <circle cx="833.4" cy="46" r="1.2" fill="#454466"/>
  <path fill="none" stroke="#FFF" stroke-width="0.75" stroke-miterlimit="10" d="M737.7 69.3l-4.1 102m27.7-101l-4 102M785 71.2l-4.1 102m27.7-101l-4 102"/>
  <circle cx="771.1" cy="121.7" r="5.1" fill="none" stroke="#FFF" stroke-width="0.75" stroke-miterlimit="10"/>
  <circle cx="747.8" cy="120.8" r="5.1" fill="none" stroke="#FFF" stroke-width="0.75" stroke-miterlimit="10"/>
  <circle cx="724.3" cy="119.9" r="5.1" fill="none" stroke="#FFF" stroke-width="0.75" stroke-miterlimit="10"/>
  <circle cx="794.6" cy="122.7" r="5.1" fill="none" stroke="#FFF" stroke-width="0.75" stroke-miterlimit="10"/>
  <circle cx="818.1" cy="123.6" r="5.1" fill="none" stroke="#FFF" stroke-width="0.75" stroke-miterlimit="10"/>
  <path fill="#454466" d="M735.6 211.1c32.8-14 71.2-25 78.6-11.6-4.5 5.1-47.8 19.1-59 26.3 33.4-3.8 83.7-21.2 114 1 .6.4.4 1.3-.3 1.5-16 2.8-57.5 8.3-66.3 11.2 23.5 5.6 56.9 17.3 58.3 34.2-7.4 5-76.3-16.3-120.9-19.2-25.5-1.7-73.4-44.7-113-33.2-20.5 5.9 85-.1 108.6-10.2z"/>
</svg>
