<svg xmlns="http://www.w3.org/2000/svg" id="Main_v1" x="0px" y="0px" xmlns:xlink="http://www.w3.org/1999/xlink" viewBox="-700.5 636.3 697.6 174.7">
  <style>
    .st0{fill:#454466;} .st1{fill:#FFFFFF;stroke:#454466;stroke-miterlimit:10;} .st2{fill:#BEBECE;} .st3{fill:#FFFFFF;} .st4{clip-path:url(#SVGID_2_);fill:#454466;}
  </style>
  <path d="M-391.3 704c-2.3-5-9.7-11.8-10.3-11.8-4.7-.2-7.1 20.7-7.8 31-.6 8-1.6 15.9-2.3 23.8-1.2 13.8 3.2 34.1 7.7 36.5 1.1.6 5-1.8 6.1-3 8.4-10 13.8-22.4 15.5-35.4.5-4 .6-8.1.7-12.2.1-4.7.1-9.7-2.1-13.8-.8-1.5-1.9-2.9-2.7-4.4-1.7-3-2.3-6.6-4.3-9.5" class="st0"/>
  <path d="M-406.7 712.9c-1.5-3.5-6.6-8.4-7-8.5-3.3-.2-5.3 14.4-6 21.6-.5 5.6-1.4 11.1-2 16.7-1.1 9.6 1.6 24 4.7 25.7.8.5 3.5-1.2 4.3-2 6.1-6.9 10.1-15.5 11.5-24.5.4-2.8.6-5.7.7-8.5.2-3.3.2-6.8-1.2-9.7-.5-1.1-1.3-2.1-1.8-3.2-1.1-2.2-1.5-4.7-2.8-6.7" class="st0"/>
  <path d="M-319.1 707.5c-39 3.3-93.2-.3-114.5.8-41.1 2.2-109.6-17.6-134-25.1-42.8-13-105.1-49.4-113.4-46.2-2.5 16.8 27.4 35.7 48.9 46.6-9.2.8-50.9-3.3-67.1-4.2-.7-.1-1.1.8-.6 1.3 24.5 28.5 77.5 23 110.9 26.9-12.5 4.6-57.9 8.3-63.4 12.3 4.1 14.7 44 13.3 79.1 6.5 1.9-.4 3.9-.6 6-.6 33.2-3 47.2 10.9 75.1 18.9 19 5.5 28.4-3.9 30.6-4.9 9.5 1.6 64.4 12.6 64.4 12.6l-3.4 14.5c34.2 8.7 70.8 18.1 78.4 20.3 0 0 16.8-80.8 3-79.7z" class="st1"/>
  <path d="M-461.5 739.8c9.5 1.6 64.4 12.6 64.4 12.6l-3.8 16.4c-15.3-4-56.6-13.5-62.3-14.5" class="st0"/>
  <path d="M-447.7 757.2c-.3.8-.8 1.5-1.5 2-.1.1 0 .6-.2.5-.2-.1-.6-.6-.7-.7-.4-.7-.3-1.7-.3-2.6.4-.1.9.2 1.3.4s.7.3 1.1.4m24.7.3c-2.8-1.4-4.5-4.3-5.4-7.3s-1.1-6.1-1.4-9.2c-1-9.7-3.8-19.5-1.6-29 .2-.7.4-1.5.8-2.1.5-.7 1.3-1.2 2.1-1.6 1.2-.7 2.4-1.3 3.6-1.9.6-.3 1.2-.6 1.9-.4.5.2.9.6 1.2 1.1 1.6 2.6 2.1 5.8 2.6 8.8 1.1 7.1 2.1 14.2 3.2 21.3.3 1.8.6 3.6 1.7 5.1 1.1 1.4 3.2 2.2 4.7 1.2 1.3-.9 1.5-2.7 2.1-4.2.1-.3.2-.5.4-.7.4-.3.9-.2 1.3-.1 1.5.4 2.7 1.7 3.4 3.1.7 1.4.9 3 1.1 4.6.2 1.9.4 3.8.1 5.7-.3 1.9-1.2 3.7-2.7 4.8-1.4 1-3.1 1.4-4.8 1.6-2.5.4-5 .5-7.6.5-2.4-.1-4.7-.3-6.7-1.3z" class="st0"/>
  <path d="M-449.5 706.9c2.9 8.5 3.5 17.5 4 26.4.6 8.9-.5 18.5-4.1 25.8 4.6 3.6 19.1 7.4 22.4 4.6 2.8-3.2 4.1-8.6 4.8-13.7 1.8-13.2 1.3-25.7-1.6-38.7-1-4.6-3.1-5-5.2-4.9-7.8.4-20.3.5-20.3.5z" class="st2"/>
  <path d="M-420.9 706.1c-.2-1.8 1-2.5.9-4.3-.1-1.1-2.8-1.2-5.7-3.4-7.9.9-25.1.4-28.4.3-6.7-.2-6 .7-6.3 1.4-.5 1.1.2 6.4.8 7.5.7 1.1 2.1 1.2 3.2 1.3 8 .4 16.2.6 24.3.3 11.4-.6 11.4-.8 11.2-3.1z" class="st3"/>
  <path d="M-438.7 701.6c-.2.4-.4 1-.4 1.5 0 1.6 1.4 2.8 3 2.8.5 0 1-.1 1.4-.4-.5.9-1.5 1.7-3 1.5-1.7-.2-2.6-1.3-2.7-2.8-.1-1.4 1.3-2.3 1.7-2.6zm-8.4 59c1.3-2 2-3.2 3-5.5.8-1.7 4.4-1 4.9-.9 2.6.5 5 1.2 7.9 1.9 4.9 1.2 3.1 3.5 2.8 4.3-.5 1-2 3.3-3.2 4.2-.6.5 3 .4 4.5-.8.8-.7 1.7-2 2.2-3 1.3-2.8 1.8-4.4-1.5-5.9-4-1.9-8.4-3-12.9-3.4-2-.2-7.3-1-7.8.9s-2.2 5.1-2.5 6.5c-.5.5 2.1 2.3 2.6 1.7z" class="st0"/>
  <path d="M-440.7 763.1c1-.5 1.5-1.5 1.9-2.5.1-.2 0-.8 1.7-.3.9.2 1.2.4.5 2l-.6 1.2c-.6.9-.8.8-1.4.8-.5 0-.9-.1-1.4-.3-.5-.3-1.2-.7-.7-.9zm9.6-31.5c-.1-.9 0-.9-1.4-.9-.8 0-1.3 0-2.2.1-.4 0-1.2.1-1.1.6 0 .3.1 1.2.2 1.6.1.5.5.4 1.1.4 1-.1 2.5-.1 2.8-.2.8-.1.8-.1.8-.6-.2-.6-.2-1-.2-1zm-.1 9.2c0-.7.1-.7-1.3-.9-.8-.1-1.2-.2-2.2-.3-.4 0-1.2-.1-1.2.3 0 .2 0 .9.1 1.3 0 .4.5.4 1 .5 1 .1 2.4.2 2.8.2.8 0 .8 0 .9-.3-.1-.5-.1-.8-.1-.8zm-.7 7.7c0-.6.1-.5-1.3-.8-.8-.2-1.2-.3-2.2-.4-.3 0-1-.1-1.2.1-.1.2-.2.8-.1 1 .1.3.6.4 1.1.5 1 .2 2.4.4 2.7.4.7.1.8 0 .9-.3.1-.4.1-.5.1-.5z" class="st0"/>
  <defs>
    <path id="SVGID_1_" d="M-420.5 697.5c-1.5-.3-3.2-.7-4.5.2-.8.6-1.3 1.5-1.6 2.5-.3 1-.4 2-.7 2.9-.9 2.5-3.1 4.4-5.6 5.1-1.7.5-3.5.5-5.2.9-.4.1-.9.4-.8.8 0 .1.1.2.2.3.4.3.9.4 1.4.5 2.5.4 5.1.2 7.7.1 2.7-.2 5.4-.4 8-1 .9-.2 1.7-.5 2.4-1 1.1-.9 1.5-2.4 1.6-3.8.1-3.1-1.1-6.2-3.4-8.3"/>
  </defs>
  <clipPath id="SVGID_2_">
    <use xlink:href="#SVGID_1_" overflow="visible"/>
  </clipPath>
  <path d="M-418.7 706.4l-.5-4.5c-.1-1.1-.4-4.3-5-3.7-7.9 1-26.6.6-29.9.5-6.7-.2-6 .7-6.3 1.4-.5 1.1.2 6.4.8 7.5.7 1.1 2.1 1.2 3.2 1.3 8 .4 16.2.6 24.3.3 11.4-.6 13.6-.5 13.4-2.8z" class="st4"/>
  <path d="M-413.7 704.4c22.4-.7 28.8 5 44.6 3.8 7.6-.5 34.4 2.1 42.3 2.8.5.1 1.1.1 1.5.5.4.4.4.9.4 1.4.7 9.4 1.3 15 .9 24.4-.5 10.2-2.3 20.3-4.1 30.3-1.1 6.2-2.3 12.5-4.4 18.4-3.8-1.8-38.6-10.3-42.8-11.2-8.9-1.9-36.1-3.8-41.8-6.6 1.9.7 8.9-17.4 8.4-32.9-.6-19.1-2.9-28.6-5-30.9z" class="st2"/>
  <path d="M-2.9 701.5c-7.4-2.5-61.3-3.7-69.1-3.2-67.9 4.3-136.1 4.5-204.1.5-.5-.2-1-.2-1.5-.3-11.2-.8-49.5-3.6-60.3-2.5-22.5 2.2-31.7-5.6-63.7-3.8 1.6 1.6 3.2 5.7 4.7 12.9-.5 0-1-.1-1.4-.1.5 1.5 2.4 18.3.5 34.7-4.6-.2-8.4-.4-10.9-.4-.8 14.7-7.9 28.4-9.6 27.7-.2 2 6 3.4 13.9 4.4 2.1.4 4.1.7 5.9.9h.2c-2.2 7-4.6 11.5-5.8 11.1 8.2 3.7 47.1 5.5 59.8 7.8 5.9 1.1 55.8 11.9 61.3 14.3 0-.1.1-.3.1-.4 6.5 1.6 13.5 2.3 21.9 2.7 17.8 1 42.3 1.7 60.1.6 50.7-3.1 147.3 4.2 198 2.3V701.5z" class="st0"/>
  <path d="M-272.6 699c-.8 0-4.2-.4-5-.5-11.2-.8-49.5-3.6-60.3-2.5-22.5 2.2-31.7-5.6-63.7-3.8 2.3 2.4 8.3 16.3 8.1 39.9 2.4 1.5 39.7-10.3 56.6-9 2.2.2 15.1.5 15.1 6.2 0 4.4-7.9 5.2-7.4 10.1.5 4.4 10.5 5.9 12.4 5.9 42.4 1 202.1-7.7 186.1-29.2-3.9-5.3-2.7-14.4-8.8-14.4-60.6-.1-96-1.3-133.1-2.7z" class="st2"/>
</svg>
