<?xml version="1.0" encoding="utf-8"?>
<!-- Generator: Adobe Illustrator 19.0.1, SVG Export Plug-In . SVG Version: 6.00 Build 0)  -->
<svg version="1.1" xmlns="http://www.w3.org/2000/svg" xmlns:xlink="http://www.w3.org/1999/xlink" x="0px" y="0px"
	 viewBox="0 0 1042.1 308.4" enable-background="new 0 0 1042.1 308.4" xml:space="preserve">
<g id="Calque_9">
	<path fill="#454466" d="M306.2,218.1c15.2,0.8,312.2-6.6,318-6.9c4.6-10.6-1-14.7,22.3-26.5c23.3-11.8,58.6-38.9,63.8-45.5
		c6.2,6.9,4.7,14.9-10.1,24.7s-24.1,18.8-22.3,24.2c3.6,11.1,36.4,31.8,57.4,22.4c32.6-14.6,71.2-25,78.6-11.6
		c-4.5,5.1-47.8,19.1-59,26.3c33.4-3.8,83.7-21.2,114,1c0.6,0.4,0.4,1.3-0.3,1.5c-16,2.8-57.5,8.3-66.3,11.2
		c23.5,5.6,56.9,17.3,58.3,34.2c-7.4,5-76.3-16.3-120.9-19.2c-25.5-1.7-95.6-1.1-136.2,6c-60.5,10.5-150.7,19.7-284.7,37.7
		c-150.6-2.6-294-24.1-315.5-37c-6-3.6-12-48.6,65.5-63.5C146.7,182,306.2,218.1,306.2,218.1z"/>
	<path fill="#454466" d="M260.5,209c3.7-5.5,13.9-12.3,14.7-12.2c5.6,0.7,4.5,26.3,3.4,38.8c-0.9,9.7-1.2,19.4-1.9,29.1
		c-1.2,16.8-10.7,39.2-16.6,41.2c-1.5,0.5-5.4-2-6.4-3.6c-8.2-13.6-12.3-29.7-11.7-45.5c0.2-5,0.8-9.9,1.5-14.8
		c0.8-5.7,1.7-11.7,5.2-16.2c1.3-1.7,2.9-3.1,4.1-4.8c2.6-3.3,4-7.5,7-10.6"/>
	<g>
		<g>
			<g>
				<path fill="#FFFFFF" d="M701.6,166.2c-14.9,9.8-21,15-19,23.3c2.6,10.9,29.4,27.7,50.1,22c-33.7,12.3-50.6,1.2-80.6-0.3
					c-14-0.7-21.7,4.8-25.6,8.6c-2.2,2.1-5.1,3.3-8.1,3.4c-16.7,0.7-56.9,2.6-56.9,2.6l-6.3-12.7c15.9,0.4,60.6-4.3,66.4-4.6
					c4.6-10.6-0.1-13.5,23.2-25.4c23.3-11.8,62.4-42,67.7-48.6C718.8,141.3,716.5,156.4,701.6,166.2z"/>
			</g>
		</g>
	</g>
	<g>
		<defs>
			<path id="SVGID_1_" d="M306.2,218.1c15.2,0.8,312.2-6.6,318-6.9c4.6-10.6-1-14.7,22.3-26.5c23.3-11.8,58.6-38.9,63.8-45.5
				c6.2,6.9,4.7,14.9-10.1,24.7s-24.1,18.8-22.3,24.2c3.6,11.1,36.4,31.8,57.4,22.4c32.6-14.6,71.2-25,78.6-11.6
				c-4.5,5.1-47.8,19.1-59,26.3c33.4-3.8,83.7-21.2,114,1c0.6,0.4,0.4,1.3-0.3,1.5c-16,2.8-57.5,8.3-66.3,11.2
				c23.5,5.6,56.9,17.3,58.3,34.2c-7.4,5-76.3-16.3-120.9-19.2c-25.5-1.7-95.6-1.1-136.2,6c-140.9,24.5-563-11.5-600.2,0.7
				c-10.9,3.6,173.4-56.4,249.2-51.8C269.5,209.8,306.2,218.1,306.2,218.1z"/>
		</defs>
		<clipPath id="SVGID_2_">
			<use xlink:href="#SVGID_1_"  overflow="visible"/>
		</clipPath>
		<path clip-path="url(#SVGID_2_)" fill="#FFFFFF" d="M517.8,171.7c-18.4-0.5-36.8,0.6-55.1,1.7c-9.3,0.6-18.7,1.1-27.8,3.2
			c-12.9,3-25,9-36.2,16.2c-8.8,5.8-4.7,13.7-15.2,13.7c-13,0-178.4-19.4-178.8-14.9c-0.5,7.2,27.7,38.9,54.2,44.3
			c5.1,1,75,4.6,129.3,8.3c30.5,2.1,52.2,3.3,80.8-4c27.3-7,56.1-15,84.3-14.6c8.1,0.1,16.9,0.9,23.4-3.9c7.9-5.7,8.9-17.8,4.3-26.3
			c-4.6-8.5-13.5-14-22.6-17.3C545.5,173.4,531.6,172.1,517.8,171.7z"/>
	</g>
	<g>
		<path fill="#BEBECE" d="M275.2,196.8c-37.7-8.9-50.3-1.5-76.7-8.9c-12.7-3.5-88.4-11.2-101.9-12.7c-6.1-0.7-15.2,29.6-17.7,45.7
			c-2.7,17.4-6,33.2-6.3,50.8c-0.2,10.9-2.8,25-1.3,35.8c7.1-1.7,96.3-4.1,114.7-4.5c15.7-0.4,62.4,5.9,72.9,3.3
			c-3.4,0.6-9.2-32.4-2.9-58.5C263.7,215.1,270.8,199.9,275.2,196.8z"/>
		<path fill="#454466" d="M76.7,234.1c-7.9,0-5,29.6-5.2,37.5c-0.2,10.9-2.8,26-1.3,36.8c7.1-1.7,108.5-5.5,115.7-5.5
			c15.7-0.2,74.8,9.3,75.5,1.4c-3.1,0.5-10.4-25.1-6.7-50.2C228.3,249.1,86.2,234.1,76.7,234.1z"/>
	</g>
	<path fill="#454466" d="M264.5,236.5c9.2,0.9,36.9,3.5,40.3-4.3c1.5-3.6-0.8-7,0.5-7c3.7,0,7.8,13.6,30.1,16.1
		c5.9,0.7-14.7,0.7-14,2.9c0.1,0.4-41-2.9-41.6-3.9C278.6,239.4,264.5,236.5,264.5,236.5z"/>
</g>
<g id="Machine">
	<g>
		<path fill="none" stroke="#454466" stroke-width="1.5" stroke-miterlimit="10" d="M780.7,21.2c0.2-5.5,3.9-16.8,13.6-16.4
			c7.3,0.3,12.5,11.7,7.9,12c-6.6,0.4,4.2-18.6,15.8-13.6c10.7,4.6,5.4,22.6,1.2,19.5c-3.2-2.4,3.7-9.4,11.6-2.5
			c4.5,3.9,4.1,8.3,3.2,12.5"/>
		<path fill="#454466" d="M939,240.2l-226.4-9c-13.8-0.6-24.5-12.2-24-26l0.7-16.8c0.6-13.8,26.8-62.5,40.6-61.9l120.8,27.1
			c13.8,0.6,115.3,37,114.8,50.8l-0.5,11.9C964.4,230,952.8,240.7,939,240.2z"/>
		<path fill="#FFFFFF" d="M784.4,25.3c0.1-2.1-1.6-3.9-3.7-4c-2.1-0.1-3.9,1.6-4,3.7"/>
		<path fill="#454466" d="M784.2,23.8c-0.5-1.5-1.9-2.5-3.5-2.6c1.2,0.7,1.6,1.7,1.7,2.5"/>
		
			<rect x="825.7" y="35.5" transform="matrix(0.9992 3.993624e-02 -3.993624e-02 0.9992 2.1563 -34.1555)" fill="#FFFFFF" width="60.6" height="2.8"/>
		<polygon fill="#454466" points="886.2,39.5 877.3,39.2 870.4,36.1 886.3,36.7 		"/>
		
			<rect x="870.3" y="38.9" transform="matrix(0.9992 3.993624e-02 -3.993624e-02 0.9992 2.2917 -34.7579)" fill="#454466" width="1.6" height="2.1"/>
		
			<rect x="837.5" y="37.6" transform="matrix(0.9992 3.993624e-02 -3.993624e-02 0.9992 2.213 -33.4468)" fill="#454466" width="1.6" height="2.1"/>
		<path fill="#FFFFFF" d="M939.3,231.9l-226.4-9c-13.8-0.6-24.5-12.2-24-26l5-125.4c0.6-13.8,12.2-24.5,26-24l226.4,9
			c13.8,0.6,24.5,12.2,24,26l-5,125.4C964.7,221.7,953.1,232.5,939.3,231.9z"/>
		
			<rect x="882.5" y="88.4" transform="matrix(0.9992 3.993624e-02 -3.993624e-02 0.9992 5.8156 -36.3395)" fill="#BEBECE" width="60" height="78"/>
		<g>
			<path fill="#454466" d="M855.8,111.8l-6.4-0.3c-0.6,0-1.2-0.3-1.7-0.8l-4.2-5.2l2.4-15.8l6.5-3.5l5,4.8c0.3,0.4,0.5,0.9,0.5,1.4
				l-0.7,18.2C857.1,111.3,856.5,111.8,855.8,111.8z"/>
			<path fill="#BEBECE" d="M850.9,106.2l-6.7-0.3c-0.6,0-1-0.5-1-1l0.7-18.3c0-0.6,0.5-1,1-1l6.7,0.3c0.6,0,1,0.5,1,1l-0.7,18.3
				C852,105.8,851.5,106.2,850.9,106.2z"/>
			<path fill="#454466" d="M854.6,141.5l-6.4-0.3c-0.6,0-1.2-0.3-1.7-0.8l-4.2-5.2l2.4-15.8l6.5-3.5l5,4.8c0.3,0.4,0.5,0.9,0.5,1.4
				l-0.7,18.2C855.9,141,855.3,141.5,854.6,141.5z"/>
			<path fill="#BEBECE" d="M849.8,135.9l-6.7-0.3c-0.6,0-1-0.5-1-1l0.7-18.3c0-0.6,0.5-1,1-1l6.7,0.3c0.6,0,1,0.5,1,1l-0.7,18.3
				C850.8,135.5,850.3,135.9,849.8,135.9z"/>
			<path fill="#454466" d="M853.5,169.5l-6.4-0.3c-0.6,0-1.2-0.3-1.7-0.8l-4.2-5.2l2.4-15.8l6.5-3.5l5,4.8c0.3,0.4,0.5,0.9,0.5,1.4
				l-0.7,18.2C854.8,169,854.2,169.5,853.5,169.5z"/>
			<path fill="#BEBECE" d="M848.6,163.9l-6.7-0.3c-0.6,0-1-0.5-1-1l0.7-18.3c0-0.6,0.5-1,1-1l6.7,0.3c0.6,0,1,0.5,1,1l-0.7,18.3
				C849.7,163.5,849.2,163.9,848.6,163.9z"/>
		</g>
		
			<rect x="880.3" y="180.3" transform="matrix(0.9992 3.993624e-02 -3.993624e-02 0.9992 7.9846 -36.2093)" fill="#BEBECE" width="60" height="3"/>
		
			<rect x="879.6" y="198.7" transform="matrix(0.9992 3.993624e-02 -3.993624e-02 0.9992 8.721 -36.1652)" fill="#BEBECE" width="60" height="3"/>
		
			<rect x="897.9" y="197.6" transform="matrix(0.7348 -0.6783 0.6783 0.7348 100.2415 666.8738)" fill="#454466" width="10" height="15.3"/>
		<g>
			<circle fill="#BEBECE" cx="717.6" cy="56.2" r="1.5"/>
			<circle fill="#BEBECE" cx="702" cy="71.6" r="1.5"/>
			<circle fill="#BEBECE" cx="962.1" cy="81" r="1.5"/>
			<circle fill="#BEBECE" cx="945.6" cy="66.3" r="1.5"/>
			<circle fill="#BEBECE" cx="941.3" cy="225.2" r="1.5"/>
			<circle fill="#BEBECE" cx="956.9" cy="209.9" r="1.5"/>
			<circle fill="#BEBECE" cx="696.8" cy="200.5" r="1.5"/>
			<circle fill="#BEBECE" cx="713.3" cy="215.1" r="1.5"/>
		</g>
		
			<rect x="929.3" y="180.4" transform="matrix(0.7348 -0.6783 0.6783 0.7348 120.237 683.6051)" fill="#454466" width="10" height="15.3"/>
		<circle fill="#454466" cx="939.6" cy="193.8" r="5"/>
		<circle fill="#FFFFFF" cx="929.2" cy="182.5" r="5"/>
		<circle fill="#FFFFFF" cx="897.8" cy="199.7" r="5"/>
		<circle fill="#454466" cx="897.8" cy="199.7" r="2.4"/>
		<circle fill="#454466" cx="929.2" cy="182.5" r="2.4"/>
		<circle fill="#454466" cx="908.2" cy="211" r="5"/>
		<path fill="#FFFFFF" d="M940.9,44.8l-5.9-0.2c-1.5-0.1-2.9,1.1-2.9,2.7l-0.3,8.7l11.5,0.5l0.3-8.7
			C943.7,46.2,942.5,44.9,940.9,44.8z"/>
		<path fill="#454466" d="M940.9,44.8l-3.5-0.1c1.5,0.1,2.8,1.4,2.7,2.9l-0.3,8.7l3.5,0.1l0.3-8.7C943.7,46.2,942.5,44.9,940.9,44.8
			z"/>
		<path fill="#FFFFFF" d="M981.4,94.1l0.2-5.9c0.1-1.5-1.1-2.9-2.7-2.9l-8.7-0.3l-0.5,11.5l8.7,0.3C980,96.8,981.3,95.6,981.4,94.1z
			"/>
		<path fill="#454466" d="M978.7,91.1l-8.7-0.3l-0.2,5.7l8.7,0.3c1.5,0.1,2.9-1.1,2.9-2.7l0.2-5.7C981.5,89.9,980.2,91.2,978.7,91.1
			z"/>
		<path fill="#BEBECE" d="M923.3,55.6l-103.8-4.1c-1.1,0-2-1-1.9-2.1l0.3-8.5c0-1.1,1-2,2.1-1.9l103.8,4.1c1.1,0,2,1,1.9,2.1
			l-0.3,8.5C925.3,54.8,924.4,55.7,923.3,55.6z"/>
		<path fill="#BEBECE" d="M811.9,51.2L708.1,47c-1.1,0-2-1-1.9-2.1l0.9-22.2c0-1.1,1-2,2.1-1.9L812.9,25c1.1,0,2,1,1.9,2.1L814,49.3
			C813.9,50.4,813,51.2,811.9,51.2z"/>
		<polygon fill="#454466" points="763.1,25.7 762.6,38.1 746.3,37.4 756.3,49 781.2,50 		"/>
		
			<rect x="767.4" y="26.7" transform="matrix(0.9992 3.993624e-02 -3.993624e-02 0.9992 2.1092 -31.4112)" fill="#FFFFFF" width="39.8" height="20.8"/>
		<path fill="#454466" d="M814,49.3l0.5-12.9l-6.9-8.8l-0.8,20.8L767,46.7l2.8,2.8l42.1,1.7C813,51.2,813.9,50.4,814,49.3z"/>
		
			<rect x="746.5" y="25.4" transform="matrix(0.9992 3.993624e-02 -3.993624e-02 0.9992 1.8632 -30.1143)" fill="#FFFFFF" width="16.4" height="12.4"/>
		
			<rect x="861" y="45" transform="matrix(0.9992 3.993624e-02 -3.993624e-02 0.9992 2.625 -35.4386)" fill="#FFFFFF" width="54.7" height="6"/>
		<path fill="#454466" d="M924.2,55.5l-8.4-9.4l-0.2,6l-54.6-2.2l3.3,3.4l59.1,2.4C923.6,55.6,923.9,55.6,924.2,55.5z"/>
		<path fill="none" stroke="#454466" stroke-width="3" stroke-miterlimit="10" d="M938,44.7c0.9-22,12-44.8,29-43.1
			c16.9,1.7,15.7,26.2,7.3,24.8c-6.8-1.1,2.4-30.8,25.4-23c19,6.5,1.4,40.7-6.8,32c-9.2-9.8,38-30.3,46.6-7.4s-37.1,37.2-36.1,26.5
			c0.9-10.3,28.8-5.2,22.1,11.5c-6.7,16.7-32.9,15.2-29.3,8.1c3.5-7.1,18,0.5,11.4,8.5c-6.6,8-20.3,8.8-26.1,8.6"/>
		<g>
			
				<rect x="933.4" y="47.3" transform="matrix(0.9992 3.993624e-02 -3.993624e-02 0.9992 2.8087 -37.2501)" fill="#454466" width="0.7" height="8.8"/>
			
				<rect x="935.4" y="47.4" transform="matrix(0.9992 3.993624e-02 -3.993624e-02 0.9992 2.8134 -37.3286)" fill="#454466" width="0.7" height="8.8"/>
			
				<rect x="937.4" y="47.5" transform="matrix(0.9992 3.993624e-02 -3.993624e-02 0.9992 2.8181 -37.4071)" fill="#454466" width="0.7" height="8.8"/>
			
				<rect x="939.3" y="47.5" transform="matrix(0.9992 3.993624e-02 -3.993624e-02 0.9992 2.8228 -37.4856)" fill="#454466" width="0.7" height="8.8"/>
			
				<rect x="941.3" y="47.6" transform="matrix(0.9992 3.993624e-02 -3.993624e-02 0.9992 2.8275 -37.5641)" fill="#454466" width="0.7" height="8.8"/>
		</g>
		<g>
			
				<rect x="974.2" y="82.5" transform="matrix(-3.993624e-02 0.9992 -0.9992 -3.993624e-02 1100.1912 -883.4354)" fill="#454466" width="0.7" height="8.8"/>
			
				<rect x="974.1" y="84.4" transform="matrix(-3.993624e-02 0.9992 -0.9992 -3.993624e-02 1102.075 -881.311)" fill="#454466" width="0.7" height="8.8"/>
			
				<rect x="974" y="86.4" transform="matrix(-3.993624e-02 0.9992 -0.9992 -3.993624e-02 1103.9589 -879.1868)" fill="#454466" width="0.7" height="8.8"/>
			
				<rect x="973.9" y="88.4" transform="matrix(-3.993624e-02 0.9992 -0.9992 -3.993624e-02 1105.8427 -877.0624)" fill="#454466" width="0.7" height="8.8"/>
			
				<rect x="973.9" y="90.3" transform="matrix(-3.993624e-02 0.9992 -0.9992 -3.993624e-02 1107.7266 -874.9381)" fill="#454466" width="0.7" height="8.8"/>
		</g>
		<g>
			
				<rect x="738.8" y="175.8" transform="matrix(0.9992 3.993624e-02 -3.993624e-02 0.9992 8.0345 -30.5535)" fill="#BEBECE" width="60" height="20"/>
			
				<text transform="matrix(0.9992 3.993624e-02 -3.993624e-02 0.9992 744.4864 186.8153)" fill="#FFFFFF" font-family="'Monaco'" font-size="8px">09.06.2017</text>
		</g>
		<path fill="#BEBECE" stroke="#454466" stroke-width="3" stroke-miterlimit="10" d="M818.5,176.3l-99-4c-5.3-0.2-9.4-4.7-9.2-10
			l3.4-86c0.2-5.3,4.7-9.4,10-9.2l99,4c5.3,0.2,9.4,4.7,9.2,10l-3.4,86C828.3,172.4,823.8,176.6,818.5,176.3z"/>
		<g>
			
				<rect x="735.5" y="6" transform="matrix(0.9992 3.993624e-02 -3.993624e-02 0.9992 1.0795 -29.5384)" fill="#FFFFFF" width="8.8" height="12.6"/>
			
				<rect x="738" y="18.5" transform="matrix(0.9992 3.993624e-02 -3.993624e-02 0.9992 1.4006 -29.5191)" fill="#FFFFFF" width="3.1" height="3.5"/>
			<path fill="#454466" d="M741.2,18.6c0,0-2.1-0.1-3.1-0.1c1.3,0.9,1.5,3.6,1.5,3.6l1.5,0.1L741.2,18.6z"/>
			<path fill="#454466" d="M740.1,6L740,9.1c0.7,0,1.3,0.6,1.2,1.3c0,0.7-0.6,1.3-1.3,1.2l0,1.2l0,0c0.7,0,1.3,0.6,1.2,1.3
				c0,0.7-0.6,1.3-1.3,1.2l0,0l-0.1,3.1l4.4,0.2l0.5-12.6L740.1,6z"/>
		</g>
		<g>
			
				<rect x="757" y="6.8" transform="matrix(0.9992 3.993624e-02 -3.993624e-02 0.9992 1.131 -30.3975)" fill="#FFFFFF" width="8.8" height="12.6"/>
			
				<rect x="759.6" y="19.4" transform="matrix(0.9992 3.993624e-02 -3.993624e-02 0.9992 1.4522 -30.3783)" fill="#FFFFFF" width="3.1" height="3.5"/>
			<path fill="#454466" d="M762.7,19.5c0,0-2.1-0.1-3.1-0.1c1.3,0.9,1.5,3.6,1.5,3.6l1.5,0.1L762.7,19.5z"/>
			<path fill="#454466" d="M761.7,6.8l-0.1,3.1c0.7,0,1.3,0.6,1.2,1.3s-0.6,1.3-1.3,1.2l0,1.2l0,0c0.7,0,1.3,0.6,1.2,1.3
				c0,0.7-0.6,1.3-1.3,1.2l0,0l-0.1,3.1l4.4,0.2L766.1,7L761.7,6.8z"/>
		</g>
		<g>
			
				<rect x="846.2" y="24.1" transform="matrix(0.9992 3.993624e-02 -3.993624e-02 0.9992 1.8922 -33.9454)" fill="#FFFFFF" width="8.8" height="12.6"/>
			
				<rect x="848.7" y="36.7" transform="matrix(0.9992 3.993624e-02 -3.993624e-02 0.9992 2.2134 -33.9262)" fill="#FFFFFF" width="3.1" height="3.5"/>
			<path fill="#454466" d="M851.9,36.7c0,0-2.1-0.1-3.1-0.1c1.3,0.9,1.5,3.6,1.5,3.6l1.5,0.1L851.9,36.7z"/>
			<path fill="#454466" d="M850.8,24.1l-0.1,3.1c0.7,0,1.3,0.6,1.2,1.3c0,0.7-0.6,1.3-1.3,1.2l0,1.2l0,0c0.7,0,1.3,0.6,1.2,1.3
				c0,0.7-0.6,1.3-1.3,1.2l0,0l-0.1,3.1l4.4,0.2l0.5-12.6L850.8,24.1z"/>
		</g>
		<g>
			
				<rect x="894.5" y="26" transform="matrix(0.9992 3.993624e-02 -3.993624e-02 0.9992 2.0078 -35.8726)" fill="#FFFFFF" width="8.8" height="12.6"/>
			
				<rect x="897" y="38.6" transform="matrix(0.9992 3.993624e-02 -3.993624e-02 0.9992 2.329 -35.8533)" fill="#FFFFFF" width="3.1" height="3.5"/>
			<path fill="#454466" d="M900.2,38.7c0,0-2.1-0.1-3.1-0.1c1.3,0.9,1.5,3.6,1.5,3.6l1.5,0.1L900.2,38.7z"/>
			<path fill="#454466" d="M899.1,26l-0.1,3.1c0.7,0,1.3,0.6,1.2,1.3c0,0.7-0.6,1.3-1.3,1.2l0,1.2l0,0c0.7,0,1.3,0.6,1.2,1.3
				c0,0.7-0.6,1.3-1.3,1.2l0,0l-0.1,3.1l4.4,0.2l0.5-12.6L899.1,26z"/>
		</g>
		<path fill="#FFFFFF" d="M838,36.2c0.1-2.1-1.6-3.9-3.7-4c-2.1-0.1-3.9,1.6-4,3.7"/>
		<path fill="#454466" d="M837.8,34.7c-0.5-1.5-1.9-2.5-3.5-2.6c1.2,0.7,1.6,1.7,1.7,2.5"/>
		<polygon fill="#454466" points="720.7,26.5 713.5,33.1 721.1,41.3 719.1,43.2 723.2,47.6 740.8,48.3 		"/>
		<circle fill="#FFFFFF" cx="717.2" cy="29.9" r="4.9"/>
		<circle fill="#454466" cx="717.2" cy="29.9" r="2.1"/>
		<circle fill="#FFFFFF" cx="720.7" cy="41.5" r="2.4"/>
		<circle fill="#454466" cx="720.7" cy="41.5" r="1.2"/>
		<polygon fill="#454466" points="835,44.3 831.6,47.5 835.8,52.1 842.5,52.4 		"/>
		<circle fill="#FFFFFF" cx="833.4" cy="46" r="2.4"/>
		<circle fill="#454466" cx="833.4" cy="46" r="1.2"/>
		<line fill="none" stroke="#FFFFFF" stroke-width="0.75" stroke-miterlimit="10" x1="737.7" y1="69.3" x2="733.6" y2="171.3"/>
		<line fill="none" stroke="#FFFFFF" stroke-width="0.75" stroke-miterlimit="10" x1="761.3" y1="70.3" x2="757.3" y2="172.3"/>
		<line fill="none" stroke="#FFFFFF" stroke-width="0.75" stroke-miterlimit="10" x1="785" y1="71.2" x2="780.9" y2="173.2"/>
		<line fill="none" stroke="#FFFFFF" stroke-width="0.75" stroke-miterlimit="10" x1="808.6" y1="72.2" x2="804.6" y2="174.2"/>
		<circle fill="none" stroke="#FFFFFF" stroke-width="0.75" stroke-miterlimit="10" cx="771.1" cy="121.7" r="5.1"/>
		<circle fill="none" stroke="#FFFFFF" stroke-width="0.75" stroke-miterlimit="10" cx="747.8" cy="120.8" r="5.1"/>
		<circle fill="none" stroke="#FFFFFF" stroke-width="0.75" stroke-miterlimit="10" cx="724.3" cy="119.9" r="5.1"/>
		<circle fill="none" stroke="#FFFFFF" stroke-width="0.75" stroke-miterlimit="10" cx="794.6" cy="122.7" r="5.1"/>
		<circle fill="none" stroke="#FFFFFF" stroke-width="0.75" stroke-miterlimit="10" cx="818.1" cy="123.6" r="5.1"/>
	</g>
</g>
<g id="Main">
	<path fill="#454466" d="M735.6,211.1c32.8-14,71.2-25,78.6-11.6c-4.5,5.1-47.8,19.1-59,26.3c33.4-3.8,83.7-21.2,114,1
		c0.6,0.4,0.4,1.3-0.3,1.5c-16,2.8-57.5,8.3-66.3,11.2c23.5,5.6,56.9,17.3,58.3,34.2c-7.4,5-76.3-16.3-120.9-19.2
		c-25.5-1.7-73.4-44.7-113-33.2C606.5,227.2,712,221.2,735.6,211.1z"/>
</g>
</svg>
