<svg xmlns="http://www.w3.org/2000/svg" x="0px" y="0px" xmlns:xlink="http://www.w3.org/1999/xlink" viewBox="0 0 240 240">
  <path fill="#FFF" d="M60.4 110.9c.6 8.1-1.3 16.2-1.5 24.3-.3 10.2-.2 22.6 4.4 31.7.2.3.3.7.6.8.4.2.9.2 1.4.1 3.3-.2 7.4 1.5 10.9 2.3 2.1.5 4 1.5 6.1 1.7 3.3.3 6.7-.6 9.8-1.5-1.6-3.4-1.9-6.7-1.7-10.4.2-3.7.8-7.4 1-11.1.5-11.7-3.8-23-8.5-33.7-1.1-2.5-2.3-5.2-4.4-6.9-1.9-1.6-4.4-2.3-6.8-2.7-2.8-.5-5.8-.6-8.5.5-1.1.4-2.1 1.1-2.7 2-.6 1-.8 2.3-.1 3.2"/>
  <path fill="#BEBECE" d="M141.3 141.2c12.4 3 21.3 13.5 32.2 20.2 2.6 1.6 5.4 3 7.8 5.1 2.3 2 4.2 4.5 6 7 6.8 9.5 22.3 24.2 27.3 75.9.3 2.9 11.9 4.2 10.6 6.8-.7 1.4-2 2.4-3.3 3.3-10.8 7.1-44.5-14.7-57.4-14-18.9 1-36.2.6-55 3.3-24.6 3.6-61.9 12.6-86.4 8.7-2.1-.3-4.3-.8-5.9-2.2-3.3-3.1-1.7-8.4 0-12.5 4.1-9.5 20.5-46.4 24.5-55.9 1.9-4.4 3.7-8.8 6.6-12.6 3.5-4.7 10-12.3 14.7-15.7 8.6-6.2 15.6-8.1 24.4-14.1 3.5-2.3 7-4.7 11.1-5.7 5.9-1.4 12.1.5 18.1.5 5.3 0 10.5-1.3 15.8-1.4 5.3 0 11.1 1.6 13.9 6"/>
  <defs>
    <path id="a" d="M141.3 141.2c12.4 3 21.3 13.5 32.2 20.2 2.6 1.6 5.4 3 7.8 5.1 2.3 2 4.2 4.5 6 7 6.8 9.5 32.1 63.6 36.9 74.3 1.2 2.7 2.2 5.8.9 8.4-.7 1.4-2 2.4-3.3 3.3-10.8 7.1-43.1-38.3-56-37.6-18.9 1-37.4 5.7-56.2 8.5C85 234 47.5 261.5 23 257.6c-2.1-.3-4.3-.8-5.9-2.2-3.3-3.1-1.7-8.4 0-12.5 4.1-9.5 20.5-46.4 24.5-55.9 1.9-4.4 3.7-8.8 6.6-12.6 3.5-4.7 10-12.3 14.7-15.7 8.6-6.2 15.6-8.1 24.4-14.1 3.5-2.3 7-4.7 11.1-5.7 5.9-1.4 12.1.5 18.1.5 5.3 0 10.5-1.3 15.8-1.4 5.3 0 11.1 1.6 13.9 6"/>
  </defs>
  <clipPath id="b">
    <use xlink:href="#a" overflow="visible"/>
  </clipPath>
  <path fill="#454466" d="M93 139.1c-3.9 1.1-7.8 3.7-8.5 7.7-.7 3.9 2.1 7.6 5.2 10.1 8.1 6.5 19.1 8.4 29.6 8.4 4.8 0 9.6-.4 14.4.3 2.4.3 4.9 1.1 6.4 3 1 1.3 1.4 3.1 2.4 4.5 2.5 3.7 7.9 3.8 12.3 3.1 12.3-2.1 24.6-8.1 30.7-18.9 1.2-2.1 2.1-4.4 2.1-6.9 0-3-1.4-5.9-3.5-8.1s-4.7-3.7-7.4-5c-11.7-5.5-25-6.1-38-7-9.1-.6-18.3-1.5-27.1.8-7 1.8-13.3 5.4-19.5 9" clip-path="url(#b)"/>
  <path fill="#FFF" d="M122.8 64.9c-.8-1.7.1-3.8 1.3-5.3 4.6-6.1 12.5-8.6 19.9-10.3 5.9-1.4 12.2-2.5 17.8-.3 4.6 1.8 10 5.1 13.1 9 2.4 3 4.6 6.1 6.1 9.7 3.9 9 3.4 19 2.6 28.5s-2.9 19-3.4 28.6c-.7 12.7 1.3 25.4.2 38-.1 1.1.4 3.1-.1 4-1.6 3-5.5 3.8-8.9 3.9-3.5.1-6 0-11.2 0-.9 0-4-.2-4.9-.4-1.5-.3-1.7-.6-2-2.1-1.2-5.9-.5-14.3.4-20.2 1.1-7.7 3.2-13.2 3-21-.1-7.2.2-14.3-.6-21.4-.8-7.1-2.6-14.3-6.7-20.2-5.8-8.3-15.2-13.2-24-18.2-1-.5-2.1-1.2-2.6-2.3z"/>
  <path fill="#BEBECE" d="M158.8 139.8c7.7-10 12.3-21.6 10.8-33.5-.7-5.5-2.7-10.7-4.8-15.8-1.6-3.8-3.3-7.7-6-10.9-2.4-2.8-5.6-4.9-8.8-6.8-14.4-8.4-32.2-13.1-48-7.7-4.4 1.5-8.5 3.7-12.6 5.9-1.5.8-3 1.6-4.3 2.7-1.5 1.2-2.7 2.7-4 4.2-1.6 1.9-3.3 3.8-4.8 5.9-8 10.8-10.3 25.5-6.3 38.3 4 12.8 14.2 23.5 26.7 28.3 2.9 1.1 6 2 9 2.7 8.3 2 18.1 2.8 26.5 1.1 5.3-1.1 8.7-2.4 12.3-3.9 2.7-1.1 4.4-1.9 6.7-3.7 2.8-2.1 5.5-4.2 7.6-6.8z"/>
  <path fill="#454466" d="M141.2 107.4c.6.6 1.5 1 2.4.9 1.1-.2 1.8-1.1 2.3-2.2.1-.3.3-.6.4-1 .8-2.6 0-7.8-3.8-5.7-2.5 1.5-3.3 5.9-1.3 8zm-44.8-5.7c-.3 1-.6 2-.6 3.1.1 1.4.8 2.7 2 3.4 1.2.7 2.8.6 3.9-.3 1.2-1 1.6-2.6 1.7-4.1.1-.8.1-2-.1-2.7-.2-.5-.7-1.3-1.2-1.6-.6-.4-1.1-.8-2.1-.8-.8 0-1.8.4-2.4.8-.7.5-1 1.4-1.2 2.2z"/>
  <path fill="#BEBECE" d="M180.9 101c.1 2.7.2 5.3-.3 8-.4 2.1-1.1 4.3-2.5 6-1.4 1.7-3.4 2.9-5.6 3-2.2.1-4.4-1.1-5.3-3.1-.4-1-.5-2-.6-3-.4-2.5-1.1-5-2.3-7.2 1.2-2 2.2-4.2 3.5-6.1 1.3-1.9 3.1-3.7 5.4-4.4 2.2-.7 5-.1 6.4 1.8 1.1 1.3 1.3 3.2 1.3 5z"/>
  <path fill="#FFF" d="M129.2 58.3c-1.1-2.8-4.1-5.7-6.7-7.1s-6.1-2.9-9.1-3.4c-10.4-1.8-21-1-31 2.3-2.4.8-5 2.4-7.1 3.9-1.8 1.3-4.9 3.8-6.3 5.5-5.3 6-8.5 13.5-9.9 21.5-1.5 8.7 1.2 17.6 4.1 25.9.2.6.4 1.2.8 1.8 1.2 1.6 4.2-8.1 5.5-6.6 6.1-2.1 6.2-3.6 7.4-4.6.5-.4 2-1.7 2.6-1.9 1.5-.5 2.1-.4 3.4-.6 9.7-1.6 15.2-4.4 22.4-9.4 2.8-2 5.6-3.9 8.5-5.9 2.6-1.8 5.2-3.6 7.3-6 2.8-3.1 4.7-6.9 6.4-10.7.3-.6.6-1.3.7-2 .1-.9 1.3-1.9 1-2.7z"/>
  <path fill="#BEBECE" d="M69.6 102c-1.7-1.3-3.5-2.7-5.2-4-.8-.6-1.6-1.2-2.5-1.4-2.1-.4-4 1.4-4.9 3.3-1 2-1.4 4.3-1.2 6.5.3 3 1.6 5.8 3 8.5.4.9.9 1.8 1.6 2.5 1 1 2.6 1.5 4 1.2 1.4-.3 2.7-1.2 3.3-2.5.2-.4.3-.8.6-1 .3-.3.7-.4 1-.7 1-.8.8-2.4.6-3.6"/>
  <path fill="#454466" d="M60.2 109.6c-1-2.5-1.8-5.7-.2-8 1.1-.5 2.4 0 3.6.6.9.5 1.9 1 2.8 1.4.2.1.4.2.4.4.1.1 0 .3 0 .4l-.3 1.8c-1.2-.3-2.3-.8-3.3-1.4-.4-.2-.8-.5-1.2-.5-.7 0-1.2.9-1.4 1.6-.3 1.2-.5 2.4-.4 3.7z"/>
  <path fill="#FFF" d="M143.6 90c-.8-.4-1.7-.8-2.6-.8-.9 0-1.9.5-2.2 1.4-.1.4-.1.8.2.9.4.1 3.5.1 4.9 1 1.2.8 2.3 2 3.7 1.8.5-.6.3-1.6-.2-2.2-.5-.6-1.3-1-2-1.3-.5-.3-1.1-.5-1.8-.8zm-48.8 2.9c.7-.3 1.4-.5 2.1-.6 1.2-.3 2.3-.6 3.5-.9.4-.1.9-.2 1.3-.2s.9.3 1 .8c.1.4.3.9 0 1.3-.2.4-.4.3-1.6.3-2-.1-3.3.1-4.8 1-.6.4-1.1.9-1.6 1.3-.4.3-.9.5-1.4.5-.5 0-1-.3-1.2-.8-.2-.6.4-1.3.9-1.7.6-.3 1.2-.7 1.8-1z"/>
  <path fill="#454466" d="M147.7 109.7c.1 0 .2-.1.3 0 .1 0 .1.1.1.1.3.6 0 1.4-.4 1.9-1.2 1.7-3.4 2.6-5.4 2.5-.8 0-5.1-1.4-4.1-2.8.6-.8 3.8.8 4.5 1 1.1.2 2.5.1 3.4-.6.6-.6.8-1.7 1.6-2.1zm-45 .9c-.3.7-.3.6-.7 1.3-.4.6-.8 1.1-1.4 1.5-.5.4-1.2.7-1.8 1-1.3.5-2.8.8-4.2.8-1.4 0-3-.5-3.6-1.8v-.6c0-.1.2-.4.3-.4.9-.4 1.9 0 2.9.1.8.1 1.6.2 2.4.2.6 0 1.1 0 1.6-.3.5-.2.9-.5 1.2-.9.6-.6 1.2-1.3 1.8-2 .2-.3.4-.6.8-.6s.7.4.7.7c.2.3.2.7 0 1"/>
  <path fill="#FFF" d="M169.7 108c.4 2 1.2 2 1.8 1.9 1-.2 1.5-.5 2-.8 1.3-.9 2.8-1.7 3.6-3.3.4 3.3-2.6 7.3-6 7.2-.4 0-1-.1-1.2-.4-.2-.2-.2-.5-.3-.7-.5-1.5 0-2.7.1-3.9"/>
  <path fill="#454466" d="M132.6 130c.1.3-.2 1-.9 1.3-4.4 1.7-6.8 2.7-12.2 2.6-2.6-.1-3.6-.3-4.7-.6-1.4-.4-2.1-.7-3.2-1.7-.5-.5-.9-1.2-.3-1.6.4-.3.9-.1 1.3.1 5.3 2.7 11.8 1.8 17.3-.5.6-.2 1.2-.5 1.8-.5.5.1.8.2.9.9z"/>
  <path fill="#FFF" d="M138.5 77.6c1.5 3.7 4 6.7 6.8 9.5 2.2 2.3 5.3 4.1 8.2 5.4 5 2.1 10.4 3.5 15.4 1.4.6-.3 1.6-3.6 1.7-4.3.1-.5-.2-.9-.5-1.3-3.5-4.8-7.9-8.7-11.8-13.2-1.8-2.1-3.6-4.4-5.6-6.3-5.3-4.9-18.7-6.1-25.8-5.2 5.7 3.1 9.6 9.2 11.6 14zm41.8 37.2c-1.1 11.3 5.1 21.8 7 32.9.9 5.3.8 10.7.7 16.1-3.6.1-7.2.7-10.7 1.9-1.6-12.7-1.4-25.7.7-38.3.3-2 .7-4.1 1.6-5.9"/>
  <path fill="#454466" d="M107.9 126.6c-.2 4.7-3.5 11.2-7.7 15.4-.8.8-2.6 2.1-2 2.7.5.5 1.4.1 2-.3 5.2-3.7 8.5-9.9 9.1-16.2.1-.6.3-1.5-.1-1.9s-1.3-.8-1.3.3m28-.5c.2 4.7 3.5 11.2 7.7 15.4.8.8 2.6 2.1 2 2.7-.5.5-1.4.1-2-.3-5.2-3.7-8.5-9.9-9.1-16.2-.1-.6-.3-1.5.1-1.9.5-.6 1.3-.7 1.3.3m-17-6.9c-1-.8-1.9-1.6-2.4-2.7 1.5.4 2.5.5 3.9.6.8.1 1.7 0 2.3-.5 1-1 .5-3.7.4-4.4.2-.2 1.3 1.9 1.5 2.2.3.5.8 1.7 1 2.1.5.9.5 1 1 2.2.3.8.7 1.7.3 2.5-.3.6-.9.8-1.5 1-1.4.4-5.4-2.2-6.5-3z"/>
</svg>
