<?xml version="1.0" encoding="utf-8"?>
<!-- Generator: Adobe Illustrator 18.1.0, SVG Export Plug-In . SVG Version: 6.00 Build 0)  -->
<svg version="1.1" xmlns="http://www.w3.org/2000/svg" xmlns:xlink="http://www.w3.org/1999/xlink" x="0px" y="0px"
	 viewBox="0 0 240 240" enable-background="new 0 0 240 240" xml:space="preserve">
<g id="Calque_2" display="none">
	
		<rect x="-72.5" y="-62.8" display="inline" opacity="0.39" stroke="#FFFFFF" stroke-width="1.3062" stroke-miterlimit="10" width="400" height="400"/>
</g>
<g id="Calque_1" display="none">
	<circle display="inline" fill="none" stroke="#FFFFFF" stroke-width="0.7842" stroke-miterlimit="10" cx="120" cy="120" r="120"/>
</g>
<g id="Calque_3" display="none">
	<g display="inline">
		<path fill="#454466" d="M164,156.6c-1.2,5.3,0.2,11.9,0.7,15.4C173.4,170.3,178.4,156.6,164,156.6z"/>
	</g>
	<g display="inline">
		<path fill="#EFEFF4" d="M81.8,154.6c0.2,1.3-0.9,8.6-0.8,11.6c0.1,3,0.2,5-0.8,6.2C70.9,173.6,67,158,81.8,154.6z"/>
	</g>
	<path display="inline" fill="#EFEFF4" d="M130.8,243.8c-4.9,1.7-11.1,1.7-16.2,1.7c-9.1,0-18-4.8-27-5.7c-6.8-0.7-9.4,5.5-15.7,3
		c-0.1-4.2,0.1-18.9,12.2-27.5c4.9-3.5,9.3-4.7,14.6-7.9c1.4-0.9,2.8-1.7,4.4-2.2c1.7-0.6,3.5-0.8,5.2-1c3.5-0.4,7-0.8,10.5-1
		c19.8-0.7,44.7,13.3,58.3,36.8c-8.6,5.4-27.6-2.1-37.3,1.1C136.8,242.1,133.8,242.8,130.8,243.8z"/>
	<path display="inline" fill="#454466" d="M134.5,208c-1.8,0.6-3.8,0.6-5.7,0.6c-7.2,0-14.5,0-21.5-1.9c-1.2-0.3-2.5-1.2-3.8-1.3
		s-2.6,0.6-3.7,1.3c2.4,3.4,6.2,5.8,9.9,7.5c8,3.8,16.7,6.2,25.6,6.9c1.6,0.1,3.4,0.4,5.1,0.5c3.5,0.3,9-0.4,10.3-2.4
		c2.3-3.5,0.2-5.8-2.3-7.4c-1.1-0.7-4-2.4-5.2-2.9c-1.1-0.5-2.2-1.1-3.3-1.6c-0.5-0.2-1.3-0.2-1.9-0.3
		C136.8,207,135.7,207.6,134.5,208z"/>
	<path display="inline" fill="#EFEFF4" d="M92.1,198.4c4.9,5.5,11.9,8.4,18.9,10.5c3.1,0.9,6.2,1.8,9.4,2.1
		c7.4,0.8,14.9-1.2,21.3-4.8c6.5-3.6,11.9-8.9,16.4-14.8c3.4-4.5,6.4-9.5,7.6-15c1.1-5.1,0.8-10.4,0.2-15.6
		c-0.5-3.9-1.1-7.7-2.5-11.3c-2.2-5.3-6.3-9.7-10.3-13.9c-1.8-1.9-3.6-3.8-5.8-5.2c-5.1-3.4-11.6-3.9-17.7-4.4
		c-5.7-0.4-11.4-0.8-17.1-0.2c-5.7,0.6-11.3,2.2-15.9,5.6c-4.3,3.1-7.5,7.5-10.3,12c-1.7,2.6-3.4,5.3-4.5,8.2
		c-2.4,6.1-2.4,12.9-2.4,19.5c0,3.1,3.4,14.1,4.9,16.3c1.4,2,2.7,4,4.1,6.1C89.6,195.2,90.8,196.9,92.1,198.4z"/>
	<path display="inline" fill="#BEBECE" d="M98,130.8c1.5-3.1,6.2-7.9,14.2-11.5c7.9-3.6,3,7.5,3,7.5S103.2,127.5,98,130.8z"/>
	<path display="inline" fill="#454466" d="M117.9,186.5c2.4,1,3.4,1.3,5.7,1.2c2.9-0.1,4.8-1.1,7.3-2.6c0.4-0.2,0.8-0.6,1.2-0.6
		c0.5-0.1,1,0.1,1,0.6c0,0.3-0.2,0.7-0.4,0.9c-0.6,0.6-1.2,1.1-1.9,1.6c-4.4,2.9-10.5,2.9-14.9,0c-0.5-0.3-1-0.7-1.1-1.3
		c-0.1-0.6,0.2-1.1,0.8-1C115.8,185.2,117.6,186.3,117.9,186.5z"/>
	<g display="inline">
		<ellipse fill="#454466" cx="137.6" cy="159.1" rx="3.3" ry="4.3"/>
	</g>
	<g display="inline">
		<ellipse fill="#454466" cx="104.4" cy="158.6" rx="3.3" ry="4.3"/>
	</g>
	<g display="inline">
		<defs>
			<path id="SVGID_1_" d="M98,130.8c1.5-3.1,6.2-7.9,14.2-11.5c7.9-3.6,3,7.5,3,7.5S103.2,127.5,98,130.8z"/>
		</defs>
		<clipPath id="SVGID_2_">
			<use xlink:href="#SVGID_1_"  overflow="visible"/>
		</clipPath>
		<path clip-path="url(#SVGID_2_)" fill="#454466" d="M110.1,119.6c0.8,0.5,1.2,1.6,1.3,2.6c0.1,0.5,0.1,1,0,1.5
			c-0.2,0.8-0.7,1.6-1.4,2.1c-0.7,0.5-1.5,0.9-2.3,1.2c-1.6,0.6-3.3,1.1-4.9,1.7c-1.6,0.6-3.2,1.5-4.2,2.9c3.8-1,7.6-1.9,11.4-2.7
			c1.2-0.2,2.3-0.4,3.4-0.9c0.3-0.1,0.6-0.3,0.8-0.6c0.3-0.4,0.3-0.9,0.3-1.4c-0.1-1.4-0.2-2.8-0.5-4.2c-0.2-0.9-0.5-1.8-1.1-2.5
			c-0.6-0.7-1.5-1.2-2.4-1c-0.4,0.1-0.8,0.3-1,0.7c0.2,0.1,0.4,0.2,0.6,0.2"/>
	</g>
	<path display="inline" fill="#BEBECE" d="M146.1,131.8c0,0,0.8-8.9-10-11c-8-1.5-16.3,1-15.7-6.6c0.4-4.4,7.4-5.5,9.2-3.1
		c2.6,3.4-0.5,5.1-1,5.2c3.3,0.1,4.7-3,3.8-5.8c-0.9-2.7-5.9-7.6-12.9-3.9c-5.6,3-7.8,11.3-7.8,15.1c0,7.6,7.2,10.9,14.2,10.9
		c7,0,11-3.3,13.8-3S143.3,129.9,146.1,131.8z"/>
	<g display="inline">
		<defs>
			<path id="SVGID_3_" d="M146.1,131.8c0,0,0.8-8.9-10-11c-8-1.5-16.3,1-15.7-6.6c0.4-4.4,7.4-5.5,9.2-3.1c2.6,3.4-0.5,5.1-1,5.2
				c3.3,0.1,4.7-3,3.8-5.8c-0.9-2.7-5.9-7.6-12.9-3.9c-5.6,3-7.8,11.3-7.8,15.1c0,7.6,7.2,10.9,14.2,10.9c7,0,11-3.3,13.8-3
				S143.3,129.9,146.1,131.8z"/>
		</defs>
		<clipPath id="SVGID_4_">
			<use xlink:href="#SVGID_3_"  overflow="visible"/>
		</clipPath>
		<path clip-path="url(#SVGID_4_)" fill="#454466" d="M112.8,127.4c1.5,1.4,3.7,1.8,5.7,1.6s3.9-1.1,5.8-1.9
			c1.4-0.6,2.8-1.3,4.2-1.9c1.9-0.8,3.7-1.7,5.7-2c3.2-0.6,7.6,0.3,10,2.4c2.4,2.1,2.5,5.6,1.5,8.7c-6.9,0.2-13.9,0.4-20.8,0.6
			c-3.3,0.1-6.7,0.2-9.7-0.9c-1.1-0.4-2.2-1-3-1.9c-0.8-0.9-1.2-2.2-0.9-3.4c0.2-0.8,1.1-1.6,1.8-1.2"/>
	</g>
	<path display="inline" fill="#BEBECE" d="M107.7,148.1c-2.8-0.6-5.7,0.4-7.9,2.2c-0.3,0.3-0.7,0.6-0.8,1s0.2,1,0.6,1
		c0.3,0,0.6-0.3,0.8-0.5c1.4-1.4,3.3-2.3,5.3-2.4c0.5,0,1,0,1.5-0.1c0.2,0,0.5-0.1,0.7-0.2s0.4-0.4,0.3-0.6S108,148.2,107.7,148.1"
		/>
	<path display="inline" fill="#BEBECE" d="M134.6,148.8c2.8-0.6,5.7,0.4,7.9,2.2c0.3,0.3,0.7,0.6,0.8,1s-0.2,1-0.6,1
		c-0.3,0-0.6-0.3-0.8-0.5c-1.4-1.4-3.3-2.3-5.3-2.4c-0.5,0-1,0-1.5-0.1c-0.2,0-0.5-0.1-0.7-0.2c-0.2-0.1-0.4-0.4-0.3-0.6
		C134.2,149,134.2,149,134.6,148.8"/>
	<path display="inline" fill="#454466" d="M74.8,164.3c0.2,0.3,1.8,1.1,2.7,1.6c0.9,0.5,1.8,0.8,2.8,0.7c0.3-1.8,0.6-3.6,0.9-5.4
		c-0.4,0.7-0.5,1.6-1,2.2c-0.5,0.7-1.3,1.2-2.2,1.3c-0.9,0.1-1.7,0.2-2.5-0.1C75.4,164.5,75.1,164.4,74.8,164.3"/>
	<g display="inline">
		<defs>
			<path id="SVGID_5_" d="M92.1,198.4c4.9,5.5,11.9,8.4,18.9,10.5c3.1,0.9,6.2,1.8,9.4,2.1c7.4,0.8,14.9-1.2,21.3-4.8
				c6.5-3.6,11.9-8.9,16.4-14.8c3.4-4.5,6.4-9.5,7.6-15c1.1-5.1,1.4-10.4,0.7-15.5c-0.5-3.9-1.6-7.8-3.1-11.4
				c-2.2-5.3-6.3-9.7-10.3-13.9c-1.8-1.9-3.6-3.8-5.8-5.2c-5.1-3.4-11.6-3.9-17.7-4.4c-5.7-0.4-11.4-0.8-17.1-0.2
				c-5.7,0.6-11.3,2.2-15.9,5.6c-4.3,3.1-7.5,7.5-10.3,12c-1.7,2.6-3.4,5.3-4.5,8.2c-2.4,6.1-2.4,12.9-2.4,19.5
				c0,3.1,3.4,14.1,4.9,16.3c1.4,2,2.7,4,4.1,6.1C89.6,195.2,90.8,196.9,92.1,198.4z"/>
		</defs>
		<clipPath id="SVGID_6_">
			<use xlink:href="#SVGID_5_"  overflow="visible"/>
		</clipPath>
		<path clip-path="url(#SVGID_6_)" fill="#454466" d="M138.4,208.4c5.5-2,8.3-4.3,12.4-8.3c2.2-2.2,3.6-3.9,5.7-6.3
			c1.6-1.8,3.4-4.1,4.7-6.2c2.4-3.8,3.9-7.3,4.9-12.2c0.2-1.1,0.3-2.2,0.4-3.5c0.6-0.8,1.6-1.2,2.5-1.9c1.3-1.1,2.5-2.1,3.3-3.8
			c0.8-1.8,1.3-2.2,0.9-4.4c-0.5-3-1.9-3.6-3.9-4.4c-2.1-0.9-3.1-0.5-3.6-0.9c-0.4-0.3-0.3-0.6-0.4-1.1c-1.6-9.6-8.3-17.6-16.3-23.9
			c-2.5-2-5.6-4.3-8.4-2.9c3.6,1.4,6.9,3.7,9.2,6.8c3.5,4.6,8,10,9.4,16.8c1.2,5.7,2,12.7,0.8,20.8c-1.3,8.4-2.8,11.9-7.8,19.4
			C147,200.2,144,202.8,138.4,208.4z"/>
	</g>
	<path display="inline" fill="#454466" d="M126.3,170.3c-1.6-0.7-2.9-0.7-4.6-0.1c-0.3,0.1-0.7,0.5-0.7,0.8
		c-0.1,0.3,0.1,0.7,0.4,0.8c0.5,0.4,1.1,0.5,1.7,0.5c1,0.1,2.2,0.2,3.1-0.5c0.2-0.2,0.4-0.4,0.5-0.7S126.6,170.6,126.3,170.3"/>
</g>
<g id="Calque_4" display="none">
	<path display="inline" fill="#FFFFFF" d="M107.9,246.5c-11.8,0-22.6-6.6-34.4-7.8c-8.7-0.8-14.9,12.6-23.1,9.4
		c-0.2-5.4,4.3-38.3,23.9-49.5c6.7-3.8,12-6,19-10.2c1.8-1.1,3.7-2.2,5.7-2.9c2.2-0.7,4.5-1,6.7-1.2c4.5-0.5,9-1.1,13.5-1.3
		c25.6-0.9,62.2,22.4,79.8,61.2c-11.2,7-35.7,0.8-48.9,2.3C138,247.9,114.6,246.5,107.9,246.5z"/>
	<path display="inline" fill="#454466" d="M139,188.7c-2.5,0.8-5.2,0.9-7.9,0.9c-10,0-20.1,0-29.7-2.6c-1.7-0.5-3.5-1.7-5.3-1.8
		c-1.8-0.1-3.6,0.8-5.1,1.8c3.3,4.7,8.6,8,13.8,10.5c11.1,5.3,23.2,8.6,35.4,9.6c2.3,0.2,4.8,0.5,7,0.7c4.9,0.4,12.4-0.5,14.3-3.3
		c3.2-4.9,1.2-8.1-2.3-10.3c-1.5-1-5.7-3.2-7.4-3.9c-1.6-0.7-3.7-1.6-5.3-2.2c-0.7-0.3-1.8-1.4-2.6-1.4
		C142.2,186.3,140.6,188.2,139,188.7z"/>
	<path display="inline" fill="#BEBECE" d="M168.4,153.6c-0.5,0.2-0.9,0.6-1.3,0.9c-1.8,1.8-3.1,4.2-3.7,6.7
		c-0.3,1.4-0.5,2.9-1.1,4.1c-0.6,1.2-1.6,2.1-2.3,3.3c-0.9,1.5-1.3,3.2-1.6,4.9c-0.8,4.7-0.8,9.5-0.1,14.3
		c1.6,10.8,7,20.6,12.3,30.2c0.6,1.1,1.2,2.2,2,3.2c0.3,0.4,1.1,1.3,1.2,1.4c0,0,1-0.7,1.2-1.1c3.1-5,5.4-10.4,6.4-16.2
		c1.3-8.1,3.1-14.2,3.1-22.4c0-3.7-1.2-9.9-2.1-13.4c-1.3-5-4.4-9-7.3-13.3c-0.2-0.4-0.5-0.7-0.9-1c-0.4-0.3-1-0.3-1.5-0.5
		C171.4,154.3,169.9,153.1,168.4,153.6z"/>
	<g display="inline">
		<defs>
			<path id="SVGID_7_" d="M168.4,153.6c-0.5,0.2-0.9,0.6-1.3,0.9c-1.8,1.8-3.1,4.2-3.7,6.7c-0.3,1.4-0.5,2.9-1.1,4.1
				c-0.6,1.2-1.6,2.1-2.3,3.3c-0.9,1.5-1.3,3.2-1.6,4.9c-0.8,4.7-0.8,9.5-0.1,14.3c1.6,10.8,7,20.6,12.3,30.2c0.6,1.1,1.2,2.2,2,3.2
				c0.3,0.4,1.1,1.3,1.2,1.4c0,0,1-0.7,1.2-1.1c3.1-5,5.4-10.4,6.4-16.2c1.3-8.1,3.1-14.2,3.1-22.4c0-3.7-1.2-9.9-2.1-13.4
				c-1.3-5-4.4-9-7.3-13.3c-0.2-0.4-0.5-0.7-0.9-1c-0.4-0.3-1-0.3-1.5-0.5C171.4,154.3,169.9,153.1,168.4,153.6z"/>
		</defs>
		<clipPath id="SVGID_8_">
			<use xlink:href="#SVGID_7_"  overflow="visible"/>
		</clipPath>
		<path clip-path="url(#SVGID_8_)" fill="#454466" d="M164.5,159.9c-1.6,7.5-0.3,15.3,2.2,22.5c1.7,4.8,4.2,9.6,8.4,12.5
			c0.1-1.5,0.2-2.9,0-4.4c1.5,2.4,1.7,5.5,1.2,8.3s-1.5,5.5-2.2,8.3c-1.7,6-1.8,13,2.1,17.9c0.2,0.3,0.5,0.6,0.9,0.6
			c0.3,0,0.5-0.2,0.7-0.4c5.4-4.9,8.1-12.1,9.9-19.1c2.1-8.3,3.3-16.8,3.5-25.3c0.1-6.4-0.3-13-2.9-18.8s-7.7-10.9-14-12
			c-1.7-0.3-3.6-0.3-5,0.7c-1.4,0.9-2.1,2.5-2.7,4c-0.9,2.2-1.6,4.4-2.2,6.6"/>
	</g>
	<path display="inline" fill="#BEBECE" d="M78.6,227.2c2.9-2.8,4.6-4.6,6.5-7.3c7.2-10.6,10.1-24.1,7.9-36.7c-0.4-2.3-1-4.6-1.9-6.8
		c-0.9-2.2-2.1-4.2-3.3-6.2c-2.8-4.3-5.9-8.5-9.3-12.3c-3.9,1.7-7.1,4.8-9.5,8.3s-4.3,7.1-5.5,11.1c-0.8,2.5-1.6,5.8-1.6,8.4
		c0,2.3,0.6,11.6,1.1,13.8c2.5,11.4,4.9,16,11.4,25.7c0.5,0.7,2.3,3.1,2.5,3.2C76.8,228.5,78.3,227.6,78.6,227.2z"/>
	<g display="inline">
		<defs>
			<path id="SVGID_9_" d="M78.6,227.2c2.9-2.8,4.6-4.6,6.5-7.3c7.2-10.6,10.1-24.1,7.9-36.7c-0.4-2.3-1-4.6-1.9-6.8
				c-0.9-2.2-2.1-4.2-3.3-6.2c-2.8-4.3-5.9-8.5-9.3-12.3c-3.9,1.7-7.1,4.8-9.5,8.3s-4.3,7.1-5.5,11.1c-0.8,2.5-1.6,5.8-1.6,8.4
				c0,2.3,0.6,11.6,1.1,13.8c2.5,11.4,4.9,16,11.4,25.7c0.5,0.7,2.3,3.1,2.5,3.2C76.8,228.5,78.3,227.6,78.6,227.2z"/>
		</defs>
		<clipPath id="SVGID_10_">
			<use xlink:href="#SVGID_9_"  overflow="visible"/>
		</clipPath>
		<path clip-path="url(#SVGID_10_)" fill="#454466" d="M74.9,156.1c-1.5,6.7,2.6,13.3,4,20.1c1.1,5,0.7,10.3,0.2,15.4
			c0.9-1.5,1.7-3.2,2.2-4.9c1.4,6.7,2.8,13.6,1.5,20.3c-1.5,8.1-6.8,15.1-8.8,23.2c-0.5,2.1-0.8,4.3,0,6.3
			c12.1-8.1,20.8-21.2,23.6-35.5c1.1-5.9,1.3-12.1,0.1-18c-0.8-4-2.2-7.9-3.9-11.7c-2.8-6.4-6.8-13-13.3-15.7c-1.4-0.6-3-1-4.5-0.6
			s-2.7,2-2.4,3.5"/>
	</g>
	<path display="inline" fill="#BEBECE" d="M148.8,98.7c0.1-0.6,0.2-1.2,0.3-1.9c0.1-0.5,0.2-1,0.3-1.5c0.2-0.6,0.5-1.2,0.9-1.7
		c0.4-0.7,0.8-1.4,1.4-2c0.9-1,2.1-1.7,3.5-2.1c1.3-0.4,2.7-0.5,4.1-0.3c-1.8,0.7-3.6,1.5-5.1,2.7c-1.5,1.2-2.7,3-2.7,4.9
		c0.2-0.4,0.5-0.8,0.9-1.1c2-1.6,4.6-2.3,7.1-2.6c-1.2,0.4-2.3,1-3.3,1.7c-0.6,0.4-1.2,0.8-1.7,1.4c-0.5,0.5-0.9,1.2-1,1.9
		c-0.1,0.4-0.1,0.8-0.3,1.1c-0.2,0.3-0.6,0.5-1,0.6c-1.1,0.3-2.3-0.2-3-1.1"/>
	<path display="inline" fill="#FFFFFF" d="M89,179.6c5.4,6,13.2,9.2,20.9,11.6c3.4,1,6.8,1.9,10.4,2.3c8.1,0.8,16.4-1.3,23.5-5.3
		s13.2-9.8,18.1-16.3c3.8-4.9,7-10.4,8.4-16.5c1.3-5.6,0.9-11.5,0.2-17.2c-0.5-4.3-1.2-8.5-2.8-12.5c-2.5-5.9-6.9-10.7-11.3-15.3
		c-2-2.1-4-4.2-6.4-5.8c-5.7-3.8-12.8-4.3-19.5-4.8c-6.3-0.4-12.6-0.9-18.8-0.2c-6.3,0.7-12.5,2.5-17.6,6.2
		c-4.7,3.4-8.2,8.3-11.4,13.2c-1.9,2.9-3.7,5.9-5,9.1c-2.6,6.8-2.6,14.2-2.6,21.5c0,3.5,3.8,15.6,5.4,18c1.5,2.2,3,4.5,4.5,6.7
		C86.2,176,87.5,177.9,89,179.6z"/>
	<path display="inline" fill="#454466" d="M170,141.4c1.3-4,5.7-6.8,9.9-6.3c0.8,0.1,1.7,0.4,2.3,1c0.4,0.4,0.6,1,0.8,1.6
		c1,3.6,0.1,7.4-1,10.9c-0.6,1.9-1.3,3.9-2.6,5.4c-2.9,3.3-8.4,3.4-11.8,0.7"/>
	<path display="inline" fill="#454466" d="M117,172.1c1.3,1.4,3.3,1.5,5.2,1.5c2.3-0.1,4.7-0.5,6.6-1.9c0.3-0.2,0.6-0.5,1-0.5
		c0.4-0.1,0.8,0.2,0.8,0.6c0,0.2-0.2,0.4-0.3,0.6c-0.5,0.5-1,0.9-1.6,1.3c-3.6,2.3-8.5,2.3-12.1,0c-0.4-0.3-0.8-0.6-0.9-1.1
		c-0.1-0.5,0.3-1.1,0.8-0.9C116.7,171.7,116.8,171.9,117,172.1z"/>
	<g display="inline">
		<ellipse fill="#454466" cx="141.8" cy="145.2" rx="3.7" ry="4.7"/>
	</g>
	<g display="inline">
		<ellipse fill="#454466" cx="104.6" cy="145.5" rx="3.3" ry="4.2"/>
	</g>
	<path display="inline" fill="#BEBECE" d="M136.6,130.7c-0.3,0.1-0.7,0.4-0.7,0.7c0.1,0.4,0.6,0.5,0.9,0.6c2.9,0.3,5.7,1.6,7.9,3.6
		c0.4,0.4,0.9,0.8,1.4,0.6c0.3-0.1,0.5-0.5,0.5-0.8c0.1-0.6-0.2-1.2-0.6-1.6s-0.9-0.7-1.5-1c-1.2-0.6-2.4-1.2-3.7-1.6
		C139.5,130.6,138,130.2,136.6,130.7z"/>
	<path display="inline" fill="#FFFFFF" d="M69.7,161.8c1.2,0.4,2.6,0.6,3.9,0.4c2.9-0.6,4.8-3.6,5-6.6c0.2-2.9-0.9-5.8-1.9-8.6
		c-0.3-0.8-0.6-1.6-0.9-2.4c-0.7-1.9-1.6-4.1-3.5-4.9c-2.2-1-4.9,0.1-6.3,2s-1.8,4.4-1.9,6.8c-0.1,3.1,0.2,6.2,1.3,9.1
		c0.4,0.9,0.8,1.9,1.5,2.6C67.6,161,68.7,161.5,69.7,161.8z"/>
	<path display="inline" fill="#BEBECE" d="M149.2,98.5c-1.2-1.8-2.6-3.5-4.2-4.9c-2.6-2.3-5.7-4-9-5.2c-8.1-2.9-17.1-2.8-25.3-0.6
		c-8.3,2.3-15.9,6.6-22.7,11.8c-2.8,2.1-5.4,4.4-7.6,7.1c-4.1,5.2-8.3,12.7-8.8,19.3c-0.5,6.6,0.2,13.5,2.7,18.8
		c12.6-0.4,27-2.6,37.5-10.6c-0.9,4.4-6.5,8.5-8.7,9.8c-0.6,0.3-5,2.1-5.2,2.5c-0.2,0.4,6.2-0.7,7.2-1c12.6-3.7,22.6-12.1,31.6-21.7
		c5.6-5.9,11-12.5,13.1-20.3c0.2-0.8,0.4-1.6,0.3-2.4C150.1,100.1,149.7,99.2,149.2,98.5z"/>
	<path display="inline" fill="#454466" d="M67.4,153.9c0.3-1.2,0.7-2.3,1.4-3.4c0.3-0.4,0.5-1,0.9-1.2c0.5-0.3,0.9-0.4,1.4-0.4
		c0.4,0,0.8,0.1,1,0.4c0.3,0.3,0.7,0.6,0.9,1.3c0.3-0.7,0.5-1.1,0.4-1.8c-0.1-1-0.3-1.9-0.6-2.8c-0.8-1.9-2.4-2-3.6-1.4
		c-0.6,0.3-1.7,0.8-2.1,2.7c-0.1,0.8-0.3,2.1-0.4,2.9C66.9,151.3,67,152.6,67.4,153.9z"/>
	<path display="inline" fill="#BEBECE" d="M178.8,149.4c0,0.4-1,1.6-1.5,2c-1.4,1-3.2,0.9-4.8,0.6c0.5-1,0.5-0.8,0.7-2
		c0.7,0.2,0.4,0.1,0.8,0.2c0.7,0.2,1.4,0.1,2.1,0.1C176.7,150.3,178.1,149.9,178.8,149.4z"/>
	<g display="inline">
		<defs>
			<path id="SVGID_11_" d="M89,179.6c5.4,6,13.2,9.2,20.9,11.6c3.4,1,6.8,1.9,10.4,2.3c8.1,0.8,16.4-1.3,23.5-5.3
				s13.2-9.8,18.1-16.3c3.8-4.9,7.2-10,8.6-16c1.3-5.6,0.6-11.9,0-17.7c-0.5-4.3-1.2-8.5-2.8-12.5c-2.5-5.9-6.9-10.7-11.3-15.3
				c-2-2.1-4-4.2-6.4-5.8c-5.7-3.8-12.8-4.3-19.5-4.8c-6.3-0.4-12.6-0.9-18.8-0.2c-6.3,0.7-12.5,2.5-17.6,6.2
				c-4.7,3.4-8.2,8.3-11.4,13.2c-1.9,2.9-3.7,5.9-5,9.1c-2.6,6.8-2.6,14.2-2.6,21.5c0,3.5,3.8,15.6,5.4,18c1.5,2.2,3,4.5,4.5,6.7
				C86.2,176,87.5,177.9,89,179.6z"/>
		</defs>
		<clipPath id="SVGID_12_">
			<use xlink:href="#SVGID_11_"  overflow="visible"/>
		</clipPath>
		<path clip-path="url(#SVGID_12_)" fill="#454466" d="M169.2,159.6c0.2-0.5,0.6-1.2,0.8-1.7c0.8-1.8,1.5-0.2,2.7-0.1
			c4.7,0.2,9.1-1.1,11.2-7c1.5-4.2,2.8-7.8,3.1-12.3c0.1-1-0.3-3.6-0.8-4.6c-0.7-1.6-2.6-2.4-4.4-2.7s-3.8,0.3-5.6-0.1
			c-4.3-0.8-7.5-4.1-10.6-7c-3.8-3.5-6-7.1-10.5-9.6c-0.6-0.3-1.2-0.6-1.8-0.3c-0.7,0.4,0.4,4,0.8,4.7c7,13,9.6,21.6,9,33.3
			c-1.2,24.4-24.5,42.6-21,40.5c4.2-2.6,8.1-6,11.5-9.6C160.1,176.2,166.5,168.5,169.2,159.6z"/>
	</g>
	<path display="inline" fill="#BEBECE" d="M173.6,139.5c1-1,1.8-2.3,2.5-3.6c1.2-2.2,2.5-4.4,3-6.9c0.4-1.7,0.4-3.4,0.3-5.1
		c-0.2-3.5-1-7.1-2.3-10.4c-1.9-4.7-4.9-9-9-12c-4.1-2.9-9.4-4.4-14.4-3.5c-1.6,0.3-3.7,0.3-4.5,1.7c-0.7,1.2-0.1,3.3,0,4.7
		c0.2,1.7,0.4,3.3,0.8,5c0.4,1.7,1.1,3.2,1.7,4.8c2.2,5.5,4.5,11,7.9,15.7c2.9,4,6.5,7.4,10.7,10c0.4,0.2,0.8,0.5,1.3,0.5
		C172.4,140.5,173,140,173.6,139.5z"/>
	<g display="inline">
		<defs>
			<path id="SVGID_13_" d="M149.2,98.5c-1.2-1.8-2.6-3.5-4.2-4.9c-2.6-2.3-5.7-4-9-5.2c-8.1-2.9-17.1-2.8-25.3-0.6
				c-8.3,2.3-15.9,6.6-22.7,11.8c-2.8,2.1-5.4,4.4-7.6,7.1c-4.1,5.2-8.3,12.7-8.8,19.3c-0.5,6.6,0.2,13.5,2.7,18.8
				c12.6-0.4,27-2.6,37.5-10.6c-0.9,4.4-6.5,8.5-8.7,9.8c-0.6,0.3-5,2.1-5.2,2.5c-0.2,0.4,6.2-0.7,7.2-1
				c12.6-3.7,22.6-12.1,31.6-21.7c5.6-5.9,11-12.5,13.1-20.3c0.2-0.8,0.4-1.6,0.3-2.4C150.1,100.1,149.7,99.2,149.2,98.5z"/>
		</defs>
		<clipPath id="SVGID_14_">
			<use xlink:href="#SVGID_13_"  overflow="visible"/>
		</clipPath>
		<path clip-path="url(#SVGID_14_)" fill="#454466" d="M128,80.7c-1,4.7,0.4,6,1.9,11.4c1.3,4.6-0.1,11.3-2.2,17.4
			c1.2-1.5,5.8-5.2,5.4-7.6c1,4.6-0.6,11.1-2,16.2c-1.3,4.5-5.2,9.6-9.1,13.1c-4.1,3.7-14.5,12.4-8.1,13.7
			c5.7-2.9,11.5-5.8,16.7-9.5c5.2-3.7,10-8.2,13.2-13.7c2-3.5,3.4-7.4,4.5-11.3c0.5-2,1-3.9,1.2-6c0.2-3.8-0.8-7.5-1.8-11.2
			c-1.5-5-3.4-10.3-7.4-13.7c-1.9-1.6-4.3-2.7-6.8-2.7s-5,1.5-5.9,3.8"/>
	</g>
	<g display="inline">
		<defs>
			<path id="SVGID_15_" d="M174.1,139.8c1-1,1.9-2.3,2.6-3.6c1.2-2.2,1.9-4.7,2.5-7.2c0.4-1.7,0.4-3.4,0.3-5.1
				c-0.2-3.5-1-7.1-2.3-10.4c-1.9-4.7-4.9-9-9-12c-4.1-2.9-9.4-4.4-14.4-3.5c-1.6,0.3-3.7,0.3-4.5,1.7c-0.7,1.2-0.1,3.3,0,4.7
				c0.2,1.7,0.4,3.3,0.8,5c0.4,1.7,1.1,3.2,1.7,4.8c2.2,5.5,4.5,11,7.9,15.7c2.9,4,6.2,7.7,10.5,10.1c0.6,0.3,1.1,0.5,1.6,0.5
				C172.4,140.7,173.5,140.3,174.1,139.8z"/>
		</defs>
		<clipPath id="SVGID_16_">
			<use xlink:href="#SVGID_15_"  overflow="visible"/>
		</clipPath>
		<path clip-path="url(#SVGID_16_)" fill="#454466" d="M169.4,101.8c1.3,4.3,2.4,9,1.2,13.3c-0.6,2.1-1.7,4.1-2.5,6.2
			s-1.1,4.5-0.2,6.5c-0.9-1.2-1.6-2.4-2.2-3.8c-1.5,6.2,0.9,13.2,5.9,17.2c0.8,0.7,1.8,1.3,2.9,1.3c2.3,0.1,3.9-2.4,4.7-4.6
			c3-8.3,3.3-17.6,0.8-26.1c-1.2-4.1-3.2-8.3-7.1-10c-0.6-0.3-1.3-0.5-2-0.4c-0.7,0.2-1.3,0.8-1.2,1.5"/>
	</g>
	<path display="inline" fill="#454466" d="M126.8,157.7c-2.1-0.7-4-0.5-6.1,0.3c-0.3,0.1-0.8,0.7-0.9,1.1c-0.1,0.4,0.3,0.8,0.6,1
		c0.7,0.4,1.5,0.5,2.3,0.5c1.4,0,2.9,0,4-0.9c0.3-0.2,0.5-0.5,0.6-0.9C127.4,158.3,127.2,158.1,126.8,157.7"/>
</g>
<g id="Calque_5" display="none">
	<path display="inline" fill="#FFFFFF" d="M79.7,91.1c-2.3-2.8-4.8-5.7-8.1-7.1s-7.8-0.8-9.7,2.3c-1.2,2-1,4.6-0.4,6.9
		c0.7,2.3,1.8,4.4,2.6,6.6c0.6,1.9,0.9,3.8,1.8,5.5c0.9,1.7,2.3,3.1,3.8,4.3c2.4,1.9,5.4,3.5,8.4,3.1s5.8-3.6,4.8-6.5"/>
	<path display="inline" fill="#454466" d="M72.4,90c-0.3-0.4-0.8-0.5-1.2-0.6c-0.5-0.1-1-0.3-1.5-0.4c-1.1-0.3-2.4-0.6-3.4,0.1
		c-0.8,0.6-1.1,1.7-0.9,2.7c0.2,1,0.7,1.9,1.2,2.7s1.1,1.7,1.3,2.7c0.6-0.5,0.6-1.4,0.5-2.2c-0.1-0.8-0.2-1.7,0.4-2.2
		c0.4-0.4,0.9-0.5,1.5-0.4c0.5,0,1,0.2,1.6,0.3c0.1,0,0.3,0,0.4,0c0.3-0.1,0.4-0.4,0.4-0.7C72.8,91.3,72.9,90.5,72.4,90z"/>
	<g display="inline">
		<defs>
			<path id="SVGID_17_" d="M79.7,91.1c-2.3-2.8-4.8-5.7-8.1-7.1s-7.8-0.8-9.7,2.3c-1.2,2-1,4.6-0.4,6.9c0.7,2.3,1.8,4.4,2.6,6.6
				c0.6,1.9,0.9,3.8,1.8,5.5c0.9,1.7,2.2,3.2,3.7,4.4c2.4,1.9,5.4,3.5,8.4,3.1s5.8-3.7,4.8-6.6"/>
		</defs>
		<clipPath id="SVGID_18_">
			<use xlink:href="#SVGID_17_"  overflow="visible"/>
		</clipPath>
		<path clip-path="url(#SVGID_18_)" fill="#454466" d="M73.6,110.8c-0.6-0.1-1.2-0.3-1.7-0.5c-0.9-0.3-1.9-0.7-2.8-1
			c-0.1,0.2,0.1,0.4,0.2,0.6c2.1,2,5,3.5,7.9,3.3c0.7,0,1.2-0.1,1.8-0.5c-0.3-1.5-0.4-3-0.7-4.5c-0.1-0.3-0.3-0.7-0.5-0.5
			c-0.1,0-0.1,0.1-0.2,0.2c-0.2,0.5-0.2,0.7-0.3,1.2c0,0.1-0.1,0.5-0.3,0.7c-0.2,0.2-0.6,0.5-0.8,0.6
			C75.2,110.9,74.7,111,73.6,110.8z"/>
	</g>
	<g display="inline">
		<path fill="#FFFFFF" d="M140,157c10.8,4.4,21,10.1,30.4,16.8c-2.1,1.5-4.3,2.9-6.5,4.2c12.6,4.3,25.7,9,34.8,18.7
			c7.1,7.5,19.7,31.5,16.4,50.1c-28.1,7.1-58.3-2-86.9,2.2c-29.8,4.3-58.7,13.4-87.8,5.7c-5.6-1.5-22.4,3.7-26.2-0.6
			c-0.9-1-1.7-2.3-1.8-3.6c-0.1-1.3,0.5-2.5,1.1-3.7c3.2-6.3,16.2-34.4,19.8-40.4c4.4-7.3,12.4-21,20.2-24.4
			c7.4-3.3,18.4-5.3,25.6-8.9c-2.4-1.4-7.9-2-10.7-2.2c17.2-21.6,45.4-24.4,71.3-14.9"/>
	</g>
	<path display="inline" fill="#454466" d="M119.5,183.8c5.9,3.8,13.1,6.9,20.1,7.6c3,0.3,10.5,1.7,12.1-1.5
		c1.6-3.5-5.1-9.6-5.6-11.6c-1.1-4.6,1.1-8.1,6.2-5.7c2.5,1.2,4.2,0.9,5.3,0.4c1.8-0.7,3.3-2.2,5-4.7c-6.4-4.4-9.7-5.3-15.9-8.8
		c-1.2-0.7-2.3-1.3-3.6-1.7c-2.7-0.8-5.5-0.1-8.2,0.4c-10.1,1.9-20.8,2.5-30.5-0.8c-2.3-0.8-4.9-2.1-6.9-0.6
		C98.1,170.5,113.6,180,119.5,183.8z"/>
	<path display="inline" fill="#454466" d="M100.6,157.2c0.4,0.7,0.5,1.6,0.6,2.4c0.3,2.5,0.6,5,0.9,7.6c-2.3-1.5-3.5-4.2-4.5-6.8
		s-3.7-4.8-6.2-6c1.1-0.2,3.7-1.6,4.7-1.3c0.6,0.2,1.1,0.8,1.6,1.3C98.6,155.3,100,155.9,100.6,157.2z"/>
	<path display="inline" fill="#FFFFFF" d="M133.3,168c7.4-2.3,10.3-5.6,14.6-11.3c4.3-5.7,7.5-13,10.2-19.6
		c5.9-14.8,10-29.9,11-45.8c0.5-8.5-0.3-17.1-1.9-25.5c-0.7-3.5-1.6-7.1-3.3-10.2c-1.9-3.3-4.6-6-7.6-8.4
		C146,39.1,132.9,35.4,120,35.8c-12.9,0.4-21.8,5.4-32.6,12.3c-1.6,1-3.2,2.1-4.3,3.7c-1.1,1.7-1.5,3.7-1.9,5.7
		c-1.3,7.2-2.5,14.4-3.5,21.7c-0.7,4.7-1.3,9.4-1.3,14.1c0,3.8,0.4,7.6,1.1,11.3c2.9,16.8,4.3,35.5,14,49.6
		c3.3,4.8,7.7,8.8,13.3,10.4c5.4,1.6,9,3.1,13.1,3.8C121.8,169.3,129.3,169.2,133.3,168z"/>
	<path display="inline" fill="#FFFFFF" d="M166.7,91.1c1.8-3.3,4.4-6.2,7.6-8.4c2.6-1.9,6.3-3.2,8.9-1.3c1.5,1,2.2,2.8,2.4,4.6
		c0.2,1.8-0.2,3.6-0.6,5.3c-1.2,5.1-3,10.6-7.3,13.6c-4.1,2.7-10,2.3-13.7-0.9"/>
	<path display="inline" fill="#454466" d="M136.9,137.7c0.1-0.1,0.3-0.2,0.2-0.4c0-0.1-0.1-0.2-0.2-0.2c-2-1.6-4.9-1.3-7.4-1
		c-2,0.3-4,0.5-5.9,0.8c-1.1,0.1-2.2,0.3-3.3,0.3c-0.7,0-1.5-0.1-2.2,0c-1.5,0.1-3,0.6-4.3,1.3c-0.9,0.4-1.7,0.9-2.5,1.4
		c5,1,10.2,1.4,15.3,1.3c1.1,0,2.1-0.1,3.1-0.5c0.5-0.2,1-0.6,1.5-0.8c0.7-0.3,1.5-0.4,2.2-0.6C134.7,139,135.9,138.4,136.9,137.7z"
		/>
	<path display="inline" fill="#BEBECE" d="M145.2,84.3c0.5,0.1,1,0.1,1.3-0.1c0.4-0.3,0.2-0.8-0.2-1.1c-1.5-1.2-4.1-1.4-6.4-1.2
		c-1.5,0.1-2.8,0.5-3.5,1.4c-0.5,0.7-0.7,1.3,0.4,1.4c0.9,0.1,2.3-0.4,3.2-0.6C141.7,83.9,143.5,84.1,145.2,84.3z"/>
	<path display="inline" fill="#BEBECE" d="M97.8,88.7c-0.2-0.9,0.3-1.7,1-2.4c1-1,2.4-1.6,3.8-1.7c1.4-0.2,2.9,0,4.2,0.3
		c0.6,0.1,1.3,0.4,1.7,0.9s0.2,1.5-0.5,1.6c-0.2,0-0.3,0-0.5,0c-2.3-0.4-4.7-1-6.9-0.1C99.8,87.7,98.9,88.5,97.8,88.7z"/>
	<path display="inline" fill="#454466" d="M142.7,137.7c0.5,0,0.9,0,1.3-0.2c0.4-0.2,0.7-0.6,0.8-1.1c-0.1,0.2-0.2,0.3-0.4,0.4
		c-0.2,0-0.4,0-0.6,0c-1.2-0.3-2.2-0.9-3.3-1.5c-1.7-0.9-3.5-1.7-5.3-2.2c-0.1,0.2,0,0.5,0.1,0.7c0.2,0.3,0.5,0.5,0.8,0.6
		c1.2,0.7,2.4,1.4,3.7,2.1C140.6,137.1,141.6,137.6,142.7,137.7z"/>
	<g display="inline">
		<defs>
			<path id="SVGID_19_" d="M131.5,168.4c12-4.4,11.8-5.7,16.8-12c4.4-5.6,6.9-11.7,9.5-18.3c5.9-14.8,10.5-30.6,11.3-46.8
				c0.4-8.5-0.3-17.1-1.9-25.5c-0.7-3.5-1.6-7.1-3.3-10.2c-1.9-3.3-4.6-6-7.6-8.4c-10.2-7.9-23.3-11.7-36.2-11.3
				c-12.9,0.4-21.8,5.4-32.6,12.3c-1.6,1-3.2,2.1-4.3,3.7c-1.1,1.7-1.5,3.7-1.9,5.7c-1.3,7.2-2.5,14.4-3.5,21.7
				c-0.7,4.7-1.3,9.4-1.3,14.1c0,3.8,0.4,7.6,1.1,11.3c2.9,16.8,7.2,33.9,16.9,48c3.3,4.8,6.1,8,11.2,10.8c3.6,2,7.7,3,11.8,3.7
				C121.4,167.8,127.6,169.8,131.5,168.4z"/>
		</defs>
		<clipPath id="SVGID_20_">
			<use xlink:href="#SVGID_19_"  overflow="visible"/>
		</clipPath>
		<path clip-path="url(#SVGID_20_)" fill="#454466" d="M152.7,67.5c1.8,6.9,9.9,15.6,9.9,25.5c0,22.2-5.2,37.6-8.1,47.1
			c-2.2,7.3-8.1,18.9-14.6,24.9c1.6-0.8,5.5-4.5,6.1-5.2c4.1-4.5,6.5-9.5,8.9-15.1c1.2-2.8,4-8,4.9-10.9c3.3-9.9,5.9-17.7,7.6-28.2
			c4.5,2,10.2,0,13.4-3.8c3.1-3.8,4.4-8.8,5.1-13.7c0-0.3,0-1.6-1.1-1.8c-2.4-0.4-1.4-3.1-3.2-4.7c-1.2-1.1-5-0.2-6.6-0.6
			c-1.3,0.9-2.5,1.6-3.7,1.7c-1,0.1-1.9-0.4-2.8-1c-2.4-1.6-4.4-3.7-6.4-5.8c-2.1-2.2-4.1-4.3-6.2-6.5c-0.3,1.6-0.1,3.4,0.6,4.9"/>
		<path clip-path="url(#SVGID_20_)" fill="#454466" d="M158,130.3c2.3-2.7,2.7-6.5,3.8-9.9c0.5-1.7,1.2-3.3,1.6-5
			c0.3-1.7-0.4-7.3-1.4-8.8c-0.4,4.7-1.3,4.7-2.6,5.4c-1,0.6-1.6,1.7-1.9,2.8c-0.3,1.1-0.2,2.3-0.2,3.4c0.1,3.2,0.1,6.3-0.9,15.5
			C156.4,134.5,157.4,129.7,158,130.3z"/>
	</g>
	<g display="inline">
		<defs>
			<path id="SVGID_21_" d="M166.7,91.1c1.8-3.3,4.4-6.2,7.6-8.4c2.6-1.9,6.3-3.2,8.9-1.3c1.5,1,2.2,2.8,2.4,4.6
				c0.2,1.8-0.2,3.6-0.6,5.3c-1.2,5.1-3,10.6-7.3,13.6c-4.1,2.7-10,2.3-13.7-0.9"/>
		</defs>
		<clipPath id="SVGID_22_">
			<use xlink:href="#SVGID_21_"  overflow="visible"/>
		</clipPath>
		<path clip-path="url(#SVGID_22_)" fill="#454466" d="M173.4,81c0.1,1.3,0.3,2.7,0.8,3.9s1.5,2.3,2.7,2.7c1.7,0.5,3.5-0.4,5.1-1.2
			c1.3-0.6,2.7-1.1,4.1-1.3c0.8-0.1,1.7-0.1,2.5,0.2c1.1,0.5,1.8,1.7,2,2.9c0.2,1.2,0,2.4-0.4,3.6c-0.7,2.4-1.8,4.7-3.1,6.9
			c-1.4,2.4-2.8,4.7-4.5,7c-0.8,1.2-1.7,2.3-2.9,3.2c-1.6,1.1-3.6,1.5-5.6,1.8c-1.5,0.2-3,0.5-4.5,0.3c-1.5-0.2-3-0.8-4-1.9
			c-1.3-1.5-1.5-3.7-1.6-5.7c-0.1-5.7,0.6-11.4,2.5-16.8c1.1-3.1,2.8-6.3,5.7-7.9c0.3-0.2,0.8-0.3,1.1-0.1c0.2,0.1,0.2,0.3,0.3,0.5
			c0.2,0.8,0.2,1.7,0,2.6"/>
	</g>
	<path display="inline" fill="#BEBECE" d="M97.2,105.8c2.5,1.4,5,1.7,7.4,0.1c2.4-1.6,3.4-4.8,2.7-7.6c-0.6,2.4-2.7,4.4-5.2,4.9
		c-1.3,0.3-2.7,0.1-4.1,0.2c-0.8,0-1.7,0.3-1.8,1.1C96.1,105,96.7,105.5,97.2,105.8"/>
	<path display="inline" fill="#BEBECE" d="M147.5,104.8c-2.5,1.4-5,1.7-7.4,0.1s-3.4-4.8-2.7-7.6c0.6,2.4,2.7,4.4,5.2,4.9
		c1.3,0.3,2.7,0.1,4.1,0.2c0.8,0,1.7,0.3,1.8,1.1C148.5,104,147.9,104.4,147.5,104.8"/>
	<path display="inline" fill="#454466" d="M104.4,91.4c-2.6,0.2-4.2,3.9-4.4,7c-0.1,1.5,0.1,3.2,1.4,4.3c0.4,0.3,1.2,0.8,1.7,0.8
		c0.9,0.2,1.7-0.3,2.6-0.8c0.8-0.5,1.3-1.6,1.7-2.6c0.7-2,0.7-4.9-0.2-6.7C106.4,91.9,105.4,91.4,104.4,91.4z"/>
	<path display="inline" fill="#454466" d="M137.2,99.2c0.3-4.3,2.4-7.5,3.7-7.7c1.5-0.2,3.1,0.5,3.7,2.4c0.6,1.8,0.3,4-0.1,5.8
		c-0.3,1.1-0.7,2.2-1.5,2.8c-0.8,0.5-1.9,0.8-2.8,0.6c-1.1-0.3-2.2-1.2-2.7-2.5c-0.3-0.6-0.3-1.4-0.2-2.1"/>
	<path display="inline" fill="#BEBECE" d="M86.9,85.4c-1.6,2-2.7,4.6-2.9,7.4c-0.4,5,1.8,10,0.8,14.9c-0.4-1.4-0.8-2.7-1.3-4.1
		c0.1,1.6-0.1,3.2-0.6,4.6c-0.1-1.3-0.4-2.6-0.7-3.8c-0.3,3.4-2.4,6.5-5.2,7.5c0.2-5.1-1.5-9.9-2-15c-0.3-2.8,0-6.1,1.8-7.9
		c0.8-0.8,1.7-1.2,2.6-1.6c1.9-0.9,3.9-1.7,5.8-2.6c0.3-0.1,0.7-0.3,1-0.2c0.3,0.1,0.6,0.5,0.5,0.9"/>
	<path display="inline" fill="#BEBECE" d="M53.7,79.1c4.2,2.9,9.8,2.5,14.9,2c-2.7,2.2-8,2.5-11.4,2.8c4.1,3.9,12.3,7.9,17.9,6.6
		c5.5-1.3,12.3-3.1,17.5-5.3c7-3.1,12.9-8.5,19.6-12.3c11.9-6.8,20.5-19.1,22.8-32.6c0.3-1.5,0.4-3.1,0-4.6
		c-0.3-1.3-1.1-2.5-1.9-3.6c-2.1-3-4.8-5.8-8.1-7.3c-3.1-1.5-6.6-1.8-10.1-1.6C97.7,23.7,81.2,35,74.5,50.9
		c-1.1,2.5-1.9,5.1-2.9,7.6C68.2,67.3,62.4,75.6,53.7,79.1z"/>
	<g display="inline">
		<defs>
			<path id="SVGID_23_" d="M53.7,79.1c4.2,2.9,9.8,2.5,14.9,2c-2.7,2.2-8,2.5-11.4,2.8c4.1,3.9,12.3,7.9,17.9,6.6
				c5.5-1.3,12.3-3.1,17.5-5.3c7-3.1,12.9-8.5,19.6-12.3c11.9-6.8,20.5-19.1,22.8-32.6c0.3-1.5,0.4-3.1,0-4.6
				c-0.3-1.3-1.1-2.5-1.9-3.6c-2.1-3-4.8-5.8-8.1-7.3c-3.1-1.5-6.6-1.8-10.1-1.6C97.7,23.7,81.2,35,74.5,50.9
				c-1.1,2.5-1.9,5.1-2.9,7.6C68.2,67.3,62.4,75.6,53.7,79.1z"/>
		</defs>
		<clipPath id="SVGID_24_">
			<use xlink:href="#SVGID_23_"  overflow="visible"/>
		</clipPath>
		<path clip-path="url(#SVGID_24_)" fill="#454466" d="M129.6,25.1c-3.4,4.6-3.6,10.8-6.6,15.7c-2.4,3.9-6.3,6.6-10,9.4
			c-3.6,2.8-7.2,6.1-8.4,10.6c1.2-0.8,2.4-1.6,3.6-2.4c-1.5,4.8-5.6,8.3-9.9,10.9s-8.9,4.8-12.6,8.2c-3.6,3.5-6.1,8.8-4.4,13.5
			c13.1-4,26.2-8.6,37.9-15.9c4.3-2.7,8.4-5.7,11.3-9.8c3.3-4.8,4.8-10.8,4-16.5c-0.1-0.7-0.2-1.5-0.1-2.2c0.1-0.8,0.5-1.6,0.9-2.3
			c2-4.4,2.3-9.5,0.9-14.2c-0.6-1.8-1.5-3.7-3.1-4.6s-4.2-0.5-4.9,1.2"/>
	</g>
	<path display="inline" fill="#BEBECE" d="M158.7,81.2c2.6,4.8,3.4,10.6,2.2,15.9c-0.4,1.6-0.9,3.1-0.9,4.7c-0.1,2.3,0.9,4.5,2.6,6
		c-0.4-1.2-0.4-2.5,0-3.7c0.1,1.7,0.9,3.3,2.2,4.4c-0.4-1-0.5-2.1-0.4-3.2c0.6,1.2,1.7,2.1,3,2.7s2.6,0.7,4,0.8
		c-1.1-0.3-1.8-1.4-2-2.5c-0.3-1.4,0-2.9,0.3-4.3c0.6-2.3,1.3-4.5,1.7-6.8c0.4-2.3,0.5-4.7-0.2-6.9c-0.5-1.5-1.3-2.9-2.2-4.2
		c-1.4-2-3.2-4-5.6-4.7c-0.9-0.3-2-0.3-2.9,0.1c-0.9,0.4-1.6,1.4-1.4,2.4"/>
	<g display="inline">
		<defs>
			<path id="SVGID_25_" d="M86.9,85.4c-1.6,2-2.7,4.6-2.9,7.4c-0.4,5,1.8,10,0.8,14.9c-0.4-1.4-0.8-2.7-1.3-4.1
				c0.1,1.6-0.1,3.2-0.6,4.6c-0.1-1.3-0.4-2.6-0.7-3.8c-0.3,3.4-2.4,6.5-5.2,7.5c0.2-5.1-1.5-9.9-2-15c-0.3-2.8,0-6.1,1.8-7.9
				c0.8-0.8,1.7-1.2,2.6-1.6c1.9-0.9,3.9-1.7,5.8-2.6c0.3-0.1,0.7-0.3,1-0.2c0.3,0.1,0.6,0.5,0.5,0.9"/>
		</defs>
		<clipPath id="SVGID_26_">
			<use xlink:href="#SVGID_25_"  overflow="visible"/>
		</clipPath>
		<path clip-path="url(#SVGID_26_)" fill="#454466" d="M81.1,86.9c-0.4,0.9-0.4,1.9-0.2,2.8c0.2,0.8,0.5,1.5,0.8,2.3
			c0.6,2.1,0.1,4.3-0.5,6.4c1.1-0.9,2-1.9,2.7-3.1c-0.4,1.1-0.9,2.2-1.3,3.2c1.8-1.2,2.5-3.4,2.8-5.5c0.2-1.2,0.4-2.3,0.5-3.5
			c0.1-0.7,0.1-1.4,0-2s-0.5-1.3-1.1-1.6c-0.6-0.3-1.4-0.2-2.1,0.1c-0.6,0.3-1.2,0.8-1.7,1.4"/>
	</g>
	<path display="inline" fill="#BEBECE" d="M153.4,76.8c-2.4-2.5-4.5-4.9-6.5-7.7c-6.6-9.3-11.4-19.7-14.3-30.7
		c2.4-2.8,4.9-5.6,7.9-7.6c3.1-2,6.9-3.1,10.5-2.2c2.3,0.6,4.3,2,6.1,3.5c3.7,3.2,6.7,7.1,8.8,11.6c5.2,11.1,5.6,23.8,6.3,36.1
		c0.3,4.4,0.8,9.5,3.2,10.9c-2.1,0.1-5.3-2.6-6-4.9c0.4,2.1-0.4,3.4,4.7,7.7C167.6,91.5,158.8,82.8,153.4,76.8"/>
	<g display="inline">
		<defs>
			<path id="SVGID_27_" d="M153.4,76.8c-2.4-2.5-4.5-4.9-6.5-7.7c-6.6-9.3-11.4-19.7-14.3-30.7c2.4-2.8,4.9-5.6,7.9-7.6
				c3.1-2,6.9-3.1,10.5-2.2c2.3,0.6,4.3,2,6.1,3.5c3.7,3.2,6.7,7.1,8.8,11.6c5.2,11.1,5.7,23.7,6.4,36c0.3,4.4,2.1,10.9,4.2,12
				c-2.4,0.5-6.4-3.4-7.1-5.7c-0.5,2.1-0.5,3.2,4.7,7.5C167.6,91.5,158.8,82.8,153.4,76.8"/>
		</defs>
		<clipPath id="SVGID_28_">
			<use xlink:href="#SVGID_27_"  overflow="visible"/>
		</clipPath>
		<path clip-path="url(#SVGID_28_)" fill="#454466" d="M156.5,19.5c-3.2,1.2-5.1,4.6-5.4,7.9s0.8,6.7,2.1,9.8c1.4,3.1,3,6.1,4,9.3
			c-2.2-1.1-4.2-2.7-5.7-4.6c0.4,1.1,1.1,2,1.6,3c4.8,8.4,5,18.7,9.5,27.3c1.8,3.5,4.3,6.6,5.7,10.3c0.8,2.2,1.3,4.6,2.4,6.7
			c1.1,2.1,3.3,3.9,5.7,3.6c2.2-0.2,3.8-2.1,4.7-4.1c0.8-1.9,1.1-3.9,1.2-6c2-22.1-5.7-44.9-20.6-61.3c-0.9-1-1.9-2-3.2-2.5
			c-1.3-0.4-3-0.1-3.6,1.1"/>
	</g>
	<g display="inline">
		<defs>
			<path id="SVGID_29_" d="M153.4,76.8c-2.4-2.5-4.5-4.9-6.5-7.7c-6.6-9.3-11.6-19.7-14.4-30.7c2.4-2.8,5-5.6,8.1-7.5
				c3.1-2,6.9-3.1,10.5-2.2c2.3,0.6,4.3,2,6.1,3.5c3.7,3.2,6.7,7.1,8.8,11.6c5.2,11.1,5.6,23.8,6.3,36.1c0.3,4.4,0.8,9.5,3.2,10.9
				c-2.1,0.1-5.3-2.6-6-4.9c0.4,2.1-0.4,3.4,4.7,7.7C167.6,91.5,158.8,82.8,153.4,76.8"/>
		</defs>
		<clipPath id="SVGID_30_">
			<use xlink:href="#SVGID_29_"  overflow="visible"/>
		</clipPath>
		<path clip-path="url(#SVGID_30_)" fill="#454466" d="M135.6,33.2c-0.5,2.1-0.5,4.4,0.1,6.5c0.5,1.9,1.5,3.8,1.7,5.7
			s-0.5,4.3-2.4,5c-3.6-5-4-12-1-17.4c0.2-0.4,0.6-0.9,1-0.8c0.7,0,0.9,1.1,0.7,1.8"/>
	</g>
	<path display="inline" fill="#BEBECE" d="M135.4,133.2c0.7,1.1,1.2,2.6,0.3,3.5c-0.8,0.8-2.1,0.5-3-0.1c-0.9-0.7-1.5-1.6-2.3-2.3
		c0.3,1.3-0.1,2.7-1.1,3.5c-0.3,0.2-0.6,0.4-1,0.4c-0.6,0-1-0.5-1.2-1s-0.1-1.1,0-1.6c-0.1,1.8-1.9,4-3.1,4c-0.7-0.2-0.4-2.4,0-3.3
		c-0.7,1.2-1.8,2.3-3.1,2.9c-1,0.5-2.6,0.6-3-0.5c-0.3-0.9,0.4-1.7,1.1-2.4c-3.4,1.7-10,4.7-10.9,3.5c0,0-0.2-0.3-0.2-0.4
		c-0.2-0.8,0.2-1.9,1-2.3c-1.8,1-3.6,2.1-5.7,2.2c-0.4,0-0.8,0-1.2-0.2c-0.8-0.5-0.4-1.8,0.2-2.5c1.7-2.1,4.1-3.3,6.6-4.3
		c4.1-1.6,5.2-1.9,7.8-2.8c1.4-0.5,2.6-0.8,4-1.2c1.6-0.4,4,0,5.6,0c6.5,0,13.3,1.6,17.9,6.1c0.4,0.4,0.8,0.9,0.8,1.5
		c-0.1,0.6-0.7,1.1-1.3,1.1c-0.6,0.1-1.2-0.2-1.8-0.4C139.5,135.6,137.4,134.5,135.4,133.2z"/>
	<path display="inline" fill="#454466" d="M115.4,119.7c0.4-1.3,1.6-0.6,2.4-0.6c1.8,0,2.5,0.9,4.2,0.9c1.6,0,2.2-1.1,3.6-1.1
		c0.2,0,1.9,0.3,2.1,0.2c0.1-0.1,0.4-0.8,0.5-0.9c0.4-2.2-1.5-4.6-0.9-6.8c0.1-0.3,0.2-0.6,0.5-0.7c0.5-0.2,0.9,0.4,1.1,0.9
		c0.9,2.1,2.1,4.1,3.5,5.9c1.5,1.8,3.3,3.6,3.6,5.9c0,0.2,0,0.4-0.1,0.5c-0.1,0.1-0.2,0.2-0.3,0.2c-1.6,0.9-3.7,0.6-5.5,0
		c-1.8-0.6-3.5-1.6-5.3-1.9c-1.7-0.3-3.4,0-5.1-0.1C118,122,115.4,121,115.4,119.7z"/>
</g>
<g id="Calque_6">
	<path fill="#FFFFFF" d="M60.4,110.9c0.6,8.1-1.3,16.2-1.5,24.3c-0.3,10.2-0.2,22.6,4.4,31.7c0.2,0.3,0.3,0.7,0.6,0.8
		c0.4,0.2,0.9,0.2,1.4,0.1c3.3-0.2,7.4,1.5,10.9,2.3c2.1,0.5,4,1.5,6.1,1.7c3.3,0.3,6.7-0.6,9.8-1.5c-1.6-3.4-1.9-6.7-1.7-10.4
		c0.2-3.7,0.8-7.4,1-11.1c0.5-11.7-3.8-23-8.5-33.7c-1.1-2.5-2.3-5.2-4.4-6.9c-1.9-1.6-4.4-2.3-6.8-2.7c-2.8-0.5-5.8-0.6-8.5,0.5
		c-1.1,0.4-2.1,1.1-2.7,2c-0.6,1-0.8,2.3-0.1,3.2"/>
	<path fill="#BEBECE" d="M141.3,141.2c12.4,3,21.3,13.5,32.2,20.2c2.6,1.6,5.4,3,7.8,5.1c2.3,2,4.2,4.5,6,7
		c6.8,9.5,22.3,24.2,27.3,75.9c0.3,2.9,11.9,4.2,10.6,6.8c-0.7,1.4-2,2.4-3.3,3.3c-10.8,7.1-44.5-14.7-57.4-14
		c-18.9,1-36.2,0.6-55,3.3c-24.6,3.6-61.9,12.6-86.4,8.7c-2.1-0.3-4.3-0.8-5.9-2.2c-3.3-3.1-1.7-8.4,0-12.5
		c4.1-9.5,20.5-46.4,24.5-55.9c1.9-4.4,3.7-8.8,6.6-12.6c3.5-4.7,10-12.3,14.7-15.7c8.6-6.2,15.6-8.1,24.4-14.1
		c3.5-2.3,7-4.7,11.1-5.7c5.9-1.4,12.1,0.5,18.1,0.5c5.3,0,10.5-1.3,15.8-1.4c5.3,0,11.1,1.6,13.9,6"/>
	<g>
		<defs>
			<path id="SVGID_31_" d="M141.3,141.2c12.4,3,21.3,13.5,32.2,20.2c2.6,1.6,5.4,3,7.8,5.1c2.3,2,4.2,4.5,6,7
				c6.8,9.5,32.1,63.6,36.9,74.3c1.2,2.7,2.2,5.8,0.9,8.4c-0.7,1.4-2,2.4-3.3,3.3c-10.8,7.1-43.1-38.3-56-37.6
				c-18.9,1-37.4,5.7-56.2,8.5C85,234,47.5,261.5,23,257.6c-2.1-0.3-4.3-0.8-5.9-2.2c-3.3-3.1-1.7-8.4,0-12.5
				c4.1-9.5,20.5-46.4,24.5-55.9c1.9-4.4,3.7-8.8,6.6-12.6c3.5-4.7,10-12.3,14.7-15.7c8.6-6.2,15.6-8.1,24.4-14.1
				c3.5-2.3,7-4.7,11.1-5.7c5.9-1.4,12.1,0.5,18.1,0.5c5.3,0,10.5-1.3,15.8-1.4c5.3,0,11.1,1.6,13.9,6"/>
		</defs>
		<clipPath id="SVGID_32_">
			<use xlink:href="#SVGID_31_"  overflow="visible"/>
		</clipPath>
		<path clip-path="url(#SVGID_32_)" fill="#454466" d="M93,139.1c-3.9,1.1-7.8,3.7-8.5,7.7c-0.7,3.9,2.1,7.6,5.2,10.1
			c8.1,6.5,19.1,8.4,29.6,8.4c4.8,0,9.6-0.4,14.4,0.3c2.4,0.3,4.9,1.1,6.4,3c1,1.3,1.4,3.1,2.4,4.5c2.5,3.7,7.9,3.8,12.3,3.1
			c12.3-2.1,24.6-8.1,30.7-18.9c1.2-2.1,2.1-4.4,2.1-6.9c0-3-1.4-5.9-3.5-8.1s-4.7-3.7-7.4-5c-11.7-5.5-25-6.1-38-7
			c-9.1-0.6-18.3-1.5-27.1,0.8c-7,1.8-13.3,5.4-19.5,9"/>
	</g>
	<path fill="#FFFFFF" d="M122.8,64.9c-0.8-1.7,0.1-3.8,1.3-5.3c4.6-6.1,12.5-8.6,19.9-10.3c5.9-1.4,12.2-2.5,17.8-0.3
		c4.6,1.8,10,5.1,13.1,9c2.4,3,4.6,6.1,6.1,9.7c3.9,9,3.4,19,2.6,28.5s-2.9,19-3.4,28.6c-0.7,12.7,1.3,25.4,0.2,38
		c-0.1,1.1,0.4,3.1-0.1,4c-1.6,3-5.5,3.8-8.9,3.9c-3.5,0.1-6,0-11.2,0c-0.9,0-4-0.2-4.9-0.4c-1.5-0.3-1.7-0.6-2-2.1
		c-1.2-5.9-0.5-14.3,0.4-20.2c1.1-7.7,3.2-13.2,3-21c-0.1-7.2,0.2-14.3-0.6-21.4c-0.8-7.1-2.6-14.3-6.7-20.2
		c-5.8-8.3-15.2-13.2-24-18.2C124.4,66.7,123.3,66,122.8,64.9z"/>
	<path fill="#BEBECE" d="M158.8,139.8c7.7-10,12.3-21.6,10.8-33.5c-0.7-5.5-2.7-10.7-4.8-15.8c-1.6-3.8-3.3-7.7-6-10.9
		c-2.4-2.8-5.6-4.9-8.8-6.8c-14.4-8.4-32.2-13.1-48-7.7c-4.4,1.5-8.5,3.7-12.6,5.9c-1.5,0.8-3,1.6-4.3,2.7c-1.5,1.2-2.7,2.7-4,4.2
		c-1.6,1.9-3.3,3.8-4.8,5.9c-8,10.8-10.3,25.5-6.3,38.3c4,12.8,14.2,23.5,26.7,28.3c2.9,1.1,6,2,9,2.7c8.3,2,18.1,2.8,26.5,1.1
		c5.3-1.1,8.7-2.4,12.3-3.9c2.7-1.1,4.4-1.9,6.7-3.7C154,144.5,156.7,142.4,158.8,139.8z"/>
	<path fill="#454466" d="M141.2,107.4c0.6,0.6,1.5,1,2.4,0.9c1.1-0.2,1.8-1.1,2.3-2.2c0.1-0.3,0.3-0.6,0.4-1c0.8-2.6,0-7.8-3.8-5.7
		C140,100.9,139.2,105.3,141.2,107.4z"/>
	<path fill="#454466" d="M96.4,101.7c-0.3,1-0.6,2-0.6,3.1c0.1,1.4,0.8,2.7,2,3.4c1.2,0.7,2.8,0.6,3.9-0.3c1.2-1,1.6-2.6,1.7-4.1
		c0.1-0.8,0.1-2-0.1-2.7c-0.2-0.5-0.7-1.3-1.2-1.6c-0.6-0.4-1.1-0.8-2.1-0.8c-0.8,0-1.8,0.4-2.4,0.8C96.9,100,96.6,100.9,96.4,101.7
		z"/>
	<path fill="#BEBECE" d="M180.9,101c0.1,2.7,0.2,5.3-0.3,8c-0.4,2.1-1.1,4.3-2.5,6c-1.4,1.7-3.4,2.9-5.6,3c-2.2,0.1-4.4-1.1-5.3-3.1
		c-0.4-1-0.5-2-0.6-3c-0.4-2.5-1.1-5-2.3-7.2c1.2-2,2.2-4.2,3.5-6.1c1.3-1.9,3.1-3.7,5.4-4.4c2.2-0.7,5-0.1,6.4,1.8
		C180.7,97.3,180.9,99.2,180.9,101z"/>
	<path fill="#FFFFFF" d="M129.2,58.3c-1.1-2.8-4.1-5.7-6.7-7.1s-6.1-2.9-9.1-3.4c-10.4-1.8-21-1-31,2.3c-2.4,0.8-5,2.4-7.1,3.9
		c-1.8,1.3-4.9,3.8-6.3,5.5C63.7,65.5,60.5,73,59.1,81c-1.5,8.7,1.2,17.6,4.1,25.9c0.2,0.6,0.4,1.2,0.8,1.8c1.2,1.6,4.2-8.1,5.5-6.6
		c6.1-2.1,6.2-3.6,7.4-4.6c0.5-0.4,2-1.7,2.6-1.9c1.5-0.5,2.1-0.4,3.4-0.6c9.7-1.6,15.2-4.4,22.4-9.4c2.8-2,5.6-3.9,8.5-5.9
		c2.6-1.8,5.2-3.6,7.3-6c2.8-3.1,4.7-6.9,6.4-10.7c0.3-0.6,0.6-1.3,0.7-2C128.3,60.1,129.5,59.1,129.2,58.3z"/>
	<path fill="#BEBECE" d="M69.6,102c-1.7-1.3-3.5-2.7-5.2-4c-0.8-0.6-1.6-1.2-2.5-1.4c-2.1-0.4-4,1.4-4.9,3.3c-1,2-1.4,4.3-1.2,6.5
		c0.3,3,1.6,5.8,3,8.5c0.4,0.9,0.9,1.8,1.6,2.5c1,1,2.6,1.5,4,1.2c1.4-0.3,2.7-1.2,3.3-2.5c0.2-0.4,0.3-0.8,0.6-1
		c0.3-0.3,0.7-0.4,1-0.7c1-0.8,0.8-2.4,0.6-3.6"/>
	<path fill="#454466" d="M60.2,109.6c-1-2.5-1.8-5.7-0.2-8c1.1-0.5,2.4,0,3.6,0.6c0.9,0.5,1.9,1,2.8,1.4c0.2,0.1,0.4,0.2,0.4,0.4
		c0.1,0.1,0,0.3,0,0.4c-0.1,0.6-0.2,1.2-0.3,1.8c-1.2-0.3-2.3-0.8-3.3-1.4c-0.4-0.2-0.8-0.5-1.2-0.5c-0.7,0-1.2,0.9-1.4,1.6
		C60.3,107.1,60.1,108.3,60.2,109.6z"/>
	<path fill="#FFFFFF" d="M143.6,90c-0.8-0.4-1.7-0.8-2.6-0.8c-0.9,0-1.9,0.5-2.2,1.4c-0.1,0.4-0.1,0.8,0.2,0.9
		c0.4,0.1,3.5,0.1,4.9,1c1.2,0.8,2.3,2,3.7,1.8c0.5-0.6,0.3-1.6-0.2-2.2c-0.5-0.6-1.3-1-2-1.3C144.9,90.5,144.3,90.3,143.6,90z"/>
	<path fill="#FFFFFF" d="M94.8,92.9c0.7-0.3,1.4-0.5,2.1-0.6c1.2-0.3,2.3-0.6,3.5-0.9c0.4-0.1,0.9-0.2,1.3-0.2s0.9,0.3,1,0.8
		c0.1,0.4,0.3,0.9,0,1.3c-0.2,0.4-0.4,0.3-1.6,0.3c-2-0.1-3.3,0.1-4.8,1c-0.6,0.4-1.1,0.9-1.6,1.3c-0.4,0.3-0.9,0.5-1.4,0.5
		c-0.5,0-1-0.3-1.2-0.8c-0.2-0.6,0.4-1.3,0.9-1.7C93.6,93.6,94.2,93.2,94.8,92.9z"/>
	<path fill="#454466" d="M147.7,109.7c0.1,0,0.2-0.1,0.3,0c0.1,0,0.1,0.1,0.1,0.1c0.3,0.6,0,1.4-0.4,1.9c-1.2,1.7-3.4,2.6-5.4,2.5
		c-0.8,0-5.1-1.4-4.1-2.8c0.6-0.8,3.8,0.8,4.5,1c1.1,0.2,2.5,0.1,3.4-0.6C146.7,111.2,146.9,110.1,147.7,109.7z"/>
	<path fill="#454466" d="M102.7,110.6c-0.3,0.7-0.3,0.6-0.7,1.3c-0.4,0.6-0.8,1.1-1.4,1.5c-0.5,0.4-1.2,0.7-1.8,1
		c-1.3,0.5-2.8,0.8-4.2,0.8c-1.4,0-3-0.5-3.6-1.8c0-0.1,0-0.4,0-0.6c0-0.1,0.2-0.4,0.3-0.4c0.9-0.4,1.9,0,2.9,0.1
		c0.8,0.1,1.6,0.2,2.4,0.2c0.6,0,1.1,0,1.6-0.3c0.5-0.2,0.9-0.5,1.2-0.9c0.6-0.6,1.2-1.3,1.8-2c0.2-0.3,0.4-0.6,0.8-0.6
		c0.4,0,0.7,0.4,0.7,0.7C102.9,109.9,102.9,110.3,102.7,110.6"/>
	<path fill="#FFFFFF" d="M169.7,108c0.4,2,1.2,2,1.8,1.9c1-0.2,1.5-0.5,2-0.8c1.3-0.9,2.8-1.7,3.6-3.3c0.4,3.3-2.6,7.3-6,7.2
		c-0.4,0-1-0.1-1.2-0.4c-0.2-0.2-0.2-0.5-0.3-0.7C169.1,110.4,169.6,109.2,169.7,108"/>
	<path fill="#454466" d="M132.6,130c0.1,0.3-0.2,1-0.9,1.3c-4.4,1.7-6.8,2.7-12.2,2.6c-2.6-0.1-3.6-0.3-4.7-0.6
		c-1.4-0.4-2.1-0.7-3.2-1.7c-0.5-0.5-0.9-1.2-0.3-1.6c0.4-0.3,0.9-0.1,1.3,0.1c5.3,2.7,11.8,1.8,17.3-0.5c0.6-0.2,1.2-0.5,1.8-0.5
		C132.2,129.2,132.5,129.3,132.6,130z"/>
	<path fill="#FFFFFF" d="M138.5,77.6c1.5,3.7,4,6.7,6.8,9.5c2.2,2.3,5.3,4.1,8.2,5.4c5,2.1,10.4,3.5,15.4,1.4
		c0.6-0.3,1.6-3.6,1.7-4.3c0.1-0.5-0.2-0.9-0.5-1.3c-3.5-4.8-7.9-8.7-11.8-13.2c-1.8-2.1-3.6-4.4-5.6-6.3
		c-5.3-4.9-18.7-6.1-25.8-5.2C132.6,66.7,136.5,72.8,138.5,77.6z"/>
	<path fill="#FFFFFF" d="M180.3,114.8c-1.1,11.3,5.1,21.8,7,32.9c0.9,5.3,0.8,10.7,0.7,16.1c-3.6,0.1-7.2,0.7-10.7,1.9
		c-1.6-12.7-1.4-25.7,0.7-38.3c0.3-2,0.7-4.1,1.6-5.9"/>
	<path fill="#454466" d="M107.9,126.6c-0.2,4.7-3.5,11.2-7.7,15.4c-0.8,0.8-2.6,2.1-2,2.7c0.5,0.5,1.4,0.1,2-0.3
		c5.2-3.7,8.5-9.9,9.1-16.2c0.1-0.6,0.3-1.5-0.1-1.9S107.9,125.5,107.9,126.6"/>
	<path fill="#454466" d="M135.9,126.1c0.2,4.7,3.5,11.2,7.7,15.4c0.8,0.8,2.6,2.1,2,2.7c-0.5,0.5-1.4,0.1-2-0.3
		c-5.2-3.7-8.5-9.9-9.1-16.2c-0.1-0.6-0.3-1.5,0.1-1.9C135.1,125.2,135.9,125.1,135.9,126.1"/>
	<path fill="#454466" d="M118.9,119.2c-1-0.8-1.9-1.6-2.4-2.7c1.5,0.4,2.5,0.5,3.9,0.6c0.8,0.1,1.7,0,2.3-0.5c1-1,0.5-3.7,0.4-4.4
		c0.2-0.2,1.3,1.9,1.5,2.2c0.3,0.5,0.8,1.7,1,2.1c0.5,0.9,0.5,1,1,2.2c0.3,0.8,0.7,1.7,0.3,2.5c-0.3,0.6-0.9,0.8-1.5,1
		C124,122.6,120,120,118.9,119.2z"/>
</g>
<g id="Calque_7" display="none">
	<path display="inline" fill="#BEBECE" d="M51.1,61.8c-1.8,1.7-2.3,4.4-2.5,6.9c-2.8,25.1-0.7,50.7,6.2,75c0.6,2.1,1.2,4.2,2.5,6
		c1.8,2.5,4.6,4,7.3,5.4c32.4,17.1,64.9,34.1,97.3,51.2c31.4,16.5,63,33.2,91.6,54.3c2,1.5,4.1,3,6.6,3.3c1.7,0.2,3.3-0.3,4.9-0.8
		c9.6-2.8,19.3-5.6,28.9-8.4c1.5-0.4,3-0.9,4.1-2c1.4-1.4,1.6-3.6,1.8-5.6c1.3-15.4,2.7-30.8,4-46.2c0.2-1.8,0.3-3.6-0.2-5.3
		c-0.7-2.4-2.7-4.2-4.6-5.9c-38.5-34-77-67.9-115.5-101.9c-5.8-5.1-11.7-10.3-18.6-13.8c-5.1-2.6-10.7-4.2-16.2-5.8
		c-13-3.7-26-7.5-39.1-11.2c-4.1-1.2-8.2-2.4-12.5-2.6c-4.2-0.3-8.3,0.4-12.4,1c-9.2,1.4-18.5,2.8-27.7,4.3
		C54.9,60,52.7,60.4,51.1,61.8z"/>
	<path display="inline" fill="#454466" d="M109.8,91.1c2.4-1.3,4.8-2.6,7.2-4c-5.2-3.1-10.3-6.3-15.5-9.4c4.9-2.3,10.6-4.6,15.6-2.4
		c3.3,1.5,5.8,4.9,9.3,5.2c3.7,0.3,6.8-2.8,10.5-3.8c4.1-1,8.8,1.3,10.5,5.1c-2.4,1.2-8.4,3.5-12.6,5.2c13,8.2,36.1,24.7,36.8,27.6
		c0.3,4.6-5.3,5.4-8.9,4.1s-6-4.3-8.6-7c-5-5.1-10.8-9.2-16.7-13.3c-2.5-1.8-5.2-3.6-8.2-4.3c-3-0.8-6.5-0.3-8.6,2.1
		c-1.2,1.3-2.3,3.3-4,3c-0.7-0.1-1.2-0.6-1.7-1c-1.8-1.6-3.6-3.1-5.5-4.7c-0.4-0.4-0.9-0.8-0.8-1.3
		C108.8,91.7,109.3,91.4,109.8,91.1z"/>
	<path display="inline" fill="#454466" d="M293.8,213.7c2.3-3.2,5-6.3,6.8-10.7c-0.9,12.6-1.9,25-3.5,38.2c-0.2,1.3-0.2,2.6-0.8,3.7
		c-0.7,1.2-1.9,1.9-3.1,2.6c-9.4,5.5-19.6,9.6-30.2,12.3c0.8-7.4,1.6-14.8,2.4-22.2c0.5-4.5,1.2-9.5,4.5-12.6
		c4.9-4.5,12.5-3.5,18.5-6.3C290.5,217.7,292.5,215.5,293.8,213.7z"/>
	<path display="inline" fill="#454466" d="M67.6,101c-2,12.4-4,24.7-6,37.1c-0.3,1.9-0.6,4.9-0.6,6.8c0,5.5,7,7.4,12,9.8
		c63.6,30.7,125.2,67.7,185.2,104.1c2.5-11.4,3.3-21.6,5-31.8c0.4-2.7,0.8-5.6-0.4-8.1c-1-2.2-3.1-3.7-5.1-5
		c-51.3-35.1-105.8-66.8-162.6-92.6C84.3,116.6,72.8,111.2,67.6,101z"/>
	<path display="inline" fill="#FFFFFF" d="M169.1,94.3c-1.6,0.6-11.4-8.6-16.8-13.3c-5.4-4.7-12.7-8.6-19.6-6.6
		c-2.3,0.6-4.4,1.9-6.7,2c-4.1,0.2-6.5-3.1-10.4-4.6c-6.9-2.8-19.2,1.8-19.7,7.6c-0.1,2.7,10.2,4.5,14.5,8.1c1.4,1.5-5.4,1.5-7,4.1
		c-0.7,2.4,0.7,4.1,2.6,5.3c5.7,3.5,11.5,7.1,17.2,10.6c3.3,3.6-6,1-8.7-0.6c-2.7-1.7-6.5-4.3-8.7-2.8c-0.7,3.3,25.6,17.4,24.4,21.1
		c-1.3,2.4-20.4-3.5-30.1-6.9c-10.1-3.6-20.3-8.4-27.1-16.7c-6.1-7.5-8.9-17-11.5-26.3c-1-3.4-1.8-7.3,0.4-10.1
		c1.8-2.2,4.9-2.7,7.8-3c12.2-1.4,17.4-6.7,29.5-4.8c14.7,2.4,46.9,12.3,65.5,20.7c7.6,4.5-2.8,5.8-1.6,8.8S171.3,92.4,169.1,94.3z"
		/>
	<path display="inline" fill="#FFFFFF" d="M54.2,69.2c-1.2-0.5-2.2,1.2-2.4,2.5c-2.3,10.9-2.5,22.2-0.7,33.1
		c0.6,3.8,1.5,7.6,2.4,11.4c0.9,4,1.9,8,2.8,12c0.1,0.3,0.1,0.5,0.3,0.8c0.5,0.7,1.7,0.4,2.1-0.4c0.4-0.7,0.4-1.6,0.4-2.5
		c-0.2-5.1,0.4-10.2,1.9-15c1.5-5,3.9-10,2.7-15.1c-0.6-2.5-3.3-3.9-4.6-6.2C55.6,83.8,55.8,69.2,54.2,69.2z"/>
	<path display="inline" fill="#FFFFFF" d="M249.6,161.1c-1.1,0.6-2.4-0.2-3.3-1c-4.9-4-9.8-8-14.8-12.1c-3-2.5-4.1-4.1-7.1-6.6
		c-2.6-2.2-5.8-5.2-8.1-7.6c-1.7-1.8-4.1-4.6-6.3-6.6c-4-3.5-6.4-7.3-9.6-11.5c-0.9-1.1-1.7-2.9-0.5-3.7c1-0.7,2.2,0.2,3.1,1
		c15.2,14.4,30.5,28.8,45.7,43.1C250,157.5,251.3,160.1,249.6,161.1z"/>
	<path display="inline" fill="#FFFFFF" d="M225.6,199.9c9.9,6.9,19.9,13.7,29.8,20.6c1.2,0.8,2.4,1.7,2.9,3c0.4,1,0.4,2.2,0.3,3.3
		c-0.4,8.8-2.8,16.4-3.2,25.1c-8.8-5-15.6-9.2-24.1-14.6c-2.8-1.8-6.1-4.3-5.4-6.1c0.7-1.5,8.4,3.5,12.6,6c1.4,0.9,3.1,1.4,4.6,2.1
		c4.7,2.2,7.4-3.8,2.8-5.7c-3.7-1.1-7.5-4-6.6-6.2c1.1-2.2,6.9,3.9,9.9-0.6c1.4-3.1,0.1-4.4-1.8-6.4c-3.8-4-9.2-7.4-13.8-10.4
		c-6.5-4.3-17.3-6.8-15.7-10.9c1.3-2.2,7.3,0,10.4,2.8"/>
	<path display="inline" fill="#FFFFFF" d="M226,221.5c1.8,0.8,3.7,1.5,5.6,2.1c0.2,0.1,0.4,0.1,0.5,0c0.1-0.1,1.3-1.1,0.6-1.7
		c-2.8-1.6-5.5-3.8-8.2-5.7c-0.3-0.2-0.7-0.5-1.1-0.4c-0.6,0-1,0.7-1,1.3s0.3,1.2,0.6,1.7c0.4,0.6,0.7,1.2,1.2,1.7
		C224.8,220.9,225.4,221.2,226,221.5z"/>
	<path display="inline" fill="#454466" d="M288.8,202.9c-5.7,1.8-11.5,3.5-17.2,5.3c-2.5,0.8-5.1,1.6-7.7,1.2
		c-2.3-0.4-4.4-1.6-6.5-2.9c-22.8-14.2-45.7-28.4-68.5-42.6c-1.6-1-4.2-2.3-2.4-4.3c1.9-1.2,43.1,25.8,64.7,38.7
		c4.4,2.6,8.9,5.3,14,5.6c11.2,0.7,28.5-10.4,32.4-7C299,198.7,292.4,201.8,288.8,202.9z"/>
</g>
</svg>
