<svg xmlns="http://www.w3.org/2000/svg" x="0px" y="0px" xmlns:xlink="http://www.w3.org/1999/xlink" viewBox="0 0 240 240">
  <path fill="#FFF" d="M107.9 246.5c-11.8 0-22.6-6.6-34.4-7.8-8.7-.8-14.9 12.6-23.1 9.4-.2-5.4 4.3-38.3 23.9-49.5 6.7-3.8 12-6 19-10.2 1.8-1.1 3.7-2.2 5.7-2.9 2.2-.7 4.5-1 6.7-1.2 4.5-.5 9-1.1 13.5-1.3 25.6-.9 62.2 22.4 79.8 61.2-11.2 7-35.7.8-48.9 2.3-12.1 1.4-35.5 0-42.2 0z"/>
  <path fill="#454466" d="M139 188.7c-2.5.8-5.2.9-7.9.9-10 0-20.1 0-29.7-2.6-1.7-.5-3.5-1.7-5.3-1.8-1.8-.1-3.6.8-5.1 1.8 3.3 4.7 8.6 8 13.8 10.5 11.1 5.3 23.2 8.6 35.4 9.6 2.3.2 4.8.5 7 .7 4.9.4 12.4-.5 14.3-3.3 3.2-4.9 1.2-8.1-2.3-10.3-1.5-1-5.7-3.2-7.4-3.9-1.6-.7-3.7-1.6-5.3-2.2-.7-.3-1.8-1.4-2.6-1.4-1.7-.4-3.3 1.5-4.9 2z"/>
  <path fill="#BEBECE" d="M168.4 153.6c-.5.2-.9.6-1.3.9-1.8 1.8-3.1 4.2-3.7 6.7-.3 1.4-.5 2.9-1.1 4.1-.6 1.2-1.6 2.1-2.3 3.3-.9 1.5-1.3 3.2-1.6 4.9-.8 4.7-.8 9.5-.1 14.3 1.6 10.8 7 20.6 12.3 30.2.6 1.1 1.2 2.2 2 3.2.3.4 1.1 1.3 1.2 1.4 0 0 1-.7 1.2-1.1 3.1-5 5.4-10.4 6.4-16.2 1.3-8.1 3.1-14.2 3.1-22.4 0-3.7-1.2-9.9-2.1-13.4-1.3-5-4.4-9-7.3-13.3-.2-.4-.5-.7-.9-1-.4-.3-1-.3-1.5-.5-1.3-.4-2.8-1.6-4.3-1.1z"/>
  <defs>
    <path id="a" d="M168.4 153.6c-.5.2-.9.6-1.3.9-1.8 1.8-3.1 4.2-3.7 6.7-.3 1.4-.5 2.9-1.1 4.1-.6 1.2-1.6 2.1-2.3 3.3-.9 1.5-1.3 3.2-1.6 4.9-.8 4.7-.8 9.5-.1 14.3 1.6 10.8 7 20.6 12.3 30.2.6 1.1 1.2 2.2 2 3.2.3.4 1.1 1.3 1.2 1.4 0 0 1-.7 1.2-1.1 3.1-5 5.4-10.4 6.4-16.2 1.3-8.1 3.1-14.2 3.1-22.4 0-3.7-1.2-9.9-2.1-13.4-1.3-5-4.4-9-7.3-13.3-.2-.4-.5-.7-.9-1-.4-.3-1-.3-1.5-.5-1.3-.4-2.8-1.6-4.3-1.1z"/>
  </defs>
  <clipPath id="b">
    <use xlink:href="#a" overflow="visible"/>
  </clipPath>
  <path fill="#454466" d="M164.5 159.9c-1.6 7.5-.3 15.3 2.2 22.5 1.7 4.8 4.2 9.6 8.4 12.5.1-1.5.2-2.9 0-4.4 1.5 2.4 1.7 5.5 1.2 8.3s-1.5 5.5-2.2 8.3c-1.7 6-1.8 13 2.1 17.9.2.3.5.6.9.6.3 0 .5-.2.7-.4 5.4-4.9 8.1-12.1 9.9-19.1 2.1-8.3 3.3-16.8 3.5-25.3.1-6.4-.3-13-2.9-18.8s-7.7-10.9-14-12c-1.7-.3-3.6-.3-5 .7-1.4.9-2.1 2.5-2.7 4-.9 2.2-1.6 4.4-2.2 6.6" clip-path="url(#b)"/>
  <path fill="#BEBECE" d="M78.6 227.2c2.9-2.8 4.6-4.6 6.5-7.3 7.2-10.6 10.1-24.1 7.9-36.7-.4-2.3-1-4.6-1.9-6.8-.9-2.2-2.1-4.2-3.3-6.2-2.8-4.3-5.9-8.5-9.3-12.3-3.9 1.7-7.1 4.8-9.5 8.3s-4.3 7.1-5.5 11.1c-.8 2.5-1.6 5.8-1.6 8.4 0 2.3.6 11.6 1.1 13.8 2.5 11.4 4.9 16 11.4 25.7.5.7 2.3 3.1 2.5 3.2-.1.1 1.4-.8 1.7-1.2z"/>
  <defs>
    <path id="c" d="M78.6 227.2c2.9-2.8 4.6-4.6 6.5-7.3 7.2-10.6 10.1-24.1 7.9-36.7-.4-2.3-1-4.6-1.9-6.8-.9-2.2-2.1-4.2-3.3-6.2-2.8-4.3-5.9-8.5-9.3-12.3-3.9 1.7-7.1 4.8-9.5 8.3s-4.3 7.1-5.5 11.1c-.8 2.5-1.6 5.8-1.6 8.4 0 2.3.6 11.6 1.1 13.8 2.5 11.4 4.9 16 11.4 25.7.5.7 2.3 3.1 2.5 3.2-.1.1 1.4-.8 1.7-1.2z"/>
  </defs>
  <clipPath id="d">
    <use xlink:href="#c" overflow="visible"/>
  </clipPath>
  <path fill="#454466" d="M74.9 156.1c-1.5 6.7 2.6 13.3 4 20.1 1.1 5 .7 10.3.2 15.4.9-1.5 1.7-3.2 2.2-4.9 1.4 6.7 2.8 13.6 1.5 20.3-1.5 8.1-6.8 15.1-8.8 23.2-.5 2.1-.8 4.3 0 6.3 12.1-8.1 20.8-21.2 23.6-35.5 1.1-5.9 1.3-12.1.1-18-.8-4-2.2-7.9-3.9-11.7-2.8-6.4-6.8-13-13.3-15.7-1.4-.6-3-1-4.5-.6s-2.7 2-2.4 3.5" clip-path="url(#d)"/>
  <path fill="#BEBECE" d="M148.8 98.7c.1-.6.2-1.2.3-1.9l.3-1.5c.2-.6.5-1.2.9-1.7.4-.7.8-1.4 1.4-2 .9-1 2.1-1.7 3.5-2.1 1.3-.4 2.7-.5 4.1-.3-1.8.7-3.6 1.5-5.1 2.7-1.5 1.2-2.7 3-2.7 4.9.2-.4.5-.8.9-1.1 2-1.6 4.6-2.3 7.1-2.6-1.2.4-2.3 1-3.3 1.7-.6.4-1.2.8-1.7 1.4-.5.5-.9 1.2-1 1.9-.1.4-.1.8-.3 1.1-.2.3-.6.5-1 .6-1.1.3-2.3-.2-3-1.1"/>
  <path fill="#FFF" d="M89 179.6c5.4 6 13.2 9.2 20.9 11.6 3.4 1 6.8 1.9 10.4 2.3 8.1.8 16.4-1.3 23.5-5.3s13.2-9.8 18.1-16.3c3.8-4.9 7-10.4 8.4-16.5 1.3-5.6.9-11.5.2-17.2-.5-4.3-1.2-8.5-2.8-12.5-2.5-5.9-6.9-10.7-11.3-15.3-2-2.1-4-4.2-6.4-5.8-5.7-3.8-12.8-4.3-19.5-4.8-6.3-.4-12.6-.9-18.8-.2-6.3.7-12.5 2.5-17.6 6.2-4.7 3.4-8.2 8.3-11.4 13.2-1.9 2.9-3.7 5.9-5 9.1-2.6 6.8-2.6 14.2-2.6 21.5 0 3.5 3.8 15.6 5.4 18 1.5 2.2 3 4.5 4.5 6.7 1.2 1.7 2.5 3.6 4 5.3z"/>
  <path fill="#454466" d="M170 141.4c1.3-4 5.7-6.8 9.9-6.3.8.1 1.7.4 2.3 1 .4.4.6 1 .8 1.6 1 3.6.1 7.4-1 10.9-.6 1.9-1.3 3.9-2.6 5.4-2.9 3.3-8.4 3.4-11.8.7M117 172.1c1.3 1.4 3.3 1.5 5.2 1.5 2.3-.1 4.7-.5 6.6-1.9.3-.2.6-.5 1-.5.4-.1.8.2.8.6 0 .2-.2.4-.3.6-.5.5-1 .9-1.6 1.3-3.6 2.3-8.5 2.3-12.1 0-.4-.3-.8-.6-.9-1.1-.1-.5.3-1.1.8-.9.2 0 .3.2.5.4z"/>
  <ellipse cx="141.8" cy="145.2" fill="#454466" rx="3.7" ry="4.7"/>
  <ellipse cx="104.6" cy="145.5" fill="#454466" rx="3.3" ry="4.2"/>
  <path fill="#BEBECE" d="M136.6 130.7c-.3.1-.7.4-.7.7.1.4.6.5.9.6 2.9.3 5.7 1.6 7.9 3.6.4.4.9.8 1.4.6.3-.1.5-.5.5-.8.1-.6-.2-1.2-.6-1.6s-.9-.7-1.5-1c-1.2-.6-2.4-1.2-3.7-1.6-1.3-.6-2.8-1-4.2-.5z"/>
  <path fill="#FFF" d="M69.7 161.8c1.2.4 2.6.6 3.9.4 2.9-.6 4.8-3.6 5-6.6.2-2.9-.9-5.8-1.9-8.6l-.9-2.4c-.7-1.9-1.6-4.1-3.5-4.9-2.2-1-4.9.1-6.3 2s-1.8 4.4-1.9 6.8c-.1 3.1.2 6.2 1.3 9.1.4.9.8 1.9 1.5 2.6.7.8 1.8 1.3 2.8 1.6z"/>
  <path fill="#BEBECE" d="M149.2 98.5c-1.2-1.8-2.6-3.5-4.2-4.9-2.6-2.3-5.7-4-9-5.2-8.1-2.9-17.1-2.8-25.3-.6-8.3 2.3-15.9 6.6-22.7 11.8-2.8 2.1-5.4 4.4-7.6 7.1-4.1 5.2-8.3 12.7-8.8 19.3-.5 6.6.2 13.5 2.7 18.8 12.6-.4 27-2.6 37.5-10.6-.9 4.4-6.5 8.5-8.7 9.8-.6.3-5 2.1-5.2 2.5-.2.4 6.2-.7 7.2-1 12.6-3.7 22.6-12.1 31.6-21.7 5.6-5.9 11-12.5 13.1-20.3.2-.8.4-1.6.3-2.4 0-1-.4-1.9-.9-2.6z"/>
  <path fill="#454466" d="M67.4 153.9c.3-1.2.7-2.3 1.4-3.4.3-.4.5-1 .9-1.2.5-.3.9-.4 1.4-.4.4 0 .8.1 1 .4.3.3.7.6.9 1.3.3-.7.5-1.1.4-1.8-.1-1-.3-1.9-.6-2.8-.8-1.9-2.4-2-3.6-1.4-.6.3-1.7.8-2.1 2.7-.1.8-.3 2.1-.4 2.9.2 1.1.3 2.4.7 3.7z"/>
  <path fill="#BEBECE" d="M178.8 149.4c0 .4-1 1.6-1.5 2-1.4 1-3.2.9-4.8.6.5-1 .5-.8.7-2 .7.2.4.1.8.2.7.2 1.4.1 2.1.1.6 0 2-.4 2.7-.9z"/>
  <defs>
    <path id="e" d="M89 179.6c5.4 6 13.2 9.2 20.9 11.6 3.4 1 6.8 1.9 10.4 2.3 8.1.8 16.4-1.3 23.5-5.3s13.2-9.8 18.1-16.3c3.8-4.9 7.2-10 8.6-16 1.3-5.6.6-11.9 0-17.7-.5-4.3-1.2-8.5-2.8-12.5-2.5-5.9-6.9-10.7-11.3-15.3-2-2.1-4-4.2-6.4-5.8-5.7-3.8-12.8-4.3-19.5-4.8-6.3-.4-12.6-.9-18.8-.2-6.3.7-12.5 2.5-17.6 6.2-4.7 3.4-8.2 8.3-11.4 13.2-1.9 2.9-3.7 5.9-5 9.1-2.6 6.8-2.6 14.2-2.6 21.5 0 3.5 3.8 15.6 5.4 18 1.5 2.2 3 4.5 4.5 6.7 1.2 1.7 2.5 3.6 4 5.3z"/>
  </defs>
  <clipPath id="f">
    <use xlink:href="#e" overflow="visible"/>
  </clipPath>
  <path fill="#454466" d="M169.2 159.6c.2-.5.6-1.2.8-1.7.8-1.8 1.5-.2 2.7-.1 4.7.2 9.1-1.1 11.2-7 1.5-4.2 2.8-7.8 3.1-12.3.1-1-.3-3.6-.8-4.6-.7-1.6-2.6-2.4-4.4-2.7s-3.8.3-5.6-.1c-4.3-.8-7.5-4.1-10.6-7-3.8-3.5-6-7.1-10.5-9.6-.6-.3-1.2-.6-1.8-.3-.7.4.4 4 .8 4.7 7 13 9.6 21.6 9 33.3-1.2 24.4-24.5 42.6-21 40.5 4.2-2.6 8.1-6 11.5-9.6 6.5-6.9 12.9-14.6 15.6-23.5z" clip-path="url(#f)"/>
  <path fill="#BEBECE" d="M173.6 139.5c1-1 1.8-2.3 2.5-3.6 1.2-2.2 2.5-4.4 3-6.9.4-1.7.4-3.4.3-5.1-.2-3.5-1-7.1-2.3-10.4-1.9-4.7-4.9-9-9-12-4.1-2.9-9.4-4.4-14.4-3.5-1.6.3-3.7.3-4.5 1.7-.7 1.2-.1 3.3 0 4.7.2 1.7.4 3.3.8 5 .4 1.7 1.1 3.2 1.7 4.8 2.2 5.5 4.5 11 7.9 15.7 2.9 4 6.5 7.4 10.7 10 .4.2.8.5 1.3.5.8.1 1.4-.4 2-.9z"/>
  <defs>
    <path id="g" d="M149.2 98.5c-1.2-1.8-2.6-3.5-4.2-4.9-2.6-2.3-5.7-4-9-5.2-8.1-2.9-17.1-2.8-25.3-.6-8.3 2.3-15.9 6.6-22.7 11.8-2.8 2.1-5.4 4.4-7.6 7.1-4.1 5.2-8.3 12.7-8.8 19.3-.5 6.6.2 13.5 2.7 18.8 12.6-.4 27-2.6 37.5-10.6-.9 4.4-6.5 8.5-8.7 9.8-.6.3-5 2.1-5.2 2.5-.2.4 6.2-.7 7.2-1 12.6-3.7 22.6-12.1 31.6-21.7 5.6-5.9 11-12.5 13.1-20.3.2-.8.4-1.6.3-2.4 0-1-.4-1.9-.9-2.6z"/>
  </defs>
  <clipPath id="h">
    <use xlink:href="#g" overflow="visible"/>
  </clipPath>
  <path fill="#454466" d="M128 80.7c-1 4.7.4 6 1.9 11.4 1.3 4.6-.1 11.3-2.2 17.4 1.2-1.5 5.8-5.2 5.4-7.6 1 4.6-.6 11.1-2 16.2-1.3 4.5-5.2 9.6-9.1 13.1-4.1 3.7-14.5 12.4-8.1 13.7 5.7-2.9 11.5-5.8 16.7-9.5 5.2-3.7 10-8.2 13.2-13.7 2-3.5 3.4-7.4 4.5-11.3.5-2 1-3.9 1.2-6 .2-3.8-.8-7.5-1.8-11.2-1.5-5-3.4-10.3-7.4-13.7-1.9-1.6-4.3-2.7-6.8-2.7s-5 1.5-5.9 3.8" clip-path="url(#h)"/>
  <defs>
    <path id="i" d="M174.1 139.8c1-1 1.9-2.3 2.6-3.6 1.2-2.2 1.9-4.7 2.5-7.2.4-1.7.4-3.4.3-5.1-.2-3.5-1-7.1-2.3-10.4-1.9-4.7-4.9-9-9-12-4.1-2.9-9.4-4.4-14.4-3.5-1.6.3-3.7.3-4.5 1.7-.7 1.2-.1 3.3 0 4.7.2 1.7.4 3.3.8 5 .4 1.7 1.1 3.2 1.7 4.8 2.2 5.5 4.5 11 7.9 15.7 2.9 4 6.2 7.7 10.5 10.1.6.3 1.1.5 1.6.5.6.2 1.7-.2 2.3-.7z"/>
  </defs>
  <clipPath id="j">
    <use xlink:href="#i" overflow="visible"/>
  </clipPath>
  <path fill="#454466" d="M169.4 101.8c1.3 4.3 2.4 9 1.2 13.3-.6 2.1-1.7 4.1-2.5 6.2s-1.1 4.5-.2 6.5c-.9-1.2-1.6-2.4-2.2-3.8-1.5 6.2.9 13.2 5.9 17.2.8.7 1.8 1.3 2.9 1.3 2.3.1 3.9-2.4 4.7-4.6 3-8.3 3.3-17.6.8-26.1-1.2-4.1-3.2-8.3-7.1-10-.6-.3-1.3-.5-2-.4-.7.2-1.3.8-1.2 1.5" clip-path="url(#j)"/>
  <path fill="#454466" d="M126.8 157.7c-2.1-.7-4-.5-6.1.3-.3.1-.8.7-.9 1.1-.1.4.3.8.6 1 .7.4 1.5.5 2.3.5 1.4 0 2.9 0 4-.9.3-.2.5-.5.6-.9.1-.5-.1-.7-.5-1.1"/>
</svg>
