<?xml version="1.0" encoding="utf-8"?>
<!-- Generator: Adobe Illustrator 19.0.1, SVG Export Plug-In . SVG Version: 6.00 Build 0)  -->
<svg version="1.1" id="Points" xmlns="http://www.w3.org/2000/svg" xmlns:xlink="http://www.w3.org/1999/xlink" x="0px" y="0px"
	 viewBox="0 0 396 3" enable-background="new 0 0 396 3" xml:space="preserve">
<path fill="#FFFFFF" d="M6,3C5.6,3,5.2,2.8,4.9,2.6C4.7,2.3,4.5,1.9,4.5,1.5c0-0.4,0.2-0.8,0.4-1.1c0.6-0.6,1.6-0.6,2.1,0
	c0.3,0.3,0.4,0.7,0.4,1.1c0,0.4-0.2,0.8-0.4,1.1C6.8,2.8,6.4,3,6,3z"/>
<path fill="#FFFFFF" d="M388.5,1.5c0-0.8,0.7-1.5,1.5-1.5l0,0c0.8,0,1.5,0.7,1.5,1.5l0,0c0,0.8-0.7,1.5-1.5,1.5l0,0
	C389.2,3,388.5,2.3,388.5,1.5z"/>
<path fill="#FFFFFF" d="M376.5,1.5c0-0.8,0.7-1.5,1.5-1.5l0,0c0.8,0,1.5,0.7,1.5,1.5l0,0c0,0.8-0.7,1.5-1.5,1.5l0,0
	C377.2,3,376.5,2.3,376.5,1.5z"/>
<path fill="#FFFFFF" d="M364.5,1.5c0-0.8,0.7-1.5,1.5-1.5l0,0c0.8,0,1.5,0.7,1.5,1.5l0,0c0,0.8-0.7,1.5-1.5,1.5l0,0
	C365.2,3,364.5,2.3,364.5,1.5z"/>
<path fill="#FFFFFF" d="M352.5,1.5c0-0.8,0.7-1.5,1.5-1.5l0,0c0.8,0,1.5,0.7,1.5,1.5l0,0c0,0.8-0.7,1.5-1.5,1.5l0,0
	C353.2,3,352.5,2.3,352.5,1.5z"/>
<path fill="#FFFFFF" d="M340.5,1.5c0-0.8,0.7-1.5,1.5-1.5l0,0c0.8,0,1.5,0.7,1.5,1.5l0,0c0,0.8-0.7,1.5-1.5,1.5l0,0
	C341.2,3,340.5,2.3,340.5,1.5z"/>
<path fill="#FFFFFF" d="M328.5,1.5c0-0.8,0.7-1.5,1.5-1.5l0,0c0.8,0,1.5,0.7,1.5,1.5l0,0c0,0.8-0.7,1.5-1.5,1.5l0,0
	C329.2,3,328.5,2.3,328.5,1.5z"/>
<path fill="#FFFFFF" d="M316.5,1.5c0-0.8,0.7-1.5,1.5-1.5l0,0c0.8,0,1.5,0.7,1.5,1.5l0,0c0,0.8-0.7,1.5-1.5,1.5l0,0
	C317.2,3,316.5,2.3,316.5,1.5z"/>
<path fill="#FFFFFF" d="M304.5,1.5c0-0.8,0.7-1.5,1.5-1.5l0,0c0.8,0,1.5,0.7,1.5,1.5l0,0c0,0.8-0.7,1.5-1.5,1.5l0,0
	C305.2,3,304.5,2.3,304.5,1.5z"/>
<path fill="#FFFFFF" d="M292.5,1.5c0-0.8,0.7-1.5,1.5-1.5l0,0c0.8,0,1.5,0.7,1.5,1.5l0,0c0,0.8-0.7,1.5-1.5,1.5l0,0
	C293.2,3,292.5,2.3,292.5,1.5z"/>
<path fill="#FFFFFF" d="M280.5,1.5c0-0.8,0.7-1.5,1.5-1.5l0,0c0.8,0,1.5,0.7,1.5,1.5l0,0c0,0.8-0.7,1.5-1.5,1.5l0,0
	C281.2,3,280.5,2.3,280.5,1.5z"/>
<path fill="#FFFFFF" d="M268.5,1.5c0-0.8,0.7-1.5,1.5-1.5l0,0c0.8,0,1.5,0.7,1.5,1.5l0,0c0,0.8-0.7,1.5-1.5,1.5l0,0
	C269.2,3,268.5,2.3,268.5,1.5z"/>
<path fill="#FFFFFF" d="M256.5,1.5c0-0.8,0.7-1.5,1.5-1.5l0,0c0.8,0,1.5,0.7,1.5,1.5l0,0c0,0.8-0.7,1.5-1.5,1.5l0,0
	C257.2,3,256.5,2.3,256.5,1.5z"/>
<path fill="#FFFFFF" d="M244.5,1.5c0-0.8,0.7-1.5,1.5-1.5l0,0c0.8,0,1.5,0.7,1.5,1.5l0,0c0,0.8-0.7,1.5-1.5,1.5l0,0
	C245.2,3,244.5,2.3,244.5,1.5z"/>
<path fill="#FFFFFF" d="M232.5,1.5c0-0.8,0.7-1.5,1.5-1.5l0,0c0.8,0,1.5,0.7,1.5,1.5l0,0c0,0.8-0.7,1.5-1.5,1.5l0,0
	C233.2,3,232.5,2.3,232.5,1.5z"/>
<path fill="#FFFFFF" d="M220.5,1.5c0-0.8,0.7-1.5,1.5-1.5l0,0c0.8,0,1.5,0.7,1.5,1.5l0,0c0,0.8-0.7,1.5-1.5,1.5l0,0
	C221.2,3,220.5,2.3,220.5,1.5z"/>
<path fill="#FFFFFF" d="M208.5,1.5c0-0.8,0.7-1.5,1.5-1.5l0,0c0.8,0,1.5,0.7,1.5,1.5l0,0c0,0.8-0.7,1.5-1.5,1.5l0,0
	C209.2,3,208.5,2.3,208.5,1.5z"/>
<path fill="#FFFFFF" d="M196.5,1.5c0-0.8,0.7-1.5,1.5-1.5l0,0c0.8,0,1.5,0.7,1.5,1.5l0,0c0,0.8-0.7,1.5-1.5,1.5l0,0
	C197.2,3,196.5,2.3,196.5,1.5z"/>
<path fill="#FFFFFF" d="M184.5,1.5c0-0.8,0.7-1.5,1.5-1.5l0,0c0.8,0,1.5,0.7,1.5,1.5l0,0c0,0.8-0.7,1.5-1.5,1.5l0,0
	C185.2,3,184.5,2.3,184.5,1.5z"/>
<path fill="#FFFFFF" d="M172.5,1.5c0-0.8,0.7-1.5,1.5-1.5l0,0c0.8,0,1.5,0.7,1.5,1.5l0,0c0,0.8-0.7,1.5-1.5,1.5l0,0
	C173.2,3,172.5,2.3,172.5,1.5z"/>
<path fill="#FFFFFF" d="M160.5,1.5c0-0.8,0.7-1.5,1.5-1.5l0,0c0.8,0,1.5,0.7,1.5,1.5l0,0c0,0.8-0.7,1.5-1.5,1.5l0,0
	C161.2,3,160.5,2.3,160.5,1.5z"/>
<path fill="#FFFFFF" d="M148.5,1.5c0-0.8,0.7-1.5,1.5-1.5l0,0c0.8,0,1.5,0.7,1.5,1.5l0,0c0,0.8-0.7,1.5-1.5,1.5l0,0
	C149.2,3,148.5,2.3,148.5,1.5z"/>
<path fill="#FFFFFF" d="M136.5,1.5c0-0.8,0.7-1.5,1.5-1.5l0,0c0.8,0,1.5,0.7,1.5,1.5l0,0c0,0.8-0.7,1.5-1.5,1.5l0,0
	C137.2,3,136.5,2.3,136.5,1.5z"/>
<path fill="#FFFFFF" d="M124.5,1.5c0-0.8,0.7-1.5,1.5-1.5l0,0c0.8,0,1.5,0.7,1.5,1.5l0,0c0,0.8-0.7,1.5-1.5,1.5l0,0
	C125.2,3,124.5,2.3,124.5,1.5z"/>
<path fill="#FFFFFF" d="M112.5,1.5c0-0.8,0.7-1.5,1.5-1.5l0,0c0.8,0,1.5,0.7,1.5,1.5l0,0c0,0.8-0.7,1.5-1.5,1.5l0,0
	C113.2,3,112.5,2.3,112.5,1.5z"/>
<path fill="#FFFFFF" d="M100.5,1.5c0-0.8,0.7-1.5,1.5-1.5l0,0c0.8,0,1.5,0.7,1.5,1.5l0,0c0,0.8-0.7,1.5-1.5,1.5l0,0
	C101.2,3,100.5,2.3,100.5,1.5z"/>
<path fill="#FFFFFF" d="M88.5,1.5C88.5,0.7,89.2,0,90,0l0,0c0.8,0,1.5,0.7,1.5,1.5l0,0C91.5,2.3,90.8,3,90,3l0,0
	C89.2,3,88.5,2.3,88.5,1.5z"/>
<path fill="#FFFFFF" d="M76.5,1.5C76.5,0.7,77.2,0,78,0l0,0c0.8,0,1.5,0.7,1.5,1.5l0,0C79.5,2.3,78.8,3,78,3l0,0
	C77.2,3,76.5,2.3,76.5,1.5z"/>
<path fill="#FFFFFF" d="M64.5,1.5C64.5,0.7,65.2,0,66,0l0,0c0.8,0,1.5,0.7,1.5,1.5l0,0C67.5,2.3,66.8,3,66,3l0,0
	C65.2,3,64.5,2.3,64.5,1.5z"/>
<path fill="#FFFFFF" d="M52.5,1.5C52.5,0.7,53.2,0,54,0l0,0c0.8,0,1.5,0.7,1.5,1.5l0,0C55.5,2.3,54.8,3,54,3l0,0
	C53.2,3,52.5,2.3,52.5,1.5z"/>
<path fill="#FFFFFF" d="M40.5,1.5C40.5,0.7,41.2,0,42,0l0,0c0.8,0,1.5,0.7,1.5,1.5l0,0C43.5,2.3,42.8,3,42,3l0,0
	C41.2,3,40.5,2.3,40.5,1.5z"/>
<path fill="#FFFFFF" d="M28.5,1.5C28.5,0.7,29.2,0,30,0l0,0c0.8,0,1.5,0.7,1.5,1.5l0,0C31.5,2.3,30.8,3,30,3l0,0
	C29.2,3,28.5,2.3,28.5,1.5z"/>
<path fill="#FFFFFF" d="M16.5,1.5C16.5,0.7,17.2,0,18,0l0,0c0.8,0,1.5,0.7,1.5,1.5l0,0C19.5,2.3,18.8,3,18,3l0,0
	C17.2,3,16.5,2.3,16.5,1.5z"/>
</svg>
