<svg xmlns="http://www.w3.org/2000/svg" x="0px" y="0px" viewBox="0 0 15 15">
  <g fill="#FF5951">
    <path d="M2.6 5l3 1.6c.2-.4.6-.8 1-1L5 2.6c-.1-.3-.4-.5-.7-.7-.9-.5-2-.2-2.4.7-.5.9-.2 2 .7 2.4zM2.3 9.2l3.2-1c0-.2-.1-.4-.1-.7 0-.3.1-.5.1-.7l-3.2-1c-.3-.1-.7-.1-1 0C.3 6.1-.2 7.1.1 8c.3 1 1.3 1.5 2.2 1.2zM6.8 5.5c.2 0 .4-.1.7-.1.3 0 .5.1.7.1l1-3.2c.1-.3.1-.7 0-1C8.9.3 7.9-.2 7 .1 6 .4 5.5 1.4 5.8 2.3l1 3.2zM9.4 6.6l3-1.6c.3-.2.6-.4.7-.7.5-.9.1-1.9-.7-2.4-.9-.5-1.9-.1-2.4.7l-1.6 3c.4.2.8.6 1 1zM14.9 7c-.3-.9-1.3-1.5-2.2-1.2l-3.2 1c0 .2.1.4.1.7 0 .3-.1.5-.1.7l3.2 1c.3.1.7.1 1 0 1-.3 1.5-1.3 1.2-2.2zM12.4 10l-3-1.6c-.2.4-.6.8-1 1l1.6 3c.2.3.4.6.7.7.9.5 1.9.1 2.4-.7.5-.9.2-2-.7-2.4zM8.2 9.5c-.2 0-.4.1-.7.1-.3 0-.5-.1-.7-.1l-1 3.2c-.1.3-.1.7 0 1 .3.9 1.3 1.5 2.2 1.2.9-.3 1.5-1.3 1.2-2.2l-1-3.2zM5.6 8.4l-3 1.6c-.3.2-.6.4-.7.7-.5.9-.1 1.9.7 2.4.9.5 1.9.1 2.4-.7l1.6-3c-.4-.2-.8-.6-1-1z"/>
  </g>
</svg>
