<?xml version="1.0" encoding="utf-8"?>
<!-- Generator: Adobe Illustrator 19.0.1, SVG Export Plug-In . SVG Version: 6.00 Build 0)  -->
<svg version="1.1" id="Calque_1" xmlns="http://www.w3.org/2000/svg" xmlns:xlink="http://www.w3.org/1999/xlink" x="0px" y="0px"
	 viewBox="0 0 15 15" enable-background="new 0 0 15 15" xml:space="preserve">
<g>
	<path fill="#FF5951" d="M2.6,5l3,1.6c0.2-0.4,0.6-0.8,1-1L5,2.6C4.9,2.3,4.6,2.1,4.3,1.9C3.4,1.4,2.3,1.7,1.9,2.6
		C1.4,3.5,1.7,4.6,2.6,5z"/>
	<path fill="#FF5951" d="M2.3,9.2l3.2-1C5.5,8,5.4,7.8,5.4,7.5c0-0.3,0.1-0.5,0.1-0.7l-3.2-1c-0.3-0.1-0.7-0.1-1,0
		C0.3,6.1-0.2,7.1,0.1,8C0.4,9,1.4,9.5,2.3,9.2z"/>
	<path fill="#FF5951" d="M6.8,5.5C7,5.5,7.2,5.4,7.5,5.4c0.3,0,0.5,0.1,0.7,0.1l1-3.2c0.1-0.3,0.1-0.7,0-1C8.9,0.3,7.9-0.2,7,0.1
		C6,0.4,5.5,1.4,5.8,2.3L6.8,5.5z"/>
	<path fill="#FF5951" d="M9.4,6.6l3-1.6c0.3-0.2,0.6-0.4,0.7-0.7c0.5-0.9,0.1-1.9-0.7-2.4c-0.9-0.5-1.9-0.1-2.4,0.7l-1.6,3
		C8.8,5.8,9.2,6.2,9.4,6.6z"/>
	<path fill="#FF5951" d="M14.9,7c-0.3-0.9-1.3-1.5-2.2-1.2l-3.2,1C9.5,7,9.6,7.2,9.6,7.5c0,0.3-0.1,0.5-0.1,0.7l3.2,1
		c0.3,0.1,0.7,0.1,1,0C14.7,8.9,15.2,7.9,14.9,7z"/>
	<path fill="#FF5951" d="M12.4,10l-3-1.6c-0.2,0.4-0.6,0.8-1,1l1.6,3c0.2,0.3,0.4,0.6,0.7,0.7c0.9,0.5,1.9,0.1,2.4-0.7
		C13.6,11.5,13.3,10.4,12.4,10z"/>
	<path fill="#FF5951" d="M8.2,9.5C8,9.5,7.8,9.6,7.5,9.6C7.2,9.6,7,9.5,6.8,9.5l-1,3.2c-0.1,0.3-0.1,0.7,0,1
		c0.3,0.9,1.3,1.5,2.2,1.2c0.9-0.3,1.5-1.3,1.2-2.2L8.2,9.5z"/>
	<path fill="#FF5951" d="M5.6,8.4l-3,1.6c-0.3,0.2-0.6,0.4-0.7,0.7c-0.5,0.9-0.1,1.9,0.7,2.4c0.9,0.5,1.9,0.1,2.4-0.7l1.6-3
		C6.2,9.2,5.8,8.8,5.6,8.4z"/>
</g>
</svg>
