<svg xmlns="http://www.w3.org/2000/svg" xmlns:xlink="http://www.w3.org/1999/xlink" viewBox="0 0 495.7 673.4"><defs><path id="a" d="M298.4 548.1l98.7-57.3 99.3 57.3-98.6 57.4z"/></defs><clipPath id="b"><use xlink:href="#a" overflow="visible"/></clipPath><g clip-path="url(#b)"><path fill="#CEDA93" d="M486.5 545.5l-89.4-54.7-98.7 57.3 99.4 57.4 88.7-60"/></g><path fill="#FFF" d="M436.2 542.9c-.7-4.7-4.1-8.7-8.1-11.2s-8.7-3.9-13.2-5.3c-5.5-1.6-11-3.2-16.7-3.9-13-1.6-27.1 1.4-38.8-4.6-3.5-1.8-7.6-4.4-11-2.4-2.4 1.4-3.2 4.6-2.5 7.3s2.4 4.9 4.2 7c8.5 10.2 18.1 19.8 29.8 26.3 11.6 6.5 25.5 9.7 38.5 6.7 4.8-1.1 9.5-3.1 13-6.5 3.4-3.5 5.6-8.5 4.8-13.4z"/><defs><path id="c" d="M3.2 605.5l98.6-57.3 99.4 57.3-98.7 57.4z"/></defs><clipPath id="d"><use xlink:href="#c" overflow="visible"/></clipPath><g clip-path="url(#d)"><path fill="#CEDA93" d="M201.2 605.5l-99.4-57.3-98.6 57.3 99.3 57.4 98.7-57.4"/></g><path fill="#FFF" d="M21.9 606.3c-.1 3.5 2.3 6.8 5.2 9.5 6.3 5.9 15 9.8 23.6 13.5 14.3 6.1 29.3 11.8 45.5 13.1s34-2.8 43.5-13.1c8.4-9.1 9-21.1 9.2-32.3.1-4.7.1-9.6-2.3-13.9-2.4-4.3-8.1-7.9-14.1-7.3.9 8.2.3 16.5-1.9 24.6-1.5 5.6-4.9 12-12.1 13.1-4.6.7-9.2-1.1-13.2-2.9-7.4-3.3-14.6-6.9-21.5-10.8-7.2-4.1-14.4-8.5-23.1-10.4-12.2-2.6-26.2.8-34.2 8.4-2.6 2.4-4.6 5.3-4.6 8.5z"/><path fill="#FD8" d="M297.2 328.9l-98 57.7-100-56.9 98.1-57.8"/><path fill="#FFD364" d="M297.2 328.9l-.3 114.1-98 57.7.3-114.1"/><path fill="#FFF2D2" d="M199.2 386.6l-.3 114.1-100-56.9.3-114.1"/><path fill="#FD8" d="M395.8 386.6l-98 57.7-100-57 98-57.7"/><path fill="#FFD364" d="M395.8 386.6l-.3 114.1-98 57.7.3-114.1"/><path fill="#FFF2D2" d="M297.8 444.3l-.3 114.1-100-56.9.3-114.2"/><path fill="#FD8" d="M199.1 386.9L101 444.6l-99.9-57 98-57.7"/><path fill="#FFD364" d="M199.1 386.9l-.4 114.1-98 57.7.3-114.1"/><path fill="#FFF2D2" d="M101 444.6l-.3 114.1L.8 501.8l.3-114.2"/><path fill="#FD8" d="M298.6 443.6l-98 57.7-99.9-57 98-57.7"/><path fill="#FFD364" d="M298.6 443.6l-.3 114.1-98 57.7.3-114.1"/><path fill="#FFF2D2" d="M200.6 501.3l-.3 114.1-100-56.9.4-114.2"/><path fill="#FD8" d="M296.8 214.9l-98 57.7-100-57 98-57.7"/><path fill="#FFD364" d="M296.8 214.9l-.3 114.1-98 57.7.3-114.1"/><path fill="#FFF2D2" d="M198.8 272.6l-.3 114.1-100-56.9.3-114.2"/><path fill="#FD8" d="M198.6 272.9l-98 57.7-99.9-57 98-57.7"/><path fill="#FFD364" d="M198.6 272.9l-.3 114.1-98 57.7.3-114.1"/><path fill="#FFF2D2" d="M100.6 330.6l-.3 114.1-100-57 .4-114.1"/><defs><path id="e" d="M61.7 251.2l54.8-31.9 55.3 31.9-54.9 31.8z"/></defs><clipPath id="f"><use xlink:href="#e" overflow="visible"/></clipPath><g clip-path="url(#f)"><path fill="#FFF" d="M144.1 235.2c-15.2-8.8-39.9-8.8-55 0-15.1 8.8-15.1 23.1.2 31.9 15.2 8.8 39.9 8.8 55 0 15.2-8.8 15.1-23.1-.2-31.9"/></g><path fill="#B1BA6A" d="M95.9 268.8c-.4 10.1-3.5 20.1-8.9 29.2 1-4.3 3.6-8.3 7.4-11.4.8-.6 1.8-1.3 2.9-1.3 2.8-.1 3.6 3.3 2.9 5.6-1.5 5.4-4.9 10.4-9.6 14.4 1-2.4 3.1-4.4 5.8-5.7.9-.4 2.1-.7 2.9-.1.5.4.6 1 .6 1.5.4 4.7-.7 9.4-3 13.6 3.1-5.8 2.1-12.4 2.7-18.7s4.1-13.4 11.5-15c.6-.1 1.2-.2 1.7 0 .8.3 1 1.2 1.1 2 .4 5.8 0 11.6-1.3 17.3-.5-4.9 0-9.9 1.6-14.6.7-2.1 2.5-4.6 5.1-4.2 1.7.3 2.8 1.8 3.3 3.2 1.3 3.7.7 7.8-1.6 11.1-.1-4.6 5.2-8.9 10.8-8.6-.6 6.5-4.8 12.7-11.2 16.6 1.7 1.4 1.2 3.8-.3 5.3s-3.8 2.2-6 2.9c-6.7 1.9-13.7 3.2-20.8 3.8-1.7.1-3.4.3-5.1 0-2-.4-3.8-1.3-5.5-2.3-13.1-8.1-21.9-20.4-23.7-33.5-.2-1.6-.3-3.3.4-4.7.8-1.5 2.7-2.6 4.6-2.3 2.4.5 3.3 2.8 3.7 4.8 1.2 5.4 2.4 10.7 3.7 16.1-.6-6.4-.8-12.8-.4-19.2.1-2.1 1-4.7 3.5-4.8 2.2 0 3.4 2.1 3.9 3.8 1.9 6.5 2 13.4.3 20 .6-7.1 1.2-14.3 4.3-20.9 1.4-3.1 3.8-6.3 7.6-7.3 1.5-.4 3.5-.3 4.4.7.7.9.7 1.8.7 2.7z"/><path fill="#FD8" d="M296.5 101l-98 57.7-99.9-57 98-57.7"/><path fill="#FFD364" d="M296.5 101l-.3 114.1-98 57.7.3-114.1"/><path fill="#FFF2D2" d="M198.5 158.7l-.3 114.1-100-56.9.4-114.2"/><path fill="#C1E2EC" d="M196 43.5l97.1 55.3 2.8 2.5-100-57"/><path fill="#EAF5F8" d="M195.9 39.4l100 57-2.8 2.4L196 43.5"/><path fill="#C1E2EC" d="M196 38.6l97.1 55.3 2.8 2.5-100-57"/><path fill="#EAF5F8" d="M196 34.5l99.9 56.9-2.8 2.5L196 38.6"/><path fill="#C2E2EC" d="M196 33.7L293.1 89l2.8 2.4L196 34.5"/><path fill="#EAF5F8" d="M196 29.6l99.9 56.9-2.8 2.5L196 33.7"/><path fill="#C1E2EC" d="M196 28.8l97.1 55.3 2.8 2.4L196 29.6"/><path fill="#EAF5F8" d="M196 24.7l99.9 56.9-2.8 2.5L196 28.8"/><path fill="#C0E1EB" d="M196 24l97.1 55.3 2.8 2.3L196 24.7"/><path fill="#EAF5F8" d="M196 19.9l100 56.9-2.9 2.5L196 24"/><path fill="#B1BA6A" d="M189.3 110.4c5.4 9.8 6.9 21.2 8.3 32.2-.1-10.1-.1-20.3 2.4-30 .4-1.6 1.2-3.5 2.9-3.8 2.7 11.1-.2 22.6-3 33.6 1.6-7.3 4.3-14.3 8-20.7 1.9-3.2 4.6-6.6 8.3-6.5-2.7 10.2-8.4 19.3-14.1 28.1-3.4-6.1-7.9-11.5-13.2-16.1-2-1.7-4.4-3.4-7-3.4-.8 1.1-.7 2.6-.1 3.8.6 1.2 1.6 2.1 2.6 3 4.7 4.2 9.4 8.4 14.1 12.7-4.6-4-10-8.3-16.1-7.7-1.1.1-2.5.6-2.7 1.8-.2 1.3 1.3 2.2 2.6 2.6 5.6 1.8 11.5 2.6 17.3 2.4-4.2-10.3-7.7-21-10.3-32z"/><path fill="#B1BA6A" d="M213.4 88.3c-1.8 1-1.8 3.4-1.6 5.4 1.2 11.1 3.8 22.1 6.7 32.9-2.4-8.6-6-16.8-10.5-24.5-.7-1.1-1.8-2.4-3-1.8 3.3 9.4 7.7 18.4 13.1 26.7-4-3.4-6.6-8.8-11.5-10.7-1.3-.5-3.2-.5-3.6.9-.2.7.1 1.4.4 1.9 2.8 4.8 9 6.1 13.2 9.8-2.1-.5-4.1-.9-6.2-1.4-1-.2-2-.4-2.9-.1-.9.3-1.6 1.5-1.2 2.4.4.7 1.2.9 2 1 2.1.4 4.3.8 6.5 1.1.9.1 1.8.2 2.6-.1.9-.4 1.5-1.2 2.1-2 7.2-10.5 10.8-23.4 9.9-36.1-1.5.8-2.2 2.7-2.6 4.4-2.7 9.8-4.9 19.8-6.5 29.9.9-13.5-1.4-27.3-6.9-39.7zM201 113.5c0 2.2-1.3 4.2-2.7 5.9-4.7 5.7-11.3 9.8-18.6 11.2 2.1-.6 4.5-.4 6.5.5-2.8 1.3-5.9 2-9 1.8-2.1-9.3-3.2-18.9-3.1-28.4 0-1.7.4-3.8 2-4.3 2.5 1.5 3 4.8 3.1 7.6.3 8.1-.3 16.2-2 24.1 1.5-5.8 1.8-12 3.8-17.6 2-5.7 6.2-11.1 12.1-12.2.6 2-.2 4-.9 5.9-3.3 8.1-7.3 15.8-12.1 23.1 3.6-5.9 7.5-11.9 13.3-15.6 2.4-1.3 5-2.3 7.6-2zm46-22.7c2.1 8.3 4.8 16.4 8.1 24.2-3.4-6.2-7.8-11.8-12.9-16.7-2.7-2.6-6-5.1-9.7-4.8.3 2.3 1.8 4.2 3.4 5.8 4.3 4.6 9.2 8.7 14.5 12.1-4-4.7-10.2-7.5-16.3-7.4-.8 0-1.7.1-2.1.8-.7 1.1.5 2.4 1.6 3 3.7 2.2 8.1 3.1 12.3 4 2.7.6 5.3 1.1 8 1.7-8.1 1.5-17-4-24.4-.3-.6.3-1.2.7-1.3 1.4-.1 1.1 1.2 1.6 2.3 1.7 7.1.9 14.2-.2 21.3-1.2.8-.1 1.7-.3 2.3-.8.5-.5.8-1.3 1-2 1.2-4.3 2.8-8.5 4.7-12.5 1.7-3.6 4.1-7.4 7.9-8.6.1 4.6-1.7 9-4.4 12.8s-6.1 6.8-9.6 9.8c2.9-10.7.8-22.7-5.5-31.8-2.4 2.1-1.9 5.8-1.2 8.8z"/><path fill="#B1BA6A" d="M274.9 93.5c.7-3.7.5-7.6.1-11.3-.8-7.6-2.1-15.4-5.7-22.2-.7-.2-1.1.8-1.1 1.6-.6 12.8 1.2 25.8 5.2 38-2.1-8.6-6.1-16.6-11.6-23.5-1.6-2-3.9-4.1-6.4-3.4-.7 2 .6 4 1.8 5.7 4.5 6.4 9.5 12.5 14.9 18.2-3.9-5.5-9.2-9.9-15.3-12.8-.9-.4-2.2-.7-2.8.1 5.4 5.3 12.3 11.1 19.4 13.9 7.6-13.7 23.8-19.4 32-32.5-9.3 1.9-17.8 7.5-23.2 15.4 7.9-7.2 14.2-16.2 18.1-26.1-5.4.9-9.6 5.3-12.6 10-4.2 6.6-6.8 14-9.4 21.3 3.7-10.2 7.4-20.6 8.7-31.4.2-1.6-.4-3.9-2-3.5-.5.1-.9.6-1.3 1-2.6 3.5-3.5 8-4.2 12.4-1.5 9.8-2.2 19.8-2 29.8M222 80.3c4.3 11 2.9 23.3 4.6 35-.8-11.5-1.5-23-.7-34.5.3-3.6 1.2-7.8 4.5-9.1 1.5 2.5 1.5 5.5 1.5 8.4-.2 11.5-1.6 23-4.2 34.1 1.2-7.7 1.5-15.5 3.5-23S237 76.3 243.4 72c-2.5 12.9-6.9 25.4-12.8 37.2 5.3-11 11.5-21.6 18.7-31.5.5 5.5-1.8 10.9-4.1 16-3.9 8.7-8 17.8-15.4 23.8-1-.1-1.6-1-2.1-1.9-5.1-10.2-8.5-21.2-10-32.6-.1-1.1-.3-2.3.2-3.4.5-1 1.8-1.8 2.8-1.2.7.5 1 1.2 1.3 1.9z"/><path fill="#B1BA6A" d="M259.4 81.9c-.7-2.2-1.6-4.5-3.5-5.9-1.2 1.2-1.1 3-.8 4.7 1.1 7.6 2.8 15.2 5.1 22.5-2.4-6.8-6.5-12.9-11.7-17.8-1.3-1.2-3.3-2.3-4.7-1.2.3 4 2.9 7.4 5.8 10 2.9 2.7 6.3 4.9 8.9 7.9-4.1-2.7-8.6-4.9-13.3-6.4-1.6-.5-3.5-1-5-.1 2.1 4.2 14.5 8.8 18.6 5.9 5.2-3.6 2.1-14.8.6-19.6zm6.4-32.5c-.3 4.6-2.7 8.8-5.2 12.7-3.3 5.1-6.9 9.9-10.5 14.7 1.7-2.2 3.4-4.4 5.1-6.5 3-3.8 6-7.6 9.6-10.9 1.7-1.6 3.7-3 6-3.6.8-.2 1.7-.3 2.4.3 1 .8.5 2.4 0 3.5-2.1 4-5.4 7.2-8.9 10.1-3.8 3.2-7.9 6.1-12.2 8.6-3.4-8.3-7.6-16.4-12.6-23.9-2 9.3 2.6 19.6 10.8 24.4-1.3-11.3-1.3-22.5-1.3-33.7 0-.9.4-2.1 1.3-1.9 2.2 4.1 2.8 8.9 2.8 13.6 0 6.4-.9 12.8-2.7 18.9 2.2-6.5 3.1-13.4 5.4-19.9 1.3-3.8 3.4-7.8 7.1-9.3.5-.2 1-.3 1.5-.2 1.2.3 1.5 1.8 1.4 3.1z"/><path fill="#B1BA6A" d="M261.2 86.9c7.1-8 14.9-16.4 25.3-18.8 1.3-.3 2.9-.5 3.9.4.4 2.3-1.5 4.3-3.3 5.8-8 7-17.4 13.2-27.9 14.2-.7-9.3.1-18.8 2.4-27.8.7-2.9 2-6.3 5-7 2.2 2.5 2.2 6.3 1.7 9.6-1.3 8.8-4.7 17.2-8 25.5 2.5-6.2 5-12.4 7.6-18.6 1.4-3.4 2.8-6.8 5.1-9.6s5.7-5 9.4-4.9c.8 0 1.6.2 2.2.7 1.2 1.1.6 3.1-.2 4.5-5.5 10.4-14 18.8-23.2 26zm-22.8-2.8c3.9 2.3 8.1 4.3 12.4 5.8 2.6-6.5 3.1-13.8 1.2-20.6-.6-2.2-1.5-4.4-2.9-6.1-1.1-1.3-3.3-2.3-4.4-1-.5.6-.6 1.5-.6 2.3.1 2.6.9 5.1 1.7 7.6 1.8 5.3 4 10.4 6.5 15.4-4.4-3.7-9.2-6.8-14.4-9.2-2-.9-4.5-1.8-6.5-.7 1.4 2.9 4.2 4.9 7 6.5zm-87.6 8.7c2.2 1 3.2 3.5 4 5.7 2.6 7.9 4 16.2 4 24.5 0-6.9-.1-13.8-.1-20.6 0-3.4.2-7.3 2.9-9.4 2.4 1.2 3.2 4.2 3.4 6.9.5 7.7-2.3 15.3-5.1 22.5 1.5-7.6 3.1-15.2 6.5-22.2.5-1 1.1-2.1 2-2.7s2.3-.8 3.2 0c.6.6.8 1.4.9 2.3.3 3.6-.9 7.1-2.5 10.4-2.4 5-5.5 9.6-9.2 13.7-4.7-7.7-8.1-16.1-10.1-24.9-.4-2.2-.8-4.3.1-6.2zm23.5 19.5c1.3 6.4-.4 13.3-4.5 18.3-1.1-6.4-.8-13 .9-19.3.1-.5.3-1.1.8-1.4.6-.4 1.5-.2 2 .4.4.5.6 1.3.8 2zm32 2.8c-4.8-6.9-10-13.9-17.3-18.2 1.4 4.2 4.6 7.5 7.8 10.4 3.9 3.5 8.1 6.8 12.4 9.7-5.3-3.8-11.5-7.7-17.9-6.6-1.5.3-3.2 1-3.4 2.5-.2 1.2.6 2.4 1.6 3 1 .6 2.3.7 3.5.9 5.2.5 10.5.7 15.8.5 5.7-7 6.8-16.7 6.1-25.7-.2-2.2-.8-4.9-3-5.4-2.3 2.1-2.9 5.5-3.2 8.6-.6 8 .5 16.2 3 23.8-1.9-7.6-5-14.9-9.1-21.6-1.5-2.5-3.4-5.1-6.1-6.1-.3 2.2.4 4.5 1.2 6.6 2.3 6.3 5.2 12.1 8.6 17.6z"/><path fill="#FD8" d="M396.1 272.4l-98 57.8-100-57 98.1-57.7"/><path fill="#FFD364" d="M396.1 272.4l-.3 114.2-98 57.7.3-114.1"/><path fill="#FFF2D2" d="M298.1 330.2l-.3 114.1-100-57 .3-114.1"/><defs><path id="g" d="M210.3 264.4l83.3-48.5 83.9 48.5-83.3 48.4z"/></defs><clipPath id="h"><use xlink:href="#g" overflow="visible"/></clipPath><g clip-path="url(#h)"><path fill="#FFF" d="M335.6 240.1c-23.2-13.4-60.6-13.4-83.6 0-23 13.4-22.9 35.1.3 48.4s60.6 13.4 83.6 0c23-13.3 22.8-35-.3-48.4"/></g><path fill="#B1BA6A" d="M274 267.6c1.6.4 2.3 2.2 2.7 3.8 3.1 11.3 5 22.9 5.6 34.6-.5-13.6-.7-28.2 7.3-39.2.9-.1 1.3 1.2 1.3 2.1.3 12.5-2.1 25-6.9 36.5 1.8-11.2 8.8-21.5 18.5-27.3.5 2.7-1 5.3-2.4 7.7-4.3 6.9-8.9 13.5-13.9 19.8 4.5-7.3 11.3-13.2 19.2-16.6 1.1-.5 2.6-.7 3.2.3.5.9-.2 1.9-.9 2.7-5.9 6.5-13.3 11.7-21.4 15-.4.2-.8.3-1.2.2-.8-.1-1.3-1-1.6-1.7-3.4-7.6-7.3-15-11.5-22.2-1.7-2.9-3.7-6-6.9-7.3-.5 10.1 3.7 20.3 11.1 27.2 1.7 1.6 3.7 3.1 4.4 5.4-4.3-4.9-9.5-9-15.3-12-1.8-1-4.5-1.7-5.7 0-1.4 2.1 1.2 4.6 3.5 5.6 6.8 3.2 14.1 5.5 21.5 7-1.9-.7-2.7-2.9-3.4-4.8-3.7-12-6.1-24.3-7.2-36.8z"/><path fill="#B1BA6A" d="M307 311.2c6-10.5 8.7-22.8 7.7-34.8-4.8 9.8-2.9 21.4-5.6 32-.1-8-3-15.9-8.1-22.1-.8-1-2.2-2.1-3.3-1.4-.8.5-.9 1.6-.9 2.5.5 7.3 6.6 12.9 8.8 19.9-3-4.5-6.8-8.5-11.2-11.7-.6-.5-1.3-.9-2.1-1-.8-.1-1.7.4-1.8 1.2-.1.6.2 1.1.6 1.6 4.3 5.9 11.4 8.9 17.2 13.4-.5-.2-1 0-1.3.4zm15-18.8c-1.4 4-3.4 7.8-5.7 11.3-.3-4.4.2-8.9 1.3-13.2.7-2.5 1.7-5.2 3.9-6.7 2.2 2.2 1.5 5.8.5 8.6z"/><path fill="#ACD8E5" d="M100.7 99.6L196 43.5l-.1.8-98 57.7"/><path fill="#ADD9E5" d="M97.9 97.1l98-57.7.1 4.1-95.3 56.1"/><path fill="#ACD8E5" d="M100.8 94.7L196 38.6l-.1.8-98 57.7"/><path fill="#ADD9E5" d="M97.9 92.2L196 34.5v4.1l-95.2 56.1"/><path fill="#ACD8E5" d="M100.7 89.7l95.3-56v.8L97.9 92.2"/><path fill="#ADD9E5" d="M98 87.3l98-57.7v4.1l-95.3 56"/><path fill="#ACD8E5" d="M100.8 84.8l95.2-56v.8L98 87.3"/><path fill="#ADD8E5" d="M98 82.3l98-57.6v4.1l-95.2 56"/><path fill="#ACD8E5" d="M100.8 80L196 24v.7L98 82.3"/><path fill="#ADD9E5" d="M98 77.6l98-57.7V24l-95.2 56"/><path fill="#EAF5F8" d="M197.9 154.9v4.1l-100-57 2.8-2.4"/><path fill="#ADD9E5" d="M293.1 98.8l2.8 2.5-98 57.7v-4.1m95.2-61l2.8 2.5-98 57.7V150"/><path fill="#C2E2EC" d="M197.9 154.1v.8l-97.2-55.3-2.8-2.5"/><path fill="#EAF5F8" d="M197.9 150v4.1l-100-57 2.9-2.4"/><path fill="#ACD8E5" d="M295.9 96.4l-2.8 2.4-95.2 56.1v-.8"/><path fill="#ADD9E5" d="M293.1 89l2.8 2.4-98 57.8v-4.1"/><path fill="#EAF5F8" d="M197.9 145.1v4.1l-100-57 2.8-2.5"/><path fill="#ACD8E5" d="M295.9 91.4l-2.8 2.5-95.2 56.1v-.8"/><path fill="#C2E2EC" d="M197.9 149.2v.8l-97.1-55.3-2.9-2.5"/><path fill="#ADD9E5" d="M293.1 84.1l2.8 2.4-98 57.7v-4"/><path fill="#C2E2EC" d="M197.9 144.2v.9l-97.2-55.4-2.7-2.4"/><path fill="#ACD8E5" d="M295.9 86.5l-2.8 2.5-95.2 56.1v-.9"/><path fill="#EAF5F8" d="M197.9 140.2v4L98 87.3l2.8-2.5"/><path fill="#E9F5F8" d="M197.9 135.4v3.9L98 82.3l2.8-2.3"/><path fill="#C3E3EC" d="M197.9 139.3v.9l-97.1-55.4-2.8-2.5"/><path fill="#ACD8E5" d="M295.9 81.6l-2.8 2.5-95.2 56.1v-.9"/><path fill="#ADD9E5" d="M293.1 79.3l2.8 2.3-98 57.7v-3.9"/><path fill="#C2E2EC" d="M197.9 134.5v.9L100.8 80 98 77.6"/><path fill="#ACD8E5" d="M296 76.8l-2.9 2.5-95.2 56.1v-.9M5.3 614.3l95.5-56.3v.8l-98.3 58"/><path fill="#ADD9E5" d="M2.5 611.9l98.2-58 .1 4.1-95.5 56.3"/><path fill="#ACD8E5" d="M5.3 609.4l95.4-56.3v.8l-98.2 58"/><path fill="#ADD9E5" d="M2.4 606.9l98.3-58v4.2L5.3 609.4"/><path fill="#ACD8E5" d="M5.2 604.5l95.5-56.4v.8l-98.3 58"/><path fill="#ADD9E5" d="M2.4 602l98.3-58v4.1L5.2 604.5"/><path fill="#ACD8E5" d="M5.2 599.6l95.5-56.4v.8L2.4 602"/><path fill="#ADD9E5" d="M2.4 597.1l98.3-58v4.1L5.2 599.6"/><path fill="#ACD8E5" d="M5.2 594.8l95.5-56.4v.7l-98.3 58"/><path fill="#ADD9E5" d="M2.4 592.3l98.3-58v4.1L5.2 594.8M197.6 613l2.8 2.5-98.2 57.9-.1-4"/><path fill="#EAF5F8" d="M102.1 669.4l.1 4-99.7-56.6 2.8-2.5"/><path fill="#ACD8E5" d="M200.4 610.5l-2.8 2.5-95.5 56.4v-.9"/><path fill="#EAF5F8" d="M102.1 664.5v4L2.5 611.9l2.8-2.5"/><path fill="#C2E2EC" d="M102.1 668.5v.9L5.3 614.3l-2.8-2.4"/><path fill="#ADD9E5" d="M197.6 608.1l2.8 2.4-98.3 58v-4m95.5-61.3l2.8 2.4-98.3 58v-4"/><path fill="#EAF5F8" d="M102.1 659.6v4L2.4 606.9l2.8-2.4"/><path fill="#ACD8E5" d="M200.4 605.6l-2.8 2.5-95.5 56.4v-.9"/><path fill="#C2E2EC" d="M102.1 663.6v.9L5.3 609.4l-2.9-2.5"/><path fill="#ADD9E5" d="M197.6 598.3l2.8 2.4-98.3 58v-4.1"/><path fill="#C2E2EC" d="M102.1 658.7v.9L5.2 604.5 2.4 602"/><path fill="#ACD8E5" d="M200.4 600.7l-2.8 2.5-95.5 56.4v-.9"/><path fill="#EAF5F8" d="M102.1 654.6v4.1L2.4 602l2.8-2.4m96.9 50.2v3.9L2.4 597.1l2.8-2.3"/><path fill="#C3E3EC" d="M102.1 653.7v.9l-96.9-55-2.8-2.5"/><path fill="#ACD8E5" d="M200.3 595.8l-2.7 2.5-95.5 56.3v-.9"/><path fill="#ADD9E5" d="M197.5 593.5l2.8 2.3-98.2 57.9v-3.9"/><path fill="#C2E2EC" d="M102.1 649v.8l-96.9-55-2.8-2.5"/><path fill="#ACD8E5" d="M200.4 591l-2.9 2.5-95.4 56.3v-.8"/><path fill="#C1E2EC" d="M396.1 499l96.8 55.1 2.8 2.4-99.7-56.7"/><path fill="#EAF5F8" d="M396 494.9l99.7 56.7-2.8 2.5-96.8-55.1"/><path fill="#C1E2EC" d="M396 494.1l96.9 55.1 2.8 2.4-99.7-56.7"/><path fill="#EAF5F8" d="M396 490l99.7 56.7-2.8 2.5-96.9-55.1"/><path fill="#C2E2EC" d="M396 489.2l96.9 55.1 2.8 2.4L396 490"/><path fill="#EAF5F8" d="M396 485.1l99.7 56.7-2.8 2.5-96.9-55.1"/><path fill="#C1E2EC" d="M396 484.3l96.8 55.1 2.9 2.4-99.7-56.7"/><path fill="#EAF5F9" d="M396 480.2l99.6 56.6-2.8 2.6-96.8-55.1"/><path fill="#C0E1EB" d="M396 479.5l96.8 55 2.8 2.3-99.6-56.6"/><path fill="#EAF5F8" d="M396 475.4l99.6 56.6-2.8 2.5-96.8-55"/><path fill="#ADD9E5" d="M492.9 554.1l2.8 2.4-98.3 58v-4.1"/><path fill="#EAF5F8" d="M397.4 610.4v4.1l-99.6-56.7 2.8-2.4"/><path fill="#ACD8E5" d="M495.7 551.6l-2.8 2.5-95.5 56.3v-.8"/><path fill="#EAF5F8" d="M397.4 605.5v4.1l-99.7-56.7 2.9-2.4"/><path fill="#C2E2EC" d="M397.4 609.6v.8l-96.8-55-2.9-2.5"/><path fill="#ADD9E5" d="M492.9 549.2l2.8 2.4-98.3 58v-4.1m95.5-61.2l2.8 2.4-98.3 58v-4.1"/><path fill="#EAF5F8" d="M397.4 600.6v4.1L297.7 548l2.8-2.5"/><path fill="#ACD8E5" d="M495.7 546.7l-2.8 2.5-95.5 56.3v-.8"/><path fill="#C2E2EC" d="M397.4 604.7v.8l-96.8-55-2.9-2.5"/><path fill="#ADD9E5" d="M492.8 539.4l2.9 2.4-98.3 58v-4.1"/><path fill="#C2E2EC" d="M397.4 599.8v.8l-96.9-55.1-2.8-2.4"/><path fill="#ACD8E5" d="M495.7 541.8l-2.8 2.5-95.5 56.3v-.8"/><path fill="#EAF5F8" d="M397.4 595.7v4.1l-99.7-56.7 2.8-2.5m96.8 50.3l.1 3.9-99.7-56.7 2.8-2.3"/><path fill="#C3E3EC" d="M397.4 594.8v.9l-96.9-55.1-2.8-2.5"/><path fill="#ACD8E5" d="M495.6 536.8l-2.8 2.6-95.4 56.3v-.9"/><path fill="#ADD9E5" d="M492.8 534.5l2.8 2.3-98.2 58-.1-3.9"/><path fill="#C2E2EC" d="M397.3 590v.9l-96.8-55.1-2.8-2.4"/><path fill="#ACD8E5" d="M495.6 532l-2.8 2.5-95.5 56.4v-.9"/><defs><path id="i" d="M132.8 577.4l.1-35.6 15.1 8.7-.1 35.6z"/></defs><clipPath id="j"><use xlink:href="#i" overflow="visible"/></clipPath><g clip-path="url(#j)"><path fill="#F59680" d="M147.8 550.4l-14.9-8.5.1 35.6 14.9 8.5-.1-35.6"/></g><defs><path id="k" d="M245 245l-.1-35.6 15.1-8.7.1 35.6z"/></defs><clipPath id="l"><use xlink:href="#k" overflow="visible"/></clipPath><g clip-path="url(#l)"><path fill="#F59680" d="M259.8 200.8l-14.9 8.7.3 35.4 14.9-8.7-.3-35.4"/></g><defs><path id="m" d="M231.3 347.6l.1-12.1 14.9 8.6v12.1z"/></defs><clipPath id="n"><use xlink:href="#m" overflow="visible"/></clipPath><g clip-path="url(#n)"><path fill="#62A1AF" d="M246.3 344.1l-14.9-8.5v12l14.9 8.5v-12"/></g><defs><path id="o" d="M231.3 333.1l-.1-11.9 15 8.5v11.9z"/></defs><clipPath id="p"><use xlink:href="#o" overflow="visible"/></clipPath><g clip-path="url(#p)"><path fill="#62A1AF" d="M246.2 329.7l-15-8.5.1 11.9 14.9 8.5v-11.9"/></g><defs><path id="q" d="M231.5 406.6l.1-35.6 15.1 8.7-.1 35.6z"/></defs><clipPath id="r"><use xlink:href="#q" overflow="visible"/></clipPath><g clip-path="url(#r)"><path fill="#F59680" d="M246.5 379.6l-14.9-8.5.1 35.6 14.9 8.5-.1-35.6"/></g><defs><path id="s" d="M130.7 234.6l.1-35.6 15.1 8.7-.1 35.6z"/></defs><clipPath id="t"><use xlink:href="#s" overflow="visible"/></clipPath><g clip-path="url(#t)"><path fill="#F59680" d="M145.7 207.6l-14.9-8.5.1 35.6 14.9 8.5-.1-35.6"/></g><defs><path id="u" d="M347.4 528.7l-.1-35.6 15.1-8.7.1 35.6z"/></defs><clipPath id="v"><use xlink:href="#u" overflow="visible"/></clipPath><g clip-path="url(#v)"><path fill="#F59680" d="M362.2 484.5l-14.9 8.7.3 35.4 14.9-8.7-.3-35.4"/></g><defs><path id="w" d="M18.4 511.6l.1-35.6 15.1 8.7-.1 35.6z"/></defs><clipPath id="x"><use xlink:href="#w" overflow="visible"/></clipPath><g clip-path="url(#x)"><path fill="#F59680" d="M33.4 484.6l-14.9-8.5.1 35.6 14.9 8.5-.1-35.6"/></g><defs><path id="y" d="M36.6 522.2l.1-35.6 15.1 8.7-.1 35.6z"/></defs><clipPath id="z"><use xlink:href="#y" overflow="visible"/></clipPath><g clip-path="url(#z)"><path fill="#F59680" d="M51.6 495.2l-14.9-8.5.1 35.6 14.9 8.5-.1-35.6"/></g><defs><path id="A" d="M223.7 542l-.1-11.9 14.9-8.7.1 11.9z"/></defs><clipPath id="B"><use xlink:href="#A" overflow="visible"/></clipPath><g clip-path="url(#B)"><path fill="#3A7A84" d="M238.5 521.4l-14.9 8.7.1 11.9 14.9-8.7-.1-11.9"/></g><defs><path id="C" d="M223.6 527.5l-.1-12 14.9-8.7.1 12z"/></defs><clipPath id="D"><use xlink:href="#C" overflow="visible"/></clipPath><g clip-path="url(#D)"><path fill="#3A7A84" d="M238.4 506.8l-14.9 8.7.1 12 14.9-8.7-.1-12"/></g><defs><path id="E" d="M260.5 519.9l-.1-12 14.8-8.7.1 12z"/></defs><clipPath id="F"><use xlink:href="#E" overflow="visible"/></clipPath><g clip-path="url(#F)"><path fill="#3A7A84" d="M275.2 499.2l-14.8 8.7.1 12 14.8-8.7-.1-12"/></g><defs><path id="G" d="M260.4 505.3l-.1-11.9 14.8-8.7.1 11.9z"/></defs><clipPath id="H"><use xlink:href="#G" overflow="visible"/></clipPath><g clip-path="url(#H)"><path fill="#3A7A84" d="M275.1 484.7l-14.8 8.7.1 11.9 14.8-8.7-.1-11.9"/></g><defs><path id="I" d="M17.4 336.3v-12l14.9 8.5.1 12z"/></defs><clipPath id="J"><use xlink:href="#I" overflow="visible"/></clipPath><g clip-path="url(#J)"><path fill="#62A1AF" d="M32.3 332.8l-14.9-8.5v12l15 8.5-.1-12"/></g><defs><path id="K" d="M17.3 321.8v-11.9l14.9 8.5.1 11.9z"/></defs><clipPath id="L"><use xlink:href="#K" overflow="visible"/></clipPath><g clip-path="url(#L)"><path fill="#62A1AF" d="M32.2 318.4l-14.9-8.5v11.9l15 8.5-.1-11.9"/></g><defs><path id="M" d="M56.4 358.8l-.1-11.9 15 8.5v11.9z"/></defs><clipPath id="N"><use xlink:href="#M" overflow="visible"/></clipPath><g clip-path="url(#N)"><path fill="#62A1AF" d="M71.3 355.4l-15-8.5.1 11.9 14.9 8.5v-11.9"/></g><defs><path id="O" d="M56.3 344.4l-.1-11.9 15 8.5v11.9z"/></defs><clipPath id="P"><use xlink:href="#O" overflow="visible"/></clipPath><g clip-path="url(#P)"><path fill="#62A1AF" d="M71.2 341l-15-8.5.1 11.9 14.9 8.5V341"/></g><defs><path id="Q" d="M16.8 395.8v-12l14.9 8.5.1 12z"/></defs><clipPath id="R"><use xlink:href="#Q" overflow="visible"/></clipPath><g clip-path="url(#R)"><path fill="#62A1AF" d="M31.7 392.3l-14.9-8.5v12l15 8.5-.1-12"/></g><defs><path id="S" d="M16.7 381.3v-11.9l14.9 8.5.1 11.9z"/></defs><clipPath id="T"><use xlink:href="#S" overflow="visible"/></clipPath><g clip-path="url(#T)"><path fill="#62A1AF" d="M31.6 377.9l-14.9-8.5v11.9l15 8.5-.1-11.9"/></g><defs><path id="U" d="M55.8 418.4l-.1-12 15 8.5v12z"/></defs><clipPath id="V"><use xlink:href="#U" overflow="visible"/></clipPath><g clip-path="url(#V)"><path fill="#62A1AF" d="M70.7 414.9l-15-8.5.1 12 14.9 8.5v-12"/></g><defs><path id="W" d="M55.7 403.9l-.1-11.9 15 8.5v11.9z"/></defs><clipPath id="X"><use xlink:href="#W" overflow="visible"/></clipPath><g clip-path="url(#X)"><path fill="#62A1AF" d="M70.6 400.5l-15-8.5.1 11.9 14.9 8.5v-11.9"/></g><defs><path id="Y" d="M113.3 502.6v-12l14.9 8.6.1 11.9z"/></defs><clipPath id="Z"><use xlink:href="#Y" overflow="visible"/></clipPath><g clip-path="url(#Z)"><path fill="#62A1AF" d="M128.2 499.2l-14.9-8.6v12l15 8.5-.1-11.9"/></g><defs><path id="aa" d="M113.2 488.2v-12l14.9 8.5.1 12z"/></defs><clipPath id="ab"><use xlink:href="#aa" overflow="visible"/></clipPath><g clip-path="url(#ab)"><path fill="#62A1AF" d="M128.1 484.7l-14.9-8.5v12l15 8.5-.1-12"/></g><defs><path id="ac" d="M152.2 525.2v-11.9l15 8.5v11.9z"/></defs><clipPath id="ad"><use xlink:href="#ac" overflow="visible"/></clipPath><g clip-path="url(#ad)"><path fill="#62A1AF" d="M167.2 521.8l-15-8.5v11.9l15 8.5v-11.9"/></g><defs><path id="ae" d="M152.1 510.8v-12l15 8.5v12z"/></defs><clipPath id="af"><use xlink:href="#ae" overflow="visible"/></clipPath><g clip-path="url(#af)"><path fill="#62A1AF" d="M167.1 507.3l-15-8.5v12l15 8.5v-12"/></g><defs><path id="ag" d="M130.4 173.6l-.1-12 15 8.5v12z"/></defs><clipPath id="ah"><use xlink:href="#ag" overflow="visible"/></clipPath><g clip-path="url(#ah)"><path fill="#62A1AF" d="M145.3 170.1l-15-8.5.1 12 14.9 8.5v-12"/></g><defs><path id="ai" d="M130.3 159.2l-.1-12 15 8.5v12z"/></defs><clipPath id="aj"><use xlink:href="#ai" overflow="visible"/></clipPath><g clip-path="url(#aj)"><path fill="#62A1AF" d="M145.2 155.7l-15-8.5.1 12 14.9 8.5v-12"/></g><defs><path id="ak" d="M326.1 370l-.1-12 14.8-8.7.1 12z"/></defs><clipPath id="al"><use xlink:href="#ak" overflow="visible"/></clipPath><g clip-path="url(#al)"><path fill="#3A7A84" d="M340.8 349.3L326 358l.1 12 14.8-8.7-.1-12"/></g><defs><path id="am" d="M326 355.4l-.1-11.9 14.8-8.7.1 11.9z"/></defs><clipPath id="an"><use xlink:href="#am" overflow="visible"/></clipPath><g clip-path="url(#an)"><path fill="#3A7A84" d="M340.7 334.8l-14.8 8.7.1 11.9 14.8-8.7-.1-11.9"/></g><defs><path id="ao" d="M362.8 347.8l-.1-11.9 14.9-8.7.1 11.9z"/></defs><clipPath id="ap"><use xlink:href="#ao" overflow="visible"/></clipPath><g clip-path="url(#ap)"><path fill="#3A7A84" d="M377.6 327.2l-14.9 8.7.1 11.9 14.9-8.7-.1-11.9"/></g><defs><path id="aq" d="M362.7 333.3l-.1-12 14.9-8.7.1 12z"/></defs><clipPath id="ar"><use xlink:href="#aq" overflow="visible"/></clipPath><g clip-path="url(#ar)"><path fill="#3A7A84" d="M377.5 312.6l-14.9 8.7.1 12 14.9-8.7-.1-12"/></g><defs><path id="as" d="M326.5 427.2l-.2-11.9 14.9-8.7.1 11.9z"/></defs><clipPath id="at"><use xlink:href="#as" overflow="visible"/></clipPath><g clip-path="url(#at)"><path fill="#3A7A84" d="M341.2 406.6l-14.9 8.7.2 11.9 14.8-8.7-.1-11.9"/></g><defs><path id="au" d="M326.4 412.7l-.1-12 14.8-8.7.1 12z"/></defs><clipPath id="av"><use xlink:href="#au" overflow="visible"/></clipPath><g clip-path="url(#av)"><path fill="#3A7A84" d="M341.1 392l-14.8 8.7.1 12 14.8-8.7-.1-12"/></g><defs><path id="aw" d="M363.2 405.1l-.1-12 14.8-8.7.1 12z"/></defs><clipPath id="ax"><use xlink:href="#aw" overflow="visible"/></clipPath><g clip-path="url(#ax)"><path fill="#3A7A84" d="M377.9 384.4l-14.8 8.7.1 12 14.8-8.7-.1-12"/></g><defs><path id="ay" d="M363.1 390.5l-.1-11.9 14.8-8.7.1 11.9z"/></defs><clipPath id="az"><use xlink:href="#ay" overflow="visible"/></clipPath><g clip-path="url(#az)"><path fill="#3A7A84" d="M377.8 369.9l-14.8 8.7.1 11.9 14.8-8.7-.1-11.9"/></g><path fill="#B1DAE7" d="M223.7 15.4l-27.6 16.3-27.3-15.5L196.4-.1"/><path fill="#ACD8E5" d="M223.7 15.4l-.1 44.7L196 76.3l.1-44.6"/><path fill="#E8F4F8" d="M196.1 31.7l-.1 44.6-27.3-15.5.1-44.6"/><defs><path id="aA" d="M203.1 72.2l-.1-35.6 15.1-8.7.1 35.6z"/></defs><clipPath id="aB"><use xlink:href="#aA" overflow="visible"/></clipPath><g clip-path="url(#aB)"><path fill="#F59680" d="M217.9 28L203 36.7l.3 35.4 14.9-8.7-.3-35.4"/></g><defs><path id="aC" d="M86.1 453.2l-.8-78.4 159.9-93.7.7 78.4z"/></defs><clipPath id="aD"><use xlink:href="#aC" overflow="visible"/></clipPath><g fill="#FFF2D2" clip-path="url(#aD)"><path d="M137.4 404.2l-1.5 4 7.8 11.2 3.1-1.8-9.4-13.4m-10.2-14.5l-1.5 4 8.6 12.3 1.5-4-8.6-12.3M117 375.1l-1.5 4 8.6 12.3 1.5-4-8.6-12.3m-9.4-13.4h-4.3l10.6 15.2 1.5-4-7.8-11.2m9.8 54.2l-1.5 4 7.8 11.2 3-1.8-9.3-13.4m-10.2-14.5l-1.5 4 8.6 12.3 1.5-4-8.6-12.3m-7.1-4.1l4.1 5.8 1.5-4-5.6-8.1m57.3 1.5l-1.5 4 7.8 11.2 3.1-1.8-9.4-13.4m-10.2-14.6l-1.5 4 8.6 12.3 1.5-4-8.6-12.3M137 363.4l-1.5 4 8.6 12.3 1.5-4-8.6-12.3m-9.4-13.4l-3 1.6 9.3 13.6 1.5-4-7.8-11.2m69.7 19.1l-1.5 4 2.9 4.2V371l-1.4-1.9m-10.2-14.6l-1.5 4 8.6 12.3 1.5-4-8.6-12.3M176.9 340l-1.5 4 8.6 12.3 1.5-4-8.6-12.3m-9.3-13.4l-3.4 2 9.7 13.2 1.5-4-7.8-11.2"/><path d="M142.9 341l-7.5 20.1-1.5 4.1-8.3 22.2-1.5 4.1-8.3 22.2-1.5 4L106 440l2.4.1 7.5-20.1 1.5-4.1 8.3-22.2 1.5-4 8.3-22.3 1.5-4 9.1-24.3-3.2 1.9M123 352.7l-7.6 20.2-1.5 4-8.3 22.2-1.5 4.1-3.6 9.7-.1 6.8 5.3-14.3 1.5-4 8.3-22.3 1.5-4 9.2-24.4-3.2 2m30.9.8l-8.3 22.2-1.5 4-8.3 22.2-1.5 4-9.2 24.3 3.2-1.9 7.5-20.1 1.5-4 8.3-22.2 1.5-4 8.3-22.2-1.5-2.3m9-24.2l-7.5 20.1 1.6 2.2 8.8-24-2.9 1.7m11.4 53.3l-8.8 24.1 2.9-1.7 7.5-20.1-1.6-2.3m24.1-64.6l-12.8 34.3-1.5 4-8.3 22.2 1.6 2.2 8.3-22.2 1.5-4 11.3-30.4-.1-6.1m-3 8l1.6 2.2"/><path d="M167.1 366.2l-1.5 4 8.6 12.3 1.6 2.2 7.8 11.2 3-1.8-9.3-13.4-1.6-2.2-8.6-12.3m-19.5-27.9l-3.1 1.8 9.4 13.4 1.6 2.2 8.6 12.3 1.5-4-8.6-12.3-1.6-2.2-7.8-11.2"/><path d="M182.9 317.6l-7.5 20.1-1.5 4.1-8.3 22.2-1.5 4-8.3 22.3-1.5 4-8.8 24.1 2.8-1.7 7.5-20.1 1.6-4.1 8.2-22.2 1.5-4.1 8.3-22.2 1.5-4 9.3-24.4-3.3 2m15.8 41.3l-3 7.9-1.5 4.1-9 24.2 3.1-1.8 7.5-20.2 1.5-4 1.4-3.7"/></g><defs><path id="aE" d="M184.3 280.8l-.8-78.4 159.9-93.7.7 78.4z"/></defs><clipPath id="aF"><use xlink:href="#aE" overflow="visible"/></clipPath><g fill="#FFF2D2" clip-path="url(#aF)"><path d="M235.6 231.9l-1.5 4 7.8 11.2-.2-6.4-6.1-8.8m-10.2-14.6l-1.5 4 8.6 12.3 1.5-4-8.6-12.3m-10.2-14.6l-1.5 4 8.6 12.3 1.5-4-8.6-12.3m-9.4-13.4h-4.3l10.6 15.2 1.5-4-7.8-11.2m9.8 54.3l-1.5 4 7.8 11.2 3-1.8-9.3-13.4M205.4 229l-1.5 4 8.6 12.3 1.5-4-8.6-12.3m-7.2-4l4.1 5.8 1.5-4-5.6-8.1m65.2 15.8l1.6-.9-1.4-2.1M235.2 191l-1.5 4 7.3 10.4 3.1-1.6-8.9-12.8m-9.4-13.4l-3 1.6 9.3 13.6 1.5-4-7.8-11.2m69.7 19.1l-1.5 4 2.9 4.2v-6.3l-1.4-1.9m-10.2-14.5l-1.5 4 8.6 12.3 1.5-4-8.6-12.3m-10.2-14.6l-1.5 4 8.6 12.3 1.5-4-8.6-12.3m-9.3-13.4l-3.4 2 9.7 13.2 1.5-4-7.8-11.2"/><path d="M241.1 168.6l-7.5 20.2-1.5 4-8.3 22.3-1.5 4-8.3 22.2-1.5 4.1-8.3 22.2 2.4.1 7.5-20.1 1.5-4 8.3-22.3 1.5-4 8.3-22.2 1.5-4.1 9.1-24.2-3.2 1.8m-20 11.7l-7.5 20.2-1.5 4-8.3 22.3-1.5 4-3.6 9.8-.1 6.7 5.3-14.3 1.5-4 8.3-22.2 1.5-4.1 9.2-24.3-3.3 1.9m31 .8l-8.6 23.1 3-1.6 7.2-19.2-1.6-2.3m-10.6 28.5l-7.5 20-1.5 4-9.2 24.3 3.2-1.9 7.5-20.1 1.5-4 6-16.1m19.6-58.9l-7.5 20.1 1.6 2.2 8.8-24-2.9 1.7m11.4 53.3l-8.8 24.1 2.9-1.7 7.5-20.1-1.6-2.3m24-64.6l-12.8 34.3-1.5 4-8.3 22.2 1.6 2.2 8.3-22.2 1.5-4 11.3-30.4-.1-6.1m-3 8l1.6 2.2"/><path d="M262.8 190.7l.4 6.2 9.3 13.4 1.6 2.2 7.8 11.2 3-1.8-9.3-13.4-1.6-2.2-8.6-12.3m-19.6-28.1l-3.1 1.8 9.4 13.4 1.6 2.2 7.4 10.6 2.7-1.8-8.6-12.8-1.6-2.2-7.8-11.2"/><path d="M281.1 145.2l-7.5 20.1-1.5 4.1-9 24 .1 6.2 10.4-28 1.5-4 9.3-24.4-3.3 2m15.8 41.4l-3 7.9-1.5 4-9 24.2 3.1-1.8 7.5-20.1 1.5-4.1 1.4-3.6"/></g><path fill="#EFCEC9" d="M206.2 396.2l-10.6-6.1V382l10.6 6.1"/><path fill="#C95947" d="M195.6 382v8.1l-83.9 48.4v-8.1"/><path fill="#CE8D57" d="M135.9 421.1c2.1-.8 4.3-1.2 6.4-2.1 5.2-2.1 9.2-6.4 13.9-9.4 4.3-2.8 9.3-4.5 13.3-7.7 2.2-1.8 4.2-4.1 6.8-5.2 3.2-1.4 7.4-1 9.5-3.8.5-.7.8-1.5 1.3-2.1.7-.9 1.6-1.5 2.6-2 4.8-2.2 11.1-.3 13.9 4.2.2.3.4.7.3 1-.1.5-.5.8-.8 1.1-10.6 8.3-22.5 14.6-34.4 20.9-6.9 3.6-13.7 7.3-20.6 10.9l-16.8 9c-1.7.9-3.3 1.8-5.2 2.2-3.2.7-6.6-.3-9.7-1.3-1.3-.4-2.9-1.3-2.7-2.7.1-.5.4-.9.7-1.2 2.7-2.9 6.8-4.1 10.4-5.8 3.8-1.9 7.2-4.5 11.1-6z"/><path fill="#C95947" d="M206.2 388.1v8.1l-83.9 48.4v-8.1"/><path fill="#EFCEC9" d="M122.3 444.6l-10.6-6.1v-8.2l10.6 6.2"/><path fill="#ADD9E5" d="M295.4 441.2l2.8 2.4-98.3 58v-4.1"/><path fill="#EAF5F8" d="M199.9 497.5v4.1l-99.6-56.7 2.8-2.5"/><path fill="#ACD8E5" d="M298.2 438.7l-2.8 2.5-95.5 56.3v-.8"/><path fill="#EAF5F8" d="M199.9 492.6v4.1L100.2 440l2.9-2.5"/><path fill="#C2E2EC" d="M199.9 496.7v.8l-96.8-55.1-2.9-2.4"/><path fill="#ADD9E5" d="M295.4 436.3l2.8 2.4-98.3 58v-4.1m95.5-61.3l2.8 2.5-98.3 58v-4.1"/><path fill="#EAF5F8" d="M199.9 487.7v4.1l-99.7-56.7 2.8-2.5"/><path fill="#ACD8E5" d="M298.2 433.8l-2.8 2.5-95.5 56.3v-.8"/><path fill="#C2E2EC" d="M199.9 491.8v.8l-96.8-55.1-2.9-2.4"/><path fill="#ADD9E5" d="M295.3 426.4l2.9 2.5-98.3 57.9v-4"/><path fill="#C2E2EC" d="M199.9 486.8v.9L103 432.6l-2.8-2.4"/><path fill="#ACD8E5" d="M298.2 428.9l-2.8 2.4-95.5 56.4v-.9"/><path fill="#EAF5F8" d="M199.9 482.8v4l-99.7-56.6 2.8-2.5m96.8 50.3l.1 3.9-99.7-56.7 2.8-2.3"/><path fill="#C3E3EC" d="M199.9 481.9v.9L103 427.7l-2.8-2.5"/><path fill="#ACD8E5" d="M298.1 423.9l-2.8 2.5-95.4 56.4v-.9"/><path fill="#ADD9E5" d="M295.3 421.6l2.8 2.3-98.2 58-.1-3.9"/><path fill="#C2E2EC" d="M199.9 477.1l-.1.9-96.8-55.1-2.8-2.5"/><path fill="#ACD8E5" d="M298.1 419.1l-2.8 2.5-95.5 56.4.1-.9"/><path fill="#C95947" d="M291.8 210.2v8l-26.2 15.2v-8.1"/><path fill="#EFCEC9" d="M302.4 224.4l-10.5-6.2-.1-8 10.6 6.1"/><path fill="#CE8D57" d="M266.4 228.4c.1-.2.3-.3.5-.4 4.5-2.6 9-5.2 14.1-6.3 1.3-.3 2.6-.5 3.8-1 1.1-.5 2-1.3 3-2 2.2-1.5 5-2.4 7.7-2.1 2.1.2 4.1 1 6 1.9.2.1.3.1.4.3.1.1.1.3.1.4 0 1.2.1 2.3.1 3.5 0 .3 0 .5-.1.8-.1.3-.4.5-.7.6-7.9 4.4-16.1 8.1-23.8 12.9-.4.2-.7.5-1.1.5-.9.2-1.7-.5-2.5-1.1-2.2-1.7-4.8-3-7.5-3.6 0-1.2 0-2.5.1-3.7-.2-.4-.2-.6-.1-.7z"/><path fill="#C95947" d="M302.4 216.3v8.1l-26.3 15.1v-8"/><path fill="#EFCEC9" d="M276.1 239.5l-10.5-6.1-.1-8.1 10.6 6.2"/><path fill="#C95947" d="M241.8 240.2v8l-26.2 15.2v-8.1"/><path fill="#EFCEC9" d="M252.4 254.4l-10.5-6.2-.1-8 10.6 6.1"/><path fill="#CE8D57" d="M216.4 258.4c.1-.2.3-.3.5-.4 4.5-2.6 9-5.2 14.1-6.3 1.3-.3 2.6-.5 3.8-1 1.1-.5 2-1.3 3-2 2.2-1.5 5-2.4 7.7-2.1 2.1.2 4.1 1 6 1.9.2.1.3.1.4.3.1.1.1.3.1.4 0 1.2.1 2.3.1 3.5 0 .3 0 .5-.1.8-.1.3-.4.5-.7.6-7.9 4.4-16.1 8.1-23.8 12.9-.4.2-.7.5-1.1.5-.9.2-1.7-.5-2.5-1.1-2.2-1.7-4.8-3-7.5-3.6 0-1.2 0-2.5.1-3.7-.2-.4-.2-.6-.1-.7z"/><path fill="#C95947" d="M252.4 246.3v8.1l-26.3 15.1v-8"/><path fill="#EFCEC9" d="M226.1 269.5l-10.5-6.1-.1-8.1 10.6 6.2"/><path fill="#C1E2EC" d="M296.8 215.1l96.8 55.1 2.9 2.4-99.7-56.7"/><path fill="#EAF5F8" d="M296.8 211l99.7 56.7-2.9 2.5-96.8-55.1"/><path fill="#C1E2EC" d="M296.8 210.2l96.8 55.1 2.9 2.4-99.7-56.7"/><path fill="#EAF5F8" d="M296.7 206.1l99.7 56.7-2.8 2.5-96.8-55.1"/><path fill="#C2E2EC" d="M296.8 205.3l96.8 55 2.8 2.5-99.7-56.7"/><path fill="#EAF5F8" d="M296.7 201.2l99.7 56.6-2.8 2.5-96.8-55"/><path fill="#C1E2EC" d="M296.7 200.4l96.9 55 2.8 2.4-99.7-56.6"/><path fill="#EAF5F9" d="M296.7 196.2l99.6 56.7-2.7 2.5-96.9-55"/><path fill="#C0E1EB" d="M296.7 195.5l96.9 55.1 2.7 2.3-99.6-56.7"/><path fill="#EAF5F8" d="M296.7 191.4l99.7 56.7-2.8 2.5-96.9-55.1"/><path fill="#ADD9E5" d="M393.6 270.2l2.9 2.4-98.3 58v-4.1"/><path fill="#EAF5F8" d="M298.2 326.5v4.1l-99.7-56.7 2.8-2.5"/><path fill="#ACD8E5" d="M396.5 267.7l-2.9 2.5-95.4 56.3v-.8"/><path fill="#EAF5F8" d="M298.1 321.6l.1 4.1-99.7-56.7 2.8-2.5"/><path fill="#C2E2EC" d="M298.2 325.7v.8l-96.9-55.1-2.8-2.4"/><path fill="#ADD9E5" d="M393.6 265.3l2.9 2.4-98.3 58-.1-4.1m95.5-61.3l2.8 2.5-98.2 57.9-.1-4"/><path fill="#EAF5F8" d="M298.1 316.7l.1 4-99.7-56.6 2.8-2.5"/><path fill="#ACD8E5" d="M396.4 262.8l-2.8 2.5-95.5 56.3.1-.9"/><path fill="#C2E2EC" d="M298.2 320.7l-.1.9-96.8-55.1-2.8-2.4"/><path fill="#ADD9E5" d="M393.6 255.4l2.8 2.4-98.3 58v-4"/><path fill="#C2E2EC" d="M298.1 315.8v.9l-96.8-55.1-2.9-2.4"/><path fill="#ACD8E5" d="M396.4 257.8l-2.8 2.5-95.5 56.4v-.9"/><path fill="#EAF5F8" d="M298.1 311.8v4l-99.7-56.6 2.9-2.5m96.8 50.2v4l-99.6-56.7 2.7-2.3"/><path fill="#C3E3EC" d="M298.1 310.9v.9l-96.8-55.1-2.8-2.5"/><path fill="#ACD8E5" d="M396.3 252.9l-2.7 2.5-95.5 56.4v-.9"/><path fill="#ADD9E5" d="M393.6 250.6l2.7 2.3-98.2 58v-4"/><path fill="#C2E2EC" d="M298.1 306.1v.8l-96.9-55-2.8-2.5"/><path fill="#ACD8E5" d="M396.4 248.1l-2.8 2.5-95.5 56.3v-.8"/><path fill="#A0AA57" d="M226.7 256.1c-1.1-4.4-2.8-8.6-5-12.6-.7-1.3-1.8-2.8-3.3-2.8-.2 0-.4 0-.6.1-.2.2-.2.5-.2.8.2 1.2 1 2.3 1.8 3.3 1.4 1.7 3.1 3.3 4.9 4.6-.4-2.4-.8-4.7-.6-7.1.2-2.4.9-4.8 2.5-6.6.8 2.2.1 4.6-.7 6.8-.8 2.2-1.9 4.3-1.9 6.7 1.3-3.9 4.4-7.2 8.2-8.7-.2 2.1-1.8 3.8-3.3 5.2-1.6 1.4-3.3 2.8-4.1 4.8-1.2-1.5-3.2-2.3-5.1-1.9-.5.1-1 .4-1 .8 0 .3.3.5.5.6 2 1.2 5.1.1 6.7 1.8.5-1.8 1.9-3.4 3.7-4.2.1-.1.3-.1.5-.1.3.1.2.5 0 .8-1 2-2.7 3.6-4.8 4.5"/><path fill="#A0AA57" d="M235.7 253c.7-6.3.3-12.7-1.1-18.9-1-4.5-2.6-9-5.7-12.4-.6-.6-1.7-1.2-2.2-.6-.2.3-.2.7-.2 1.1.6 5.3 5.5 8.9 8.1 13.5 0-4.4 1.2-8.8 3.4-12.6.7.4.5 1.5.2 2.3-1.2 3.2-2.3 6.4-3.5 9.6.8-1.1 1.7-2.2 2.9-2.8 1.2-.7 2.7-.9 3.9-.3-2.3 2.1-4.5 4.2-6.8 6.3-.6-2.2-1.8-4.5-3.9-5.4-.7-.3-1.6-.2-1.9.4-.1.4.1.8.3 1.2 1.1 1.5 2.8 2.4 4.2 3.6s2.5 3.2 1.8 4.9c-.3-1.2-1.1-2.4-2.2-3-.5-.3-1.1-.4-1.5-.1-.5.4-.3 1.1.1 1.6.4.4 1 .6 1.5.9 1.3.7 2.4 1.9 2.9 3.3m-12.6 1.4c-.3-4.7-.6-9.4-1.7-13.9s-2.9-9-5.9-12.6c-1.4-1.6-3.1-3.1-5.2-3.5 1.6 4.7 5.6 8.2 9.3 11.5-1.6-.9-3.2-1.8-4.9-2.2-1.8-.4-3.7-.2-5.2.8 3.3 2 7.4 1.9 11.2 1.7-2.4-.3-5.2-.4-7 1.2-.4.4-.8 1-.4 1.4.2.2.5.2.7.2 2.6-.1 5.1-.9 7.2-2.4-1.9-5.3-1.6-11.3.8-16.4 1.2 3.6.1 7.5-1 11.2-.3 1.2-.7 2.4-.7 3.6-.1 2.5 1 4.8 1 7.3.6-2.4 1.6-5.2 4-5.6-.9 2.7-2.3 5.2-4.1 7.4-.7-1.7-2.2-3.1-4-3.6-.4 1.2.8 2.3 2 2.8 1.1.6 2.5 1.2 2.7 2.4m-1.2 16.8c-1.9-1.8-4.6-2.6-6.9-3.9-3.6-2.1-6.3-5.9-7-10 .6-.2 1.1.3 1.4.8 1.9 2.4 3.3 5.1 4.2 8-1.1-2.9-1.9-5.9-2.3-8.9-.1-.6 0-1.4.5-1.6.4-.1.8.1 1.1.4.7.7.9 1.8 1 2.8.2 2.7.3 5.5 0 8.2-1.7-2-4.4-3.1-7-2.8 2 2 5 2.5 7.9 2.9-.5-1.5 0-3.2 1.2-4.2.1 1.4.1 2.7-.2 4.1-.1.4-.3.9-.7.8"/><path fill="#A0AA57" d="M231.5 241.5c.3 0 .5.2.7.4.9 1.1 1.2 2.5 1.4 3.9.4 3 .3 6 .2 9 .7-1.6 1.5-3.2 2.8-4.3.3-.2.6-.5.9-.5.4 0 .8.1.9.5.1.4-.2.8-.4 1.1-1.4 1.5-3.1 2.6-5 3.4-2.4-1.2-4.3-3.2-5.6-5.5.3-.3.7-.3 1.1-.1.4.2.6.5.9.8 1.3 1.6 2.5 3.2 3.6 4.9-.4-1.1-.6-2.2-.8-3.3-.5-3-1-6-1.3-9 0-.6.1-1.3.6-1.3zm10.9-4.8c-.6 1.4-.5 3-.2 4.5.4 2.3 1 4.6 1.5 6.9-1.1-2.7-2.4-5.3-4-7.7-.3-.5-.9-1.1-1.4-.8-.3 1.7.2 3.6 1.1 5.1.9 1.5 2.2 2.8 3.5 4 .6-1.6 1.6-3.1 2.9-4.4.6-.6 1.2-1.1 2-1.1.1 0 .2 0 .3.1.1.1.1.3.1.4-.2.7-.7 1.2-1.2 1.7-1.5 1.3-3.1 2.5-4.9 3.5 1.5-.9 4.1-3.4 5.9-2.7-1.1 3.1-3.3 1.1-3.6-1-.6-3.1-.4-5.7-2-8.5zm-19.7-6.5c1-3 .9-6.1 1.3-9.2s1.2-6.3 3.4-8.5c.4-.4.9-.8 1.5-.6-.8 4.7-2.4 9.2-4.7 13.3 1-4.7 4.4-8.7 8.7-10.7.3.9-.2 1.8-.8 2.6-2.4 3.3-5.3 6.3-8.5 8.8.8-3 .3-6.3-1.2-9-.2-.4-.6-.9-1.1-.7.1 3 1 6 2.7 8.6m45.2-12.2c-.6.6-.4 1.6-.2 2.3.7 2.5 1.9 4.8 3.1 7.1.5 1 1.1 2.1 1.9 2.8-1.5-1.9-3.2-3.6-5-5.2-.4-.4-1-.7-1.5-.4-.3.2-.3.7-.2 1.1.3 1.1 1.3 1.8 2.2 2.4 1.6 1 3.2 1.7 4.9 2.3-.7-3.9.5-8.1 3.2-11 .5.4.4 1.2.2 1.8-.7 3-2 5.9-3.8 8.4 1.5-2.2 3.7-5.1 6.8-4.7-1.6 1.9-4.8 3.1-6.6.8-.2-.3-3.8-9-5-7.7z"/><path fill="#A0AA57" d="M278.7 221.2c1.1 1.6 3 2.4 4.7 3.1-1.2-.2-2.3-.4-3.5-.6-1.1-.2-2.5-.3-3.1.7 2 .7 4.2.8 6.3.4-1.4-.2-3 .4-3.9 1.5-.2.2-.3.5-.2.7.2.3.6.2.9.1 1.6-.7 3.1-1.7 4.3-3.1.3-2.1.3-4.2 0-6.2-.2-1.7-.7-3.5-1.9-4.7-.7 3.8 0 7.9 1.8 11.3.6-1.5 1.3-3 2.3-4.2 1-1.2 2.5-2.2 4.1-2.4-.1.9-.7 1.5-1.3 2.1-2 1.9-4.3 3.5-6.7 4.7-.6-1.7-1.4-3.6-3.1-4.4-.3-.1-.6-.2-.8 0-.3.3-.1.7.1 1z"/><path fill="none" stroke="#A0AA57" stroke-width=".25" stroke-miterlimit="10" d="M292.1 218.8c-.9-6.2-1.7-12.5-1.9-18.8-.1-5.9.4-12.1-1.7-17.6-.3-.9-1.2-2-2.1-1.6-.5.2-.7.7-.9 1.1-1.4 2.3-4.3 2.9-7 3.4-3.2.5-6.6 1-9.4-.5-1.7-.9-2.9-2.4-4.2-3.8-3.9-4.3-8.9-8.2-14.7-8.3-.4 0-.9 0-1.3.3-.6.5-.4 1.4-.3 2.2.6 4.2-2.3 8.2-5.4 11.1-3.6 3.4-7.7 6.3-12.2 8.5-1.3.6-2.6 1.2-3.6 2.2-1 1-1.7 2.4-1.3 3.8.1.5.5 1.1 1 1.2.9.2 1.7-.8 2.1-1.7.7-1.6 1.4-3.1 2.1-4.7-2.1-1.5-4.6-2.6-7.2-3-.1 1.1 1.3 1.5 2.3 1.6 1.9.2 3.8.4 5.6.6-1-2.6-2.1-5.6-.9-8.1 1.2 2.6 1.5 5.7.6 8.5 2.1-1.2 4.5-1.8 6.9-1.9.2 0 .5 0 .6.1.3.2.2.8-.1 1-.3.2-.7.3-1.1.3-2.2.1-4.5.2-6.7.3"/><path fill="#A0AA57" d="M227.1 201.5c2-1.4 3.4-3.8 3.8-6.2.1.5.7.7 1.2.7 1.8.1 3.6-.2 5.2-.9.3-.1.6-.3.7-.5.2-.2.2-.6 0-.8-.2-.1-.4-.2-.6-.2-2.1-.1-4.2.3-6.1 1.2 2.4-.6 4.3-2.8 4.4-5.3-.1-.2-.4 0-.6.2-1.1 1.3-2.2 2.6-3.2 4 .6-2.3.3-4.8-.6-6.9-.2-.5-.7-1.2-1.3-1.1l-.3 3.3c-.1 2.2.1 4.7 1.7 6.1l-5.1-2.4c-.5-.2-.9-.4-1.5-.4-.5 0-1 .4-1 .9 0 .7.9 1 1.6 1.1 1.9.3 3.9.6 5.8.8-1.5-.1-3.1.5-4.2 1.5s-1.8 2.5-1.8 4c0 .4.1 1 .5 1.2.6.2 1.1-.1 1.4-.3zm14.7-14.1c.4 1.2 2 1.9 3.2 1.3-.6-1.1-1.9-1.7-3.1-1.6 0-2.2-1-4.3-2.6-5.9-.1 2.4.7 4.8 2.1 6.7-1-1.4-2.6-2.3-4.3-2.6-.3-.1-.8 0-.9.3-.1.4.3.7.7.8 1.5.5 3 1 4.4 1.5-.9-.1-1.9-.2-2.8 0-.9.2-1.8.8-2.1 1.8 1.6-.4 3.2-1 4.6-1.7-.7 1.3-.9 2.8-.8 4.2.4-.1.5-.6.6-1 .2-1.1.3-2.2.4-3.3-.2 1.2.7 2.5 1.8 2.8h.2c.1-.1.1-.3 0-.4-.3-.9-.9-1.9-1.4-2.9z"/><path fill="#A0AA57" d="M244.1 185c-.2 1.5-.2 2.9 0 4.4 0 .4.2 1 .7 1 .1-1.7 0-3.4-.4-5 .7.7 1.4 1.3 2.2 1.8.8.5 1.8.8 2.7.6-1.3-1.5-3.3-2.5-5.3-2.6-.7 1.7-2.7 2.8-4.5 2.5-.1-.3.2-.6.5-.8 1.3-.9 2.7-1.6 4.1-1.9zm4.3-7.1c-.5 1-.6 2.1-.4 3.1.1.6.4 1.3 1 1.4-.1-1.4-.3-2.9-.6-4.5.2.8.5 1.6 1 2.2.2-.8 0-1.6-.5-2.2-.2-.2-.4-.5-.6-.7-.2-.4-.3-.8-.4-1.2-.3-1.3-.8-2.6-1.4-3.8-.6 1.8.5 3.7 1.6 5.1-2.8 0-5.5 1.2-7.4 3.2.6.3 1.3.1 2-.2 1.9-.7 3.8-1.6 5.6-2.7-.5-.1-.9.3-1.2.6-1 1.1-1.9 2.4-2.5 3.8.6.1 1.1-.3 1.5-.8 1-.8 1.8-2 2.3-3.3zm13.2.1c0 .1-.1.2-.2.2.4-2.2-.1-4.5-1.2-6.3-.5 2-.2 4.1.6 6-.4-2-1.3-3.9-2.5-5.5-.2-.3-.7-.6-.9-.3-.1.1-.1.2-.1.4 0 .6.3 1.3.6 1.8.8 1.4 1.8 2.7 3.1 3.7-1-.4-2.1-.7-3.2-.8-1.3-.2-2.8-.2-3.8.6-.1.1-.3.3-.3.4 0 .4.5.5.9.5 2.2 0 4.4-.2 6.5-.7-.9.5-1.6 1.4-1.9 2.4 1-.5 1.9-1.4 2.4-2.4zm-12.2-1.4c.1.2.5.2.7.1 1.5-.6 2.9-1.6 3.9-2.8-.7.7-1.2 1.5-1.4 2.4v.3c.1.1.2.2.4.1s.3-.1.4-.3c.6-.7.6-1.7.6-2.7-.6-1-.8-2.2-.7-3.4 0-.2.1-.4.3-.3.4.5.5 1.1.6 1.7v1.8c-.4-.1-.9 0-1.3.2-1.5.7-2.7 1.7-3.5 2.9zm22.5 5.9c-.3-1.5-1-2.8-2-3.9 0 2.1.7 4.2 1.8 5.9-.6-1.4-1.6-2.6-2.9-3.4-.4-.2-.9-.4-1.2-.2-.1.3.2.6.4.9 1.3 1.3 2.7 2.5 4.3 3.4-.2-.3-.7-.4-1.1-.4-.9 0-1.9 0-2.8.2-.9.2-1.8.7-2.3 1.5-.1.1-.1.2-.1.3 0 .3.5.3.8.2 1.8-.5 3.6-1.3 5.2-2.3-1.9.9-3.4 2.7-3.9 4.8 0 .2-.1.4 0 .5.2.3.6.1.9-.1 1.8-1.3 3.1-3.2 3.5-5.4-.8 1.1-1.1 2.5-.8 3.8.1.3.2.6.4.6s.3 0 .5-.2c.4-.3.5-.9.4-1.4s-.3-.9-.5-1.4c-.4-1-.3-2.2-.6-3.4z"/><path fill="#A0AA57" d="M259.4 180c-.1.2.2.4.4.5 1.5.6 3.2.7 4.7.3 0-1.5 0-2.9.3-4.4.1-.5.2-1.1.6-1.5.4.4.4 1 .4 1.5-.1 1.6-.7 3.2-.8 4.8-1-.8-2.2-1.4-3.4-1.6-.6-.1-1.3-.1-1.9.2-.2 0-.3.1-.3.2z"/><path fill="#A0AA57" d="M266 178.9c0-.2.2-.5.4-.4.4 1.4.1 2.9-.8 4-2.3-.3-4.8.5-6.5 2.1 0 .3.4.3.7.3 2.1-.4 4.1-1 6-2-.1-.1-.3 0-.4.1-.4.5-.8 1-.9 1.6 0 .1 0 .4.1.4s.2 0 .3-.1c.5-.5.8-1.3.8-2 0-1.3.1-2.7.3-4zm26.3 9.9c-.6 1.3-1.4 2.4-2.4 3.4.7-.5 1.1-1.2 1.7-1.8.5-.6 1.3-1.2 2.1-1.2.2 0 .4 0 .5.2.3.3-.1.9-.5 1.1-1.4 1-2.8 1.9-4.3 2.7l.6-.3-.3 2.7c1.2-1.7 2.8-3 4.7-3.9-.8 2.5-3.6 3.6-5.3 5.6 1.1-1.1 2.5-2 4-2.3.1.4-.2.8-.5 1-1.1.9-2.2 1.9-3.4 2.8-1.3-2-2.3-4.1-3-6.4.4-.2.8.2 1 .5.8 1.2 1.5 2.5 2.1 3.9-1.4-2.9-2.4-6-3-9.1.9 1 1.6 2.3 2 3.6.4 1.3.4 2.7 1.2 3.9.2-1 .4-2.1.6-3.1 0 .1-.2.2-.3.2s-.2-.2-.2-.3c-.9-2-1.4-4.2-1.5-6.4.9 1.6 1.6 3.4 1.9 5.3l1.5-3.3c.2-.4.4-.8.8-.8.5.6.3 1.4 0 2z"/><path fill="#A0AA57" d="M289.9 202.3c-.1-1 .1-2 .4-2.9.1-.5.3-.9.7-1.3.9-1 2.2-.4 1.5.9-.4.8-1 1.7-2 1.6-1.4-.1-4-3.6-5.4-2.5.3 1 1.3 1.8 2.1 2.5.3.2 2.7 1.5 2.7 1.7zm-6.2-15.6c0 .2 0 .4.1.5.2.2.6-.1.7-.4.7-1.5.5-3.2-.2-4.7s-1.9-2.7-3.1-3.7c-.4-.3-.9-.5-1.2-.2-.2.2-.1.5 0 .8.9 2.1 2.6 3.8 4.7 4.6-.6-.6-1.6-.9-2.4-1.1-2.1-.5-4.2-1-6.3-.4 2.4 1.2 5.2 1.7 7.9 1.5-1.2 0-2.5.2-3.7.4-.3 0-.7.2-.6.5 1.5.3 3.1-.1 4.4-1-1.5.9-2.6 2.4-3 4-.1.3-.2.8.1 1 1.6-1.2 2.5-3.2 3.2-5.2-.2 1.2-.5 2.3-.6 3.4z"/><path fill="#A0AA57" d="M278 187.4c.4-.7.4-1.6 0-2.3.1-2.3-.7-4.7-2.1-6.5-.3-.4-.9-.8-1.3-.4-.2.2-.2.5-.1.8.4 2.2 1.4 4.3 2.9 6.1-.3-.7-1-1.1-1.7-1.5-1.2-.7-2.4-1.4-3.7-2.1 0 1.2.9 2.2 1.9 2.8 1 .6 2.2.8 3.3.9-1.2.4-2.4 1-3.3 1.8-.4.3-.9.8-.8 1.4 1.8 0 3.6-1 4.4-2.6-.9 1.1-1.5 2.5-1.5 3.9.3.2.6-.2.7-.5.5-1.1.8-2.3.8-3.4.1.4.3 1 .5 1.6zm9.4-9.9c-.2.6-.1 1.2 0 1.7.3 1.5.7 3 1.2 4.5-.4-.7-1-1.5-1.8-1.6-.2 0-.5.1-.6.3-.1.3.2.5.5.6.7.3 1.4.7 2.2 1-.4 0-.8-.1-1.2-.1-.2 0-.4 0-.6.1-.1.2-.1.4.1.6.1.2.4.2.6.3.5.2 1.1.3 1.6.5.2-1.4.8-2.8 1.8-3.8.6-.7 1.5-1.2 2.4-1-.5 2.2-2.5 3.7-4.3 5.1 0-.4-.2-.9-.5-1.2.5-1.7 1.1-3.3 1.7-4.9.1-.2.2-.4.4-.6.2-.1.5-.2.6 0 .1.1.1.3.2.4.1.7-.2 1.4-.5 2-.6 1.1-1.4 2.1-2.3 2.9.3-1.6.2-3.3-.3-4.8-.4-.8-.7-1.5-1.2-2zm3.5 32.4c-.9-1.8-2.3-3.4-3.9-4.6-.3.1-.2.6 0 .9 1 1.6 2.3 3.1 3.9 4.3-1.4-.6-2.2-2.2-3.7-2.4-.2 0-.5 0-.6.2-.1.2 0 .5.3.7 1 1 2.5 1.3 3.9 1.6.2-2.1.4-4.2 1.6-5.9.4.5.2 1.1.1 1.7-.3 1.1-.7 2.3-1.3 3.3-.2.4-.4.8-.5 1.3-.2.8.1 1.7.4 2.5.2-1.5.6-2.9 1.3-4.3.4-.8 1.1-1.7 2-1.7.2.2.1.5 0 .8-.9 2-2 3.9-3.3 5.6 1.2-1.3 2.4-2.7 4.1-3.1-.9 1.6-2.4 3-4.1 3.8-.5-1.2-1.2-2.3-2-3.3-.3-.4-.8-.8-1.3-.7.1 1.3.9 2.5 1.9 3.3.5.3 1 .6 1.4 1s.7 1 .6 1.5c-.5-.8-1.1-1.5-1.9-2-.3-.2-.9-.3-1 .1-.1.3.1.5.3.7.9.8 1.9 1.3 3 1.7-.1-1.3.8-2.7 2.1-3-.5 1.3-1.3 2.4-2.4 3.2 0-.4 0-.8-.2-1.1m-28.1-30.3c.4.2.9 0 1.3-.3.6-.4 1.2-.9 1.8-1.4l.6-.6c.2-.3.3-.7.4-1.1.3-1.9.1-3.8-.6-5.6-.2 0-.2.2-.3.3-.4 1.9-.3 4 .2 5.9-.5-1.8-1.2-3.5-2-5.1-.1-.2-.3-.5-.5-.4-.2.7-.1 1.6.2 2.3.5 1.4 1.4 2.6 2.5 3.5-1.7-.2-3.3.9-3.6 2.5zm-13.6-10c.3.1.6-.2.8-.5.5-.7.8-1.5 1.1-2.3-.1.4-.2.8-.2 1.2 0 .4.2.8.5 1.1.3-.8-.1-1.6-.2-2.4-.1-1 0-2 .2-2.9.1-.5.2-1 .6-1.2.4.5.4 1.2.3 1.8-.1 1-.5 2.1-.9 3 .3-.7.5-1.4.9-2 .4-.6 1-1.1 1.7-1.3-.7 1.2-1.6 2.3-2.8 3.1.2-1-.4-2-1-2.9-.6-.8-1.4-1.7-2.4-1.8.7 1.8 1.8 3.4 3.3 4.5-1.2-1.4-2.7-2.4-4.4-3.1-.7-.2-1.4-.4-2.1-.3 0 .3.3.6.6.8 1.6 1.2 3.5 2 5.5 2.4-2-.3-4.1-.3-6.1.1.3.4.8.6 1.3.7 1.4.2 2.8 0 4.1-.5-.4.7-.7 1.6-.8 2.5zm7.5-.9c0-.3-.4-.4-.7-.5-.9-.1-1.9-.1-2.5.5.9.1 1.9 0 2.8-.3-.8-1.4-1.1-3.1-.9-4.8.4.1.6.5.7.9.4 1.4.6 2.8.6 4.2zm4.5 2.3h-.2v.1c0 .3.2.6.4.8.5.5.9 1 1.4 1.4-.6-1.8-.8-3.7-.5-5.5h.2c.4.3.5.9.6 1.5.1 1.4.1 2.8-.1 4.2-.3-.6-.7-1.1-1-1.7-.3-.3-.5-.7-.8-.8zm19.9 44.1c-.2-3.2-1.7-6.3-2.4-9.4-.8-3.6-.7-7.5-2.4-10.8-.3.1-.3.5-.3.8.1 3.4.8 6.8 2.1 10-.9-2.4-2.5-4.4-4.6-5.9-.3.2-.3.8-.1 1.2 1 2.3 2.8 4.2 5 5.2 0-1.8.3-3.6.9-5.4.1-.4.5-.8.7-.5-.1 2.1-.5 4.2-1.3 6.2-.9-1.3-3-1.4-4.1-.3 1.5.4 3 .6 4.5.5"/><path fill="#A0AA57" d="M280.9 216.5c-.4-.6-.9-1.2-1.3-1.8-.4-.6-.9-1.1-1.6-1.4-.1.1-.1.3 0 .4.5 1.1 1.5 2.1 2.6 2.5.1-.9.3-1.9.6-2.8.1-.4.2-.8.6-1 .1 0 .2.1.2.2.2.7 0 1.4-.3 2s-.6 1.3-.8 1.9zm-60.4 39.8c-.1-2.5-.7-5-1.8-7.3-1.2-2.4-2.9-4.6-3.4-7.2-.2-1.3-.1-2.8 1-3.5.4 2.4.6 4.8.5 7.2-.6-1.1-1.4-2-2.4-2.7-.2-.2-.6-.3-.7-.1-.1.1-.1.3 0 .5.5 1.4 1.9 2.2 3.2 2.9-.9-1.8-1.9-3.7-2.8-5.5-1-2-2.1-4.1-2.5-6.4-.3-1.4-.3-2.8-.6-4.2-.3-1.4-1.1-2.8-2.4-3.3-.2 2.8 1.4 5.3 2.9 7.6-.1-1.5.2-3 .9-4.2.4.2.3.9.1 1.3-.4 1.1-.9 2.2-1.3 3.4-.5-.9-1.3-1.6-2.3-1.8-.1 0-.3-.1-.4 0-.3.2 0 .7.3.9 1.1.8 2.2 1.5 3.3 2.3-.1-1.3.7-2.6 1.9-3-.1 1.3-.9 2.5-2.1 3.2m8.7-7c-.9-2.8-1.8-5.7-1.9-8.7-.1-2.3.3-4.6.4-6.9.1-2.3-.1-4.7-1.1-6.8-.8 1.2-.7 2.7-.2 4 .4 1.3 1.1 2.6 1.5 3.9-.8-1.7-1.9-3.2-3.3-4.4.5 2 1.7 3.8 3.5 4.8-.1-2.1.7-4.1 2.2-5.6.4 1.6-.6 3.2-1.5 4.6s-1.9 3-1.5 4.6c-.8-1.8-1.7-3.7-3.3-4.8-.4.4-.2 1.2.1 1.7.8 1.4 2 2.7 3.3 3.6.2-1.1.9-2 1.8-2.6-.5 1.2-1.3 2.3-2.4 3.1m-4.2-27.8c.1 2-.3 4-1 5.8-1 0-1.8.9-2.3 1.7-.7 1-1.2 2.2-1.6 3.4-.1.3-.2.8.1 1 .5-.1.8-.5 1.1-1 .8-1.3 1.6-2.7 2.4-4.1-.6 1.7-.7 3.5-.2 5.2.1.2.2.5.4.5.3.1.6-.3.6-.7.3-1.7.2-3.6-.5-5.2.2 1.5.8 3 1.9 4.2.1.1.3.3.4.2.3-.1.2-.5 0-.8-1.2-2-2.5-3.9-3.9-5.7-.6-.8-1.3-1.6-2.3-2-.1 0-.2-.1-.3 0-.4.1-.2.7.1 1 1.2 1.4 2.7 2.7 4.3 3.6-.2-.5-.8-.7-1.4-.8-1.4-.3-2.8-.6-4.2-.8-.2.4.3.7.7.9 1.4.6 3 .6 4.4.2.1 0 .3-.1.4-.2.1-.1.1-.3.1-.4.1-1 0-2.1 0-3.1-.1-1 .1-2.1.8-2.9z"/><path fill="#A0AA57" d="M217.6 194.9c-.8 1.3-1.7 2.5-2.5 3.8.7-.9 1.3-1.7 2.2-2.4.9-.6 2-1 3.1-.8-1.4 1.7-3.3 3-5.3 3.7 1.8-.4 3.8-.1 5.3.9-.7.6-1.7.5-2.6.2-.9-.3-1.7-.8-2.6-.8 1.1.4 2.1 1.4 2.5 2.5-1-.6-1.9-1.3-2.6-2.2-.1-.2-.3-.4-.3-.6 0-.2 0-.3.1-.5.5-2 1.2-4 2-5.9.1-.3.3-.6.5-.8.3-.2.7-.3.9-.1.2.1.2.3.2.6.1 1-.4 1.8-.9 2.4zm81.8 20.5c-1.7 1.3-3.7 2.3-5.7 3.1 2.3-1.4 5-2.4 7.7-2.7.6-.1 1.2-.1 1.7.3-.2.3-.6.5-1 .6-2.4.8-4.8 1.3-7.3 1.5 2.3-.5 4.8-.6 7.1-.5.3 0 .8.2.7.5 0 .2-.3.3-.5.4-2.7.7-5.5.6-8.1-.2 1-2.6 2.1-5.2 3.4-7.6.2-.5.6-1 1.2-.9.1 1.5-.3 3-1 4.3-.7 1.3-1.6 2.5-2.6 3.6 1-2 2.7-3.5 4.7-4.4.3-.1.7-.2.9 0 .1.2.1.4 0 .6-.2.6-.7 1-1.2 1.4zm-10.9-3.9c-.4.4-.2 1 .1 1.5.9 2 1.9 3.9 3.1 5.8-1.2-1.3-2.5-2.6-4.1-3.4-.7-.4-1.5-.6-2.2-.3-.1.1-.3.2-.3.3-.2.4.3.8.7 1 1.8.9 3.6 1.7 5.4 2.6-1.1-.2-2.1-.7-3.1-1.1-1-.4-2.1-.6-3.2-.4-.4.1-.8.3-.8.7 0 .4.5.6 1 .7 2.1.3 4.2.2 6.3-.3 0-.1-.2-.2-.3-.1.4-1.7.8-3.3 1.1-5 .2 0 .3.3.4.5.3 1.5.1 3.1-.5 4.5-.3-2.5-1.6-5.1-3.6-7z"/><path fill="#A0AA57" d="M295.4 223.2c.5.2 1.1.5 1.1 1-.5.6-1.4.5-2.2.3-1.5-.4-2.8-1.2-4-2.2 1.2.5 2.3 1.5 2.9 2.7-.6.1-1.2-.3-1.7-.8-.9-1-1.7-2.1-2.1-3.4 2.3-1.5 5.1-2.5 7.9-2 .6.1 1.2.3 1.5.7-.3.4-.9.5-1.4.5-1.4.2-2.8.3-4.3.5-1.1.1-2.2.3-3.3.1 2-.3 4.1-.3 6.1-.1 1 .1 2 .3 2.8.8.2.1.4.3.4.6s-.4.5-.7.5c-.9.2-1.8.1-2.8-.1-2.1-.3-4.2-.8-6.2-1.5 2.1.9 4.1 1.7 6 2.4zm-9 6.7c.4 0 .5-.5.6-.8.5-2 .7-4 .5-6-.1 1.9.2 4 1.5 5.5.2 0 .2-.2.2-.4-.1-1.8-.6-3.6-1.6-5.1.3 1.4 1 2.8 2 3.8.2.2.5.4.7.3.7-.4-1.7-3.8-2-4.1.3.9 1 1.9 1.9 2.3.4-2.2-2.1-2.3-3.2-1.1-.5.7-2.2 5.8-.6 5.6zm-9.4-2.6c-.6.2-1.3-.1-1.9-.5-.5-.4-.9-1-1.5-1.4-.9-.7-2.2-1-3.4-.8-1.2.1-2.3.6-3.3 1.2-.5.3-1.1.7-1.2 1.4 2.9 0 5.8-.6 8.4-1.7-2.1.3-4.2 1.1-6 2.3-.9.6-1.8 1.3-2.2 2.3.5.3 1.1.2 1.7-.1 2-.8 4-1.8 5.8-3.1.3-.2.6-.6.3-.8-2.1.9-3.7 2.9-4.1 5.2 1.7-1 3.1-2.6 3.8-4.5-.6 1.1-.9 2.4-.6 3.7 1.2-1 1.2-2.8 1.1-4.3 0-.4 0-.8.1-1.2.1-.3.3-.5.4-.7l1.5-2.1c.3-.4.7-.9 1.2-.9.2.5-.1 1-.4 1.5-.8 1.1-1.8 2.1-2.9 2.9 1.3-.8 2.9-1.6 4.4-1.2-1.1.8-2.6 1.2-3.9 1 .9.5 1.9 1.1 2.7 1.8zm-36.4 23.3c.5-2.2-.2-4.7-1.9-6.2 0 2.1 1.1 4 2.2 5.8-.9-1.2-1.9-2.2-3.1-3-.7-.5-1.5-1-2.4-.9-.3.4.1.9.5 1.2 1.3 1 2.6 2 4 2.9-1.3-1.2-2.8-2.3-4.6-2.3-.4 0-.8.1-.8.5 0 .2.1.3.3.4 1.5 1.2 3.7.8 5.5 1.4-1.3-.1-2.6-.2-3.9-.1-.8.1-1.8.3-2 1 1.9.6 4 .6 5.9 0 .2-.1.3-.1.4-.3.1-.2.1-.4.1-.6-.1-1.5.7-3.1 2-3.9-.1 1.9-1 3.7-2.5 4.9l2.1-2.1c.5-.4 1-.9 1.6-1 .1 0 .3 0 .4.1.2.2.1.4-.1.6-.9.9-2.3 1.6-3.7 1.6zm6.6-1.8c1.3-2.1 3.3-3.8 5.7-4.6.2-.1.5-.1.7-.1.2 0 .5.2.5.5 0 .2 0 .4-.1.5-.4.8-1.2 1.3-2 1.7-1.7.9-3.4 1.6-5.2 2.1 1.8-.9 3.7-1.7 5.7-1.7-1.5 1.5-3.8 1.7-5.9 1.7.8-1.9 1.7-3.7 3.1-5.2.5-.5 1.2-1.1 1.9-.9.1.5-.2 1-.5 1.5-1.1 1.6-2.4 3.1-3.9 4.5zm-24.6 7c1.5.6 3 1 4.6 1.3-1.9-.7-3.8-1.4-5.9-1.3-.3 0-.6 0-.8.2-.2.2-.3.5-.2.7.1.2.3.2.4.3 2.1.8 4.3.3 6.5-.1-1.4 0-2.7.2-4 .7-.7.3-1.4.7-1.8 1.3.4.4 1 .3 1.6.2 1.4-.4 2.7-1.1 3.9-1.9 0-.2-.3-.1-.3.1-.6.8-1 1.8-1.1 2.8v.3c.1.2.4.1.6 0 .4-.2.7-.6.9-1 .7-1.3.3-3-.2-4.4s-.9-3-.3-4.4c.3 0 .5.3.7.6.7 1.5.7 3.3.1 4.9-1-1.9-2.5-3.6-4.4-4.8-.2.3.1.7.3 1 1.1 1.4 2.3 2.8 3.6 4-1-1.3-2.7-2.1-4.3-2.1-.2 0-.5 0-.7.2-.2.2-.2.6 0 .9.2.2.5.4.8.5zm-6.9-2.7c-.3-.1-.8-.2-1 .1.2.5.6 1 1 1.4 1 1 2.2 1.8 3.6 2.2-.8-.3-1.5-.7-2.4-.9s-1.7-.2-2.5 0c.1.3.4.4.6.5 1.2.5 2.5.7 3.8.7.2 0 .4 0 .5-.1.1-.1.1-.4 0-.6l-.6-2.4c-.1-.4-.2-.8 0-1.2.5.1.8.7.9 1.3.1.9 0 1.9-.5 2.8.1-.6-.2-1.2-.6-1.6-.7-1-1.7-1.8-2.8-2.2z"/><path fill="#A0AA57" d="M225.6 248.2c-.3-.2-.6-.5-.9-.5s-.8.1-.9.5v.5c.7 2.8 2.3 5.3 4.6 7.1-1.7-1.3-3-3-4.9-3.8-.3-.1-.6-.3-.9-.2-.3 0-.6.2-.7.5 0 .2 0 .4.1.6.3.7 1 1.2 1.6 1.6 1.5.9 3.3 1.3 5 1.1.1 0 .2 0 .3-.1.1-.1.1-.2.1-.3.3-1.8.6-3.8 2-4.9.2-.2.5-.3.7-.1.1.1.1.2.1.3.1 1-.2 2.1-.7 2.9s-1.3 1.6-2 2.3c-.1-2.8-1.4-5.6-3.5-7.5z"/><path fill="#A0AA57" d="M227.3 253.8c.3.2.6.6.8 1 .8 1.3 1.4 2.7 2 4.1-.2-1.4-.3-2.9-.2-4.4 0-.7.2-1.3.5-1.9.1-.2.3-.3.5-.2.1.1.1.1.1.2.5 1.9.3 3.9-.5 5.6.3-1.8 1.4-3.5 2.9-4.5.2.3.1.7-.1 1-.7 1.4-1.6 2.7-2.9 3.7 1.2-1 2-2.1 3.7-2.3-1.3 1.7-3.7 3.1-5.8 2-1-.5-2.1-1.5-2.5-2.6-.4-.9.1-2.7 1.5-1.7zm60.5-29.9c.5-.5.9-1.3 1.3-1.9.5-.6 1.2-1.1 1.9-1.1.2.4.1.9-.2 1.3-.2.4-.6.7-1 1-.8.6-1.7 1.2-2.6 1.4h-.3c-.1-.1-.2-.2-.2-.3-.5-1.5-1-3-1.4-4.6-.1-.3-.1-.6.1-.8.5.2.9.7 1.1 1.1.7 1.3.7 2.8.7 4.2.6-1.6.5-3.6 1.5-5 .2-.3.6-.6.9-.3.2.2.2.5.1.8-.5 1.6-1.1 3-1.9 4.2zm-4.8-40.4c-.6.5-1.5.4-2.2-.1s-1.1-1.1-1.5-1.8c-1.1-1.8-2.3-3.8-2.3-6 0-1.7.6-3.3 1.1-4.9 1.4-4.3 1.5-9.6-1.7-12.9-.6 4 .8 8 2.2 11.8-1.7-3.1-3.9-6.5-7.4-7-.7 1 .1 2.3 1 3.2 1.7 1.8 3.6 3.4 5.6 4.9-2.6-1.1-5.2-2.1-7.8-3.2-.2 1.2 1.2 2 2.3 2.4 2 .7 4 1.4 6.1 2.1.5-2.5 1.8-4.9 3.6-6.7.7-.7 1.6-1.3 2.5-1.1.4 1.8-.9 3.6-2.4 4.8-1.5 1.2-3.2 2-4.5 3.5 1.4-1.3 3.1-2.2 4.9-2.7.2-.1.4-.1.6 0 .6.2.3 1.1-.2 1.6-1.6 1.6-3.9 2.6-6.2 2.6-.1.2-.2.5-.3.7m10.1 2.3c1.2-1.6 1.9-3.5 2.9-5.2 1.1-1.7 2.6-3.2 4.6-3.4 1.2 2.6-6.3 7.7-8.1 8.6-1.1-2.7.3-10 3-11.4 1.6 2.9-.6 8.9-2.4 11.4z"/><path fill="#A0AA57" d="M279.2 177.7c-4-.9-5.7-6.2-9.5-7.6-.3-.1-.7-.2-.9-.1-.6.3-.4 1.1-.1 1.7 1 1.6 2.9 2.5 4.7 3.3-1.5-.3-3-.4-4.4-.2 1.7.2 3.4.2 5 0-1.6-.2-3.2.5-4.1 1.9 1.1 0 2.3 0 3.3-.5 1-.4 1.9-1.4 2-2.5.1-.6-.1-1.2-.1-1.9.1-.6.5-1.3 1.1-1.3 0 1.6-.5 3.1-1.6 4.3m4.5-6.8c.9-3.1 1.3-6.4 1.2-9.7 0-2.5-.5-5.2-2.2-7.1-1.1-1.1-2.8-2.1-2.8-3.7 2 1.9 3.6 4.4 4.3 7.1-1.4-1.8-3.4-3-5.7-3.4.3 1.3 1.7 1.9 2.9 2.3 1.2.4 2.6.8 3.4 1.8-.3-1.3-.5-2.6-.5-4 .1-1.3.5-2.7 1.5-3.6 1.3 2.5 0 5.6-1.3 8.1.5.9.6 2 .5 3 .5-.9 1-1.9 1.7-2.6.8-.7 1.8-1.2 2.8-1-1.1 2.1-3 3.8-5.1 4.7-.8-1.3-1.6-2.5-2.4-3.8 0 1.5.8 3 2 4m-124 253.7c-.2-4.9-1.6-9.8-4-14-.8-1.4-1.7-2.7-3.1-3.5.4 3.8 2.5 7.4 5.6 9.6-1.2-1.4-2.9-2.3-4.8-2.4-.4 0-.9 0-1.1.4-.2.4.2.8.6 1.1 1.5 1 3.3 1.7 5.2 1.9-.2-2.4-.3-4.9.1-7.3.4-2.4 1.5-4.8 3.3-6.4.4 2.2-.2 4.4-1.2 6.4s-2.2 3.8-3 5.9c1.9-2.8 4.2-5.8 7.5-6.3-1.7 3.1-4.3 5.8-7.4 7.5m-22 18.3c-2.4-.2-4.9 1.3-5.8 3.5 1.9.5 3.8-.8 5.4-2.1.7-.5 1.4-1.1 1.8-1.9.3-.6.3-1.2.4-1.8.4-5.3-.3-10.7-2-15.7-.6 2.2-.3 4.5.1 6.7.6 3.5 1.3 7 2.1 10.5-1.7-3.8-4.3-7.3-7.5-9.9-.6.2-.4 1-.2 1.6 1.5 3 4.1 5.4 6.6 7.7-2.6-1.8-5.4-3.4-8.2-4.8-1-.5-2.3-1-3.4-.6-.2.1-.4.2-.5.4-.2.4.2.8.5 1 3 2.3 7.5 1.8 10.5 4-1.4-.4-2.9-.8-4.4-.8-1.5 0-3.1.5-4.1 1.6.5.9 1.7 1 2.7.9 2 0 4-.2 6-.3zm16.8-6.4c-2.4 2.8-5.6 4.9-9.1 5.8 3.4-1.6 7-2.9 10.8-2.8.4 0 .8.1 1.1.3.5.5.2 1.3-.3 1.7-.5.4-1.2.4-1.9.4-2.9 0-5.9 0-8.8.1 2.7-.2 5.6-.4 8.1.8.7.3 1.4.7 1.7 1.4.3.7.2 1.6-.4 2-.5.3-1.2.2-1.8.1-2.3-.6-4.6-1.5-6.6-2.7-.5-.3-.9-.6-1.2-1-.2-.3-.2-.7-.2-1.1 0-3.9.6-7.8 1.6-11.5.3-1 .8-2.2 1.8-2.4.4 5-1.2 10-2.9 14.7 1.7-3.2 4.2-6.3 7.7-7.2.2 0 .4-.1.6 0 .5 0 .2.9-.2 1.4z"/><path fill="#A0AA57" d="M159.7 406.9c.4.4.2 1-.1 1.5-1.7 2.9-3.9 5.6-6.5 7.7 2.7-2.7 6.6-4.3 10.4-4.3.2.4-.1.7-.4 1-2.9 2.7-6.9 4.1-10.8 3.8 2.9-.2 6.1-.4 8.6 1.2.2.1.4.3.5.5 0 .4-.4.6-.8.7-2.5.6-5.1-.4-7.5-1.4.9.6 1.7 1.4 2.4 2.2.3.3.5.7.6 1.1.1.4-.1.9-.5 1-.4.1-.7-.1-1-.3-2.5-1.9-3.2-5.2-3.8-8.3-.3-1.7-.6-3.4-1-5.1-.1-.4 0-1 .4-1.1 2.1 2.7 2.5 6.4 2.4 9.8.6-4.1 3.3-8 7.1-10zm-13.5 10.3c1.2.2 2.5.1 3.6-.3-.2-3.2-1.6-6.2-3.9-8.4-.3-.3-.8-.6-1.2-.3.8 3.4 2.8 6.4 4.8 9.2-.6-.8-1.4-1.5-2.2-2.1-.5-.4-1-.7-1.6-.8-.6-.1-1.3.2-1.5.8-.2.5.1 1.1.5 1.4s.9.4 1.5.5zm31.2-13.8c1.9-1.9 4.6-2.9 7.3-2.7-.2.9-1.1 1.5-1.9 2-1.9 1-4 1.7-6.1 1.9 0-4.3.5-8.6 1.4-12.7.1-.6.5-1.4 1.1-1.4.6 4.2-.7 8.5-1.9 12.6.7-1.5 1-3.1 1.7-4.6.7-1.5 2-2.8 3.7-2.9.3 0 .6 0 .9.2.4.3.5.8.4 1.2s-.4.8-.6 1.2c-1.7 2.1-3.8 3.7-6 5.2zm-11.7-3.9c-.5-.5-1.2-.9-1.9-.8-.3.7.2 1.5.7 2.1 1.4 1.6 3 3.1 4.7 4.3-1-.7-1.9-1.4-3-1.9-1.6-.9-3.8-1.4-5.2-.2-.4.3-.6.9-.3 1.2.1.2.4.2.6.2 2.3.4 4.5.7 6.8.7-2.5.1-4.9 1.3-6.5 3.3.6.3 1.3 0 1.9-.3 1.8-.9 3.7-1.8 5.5-2.8.3-.1.5-.3.7-.5.2-.2.2-.5.2-.8.4-4.3-.6-8.7-2.9-12.3-.6.3-.8 1.1-.8 1.8.1 2.3.8 4.6 1.6 6.8.6 1.7 1.2 3.3 1.8 4.9-.7-2.1-2.1-4.1-3.9-5.7z"/><path fill="#A0AA57" d="M170.9 408.1c.4-.2.8-.3 1.2-.6.3-.3.5-.6.8-1 1.1-1.6 2.8-2.7 4.7-3.2-1.4 2.3-3.8 4-6.4 4.5-.6-3.9-.6-7.9.1-11.7.3-1.5.9-3.2 2.3-3.7.5 5.3-.5 10.6-2.9 15.4.3-.5.5-1 .8-1.4-1-2.2-1.9-4.4-2.9-6.6-.4-.9-1-2-2-2-.9 1.3-.1 3.1.7 4.5 1.1 2 2.3 3.9 3.4 5.9-1.9-1.3-4.6-1.2-6.3.4 2.2.4 4.5.3 6.5-.5zm26.8-18.1c-.3.9-1.2 1.4-2 1.8-2.4 1.1-4.9 1.8-7.4 2.1 1.7-.2 3.5 0 5.1.4.4.1 1 .5.7.9-.1.2-.4.2-.7.2-1.5-.1-2.9-.5-4.2-1.2-.2-.1-.4-.2-.6-.2-.2 0-.5 0-.7.1-1.4.5-2.6 1.4-3.4 2.6 2.3-.3 4.4-1.5 5.8-3.3-.1.2-.4.2-.6.1-.2-.2-.2-.4-.2-.6-.2-4.9-.1-9.9.2-14.8.8-.1 1.1.9 1.2 1.7.5 4.4-.1 8.9-1.5 13 1-2 1.5-4.2 2.4-6.1.9-2 2.6-3.9 4.7-4.2-1.5 4.1-4.2 7.7-7.7 10.4-.6-3.3-2.4-6.5-4.8-8.8.8 3.6 2.8 7 5.5 9.5 2.3-2.1 5.2-3.4 8.2-3.6z"/><path fill="#A0AA57" d="M194.1 387.7c1.6 1.7 3.7 2.9 6 3.4 1.8-3.2 5.3-5.3 9-5.5-.2.9-1 1.5-1.8 2-2.3 1.4-4.7 2.6-7.2 3.4 3.5-3.6 5.2-8.9 4.2-13.8-.5 0-.8.6-1 1.1-1.1 3.8-2.1 7.7-2.5 11.7.4-4.7-.5-9.6-2.4-13.9-.5 4.8-1 9.9 1.2 14.3-.5-4.4-2.2-8.7-5-12.2-.4-.5-1-1.1-1.6-1-.4 2.2.4 4.5 1.6 6.4 1.2 1.9 2.6 3.6 3.8 5.6-1.3-1.8-3.1-3.2-5.1-4.1-.5.8.1 1.8.8 2.6zm-58.3 32.7c-.8 2.7-2.1 5.2-3.5 7.7 2-2.8 4.2-5.7 7.4-7-.3 1.8-1.5 3.4-2.8 4.6-1.4 1.2-3 2.1-4.7 3-.3.2-.6.3-.9.2-.3-.1-.5-.3-.7-.5-1.7-1.8-3.7-3.4-5.9-4.8-.8-.5-1.9-.9-2.5-.2.1 1.1 1.2 1.9 2.2 2.3 2.4 1.1 5 1.9 7.6 2.2-1.5.4-3 .3-4.5.6s-3 .9-3.7 2.2c2.6-.2 5.1-1 7.3-2.4.2-.1.4-.2.5-.4.2-.3.3-.6.3-1 .5-3.1 1.3-6.2 2.6-9.1.3-.6.7-1.3 1.3-1.3.6 1.3.4 2.7 0 3.9zm7.9-6.7c.1-5.3.7-10.6 1.8-15.7.5-2.3 1.2-4.7 3-6.1-.6 4.8-1.9 9.5-3.9 13.9-.5-4.2-1.9-8.4-4.1-12.1-.2-.4-.5-.8-.8-1s-.9-.2-1.2.2c-.2.2-.2.6-.1.9.5 4.6 4 8.2 5.2 12.7-1.3-1.7-2.9-3.2-4.7-4.2-.6-.3-1.6-.5-1.7.2-.1.4.2.7.5.9 1.5 1.5 3.4 2.6 5.4 3.3.5.2 1.1.7.7 1.1"/><path fill="none" stroke="#A0AA57" stroke-width=".25" stroke-miterlimit="10" d="M120.9 429.5c-2.8-9.3-4.8-19.2-2.7-28.7.9-4.3 3.1-8.8 7.3-10.3 1.3-.5 2.8-.6 4.2-1 3.3-1.1 5.8-4.1 6.3-7.5 1-7.2-6.5-13.3-6.4-20.6 0-.7.1-1.5.6-2.1.6-.8 1.6-1.1 2.6-1.2 6.8-1.1 14.2 1.3 20.4-1.8 2-1 4.3-2.6 6.3-1.4 1.1.7 1.6 2.1 1.4 3.4-.1 1.3-.8 2.4-1.5 3.5-1.8 2.8-4.1 5.4-5.1 8.6-1 3.2-.4 7.3 2.5 8.9 2.2 1.2 4.9.7 7.3.1 2.3-.5 4.6-1.1 6.7-2.2 4-2.1 6.9-6.3 7.5-10.8.9-7.2-3.6-14.3-2.3-21.4.4-2 1.4-4.1 3.2-5.1 1.9-1 4.2-.5 6.3-.7 1.7-.1 3.5-.8 4.7-2.1 1.1-1.3 1.5-3.4.5-4.8-.9 1.9-1.5 4-1.5 6.2"/><path fill="#A0AA57" d="M126.7 380.2c.4 3.2 1.3 6.3 2.6 9.2-.9-2-2.1-3.8-3.7-5.3-.6-.6-1.4-1.2-2.2-1.3-.2 0-.5 0-.7.1-.6.3-.3 1.2.1 1.7 1.6 2.1 3.5 3.8 5.8 5.1.1.1.3.1.4.1.2 0 .3-.1.4-.2 2.3-1.7 5.3-2.2 8-1.3-.5 1-1.7 1.1-2.8 1.2-2.3.1-4.6.3-6.9.4 1.2-.1 7.4 2.5 4.9 3.6-1.7.8-3.2-1.4-3.3-2.7-.1-1.9.8-3.8.8-5.7 0-2.6-1-5.5-2.9-7.3-.6.6-.6 1.6-.5 2.4z"/><path fill="#A0AA57" d="M134.2 386.5c.8-3.9-.3-8.2-2.8-11.3-.7.1-.7 1.1-.6 1.7.6 3.2 1.5 6.4 2.7 9.4.4-.4.1-1-.2-1.4-.7-1-1.5-1.9-2.3-2.8-.2.9.1 1.9.6 2.7s1.2 1.5 1.9 2.1c.1.1.2.2.3.2.2 0 .2-.2.3-.3.7-1.7 1.9-3.3 3.4-4.4.8-.6 1.7-1.1 2.7-1 .1.7-.5 1.3-1 1.7-1.6 1.3-3.3 2.4-5 3.4zm20.8-7.3c-1.7-.6-3.7.1-4.6 1.6 1.8-.2 3.6-1 5-2.2-1.3 1.3-2.2 3.1-2.3 5 0 .1 0 .3.1.4.2.3.7 0 .8-.4.7-1.4 1.1-3.1 1-4.7.1 1.7.2 3.5 1.3 4.8.2.2.5.5.8.3.3-.2.1-.6 0-.9-.6-1.3-1.4-2.5-2.2-3.8 2-.2 3.9-1 5.3-2.3.3-.3.7-.8.5-1.2-.3-.5-1-.3-1.5 0-1.3.8-2.5 1.8-3.4 2.9 1.5-3 1.9-6.5 1.1-9.7-1.3 3-1.7 6.3-1 9.5-1.1-1.5-2.2-3.1-3.4-4.5-.6-.8-1.6-1.7-2.5-1.4-.3.7-.1 1.5.3 2.1s1 1.1 1.5 1.5c.9 1.1 2.1 2 3.2 3zm6.7.8c2.2.7 4.3 1.9 5.9 3.6.2.2.3.4.3.6l-.3.3c-.7.3-1.5-.1-2.1-.4-1.4-.8-2.6-2-3.4-3.4 1.3 1.4 2.2 3.2 2.5 5.1-2-1.3-3.2-3.7-3.2-6.1-1.2 1.1-2.5 2.2-3.7 3.3.4-.8.8-1.7 1.5-2.4s1.6-1.2 2.5-1c1-2.6 2.2-5.1 3.5-7.5.3-.6.7-1.2 1.4-1.3.3 1.8-.6 3.5-1.7 4.9-1.1 1.4-2.5 2.6-3.4 4.1 1.5-.8 2.6-2 4-3 1.3-1 2.9-1.8 4.6-1.7.1.9-.7 1.7-1.5 2.1-2 1.3-4.2 2.1-6.5 2.6 2.9-.1 5.8-.2 8.6.4-.2.8-1.1 1.1-1.9 1.1-2.4.1-4.8-.6-7.1-1.3z"/><path fill="#A0AA57" d="M154.8 377.4c.3.9.9 1.9 1.9 1.8-.3-3.2-1.1-6.4-2.3-9.4.5 1.3 1.1 2.5 1.8 3.6.7 1.2 1.8 2.4 3.1 2.2-.6-2.9-2.7-5.5-5.4-6.8 1.9 1.3 4.1 2 6.4 1.9-1.6-2.1-4.5-3-7-2.1 1.7-.2 3.3-1 4.5-2.2.5-.4.9-1.1.5-1.6s-1.2-.1-1.7.3c-1.2 1-2.2 2.3-3 3.6.6-2.9-.2-6.1-2.1-8.5-.8 1.7-.4 3.7.4 5.4.7 1.7 1.8 3.2 3 4.6-1.4-1.6-3.2-3.3-5.2-2.9-.8.2-1.7 1.1-1.1 1.8.3.3.8.4 1.2.4 1.8.1 3.6.1 5.3 0-1.8-.4-3.7-.1-5.3.8-.4.3-.9.8-.6 1.2.2.2.5.3.8.3 1.6-.1 3.1-.8 4.2-1.9-.4 2.5-.2 5.1.6 7.5zm-26-1.9c1.8.4 3.6.5 5.4.4-1.8.2-3.5 1.2-4.4 2.8.3.4.9.2 1.3 0 1.2-.7 2.2-1.5 3.2-2.4-1 1.3-1.4 3-1.2 4.6 0 .3.2.6.4.6.3 0 .5-.3.5-.6.4-1.6.5-3.2.5-4.9-.1.4.4.7.8.8 1.9.5 4 .5 5.9 0-2.1-.9-4.5-1.2-6.8-1.1.1-2 .5-3.9.9-5.8.3-1.3.8-2.7 1.9-3.5.8.5.9 1.6.9 2.5-.2 2.9-1.8 5.4-3.4 7.8-.9-2.3-1.9-4.6-3.2-6.8-.5-.9-1.1-1.8-2.1-2.2-.6.8-.4 1.9-.1 2.8.9 2.6 2.8 4.8 5.2 6.1-1.4-.9-2.9-1.6-4.5-2.1-.9-.3-1.9-.5-2.8 0 .2.5 1 .8 1.6 1zm1.2-14c1.5 0 3.1.6 4.3 1.5-1.2.3-2.6.1-3.7-.4-.3-.1-.5-.3-.7-.5-.2-.3-.2-.6-.3-.9-.4-2.5-.4-5.1-.1-7.7.1-1.1.5-2.4 1.5-2.9.2-.1.5-.2.7-.1.6.2.6 1 .5 1.5-.4 2.9-1 5.7-1.7 8.5.9-3 1.9-6.2 4.1-8.5.8-.9 1.9-1.6 3.1-1.7-1.8 4-4.6 7.6-7.9 10.4 2.5-3.6 6.7-6.1 11.2-6.4.4.5-.1 1.1-.5 1.5-2.9 2.5-6.6 4-10.3 4.4 3.6-1.4 7.6-1.9 11.4-1.3.3 0 .6.1.6.4.1.3-.2.5-.5.6-3.6 1.6-7.7 1.6-11.7 1.6z"/><path fill="#A0AA57" d="M147 364.4c.4-1.8.6-3.7.5-5.5.3 1.2.5 2.4 1.1 3.5.6 1.1 1.5 2.1 2.7 2.4-.3-2.3-1.6-4.5-3.4-5.9 2 1.4 4.6 1.7 6.9.9.4-.1.9-.4.8-.9 0-.2-.1-.3-.3-.5-.5-.5-1.2-.6-1.9-.6-1.9-.1-3.8.2-5.6.8 2.6-1.1 5.5-2.4 6.7-5 .2-.4.3-.9 0-1.3-.2-.3-.6-.3-.9-.3-1 .1-1.9.7-2.8 1.4-1.9 1.5-3.6 3.4-4.9 5.4 2.3-2.1 3.8-4.9 4.2-8 .2-1.1.2-2.2-.4-3.2-1.6 3.3-2.8 6.8-3.6 10.4-.1.3 0 .8.3.8 1.4-2.7.3-6.1-1-8.8-.8 2 .6 4 1.3 6.1.1.4.2.9.2 1.3s-.2.8-.3 1.2c-.7 2.1-1.2 4.2-1.5 6.4-.1.6-.1 1.3.3 1.8 1-.3 1.4-1.4 1.6-2.4zm-29.8 41.3c.2-3.4-1.3-6.8-3.9-8.9-.5-.4-1.1-.8-1.7-.5 1.1 3.9 2.8 7.5 5 10.8-1.2-2.1-3.1-3.7-5.4-4.4-.2-.1-.4-.1-.6 0-.5.2-.4.8-.2 1.3 1.2 2.5 4 3.9 6.6 4.9-2-1.2-4.1-1.9-6.4-2.3-.4-.1-.8-.1-1.1.1-.4.3-.5.8-.3 1.3.2.4.6.7 1 1 1.8 1 3.9.9 5.9.8.3 0 .5 0 .7-.2.2-.2.2-.5.2-.7 0-1.9.2-3.9 1-5.6.8-1.8 2.2-3.3 4.1-3.8.5.5.4 1.4.2 2.1-1.1 3.5-3.1 6.8-5.8 9.3 2.2-3.1 5.5-5.4 9.1-6.6-.1.9-.8 1.7-1.5 2.3-2 1.6-4.5 2.5-6.9 3.3 1.8-.5 3.6-.8 5.5-1 .5 0 1 0 1.2.4.1.3-.1.7-.4.9-1 .9-2.4 1.3-3.7 1.4-1.4 0-2.7-.3-4-.6"/><path fill="#A0AA57" d="M121.1 419.4c0-.2-.1-.4-.2-.5-1-1.8-2.9-3.2-4.9-3.7 1.4.5 2.8.8 4.3.7-.2-.5-.9-.7-1.4-.7-1.4-.2-2.8-.2-4.2-.1-1.2.1-2.3.3-3.5.2-1.2-.1-2.3-.7-2.8-1.8-.1-.2-.1-.5 0-.7.2-.3.6-.3.9-.2 2.2.4 4.3 1.2 6.2 2.2-1.1-2.2-1.3-4.8-.6-7.2.8 1 1.3 2.3 1.3 3.6.2 4.7-5 8.4-4.7 13.1 1 0 1.7-1 2.1-1.9 1-2.3 1.8-4.8 2.2-7.3-.5 2-.4 4.2.3 6.2.4 1.3 1.3 2.6 2.6 2.9-.5-2.7-1.5-5.4-2.8-7.8 1 1.4 2.1 2.8 3.6 3.5.7.2 1.6.1 1.6-.5z"/><path fill="#A0AA57" d="M125.6 419.2c-.4 3.3-2.3 6.3-4.3 9 1.5-1.5 3-3.1 5.1-3.5-.8 1.6-2 2.9-3.6 3.7-.5.3-1 .5-1.6.5-1.4 0-2.5-1.2-3.4-2.2-1.4-1.5-2.9-2.7-4.6-3.8-.9-.5-2-1-2.9-.6 2.3 3.8 6.3 6.5 10.7 7.1-1.2-2.7-2-5.7-2.2-8.6 0-.5.1-1.2.6-1.2.6.5.8 1.4.9 2.1.5 2.6.8 5.2.8 7.8-.1-3.4.9-6.8 2.9-9.5.4-.6 1-1.1 1.6-.8zm-5.6-22.4c.3 0 .5-.2.7-.3 1.3-.9 3-1.2 4.5-.8-1.3 1.1-3.2 1.6-4.8 1.1-.9-3.7-1-7.6-.3-11.3.6.4.7 1.2.8 2 .2 3.1-.1 6.1-.5 9.2.5-1.3.7-2.7 1-4.1.4-1.4.9-2.7 2-3.6.7 1 .3 2.4-.3 3.5-.8 1.6-1.7 3.1-2.7 4.6-1-1.5-2.2-2.8-3.6-3.9-.3-.2-.7-.5-1-.3-.4.2-.2.8 0 1.2.9 1.3 2.4 2 3.8 2.7 0-.1.2 0 .4 0zm41.2-44.1c.6 1.9.3 4.1-.6 5.9 1.1-1.7 2.2-3.4 4-4.3.7-.4 1.8-.4 2.2.3.4.7-.3 1.6-.9 2.1-1.9 1.6-4.1 2.7-6.5 3.3 1.8-.3 3.6-.5 5.5-.4.8 0 1.7.2 2.3.7.1.1.2.3.2.4 0 .4-.4.6-.8.8-2.5.7-5.3-.2-6.9-2.2 2.5 1.4 4.3 3.9 4.9 6.7-1-.3-1.7-1.1-2.2-2-1.1-1.5-1.9-3.1-2.6-4.9 1.1 1.7 1.4 3.9 1 5.9-.1.4-.4.9-.8.7-.1-.1-.2-.2-.3-.4-.7-2-.8-4.2-.4-6.2 0 .2-.2.4-.4.3.5-.2 1-.3 1.5-.3-.9-2.2-1.5-4.6-1.5-7.1 0-.5.1-1.2.5-1.5 1 .3 1.6 1.3 1.8 2.2zm13.6 13.5c.8.7.6 1.9.2 2.9-.9 2.3-2.1 4.5-3.6 6.4.2.2.5 0 .7-.2 1.6-1.7 2.9-3.8 4.9-5 .7-.4 1.6-.7 2.3-.2-.1 1-.8 1.8-1.5 2.5-1.5 1.4-3.3 2.5-5.2 3.2 1.6-.4 3.3-.5 4.9-.1.6.1 1.2.4 1.4 1-1 .7-2.3.9-3.5.7-1.2-.2-2.4-.7-3.5-1.2 1 .7 2 1.5 2.7 2.5.2.3.4.7.5 1.1 0 .4-.2.8-.6 1-.5.2-1.1-.3-1.3-.8-.7-1.2-.8-2.6-.4-3.9.3 1 0 2.3-.9 2.9-.2-1.1 0-2.3.5-3.3-1.9-.7-3-3.1-2.4-5 1.4 1.1 2.2 2.8 2.2 4.6.3-2.3.6-4.6 1.1-6.8.1-1 .6-2.1 1.5-2.3z"/><path fill="#A0AA57" d="M179.2 365.7c-.3-1.5-.7-3-1.2-4.4.6 1.8 1.7 3.4 3.1 4.7.4-.4.1-1-.2-1.5-.9-1.3-2-2.6-3.2-3.6 1.2.6 2.6 1 4 1.1.8 0 1.9-.3 1.9-1.1 0-.4-.4-.8-.8-1-.4-.2-.9-.1-1.3-.1-1.4.2-2.8.6-4.1 1.2 1.4-.4 2.8-.9 3.8-1.8 1.1-.9 1.8-2.4 1.4-3.8-2.5 1-4.5 3.1-5.4 5.7-.8-3.1-3-5.9-6-7.3-.5.4-.2 1.2.1 1.8 1.4 2.4 3.6 4.3 6.3 5.1-1.7-.5-3.3-1-5-1.4-.8-.2-1.9-.3-2.3.4.1.6.8.9 1.4 1 1.8.4 3.7.4 5.5.1-1.2-.1-2.2.8-2.9 1.6-1.2 1.4-2.1 3.2-2.6 5 1.4-.4 2.6-1.4 3.5-2.5s1.5-2.5 2.1-3.9c-.2 1.4-.2 2.8-.1 4.3.1 1.2.6 2.6 1.7 2.8.5-.7.4-1.6.3-2.4zm-12.7 14.6c-.6.7-1.6.9-2.5.9-1.5 0-3-.3-4.3-.9 1.8.6 3.1 2.3 3.5 4.1.1.5 0 1.1-.4 1.2-.4.1-.8-.2-1-.5-1.5-1.8-2.2-4.1-2.4-6.4s.3-4.6.9-6.8c.2-.9.8-1.9 1.7-1.9 1 1.1.7 2.8.2 4.1-.6 1.8-1.5 3.4-2.6 5 1.4-2 2.9-4.1 5.1-5.3.6-.3 1.3-.5 1.9-.2 0 .7-.4 1.2-.9 1.7-1.7 1.8-3.7 3.3-6 4.5 1.7-.7 3.5-.9 5.3-.6.5.2 1.3.5 1.5 1.1z"/><path fill="#A0AA57" d="M179 343.4c-1.3 2.6-2.3 5.5-2.9 8.4-2.4 1.2-4.4 3.3-5.6 5.7-.2.5-.4 1.2 0 1.5 2.7-.9 4.8-3.3 5.4-6-.7 2-.7 4.2.1 6.1.2.5.4.9.9 1.2s1.1.2 1.4-.2c.2-.3.2-.7.1-1-.3-1.9-1-3.7-2-5.4.8 1.1 1.6 2.2 2.4 3.2.2.3.4.6.8.7.3.1.8 0 .9-.3.1-.2 0-.4 0-.6-.6-2-2.2-3.6-4.2-4.1 2.1.5 4.5.8 6.2-.5-2.2-1-4.9-.7-6.9.6 2.6-2.2 4-5.9 3.4-9.3z"/><path fill="#A0AA57" d="M178 333.9c.7 1.1.6 2.4.4 3.7-.3 1.8-1 3.6-1.9 5.3.9-1.5 1.4-3.2 2.1-4.8.7-1.6 1.6-3.2 3.1-4.2.4-.2.8-.4 1.2-.2.5.3.3 1.1 0 1.6-1.5 2.7-3.4 5.2-5.5 7.4 1-1.5 2.2-2.9 3.7-3.9s3.5-1.3 5.1-.5c-2.1 2.5-5.3 3.7-8.3 4.8 2.3-.8 4.8-1.2 7.2-.4-2.1 1.2-4.6 1.7-7 1.2 1.7 0 3.4.6 4.8 1.5-.5.6-1.3.8-2.1.8-1.9-.2-3.4-1.5-4.6-2.9-1.2-1.4-2.4-3-4.1-3.8-.2 1.2.2 2.5 1.1 3.3.8.9 2.1 1.3 3.3 1.2-.4-2.9-.2-6 .5-8.8 0-.5.3-1.3 1-1.3zm16.5 3.9c-2.2.8-4.5 1.2-6.8 1 2.6-.4 5.3.4 7.4 2-.5.5-1.2.5-1.9.3-1.9-.4-3.8-1-5.5-2 1.6.9 3.3 1.8 4.3 3.3.3.5.5 1.2.1 1.6-.4.4-1.1.1-1.5-.2-1.1-.8-1.9-1.8-2.5-3-.3-.7-.4-1.6.2-1.9-.2-1.6-.1-3.2.3-4.7.2-.8.5-1.7 1-2.4s1.3-1.2 2.1-1.3c.4.8.3 1.8 0 2.7-.7 2.5-2 4.7-3.8 6.5-.2-.3.1-.6.4-.8 2.6-1.9 5.7-3 8.9-3-.7 1-1.7 1.5-2.7 1.9zm-67.8 29.3c1.3.1 2.7-.4 3.6-1.4-1-2.2-2.3-4.3-3.8-6.1-.6-.7-1.4-1.4-2.2-1.2.5 2.9 2.5 5.5 5.2 6.7-1.4-.7-3-1.1-4.5-1-.9.1-2 .4-2.2 1.3 2.4.8 5.2.7 7.6-.2-1.4 0-2.8.7-3.7 1.9zm21.2-15.3c-.9 2.1-2.1 4.1-3.7 5.8-1.3-3.2-1.9-6.7-1.7-10.2 0-.3.1-.7.3-.8.8.8 1.2 1.9 1.5 3 .6 2.5.6 5.1 0 7.6.6-2.4 1.2-4.7 1.9-7.1.3-.8.6-1.8 1.4-2 1.1.9.8 2.5.3 3.7zm15.4-6.1c.1-1.8-.2-3.6-.8-5.3.9 1.3 2 2.4 3.1 3.5-.8-1.4-2.1-2.6-3.5-3.3 1.5-1.2 2.6-3 2.8-4.9 0-.3 0-.5-.2-.7-.4-.3-.9.1-1.1.5-.8 1.5-1.3 3.1-1.4 4.8.2-2.5-.4-5.1-1.7-7.3-.5-.9-1.5-1.8-2.4-1.4.6 3.4 2.8 6.3 4.9 9-2-1.1-4.1-2.2-6.4-2.2-.4 0-.9.1-1.1.5-.2.5.4 1 1 1.1 2.1.7 4.3.8 6.4.9-2.2 0-4.3 1.6-5.1 3.7.4.4 1 .2 1.4-.1 1.4-.9 2.7-2.1 3.6-3.5-.6 1.4-.9 3-.8 4.5 0 .5.2 1.1.6 1.1.5.3.7-.4.7-.9z"/><path fill="#A0AA57" d="M170.3 341.6c0 .7.3 1.5 1 1.5.5-2 .3-4.2-.6-6 .5 1.2 1.2 2.5 2.4 3.1.1.1.2.1.3.1.3-.1.3-.5.3-.8-.4-1.4-1.6-2.5-3-2.9 1.2.3 2.5-.2 3.3-1.1.2-.2.3-.4.3-.6-.1-.5-.8-.5-1.3-.4-1.4.4-2.7 1.1-3.8 2 .8-.3 1.4-1.1 1.6-2 .2-.9 0-1.8-.2-2.7-.1-.3-.2-.5-.5-.6-.3 0-.5.3-.6.6-.7 1.9-.5 4.1.4 5.9 0-2.2-1.3-4.4-3.3-5.5.3 1.7 1.1 3.3 2.3 4.5-1.2 1.2-2.2 2.6-3 4.1-.3.7-.6 1.5-.2 2.2.9 0 1.6-.7 2.2-1.4 1.2-1.5 2.1-3.2 2.5-5-.1 1.5-.1 3.2-.1 5zm-13.4 14.3c-.8-1.3-2.3-2.2-3.9-2.1-.5 0-1.1.3-1 .8.1.3.3.4.5.5 1.6.8 3.7.9 5.4.2-.8-.1-1.6.5-2.1 1.2-.4.7-.6 1.5-.7 2.4 1.4-.5 2.4-2 2.4-3.5-2.3-1.4-3.8-3.8-4-6.5 0-.3 0-.7.3-.8.4-.2.8.2 1 .6 1.2 2 1.8 4.3 2.3 6.6-.4-2.2-.9-4.4-.6-6.6 0-.4.2-.8.5-.9.3-.1.6.2.8.4.7 1 .9 2.4.6 3.6s-.8 2.4-1.4 3.5c.4-1.5 1-2.9 1.9-4.2.2-.4.5-.7.9-.9.4-.2.9-.2 1.2.1.4.4.2 1.1 0 1.6-.8 1.7-2.3 3.2-4.1 4zm11.8-6.4c.3 1 1.4 1.5 2.4 1.8 1.3.4 2.7.5 4.1.5-1.2-.5-2.7-.2-3.7.7-.2.2-.4.4-.3.7.1.3.4.5.7.5 1.5.3 2.8-.8 3.8-1.9-.7-1.5-1.6-3-2.6-4.3-.9-1.1-1.9-2.2-3.2-2.6-.2.3-.1.7.1 1 1.1 2.5 3.2 4.5 5.6 5.6-1.7-1-3.5-1.7-5.4-2.2-.6-.2-1.2-.3-1.5.2z"/><path fill="#A0AA57" d="M170.5 338.3c-.7-.8-1.5-1.5-2.5-1.6-.6.6-.3 1.6 0 2.3 1.5 3.2 3.9 5.9 6.9 7.7-.9-1.5-2.4-2.6-4-3-.2-.1-.5-.1-.7 0-.4.1-.6.7-.5 1.1.1.4.4.8.8 1.1 1.3 1 3 1.6 4.6 1.4.4-1.9.9-3.9.9-5.9s-.3-4-1.4-5.7c-.3-.5-1-1.1-1.6-.8-.4.2-.5.6-.5 1-.5 3.5 1.2 7 2.3 10.4-1.2-2.9-2.3-5.8-4.3-8zm18 48.9c.7-4.9.5-9.9-.7-14.7-.4-1.6-.9-3.3-2.2-4.3-1 2-.3 4.5.5 6.6.8 2.2 1.8 4.4 2.8 6.6-1.5-1.5-3-3-4.5-4.6-.6-.6-1.5-1.1-2-.5 1.3 2.7 3.6 4.9 6.3 6-.1-2.7.3-5.5 1.2-8 .6-1.8 1.7-3.7 3.5-4.1.4 2.1-.5 4.3-1.7 6.1-1.2 1.8-2.6 3.5-3.3 5.6 2.2-2.2 4.8-4.4 7.9-4.3.2.4-.1.8-.5 1.1-2.2 2-5 3.5-7.9 4.2"/><path fill="#A0AA57" d="M196.3 384.4c3.4-9 2.2-19.6-3.1-27.6-.6.8-.5 1.9-.3 2.9.8 3.9 2 7.7 3.7 11.2-1.9-2.7-4-5.3-6.4-7.6-.4-.4-1-.8-1.5-.5-.6.4-.3 1.2.1 1.8 2.4 3.4 5.7 5.9 9.1 8.3.1-3.5.7-6.9 1.6-10.3.3-1.1 1-2.5 2.2-2.3.7.1 1.2.9 1.2 1.6 0 .7-.3 1.4-.6 2.1-1.4 3.2-3.1 6.3-5 9.2 2.3-2 5.1-3.8 8-3.4-1.9 2.1-4.7 3.4-7.5 3.7.5 2.4.2 4.9-.7 7.1m5.9-28.1c-1.3 1.7-3 3-5 3.8.2-1.7.3-3.4.1-5.1s-.9-3.4-2-4.6c-.2 0-.4.1-.6.1-.7 1.6-.2 3.4.4 5 .5 1.4 1.1 2.8 1.9 4.1l-5.1-6.3c-.4.8.1 1.7.5 2.4.6 1.1 1.4 2.1 2.2 3.1.6.8 1.4 1.6 2.4 1.8.9-2.9 3.1-5.3 6-6.4 0 .8-.4 1.5-.8 2.1z"/><path fill="#A0AA57" d="M197.4 358.3c2.5-1.5 5.4-2.3 8.3-2.1-2.2 1-4.5 1.7-6.9 2.2-.4.1-.7.1-1.1 0-.4-.1-.7-.3-1-.6-1.2-1-2.5-2.4-4.1-2.1 1.1 1.6 2.7 2.7 4.6 3.1-.1-2.2.5-4.4 1.7-6.3.3-.5.9-1 1.3-.6.1.1.2.3.2.4.2 1.2-.4 2.3-1 3.3s-1.5 1.9-1.8 3c-.1.6-.2 1.2-.2 1.7-.1 2.8-.1 5.5-.2 8.3"/><path fill="#CEE0E4" d="M327 250.3l22.3 12.9v3.3L327 253.6"/><path fill="#5B97A5" d="M327 249.4l24.7 14.2-2.4-.4-22.3-12.9m-22.2 12.9l22.2-12.9v3.3l-22.2 12.9"/><path fill="#79AAB5" d="M302.4 263.6l24.6-14.2v.9l-22.2 12.9"/><path fill="#CEE0E4" d="M327 244.7l24.7 14.3v4.6L327 249.4"/><path fill="#89B4BE" d="M327 246.6v-1.9l24.7 14.3-2.4.5"/><path fill="#5B97A5" d="M302.4 259l24.6-14.3v4.7l-24.6 14.2"/><path fill="#629CA9" d="M304.8 259.5l-2.4-.5 24.6-14.3v1.9"/><path fill="#CEE0E4" d="M327 243.2l22.3 12.9v3.4L327 246.6"/><path fill="#5B97A5" d="M304.8 256.1l22.2-12.9v3.4l-22.2 12.9"/><path fill="#A0AA57" d="M330 242.5c.6-.9 1.9-.6 2 .4.3 2.8-.5 5.7-2.2 7.8.8-1.9 2.1-3.7 3.6-5.1.4-.4 1.1-.8 1.6-.5.4.3.5.9.5 1.4-.1 3-1.4 5.9-3.6 7.7.4-1.6 1.4-3.5 2.9-3.1 1.1.3 1.5 1.7 1.2 2.8-.3 1.1-1.1 2-1.9 2.7.7-1.8 1.4-3.6 2.3-5.3.5-1 1.3-2.1 2.3-2.1 1.2 0 2.1 1.5 1.9 2.8s-1.1 2.3-1.9 3.3c.8-4.2 1.7-8.4 2.7-12.6.2-1 1.7-1.1 2.1-.2 1.4 3.6.9 8.2-1.6 11.1.4-1.6 1.3-3.1 2.4-4.1.8-.8 2.2.1 1.8 1.2-.7 2.1-2 4-3.6 5.5 1.2-1.7 2.9-3 4.9-3.7-1 2-2.4 3.7-4.2 5 .8-1.9 2.5-3.4 4.4-3.9.9-.2 1.7.7 1.3 1.6-1.2 2.2-3.3 3.8-5.7 4.1 1.5-.8 3.2-1.1 4.8-.9.6.1 1.4.4 1.4 1.1 0 .5-.4.8-.8 1-.7.4-1.4.8-2.2 1-.7.2-1 1-.6 1.6.2.3.3.6.2 1-.3 1.1-1.7 1.1-2.7 1.1-4-.1-7.6 2-11.3 3.6-3.7 1.5-8.2 2.3-11.3-.3-2.4-2-3.7-5.9-6.7-6.5-1.1-.2-2.2 0-3.3-.1-1.7-.2-3.2-1.4-3.7-3.1s.3-3.7 1.8-4.4c1.5-.7 3.6.3 4 2-2.2-3.1-3.2-7.2-2.7-11.1.1-.6.2-1.2.7-1.5.7-.4 1.5.3 2 .9 1.6 2.1 2.5 4.8 2.6 7.6-.9-5.3-1-10.8-.3-16.2.1-.9.3-1.9.8-2.7.5-.8 1.5-1.3 2.4-.9.6.3 1 1 1.2 1.6 2 5.2.7 11-.6 16.4 0-1.5.4-3 1.1-4.4.5-.9 1.9-.6 2.1.5.2 2.4-.2 4.9-1.3 7 .4-1.7 1-3.3 1.9-4.8.5-.8 1.7-.7 2 .2.6 1.7.6 3.5 0 5.2 0-5.1.1-10.2.4-15.3.1-1.4.7-3.4 2.1-3.2.5.1.9.5 1.2.9 2.6 3.3 1.6 8.3.2 12.4-.4-2.3.2-4.5 1.4-6.5z"/><path fill="#CEDA93" d="M308.2 256c2.4 1.7 4.4 3.9 5.9 6.4-.5-2.3-.7-4.7-.5-7.1.1-.9.5-2.1 1.4-2 1.3 4.3 2.1 8.6 3 13 .5-4.7 1.5-9.4 2.8-14 .4-1.4 1.2-3.1 2.7-3.3.1 5.3-1.2 10.5-2.5 15.6.4-3.7 1.2-7.4 2.5-10.9.9-2.6 2.7-5.6 5.5-5.6.7 1.4.3 3.1-.2 4.5-1.5 4.2-3.7 8.1-6.4 11.6 1.5-2.5 3.9-4.4 6.7-5.4.6.7-.1 1.8-.6 2.5-1.4 1.7-2.8 3.4-4.2 5 1.4-1.5 3.2-2.6 5.2-3.1-1.2 1.8-2.7 3.5-4.3 4.9 1.5-.9 3-1.7 4.7-2.3.4-.2 1-.3 1.2.1.4.4-.1 1-.5 1.4-1.4 1.3-2.9 2.4-4.5 3.3 1.5-.9 3.3-1.3 5-1.1-.1 1.8-2.2 2.7-3.9 3-2.3.3-4.7.2-6.9-.5-.9-.2-1.7-.6-2.4-1.2-.4-.4-.8-.9-1.2-1.3-.8-.9-2-1.4-3-2-3.6-2.1-6.3-5.6-7.7-9.5-.3-.8-.4-1.9.3-2.3.6-.6 1.3-.2 1.9.3zm29.2.8c-.4-1.1-.9-2.2-1.8-3-.6 1.2-.3 2.6.1 3.8.6 2.3 1.5 4.5 2.5 6.7-.3-1.1-.6-2.3-1.1-3.3-.6-1-1.4-1.9-2.6-2.2-.2-.1-.5-.1-.7 0-.6.3-.5 1.2-.1 1.8 1.2 2.1 2.9 3.8 4.5 5.5-.8-1.1-1.6-2.2-2.7-2.9-.3-.2-.7-.3-1.1-.1-.3.2-.4.7-.2 1.1.2.3.5.6.9.8 1.5.9 2.9 1.8 4.4 2.8 1.3-1.1 2.1-2.6 2.7-4.1 1-2.4 1.6-4.9 1.9-7.5.1-.6 0-1.3-.5-1.6-.8.4-1.1 1.3-1.4 2.1-.9 2.4-1.5 4.8-1.8 7.3.5-3.1.4-6.2-.3-9.3-.1-.6-.5-1.2-1-1.2-.8 1.1-1 2.5-1 3.9-.1 2.3.2 4.6.8 6.8-.1-2.6-.6-5.1-1.5-7.4z"/><path fill="#CEE0E4" d="M327.1 276.1v3.3l-22.3-12.9v-3.3"/><path fill="#89B4BF" d="M327.1 277.9l-24.7-14.3 2.4-.4 22.3 12.9"/><path fill="#CEE0E4" d="M327.1 273.3v4.6l-24.7-14.3V259"/><path fill="#5B97A5" d="M327.1 272.4v.9L302.4 259l2.4.5"/><path fill="#CEE0E4" d="M327.1 269v3.4l-22.3-12.9v-3.4"/><path fill="#5B97A5" d="M349.3 263.2v3.3l-22.2 12.9v-3.3"/><path fill="#629CA9" d="M351.7 263.6l-24.6 14.3v-1.8l22.2-12.9"/><path fill="#5B97A5" d="M351.7 259v4.6l-24.6 14.3v-4.6"/><path fill="#79AAB5" d="M349.3 259.5l2.4-.5-24.6 14.3v-.9"/><path fill="#5B97A5" d="M349.3 256.1v3.4l-22.2 12.9V269"/><path fill="#CEE0E4" d="M159 248.3l22.3 12.9v3.3L159 251.6"/><path fill="#5B97A5" d="M159 247.4l24.7 14.2-2.4-.4-22.3-12.9"/><path fill="#5B97A5" d="M136.8 261.2l22.2-12.9v3.3l-22.2 12.9"/><path fill="#79AAB5" d="M134.4 261.6l24.6-14.2v.9l-22.2 12.9"/><path fill="#CEE0E4" d="M159 242.7l24.7 14.3v4.6L159 247.4"/><path fill="#89B4BE" d="M159 244.6v-1.9l24.7 14.3-2.4.5"/><path fill="#5B97A5" d="M134.4 257l24.6-14.3v4.7l-24.6 14.2"/><path fill="#629CA9" d="M136.8 257.5l-2.4-.5 24.6-14.3v1.9"/><path fill="#CEE0E4" d="M159 241.2l22.3 12.9v3.4L159 244.6"/><path fill="#5B97A5" d="M136.8 254.1l22.2-12.9v3.4l-22.2 12.9"/><path fill="#A0AA57" d="M163.5 238.6c1.3 3.3.6 7.4-1.6 10.1.8-1.9 2.1-3.7 3.6-5.1.4-.4 1.1-.8 1.6-.5.4.3.5.9.5 1.4-.1 3-1.4 5.9-3.6 7.7.4-1.6 1.4-3.5 2.9-3.1 1.1.3 1.5 1.7 1.2 2.8-.3 1.1-1.1 2-1.9 2.7.7-1.8 1.4-3.6 2.3-5.3.5-1 1.3-2.1 2.3-2.1 1.2 0 2.1 1.5 1.9 2.8s-1.1 2.3-1.9 3.3c.9-5.1 2-10.2 3.3-15.2 3 3.8 2.9 9.9-.2 13.6.6-2.6 2.5-4.8 4.9-5.6-.4 3.1-2 6-4.2 8.1 1.2-1.7 2.9-3 4.9-3.7-1 2-2.4 3.7-4.2 5 1.1-2.6 3.8-4.3 6.4-4.1-.8 3.1-3.4 5.5-6.4 5.9 1.5-.8 3.2-1.1 4.8-.9.6.1 1.4.4 1.4 1.1 0 .5-.4.8-.8 1-1.5.9-3.1 1.4-4.8 1.5 1.1.2 2.5 1 2.2 2.1-.3 1.1-1.7 1.1-2.7 1.1-4-.1-7.6 2-11.3 3.6s-8.2 2.3-11.3-.3c-2.4-2-3.7-5.9-6.7-6.5-1.1-.2-2.2 0-3.3-.1-1.7-.2-3.2-1.4-3.7-3.1-.5-1.7.3-3.7 1.8-4.4 1.5-.7 3.6.3 4 2-2.2-3.1-3.2-7.2-2.7-11.1.1-.6.2-1.2.7-1.5.7-.4 1.5.3 2 .9 1.6 2.1 2.5 4.8 2.6 7.6-.9-5.3-1-10.8-.3-16.2.1-.9.3-1.9.8-2.7.5-.8 1.5-1.3 2.4-.9.6.3 1 1 1.2 1.6 2 5.2.7 11-.6 16.4 0-2.4 1-4.8 2.7-6.3 1 3.1.6 6.6-.9 9.4.5-2.3 1.5-4.5 2.9-6.4 1.4 2 1.8 4.7.9 7 0-5.1.1-10.2.4-15.3.1-1.4.7-3.4 2.1-3.2.5.1.9.5 1.2.9 2.6 3.3 1.6 8.3.2 12.4-.3-3.1.9-6.2 3-8.4z"/><path fill="#CEDA93" d="M140.2 254c2.4 1.7 4.4 3.9 5.9 6.4-.5-2.3-.7-4.7-.5-7.1.1-.9.5-2.1 1.4-2 1.3 4.3 2.1 8.6 3 13 .5-4.7 1.5-9.4 2.8-14 .4-1.4 1.2-3.1 2.7-3.3.1 5.3-1.2 10.5-2.5 15.6.4-3.7 1.2-7.4 2.5-10.9.9-2.6 2.7-5.6 5.5-5.6.7 1.4.3 3.1-.2 4.5-1.5 4.2-3.7 8.1-6.4 11.6 1.5-2.5 3.9-4.4 6.7-5.4.6.7-.1 1.8-.6 2.5-1.4 1.7-2.8 3.4-4.2 5 1.4-1.5 3.2-2.6 5.2-3.1-1.2 1.8-2.7 3.5-4.3 4.9 1.5-.9 3-1.7 4.7-2.3.4-.2 1-.3 1.2.1.4.4-.1 1-.5 1.4-1.4 1.3-2.9 2.4-4.5 3.3 1.5-.9 3.3-1.3 5-1.1-.1 1.8-2.2 2.7-3.9 3-2.3.3-4.7.2-6.9-.5-.9-.2-1.7-.6-2.4-1.2-.4-.4-.8-.9-1.2-1.3-.8-.9-2-1.4-3-2-3.6-2.1-6.3-5.6-7.7-9.5-.3-.8-.4-1.9.3-2.3.6-.6 1.3-.2 1.9.3zm29.2.8c-.4-1.1-.9-2.2-1.8-3-.6 1.2-.3 2.6.1 3.8.6 2.3 1.5 4.5 2.5 6.7-.3-1.1-.6-2.3-1.1-3.3-.6-1-1.4-1.9-2.6-2.2-.2-.1-.5-.1-.7 0-.6.3-.5 1.2-.1 1.8 1.2 2.1 2.9 3.8 4.5 5.5-.8-1.1-1.6-2.2-2.7-2.9-.3-.2-.7-.3-1.1-.1-.3.2-.4.7-.2 1.1.2.3.5.6.9.8 1.5.9 2.9 1.8 4.4 2.8 1.3-1.1 2.1-2.6 2.7-4.1 1-2.4 1.6-4.9 1.9-7.5.1-.6 0-1.3-.5-1.6-.8.4-1.1 1.3-1.4 2.1-.9 2.4-1.5 4.8-1.8 7.3.5-3.1.4-6.2-.3-9.3-.1-.6-.5-1.2-1-1.2-.8 1.1-1 2.5-1 3.9-.1 2.3.2 4.6.8 6.8-.1-2.6-.6-5.1-1.5-7.4z"/><path fill="#CEE0E4" d="M159.1 274.1v3.3l-22.3-12.9v-3.3"/><path fill="#89B4BF" d="M159.1 275.9l-24.7-14.3 2.4-.4 22.3 12.9"/><path fill="#CEE0E4" d="M159.1 271.3v4.6l-24.7-14.3V257"/><path fill="#5B97A5" d="M159.1 270.4v.9L134.4 257l2.4.5"/><path fill="#CEE0E4" d="M159.1 267v3.4l-22.3-12.9v-3.4"/><path fill="#5B97A5" d="M181.3 261.2v3.3l-22.2 12.9v-3.3"/><path fill="#629CA9" d="M183.7 261.6l-24.6 14.3v-1.8l22.2-12.9"/><path fill="#5B97A5" d="M183.7 257v4.6l-24.6 14.3v-4.6"/><path fill="#79AAB5" d="M181.3 257.5l2.4-.5-24.6 14.3v-.9"/><path fill="#5B97A5" d="M181.3 254.1v3.4l-22.2 12.9V267"/><path fill="#ACD8E5" d="M2.9 271.8l95.5-56.4v.8l-98.3 58"/><path fill="#ADD9E5" d="M.1 269.3l98.3-58v4.1L2.9 271.8"/><path fill="#ACD8E5" d="M2.9 266.8l95.5-56.3v.8l-98.3 58"/><path fill="#ADD9E5" d="M0 264.4l98.3-58 .1 4.1-95.5 56.3"/><path fill="#ACD8E5" d="M2.8 261.9l95.6-56.3-.1.8-98.3 58"/><path fill="#ADD9E5" d="M0 259.5l98.3-58 .1 4.1-95.6 56.3"/><path fill="#ACD8E5" d="M2.8 257l95.5-56.3v.8L0 259.5"/><path fill="#ADD9E5" d="M.1 254.5l98.2-57.9v4.1L2.8 257"/><path fill="#ACD8E5" d="M2.8 252.2l95.5-56.3v.7L.1 254.5"/><path fill="#ADD9E5" d="M0 249.7l98.3-57.9v4.1L2.8 252.2m192.4 18.3l2.9 2.4-98.3 58-.1-4.1"/><path fill="#EAF5F8" d="M99.7 326.8l.1 4.1L.1 274.2l2.8-2.4"/><path fill="#ACD8E5" d="M198 268l-2.8 2.5-95.5 56.3.1-.8"/><path fill="#EAF5F8" d="M99.7 321.9l.1 4.1L.1 269.3l2.8-2.5"/><path fill="#C2E2EC" d="M99.8 326l-.1.8-96.8-55-2.8-2.5"/><path fill="#ADD9E5" d="M195.2 265.6l2.8 2.4-98.2 58-.1-4.1m95.5-61.3l2.8 2.5-98.3 58V317"/><path fill="#EAF5F8" d="M99.7 317v4.1L0 264.4l2.8-2.5"/><path fill="#ACD8E5" d="M198 263.1l-2.8 2.5-95.5 56.3v-.8"/><path fill="#C2E2EC" d="M99.7 321.1v.8L2.9 266.8 0 264.4"/><path fill="#ADD9E5" d="M195.2 255.7l2.8 2.5-98.3 57.9v-4"/><path fill="#C2E2EC" d="M99.7 316.1v.9L2.8 261.9 0 259.5"/><path fill="#ACD8E5" d="M198 258.2l-2.8 2.4L99.7 317v-.9"/><path fill="#EAF5F8" d="M99.7 312.1v4L0 259.5l2.8-2.5m96.9 50.3v3.9L.1 254.5l2.7-2.3"/><path fill="#C3E3EC" d="M99.7 311.2v.9L2.8 257l-2.7-2.5"/><path fill="#ACD8E5" d="M197.9 253.2l-2.7 2.5-95.5 56.4v-.9"/><path fill="#ADD9E5" d="M195.2 250.9l2.7 2.3-98.2 58v-3.9"/><path fill="#C2E2EC" d="M99.7 306.4v.9L2.8 252.2 0 249.7"/><path fill="#ACD8E5" d="M198 248.4l-2.8 2.5-95.5 56.4v-.9"/><path fill="#CEE0E4" d="M100 217.3l22.3 12.9v3.3L100 220.6"/><path fill="#5B97A5" d="M100 216.4l24.7 14.2-2.4-.4-22.3-12.9m-22.2 12.9l22.2-12.9v3.3l-22.2 12.9"/><path fill="#79AAB5" d="M75.4 230.6l24.6-14.2v.9l-22.2 12.9"/><path fill="#CEE0E4" d="M100 211.7l24.7 14.3v4.6L100 216.4"/><path fill="#89B4BE" d="M100 213.6v-1.9l24.7 14.3-2.4.5"/><path fill="#5B97A5" d="M75.4 226l24.6-14.3v4.7l-24.6 14.2"/><path fill="#629CA9" d="M77.8 226.5l-2.4-.5 24.6-14.3v1.9"/><path fill="#CEE0E4" d="M100 210.2l22.3 12.9v3.4L100 213.6"/><path fill="#5B97A5" d="M77.8 223.1l22.2-12.9v3.4l-22.2 12.9"/><path fill="#A0AA57" d="M104.5 207.6c1.3 3.3.6 7.4-1.6 10.1.8-1.9 2.1-3.7 3.6-5.1.4-.4 1.1-.8 1.6-.5.4.3.5.9.5 1.4-.1 3-1.4 5.9-3.6 7.7.4-1.6 1.4-3.5 2.9-3.1 1.1.3 1.5 1.7 1.2 2.8-.3 1.1-1.1 2-1.9 2.7.7-1.8 1.4-3.6 2.3-5.3.5-1 1.3-2.1 2.3-2.1 1.2 0 2.1 1.5 1.9 2.8s-1.1 2.3-1.9 3.3c.9-5.1 2-10.2 3.3-15.2 3 3.8 2.9 9.9-.2 13.6.6-2.6 2.5-4.8 4.9-5.6-.4 3.1-2 6-4.2 8.1 1.2-1.7 2.9-3 4.9-3.7-1 2-2.4 3.7-4.2 5 1.1-2.6 3.8-4.3 6.4-4.1-.8 3.1-3.4 5.5-6.4 5.9 1.5-.8 3.2-1.1 4.8-.9.6.1 1.4.4 1.4 1.1 0 .5-.4.8-.8 1-1.5.9-3.1 1.4-4.8 1.5 1.1.2 2.5 1 2.2 2.1-.3 1.1-1.7 1.1-2.7 1.1-4-.1-7.6 2-11.3 3.6-3.7 1.5-8.2 2.3-11.3-.3-2.4-2-3.7-5.9-6.7-6.5-1.1-.2-2.2 0-3.3-.1-1.7-.2-3.2-1.4-3.7-3.1-.5-1.7.3-3.7 1.8-4.4 1.5-.7 3.6.3 4 2-2.2-3.1-3.2-7.2-2.7-11.1.1-.6.2-1.2.7-1.5.7-.4 1.5.3 2 .9 1.6 2.1 2.5 4.8 2.6 7.6-.9-5.3-1-10.8-.3-16.2.1-.9.3-1.9.8-2.7.5-.8 1.5-1.3 2.4-.9.6.3 1 1 1.2 1.6 2 5.2.7 11-.6 16.4 0-2.4 1-4.8 2.7-6.3 1 3.1.6 6.6-.9 9.4.5-2.3 1.5-4.5 2.9-6.4 1.4 2 1.8 4.7.9 7 0-5.1.1-10.2.4-15.3.1-1.4.7-3.4 2.1-3.2.5.1.9.5 1.2.9 2.6 3.3 1.6 8.3.2 12.4-.3-3.1.9-6.2 3-8.4z"/><path fill="#CEDA93" d="M81.2 223c2.4 1.7 4.4 3.9 5.9 6.4-.5-2.3-.7-4.7-.5-7.1.1-.9.5-2.1 1.4-2 1.3 4.3 2.1 8.6 3 13 .5-4.7 1.5-9.4 2.8-14 .4-1.4 1.2-3.1 2.7-3.3.1 5.3-1.2 10.5-2.5 15.6.4-3.7 1.2-7.4 2.5-10.9.9-2.6 2.7-5.6 5.5-5.6.7 1.4.3 3.1-.2 4.5-1.5 4.2-3.7 8.1-6.4 11.6 1.5-2.5 3.9-4.4 6.7-5.4.6.7-.1 1.8-.6 2.5-1.4 1.7-2.8 3.4-4.2 5 1.4-1.5 3.2-2.6 5.2-3.1-1.2 1.8-2.7 3.5-4.3 4.9 1.5-.9 3-1.7 4.7-2.3.4-.2 1-.3 1.2.1.4.4-.1 1-.5 1.4-1.4 1.3-2.9 2.4-4.5 3.3 1.5-.9 3.3-1.3 5-1.1-.1 1.8-2.2 2.7-3.9 3-2.3.3-4.7.2-6.9-.5-.9-.2-1.7-.6-2.4-1.2-.4-.4-.8-.9-1.2-1.3-.8-.9-2-1.4-3-2-3.6-2.1-6.3-5.6-7.7-9.5-.3-.8-.4-1.9.3-2.3.6-.6 1.3-.2 1.9.3zm29.2.8c-.4-1.1-.9-2.2-1.8-3-.6 1.2-.3 2.6.1 3.8.6 2.3 1.5 4.5 2.5 6.7-.3-1.1-.6-2.3-1.1-3.3-.6-1-1.4-1.9-2.6-2.2-.2-.1-.5-.1-.7 0-.6.3-.5 1.2-.1 1.8 1.2 2.1 2.9 3.8 4.5 5.5-.8-1.1-1.6-2.2-2.7-2.9-.3-.2-.7-.3-1.1-.1-.3.2-.4.7-.2 1.1.2.3.5.6.9.8 1.5.9 2.9 1.8 4.4 2.8 1.3-1.1 2.1-2.6 2.7-4.1 1-2.4 1.6-4.9 1.9-7.5.1-.6 0-1.3-.5-1.6-.8.4-1.1 1.3-1.4 2.1-.9 2.4-1.5 4.8-1.8 7.3.5-3.1.4-6.2-.3-9.3-.1-.6-.5-1.2-1-1.2-.8 1.1-1 2.5-1 3.9-.1 2.3.2 4.6.8 6.8-.1-2.6-.6-5.1-1.5-7.4z"/><path fill="#CEE0E4" d="M100.1 243.1v3.3l-22.3-12.9v-3.3"/><path fill="#89B4BF" d="M100.1 244.9l-24.7-14.3 2.4-.4 22.3 12.9"/><path fill="#CEE0E4" d="M100.1 240.3v4.6l-24.7-14.3V226"/><path fill="#5B97A5" d="M100.1 239.4v.9L75.4 226l2.4.5"/><path fill="#CEE0E4" d="M100.1 236v3.4l-22.3-12.9v-3.4"/><path fill="#5B97A5" d="M122.3 230.2v3.3l-22.2 12.9v-3.3"/><path fill="#629CA9" d="M124.7 230.6l-24.6 14.3v-1.8l22.2-12.9"/><path fill="#5B97A5" d="M124.7 226v4.6l-24.6 14.3v-4.6"/><path fill="#79AAB5" d="M122.3 226.5l2.4-.5-24.6 14.3v-.9"/><path fill="#5B97A5" d="M122.3 223.1v3.4l-22.2 12.9V236"/><path fill="#CEE0E4" d="M396 556.3l22.3 12.9v3.3L396 559.6"/><path fill="#5B97A5" d="M396 555.4l24.7 14.2-2.4-.4-22.3-12.9m-22.2 12.9l22.2-12.9v3.3l-22.2 12.9"/><path fill="#79AAB5" d="M371.4 569.6l24.6-14.2v.9l-22.2 12.9"/><path fill="#CEE0E4" d="M396 550.7l24.7 14.3v4.6L396 555.4"/><path fill="#89B4BE" d="M396 552.6v-1.9l24.7 14.3-2.4.5"/><path fill="#5B97A5" d="M371.4 565l24.6-14.3v4.7l-24.6 14.2"/><path fill="#629CA9" d="M373.8 565.5l-2.4-.5 24.6-14.3v1.9"/><path fill="#CEE0E4" d="M396 549.2l22.3 12.9v3.4L396 552.6"/><path fill="#5B97A5" d="M373.8 562.1l22.2-12.9v3.4l-22.2 12.9"/><path fill="#A0AA57" d="M394.4 531.2c2.7 1.7 2.7 5.6 2 8.7-1.1 5.1-2.9 10.1-5.4 14.7 1.2-3.1 2.7-6.1 4.5-8.9.8-1.3 2.2-2.7 3.6-2.2 1.6.5 1.7 2.7 1.3 4.3-1 3.4-3.1 6.4-5.9 8.4 1.1-2.9 4.4-4.8 7.5-4.3-2.2 2.8-4.9 5.2-7.9 7 2.8-1.7 5.9-3.4 9.1-2.6-2.4 2.9-5.5 5.3-9.1 6.7 1.9-1.8 4.9-2.4 7.3-1.5.4.1.8.4.9.7.1.4-.2.7-.4 1-2.2 2.5-5.7 3.8-9 3.2.8-.5 1.7-.8 2.6-.4.9.3 1.4 1.3 1.1 2.2-.4 1-1.7 1.2-2.7 1.2-3.6.2-7.6.2-10-2.4-1.3-1.4-1.9-3.3-2.5-5.2-1.1-3.5-2.1-7.2-1.7-10.9.1-1 .6-2.1 1.6-2.1.9 0 1.4 1 1.6 1.9.7 2.7.9 5.5.6 8.2-.2-5-.2-9.9.2-14.9.1-1.8.4-3.8 1.7-5.1.5-.5 1.2-.8 1.9-.6 1.1.3 1.4 1.6 1.5 2.7.5 3.9.5 7.8 0 11.7 0-5.4.7-10.8 1.8-16 .5-2.3 1.5-5 3.8-5.5z"/><path fill="#A0AA57" d="M388.6 566.3c.8 1.8 2.6 3 4.6 3.2-2.5-2.8-6-4.8-9.8-5.5-.6-.1-1.1-.2-1.7 0-1.2.3-1.9 1.6-1.8 2.8 0 1.2.7 2.3 1.5 3.2 2.6 2.9 6.5 4.2 10.2 5.2 1.5.4 3 .7 4.5.7 1.6 0 3.2-.6 4.7-1.2 6.1-2.6 11.2-7.6 13.9-13.6s3-13.2.8-19.4c-1.3-.1-2.3 1.3-2.8 2.6-2 4.8-3.1 10-3.2 15.2.5-3.9-.5-8-2.8-11.2-.7-1-1.9-1.9-2.9-1.3-2.1 5.6-1.9 12 .6 17.5-1-2.5-2.6-4.7-4.6-6.5-.6-.5-1.4-1-2.1-.7-.8.3-.9 1.4-.7 2.3.5 2.3 1.9 4.4 3.9 5.7-2.1-3.3-5.1-6-8.6-7.7-1.3-.6-3.2-1.1-4.1.1-.8.9-.4 2.3.1 3.4 1.4 2.9 4 5.1 7.1 6-1.6-1-3.3-2-5.1-2.7-.3-.1-.7-.3-1.1-.2-1 0-1 1.3-.6 2.1z"/><path fill="#CEE0E4" d="M396.1 582.1v3.3l-22.3-12.9v-3.3"/><path fill="#89B4BF" d="M396.1 583.9l-24.7-14.3 2.4-.4 22.3 12.9"/><path fill="#CEE0E4" d="M396.1 579.3v4.6l-24.7-14.3V565"/><path fill="#5B97A5" d="M396.1 578.4v.9L371.4 565l2.4.5"/><path fill="#CEE0E4" d="M396.1 575v3.4l-22.3-12.9v-3.4"/><path fill="#5B97A5" d="M418.3 569.2v3.3l-22.2 12.9v-3.3"/><path fill="#629CA9" d="M420.7 569.6l-24.6 14.3v-1.8l22.2-12.9"/><path fill="#5B97A5" d="M420.7 565v4.6l-24.6 14.3v-4.6"/><path fill="#79AAB5" d="M418.3 565.5l2.4-.5-24.6 14.3v-.9"/><path fill="#5B97A5" d="M418.3 562.1v3.4l-22.2 12.9V575"/><path fill="#ACB571" d="M96.1 556c-.5.7.1 1.7.6 2.4 3.8 4.8 8.4 9.1 13.4 12.7.6-4.2 2-8.3 4.3-12 1.7-2.8 4.1-5.5 7.4-6.3.4 1.9-.8 3.8-2 5.4-3.3 4.5-6.9 8.9-10.6 13.1 2.9-6.8 3.8-14.4 2.6-21.7-.4-2.2-.9-4.5-2.2-6.3-.2-.3-.5-.6-.9-.7-.7-.1-1.2.7-1.4 1.4-.6 2.4-.3 4.9 0 7.3l2.4 18.9c-.6-9.3-3.3-18.4-7.8-26.4-.9-1.7-2-3.4-3.7-4.3-.7 2.2-.2 4.7.8 6.8 1 2.1 2.5 3.9 3.8 5.9 3.7 5.5 6.1 12 6.6 18.7-5-1.7-9.9-3.4-14.9-5.1-1-.3-2.3-.6-2.9.3-.2.4-.2.9-.1 1.3.6 2.2 3.3 2.8 5.6 3.1 3.5.4 7 .9 10.5 1.3.5.1 1 .1 1.5 0 .7-.2 1.3-.7 1.9-1.2 4.1-3.7 9.7-5.7 15.2-5.5 0 1.7-1.8 2.7-3.5 3.2-4 1.3-8.2 2.1-12.4 2.5-1.8-4.4-4.2-8.4-7.2-12.1-1.5-1.8-3.6-3.7-5.9-3.3-.4.1-.8.3-1.1.6z"/><path fill="#ACB571" d="M99.3 580.5c1.9.3 4 .5 5.7-.5-5.1 0-10.2 1.8-14.2 5-.1.5.7.7 1.2.7 2.7-.1 5.2-1.1 7.7-2.1 3-1.1 6-2.4 8.1-4.8 1.3-1.5 2-3.4 2.6-5.3 1-3.5 1.5-7.2 1.3-10.9-2.9 5.2-4.9 11-5.7 16.9-.8-4.9-2.4-9.7-4.7-14-1.2-2.2-2.6-4.5-4.8-5.8-.4-.3-1-.5-1.5-.3-.8.3-.8 1.5-.6 2.3 1.6 6.9 4.7 13.4 9.1 18.9-2.7-1-5.1-2.8-7.8-3.9-3.5-1.4-7.5-1.4-11 0 .8 1.3 2.5 1.7 4 2.1 3.5.6 7 1.2 10.6 1.7zm29.2-3.3c-4.8 3.3-10.9 4.6-16.6 3.6-.4-4.9-.3-9.8.4-14.6.3-1.9.7-3.9 2.3-4.9 1.6 3.2 1.7 7 1.2 10.6-.6 3.5-1.9 6.9-3.2 10.3 1.7-3.7 3.4-7.4 6-10.5s6-5.7 10-6.4c-.2 1.9-1.4 3.6-2.6 5-4.1 4.6-9 8.5-14.5 11.4 5.2-4.2 11.8-6.6 18.5-6.7.1.8-.7 1.7-1.5 2.2z"/><path fill="#ACB571" d="M79 561.5c.5 1.6 1.9 2.7 3.2 3.7 3.2 2.3 6.4 4.4 9.8 6.3-4.2-2.8-9-5.8-13.9-4.9-1.5.3-3.1 1.1-3.4 2.6 1.7 1.5 4.1 1.9 6.3 2.2 3.5.5 7.1.9 10.6 1.1.5 0 .9.1 1.3-.1.5-.2.8-.8 1-1.3.6-1.3.9-2.8 1.1-4.2.8-5.7-.1-11.6-2.4-16.8-1.7 7.1-.3 14.6 1.1 21.8-.7-6-3.2-11.7-7.1-16.4-.5-.6-1-1.2-1.8-1.5-.7-.3-1.6-.2-2.2.3-.7.8-.3 2.1.3 3.1 2.4 4.4 5.5 8.4 8.7 12.4-3.1-3.7-6.4-7.6-11-8.9-.6 0-1.5 0-1.6.6zm39.5 8.7c.1-4.4.6-8.9 1.3-13.2.3-1.9.7-3.7 1.7-5.3.3-.5.8-1 1.4-1 .7 0 1.2.8 1.4 1.5 1.1 3.3.3 7.1-1.2 10.3-1.5 3.2-3.6 6.1-5.1 9.3 1.6-4.2 3.8-8.2 6.6-11.7 1.3-1.7 3-3.4 5.1-3.6.7.9.1 2.3-.6 3.2-3.1 4.2-6.9 7.9-11.2 10.9 3.6-3 7.6-6.1 12.3-6.3.3.7-.3 1.5-.9 2.1-2.8 2.4-6.8 3.9-10.8 3.8z"/><path fill="#ACB571" d="M93.6 571.5c-4.8.5-9.3 2.7-12.8 6-1.1 1.1-2.1 2.3-2.5 3.8 1.8.4 3.6-.3 5.3-1.2 3.3-1.7 6.3-4.1 8.6-7-3.7 2.5-6.1 6.7-6.4 11.1 1.6.4 3-1.2 3.9-2.6 1.8-3 3.2-6.5 3.9-10.1zm80.7 21.1c-2.9 2.7-6.4 4.9-10.1 6.5-1.2-4-2.4-7.9-3.8-11.8-.5-1.5-1.2-3.2-2.6-4-1 .7-.9 2.2-.6 3.3 1.1 4.1 3 8.1 5.6 11.5.3.5.7.9 1.3 1.1.9.4 1.9-.1 2.8-.5 2-.8 4.1-1.2 6.3-1 .6 0 1.3.2 1.6.7.4.7-.1 1.6-.8 1.9s-1.5.2-2.3.1c-2.4-.4-4.8-.7-7.2-1.1-.3 0-.6-.1-.8-.3-.3-.3-.3-.8-.3-1.3.4-3.9 1.2-7.8 2.3-11.6.6-1.9 1.4-4 3.3-4.8 1.6 2.9.1 6.5-1.3 9.4-1.5 3-3 6.1-4.6 9.1 2.9-2.2 4.8-5.3 7-8.1s5-5.6 8.5-6.3c-.3 2.8-2.2 5.2-4.3 7.2zm226.2-89c-1 .8 0 2.4 1 3.2 3.6 2.8 8 4.4 12.6 4.7 3.1-4.5 8-7.7 13.3-8.9.3-.1.6-.1.8 0 .5.3.3 1.1 0 1.6-1.6 2.4-4.4 3.9-7 5.2-2.3 1.1-4.7 2.1-7.1 2.9 3.4-7.4 3.9-16.1 1.5-23.9-.3-1-1-2.3-2.1-2.1-1 8.1-.9 16.3.2 24.3-.7-6.1-3.6-11.9-8.1-16.1-.6-.6-1.6-1.1-2.2-.5-.3.3-.3.7-.3 1-.1 3.1 1.1 6.2 2.8 8.8 1.7 2.6 4 4.8 6.3 6.9-2.5-3.7-6-7.6-10.4-7.5-.5.1-1 .1-1.3.4zm33.2 19.7c1-4.8 5-8.8 9.8-9.8.6-.1 1.3-.2 1.7.3.5.6.2 1.5-.2 2.2-1.9 3.2-5.2 5.6-8.9 6.3-.5.1-1.1.2-1.6 0s-.9-.6-1.2-1c-2.3-2.9-3.9-6.5-7.1-8.4-.2 4.3 2.5 8.6 6.5 10.3-1.9-1.3-4.3-1.9-6.6-1.9-.5.6.5 1.2 1.2 1.3 1.9.2 3.9.2 5.8 0-.1-6.1 1.1-12.1 3.3-17.8.2-.5.8-1.1 1.2-.8.7 1.7.3 3.6-.1 5.4-.9 4.6-2.3 9.3-3.8 13.9zm-53.6-21.4c1.5 1.4 3.7 1.9 5.8 2.3 2.6.4 5.2.8 7.8 1 .7.1 1.5.1 2.2-.2.7-.3 1.3-.9 1.7-1.6 3.1-4.5 3.4-10.3 3.6-15.8 0-1.5 0-3.2-1.1-4.3-1.3.4-2 1.9-2.3 3.2-.7 2.4-.9 4.9-1.1 7.4-.3 3.8-.5 7.5-.7 11.3 1.6-8.9-1.5-18.5-7.9-24.8-.7 2-.1 4.3.6 6.3 1 3 2.1 6 3.2 9 1 2.6 2.1 5.3 4 7.4-2.8-4.7-7.4-8.2-12.6-9.6 3.5 4.1 7.6 7.6 12.1 10.5-3-1.4-6.1-2.9-9.5-3.4-1.9-.3-4.3-.1-5.8 1.3z"/><path fill="#ACB571" d="M395.5 512.6c1.5-1.1 3.1-2.3 4.8-3 1.8-.7 3.8-1 5.6-.3-1.9 2.2-4.6 3.7-7.4 4.1-1.1.2-2.4.1-3-.8-.3-.5-.4-1-.4-1.6-.5-5.1-.2-10.3.9-15.3.2-.9.9-2 1.7-1.6.9 1.8.8 4 .5 6.1-.6 4.3-1.5 8.5-2.4 12.6 1.3-4.1 2.7-8.4 5.6-11.7 1.1-1.2 2.4-2.2 3.9-2.6.5-.1 1.2-.2 1.6.2.7.5.5 1.6.1 2.4-2.2 5.2-7 8.5-11.5 11.5zm-54.1 21.8c-2.8-5.8-6.1-11.6-11.4-15.2-.6-.4-1.4-.7-1.9-.2-.1 1.1.7 2 1.3 2.8 3.2 3.8 6.4 7.6 9.5 11.4-2-1.3-4-2.5-6-3.8-2.3-1.5-5-3-7.6-2.3-.7.2-1.5.6-1.8 1.3-.5 1.4 1.1 2.7 2.6 3.3 3.4 1.3 7 2 10.6 1.9-3.6-.9-8.1-.9-10.4 2 4.2.5 8.5.6 12.8.3.3 0 .7-.1 1-.2.3-.2.4-.5.6-.8.8-1.7 1.5-3.4 2.6-5s2.7-2.8 4.5-3.1c.3 1.9-.5 3.9-1.8 5.4-1.3 1.5-3 2.5-4.7 3.4 2.5-5.8 2.6-12.6.3-18.5-.6-1.5-1.6-3.1-3.2-3.4-.9 1.4-.8 3.2-.6 4.8.7 5.4 1.9 10.7 3.6 15.9z"/><path fill="#ACB571" d="M328.7 517.3c-1.1 8-.7 16.2 1.4 24 0-2.5-1.2-4.7-2.5-6.8-1.4-2.2-3-4.5-4.9-6.2-2-1.8-4.5-3-7.2-3.1-.3 1.1.2 2.3.9 3.2 2.9 4.1 8.2 6.4 10.2 11-2.4-1.1-4.4-3.1-6.5-4.7s-4.6-3.1-7.3-3c-.6.9.2 2.1 1 2.9 3.9 3.7 9.3 5.3 14.5 6.7-3.6-2.5-8.7-2.5-12.3-.2-.5.4-1.1 1-.8 1.6.2.2.4.3.7.4 4 1.3 8.5 1.2 12.5-.3.3-.1.6-.3.7-.5.1-.3-.3-.6-.5-.5 2.4-2.1 5.8-2.9 8.9-2.1-2.1 2-5.1 3.1-8 2.8 2.3-2.7 3.3-6.3 3.4-9.8.1-3.5-.6-7-1.3-10.4-.5-2-1.2-4.1-2.9-5zm87.7-8.6c.3-1.1.8-2.4 1.9-2.8 1.7 1.3 1.7 3.8 1.4 5.9-.5 3-1.5 5.9-2.9 8.6 1.2-3.1 2.7-6.5 5.7-8.1.4-.2.9-.4 1.3-.3.6.2 1 1 .9 1.6-.1.7-.5 1.2-1 1.7-2 2.3-4.4 4.3-7.1 5.8 2-.9 4-1.6 6.2-2 .4-.1.9-.1 1 .3.1.2-.1.5-.2.7-1.6 2-4.5 2.6-6.9 1.7-2.4-.9-4.1-3-5-5.4s-.8-5-.4-7.5c1.5.1 2.3 1.8 2.6 3.2.8 3.1 1.1 6.3.9 9.5-.1-4.2.5-8.6 1.6-12.9z"/><path fill="#C95947" d="M156.8 59.2v8l-26.2 15.2v-8.1"/><path fill="#EFCEC9" d="M167.4 73.4l-10.5-6.2-.1-8 10.6 6.1"/><path fill="#CE8D57" d="M131.4 77.4c.1-.2.3-.3.5-.4 4.5-2.6 9-5.2 14.1-6.3 1.3-.3 2.6-.5 3.8-1 1.1-.5 2-1.3 3-2 2.2-1.5 5-2.4 7.7-2.1 2.1.2 4.1 1 6 1.9.2.1.3.1.4.3.1.1.1.3.1.4 0 1.2.1 2.3.1 3.5 0 .3 0 .5-.1.8-.1.3-.4.5-.7.6-7.9 4.4-16.1 8.1-23.8 12.9-.4.2-.7.5-1.1.5-.9.2-1.7-.5-2.5-1.1-2.2-1.7-4.8-3-7.5-3.6 0-1.2 0-2.5.1-3.7-.2-.4-.2-.6-.1-.7z"/><path fill="#C95947" d="M167.4 65.3v8.1l-26.3 15.1v-8"/><path fill="#EFCEC9" d="M141.1 88.5l-10.5-6.1-.1-8.1 10.6 6.2"/><path fill="#B1BA6A" d="M142.1 56.6c3.7 3.7 8.6 6.3 13.8 7.2-3.8-2.6-8.8-3.3-13.2-1.9 4.4 2.3 9.6 2.6 14.7 2.7-2.1-.3-4.3-.2-6.4.2-1.1.3-2.6 1.2-2.1 2.3.2.4.6.7 1 .9 1 .4 2.1.6 3.1.6 1.5.1 3 0 4.3-.6 2.3-1 3.6-3.4 4.8-5.6 1.2-2.2 2.8-4.5 5.3-5.1 0 2.6-1.4 5.1-3.3 7-1.9 1.9-4.2 3.2-6.5 4.5 3.5-7.9 4.3-16.9 2.4-25.3-2 7.4-1.1 15.2-2.3 22.8-.2-7.9-2.8-15.7-7.3-22.1-.7 1.5-.3 3.3.2 4.8 1.5 4.8 3.4 9.4 5.6 13.9-2.6-4.8-5.3-9.8-9.8-12.9-.7-.5-1.9-.8-2.2 0 3.3 4.5 7.3 8.5 11.7 11.8-1.9-1.6-3.9-3.3-6.3-4.3-2.4-1.3-5-1.7-7.5-.9zM130.7 80c-.3.4-.7.8-.5 1.3.2.7 1.2.7 1.9.5 3.1-1 5.7-3.1 8.3-5.1.5-.4 1-.8 1.2-1.4.2-.4.2-.8.1-1.3-.1-3.9-.9-7.8-2.3-11.4-.5-1.3-1.2-2.6-2.3-3.4-.6.8-.3 1.9 0 2.8 1.6 4.6 3.2 9.2 5 13.7-1.7-5-5.6-9.7-10.8-10.8-.6-.1-1.4-.2-1.8.3-.6.7.2 1.8.9 2.4 3.2 2.6 6.8 4.7 10.5 6.3-3.8-2.6-8.6-3.5-13.1-2.5 4.3 1.3 8.8 1.8 13.3 2.3-2.8.7-5.6.2-8.5.2s-5.9.3-7.9 2.3c5.3 1 10.8.7 16-.7-3.6.1-7.4 1.7-10 4.5z"/><path fill="#B1BA6A" d="M145.7 75.9c2.3.2 4.6 1 6.5 2.3.5.4 1.1 1 .9 1.6-.1.4-.5.6-.9.8-2.4 1-5.4.1-6.8-2.1-1.5-2.2-1.3-5.2-.9-7.8.2-1.6.4-3.3.6-4.9.1-.8.2-1.6.6-2.4s1.1-1.3 1.9-1.3c1.3 1.5.6 3.8-.1 5.6-1 2.8-2.1 5.5-3.1 8.3 3.2-3.2 3.7-8.8 7.6-11.2.5-.3 1-.5 1.6-.5s1.1.4 1.2 1c0 .4-.1.7-.3 1-2 3.5-5.3 6.2-8.8 8.2 2.9-1.7 6.4-2.4 9.8-2.1-.1.8-.9 1.4-1.6 1.8-2.6 1.2-5.4 1.8-8.2 1.7zm-3.3-.7c.6-10.4-1.2-21-5.1-30.6-.9-2.1-2-4.4-4.2-5.1-.4.5-.2 1.3.1 1.9 2.2 4.6 4.4 9.5 7.3 13.7-1.1-5.8.8-12.4 4.5-16.9.7 6-2.8 11.8-4.2 17.7-1.4-3.9-5.5-7.2-9.6-7.9 2 3.8 6 5.5 9.6 7.9.1.1.4 1.6.4 1.8v-.2"/><path fill="#B1BA6A" d="M144.9 68.5c1.1-8.9 5.8-17.2 6.2-26.2.2-5.3-1.1-10.5-3.1-15.5-.6.5-.7 1.5-.6 2.3.2 6 1.2 11.9 3 17.6 1.3-3.6 2.8-7.5 6.2-9.3.9-.4 2.2-.6 2.7.2-2.5 3.6-5.4 6.9-8.6 9.8-.3-2.8-1.8-5.5-4.2-7.2.1 3 1.5 6 3.7 8m11.5 19.9c3.3-1.2 5.6-4.4 6.9-7.6 1.5-3.7 2.2-7.8 2-11.8-1 .7-1.3 2.1-1.5 3.3-.5 3.8-1.8 7.4-1.8 11.2.9-1.6 2.8-2.8 4.1-4.1 1.3-1.2 3-2.1 4.8-2.1.2 0 .5 0 .6.2.1.2 0 .4 0 .6-.5 1.1-1.4 1.9-2.4 2.6-2.2 1.5-4.4 2.5-7.1 2.8m208.6 165.4c1.2 11-.9 18.6-4.4 29.1 2.1-8.8 3.1-14.5 9-21.3.9-1.1 2-2.1 3.2-2.9 1.6-1 3.5.5 3 2.3-.7 2.6-2.1 5.1-3.5 7.5-3.7 6.1-6.4 10.7-11.3 16 5.2-7.3 10.2-13.4 18.9-15.3.4-.1.8-.1 1.2-.2 1.8-.2 2.9 2.1 1.6 3.4-5.4 5.6-12.1 9.6-19.7 14.1-1.2.7-3 .8-3.3-.6-1.4-6.6-3-14.3-5.6-20.3v-.1c-1-2.3-4.5-1.1-3.8 1.3 1.9 6.8 5.1 13.4 9 19.5 3.1-.5-4.4-7.5-8-10-1.6-1.1-3.7.4-3.2 2.2.5 1.7 1.5 3.2 2.8 4.4 1.6 1.5 4.2 2.8 6.6 3.8 1.4.6 3-.6 2.8-2.1-.8-7.4-1.7-15.2-1.3-22.5.2-3.5.6-7 1.8-10.3.7-1.9 3.4-1.7 3.9.2.2.7.3 1.3.3 1.8z"/><path fill="#CEE0E4" d="M201 440.3l22.3 12.9v3.3L201 443.6"/><path fill="#5B97A5" d="M201 439.4l24.7 14.2-2.4-.4-22.3-12.9"/><path fill="#5B97A5" d="M178.8 453.2l22.2-12.9v3.3l-22.2 12.9"/><path fill="#79AAB5" d="M176.4 453.6l24.6-14.2v.9l-22.2 12.9"/><path fill="#CEE0E4" d="M201 434.7l24.7 14.3v4.6L201 439.4"/><path fill="#89B4BE" d="M201 436.6v-1.9l24.7 14.3-2.4.5"/><path fill="#5B97A5" d="M176.4 449l24.6-14.3v4.7l-24.6 14.2"/><path fill="#629CA9" d="M178.8 449.5l-2.4-.5 24.6-14.3v1.9"/><path fill="#CEE0E4" d="M201 433.2l22.3 12.9v3.4L201 436.6"/><path fill="#5B97A5" d="M178.8 446.1l22.2-12.9v3.4l-22.2 12.9"/><path fill="#E0AA82" d="M217 449.6c.3.4.5 1 .4 1.5-.1.3-.3.6-.6.9-3 2.9-6.2 5.7-10.1 7.3-3.9 1.6-8.4 2-12.2.2-1.3-.6-2.5-1.5-3.8-2.2-3.8-2.2-8.1-3.3-12.4-4.3l11.4-8.4c2.2-1.6 4.7-3.3 7.4-3.3 1.3 0 2.5.5 3.8.3.7-.1 1.4-.4 2.1-.5 2.8-.7 5.9.2 8.3 1.9 2.5 1.6 4.3 4 5.7 6.6z"/><path fill="#CEE0E4" d="M201.1 466.1v3.3l-22.3-12.9v-3.3"/><path fill="#89B4BF" d="M201.1 467.9l-24.7-14.3 2.4-.4 22.3 12.9"/><path fill="#CEE0E4" d="M201.1 463.3v4.6l-24.7-14.3V449"/><path fill="#5B97A5" d="M201.1 462.4v.9L176.4 449l2.4.5"/><path fill="#CEE0E4" d="M201.1 459v3.4l-22.3-12.9v-3.4"/><path fill="#5B97A5" d="M223.3 453.2v3.3l-22.2 12.9v-3.3"/><path fill="#629CA9" d="M225.7 453.6l-24.6 14.3v-1.8l22.2-12.9"/><path fill="#5B97A5" d="M225.7 449v4.6l-24.6 14.3v-4.6"/><path fill="#79AAB5" d="M223.3 449.5l2.4-.5-24.6 14.3v-.9"/><path fill="#5B97A5" d="M223.3 446.1v3.4l-22.2 12.9V459"/></svg>