<?xml version="1.0" encoding="utf-8"?>
<!-- Generator: Adobe Illustrator 18.1.0, SVG Export Plug-In . SVG Version: 6.00 Build 0)  -->
<svg width="200" version="1.1" id="Calque_2" xmlns="http://www.w3.org/2000/svg" xmlns:xlink="http://www.w3.org/1999/xlink" x="0px" y="0px"
	 viewBox="0 0 496.2 677.7" enable-background="new 0 0 496.2 677.7" xml:space="preserve">
<g>
	<g>
		<g enable-background="new    ">
			<defs>
				<polygon id="SVGID_1_" enable-background="new    " points="299,551.3 397.6,494 497,551.3 398.3,608.6 				"/>
			</defs>
			<clipPath id="SVGID_2_">
				<use xlink:href="#SVGID_1_"  overflow="visible"/>
			</clipPath>
			<g clip-path="url(#SVGID_2_)">
				<g>
					<g>
						<g>
							<polyline fill="#CEDA93" points="497,551.3 397.6,494 299,551.3 398.3,608.6 497,551.3 							"/>
						</g>
					</g>
				</g>
			</g>
		</g>
	</g>
</g>
<path fill="#FFFFFF" d="M436.7,546.1c-0.7-4.7-4.1-8.7-8.1-11.2s-8.7-3.9-13.2-5.3c-5.5-1.6-11-3.2-16.7-3.9
	c-13-1.6-27.1,1.4-38.8-4.6c-3.5-1.8-7.6-4.4-11-2.4c-2.4,1.4-3.2,4.6-2.5,7.3c0.7,2.7,2.4,4.9,4.2,7c8.5,10.2,18.1,19.8,29.8,26.3
	c11.6,6.5,25.5,9.7,38.5,6.7c4.8-1.1,9.5-3.1,13-6.5C435.3,556,437.5,551,436.7,546.1z"/>
<g>
	<g>
		<g enable-background="new    ">
			<defs>
				<polygon id="SVGID_3_" enable-background="new    " points="3.7,608.7 102.4,551.3 201.7,608.7 103,666 				"/>
			</defs>
			<clipPath id="SVGID_4_">
				<use xlink:href="#SVGID_3_"  overflow="visible"/>
			</clipPath>
			<g clip-path="url(#SVGID_4_)">
				<g>
					<g>
						<g>
							<polyline fill="#CEDA93" points="201.7,608.7 102.4,551.3 3.7,608.7 103,666 201.7,608.7 							"/>
						</g>
					</g>
				</g>
			</g>
		</g>
	</g>
</g>
<path fill="#FFFFFF" d="M22.4,609.4c-0.1,3.5,2.3,6.8,5.2,9.5c6.3,5.9,15,9.8,23.6,13.5c14.3,6.1,29.3,11.8,45.5,13.1
	s34-2.8,43.5-13.1c8.4-9.1,9-21.1,9.2-32.3c0.1-4.7,0.1-9.6-2.3-13.9c-2.4-4.3-8.1-7.9-14.1-7.3c0.9,8.2,0.3,16.5-1.9,24.6
	c-1.5,5.6-4.9,12-12.1,13.1c-4.6,0.7-9.2-1.1-13.2-2.9c-7.4-3.3-14.6-6.9-21.5-10.8c-7.2-4.1-14.4-8.5-23.1-10.4
	C49,589.9,35,593.3,27,601C24.5,603.4,22.4,606.3,22.4,609.4z"/>
<g>
	<g>
		<g enable-background="new    ">
			<g>
				<polygon fill="#FFDD88" points="297.4,329.5 198.7,386.9 99.4,329.5 198.1,272.2 				"/>
			</g>
			<g>
				<polygon fill="#FFD364" points="297.4,329.5 297.1,443.6 198.4,501 198.7,386.9 				"/>
			</g>
			<g>
				<polygon fill="#FFF2D3" points="198.7,386.9 198.4,501 99.1,443.6 99.4,329.5 				"/>
			</g>
		</g>
	</g>
</g>
<g>
	<g>
		<g enable-background="new    ">
			<g>
				<polygon fill="#FFDD88" points="396.6,386.9 297.9,444.2 198.6,386.8 297.3,329.5 				"/>
			</g>
			<g>
				<polygon fill="#FFD364" points="396.6,386.9 396.3,501 297.6,558.3 297.9,444.2 				"/>
			</g>
			<g>
				<polygon fill="#FFF2D3" points="297.9,444.2 297.6,558.3 198.3,501 198.6,386.8 				"/>
			</g>
		</g>
	</g>
</g>
<g>
	<g>
		<g enable-background="new    ">
			<g>
				<polygon fill="#FFDD88" points="198.9,386.9 100.2,444.2 0.9,386.8 99.5,329.5 				"/>
			</g>
			<g>
				<polygon fill="#FFD364" points="198.9,386.9 198.5,501 99.9,558.3 100.2,444.2 				"/>
			</g>
			<g>
				<polygon fill="#FFF2D3" points="100.2,444.2 99.9,558.3 0.5,501 0.9,386.8 				"/>
			</g>
		</g>
	</g>
</g>
<g>
	<g>
		<g enable-background="new    ">
			<g>
				<polygon fill="#FFDD88" points="298.1,444.2 199.4,501.5 100.1,444.2 198.7,386.8 				"/>
			</g>
			<g>
				<polygon fill="#FFD364" points="298.1,444.2 297.7,558.3 199.1,615.7 199.4,501.5 				"/>
			</g>
			<g>
				<polygon fill="#FFF2D3" points="199.4,501.5 199.1,615.7 99.7,558.3 100.1,444.2 				"/>
			</g>
		</g>
	</g>
</g>
<g>
	<g>
		<g enable-background="new    ">
			<g>
				<polygon fill="#FFDD88" points="297.7,215.5 199.1,272.8 99.7,215.5 198.4,158.2 				"/>
			</g>
			<g>
				<polygon fill="#FFD364" points="297.7,215.5 297.4,329.6 198.7,387 199.1,272.8 				"/>
			</g>
			<g>
				<polygon fill="#FFF2D3" points="199.1,272.8 198.7,387 99.4,329.6 99.7,215.5 				"/>
			</g>
		</g>
	</g>
</g>
<g>
	<g>
		<g enable-background="new    ">
			<g>
				<polygon fill="#FFDD88" points="396.9,272.8 298.3,330.2 198.9,272.8 297.6,215.5 				"/>
			</g>
			<g>
				<polygon fill="#FFD364" points="396.9,272.8 396.6,387 297.9,444.3 298.3,330.2 				"/>
			</g>
			<g>
				<polygon fill="#FFF2D3" points="298.3,330.2 297.9,444.3 198.6,387 198.9,272.8 				"/>
			</g>
		</g>
	</g>
</g>
<g>
	<g enable-background="new    ">
		<g>
			<polygon fill="#FFDD88" points="199.2,272.8 100.5,330.2 1.2,272.8 99.9,215.5 			"/>
		</g>
		<g>
			<polygon fill="#F59680" points="199.2,272.8 198.9,387 100.2,444.3 100.5,330.2 			"/>
		</g>
		<g>
			<polygon fill="#FFF2D3" points="100.5,330.2 100.2,444.3 0.9,387 1.2,272.8 			"/>
		</g>
	</g>
</g>
<g>
	<g>
		<g enable-background="new    ">
			<g>
				<polygon fill="#FFDD88" points="298.2,101.6 199.6,158.9 100.2,101.6 198.9,44.2 				"/>
			</g>
			<g>
				<polygon fill="#FFD364" points="298.2,101.6 297.9,215.7 199.2,273 199.6,158.9 				"/>
			</g>
			<g>
				<polygon fill="#FFF2D3" points="199.6,158.9 199.2,273 99.9,215.7 100.2,101.6 				"/>
			</g>
		</g>
	</g>
</g>
<g>
	<g>
		<g enable-background="new    ">
			<g>
				<polygon fill="#C1E2EC" points="198.7,43.7 295.2,99.4 298,101.9 198.7,44.5 				"/>
			</g>
			<g>
				<polygon fill="#ACD8E5" points="102.9,99.4 198.7,43.7 198.7,44.5 100.1,101.9 				"/>
			</g>
			<g>
				<polygon fill="#EAF5F8" points="198.7,39.6 298,97 295.2,99.4 198.7,43.7 				"/>
			</g>
			<g>
				<polygon fill="#ADD9E5" points="100.1,97 198.7,39.6 198.7,43.7 102.9,99.4 				"/>
			</g>
			<g>
				<polygon fill="#C1E2EC" points="198.7,38.8 295.2,94.5 298,97 198.7,39.6 				"/>
			</g>
			<g>
				<polygon fill="#ACD8E5" points="102.9,94.5 198.7,38.8 198.7,39.6 100.1,97 				"/>
			</g>
			<g>
				<polygon fill="#EAF5F8" points="198.7,34.7 298.1,92 295.2,94.5 198.7,38.8 				"/>
			</g>
			<g>
				<polygon fill="#ADD9E5" points="100.1,92.1 198.7,34.7 198.7,38.8 102.9,94.5 				"/>
			</g>
			<g>
				<polygon fill="#C2E2EC" points="198.8,33.9 295.3,89.6 298.1,92 198.7,34.7 				"/>
			</g>
			<g>
				<polygon fill="#ACD8E5" points="102.9,89.6 198.8,33.9 198.7,34.7 100.1,92.1 				"/>
			</g>
			<g>
				<polygon fill="#EAF5F8" points="198.8,29.8 298.1,87.1 295.3,89.6 198.8,33.9 				"/>
			</g>
			<g>
				<polygon fill="#ADD9E5" points="100.1,87.1 198.8,29.8 198.8,33.9 102.9,89.6 				"/>
			</g>
			<g>
				<polygon fill="#C1E2EC" points="198.8,29 295.2,84.7 298.1,87.1 198.8,29.8 				"/>
			</g>
			<g>
				<polygon fill="#ACD8E5" points="102.9,84.7 198.8,29 198.8,29.8 100.1,87.1 				"/>
			</g>
			<g>
				<polygon fill="#EAF5F9" points="198.8,24.9 298,82.2 295.2,84.7 198.8,29 				"/>
			</g>
			<g>
				<polygon fill="#ADD9E5" points="100.2,82.2 198.8,24.9 198.8,29 102.9,84.7 				"/>
			</g>
			<g>
				<polygon fill="#C0E1EB" points="198.8,24.2 295.3,79.9 298,82.2 198.8,24.9 				"/>
			</g>
			<g>
				<polygon fill="#ACD8E5" points="102.9,79.9 198.8,24.2 198.8,24.9 100.2,82.2 				"/>
			</g>
			<g>
				<polygon fill="#EAF5F8" points="198.8,20.1 298.1,77.4 295.3,79.9 198.8,24.2 				"/>
			</g>
			<g>
				<polygon fill="#ADD9E5" points="100.1,77.4 198.8,20.1 198.8,24.2 102.9,79.9 				"/>
			</g>
			<g>
				<polygon fill="#ADD9E5" points="295.2,99.4 298,101.9 199.4,159.2 199.4,155.1 				"/>
			</g>
			<g>
				<polygon fill="#EAF5F8" points="199.4,155.1 199.4,159.2 100.1,101.9 102.9,99.4 				"/>
			</g>
			<g>
				<polygon fill="#ACD8E5" points="298,97 295.2,99.4 199.4,155.1 199.4,154.3 				"/>
			</g>
			<g>
				<polygon fill="#EAF5F8" points="199.4,150.2 199.4,154.3 100.1,97 102.9,94.5 				"/>
			</g>
			<g>
				<polygon fill="#C2E2EC" points="199.4,154.3 199.4,155.1 102.9,99.4 100.1,97 				"/>
			</g>
			<g>
				<polygon fill="#ADD9E5" points="295.2,94.5 298,97 199.4,154.3 199.4,150.2 				"/>
			</g>
			<g>
				<polygon fill="#ADD9E5" points="295.3,89.6 298.1,92 199.4,149.4 199.4,145.3 				"/>
			</g>
			<g>
				<polygon fill="#EAF5F8" points="199.4,145.3 199.4,149.4 100.1,92.1 102.9,89.6 				"/>
			</g>
			<g>
				<polygon fill="#ACD8E5" points="298.1,92 295.2,94.5 199.4,150.2 199.4,149.4 				"/>
			</g>
			<g>
				<polygon fill="#C2E2EC" points="199.4,149.4 199.4,150.2 102.9,94.5 100.1,92.1 				"/>
			</g>
			<g>
				<polygon fill="#ADD9E5" points="295.2,84.7 298.1,87.1 199.4,144.5 199.4,140.4 				"/>
			</g>
			<g>
				<polygon fill="#C2E2EC" points="199.4,144.5 199.4,145.3 102.9,89.6 100.1,87.1 				"/>
			</g>
			<g>
				<polygon fill="#ACD8E5" points="298.1,87.1 295.3,89.6 199.4,145.3 199.4,144.5 				"/>
			</g>
			<g>
				<polygon fill="#EAF5F8" points="199.4,140.4 199.4,144.5 100.1,87.1 102.9,84.7 				"/>
			</g>
			<g>
				<polygon fill="#EAF5F8" points="199.4,135.6 199.4,139.5 100.2,82.2 102.9,79.9 				"/>
			</g>
			<g>
				<polygon fill="#C3E3EC" points="199.4,139.5 199.4,140.4 102.9,84.7 100.2,82.2 				"/>
			</g>
			<g>
				<polygon fill="#ACD8E5" points="298,82.2 295.2,84.7 199.4,140.4 199.4,139.5 				"/>
			</g>
			<g>
				<polygon fill="#ADD9E5" points="295.3,79.9 298,82.2 199.4,139.5 199.4,135.6 				"/>
			</g>
			<g>
				<polygon fill="#C2E2EC" points="199.4,134.7 199.4,135.6 102.9,79.9 100.1,77.4 				"/>
			</g>
			<g>
				<polygon fill="#ACD8E5" points="298.1,77.4 295.3,79.9 199.4,135.6 199.4,134.7 				"/>
			</g>
		</g>
	</g>
</g>
<g>
	<g enable-background="new    ">
		<g>
			<polygon fill="#ACD8E5" points="4,613.3 99.8,557.6 99.8,558.4 1.1,615.7 			"/>
		</g>
		<g>
			<polygon fill="#ADD9E5" points="1.1,610.8 99.8,553.5 99.8,557.6 4,613.3 			"/>
		</g>
		<g>
			<polygon fill="#ACD8E5" points="4,608.4 99.8,552.7 99.8,553.5 1.1,610.8 			"/>
		</g>
		<g>
			<polygon fill="#ADD9E5" points="1.1,605.9 99.8,548.5 99.8,552.7 4,608.4 			"/>
		</g>
		<g>
			<polygon fill="#ACD8E5" points="4,603.4 99.8,547.7 99.8,548.5 1.1,605.9 			"/>
		</g>
		<g>
			<polygon fill="#ADD9E5" points="1.2,601 99.8,543.6 99.8,547.7 4,603.4 			"/>
		</g>
		<g>
			<polygon fill="#ACD8E5" points="4,598.5 99.8,542.8 99.8,543.6 1.2,601 			"/>
		</g>
		<g>
			<polygon fill="#ADD9E5" points="1.2,596 99.8,538.7 99.8,542.8 4,598.5 			"/>
		</g>
		<g>
			<polygon fill="#ACD8E5" points="4,593.7 99.9,538 99.8,538.7 1.2,596 			"/>
		</g>
		<g>
			<polygon fill="#ADD9E5" points="1.2,591.2 99.9,533.9 99.9,538 4,593.7 			"/>
		</g>
		<g>
			<polygon fill="#ADD9E5" points="196.3,613.3 199.1,615.7 100.4,673 100.4,669 			"/>
		</g>
		<g>
			<polygon fill="#EAF5F8" points="100.4,669 100.4,673 1.1,615.7 4,613.3 			"/>
		</g>
		<g>
			<polygon fill="#ACD8E5" points="199.1,610.8 196.3,613.3 100.4,669 100.5,668.1 			"/>
		</g>
		<g>
			<polygon fill="#EAF5F8" points="100.4,664.1 100.5,668.1 1.1,610.8 4,608.4 			"/>
		</g>
		<g>
			<polygon fill="#C2E2EC" points="100.5,668.1 100.4,669 4,613.3 1.1,610.8 			"/>
		</g>
		<g>
			<polygon fill="#ADD9E5" points="196.3,608.4 199.1,610.8 100.5,668.1 100.4,664.1 			"/>
		</g>
		<g>
			<polygon fill="#ADD9E5" points="196.3,603.4 199.1,605.9 100.5,663.2 100.5,659.2 			"/>
		</g>
		<g>
			<polygon fill="#EAF5F8" points="100.5,659.2 100.5,663.2 1.1,605.9 4,603.4 			"/>
		</g>
		<g>
			<polygon fill="#ACD8E5" points="199.1,605.9 196.3,608.4 100.4,664.1 100.5,663.2 			"/>
		</g>
		<g>
			<polygon fill="#C2E2EC" points="100.5,663.2 100.4,664.1 4,608.4 1.1,605.9 			"/>
		</g>
		<g>
			<polygon fill="#ADD9E5" points="196.3,598.5 199.2,601 100.5,658.3 100.5,654.2 			"/>
		</g>
		<g>
			<polygon fill="#C2E2EC" points="100.5,658.3 100.5,659.2 4,603.4 1.2,601 			"/>
		</g>
		<g>
			<polygon fill="#ACD8E5" points="199.2,601 196.3,603.4 100.5,659.2 100.5,658.3 			"/>
		</g>
		<g>
			<polygon fill="#EAF5F8" points="100.5,654.2 100.5,658.3 1.2,601 4,598.5 			"/>
		</g>
		<g>
			<polygon fill="#EAF5F8" points="100.5,649.4 100.5,653.3 1.2,596 4,593.7 			"/>
		</g>
		<g>
			<polygon fill="#C3E3EC" points="100.5,653.3 100.5,654.2 4,598.5 1.2,596 			"/>
		</g>
		<g>
			<polygon fill="#ACD8E5" points="199.1,596 196.3,598.5 100.5,654.2 100.5,653.3 			"/>
		</g>
		<g>
			<polygon fill="#ADD9E5" points="196.3,593.7 199.1,596 100.5,653.3 100.5,649.4 			"/>
		</g>
		<g>
			<polygon fill="#C2E2EC" points="100.5,648.6 100.5,649.4 4,593.7 1.2,591.2 			"/>
		</g>
		<g>
			<polygon fill="#ACD8E5" points="199.2,591.2 196.3,593.7 100.5,649.4 100.5,648.6 			"/>
		</g>
	</g>
</g>
<g>
	<g enable-background="new    ">
		<g>
			<polygon fill="#C1E2EC" points="396.5,500.6 493,556.3 495.8,558.7 396.5,501.4 			"/>
		</g>
		<g>
			<polygon fill="#EAF5F8" points="396.5,496.5 495.8,553.8 493,556.3 396.5,500.6 			"/>
		</g>
		<g>
			<polygon fill="#C1E2EC" points="396.5,495.7 493,551.4 495.8,553.8 396.5,496.5 			"/>
		</g>
		<g>
			<polygon fill="#EAF5F8" points="396.5,491.5 495.8,548.9 493,551.4 396.5,495.7 			"/>
		</g>
		<g>
			<polygon fill="#C2E2EC" points="396.5,490.7 493,546.4 495.8,548.9 396.5,491.5 			"/>
		</g>
		<g>
			<polygon fill="#EAF5F8" points="396.5,486.6 495.8,544 493,546.4 396.5,490.7 			"/>
		</g>
		<g>
			<polygon fill="#C1E2EC" points="396.5,485.8 493,541.5 495.8,544 396.5,486.6 			"/>
		</g>
		<g>
			<polygon fill="#EAF5F9" points="396.5,481.7 495.8,539 493,541.5 396.5,485.8 			"/>
		</g>
		<g>
			<polygon fill="#C0E1EB" points="396.5,481 493,536.7 495.8,539 396.5,481.7 			"/>
		</g>
		<g>
			<polygon fill="#EAF5F8" points="396.5,476.9 495.8,534.2 493,536.7 396.5,481 			"/>
		</g>
		<g>
			<polygon fill="#ADD9E5" points="493,556.3 495.8,558.7 397.1,616 397.1,612 			"/>
		</g>
		<g>
			<polygon fill="#EAF5F8" points="397.1,612 397.1,616 297.8,558.7 300.6,556.3 			"/>
		</g>
		<g>
			<polygon fill="#ACD8E5" points="495.8,553.8 493,556.3 397.1,612 397.1,611.1 			"/>
		</g>
		<g>
			<polygon fill="#EAF5F8" points="397.1,607.1 397.1,611.1 297.8,553.8 300.6,551.4 			"/>
		</g>
		<g>
			<polygon fill="#C2E2EC" points="397.1,611.1 397.1,612 300.6,556.3 297.8,553.8 			"/>
		</g>
		<g>
			<polygon fill="#ADD9E5" points="493,551.4 495.8,553.8 397.1,611.1 397.1,607.1 			"/>
		</g>
		<g>
			<polygon fill="#ADD9E5" points="493,546.4 495.8,548.9 397.1,606.2 397.1,602.2 			"/>
		</g>
		<g>
			<polygon fill="#EAF5F8" points="397.1,602.2 397.1,606.2 297.8,548.9 300.6,546.4 			"/>
		</g>
		<g>
			<polygon fill="#ACD8E5" points="495.8,548.9 493,551.4 397.1,607.1 397.1,606.2 			"/>
		</g>
		<g>
			<polygon fill="#C2E2EC" points="397.1,606.2 397.1,607.1 300.6,551.4 297.8,548.9 			"/>
		</g>
		<g>
			<polygon fill="#ADD9E5" points="493,541.5 495.8,544 397.1,601.3 397.1,597.2 			"/>
		</g>
		<g>
			<polygon fill="#C2E2EC" points="397.1,601.3 397.1,602.2 300.6,546.4 297.8,544 			"/>
		</g>
		<g>
			<polygon fill="#ACD8E5" points="495.8,544 493,546.4 397.1,602.2 397.1,601.3 			"/>
		</g>
		<g>
			<polygon fill="#EAF5F8" points="397.1,597.2 397.1,601.3 297.8,544 300.7,541.5 			"/>
		</g>
		<g>
			<polygon fill="#EAF5F8" points="397.2,592.4 397.2,596.3 297.9,539 300.7,536.7 			"/>
		</g>
		<g>
			<polygon fill="#C3E3EC" points="397.2,596.3 397.1,597.2 300.7,541.5 297.9,539 			"/>
		</g>
		<g>
			<polygon fill="#ACD8E5" points="495.8,539 493,541.5 397.1,597.2 397.2,596.3 			"/>
		</g>
		<g>
			<polygon fill="#ADD9E5" points="493,536.7 495.8,539 397.2,596.3 397.2,592.4 			"/>
		</g>
		<g>
			<polygon fill="#C2E2EC" points="397.2,591.6 397.2,592.4 300.7,536.7 297.9,534.2 			"/>
		</g>
		<g>
			<polygon fill="#ACD8E5" points="495.8,534.2 493,536.7 397.2,592.4 397.2,591.6 			"/>
		</g>
	</g>
</g>
<g>
	<g>
		<g enable-background="new    ">
			<defs>
				<polygon id="SVGID_5_" enable-background="new    " points="131.9,577.3 132,541.8 146.9,550.4 146.8,585.9 				"/>
			</defs>
			<clipPath id="SVGID_6_">
				<use xlink:href="#SVGID_5_"  overflow="visible"/>
			</clipPath>
			<g clip-path="url(#SVGID_6_)">
				<g>
					<g>
						<g>
							<polyline fill="#F59680" points="146.9,550.4 132,541.8 131.9,577.3 146.8,585.9 146.9,550.4 							"/>
						</g>
					</g>
				</g>
			</g>
		</g>
	</g>
</g>
<g>
	<g>
		<g enable-background="new    ">
			<defs>
				<polygon id="SVGID_7_" enable-background="new    " points="346.8,529.9 346.7,494.4 361.6,485.8 361.7,521.3 				"/>
			</defs>
			<clipPath id="SVGID_8_">
				<use xlink:href="#SVGID_7_"  overflow="visible"/>
			</clipPath>
			<g clip-path="url(#SVGID_8_)">
				<g>
					<g>
						<g>
							<polyline fill="#F59680" points="361.6,485.8 346.7,494.4 346.8,529.9 361.7,521.3 361.6,485.8 							"/>
						</g>
					</g>
				</g>
			</g>
		</g>
	</g>
</g>
<g>
	<g>
		<g enable-background="new    ">
			<defs>
				<polygon id="SVGID_9_" enable-background="new    " points="17.9,510.7 18,475.2 32.9,483.8 32.8,519.3 				"/>
			</defs>
			<clipPath id="SVGID_10_">
				<use xlink:href="#SVGID_9_"  overflow="visible"/>
			</clipPath>
			<g clip-path="url(#SVGID_10_)">
				<g>
					<g>
						<g>
							<polyline fill="#F59680" points="32.9,483.8 18,475.2 17.9,510.7 32.8,519.3 32.9,483.8 							"/>
						</g>
					</g>
				</g>
			</g>
		</g>
	</g>
</g>
<g>
	<g>
		<g enable-background="new    ">
			<defs>
				<polygon id="SVGID_11_" enable-background="new    " points="36,521.4 36.1,486 51,494.6 50.9,530 				"/>
			</defs>
			<clipPath id="SVGID_12_">
				<use xlink:href="#SVGID_11_"  overflow="visible"/>
			</clipPath>
			<g clip-path="url(#SVGID_12_)">
				<g>
					<g>
						<g>
							<polyline fill="#F59680" points="51,494.6 36.1,486 36,521.4 50.9,530 51,494.6 							"/>
						</g>
					</g>
				</g>
			</g>
		</g>
	</g>
</g>
<g>
	<g>
		<g enable-background="new    ">
			<defs>
				<polygon id="SVGID_13_" enable-background="new    " points="222.9,542.4 222.8,530.5 237.7,521.9 237.8,533.8 				"/>
			</defs>
			<clipPath id="SVGID_14_">
				<use xlink:href="#SVGID_13_"  overflow="visible"/>
			</clipPath>
			<g clip-path="url(#SVGID_14_)">
				<polyline fill="#3A7A84" points="237.7,521.9 222.8,530.5 222.9,542.4 237.8,533.8 237.7,521.9 				"/>
			</g>
		</g>
	</g>
	<g>
		<g enable-background="new    ">
			<defs>
				<polygon id="SVGID_15_" enable-background="new    " points="222.9,527.9 222.8,515.9 237.7,507.3 237.8,519.3 				"/>
			</defs>
			<clipPath id="SVGID_16_">
				<use xlink:href="#SVGID_15_"  overflow="visible"/>
			</clipPath>
			<g clip-path="url(#SVGID_16_)">
				<polyline fill="#3A7A84" points="237.7,507.3 222.8,515.9 222.9,527.9 237.8,519.3 237.7,507.3 				"/>
			</g>
		</g>
	</g>
</g>
<g>
	<g>
		<g enable-background="new    ">
			<defs>
				<polygon id="SVGID_17_" enable-background="new    " points="259.8,520.5 259.7,508.5 274.6,499.9 274.7,511.9 				"/>
			</defs>
			<clipPath id="SVGID_18_">
				<use xlink:href="#SVGID_17_"  overflow="visible"/>
			</clipPath>
			<g clip-path="url(#SVGID_18_)">
				<polyline fill="#3A7A84" points="274.6,499.9 259.7,508.5 259.8,520.5 274.7,511.9 274.6,499.9 				"/>
			</g>
		</g>
	</g>
	<g>
		<g enable-background="new    ">
			<defs>
				<polygon id="SVGID_19_" enable-background="new    " points="259.8,506 259.7,494 274.6,485.4 274.7,497.4 				"/>
			</defs>
			<clipPath id="SVGID_20_">
				<use xlink:href="#SVGID_19_"  overflow="visible"/>
			</clipPath>
			<g clip-path="url(#SVGID_20_)">
				<polyline fill="#3A7A84" points="274.6,485.4 259.7,494 259.8,506 274.7,497.4 274.6,485.4 				"/>
			</g>
		</g>
	</g>
</g>
<g>
	<g>
		<g enable-background="new    ">
			<defs>
				<polygon id="SVGID_21_" enable-background="new    " points="17.9,335.3 18,323.3 32.9,331.9 32.8,343.9 				"/>
			</defs>
			<clipPath id="SVGID_22_">
				<use xlink:href="#SVGID_21_"  overflow="visible"/>
			</clipPath>
			<g clip-path="url(#SVGID_22_)">
				<polyline fill="#62A1AF" points="32.9,331.9 18,323.3 17.9,335.3 32.8,343.9 32.9,331.9 				"/>
			</g>
		</g>
	</g>
	<g>
		<g enable-background="new    ">
			<defs>
				<polygon id="SVGID_23_" enable-background="new    " points="17.9,320.9 18,308.9 32.9,317.5 32.8,329.5 				"/>
			</defs>
			<clipPath id="SVGID_24_">
				<use xlink:href="#SVGID_23_"  overflow="visible"/>
			</clipPath>
			<g clip-path="url(#SVGID_24_)">
				<polyline fill="#62A1AF" points="32.9,317.5 18,308.9 17.9,320.9 32.8,329.5 32.9,317.5 				"/>
			</g>
		</g>
	</g>
</g>
<g>
	<g>
		<g enable-background="new    ">
			<defs>
				<polygon id="SVGID_25_" enable-background="new    " points="56.7,358.1 56.8,346.2 71.7,354.8 71.6,366.7 				"/>
			</defs>
			<clipPath id="SVGID_26_">
				<use xlink:href="#SVGID_25_"  overflow="visible"/>
			</clipPath>
			<g clip-path="url(#SVGID_26_)">
				<polyline fill="#62A1AF" points="71.7,354.8 56.8,346.2 56.7,358.1 71.6,366.7 71.7,354.8 				"/>
			</g>
		</g>
	</g>
	<g>
		<g enable-background="new    ">
			<defs>
				<polygon id="SVGID_27_" enable-background="new    " points="56.7,343.7 56.8,331.8 71.7,340.4 71.6,352.3 				"/>
			</defs>
			<clipPath id="SVGID_28_">
				<use xlink:href="#SVGID_27_"  overflow="visible"/>
			</clipPath>
			<g clip-path="url(#SVGID_28_)">
				<polyline fill="#62A1AF" points="71.7,340.4 56.8,331.8 56.7,343.7 71.6,352.3 71.7,340.4 				"/>
			</g>
		</g>
	</g>
</g>
<g>
	<g>
		<g enable-background="new    ">
			<defs>
				<polygon id="SVGID_29_" enable-background="new    " points="16.9,394.8 17,382.9 31.9,391.5 31.8,403.4 				"/>
			</defs>
			<clipPath id="SVGID_30_">
				<use xlink:href="#SVGID_29_"  overflow="visible"/>
			</clipPath>
			<g clip-path="url(#SVGID_30_)">
				<polyline fill="#62A1AF" points="31.9,391.5 17,382.9 16.9,394.8 31.8,403.4 31.9,391.5 				"/>
			</g>
		</g>
	</g>
	<g>
		<g enable-background="new    ">
			<defs>
				<polygon id="SVGID_31_" enable-background="new    " points="16.9,380.4 17,368.4 31.9,377 31.8,389 				"/>
			</defs>
			<clipPath id="SVGID_32_">
				<use xlink:href="#SVGID_31_"  overflow="visible"/>
			</clipPath>
			<g clip-path="url(#SVGID_32_)">
				<polyline fill="#62A1AF" points="31.9,377 17,368.4 16.9,380.4 31.8,389 31.9,377 				"/>
			</g>
		</g>
	</g>
</g>
<g>
	<g>
		<g enable-background="new    ">
			<defs>
				<polygon id="SVGID_33_" enable-background="new    " points="55.7,417.7 55.8,405.7 70.7,414.3 70.6,426.3 				"/>
			</defs>
			<clipPath id="SVGID_34_">
				<use xlink:href="#SVGID_33_"  overflow="visible"/>
			</clipPath>
			<g clip-path="url(#SVGID_34_)">
				<polyline fill="#62A1AF" points="70.7,414.3 55.8,405.7 55.7,417.7 70.6,426.3 70.7,414.3 				"/>
			</g>
		</g>
	</g>
	<g>
		<g enable-background="new    ">
			<defs>
				<polygon id="SVGID_35_" enable-background="new    " points="55.7,403.2 55.8,391.3 70.7,399.9 70.6,411.8 				"/>
			</defs>
			<clipPath id="SVGID_36_">
				<use xlink:href="#SVGID_35_"  overflow="visible"/>
			</clipPath>
			<g clip-path="url(#SVGID_36_)">
				<polyline fill="#62A1AF" points="70.7,399.9 55.8,391.3 55.7,403.2 70.6,411.8 70.7,399.9 				"/>
			</g>
		</g>
	</g>
</g>
<g>
	<g>
		<g enable-background="new    ">
			<defs>
				<polygon id="SVGID_37_" enable-background="new    " points="112.7,502.3 112.7,490.3 127.6,498.9 127.6,510.9 				"/>
			</defs>
			<clipPath id="SVGID_38_">
				<use xlink:href="#SVGID_37_"  overflow="visible"/>
			</clipPath>
			<g clip-path="url(#SVGID_38_)">
				<polyline fill="#62A1AF" points="127.6,498.9 112.7,490.3 112.7,502.3 127.6,510.9 127.6,498.9 				"/>
			</g>
		</g>
	</g>
	<g>
		<g enable-background="new    ">
			<defs>
				<polygon id="SVGID_39_" enable-background="new    " points="112.7,487.8 112.7,475.9 127.6,484.5 127.6,496.4 				"/>
			</defs>
			<clipPath id="SVGID_40_">
				<use xlink:href="#SVGID_39_"  overflow="visible"/>
			</clipPath>
			<g clip-path="url(#SVGID_40_)">
				<polyline fill="#62A1AF" points="127.6,484.5 112.7,475.9 112.7,487.8 127.6,496.4 127.6,484.5 				"/>
			</g>
		</g>
	</g>
</g>
<g>
	<g>
		<g enable-background="new    ">
			<defs>
				<polygon id="SVGID_41_" enable-background="new    " points="151.5,525.1 151.5,513.2 166.4,521.8 166.4,533.7 				"/>
			</defs>
			<clipPath id="SVGID_42_">
				<use xlink:href="#SVGID_41_"  overflow="visible"/>
			</clipPath>
			<g clip-path="url(#SVGID_42_)">
				<polyline fill="#62A1AF" points="166.4,521.8 151.5,513.2 151.5,525.1 166.4,533.7 166.4,521.8 				"/>
			</g>
		</g>
	</g>
	<g>
		<g enable-background="new    ">
			<defs>
				<polygon id="SVGID_43_" enable-background="new    " points="151.5,510.7 151.5,498.7 166.4,507.3 166.4,519.3 				"/>
			</defs>
			<clipPath id="SVGID_44_">
				<use xlink:href="#SVGID_43_"  overflow="visible"/>
			</clipPath>
			<g clip-path="url(#SVGID_44_)">
				<polyline fill="#62A1AF" points="166.4,507.3 151.5,498.7 151.5,510.7 166.4,519.3 166.4,507.3 				"/>
			</g>
		</g>
	</g>
</g>
<g>
	<g>
		<g enable-background="new    ">
			<defs>
				<polygon id="SVGID_45_" enable-background="new    " points="326.4,371.1 326.3,359.1 341.2,350.5 341.3,362.5 				"/>
			</defs>
			<clipPath id="SVGID_46_">
				<use xlink:href="#SVGID_45_"  overflow="visible"/>
			</clipPath>
			<g clip-path="url(#SVGID_46_)">
				<polyline fill="#3A7A84" points="341.2,350.5 326.3,359.1 326.4,371.1 341.3,362.5 341.2,350.5 				"/>
			</g>
		</g>
	</g>
	<g>
		<g enable-background="new    ">
			<defs>
				<polygon id="SVGID_47_" enable-background="new    " points="326.4,356.5 326.3,344.6 341.2,336 341.3,347.9 				"/>
			</defs>
			<clipPath id="SVGID_48_">
				<use xlink:href="#SVGID_47_"  overflow="visible"/>
			</clipPath>
			<g clip-path="url(#SVGID_48_)">
				<polyline fill="#3A7A84" points="341.2,336 326.3,344.6 326.4,356.5 341.3,347.9 341.2,336 				"/>
			</g>
		</g>
	</g>
</g>
<g>
	<g>
		<g enable-background="new    ">
			<defs>
				<polygon id="SVGID_49_" enable-background="new    " points="363.2,349.1 363.2,337.2 378.1,328.6 378.1,340.5 				"/>
			</defs>
			<clipPath id="SVGID_50_">
				<use xlink:href="#SVGID_49_"  overflow="visible"/>
			</clipPath>
			<g clip-path="url(#SVGID_50_)">
				<polyline fill="#3A7A84" points="378.1,328.6 363.2,337.2 363.2,349.1 378.1,340.5 378.1,328.6 				"/>
			</g>
		</g>
	</g>
	<g>
		<g enable-background="new    ">
			<defs>
				<polygon id="SVGID_51_" enable-background="new    " points="363.2,334.6 363.2,322.6 378.1,314 378.1,326 				"/>
			</defs>
			<clipPath id="SVGID_52_">
				<use xlink:href="#SVGID_51_"  overflow="visible"/>
			</clipPath>
			<g clip-path="url(#SVGID_52_)">
				<polyline fill="#3A7A84" points="378.1,314 363.2,322.6 363.2,334.6 378.1,326 378.1,314 				"/>
			</g>
		</g>
	</g>
</g>
<g>
	<g>
		<g enable-background="new    ">
			<defs>
				<polygon id="SVGID_53_" enable-background="new    " points="326.4,428.3 326.3,416.3 341.2,407.7 341.3,419.7 				"/>
			</defs>
			<clipPath id="SVGID_54_">
				<use xlink:href="#SVGID_53_"  overflow="visible"/>
			</clipPath>
			<g clip-path="url(#SVGID_54_)">
				<polyline fill="#3A7A84" points="341.2,407.7 326.3,416.3 326.4,428.3 341.3,419.7 341.2,407.7 				"/>
			</g>
		</g>
	</g>
	<g>
		<g enable-background="new    ">
			<defs>
				<polygon id="SVGID_55_" enable-background="new    " points="326.4,413.7 326.3,401.8 341.2,393.2 341.3,405.1 				"/>
			</defs>
			<clipPath id="SVGID_56_">
				<use xlink:href="#SVGID_55_"  overflow="visible"/>
			</clipPath>
			<g clip-path="url(#SVGID_56_)">
				<polyline fill="#3A7A84" points="341.2,393.2 326.3,401.8 326.4,413.7 341.3,405.1 341.2,393.2 				"/>
			</g>
		</g>
	</g>
</g>
<g>
	<g>
		<g enable-background="new    ">
			<defs>
				<polygon id="SVGID_57_" enable-background="new    " points="363.2,406.4 363.2,394.4 378.1,385.8 378.1,397.8 				"/>
			</defs>
			<clipPath id="SVGID_58_">
				<use xlink:href="#SVGID_57_"  overflow="visible"/>
			</clipPath>
			<g clip-path="url(#SVGID_58_)">
				<polyline fill="#3A7A84" points="378.1,385.8 363.2,394.4 363.2,406.4 378.1,397.8 378.1,385.8 				"/>
			</g>
		</g>
	</g>
	<g>
		<g enable-background="new    ">
			<defs>
				<polygon id="SVGID_59_" enable-background="new    " points="363.2,391.8 363.2,379.9 378.1,371.3 378.1,383.2 				"/>
			</defs>
			<clipPath id="SVGID_60_">
				<use xlink:href="#SVGID_59_"  overflow="visible"/>
			</clipPath>
			<g clip-path="url(#SVGID_60_)">
				<polyline fill="#3A7A84" points="378.1,371.3 363.2,379.9 363.2,391.8 378.1,383.2 378.1,371.3 				"/>
			</g>
		</g>
	</g>
</g>
<g>
	<g>
		<g enable-background="new    ">
			<g>
				<polygon fill="#B1DAE7" points="226.2,15.8 198.4,31.9 171.3,16.3 199.1,0.1 				"/>
			</g>
			<g>
				<polygon fill="#ACD8E5" points="226.2,15.8 226.1,60.4 198.3,76.6 198.4,31.9 				"/>
			</g>
			<g>
				<polygon fill="#E9F5F8" points="198.4,31.9 198.3,76.6 171.2,60.9 171.3,16.3 				"/>
			</g>
		</g>
	</g>
</g>
<g>
	<g>
		<g enable-background="new    ">
			<defs>
				<polygon id="SVGID_61_" enable-background="new    " points="205.6,72.4 205.5,36.9 220.4,28.3 220.5,63.8 				"/>
			</defs>
			<clipPath id="SVGID_62_">
				<use xlink:href="#SVGID_61_"  overflow="visible"/>
			</clipPath>
			<g clip-path="url(#SVGID_62_)">
				<g>
					<g>
						<g>
							<polyline fill="#F59680" points="220.4,28.3 205.5,36.9 205.6,72.4 220.5,63.8 220.4,28.3 							"/>
						</g>
					</g>
				</g>
			</g>
		</g>
	</g>
</g>
<g>
	<g>
		<g>
			<g enable-background="new    ">
				<g>
					<polygon fill="#F59680" points="298.3,357.1 298.6,444.3 199.3,501.6 					"/>
				</g>
				<g>
					<polygon fill="#F9C2B6" points="199.3,501.6 100.6,444.3 199.7,299.7 298.3,357.1 					"/>
				</g>
			</g>
		</g>
	</g>
	<g opacity="0.51">
		<g enable-background="new    ">
			<defs>
				<polygon id="SVGID_63_" enable-background="new    " points="189,312.8 191.9,311.1 291.3,368.4 288.3,370.2 				"/>
			</defs>
			<clipPath id="SVGID_64_">
				<use xlink:href="#SVGID_63_"  overflow="visible"/>
			</clipPath>
			<g clip-path="url(#SVGID_64_)">
				<polyline fill="#DB705E" points="290.8,368.2 191.9,311.1 190.2,313.5 289.1,370.6 290.8,368.2 				"/>
			</g>
		</g>
		<polygon fill="#DB705E" points="290.8,368.2 286.5,366.4 285.3,368.4 289.1,370.6 		"/>
	</g>
	<g opacity="0.51">
		<g enable-background="new    ">
			<defs>
				<polygon id="SVGID_65_" enable-background="new    " points="178.9,327.6 181.9,325.8 281.2,383.2 278.3,384.9 				"/>
			</defs>
			<clipPath id="SVGID_66_">
				<use xlink:href="#SVGID_65_"  overflow="visible"/>
			</clipPath>
			<g clip-path="url(#SVGID_66_)">
				<polyline fill="#DB705E" points="280.8,382.9 181.9,325.8 180.2,328.3 279.1,385.4 280.8,382.9 				"/>
			</g>
		</g>
		<polygon fill="#DB705E" points="280.8,382.9 276.4,381.2 275.2,383.2 279.1,385.4 		"/>
	</g>
	<g opacity="0.51">
		<g enable-background="new    ">
			<defs>
				<polygon id="SVGID_67_" enable-background="new    " points="168.8,342.2 171.8,340.5 271.1,397.8 268.1,399.6 				"/>
			</defs>
			<clipPath id="SVGID_68_">
				<use xlink:href="#SVGID_67_"  overflow="visible"/>
			</clipPath>
			<g clip-path="url(#SVGID_68_)">
				<polyline fill="#DB705E" points="270.7,397.6 171.8,340.5 170.1,343 268.9,400 270.7,397.6 				"/>
			</g>
		</g>
		<polygon fill="#DB705E" points="270.7,397.6 266.3,395.8 265.1,397.8 268.9,400 		"/>
	</g>
	<g opacity="0.51">
		<g enable-background="new    ">
			<defs>
				<polygon id="SVGID_69_" enable-background="new    " points="158.8,357 161.7,355.3 261.1,412.6 258.1,414.3 				"/>
			</defs>
			<clipPath id="SVGID_70_">
				<use xlink:href="#SVGID_69_"  overflow="visible"/>
			</clipPath>
			<g clip-path="url(#SVGID_70_)">
				<polyline fill="#DB705E" points="260.6,412.4 161.7,355.3 160,357.7 258.9,414.8 260.6,412.4 				"/>
			</g>
		</g>
		<polygon fill="#DB705E" points="260.6,412.4 256.2,410.6 255.1,412.6 258.9,414.8 		"/>
	</g>
	<g opacity="0.51">
		<g enable-background="new    ">
			<defs>
				<polygon id="SVGID_71_" enable-background="new    " points="148.9,371.2 151.9,369.5 251.2,426.8 248.2,428.5 				"/>
			</defs>
			<clipPath id="SVGID_72_">
				<use xlink:href="#SVGID_71_"  overflow="visible"/>
			</clipPath>
			<g clip-path="url(#SVGID_72_)">
				<polyline fill="#DB705E" points="250.8,426.6 151.9,369.5 150.2,371.9 249,429 250.8,426.6 				"/>
			</g>
		</g>
		<polygon fill="#DB705E" points="250.8,426.6 246.4,424.8 245.2,426.8 249,429 		"/>
	</g>
	<g opacity="0.51">
		<g enable-background="new    ">
			<defs>
				<polygon id="SVGID_73_" enable-background="new    " points="138.9,386 141.8,384.2 241.2,441.6 238.2,443.3 				"/>
			</defs>
			<clipPath id="SVGID_74_">
				<use xlink:href="#SVGID_73_"  overflow="visible"/>
			</clipPath>
			<g clip-path="url(#SVGID_74_)">
				<polyline fill="#DB705E" points="240.7,441.3 141.8,384.2 140.1,386.7 239,443.8 240.7,441.3 				"/>
			</g>
		</g>
		<polygon fill="#DB705E" points="240.7,441.3 236.3,439.6 235.2,441.5 239,443.8 		"/>
	</g>
	<g opacity="0.51">
		<g enable-background="new    ">
			<defs>
				<polygon id="SVGID_75_" enable-background="new    " points="128.7,400.6 131.7,398.9 231,456.2 228,457.9 				"/>
			</defs>
			<clipPath id="SVGID_76_">
				<use xlink:href="#SVGID_75_"  overflow="visible"/>
			</clipPath>
			<g clip-path="url(#SVGID_76_)">
				<polyline fill="#DB705E" points="230.6,456 131.7,398.9 130,401.3 228.8,458.4 230.6,456 				"/>
			</g>
		</g>
		<polygon fill="#DB705E" points="230.6,456 226.2,454.2 225,456.2 228.8,458.4 		"/>
	</g>
	<g opacity="0.51">
		<g enable-background="new    ">
			<defs>
				<polygon id="SVGID_77_" enable-background="new    " points="117.6,416.9 120.6,415.1 219.9,472.5 217,474.2 				"/>
			</defs>
			<clipPath id="SVGID_78_">
				<use xlink:href="#SVGID_77_"  overflow="visible"/>
			</clipPath>
			<g clip-path="url(#SVGID_78_)">
				<polyline fill="#DB705E" points="219.5,472.2 120.6,415.1 118.9,417.6 217.8,474.7 219.5,472.2 				"/>
			</g>
		</g>
		<polygon fill="#DB705E" points="219.5,472.2 215.1,470.5 213.9,472.5 217.8,474.7 		"/>
	</g>
	<g opacity="0.51">
		<g enable-background="new    ">
			<defs>
				<polygon id="SVGID_79_" enable-background="new    " points="106.5,432.9 109.5,431.2 208.8,488.5 205.9,490.3 				"/>
			</defs>
			<clipPath id="SVGID_80_">
				<use xlink:href="#SVGID_79_"  overflow="visible"/>
			</clipPath>
			<g clip-path="url(#SVGID_80_)">
				<polyline fill="#DB705E" points="208.4,488.3 109.5,431.2 107.8,433.6 206.7,490.7 208.4,488.3 				"/>
			</g>
		</g>
		<polygon fill="#DB705E" points="208.4,488.3 204,486.5 202.8,488.5 206.7,490.7 		"/>
	</g>
</g>
<g>
	<g>
		<g>
			<g enable-background="new    ">
				<g>
					<polygon fill="#F59680" points="199.3,185.7 199.5,272.8 100.2,330.2 					"/>
				</g>
				<g>
					<polygon fill="#F9C2B6" points="100.2,330.2 1.5,272.8 100.6,128.3 199.3,185.7 					"/>
				</g>
			</g>
		</g>
	</g>
	<g opacity="0.51">
		<g enable-background="new    ">
			<defs>
				<polygon id="SVGID_81_" enable-background="new    " points="89.9,141.4 92.9,139.6 192.2,197 189.2,198.7 				"/>
			</defs>
			<clipPath id="SVGID_82_">
				<use xlink:href="#SVGID_81_"  overflow="visible"/>
			</clipPath>
			<g clip-path="url(#SVGID_82_)">
				<polyline fill="#DB705E" points="191.8,196.7 92.9,139.6 91.2,142.1 190,199.2 191.8,196.7 				"/>
			</g>
		</g>
		<polygon fill="#DB705E" points="191.8,196.7 187.4,195 186.2,197 190.1,199.2 		"/>
	</g>
	<g opacity="0.51">
		<g enable-background="new    ">
			<defs>
				<polygon id="SVGID_83_" enable-background="new    " points="79.9,156.1 82.9,154.4 182.2,211.7 179.2,213.5 				"/>
			</defs>
			<clipPath id="SVGID_84_">
				<use xlink:href="#SVGID_83_"  overflow="visible"/>
			</clipPath>
			<g clip-path="url(#SVGID_84_)">
				<polyline fill="#DB705E" points="181.8,211.5 82.9,154.4 81.2,156.9 180,214 181.8,211.5 				"/>
			</g>
		</g>
		<polygon fill="#DB705E" points="181.8,211.5 177.4,209.7 176.2,211.7 180,214 		"/>
	</g>
	<g opacity="0.51">
		<g enable-background="new    ">
			<defs>
				<polygon id="SVGID_85_" enable-background="new    " points="69.7,170.8 72.7,169.1 172,226.4 169,228.1 				"/>
			</defs>
			<clipPath id="SVGID_86_">
				<use xlink:href="#SVGID_85_"  overflow="visible"/>
			</clipPath>
			<g clip-path="url(#SVGID_86_)">
				<polyline fill="#DB705E" points="171.6,226.2 72.7,169.1 71,171.5 169.8,228.6 171.6,226.2 				"/>
			</g>
		</g>
		<polygon fill="#DB705E" points="171.6,226.2 167.2,224.4 166,226.4 169.9,228.6 		"/>
	</g>
	<g opacity="0.51">
		<g enable-background="new    ">
			<defs>
				<polygon id="SVGID_87_" enable-background="new    " points="59.7,185.5 62.7,183.8 162,241.2 159,242.9 				"/>
			</defs>
			<clipPath id="SVGID_88_">
				<use xlink:href="#SVGID_87_"  overflow="visible"/>
			</clipPath>
			<g clip-path="url(#SVGID_88_)">
				<polyline fill="#DB705E" points="161.6,240.9 62.7,183.8 61,186.3 159.8,243.4 161.6,240.9 				"/>
			</g>
		</g>
		<polygon fill="#DB705E" points="161.6,240.9 157.2,239.2 156,241.1 159.8,243.4 		"/>
	</g>
	<g opacity="0.51">
		<g enable-background="new    ">
			<defs>
				<polygon id="SVGID_89_" enable-background="new    " points="49.8,199.8 52.8,198 152.1,255.4 149.1,257.1 				"/>
			</defs>
			<clipPath id="SVGID_90_">
				<use xlink:href="#SVGID_89_"  overflow="visible"/>
			</clipPath>
			<g clip-path="url(#SVGID_90_)">
				<polyline fill="#DB705E" points="151.7,255.1 52.8,198 51.1,200.5 149.9,257.6 151.7,255.1 				"/>
			</g>
		</g>
		<polygon fill="#DB705E" points="151.7,255.1 147.3,253.4 146.1,255.3 150,257.6 		"/>
	</g>
	<g opacity="0.51">
		<g enable-background="new    ">
			<defs>
				<polygon id="SVGID_91_" enable-background="new    " points="39.8,214.5 42.8,212.8 142.1,270.1 139.1,271.9 				"/>
			</defs>
			<clipPath id="SVGID_92_">
				<use xlink:href="#SVGID_91_"  overflow="visible"/>
			</clipPath>
			<g clip-path="url(#SVGID_92_)">
				<polyline fill="#DB705E" points="141.7,269.9 42.8,212.8 41.1,215.2 139.9,272.3 141.7,269.9 				"/>
			</g>
		</g>
		<polygon fill="#DB705E" points="141.7,269.9 137.3,268.1 136.1,270.1 140,272.3 		"/>
	</g>
	<g opacity="0.51">
		<g enable-background="new    ">
			<defs>
				<polygon id="SVGID_93_" enable-background="new    " points="29.6,229.2 32.6,227.4 131.9,284.8 129,286.5 				"/>
			</defs>
			<clipPath id="SVGID_94_">
				<use xlink:href="#SVGID_93_"  overflow="visible"/>
			</clipPath>
			<g clip-path="url(#SVGID_94_)">
				<polyline fill="#DB705E" points="131.5,284.5 32.6,227.4 30.9,229.9 129.8,287 131.5,284.5 				"/>
			</g>
		</g>
		<polygon fill="#DB705E" points="131.5,284.5 127.1,282.8 125.9,284.8 129.8,287 		"/>
	</g>
	<g opacity="0.51">
		<g enable-background="new    ">
			<defs>
				<polygon id="SVGID_95_" enable-background="new    " points="18.6,245.4 21.5,243.7 120.9,301 117.9,302.8 				"/>
			</defs>
			<clipPath id="SVGID_96_">
				<use xlink:href="#SVGID_95_"  overflow="visible"/>
			</clipPath>
			<g clip-path="url(#SVGID_96_)">
				<polyline fill="#DB705E" points="120.4,300.8 21.5,243.7 19.8,246.2 118.7,303.2 120.4,300.8 				"/>
			</g>
		</g>
		<polygon fill="#DB705E" points="120.4,300.8 116.1,299 114.9,301 118.7,303.3 		"/>
	</g>
	<g opacity="0.51">
		<g enable-background="new    ">
			<defs>
				<polygon id="SVGID_97_" enable-background="new    " points="7.5,261.5 10.5,259.8 109.8,317.1 106.8,318.8 				"/>
			</defs>
			<clipPath id="SVGID_98_">
				<use xlink:href="#SVGID_97_"  overflow="visible"/>
			</clipPath>
			<g clip-path="url(#SVGID_98_)">
				<polyline fill="#DB705E" points="109.4,316.8 10.5,259.8 8.7,262.2 107.6,319.3 109.4,316.8 				"/>
			</g>
		</g>
		<polygon fill="#DB705E" points="109.4,316.8 105,315.1 103.8,317.1 107.6,319.3 		"/>
	</g>
</g>
<g>
	<g enable-background="new    ">
		<g>
			<polygon fill="#FFF3D6" points="199.2,158.7 298.2,330.2 198.9,272.8 			"/>
		</g>
		<g>
			<polygon fill="#FFD365" points="199.2,158.7 297.9,101.4 396.9,272.8 298.2,330.2 			"/>
		</g>
	</g>
</g>
</svg>
