<svg xmlns="http://www.w3.org/2000/svg" x="0px" y="0px" xmlns:xlink="http://www.w3.org/1999/xlink" viewBox="0 0 1440 875.8">
  <path fill="#0066AE" d="M1431.4 427.9l-.1 24.5-709 412 .1-24.4"/>
  <path fill="#E7F1F2" d="M722.4 840l-.1 24.4-713.7-412 2.3-25.8"/>
  <defs>
    <path id="a" d="M8.7 427.9L718.6 15.7l712.8 412.2-709 412.1z"/>
  </defs>
  <clipPath id="b">
    <use xlink:href="#a" overflow="visible"/>
  </clipPath>
  <path fill="#BCE5EC" d="M1432.3 427.8L718.6 15.7 8.7 427.9 722.4 840l709.9-412.2" clip-path="url(#b)"/>
  <path fill="#FFF3DC" d="M8.7 427.9l-.1 24.5 288.9 166.8.1-25.2"/>
  <defs>
    <path id="c" d="M8.8 428L718.3 15.6l714 412.2-709.4 412.5z"/>
  </defs>
  <clipPath id="d">
    <use xlink:href="#c" overflow="visible"/>
  </clipPath>
  <g clip-path="url(#d)">
    <path fill="#0066AE" d="M437.3 458.3l-14.2-8.2-.2.1 14.2 8.2.2-.1m190.6-110.8l-14.2-8.2-8.8 5.1-172.2 100.1-8.8 5.1 14.2 8.2 8.8-5.1 172.2-100.1 8.8-5.1"/>
    <g fill="#0066AE">
      <path d="M1399.1 446.7l18.3-10.6L1040 218.2l14.3-8.3-8.8-5.1-135.2 78.6-.7-.4 135.2-78.6-8.9-5.1-15.6 9.1-189.9-110h-88.9l-76.6 44.5-83-47.9-18.3 10.6L881.3 289 714 386.2 528.8 279.3l70.5-41-7.1-4.1-70.5 41-125.6-72.5-8.8 5.1 125.6 72.5 7.1 4.1 185 106.8-.7.4-76.5-44.2-8.8 5.1 76.6 44.2L523.5 497l-76.6-44.2-8.8 5.1 75.5 43.6-.7.4-89.9-51.7.2-.1L196.1 319l.7-.4 227 131.1 8.8-5.1-227-131.1-18.3 10.6 90.8 52.4-78.6 45.7 7.1 4.1 78.6-45.7 219.9 127-178.6 103.8 18.7 10.8 178.4-103.9L901 736.2l8.8-5.1-375-216.5.7-.4 375 216.5 8.8-5.1-284.5-164.3 52.6-30.6-92.9-53.7 119.6-69.5L1092 625.7l8.8-5.1-376.6-217.4.7-.4 376.5 217.4 8.8-5.1-377.8-218.2 167.3-97.2 116.4 67.2-.1 49.3 219 126.3 8.7-5-215.2-124.3v-.1l.1-49.2-120-69.3-1.6-.9.7-.4 1.6.9 120.3 69.5v.1l-.1 49.2 215 124 8.7-5.1L1042 410l.1-49.3-124-71.6 103.6-60.2 377.4 217.8zM336.6 616.6l-.7-.4 177.7-103.3.7.4-177.7 103.3zm328.2-85.9l-41.4 24-81.5-47.1 41.4-24 81.5 47.1zm-79.1-58.8l-11.3 6.6-39.6 23-.7-.4 170.4-99 .7.4-119.5 69.4zm159.9-367.8h80.6l80.7 46.8L793.2 217l-121.3-70 73.7-42.9zm-173.3-3.7l.7-.4 316.9 183-.7.4-316.9-183zm151.9 291l-.7-.4 166.3-96.7.7.4-166.3 96.7zm175.4-113L800.3 221 914 154.9l99.2 57.4-113.6 66.1z"/>
      <path d="M604.9 344.5l8.8-5.2-94.4-54.4-7.1-4.1-125.5-72.5-8.8 5.1"/>
    </g>
    <path fill="#FFF" d="M1029.6 363.6l-120.3-69.5-1.6-.9-.7.4 1.5.9 120.1 69.4-.1 49.2v.1l214.8 124 .7-.4L1029.5 413l.1-49.3v-.1M889.9 283L573 100l-.7.4 316.9 183 .7-.4m20.6 447.7l-375-216.6-.7.5 375 216.5.7-.4m-397-229.3L438 457.9l-14.1-8.2-129.2-74.6-7.1-4.1-90.8-52.4-.7.4 90.8 52.4 7.1 4.1 129.2 74.6 14.1 8.2 75.5 43.6.7-.5M1101 619.9L724.9 402.8l-.7.4 376.1 217.1.7-.4M705.1 391.3L520 284.5l-7.1-4.1-125.5-72.5-.7.4 125.5 72.5 7.1 4.1 94.4 54.4 14.2 8.2 76.5 44.2.7-.4m340.6-186.7l-.5-.5-135.5 78.7.6.5 135.4-78.7m-155.2 90.1l-.7-.4L723.5 391l.7.4 166.3-96.7M705.2 402.5l-.7-.4-170.4 99 .7.4 39.6-23 11.3-6.6 119.5-69.4M514.4 513.3l-.7-.4-177.8 103.3.7.4 177.8-103.3"/>
  </g>
</svg>
