<?xml version="1.0" encoding="utf-8"?>
<!-- Generator: Adobe Illustrator 18.1.0, SVG Export Plug-In . SVG Version: 6.00 Build 0)  -->
<svg version="1.1" id="Calque_1" xmlns="http://www.w3.org/2000/svg" xmlns:xlink="http://www.w3.org/1999/xlink" x="0px" y="0px"
	 viewBox="0 0 1440 875.8" enable-background="new 0 0 1440 875.8" xml:space="preserve">
<g id="ghetto">
	<g enable-background="new    ">
		<defs>
			<polygon id="SVGID_133_" enable-background="new    " points="943.9,288.4 970,273.2 1008.9,295.7 982.9,310.9 			"/>
		</defs>
		<clipPath id="SVGID_1_">
			<use xlink:href="#SVGID_133_"  overflow="visible"/>
		</clipPath>
		<polyline clip-path="url(#SVGID_1_)" fill="#FFFFFF" points="1008.9,295.7 970,273.2 943.9,288.4 982.9,310.9 1008.9,295.7 		"/>
	</g>
	<polygon fill="#F5967F" points="1031.8,258.6 1016.5,267.5 970.1,240.7 985.3,231.8 	"/>
	<polygon fill="#F59A84" points="1031.8,258.6 1031.7,291.2 1016.5,300.1 1016.5,267.5 	"/>
	<polygon fill="#FFCABE" points="1016.5,267.5 1016.5,300.1 970,273.3 970.1,240.7 	"/>
	<polygon fill="#F8F6F3" points="1145.8,297.4 1145.7,313.7 1106.4,291 1106.5,274.7 	"/>
	<polygon fill="#E0D9CD" points="1148.6,297.4 1131.6,307.3 1130.1,306.4 1145.8,297.4 1106.5,274.7 1107.9,273.8 	"/>
	<polygon fill="#D8CFBF" points="1148.6,297.4 1148.6,313.7 1131.5,323.6 1131.6,307.3 	"/>
	<polygon fill="#F8F6F3" points="1131.6,307.3 1131.5,323.6 1130.1,322.8 1130.1,306.4 	"/>
	<polygon fill="#D8CFBF" points="1060.9,259.5 1060.8,275.8 1045.2,284.9 1045.2,268.6 	"/>
	<polygon fill="#F8F6F3" points="1045.2,268.6 1045.2,284.9 1043.8,284.1 1043.8,267.7 	"/>
	<polygon fill="#E0D9CD" points="1101.6,281.4 1100.2,282.2 1060.9,259.5 1045.2,268.6 1043.8,267.7 1060.9,257.8 	"/>
	<polygon fill="#D8CFBF" points="1101.6,281.4 1101.6,297.7 1100.2,298.5 1100.2,282.2 	"/>
	<polygon fill="#F8F6F3" points="1100.2,282.2 1100.2,298.5 1060.8,275.8 1060.9,259.5 	"/>
	<polygon fill="#FFD176" points="1076,243.9 1076,248.8 1069.7,252.4 1069.7,247.5 	"/>
	<polygon fill="#FFF7E6" points="1069.7,247.5 1069.7,252.4 1061.2,247.5 1061.2,242.6 	"/>
	<polygon fill="#FFDD8E" points="1076,243.9 1069.7,247.5 1061.2,242.6 1051.7,248.1 1045.2,244.4 1061,235.2 	"/>
	<polygon fill="#FFBD6A" points="1061.2,242.6 1061.2,247.5 1051.7,253 1051.7,248.1 	"/>
	<polygon fill="#FFF7E6" points="1051.7,248.1 1051.7,253 1045.2,249.3 1045.2,244.4 	"/>
	<polygon fill="#FFDD8E" points="1054.1,218.3 1014.3,241.4 997.9,231.9 1037.7,208.8 	"/>
	<polygon fill="#FFBD6A" points="1054.1,218.3 1053.9,308 1014.1,331.1 1014.3,241.4 	"/>
	<polygon fill="#FFF5D4" points="1014.3,241.4 1014.1,331.1 997.6,321.6 997.9,231.9 	"/>
	<polygon fill="#FFDD8E" points="1010.6,245.5 1006.1,248.1 997.4,243 1001.8,240.4 	"/>
	<polygon fill="#FFBD6A" points="1010.6,245.5 1010.4,318.9 1005.9,321.5 1006.1,248.1 	"/>
	<polygon fill="#FFF5D4" points="1006.1,248.1 1005.9,321.5 997.2,316.4 997.4,243 	"/>
	<polygon fill="#F59680" points="1029.9,216.7 1029.9,221.7 1034.2,224.2 	"/>
	<polygon fill="#FFF2D3" points="1034.2,224.2 1040.8,220.4 1036.4,212.9 1029.9,216.7 	"/>
	<polygon fill="#F1526B" points="1034.6,222.4 1039.1,219.8 1036.1,214.6 1031.6,217.2 	"/>
	<g enable-background="new    ">
		<defs>
			<polygon id="SVGID_131_" enable-background="new    " points="1023.6,308.3 1023.4,243.8 1046.3,230.6 1046.5,295.1 			"/>
		</defs>
		<clipPath id="SVGID_2_">
			<use xlink:href="#SVGID_131_"  overflow="visible"/>
		</clipPath>
		<polyline clip-path="url(#SVGID_2_)" fill="#FFFFFF" points="1033.9,237.7 1023.4,243.8 1023.4,251.5 1033.9,245.4 1033.9,237.7 
					"/>
		<polyline clip-path="url(#SVGID_2_)" fill="#FFFFFF" points="1046.3,230.6 1035.7,236.7 1035.8,244.3 1046.3,238.2 1046.3,230.6 
					"/>
		<polyline clip-path="url(#SVGID_2_)" fill="#FFFFFF" points="1033.9,247.2 1023.4,253.3 1023.4,261 1034,254.9 1033.9,247.2 		"/>
		<polyline clip-path="url(#SVGID_2_)" fill="#FFFFFF" points="1046.3,240.1 1035.8,246.2 1035.8,253.8 1046.3,247.7 1046.3,240.1 
					"/>
		<polyline clip-path="url(#SVGID_2_)" fill="#FFFFFF" points="1034,256.7 1023.4,262.8 1023.4,270.4 1034,264.3 1034,256.7 		"/>
		<polyline clip-path="url(#SVGID_2_)" fill="#FFFFFF" points="1046.3,249.5 1035.8,255.6 1035.8,263.3 1046.4,257.2 1046.3,249.5 
					"/>
		<polyline clip-path="url(#SVGID_2_)" fill="#FFFFFF" points="1034,266.2 1023.4,272.3 1023.5,279.9 1034,273.8 1034,266.2 		"/>
		<polyline clip-path="url(#SVGID_2_)" fill="#FFFFFF" points="1046.4,259 1035.8,265.1 1035.8,272.8 1046.4,266.7 1046.4,259 		"/>
		<polyline clip-path="url(#SVGID_2_)" fill="#FFFFFF" points="1034,275.6 1023.5,281.7 1023.5,289.4 1034.1,283.3 1034,275.6 		"/>
		<polyline clip-path="url(#SVGID_2_)" fill="#FFFFFF" points="1046.4,268.5 1035.8,274.6 1035.9,282.2 1046.4,276.1 1046.4,268.5 
					"/>
		<polyline clip-path="url(#SVGID_2_)" fill="#FFFFFF" points="1034.1,285.1 1023.5,291.2 1023.5,298.9 1034.1,292.8 1034.1,285.1 
					"/>
		<polyline clip-path="url(#SVGID_2_)" fill="#FFFFFF" points="1046.4,278 1035.9,284.1 1035.9,291.7 1046.5,285.6 1046.4,278 		"/>
		<polyline clip-path="url(#SVGID_2_)" fill="#FFFFFF" points="1034.1,294.6 1023.5,300.7 1023.6,308.3 1034.1,302.2 1034.1,294.6 
					"/>
		<polyline clip-path="url(#SVGID_2_)" fill="#FFFFFF" points="1046.5,287.4 1035.9,293.5 1035.9,301.2 1046.5,295.1 1046.5,287.4 
					"/>
	</g>
	<polygon fill="#FFDD8E" points="1125.5,227.9 1109.1,237.4 1069.1,214.3 1085.4,204.8 	"/>
	<polygon fill="#FFBD6A" points="1125.5,227.9 1125.2,317.6 1108.9,327.1 1109.1,237.4 	"/>
	<polygon fill="#FFF5D4" points="1109.1,237.4 1108.9,327.1 1068.8,304 1069.1,214.3 	"/>
	<polygon fill="#F5967F" points="1117,219.8 1113.1,222.1 1109.4,219.9 1113.2,217.7 	"/>
	<polygon fill="#F1526B" points="1117,219.8 1116.9,228 1113.1,230.2 1113.1,222.1 	"/>
	<polygon fill="#FDECE8" points="1113.1,222.1 1113.1,230.2 1109.3,228.1 1109.4,219.9 	"/>
	<polygon fill="#F1526B" points="1097,210 1097,215 1092.7,217.5 	"/>
	<polygon fill="#FFF2D3" points="1092.7,217.5 1086.1,213.7 1090.5,206.2 1097,210 	"/>
	<polygon fill="#F59680" points="1092.3,215.8 1087.8,213.2 1090.8,208 1095.3,210.6 	"/>
	<g enable-background="new    ">
		<defs>
			<polygon id="SVGID_129_" enable-background="new    " points="1077.1,291.1 1077.3,226.6 1100.2,239.8 1100.1,304.3 			"/>
		</defs>
		<clipPath id="SVGID_3_">
			<use xlink:href="#SVGID_129_"  overflow="visible"/>
		</clipPath>
		<polyline clip-path="url(#SVGID_3_)" fill="#FFFFFF" points="1100.2,239.8 1089.7,233.7 1089.7,241.4 1100.2,247.5 1100.2,239.8 
					"/>
		<polyline clip-path="url(#SVGID_3_)" fill="#FFFFFF" points="1087.9,232.7 1077.3,226.6 1077.3,234.2 1087.9,240.3 1087.9,232.7 
					"/>
		<polyline clip-path="url(#SVGID_3_)" fill="#FFFFFF" points="1100.2,249.3 1089.7,243.2 1089.6,250.9 1100.2,257 1100.2,249.3 		
			"/>
		<polyline clip-path="url(#SVGID_3_)" fill="#FFFFFF" points="1087.9,242.2 1077.3,236.1 1077.3,243.7 1087.8,249.8 1087.9,242.2 
					"/>
		<polyline clip-path="url(#SVGID_3_)" fill="#FFFFFF" points="1100.2,258.8 1089.6,252.7 1089.6,260.3 1100.2,266.4 1100.2,258.8 
					"/>
		<polyline clip-path="url(#SVGID_3_)" fill="#FFFFFF" points="1087.8,251.6 1077.3,245.5 1077.2,253.2 1087.8,259.3 1087.8,251.6 
					"/>
		<polyline clip-path="url(#SVGID_3_)" fill="#FFFFFF" points="1100.2,268.3 1089.6,262.2 1089.6,269.8 1100.1,275.9 1100.2,268.3 
					"/>
		<polyline clip-path="url(#SVGID_3_)" fill="#FFFFFF" points="1087.8,261.1 1077.2,255 1077.2,262.7 1087.8,268.8 1087.8,261.1 		
			"/>
		<polyline clip-path="url(#SVGID_3_)" fill="#FFFFFF" points="1100.1,277.7 1089.6,271.6 1089.6,279.3 1100.1,285.4 1100.1,277.7 
					"/>
		<polyline clip-path="url(#SVGID_3_)" fill="#FFFFFF" points="1087.8,270.6 1077.2,264.5 1077.2,272.1 1087.8,278.2 1087.8,270.6 
					"/>
		<polyline clip-path="url(#SVGID_3_)" fill="#FFFFFF" points="1100.1,287.2 1089.6,281.1 1089.5,288.8 1100.1,294.9 1100.1,287.2 
					"/>
		<polyline clip-path="url(#SVGID_3_)" fill="#FFFFFF" points="1087.7,280.1 1077.2,274 1077.2,281.6 1087.7,287.7 1087.7,280.1 		
			"/>
		<polyline clip-path="url(#SVGID_3_)" fill="#FFFFFF" points="1100.1,296.7 1089.5,290.6 1089.5,298.2 1100.1,304.3 1100.1,296.7 
					"/>
		<polyline clip-path="url(#SVGID_3_)" fill="#FFFFFF" points="1087.7,289.5 1077.2,283.4 1077.1,291.1 1087.7,297.2 1087.7,289.5 
					"/>
	</g>
	<polygon fill="#F5967F" points="1097.8,323.2 1056.7,347.1 1023.4,327.8 1064.5,303.9 	"/>
	<polygon fill="#F1526B" points="1097.8,323.2 1097.8,332.9 1056.6,356.9 1056.7,347.1 	"/>
	<polygon fill="#FFCABE" points="1056.7,347.1 1056.6,356.9 1023.3,337.6 1023.4,327.8 	"/>
	<polygon fill="#97D2E8" points="1097.8,317.4 1056.7,341.3 1023.4,322.1 1064.5,298.2 	"/>
	<polygon fill="#97D2E8" points="996.2,235.3 988.6,239.7 980.5,235 988.1,230.6 	"/>
	<polygon fill="#43A4C9" points="996.2,235.3 996.2,241.8 988.6,246.2 988.6,239.7 	"/>
	<polygon fill="#EDF6F9" points="988.6,239.7 988.6,246.2 980.5,241.5 980.5,235 	"/>
	<g enable-background="new    ">
		<defs>
			<polygon id="SVGID_4_" enable-background="new    " points="983.7,241.6 983.8,239.2 984.9,239.9 984.9,242.2 			"/>
		</defs>
		<use xlink:href="#SVGID_4_"  overflow="visible" fill="#5095A0"/>
		<clipPath id="SVGID_5_">
			<use xlink:href="#SVGID_4_"  overflow="visible"/>
		</clipPath>
		<polyline clip-path="url(#SVGID_5_)" fill="#5095A0" points="984.9,239.9 983.8,239.2 983.7,241.6 984.9,242.2 984.9,239.9 		"/>
	</g>
	<g>
		<defs>
			<rect id="SVGID_6_" x="960.1" y="259.4" width="37.9" height="28.4"/>
		</defs>
		<clipPath id="SVGID_7_">
			<use xlink:href="#SVGID_6_"  overflow="visible"/>
		</clipPath>
		<g clip-path="url(#SVGID_7_)">
			<defs>
				<rect id="SVGID_8_" x="983.8" y="264.7" width="10.9" height="14.8"/>
			</defs>
			<clipPath id="SVGID_9_">
				<use xlink:href="#SVGID_8_"  overflow="visible"/>
			</clipPath>
			<polygon clip-path="url(#SVGID_9_)" fill="#FFFFFF" points="983.8,273.2 994.6,279.5 994.6,271 983.8,264.7 			"/>
		</g>
		<polygon opacity="0.5" clip-path="url(#SVGID_7_)" fill="#FFE29D" points="988.7,273.5 992.1,275.4 994.6,273.9 994.6,271 
			993.8,270.5 		"/>
		<polygon opacity="0.5" clip-path="url(#SVGID_7_)" fill="#FFE29D" points="983.8,271 983.8,273.2 986.2,274.6 993.5,270.3 
			989.2,267.8 		"/>
	</g>
	<g>
		<defs>
			<polygon id="SVGID_10_" points="982.2,264.6 993.7,271.3 995.6,268.7 984.1,262 			"/>
		</defs>
		<clipPath id="SVGID_12_">
			<use xlink:href="#SVGID_10_"  overflow="visible"/>
		</clipPath>
		<polygon clip-path="url(#SVGID_12_)" fill="#FFE29D" points="995.6,268.7 984.1,262 982.2,264.6 993.7,271.3 		"/>
	</g>
	<g>
		<defs>
			<rect id="SVGID_13_" x="960.1" y="259.4" width="37.9" height="28.4"/>
		</defs>
		<clipPath id="SVGID_14_">
			<use xlink:href="#SVGID_13_"  overflow="visible"/>
		</clipPath>
		<polygon clip-path="url(#SVGID_14_)" fill="#CE3653" points="982.2,265.4 982.2,264.6 993.7,271.3 993.7,272.1 		"/>
		<polygon clip-path="url(#SVGID_14_)" fill="#F1526B" points="983.6,265.4 985.5,262.8 986.8,263.6 984.8,266.2 		"/>
		<polygon clip-path="url(#SVGID_14_)" fill="#F1526B" points="986,266.8 987.9,264.2 989.2,265 987.3,267.6 		"/>
		<polygon clip-path="url(#SVGID_14_)" fill="#F1526B" points="988.5,268.3 990.4,265.7 991.7,266.4 989.8,269 		"/>
		<polygon clip-path="url(#SVGID_14_)" fill="#F1526B" points="991,269.7 992.9,267.1 994.2,267.9 992.3,270.5 		"/>
		<polygon clip-path="url(#SVGID_14_)" fill="#FFD580" points="982.2,264.6 983.6,265.4 983.6,266.3 982.2,265.4 		"/>
		<polygon clip-path="url(#SVGID_14_)" fill="#FFD580" points="984.8,266.2 986,266.8 986,267.7 984.8,267 		"/>
		<polygon clip-path="url(#SVGID_14_)" fill="#FFD580" points="987.3,267.6 988.5,268.3 988.5,269.1 987.3,268.4 		"/>
		<polygon clip-path="url(#SVGID_14_)" fill="#FFD580" points="989.8,269 991,269.7 991,270.6 989.8,269.8 		"/>
		<polygon clip-path="url(#SVGID_14_)" fill="#FFD580" points="992.3,270.5 993.7,271.3 993.7,272.1 992.3,271.3 		"/>
	</g>
	<g>
		<defs>
			<polygon id="SVGID_15_" points="983.8,273.5 994.6,279.8 994.6,279.5 983.8,273.2 			"/>
		</defs>
		<clipPath id="SVGID_16_">
			<use xlink:href="#SVGID_15_"  overflow="visible"/>
		</clipPath>
		<polygon clip-path="url(#SVGID_16_)" fill="#F27D66" points="994.6,279.5 983.8,273.2 983.8,273.5 994.6,279.8 		"/>
	</g>
	<g>
		<defs>
			<polygon id="SVGID_17_" points="983,273.9 995.4,281.1 995.4,280.2 983,273 			"/>
		</defs>
		<use xlink:href="#SVGID_17_"  overflow="visible" fill="#FFBD6A"/>
		<clipPath id="SVGID_18_">
			<use xlink:href="#SVGID_17_"  overflow="visible"/>
		</clipPath>
		<polygon clip-path="url(#SVGID_18_)" fill="#FFBD6A" points="995.4,280.2 983,273 983,273.9 995.4,281.1 		"/>
	</g>
	<g>
		<defs>
			<polygon id="SVGID_127_" points="974.5,275.9 974.5,267.9 977.8,269.8 977.7,277.8 			"/>
		</defs>
		<use xlink:href="#SVGID_127_"  overflow="visible" fill="#F1526B"/>
		<clipPath id="SVGID_19_">
			<use xlink:href="#SVGID_127_"  overflow="visible"/>
		</clipPath>
		<polyline clip-path="url(#SVGID_19_)" fill="#F1526B" points="977.8,269.8 974.5,267.9 974.5,275.9 977.7,277.8 977.8,269.8 		"/>
	</g>
	<polygon fill="#F1526B" points="971.4,251.4 971.5,256.4 966.8,259.7 966.8,254.7 	"/>
	<polygon fill="#F7E3DF" points="966.8,259.7 966.6,259.5 966.6,254.6 966.8,254.7 	"/>
	<polygon fill="#F5967F" points="966.8,254.7 966.6,254.6 971.2,251.3 971.4,251.4 	"/>
	<line fill="none" stroke="#BCE5EC" stroke-width="0.25" stroke-miterlimit="10" x1="971" y1="247.4" x2="971" y2="251.6"/>
	<line fill="none" stroke="#BCE5EC" stroke-width="0.25" stroke-miterlimit="10" x1="966.9" y1="250.3" x2="966.9" y2="254.5"/>
	<g>
		<defs>
			<rect id="SVGID_20_" x="940" y="242.2" width="57.2" height="53.2"/>
		</defs>
		<clipPath id="SVGID_21_">
			<use xlink:href="#SVGID_20_"  overflow="visible"/>
		</clipPath>
		<path clip-path="url(#SVGID_21_)" fill="#F7BEB2" d="M964.9,251.6l6.3-4.5c0,0,0.1,0,0.1,0L964.9,251.6
			C965,251.6,964.9,251.6,964.9,251.6"/>
		<path clip-path="url(#SVGID_21_)" fill="#F7E3DF" d="M965,251.6c0.1,0.1,0.1,0.2,0.1,0.3c0,0.1-0.1,0.1-0.1,0.1
			c-0.1-0.1-0.1-0.2-0.1-0.3C964.9,251.6,964.9,251.6,965,251.6"/>
		<path clip-path="url(#SVGID_21_)" fill="#F1526B" d="M971.4,247.5l-6.3,4.5c0,0,0-0.1,0-0.1c0-0.1-0.1-0.2-0.1-0.3l6.3-4.5
			c0.1,0.1,0.1,0.2,0.1,0.3C971.4,247.4,971.4,247.5,971.4,247.5"/>
		<path clip-path="url(#SVGID_21_)" fill="#FFE29D" d="M969.4,254.3c-0.3,0.2-0.6,0.5-0.7,0.6c-0.1,0.2-0.1,0.3-0.1,0.3
			c0,0,0.5,1.3,0.5,1.3l0,0c0.1,0,0.2,0,0.2,0c0.1-0.1,0.2-0.3,0.2-0.3c0.1-0.3,0.6-2,0.6-2c0-0.1-0.1-0.1-0.1-0.1
			C969.8,254,969.6,254.2,969.4,254.3"/>
		<path clip-path="url(#SVGID_21_)" fill="#FFE29D" d="M970.3,254.1c0,0-0.5,1.7-0.6,1.9c0,0,0.2-0.1,0.4-0.2c0.1,0,0.1-0.1,0.1-0.1
			c0,0,0.2-0.7,0.6-1.4C970.7,254.4,970.7,253.8,970.3,254.1"/>
		<path clip-path="url(#SVGID_21_)" fill="#FFE29D" d="M970.8,254.5c0,0-0.4,0.7-0.5,1.2c0,0,0,0,0,0c0,0,0,0,0.1,0
			c0.1,0,0.2-0.1,0.3-0.1c0.1-0.1,0.2-0.2,0.3-0.3c0,0,0.1-0.1,0.1-0.3l0,0C971.1,254.9,971,254.7,970.8,254.5"/>
		<path clip-path="url(#SVGID_21_)" fill="#FFE29D" d="M968.5,255.5c0,0-0.3,0.3-0.4,0.7l0,0c0,0-0.1,0.2,0,0.3c0,0,0.4,0.7,0.4,0.7
			s0,0.1,0.1,0c0,0,0,0,0,0l0.4-0.3L968.5,255.5"/>
		<path clip-path="url(#SVGID_21_)" fill="#FFE29D" d="M968,256.5c0,0-0.2,0.5-0.3,0.8c0,0-0.1,0.4,0.2,0.4c0,0,0.1,0,0.2-0.1
			c0.1-0.1,0.2-0.2,0.3-0.3C968.4,257.1,968,256.5,968,256.5"/>
	</g>
	<g>
		<defs>
			<path id="SVGID_22_" d="M969.4,254.3c-0.3,0.2-0.6,0.5-0.7,0.6c-0.1,0.2-0.1,0.3-0.1,0.3c0,0,0.5,1.3,0.5,1.3l0,0
				c0.1,0,0.2,0,0.2,0c0.1-0.1,0.2-0.3,0.2-0.3c0.1-0.3,0.6-2,0.6-2c0-0.1-0.1-0.1-0.1-0.1c0,0,0,0-0.1,0
				C969.8,254.1,969.6,254.2,969.4,254.3"/>
		</defs>
		<clipPath id="SVGID_23_">
			<use xlink:href="#SVGID_22_"  overflow="visible"/>
		</clipPath>
		<path clip-path="url(#SVGID_23_)" fill="#FFD788" d="M967.3,257.6c0.5-0.8,1-1.5,1.7-1.9c0.7-0.5,1.5-0.7,2.2-0.5
			c0-0.3,0-0.7-0.2-1c-0.2-0.3-0.4-0.5-0.7-0.5c-0.3-0.1-0.6,0-0.8,0.1c-0.3,0.1-0.5,0.3-0.7,0.6c-0.3,0.3-0.6,0.6-0.9,1.1
			c-0.2,0.4-0.4,0.9-0.4,1.4c0,0.3,0,0.6-0.1,0.8"/>
	</g>
	<g>
		<defs>
			<path id="SVGID_24_" d="M970.3,254.1c0,0-0.5,1.7-0.6,1.9c0,0,0.2-0.1,0.4-0.2c0.1,0,0.1-0.1,0.1-0.1c0,0,0.2-0.7,0.6-1.4
				c0,0,0-0.4-0.2-0.4C970.4,254,970.4,254.1,970.3,254.1"/>
		</defs>
		<clipPath id="SVGID_25_">
			<use xlink:href="#SVGID_24_"  overflow="visible"/>
		</clipPath>
		<path clip-path="url(#SVGID_25_)" fill="#FFD788" d="M967.3,257.6c0.5-0.8,1-1.5,1.7-1.9c0.7-0.5,1.5-0.7,2.2-0.5
			c0-0.3,0-0.7-0.2-1c-0.2-0.3-0.4-0.5-0.7-0.5c-0.3-0.1-0.6,0-0.8,0.1c-0.3,0.1-0.5,0.3-0.7,0.6c-0.3,0.3-0.6,0.6-0.9,1.1
			c-0.2,0.4-0.4,0.9-0.4,1.4c0,0.3,0,0.6-0.1,0.8"/>
	</g>
	<g>
		<defs>
			<path id="SVGID_26_" d="M970.3,255.7C970.3,255.7,970.3,255.7,970.3,255.7c0,0,0.1,0,0.1,0c0.1,0,0.2-0.1,0.3-0.1
				c0.1-0.1,0.2-0.2,0.3-0.3c0,0,0.1-0.1,0.1-0.3l0,0c0,0,0-0.2-0.2-0.4C970.8,254.5,970.4,255.2,970.3,255.7"/>
		</defs>
		<clipPath id="SVGID_27_">
			<use xlink:href="#SVGID_26_"  overflow="visible"/>
		</clipPath>
		<path clip-path="url(#SVGID_27_)" fill="#FFD788" d="M967.3,257.6c0.5-0.8,1-1.5,1.7-1.9c0.7-0.5,1.5-0.7,2.2-0.5
			c0-0.3,0-0.7-0.2-1c-0.2-0.3-0.4-0.5-0.7-0.5c-0.3-0.1-0.6,0-0.8,0.1c-0.3,0.1-0.5,0.3-0.7,0.6c-0.3,0.3-0.6,0.6-0.9,1.1
			c-0.2,0.4-0.4,0.9-0.4,1.4c0,0.3,0,0.6-0.1,0.8"/>
	</g>
	<g>
		<defs>
			<path id="SVGID_28_" d="M968.1,256.1c0,0-0.1,0.2,0,0.3c0,0,0.4,0.7,0.4,0.7s0,0.1,0.1,0c0,0,0,0,0,0l0.4-0.3l-0.5-1.2
				C968.5,255.5,968.2,255.8,968.1,256.1"/>
		</defs>
		<clipPath id="SVGID_29_">
			<use xlink:href="#SVGID_28_"  overflow="visible"/>
		</clipPath>
		<path clip-path="url(#SVGID_29_)" fill="#FFD788" d="M967.3,257.6c0.5-0.8,1-1.5,1.7-1.9c0.7-0.5,1.5-0.7,2.2-0.5
			c0-0.3,0-0.7-0.2-1c-0.2-0.3-0.4-0.5-0.7-0.5c-0.3-0.1-0.6,0-0.8,0.1c-0.3,0.1-0.5,0.3-0.7,0.6c-0.3,0.3-0.6,0.6-0.9,1.1
			c-0.2,0.4-0.4,0.9-0.4,1.4c0,0.3,0,0.6-0.1,0.8"/>
	</g>
	<g>
		<defs>
			<path id="SVGID_30_" d="M967.7,257.3c0,0-0.1,0.4,0.2,0.4c0,0,0.1,0,0.2-0.1c0.1-0.1,0.2-0.2,0.3-0.3c0,0-0.4-0.7-0.4-0.7
				S967.8,257,967.7,257.3"/>
		</defs>
		<clipPath id="SVGID_31_">
			<use xlink:href="#SVGID_30_"  overflow="visible"/>
		</clipPath>
		<path clip-path="url(#SVGID_31_)" fill="#FFD788" d="M967.3,257.6c0.5-0.8,1-1.5,1.7-1.9c0.7-0.5,1.5-0.7,2.2-0.5
			c0-0.3,0-0.7-0.2-1c-0.2-0.3-0.4-0.5-0.7-0.5c-0.3-0.1-0.6,0-0.8,0.1c-0.3,0.1-0.5,0.3-0.7,0.6c-0.3,0.3-0.6,0.6-0.9,1.1
			c-0.2,0.4-0.4,0.9-0.4,1.4c0,0.3,0,0.6-0.1,0.8"/>
	</g>
	<g>
		<defs>
			<rect id="SVGID_32_" x="954.4" y="243.4" width="80.4" height="60.3"/>
		</defs>
		<clipPath id="SVGID_33_">
			<use xlink:href="#SVGID_32_"  overflow="visible"/>
		</clipPath>
		<g clip-path="url(#SVGID_33_)">
			<defs>
				<rect id="SVGID_34_" x="954.4" y="243.4" width="80.4" height="60.3"/>
			</defs>
			<clipPath id="SVGID_35_">
				<use xlink:href="#SVGID_34_"  overflow="visible"/>
			</clipPath>
			
				<line clip-path="url(#SVGID_35_)" fill="none" stroke="#5FA7AA" stroke-width="0.25" stroke-miterlimit="10" x1="978.7" y1="283" x2="978.7" y2="285.9"/>
			
				<line clip-path="url(#SVGID_35_)" fill="none" stroke="#5FA7AA" stroke-width="0.25" stroke-miterlimit="10" x1="981" y1="284.3" x2="981" y2="287.4"/>
			
				<line clip-path="url(#SVGID_35_)" fill="none" stroke="#5FA7AA" stroke-width="0.25" stroke-miterlimit="10" x1="983.4" y1="283.1" x2="983.4" y2="286.3"/>
		</g>
		<g clip-path="url(#SVGID_33_)">
			<defs>
				<polygon id="SVGID_36_" points="980.9,284.6 983.4,286 983.4,283.2 980.9,281.8 				"/>
			</defs>
			<clipPath id="SVGID_37_">
				<use xlink:href="#SVGID_36_"  overflow="visible"/>
			</clipPath>
			
				<rect x="980.8" y="283.9" transform="matrix(0.8688 -0.4951 0.4951 0.8688 -11.7469 523.556)" clip-path="url(#SVGID_37_)" fill="#5FA7AA" width="2.8" height="0.1"/>
		</g>
		<g clip-path="url(#SVGID_33_)">
			<defs>
				<rect id="SVGID_38_" x="954.4" y="243.4" width="80.4" height="60.3"/>
			</defs>
			<clipPath id="SVGID_39_">
				<use xlink:href="#SVGID_38_"  overflow="visible"/>
			</clipPath>
			
				<line clip-path="url(#SVGID_39_)" fill="none" stroke="#5FA7AA" stroke-width="0.25" stroke-miterlimit="10" x1="978.9" y1="280" x2="978.9" y2="283.2"/>
			
				<line clip-path="url(#SVGID_39_)" fill="none" stroke="#5FA7AA" stroke-width="0.25" stroke-miterlimit="10" x1="980.7" y1="279" x2="980.7" y2="282.2"/>
			<polygon clip-path="url(#SVGID_39_)" fill="#83C5CC" points="981.1,278.1 981.1,279 978.6,280.5 978.6,279.6 			"/>
			<polygon clip-path="url(#SVGID_39_)" fill="#EBF6F7" points="978.6,280.5 978.4,280.4 978.4,279.5 978.6,279.6 			"/>
			<polygon clip-path="url(#SVGID_39_)" fill="#BCE5EC" points="978.6,279.6 978.4,279.5 980.9,278 981.1,278.1 			"/>
			<polygon clip-path="url(#SVGID_39_)" fill="#83C5CC" points="981.1,279.3 981.1,280.2 978.6,281.7 978.6,280.8 			"/>
			<polygon clip-path="url(#SVGID_39_)" fill="#EBF6F7" points="978.6,281.7 978.4,281.6 978.4,280.7 978.6,280.8 			"/>
			<polygon clip-path="url(#SVGID_39_)" fill="#BCE5EC" points="978.6,280.8 978.4,280.7 980.9,279.2 981.1,279.3 			"/>
			<polygon clip-path="url(#SVGID_39_)" fill="#BCE5EC" points="983.6,283.1 981.1,284.6 978.5,283.1 981,281.7 			"/>
			<polygon clip-path="url(#SVGID_39_)" fill="#83C5CC" points="983.6,283.1 983.6,283.3 981.1,284.8 981.1,284.6 			"/>
			<polygon clip-path="url(#SVGID_39_)" fill="#EBF6F7" points="981.1,284.6 981.1,284.8 978.5,283.3 978.5,283.1 			"/>
		</g>
		<g clip-path="url(#SVGID_33_)">
			<defs>
				<polygon id="SVGID_40_" points="980.1,287.9 984.1,290.2 984.2,285.5 980.1,283.2 				"/>
			</defs>
			<clipPath id="SVGID_41_">
				<use xlink:href="#SVGID_40_"  overflow="visible"/>
			</clipPath>
			
				<rect x="982.1" y="282.7" transform="matrix(0.8669 -0.4984 0.4984 0.8669 -12.2105 527.6359)" clip-path="url(#SVGID_41_)" fill="#FFD580" width="0.1" height="8"/>
		</g>
		<g clip-path="url(#SVGID_33_)">
			<defs>
				<polygon id="SVGID_42_" points="980.1,287.8 984.1,290.2 984.2,285.5 980.1,283.2 				"/>
			</defs>
			<clipPath id="SVGID_43_">
				<use xlink:href="#SVGID_42_"  overflow="visible"/>
			</clipPath>
			
				<rect x="979.8" y="286.6" transform="matrix(0.8688 -0.4951 0.4951 0.8688 -13.1047 523.8927)" clip-path="url(#SVGID_43_)" fill="#FFD580" width="4.6" height="0.2"/>
		</g>
		<g clip-path="url(#SVGID_33_)">
			<defs>
				<polygon id="SVGID_44_" points="985,285.3 989.1,287.7 989.1,283 985,280.6 				"/>
			</defs>
			<clipPath id="SVGID_45_">
				<use xlink:href="#SVGID_44_"  overflow="visible"/>
			</clipPath>
			
				<rect x="987" y="280.1" transform="matrix(0.8693 -0.4942 0.4942 0.8693 -11.4633 524.9385)" clip-path="url(#SVGID_45_)" fill="#FFD580" width="0.1" height="8"/>
		</g>
		<g clip-path="url(#SVGID_33_)">
			<defs>
				<polygon id="SVGID_46_" points="985,285.3 989.1,287.7 989.1,283 985,280.6 				"/>
			</defs>
			<clipPath id="SVGID_47_">
				<use xlink:href="#SVGID_46_"  overflow="visible"/>
			</clipPath>
			
				<rect x="984.7" y="284.1" transform="matrix(0.8688 -0.4952 0.4952 0.8688 -11.1873 526.0587)" clip-path="url(#SVGID_47_)" fill="#FFD580" width="4.6" height="0.2"/>
		</g>
		<g clip-path="url(#SVGID_33_)">
			<defs>
				<rect id="SVGID_48_" x="954.4" y="243.4" width="80.4" height="60.3"/>
			</defs>
			<clipPath id="SVGID_49_">
				<use xlink:href="#SVGID_48_"  overflow="visible"/>
			</clipPath>
			<polygon clip-path="url(#SVGID_49_)" fill="#FFDD8E" points="989.4,282.9 984.4,285.8 979.4,282.9 984.4,280 			"/>
			<polygon clip-path="url(#SVGID_49_)" fill="#FFBD6A" points="989.4,282.9 989.4,283.3 984.4,286.2 984.4,285.8 			"/>
			<polygon clip-path="url(#SVGID_49_)" fill="#FFF5D4" points="984.4,285.8 984.4,286.2 979.4,283.3 979.4,282.9 			"/>
			
				<line clip-path="url(#SVGID_49_)" fill="none" stroke="#5FA7AA" stroke-width="0.25" stroke-miterlimit="10" x1="984.6" y1="286.6" x2="984.6" y2="289.5"/>
			
				<line clip-path="url(#SVGID_49_)" fill="none" stroke="#5FA7AA" stroke-width="0.25" stroke-miterlimit="10" x1="986.9" y1="287.9" x2="986.9" y2="291"/>
			
				<line clip-path="url(#SVGID_49_)" fill="none" stroke="#5FA7AA" stroke-width="0.25" stroke-miterlimit="10" x1="989.3" y1="286.7" x2="989.3" y2="289.9"/>
		</g>
		<g clip-path="url(#SVGID_33_)">
			<defs>
				<polygon id="SVGID_50_" points="986.8,288.2 989.3,289.6 989.3,286.8 986.8,285.4 				"/>
			</defs>
			<clipPath id="SVGID_51_">
				<use xlink:href="#SVGID_50_"  overflow="visible"/>
			</clipPath>
			
				<rect x="986.7" y="287.5" transform="matrix(0.8688 -0.4952 0.4952 0.8688 -12.7371 527.002)" clip-path="url(#SVGID_51_)" fill="#5FA7AA" width="2.8" height="0.1"/>
		</g>
		<g clip-path="url(#SVGID_33_)">
			<defs>
				<rect id="SVGID_52_" x="954.4" y="243.4" width="80.4" height="60.3"/>
			</defs>
			<clipPath id="SVGID_53_">
				<use xlink:href="#SVGID_52_"  overflow="visible"/>
			</clipPath>
			<polygon clip-path="url(#SVGID_53_)" fill="#BCE5EC" points="989.5,286.7 987,288.2 984.4,286.7 986.9,285.2 			"/>
			<polygon clip-path="url(#SVGID_53_)" fill="#83C5CC" points="989.5,286.7 989.5,286.9 987,288.4 987,288.2 			"/>
			<polygon clip-path="url(#SVGID_53_)" fill="#EBF6F7" points="987,288.2 987,288.4 984.4,286.9 984.4,286.7 			"/>
			<polygon clip-path="url(#SVGID_53_)" fill="#83C5CC" points="989.4,283 989.4,283.9 986.9,285.3 986.9,284.5 			"/>
			<polygon clip-path="url(#SVGID_53_)" fill="#EBF6F7" points="986.9,285.3 986.8,285.2 986.8,284.4 986.9,284.5 			"/>
			<polygon clip-path="url(#SVGID_53_)" fill="#BCE5EC" points="986.9,284.5 986.8,284.4 989.3,282.9 989.4,283 			"/>
			<polygon clip-path="url(#SVGID_53_)" fill="#83C5CC" points="989.4,284.2 989.4,285.1 986.9,286.5 986.9,285.7 			"/>
			<polygon clip-path="url(#SVGID_53_)" fill="#EBF6F7" points="986.9,286.5 986.8,286.4 986.8,285.6 986.9,285.7 			"/>
			<polygon clip-path="url(#SVGID_53_)" fill="#BCE5EC" points="986.9,285.7 986.8,285.6 989.3,284.1 989.4,284.2 			"/>
			
				<line clip-path="url(#SVGID_53_)" fill="none" stroke="#5FA7AA" stroke-width="0.25" stroke-miterlimit="10" x1="987.2" y1="284.9" x2="987.2" y2="288.1"/>
			
				<line clip-path="url(#SVGID_53_)" fill="none" stroke="#5FA7AA" stroke-width="0.25" stroke-miterlimit="10" x1="989" y1="283.9" x2="989" y2="287.1"/>
		</g>
	</g>
	<g>
		<defs>
			<rect id="SVGID_54_" x="950.7" y="257.1" width="80.4" height="60.3"/>
		</defs>
		<clipPath id="SVGID_55_">
			<use xlink:href="#SVGID_54_"  overflow="visible"/>
		</clipPath>
		<g clip-path="url(#SVGID_55_)">
			<defs>
				<rect id="SVGID_56_" x="950.7" y="257.1" width="80.4" height="60.3"/>
			</defs>
			<clipPath id="SVGID_57_">
				<use xlink:href="#SVGID_56_"  overflow="visible"/>
			</clipPath>
			
				<line clip-path="url(#SVGID_57_)" fill="none" stroke="#5FA7AA" stroke-width="0.25" stroke-miterlimit="10" x1="975" y1="296.7" x2="975" y2="299.6"/>
			
				<line clip-path="url(#SVGID_57_)" fill="none" stroke="#5FA7AA" stroke-width="0.25" stroke-miterlimit="10" x1="977.3" y1="298" x2="977.3" y2="301.1"/>
			
				<line clip-path="url(#SVGID_57_)" fill="none" stroke="#5FA7AA" stroke-width="0.25" stroke-miterlimit="10" x1="979.6" y1="296.8" x2="979.6" y2="300"/>
		</g>
		<g clip-path="url(#SVGID_55_)">
			<defs>
				<polygon id="SVGID_58_" points="977.2,298.3 979.6,299.7 979.6,296.9 977.2,295.5 				"/>
			</defs>
			<clipPath id="SVGID_59_">
				<use xlink:href="#SVGID_58_"  overflow="visible"/>
			</clipPath>
			
				<rect x="977" y="297.6" transform="matrix(0.8688 -0.4952 0.4952 0.8688 -19.0065 523.52)" clip-path="url(#SVGID_59_)" fill="#5FA7AA" width="2.8" height="0.1"/>
		</g>
		<g clip-path="url(#SVGID_55_)">
			<defs>
				<rect id="SVGID_60_" x="950.7" y="257.1" width="80.4" height="60.3"/>
			</defs>
			<clipPath id="SVGID_61_">
				<use xlink:href="#SVGID_60_"  overflow="visible"/>
			</clipPath>
			
				<line clip-path="url(#SVGID_61_)" fill="none" stroke="#5FA7AA" stroke-width="0.25" stroke-miterlimit="10" x1="975.1" y1="293.7" x2="975.1" y2="296.8"/>
			
				<line clip-path="url(#SVGID_61_)" fill="none" stroke="#5FA7AA" stroke-width="0.25" stroke-miterlimit="10" x1="976.9" y1="292.7" x2="976.9" y2="295.9"/>
			<polygon clip-path="url(#SVGID_61_)" fill="#83C5CC" points="977.3,291.8 977.3,292.7 974.8,294.1 974.8,293.3 			"/>
			<polygon clip-path="url(#SVGID_61_)" fill="#EBF6F7" points="974.8,294.1 974.6,294 974.6,293.2 974.8,293.3 			"/>
			<polygon clip-path="url(#SVGID_61_)" fill="#BCE5EC" points="974.8,293.3 974.6,293.2 977.1,291.7 977.3,291.8 			"/>
			<polygon clip-path="url(#SVGID_61_)" fill="#83C5CC" points="977.3,293 977.3,293.9 974.8,295.3 974.8,294.5 			"/>
			<polygon clip-path="url(#SVGID_61_)" fill="#EBF6F7" points="974.8,295.3 974.6,295.2 974.6,294.4 974.8,294.5 			"/>
			<polygon clip-path="url(#SVGID_61_)" fill="#BCE5EC" points="974.8,294.5 974.6,294.4 977.1,292.9 977.3,293 			"/>
			<polygon clip-path="url(#SVGID_61_)" fill="#BCE5EC" points="979.8,296.8 977.3,298.3 974.8,296.8 977.3,295.3 			"/>
			<polygon clip-path="url(#SVGID_61_)" fill="#83C5CC" points="979.8,296.8 979.8,297 977.3,298.5 977.3,298.3 			"/>
			<polygon clip-path="url(#SVGID_61_)" fill="#EBF6F7" points="977.3,298.3 977.3,298.5 974.8,297 974.8,296.8 			"/>
		</g>
		<g clip-path="url(#SVGID_55_)">
			<defs>
				<polygon id="SVGID_62_" points="976.3,301.5 980.4,303.9 980.4,299.2 976.3,296.8 				"/>
			</defs>
			<clipPath id="SVGID_63_">
				<use xlink:href="#SVGID_62_"  overflow="visible"/>
			</clipPath>
			
				<rect x="978.3" y="296.4" transform="matrix(0.8672 -0.4979 0.4979 0.8672 -19.6534 527.0346)" clip-path="url(#SVGID_63_)" fill="#FFD580" width="0.1" height="8"/>
		</g>
		<g clip-path="url(#SVGID_55_)">
			<defs>
				<polygon id="SVGID_64_" points="976.3,301.5 980.4,303.9 980.4,299.2 976.3,296.8 				"/>
			</defs>
			<clipPath id="SVGID_65_">
				<use xlink:href="#SVGID_64_"  overflow="visible"/>
			</clipPath>
			
				<rect x="976.1" y="300.3" transform="matrix(0.8688 -0.4951 0.4951 0.8688 -20.3705 523.8297)" clip-path="url(#SVGID_65_)" fill="#FFD580" width="4.6" height="0.2"/>
		</g>
		<g clip-path="url(#SVGID_55_)">
			<defs>
				<polygon id="SVGID_66_" points="981.2,299 985.3,301.4 985.3,296.7 981.2,294.3 				"/>
			</defs>
			<clipPath id="SVGID_67_">
				<use xlink:href="#SVGID_66_"  overflow="visible"/>
			</clipPath>
			
				<rect x="983.2" y="293.8" transform="matrix(0.8693 -0.4942 0.4942 0.8693 -18.7146 524.8717)" clip-path="url(#SVGID_67_)" fill="#FFD580" width="0.1" height="8"/>
		</g>
		<g clip-path="url(#SVGID_55_)">
			<defs>
				<polygon id="SVGID_68_" points="981.2,299 985.3,301.3 985.3,296.7 981.3,294.3 				"/>
			</defs>
			<clipPath id="SVGID_69_">
				<use xlink:href="#SVGID_68_"  overflow="visible"/>
			</clipPath>
			
				<rect x="981" y="297.7" transform="matrix(0.8688 -0.4952 0.4952 0.8688 -18.4539 525.9958)" clip-path="url(#SVGID_69_)" fill="#FFD580" width="4.6" height="0.2"/>
		</g>
		<g clip-path="url(#SVGID_55_)">
			<defs>
				<rect id="SVGID_70_" x="950.7" y="257.1" width="80.4" height="60.3"/>
			</defs>
			<clipPath id="SVGID_71_">
				<use xlink:href="#SVGID_70_"  overflow="visible"/>
			</clipPath>
			<polygon clip-path="url(#SVGID_71_)" fill="#FFDD8E" points="985.7,296.6 980.7,299.5 975.6,296.6 980.6,293.7 			"/>
			<polygon clip-path="url(#SVGID_71_)" fill="#FFBD6A" points="985.7,296.6 985.7,297 980.7,299.9 980.7,299.5 			"/>
			<polygon clip-path="url(#SVGID_71_)" fill="#FFF5D4" points="980.7,299.5 980.7,299.9 975.6,297 975.6,296.6 			"/>
			
				<line clip-path="url(#SVGID_71_)" fill="none" stroke="#5FA7AA" stroke-width="0.25" stroke-miterlimit="10" x1="980.9" y1="300.3" x2="980.9" y2="303.1"/>
			
				<line clip-path="url(#SVGID_71_)" fill="none" stroke="#5FA7AA" stroke-width="0.25" stroke-miterlimit="10" x1="983.2" y1="301.6" x2="983.2" y2="304.7"/>
			
				<line clip-path="url(#SVGID_71_)" fill="none" stroke="#5FA7AA" stroke-width="0.25" stroke-miterlimit="10" x1="985.5" y1="300.4" x2="985.5" y2="303.5"/>
		</g>
		<g clip-path="url(#SVGID_55_)">
			<defs>
				<polygon id="SVGID_72_" points="983.1,301.9 985.5,303.3 985.5,300.5 983.1,299.1 				"/>
			</defs>
			<clipPath id="SVGID_73_">
				<use xlink:href="#SVGID_72_"  overflow="visible"/>
			</clipPath>
			
				<rect x="982.9" y="301.2" transform="matrix(0.8688 -0.4951 0.4951 0.8688 -20.0148 526.8894)" clip-path="url(#SVGID_73_)" fill="#5FA7AA" width="2.8" height="0.1"/>
		</g>
		<g clip-path="url(#SVGID_55_)">
			<defs>
				<rect id="SVGID_74_" x="950.7" y="257.1" width="80.4" height="60.3"/>
			</defs>
			<clipPath id="SVGID_75_">
				<use xlink:href="#SVGID_74_"  overflow="visible"/>
			</clipPath>
			<polygon clip-path="url(#SVGID_75_)" fill="#BCE5EC" points="985.7,300.4 983.2,301.9 980.7,300.4 983.2,298.9 			"/>
			<polygon clip-path="url(#SVGID_75_)" fill="#83C5CC" points="985.7,300.4 985.7,300.6 983.2,302 983.2,301.9 			"/>
			<polygon clip-path="url(#SVGID_75_)" fill="#EBF6F7" points="983.2,301.9 983.2,302 980.7,300.6 980.7,300.4 			"/>
			<polygon clip-path="url(#SVGID_75_)" fill="#83C5CC" points="985.7,296.7 985.7,297.6 983.2,299 983.2,298.1 			"/>
			<polygon clip-path="url(#SVGID_75_)" fill="#EBF6F7" points="983.2,299 983,298.9 983,298 983.2,298.1 			"/>
			<polygon clip-path="url(#SVGID_75_)" fill="#BCE5EC" points="983.2,298.1 983,298 985.5,296.6 985.7,296.7 			"/>
			<polygon clip-path="url(#SVGID_75_)" fill="#83C5CC" points="985.7,297.9 985.7,298.8 983.2,300.2 983.2,299.3 			"/>
			<polygon clip-path="url(#SVGID_75_)" fill="#EBF6F7" points="983.2,300.2 983,300.1 983,299.2 983.2,299.3 			"/>
			<polygon clip-path="url(#SVGID_75_)" fill="#BCE5EC" points="983.2,299.3 983,299.2 985.5,297.8 985.7,297.9 			"/>
			
				<line clip-path="url(#SVGID_75_)" fill="none" stroke="#5FA7AA" stroke-width="0.25" stroke-miterlimit="10" x1="983.5" y1="298.6" x2="983.5" y2="301.8"/>
			
				<line clip-path="url(#SVGID_75_)" fill="none" stroke="#5FA7AA" stroke-width="0.25" stroke-miterlimit="10" x1="985.3" y1="297.6" x2="985.3" y2="300.7"/>
		</g>
	</g>
	<g>
		<defs>
			<rect id="SVGID_76_" x="933.6" y="245.3" width="80.4" height="60.3"/>
		</defs>
		<clipPath id="SVGID_77_">
			<use xlink:href="#SVGID_76_"  overflow="visible"/>
		</clipPath>
		<g clip-path="url(#SVGID_77_)">
			<defs>
				<rect id="SVGID_78_" x="933.6" y="245.3" width="80.4" height="60.3"/>
			</defs>
			<clipPath id="SVGID_79_">
				<use xlink:href="#SVGID_78_"  overflow="visible"/>
			</clipPath>
			
				<line clip-path="url(#SVGID_79_)" fill="none" stroke="#5FA7AA" stroke-width="0.25" stroke-miterlimit="10" x1="957.9" y1="284.9" x2="957.9" y2="287.7"/>
			
				<line clip-path="url(#SVGID_79_)" fill="none" stroke="#5FA7AA" stroke-width="0.25" stroke-miterlimit="10" x1="960.2" y1="286.2" x2="960.2" y2="289.3"/>
			
				<line clip-path="url(#SVGID_79_)" fill="none" stroke="#5FA7AA" stroke-width="0.25" stroke-miterlimit="10" x1="962.6" y1="285" x2="962.6" y2="288.1"/>
		</g>
		<g clip-path="url(#SVGID_77_)">
			<defs>
				<polygon id="SVGID_80_" points="960.1,286.5 962.6,287.9 962.6,285.1 960.1,283.7 				"/>
			</defs>
			<clipPath id="SVGID_81_">
				<use xlink:href="#SVGID_80_"  overflow="visible"/>
			</clipPath>
			
				<rect x="960" y="285.8" transform="matrix(0.8688 -0.4951 0.4951 0.8688 -15.3962 513.4969)" clip-path="url(#SVGID_81_)" fill="#5FA7AA" width="2.8" height="0.1"/>
		</g>
		<g clip-path="url(#SVGID_77_)">
			<defs>
				<rect id="SVGID_82_" x="933.6" y="245.3" width="80.4" height="60.3"/>
			</defs>
			<clipPath id="SVGID_83_">
				<use xlink:href="#SVGID_82_"  overflow="visible"/>
			</clipPath>
			
				<line clip-path="url(#SVGID_83_)" fill="none" stroke="#5FA7AA" stroke-width="0.25" stroke-miterlimit="10" x1="958" y1="281.9" x2="958" y2="285"/>
			
				<line clip-path="url(#SVGID_83_)" fill="none" stroke="#5FA7AA" stroke-width="0.25" stroke-miterlimit="10" x1="959.8" y1="280.9" x2="959.8" y2="284"/>
			<polygon clip-path="url(#SVGID_83_)" fill="#83C5CC" points="960.2,280 960.2,280.9 957.7,282.3 957.7,281.4 			"/>
			<polygon clip-path="url(#SVGID_83_)" fill="#EBF6F7" points="957.7,282.3 957.6,282.2 957.6,281.3 957.7,281.4 			"/>
			<polygon clip-path="url(#SVGID_83_)" fill="#BCE5EC" points="957.7,281.4 957.6,281.3 960.1,279.9 960.2,280 			"/>
			<polygon clip-path="url(#SVGID_83_)" fill="#83C5CC" points="960.2,281.2 960.2,282.1 957.7,283.5 957.7,282.6 			"/>
			<polygon clip-path="url(#SVGID_83_)" fill="#EBF6F7" points="957.7,283.5 957.6,283.4 957.6,282.5 957.7,282.6 			"/>
			<polygon clip-path="url(#SVGID_83_)" fill="#BCE5EC" points="957.7,282.6 957.6,282.5 960.1,281.1 960.2,281.2 			"/>
			<polygon clip-path="url(#SVGID_83_)" fill="#BCE5EC" points="962.8,285 960.2,286.4 957.7,285 960.2,283.5 			"/>
			<polygon clip-path="url(#SVGID_83_)" fill="#83C5CC" points="962.8,285 962.8,285.2 960.2,286.6 960.2,286.4 			"/>
			<polygon clip-path="url(#SVGID_83_)" fill="#EBF6F7" points="960.2,286.4 960.2,286.6 957.7,285.2 957.7,285 			"/>
		</g>
		<g clip-path="url(#SVGID_77_)">
			<defs>
				<polygon id="SVGID_84_" points="959.2,289.7 963.3,292.1 963.3,287.4 959.3,285 				"/>
			</defs>
			<clipPath id="SVGID_85_">
				<use xlink:href="#SVGID_84_"  overflow="visible"/>
			</clipPath>
			
				<rect x="961.2" y="284.5" transform="matrix(0.8664 -0.4994 0.4994 0.8664 -15.6542 518.5789)" clip-path="url(#SVGID_85_)" fill="#FFD580" width="0.1" height="8"/>
		</g>
		<g clip-path="url(#SVGID_77_)">
			<defs>
				<polygon id="SVGID_86_" points="959.3,289.7 963.3,292.1 963.3,287.4 959.3,285 				"/>
			</defs>
			<clipPath id="SVGID_87_">
				<use xlink:href="#SVGID_86_"  overflow="visible"/>
			</clipPath>
			
				<rect x="959" y="288.5" transform="matrix(0.8688 -0.4951 0.4951 0.8688 -16.7568 513.8213)" clip-path="url(#SVGID_87_)" fill="#FFD580" width="4.6" height="0.2"/>
		</g>
		<g clip-path="url(#SVGID_77_)">
			<defs>
				<polygon id="SVGID_88_" points="964.2,287.2 968.3,289.5 968.3,284.8 964.2,282.5 				"/>
			</defs>
			<clipPath id="SVGID_89_">
				<use xlink:href="#SVGID_88_"  overflow="visible"/>
			</clipPath>
			
				<rect x="966.2" y="282" transform="matrix(0.8689 -0.4951 0.4951 0.8689 -14.8792 515.8423)" clip-path="url(#SVGID_89_)" fill="#FFD580" width="0.1" height="8"/>
		</g>
		<g clip-path="url(#SVGID_77_)">
			<defs>
				<polygon id="SVGID_90_" points="964.2,287.2 968.3,289.5 968.3,284.8 964.2,282.5 				"/>
			</defs>
			<clipPath id="SVGID_91_">
				<use xlink:href="#SVGID_90_"  overflow="visible"/>
			</clipPath>
			
				<rect x="963.9" y="285.9" transform="matrix(0.8688 -0.4952 0.4952 0.8688 -14.8382 515.9943)" clip-path="url(#SVGID_91_)" fill="#FFD580" width="4.6" height="0.2"/>
		</g>
		<g clip-path="url(#SVGID_77_)">
			<defs>
				<rect id="SVGID_92_" x="933.6" y="245.3" width="80.4" height="60.3"/>
			</defs>
			<clipPath id="SVGID_93_">
				<use xlink:href="#SVGID_92_"  overflow="visible"/>
			</clipPath>
			<polygon clip-path="url(#SVGID_93_)" fill="#FFDD8E" points="968.6,284.8 963.6,287.7 958.6,284.8 963.6,281.9 			"/>
			<polygon clip-path="url(#SVGID_93_)" fill="#FFBD6A" points="968.6,284.8 968.6,285.2 963.6,288.1 963.6,287.7 			"/>
			<polygon clip-path="url(#SVGID_93_)" fill="#FFF5D4" points="963.6,287.7 963.6,288.1 958.6,285.2 958.6,284.8 			"/>
			
				<line clip-path="url(#SVGID_93_)" fill="none" stroke="#5FA7AA" stroke-width="0.25" stroke-miterlimit="10" x1="963.8" y1="288.5" x2="963.8" y2="291.3"/>
			
				<line clip-path="url(#SVGID_93_)" fill="none" stroke="#5FA7AA" stroke-width="0.25" stroke-miterlimit="10" x1="966.1" y1="289.7" x2="966.1" y2="292.9"/>
			
				<line clip-path="url(#SVGID_93_)" fill="none" stroke="#5FA7AA" stroke-width="0.25" stroke-miterlimit="10" x1="968.5" y1="288.5" x2="968.5" y2="291.7"/>
		</g>
		<g clip-path="url(#SVGID_77_)">
			<defs>
				<polygon id="SVGID_94_" points="966,290.1 968.5,291.5 968.5,288.7 966,287.3 				"/>
			</defs>
			<clipPath id="SVGID_95_">
				<use xlink:href="#SVGID_94_"  overflow="visible"/>
			</clipPath>
			
				<rect x="965.9" y="289.3" transform="matrix(0.8688 -0.4952 0.4952 0.8688 -16.3952 516.9067)" clip-path="url(#SVGID_95_)" fill="#5FA7AA" width="2.8" height="0.1"/>
		</g>
		<g clip-path="url(#SVGID_77_)">
			<defs>
				<rect id="SVGID_96_" x="933.6" y="245.3" width="80.4" height="60.3"/>
			</defs>
			<clipPath id="SVGID_97_">
				<use xlink:href="#SVGID_96_"  overflow="visible"/>
			</clipPath>
			<polygon clip-path="url(#SVGID_97_)" fill="#BCE5EC" points="968.7,288.6 966.1,290 963.6,288.6 966.1,287.1 			"/>
			<polygon clip-path="url(#SVGID_97_)" fill="#83C5CC" points="968.7,288.6 968.7,288.8 966.1,290.2 966.1,290 			"/>
			<polygon clip-path="url(#SVGID_97_)" fill="#EBF6F7" points="966.1,290 966.1,290.2 963.6,288.8 963.6,288.6 			"/>
			<polygon clip-path="url(#SVGID_97_)" fill="#83C5CC" points="968.6,284.9 968.6,285.7 966.1,287.2 966.1,286.3 			"/>
			<polygon clip-path="url(#SVGID_97_)" fill="#EBF6F7" points="966.1,287.2 966,287.1 966,286.2 966.1,286.3 			"/>
			<polygon clip-path="url(#SVGID_97_)" fill="#BCE5EC" points="966.1,286.3 966,286.2 968.5,284.8 968.6,284.9 			"/>
			<polygon clip-path="url(#SVGID_97_)" fill="#83C5CC" points="968.6,286.1 968.6,286.9 966.1,288.4 966.1,287.5 			"/>
			<polygon clip-path="url(#SVGID_97_)" fill="#EBF6F7" points="966.1,288.4 966,288.3 966,287.4 966.1,287.5 			"/>
			<polygon clip-path="url(#SVGID_97_)" fill="#BCE5EC" points="966.1,287.5 966,287.4 968.5,286 968.6,286.1 			"/>
			
				<line clip-path="url(#SVGID_97_)" fill="none" stroke="#5FA7AA" stroke-width="0.25" stroke-miterlimit="10" x1="966.4" y1="286.7" x2="966.4" y2="290"/>
			
				<line clip-path="url(#SVGID_97_)" fill="none" stroke="#5FA7AA" stroke-width="0.25" stroke-miterlimit="10" x1="968.2" y1="285.7" x2="968.2" y2="288.9"/>
		</g>
	</g>
</g>
<g enable-background="new    ">
	<defs>
		<path id="SVGID_115_" enable-background="new    " d="M1096.2,339.6l28.2-16.4c1-0.6,2.5-0.5,4.1,0.4l-28.2,16.4
			C1098.7,339.1,1097.3,339,1096.2,339.6z"/>
	</defs>
	<clipPath id="SVGID_98_">
		<use xlink:href="#SVGID_115_"  overflow="visible"/>
	</clipPath>
	<g clip-path="url(#SVGID_98_)" enable-background="new    ">
		<path fill="#CDE8EF" d="M1096.2,339.6l28.2-16.4c0.6-0.3,1.3-0.5,2.1-0.3l-28.2,16.4C1097.5,339.1,1096.8,339.2,1096.2,339.6"/>
		<path fill="#C5E4ED" d="M1098.4,339.2l28.2-16.4c0.6,0.1,1.2,0.3,1.9,0.7l-28.2,16.4C1099.6,339.6,1098.9,339.3,1098.4,339.2"/>
		<path fill="#BDE0EA" d="M1100.3,340l28.2-16.4c0,0,0,0,0,0L1100.3,340C1100.3,340,1100.3,340,1100.3,340"/>
	</g>
</g>
<g>
	<polygon fill="#DEEFF5" points="1081.7,395.7 1081.7,412 1081,390.6 1081,374.3 	"/>
</g>
<g id="sol">
	<g enable-background="new    ">
		<defs>
			<polygon id="SVGID_125_" enable-background="new    " points="1035.4,394.2 1204.9,295.6 1431.4,427.3 1262.9,525.5 			"/>
		</defs>
		<clipPath id="SVGID_99_">
			<use xlink:href="#SVGID_125_"  overflow="visible"/>
		</clipPath>
		<polyline clip-path="url(#SVGID_99_)" fill="#DBE0B6" points="1431.4,427.3 1204.3,296 1069.9,374.1 1070.1,414.2 1262.9,525.6 
			1431.4,427.3 		"/>
		<path display="none" opacity="0.19" clip-path="url(#SVGID_99_)" fill="#9AA073" d="M1253.3,314.9c-26.5-3.2-42.1-4.6-66.3,6.5
			c-5.9,2.7-12.1,6.5-13.6,12.8c-2.1,9,6.5,16.6,14.2,21.5s4.9,17.4,4,26.5c-0.6,6.4-6.2,11.3-11.9,14.3c-5.8,2.9-12.2,4.7-17.4,8.5
			c-6.1,4.5-9.9,11.4-12.9,18.4c-3,7.2-5.4,9.5-4.7,17.2c0.7,7.7,17.2,10.7,23.8,14.6c23.2,13.9,33.6,21.2,52,30.1
			c22,10.5,28.2,26,52.5,35.7c6.9,2.8,9.7-5,16.3-8.5c7.8-4.1,13-11.6,18-18.9c11.2-16.4,27-16.7,38.2-33
			c8.7-12.7-8.7-47.9,3.5-61.2c10.4-11.4,20.1-26.4,12.8-40c-9.7-18.2-31.1-26.8-51.4-30.2c-20.3-3.4-41.4-3.2-60.8-10.2"/>
	</g>
	<g>
		<polygon fill="#ACD8E5" points="1124.3,360.4 1152.5,344.1 1152.4,366.3 1124.3,382.7 		"/>
	</g>
	<g>
		<polygon fill="#C0E2EB" points="1100.3,340 1128.5,323.6 1146.8,334.2 1118.6,350.5 		"/>
	</g>
	<g>
		<path fill="#E2F1F6" d="M1118.6,350.5c3.2,1.8,5.7,6.3,5.7,9.9l-0.1,22.3l-29.8-17.2l0.1-22.3c0-3.6,2.6-5.1,5.8-3.3L1118.6,350.5
			z"/>
	</g>
	<g enable-background="new    ">
		<defs>
			<path id="SVGID_11_" enable-background="new    " d="M1118.6,350.5l28.2-16.4c3.2,1.8,5.7,6.3,5.7,9.9l-28.2,16.4
				C1124.3,356.8,1121.8,352.4,1118.6,350.5z"/>
		</defs>
		<clipPath id="SVGID_100_">
			<use xlink:href="#SVGID_11_"  overflow="visible"/>
		</clipPath>
		<g clip-path="url(#SVGID_100_)" enable-background="new    ">
			<path fill="#BDE0EA" d="M1118.6,350.5l28.2-16.4c0.6,0.3,1.1,0.7,1.6,1.2l-28.2,16.4C1119.7,351.3,1119.2,350.9,1118.6,350.5"/>
			<path fill="#B4DCE8" d="M1120.2,351.8l28.2-16.4c2.4,2.2,4.1,5.7,4.1,8.7l-28.2,16.4C1124.3,357.5,1122.6,353.9,1120.2,351.8"/>
		</g>
	</g>
	<path fill="#0066AE" d="M1123.7,347.1l-19-11c-2.7-1.6-5.1-0.7-5.7,1.8l0.6-0.3c0.8-1.9,2.8-2.4,5.2-1l19,11
		c3.1,1.8,5.5,6.1,5.5,9.6l-0.1,23.9l0.4,0.2l0.1-23.9C1129.6,353.6,1127,349,1123.7,347.1z"/>
	<path fill="#0066AE" d="M1130.6,343.1l-19-11c-2.7-1.6-5-0.8-5.7,1.8l0.6-0.3c0.8-1.9,2.8-2.4,5.2-1l19,11c3.1,1.8,5.5,6.1,5.5,9.6
		l-0.1,23.9l0.4,0.2l0.1-23.9C1136.5,349.6,1133.9,345,1130.6,343.1z"/>
	<path fill="#0066AE" d="M1137.6,339.1l-19-11c-2.7-1.6-5-0.8-5.7,1.8l0.6-0.3c0.8-1.9,2.8-2.4,5.2-1l19,11c3.1,1.8,5.5,6.1,5.5,9.6
		L1143,373l0.4,0.2l0.1-23.9C1143.5,345.6,1140.8,341,1137.6,339.1z"/>
	<path fill="#0066AE" d="M1144.5,335.1l-19-11c-2.7-1.6-5-0.8-5.7,1.7l0.6-0.3c0.8-1.9,2.8-2.3,5.2-1l19,11c3.1,1.8,5.5,6.1,5.5,9.6
		L1150,369l0.4,0.2l0.1-23.9C1150.4,341.6,1147.7,337,1144.5,335.1z"/>
	<g>
		<polygon fill="#C7E5ED" points="1084,374.3 1084.7,395 1273,503.8 1270.9,505 1081.7,395.7 1081,374.3 		"/>
	</g>
	<g>
		<polygon fill="#ACD8E5" points="1273,503.8 1273,520.1 1270.9,521.3 1270.9,505 		"/>
	</g>
	<g>
		<polygon fill="#E8F4F8" points="1270.9,505 1270.9,521.3 1081.7,412 1081.7,395.7 		"/>
	</g>
</g>
<g>
	<g>
		<linearGradient id="SVGID_101_" gradientUnits="userSpaceOnUse" x1="1259.4746" y1="307.539" x2="1259.4746" y2="349.3364">
			<stop  offset="9.108137e-03" style="stop-color:#000000"/>
			<stop  offset="0.9946" style="stop-color:#F1526B"/>
		</linearGradient>
		<path fill="url(#SVGID_101_)" d="M1261.3,307.5l-0.1,40.8c0,0.3-0.2,0.5-0.5,0.7c-0.7,0.4-1.8,0.4-2.5,0c-0.3-0.2-0.5-0.5-0.5-0.7
			l0.1-40.8c0,0.3,0.2,0.5,0.5,0.7c0.7,0.4,1.8,0.4,2.5,0C1261.1,308.1,1261.3,307.8,1261.3,307.5z"/>
	</g>
	<g>
		<path d="M1260.8,306.8c0.7,0.4,0.7,1.1,0,1.5c-0.7,0.4-1.8,0.4-2.5,0c-0.7-0.4-0.7-1.1,0-1.5
			C1259,306.4,1260.1,306.4,1260.8,306.8z"/>
	</g>
</g>
<g>
	<g>
		<linearGradient id="SVGID_102_" gradientUnits="userSpaceOnUse" x1="1187.0031" y1="376.5215" x2="1187.0031" y2="418.3188">
			<stop  offset="9.108137e-03" style="stop-color:#000000"/>
			<stop  offset="0.9946" style="stop-color:#F1526B"/>
		</linearGradient>
		<path fill="url(#SVGID_102_)" d="M1188.8,376.5l-0.1,40.8c0,0.3-0.2,0.5-0.5,0.7c-0.7,0.4-1.8,0.4-2.5,0c-0.3-0.2-0.5-0.5-0.5-0.7
			l0.1-40.8c0,0.3,0.2,0.5,0.5,0.7c0.7,0.4,1.8,0.4,2.5,0C1188.7,377.1,1188.8,376.8,1188.8,376.5z"/>
	</g>
	<g>
		<path d="M1188.3,375.8c0.7,0.4,0.7,1.1,0,1.5c-0.7,0.4-1.8,0.4-2.5,0c-0.7-0.4-0.7-1.1,0-1.5
			C1186.5,375.4,1187.6,375.4,1188.3,375.8z"/>
	</g>
</g>
<g>
	<g>
		<linearGradient id="SVGID_103_" gradientUnits="userSpaceOnUse" x1="1200.8392" y1="401.0049" x2="1200.8392" y2="442.8022">
			<stop  offset="9.108137e-03" style="stop-color:#000000"/>
			<stop  offset="0.9946" style="stop-color:#F1526B"/>
		</linearGradient>
		<path fill="url(#SVGID_103_)" d="M1202.7,401l-0.1,40.8c0,0.3-0.2,0.5-0.5,0.7c-0.7,0.4-1.8,0.4-2.5,0c-0.3-0.2-0.5-0.5-0.5-0.7
			l0.1-40.8c0,0.3,0.2,0.5,0.5,0.7c0.7,0.4,1.8,0.4,2.5,0C1202.5,401.5,1202.7,401.3,1202.7,401z"/>
	</g>
	<g>
		<path d="M1202.2,400.3c0.7,0.4,0.7,1.1,0,1.5c-0.7,0.4-1.8,0.4-2.5,0c-0.7-0.4-0.7-1.1,0-1.5
			C1200.3,399.9,1201.5,399.9,1202.2,400.3z"/>
	</g>
</g>
<g>
	<g>
		<linearGradient id="SVGID_104_" gradientUnits="userSpaceOnUse" x1="1332.2051" y1="355.8144" x2="1332.2051" y2="397.6117">
			<stop  offset="9.108137e-03" style="stop-color:#000000"/>
			<stop  offset="0.9946" style="stop-color:#F1526B"/>
		</linearGradient>
		<path fill="url(#SVGID_104_)" d="M1334,355.8l-0.1,40.8c0,0.3-0.2,0.5-0.5,0.7c-0.7,0.4-1.8,0.4-2.5,0c-0.3-0.2-0.5-0.5-0.5-0.7
			l0.1-40.8c0,0.3,0.2,0.5,0.5,0.7c0.7,0.4,1.8,0.4,2.5,0C1333.9,356.3,1334,356.1,1334,355.8z"/>
	</g>
	<g>
		<path d="M1333.5,355.1c0.7,0.4,0.7,1.1,0,1.5c-0.7,0.4-1.8,0.4-2.5,0c-0.7-0.4-0.7-1.1,0-1.5
			C1331.7,354.7,1332.8,354.7,1333.5,355.1z"/>
	</g>
</g>
<g>
	<g>
		<linearGradient id="SVGID_105_" gradientUnits="userSpaceOnUse" x1="1253.0414" y1="406.489" x2="1253.0414" y2="448.2863">
			<stop  offset="9.108137e-03" style="stop-color:#000000"/>
			<stop  offset="0.9946" style="stop-color:#F1526B"/>
		</linearGradient>
		<path fill="url(#SVGID_105_)" d="M1254.9,406.5l-0.1,40.8c0,0.3-0.2,0.5-0.5,0.7c-0.7,0.4-1.8,0.4-2.5,0c-0.3-0.2-0.5-0.5-0.5-0.7
			l0.1-40.8c0,0.3,0.2,0.5,0.5,0.7c0.7,0.4,1.8,0.4,2.5,0C1254.7,407,1254.9,406.8,1254.9,406.5z"/>
	</g>
	<g>
		<path d="M1254.4,405.8c0.7,0.4,0.7,1.1,0,1.5c-0.7,0.4-1.8,0.4-2.5,0c-0.7-0.4-0.7-1.1,0-1.5
			C1252.5,405.4,1253.7,405.4,1254.4,405.8z"/>
	</g>
</g>
<g>
	<g>
		<linearGradient id="SVGID_106_" gradientUnits="userSpaceOnUse" x1="1284.545" y1="419.9695" x2="1284.545" y2="461.7669">
			<stop  offset="9.108137e-03" style="stop-color:#000000"/>
			<stop  offset="0.9946" style="stop-color:#F1526B"/>
		</linearGradient>
		<path fill="url(#SVGID_106_)" d="M1286.4,420l-0.1,40.8c0,0.3-0.2,0.5-0.5,0.7c-0.7,0.4-1.8,0.4-2.5,0c-0.3-0.2-0.5-0.5-0.5-0.7
			l0.1-40.8c0,0.3,0.2,0.5,0.5,0.7c0.7,0.4,1.8,0.4,2.5,0C1286.2,420.5,1286.4,420.2,1286.4,420z"/>
	</g>
	<g>
		<path d="M1285.9,419.2c0.7,0.4,0.7,1.1,0,1.5c-0.7,0.4-1.8,0.4-2.5,0c-0.7-0.4-0.7-1.1,0-1.5
			C1284,418.8,1285.2,418.8,1285.9,419.2z"/>
	</g>
</g>
<g>
	<g>
		<linearGradient id="SVGID_107_" gradientUnits="userSpaceOnUse" x1="1334.2207" y1="418.7736" x2="1334.2207" y2="460.5709">
			<stop  offset="9.108137e-03" style="stop-color:#000000"/>
			<stop  offset="0.9946" style="stop-color:#F1526B"/>
		</linearGradient>
		<path fill="url(#SVGID_107_)" d="M1336.1,418.8l-0.1,40.8c0,0.3-0.2,0.5-0.5,0.7c-0.7,0.4-1.8,0.4-2.5,0c-0.3-0.2-0.5-0.5-0.5-0.7
			l0.1-40.8c0,0.3,0.2,0.5,0.5,0.7c0.7,0.4,1.8,0.4,2.5,0C1335.9,419.3,1336.1,419,1336.1,418.8z"/>
	</g>
	<g>
		<path d="M1335.5,418c0.7,0.4,0.7,1.1,0,1.5c-0.7,0.4-1.8,0.4-2.5,0c-0.7-0.4-0.7-1.1,0-1.5C1333.7,417.6,1334.8,417.6,1335.5,418z
			"/>
	</g>
</g>
<g>
	<g>
		<linearGradient id="SVGID_108_" gradientUnits="userSpaceOnUse" x1="1227.9707" y1="321.8686" x2="1227.9707" y2="363.6659">
			<stop  offset="9.108137e-03" style="stop-color:#000000"/>
			<stop  offset="0.9946" style="stop-color:#F1526B"/>
		</linearGradient>
		<path fill="url(#SVGID_108_)" d="M1229.8,321.9l-0.1,40.8c0,0.3-0.2,0.5-0.5,0.7c-0.7,0.4-1.8,0.4-2.5,0c-0.3-0.2-0.5-0.5-0.5-0.7
			l0.1-40.8c0,0.3,0.2,0.5,0.5,0.7c0.7,0.4,1.8,0.4,2.5,0C1229.6,322.4,1229.8,322.1,1229.8,321.9z"/>
	</g>
	<g>
		<path d="M1229.3,321.1c0.7,0.4,0.7,1.1,0,1.5c-0.7,0.4-1.8,0.4-2.5,0c-0.7-0.4-0.7-1.1,0-1.5
			C1227.5,320.7,1228.6,320.7,1229.3,321.1z"/>
	</g>
</g>
<g>
	<g>
		<linearGradient id="SVGID_109_" gradientUnits="userSpaceOnUse" x1="1303.903" y1="386.3838" x2="1303.903" y2="409.2233">
			<stop  offset="9.108137e-03" style="stop-color:#000000"/>
			<stop  offset="0.9946" style="stop-color:#F1526B"/>
		</linearGradient>
		<path fill="url(#SVGID_109_)" d="M1305.7,386.4l-0.1,21.8c0,0.1-0.1,0.6-0.5,0.7c-1,0.5-1.5,0.5-2.5,0c-0.3-0.1-0.6-0.5-0.6-0.7
			l0.1-21.8c0,0.1,0.2,0.3,0.5,0.4c0.7,0.2,1.8,0.2,2.5,0C1305.6,386.7,1305.7,386.5,1305.7,386.4z"/>
	</g>
	<g>
		<path d="M1305.2,385.7c0.7,0.4,0.7,1.1,0,1.5c-0.7,0.4-1.8,0.4-2.5,0c-0.7-0.4-0.7-1.1,0-1.5
			C1303.4,385.2,1304.5,385.2,1305.2,385.7z"/>
	</g>
</g>
<g>
	<g>
		<linearGradient id="SVGID_110_" gradientUnits="userSpaceOnUse" x1="1216.376" y1="351.8491" x2="1216.376" y2="374.6886">
			<stop  offset="9.108137e-03" style="stop-color:#000000"/>
			<stop  offset="0.9946" style="stop-color:#F1526B"/>
		</linearGradient>
		<path fill="url(#SVGID_110_)" d="M1218.2,351.9l-0.1,21.8c0,0.1-0.1,0.6-0.5,0.7c-1,0.5-1.5,0.5-2.5,0c-0.3-0.1-0.6-0.5-0.6-0.7
			l0.1-21.8c0,0.1,0.2,0.3,0.5,0.4c0.7,0.2,1.8,0.2,2.5,0C1218,352.1,1218.2,352,1218.2,351.9z"/>
	</g>
	<g>
		<path d="M1217.7,351.1c0.7,0.4,0.7,1.1,0,1.5c-0.7,0.4-1.8,0.4-2.5,0c-0.7-0.4-0.7-1.1,0-1.5
			C1215.9,350.7,1217,350.7,1217.7,351.1z"/>
	</g>
</g>
<g>
	<g>
		<linearGradient id="SVGID_111_" gradientUnits="userSpaceOnUse" x1="1201.8085" y1="316.947" x2="1201.8085" y2="339.7866">
			<stop  offset="9.108137e-03" style="stop-color:#000000"/>
			<stop  offset="0.9946" style="stop-color:#F1526B"/>
		</linearGradient>
		<path fill="url(#SVGID_111_)" d="M1203.7,317l-0.1,21.8c0,0.1-0.1,0.6-0.5,0.7c-1,0.5-1.5,0.5-2.5,0c-0.3-0.1-0.6-0.5-0.6-0.7
			l0.1-21.8c0,0.1,0.2,0.3,0.5,0.4c0.7,0.2,1.8,0.2,2.5,0C1203.5,317.2,1203.7,317.1,1203.7,317z"/>
	</g>
	<g>
		<path d="M1203.1,316.2c0.7,0.4,0.7,1.1,0,1.5c-0.7,0.4-1.8,0.4-2.5,0c-0.7-0.4-0.7-1.1,0-1.5
			C1201.3,315.8,1202.4,315.8,1203.1,316.2z"/>
	</g>
</g>
<g>
	<g>
		<path d="M1258.9,372.4c0.7,0.4,0.7,1.1,0,1.5c-0.7,0.4-1.8,0.4-2.5,0c-0.7-0.4-0.7-1.1,0-1.5C1257.1,372,1258.2,372,1258.9,372.4z
			"/>
	</g>
	<ellipse fill="#F1526B" cx="1257.7" cy="387.8" rx="1.8" ry="1.2"/>
	<g>
		
			<linearGradient id="SVGID_112_" gradientUnits="userSpaceOnUse" x1="1257.703" y1="373.1375" x2="1257.703" y2="388.0031" gradientTransform="matrix(1 -8.265351e-03 8.265351e-03 1 -3.1155 10.4078)">
			<stop  offset="9.108137e-03" style="stop-color:#000000"/>
			<stop  offset="0.9946" style="stop-color:#F1526B"/>
		</linearGradient>
		<path fill="url(#SVGID_112_)" d="M1259.5,373.1l0,14.6c0,0.1-0.5-0.5-1,0c-0.9,0.3-0.9,0.4-1.8,0.1c-0.4-0.3-0.8,0.1-0.8,0l0-14.6
			c0,0.1,0.2,0.2,0.5,0.3c0.7,0.1,1.8,0.1,2.5,0C1259.3,373.3,1259.5,373.2,1259.5,373.1z"/>
	</g>
</g>
<g>
	<polygon fill="#43A4C9" points="1097.8,317.5 1097.8,320.7 1056.7,344.6 1056.7,341.4 	"/>
</g>
<g>
	<polygon fill="#EDF6F9" points="1056.6,341.4 1056.6,344.7 1023.4,325.4 1023.4,322.1 	"/>
</g>
</svg>
