<svg version="1.1" xmlns="http://www.w3.org/2000/svg" xmlns:xlink="http://www.w3.org/1999/xlink" x="0px" y="0px"
	 viewBox="0 0 1024 768" enable-background="new 0 0 1024 768" xml:space="preserve">
    <g display="inline">
        <g enable-background="new">
            <g>
                <polygon fill="#21C18C" points="685.9,85.8 686.6,308.3 609.4,352.9 608.8,130.3"/>
            </g>
            <g>
                <polygon fill="#178561" points="609.4,352.9 531.9,307.8 531.3,85.3 608.8,130.3"/>
            </g>
            <g>
                <polygon fill="#25D69C" points="608.8,130.3 531.3,85.3 608.4,40.7 685.9,85.8"/>
            </g>
        </g>
    </g>
    <g display="inline">
        <g enable-background="new">
            <g>
                <polygon fill="#21C18C" points="752.9,179.6 753.4,347.1 676.2,391.6 675.7,224.1"/>
            </g>
            <g>
                <polygon fill="#178561" points="676.2,391.6 608.9,352.5 608.5,185 675.7,224.1"/>
            </g>
            <g>
                <polygon fill="#25D69C" points="675.7,224.1 608.5,185 685.6,140.5 752.9,179.6"/>
            </g>
        </g>
    </g>
    <g display="inline">
        <g enable-background="new">
            <g>
                <polygon fill="#21C18C" points="806.5,272.3 806.8,378.2 729.6,422.8 729.3,316.9"/>
            </g>
            <g>
                <polygon fill="#178561" points="729.6,422.8 676.1,391.7 675.8,285.8 729.3,316.9"/>
            </g>
            <g>
                <polygon fill="#25D69C" points="729.3,316.9 675.8,285.8 753,241.2 806.5,272.3"/>
            </g>
        </g>
    </g>
    <g display="inline">
        <g enable-background="new">
            <defs>
                <polygon id="SVGID_1_" enable-background="new" points="457.3,351.4 532.1,307.9 607.4,351.4 532.6,394.9 				"/>
            </defs>
            <clipPath id="SVGID_2_">
                <use xlinkHref="#SVGID_1_"  overflow="visible"/>
            </clipPath>
            <g clip-path="url(#SVGID_2_)">
                <polyline fill="#282828" points="607.4,351.4 532.1,307.9 457.3,351.4 532.6,394.9 607.4,351.4"/>
            </g>
        </g>
    </g>
    <g display="inline">
        <g enable-background="new">
            <defs>
                <polygon id="SVGID_3_" enable-background="new" points="382.5,394.8 457.3,351.3 532.7,394.8 457.8,438.3 				"/>
            </defs>
            <clipPath id="SVGID_4_">
                <use xlinkHref="#SVGID_3_"  overflow="visible"/>
            </clipPath>
            <g clip-path="url(#SVGID_4_)">
                <polyline fill="#282828" points="532.7,394.8 457.3,351.3 382.5,394.8 457.8,438.3 532.7,394.8"/>
            </g>
        </g>
    </g>
    <g display="inline">
        <g enable-background="new">
            <defs>
                <polygon id="SVGID_5_" enable-background="new" points="531.4,394.5 606.3,351 681.6,394.5 606.8,438 				"/>
            </defs>
            <clipPath id="SVGID_6_">
                <use xlinkHref="#SVGID_5_"  overflow="visible"/>
            </clipPath>
            <g clip-path="url(#SVGID_6_)">
                <polyline fill="#282828" points="681.6,394.5 606.3,351 531.4,394.5 606.8,438 681.6,394.5"/>
            </g>
        </g>
    </g>
    <g display="inline">
        <g enable-background="new">
            <defs>
                <polygon id="SVGID_7_" enable-background="new" points="474.2,428.4 532.5,394.5 591.2,428.4 532.9,462.3 				"/>
            </defs>
            <clipPath id="SVGID_8_">
                <use xlinkHref="#SVGID_7_"  overflow="visible"/>
            </clipPath>
            <g clip-path="url(#SVGID_8_)">
                <polyline fill="#282828" points="591.2,428.4 532.5,394.5 474.2,428.4 532.9,462.3 591.2,428.4"/>
            </g>
        </g>
    </g>
    <g display="inline">
        <g enable-background="new">
            <defs>
                <polygon id="SVGID_9_" enable-background="new" points="579.9,422.5 654.8,379 730.1,422.5 655.3,465.9 				"/>
            </defs>
            <clipPath id="SVGID_10_">
                <use xlinkHref="#SVGID_9_"  overflow="visible"/>
            </clipPath>
            <g clip-path="url(#SVGID_10_)">
                <polyline fill="#282828" points="730.1,422.5 654.8,379 579.9,422.5 655.3,465.9 730.1,422.5"/>
            </g>
        </g>
    </g>
</svg>
