<?xml version="1.0" encoding="utf-8"?>
<!-- Generator: Adobe Illustrator 18.1.0, SVG Export Plug-In . SVG Version: 6.00 Build 0)  -->
<svg version="1.1" id="Calque_1" xmlns="http://www.w3.org/2000/svg" xmlns:xlink="http://www.w3.org/1999/xlink" x="0px" y="0px"
	 viewBox="0 0 1440 875.8" enable-background="new 0 0 1440 875.8" xml:space="preserve">
<g>
	<polygon fill="#0066AE" points="1431.4,427.9 1431.3,452.4 722.3,864.4 722.4,840 	"/>
</g>
<g>
	<polygon fill="#E7F1F2" points="722.4,840 722.3,864.4 8.6,452.4 10.9,426.6 	"/>
</g>
<g enable-background="new    ">
	<defs>
		<polygon id="SVGID_13_" enable-background="new    " points="8.7,427.9 718.6,15.7 1431.4,427.9 722.4,840 		"/>
	</defs>
	<clipPath id="SVGID_1_">
		<use xlink:href="#SVGID_13_"  overflow="visible"/>
	</clipPath>
	<polyline clip-path="url(#SVGID_1_)" fill="#BCE5EC" points="1432.3,427.8 718.6,15.7 8.7,427.9 722.4,840 1432.3,427.8 	"/>
</g>
<polygon fill="#FFF3DC" points="8.7,427.9 8.6,452.4 297.5,619.2 297.6,594 "/>
<g>
	<g enable-background="new    ">
		<defs>
			<polygon id="SVGID_497_" enable-background="new    " points="8.8,428 718.3,15.6 1432.3,427.8 722.9,840.3 			"/>
		</defs>
		<clipPath id="SVGID_2_">
			<use xlink:href="#SVGID_497_"  overflow="visible"/>
		</clipPath>
		<g clip-path="url(#SVGID_2_)">
			<path fill="#0066AE" d="M437.3,458.3l-14.2-8.2l-0.2,0.1l14.2,8.2L437.3,458.3 M627.9,347.5l-14.2-8.2l-8.8,5.1L432.7,444.5
				l-8.8,5.1l14.2,8.2l8.8-5.1l172.2-100.1L627.9,347.5"/>
			<g>
				<path fill="#0066AE" d="M1399.1,446.7l18.3-10.6L1040,218.2l14.3-8.3l-8.8-5.1l-135.2,78.6l-0.7-0.4l135.2-78.6l-8.9-5.1
					l-15.6,9.1l-189.9-110l-88.9,0l-76.6,44.5l-83-47.9l-18.3,10.6L881.3,289L714,386.2L528.8,279.3l70.5-41l-7.1-4.1l-70.5,41
					l-125.6-72.5l-8.8,5.1l125.6,72.5l7.1,4.1l185,106.8l-0.7,0.4l-76.5-44.2l-8.8,5.1l76.6,44.2L523.5,497l-76.6-44.2l-8.8,5.1
					l75.5,43.6l-0.7,0.4L423,450.2l0.2-0.1L196.1,319l0.7-0.4l227,131.1l8.8-5.1l-227-131.1l-18.3,10.6l90.8,52.4l-78.6,45.7
					l7.1,4.1l78.6-45.7l219.9,127L326.5,611.4l18.7,10.8l178.4-103.9L901,736.2l8.8-5.1l-375-216.5l0.7-0.4l375,216.5l8.8-5.1
					L634.8,561.3l52.6-30.6L594.5,477l119.6-69.5L1092,625.7l8.8-5.1L724.2,403.2l0.7-0.4l376.5,217.4l8.8-5.1L732.4,396.9
					l167.3-97.2l116.4,67.2l-0.1,49.3l219,126.3l8.7-5l-215.2-124.3l0-0.1l0.1-49.2l-120-69.3l-1.6-0.9l0.7-0.4l1.6,0.9l120.3,69.5
					l0,0.1l-0.1,49.2l215,124l8.7-5.1L1042,410l0.1-49.3l-124-71.6l103.6-60.2L1399.1,446.7z M336.6,616.6l-0.7-0.4l177.7-103.3
					l0.7,0.4L336.6,616.6z M664.8,530.7l-41.4,24l-81.5-47.1l41.4-24L664.8,530.7z M585.7,471.9l-11.3,6.6l-39.6,23l-0.7-0.4
					l170.4-99l0.7,0.4L585.7,471.9z M745.6,104.1l80.6,0l80.7,46.8l-113.7,66.1l-121.3-70L745.6,104.1z M572.3,100.4l0.7-0.4
					l316.9,183l-0.7,0.4L572.3,100.4z M724.2,391.4l-0.7-0.4l166.3-96.7l0.7,0.4L724.2,391.4z M899.6,278.4L800.3,221L914,154.9
					l99.2,57.4L899.6,278.4z"/>
				<rect x="387" y="207.7" fill="#0066AE" width="0" height="0.8"/>
				<polygon fill="#0066AE" points="604.9,344.5 613.7,339.3 519.3,284.9 512.2,280.8 386.7,208.3 377.9,213.4 				"/>
			</g>
			<polyline fill="#FFFFFF" points="1029.6,363.6 909.3,294.1 907.7,293.2 907,293.6 908.5,294.5 1028.6,363.9 1028.5,413.1 
				1028.5,413.2 1243.3,537.2 1244,536.8 1029.5,413 1029.6,363.7 1029.6,363.6 			"/>
			<polyline fill="#FFFFFF" points="889.9,283 573,100 572.3,100.4 889.2,283.4 889.9,283 			"/>
			<polyline fill="#FFFFFF" points="910.5,730.7 535.5,514.1 534.8,514.6 909.8,731.1 910.5,730.7 			"/>
			<polyline fill="#FFFFFF" points="513.5,501.4 438,457.9 423.9,449.7 294.7,375.1 287.6,371 196.8,318.6 196.1,319 286.9,371.4 
				294,375.5 423.2,450.1 437.3,458.3 512.8,501.9 513.5,501.4 			"/>
			<polyline fill="#FFFFFF" points="1101,619.9 724.9,402.8 724.2,403.2 1100.3,620.3 1101,619.9 			"/>
			<polyline fill="#FFFFFF" points="705.1,391.3 520,284.5 512.9,280.4 387.4,207.9 386.7,208.3 512.2,280.8 519.3,284.9 
				613.7,339.3 627.9,347.5 704.4,391.7 705.1,391.3 			"/>
			<polyline fill="#FFFFFF" points="1045.7,204.6 1045.2,204.1 909.7,282.8 910.3,283.3 1045.7,204.6 			"/>
			<polyline fill="#FFFFFF" points="890.5,294.7 889.8,294.3 723.5,391 724.2,391.4 890.5,294.7 			"/>
			<polyline fill="#FFFFFF" points="705.2,402.5 704.5,402.1 534.1,501.1 534.8,501.5 574.4,478.5 585.7,471.9 705.2,402.5 			"/>
			<polyline fill="#FFFFFF" points="514.4,513.3 513.7,512.9 335.9,616.2 336.6,616.6 514.4,513.3 			"/>
		</g>
	</g>
</g>
</svg>
