<svg xmlns="http://www.w3.org/2000/svg" x="0px" y="0px" xmlns:xlink="http://www.w3.org/1999/xlink" viewBox="0 0 1440 875.8">
  <path fill="#FFBD6A" d="M383.6 147.5l17.6-10.2-.3 98.6-17.6 10.3"/>
  <path fill="#FFD684" d="M373.5 127.7l17.6-10.3 10.1 19.9-17.6 10.2"/>
  <path fill="#FFF5D4" d="M373.5 127.7l10.1 19.8-.3 98.7-33.4-19.3.1-53.7 5.8-15.1.2-71.6 17.7 10.2"/>
  <path fill="#FFDD8E" d="M356 86.5l17.6-10.2 17.7 10.2-17.6 10.2"/>
  <path fill="#FFBD6A" d="M373.7 96.7l17.6-10.2-.2 30.9-17.6 10.3"/>
  <defs>
    <path id="a" d="M358.1 197.7l.3-103.7 12.4 7.1-.3 103.8z"/>
  </defs>
  <clipPath id="b">
    <use xlink:href="#a" overflow="visible"/>
  </clipPath>
  <path fill="#FFF" d="M370.8 101.1L358.4 94l-.3 103.7 12.4 7.2.3-103.8" clip-path="url(#b)"/>
  <defs>
    <path id="c" d="M372.9 167.3l.1-32.6 7.9 4.6-.1 32.5z"/>
  </defs>
  <clipPath id="d">
    <use xlink:href="#c" overflow="visible"/>
  </clipPath>
  <path fill="#FFF" d="M373 134.7l-.1 32.6 7.9 4.5.1-21.4-7.9-15.7" clip-path="url(#d)"/>
  <defs>
    <path id="e" d="M372.9 202.4l.1-32.6 7.9 4.6-.1 32.5z"/>
  </defs>
  <clipPath id="f">
    <use xlink:href="#e" overflow="visible"/>
  </clipPath>
  <path fill="#FFF" d="M373 169.8l-.1 32.6 7.9 4.5.1-32.5-7.9-4.6" clip-path="url(#f)"/>
  <path fill="#FFBD6A" d="M403.1 271.1v4.9c0 3.2-2.1 6.4-6.3 8.9-8.5 4.9-22.3 4.9-30.8 0-4.3-2.5-6.4-5.7-6.4-9V271c0 3.3 2.1 6.5 6.4 9 8.5 4.9 22.3 4.9 30.8 0 4.2-2.5 6.3-5.7 6.3-8.9z"/>
  <path fill="#FFD789" d="M396.7 262.1c8.5 4.9 8.6 12.9.1 17.9-8.5 4.9-22.3 4.9-30.8 0s-8.6-12.9-.1-17.8c8.5-5.1 22.3-5.1 30.8-.1z"/>
  <defs>
    <path id="g" d="M353.4 271.5l27.8-16.2 28.1 16.2-27.9 16.2z"/>
  </defs>
  <clipPath id="h">
    <use xlink:href="#g" overflow="visible"/>
  </clipPath>
  <path fill="#FFD176" d="M395.3 263.4c-7.8-4.5-20.3-4.5-28 0-7.7 4.5-7.7 11.7.1 16.2s20.3 4.5 28 0c7.7-4.5 7.6-11.7-.1-16.2" clip-path="url(#h)"/>
  <path fill="#F1526B" d="M367.3 267.9c7.7-4.5 20.2-4.5 28 0 2.9 1.7 4.7 3.7 5.4 5.9 1.3-3.6-.6-7.6-5.4-10.4-7.8-4.5-20.3-4.5-28 0-4.8 2.8-6.6 6.7-5.4 10.3.8-2.1 2.6-4.1 5.4-5.8z"/>
  <path fill="#43A4C9" d="M361.8 273.4c.7 2.2 2.5 4.4 5.5 6.1 7.8 4.5 20.3 4.5 28 0 3-1.7 4.8-3.8 5.4-6.1-.7-2.3-2.5-4.4-5.5-6.2-7.8-4.5-20.3-4.5-28 0-3 1.9-4.8 4-5.4 6.2z"/>
  <path fill="#FFD789" d="M408 178l17.6-10.2 12.9 21.5-17.6 10.2"/>
  <path fill="#FFBD6A" d="M420.9 199.5l17.6-10.2-.2 71.7-17.6 10.3"/>
  <path fill="#FFF5D4" d="M402.3 158.4L408 178l12.9 21.5-.2 71.8-30.6-17.7.3-102.1"/>
  <path fill="#FFBD6A" d="M402.3 158.4l17.7-10.2 5.6 19.6L408 178"/>
  <path fill="#FFDD8E" d="M390.4 151.5l17.6-10.2 12 6.9-17.7 10.2"/>
  <path fill="#97D2E8" d="M400.3 196.5l13.1 7.5-7.4 4.3-13.1-7.5"/>
  <path fill="#43A4C9" d="M413.4 204l-.1 8.2-7.3 4.3v-8.2"/>
  <path fill="#E4F2F7" d="M406 208.3v8.2l-13.1-7.6v-8.1"/>
  <defs>
    <path id="i" d="M392.7 202.8l7.5-4.4 13.3 7.7-7.5 4.4z"/>
  </defs>
  <clipPath id="j">
    <use xlink:href="#i" overflow="visible"/>
  </clipPath>
  <path fill="#0066AE" d="M413.5 206.1l-.2-.1-7.3 4.3-13.1-7.6-.2.1 13.3 7.7 7.5-4.4" clip-path="url(#j)"/>
  <defs>
    <path id="k" d="M392.7 204.8l7.5-4.4 13.3 7.7-7.5 4.4z"/>
  </defs>
  <clipPath id="l">
    <use xlink:href="#k" overflow="visible"/>
  </clipPath>
  <path fill="#0066AE" d="M413.5 208.1l-.2-.1-7.3 4.3-13.1-7.6-.2.1 13.3 7.7 7.5-4.4" clip-path="url(#l)"/>
  <defs>
    <path id="m" d="M392.7 206.8l7.5-4.4 13.3 7.7-7.5 4.4z"/>
  </defs>
  <clipPath id="n">
    <use xlink:href="#m" overflow="visible"/>
  </clipPath>
  <path fill="#0066AE" d="M413.5 210.1l-.2-.1-7.3 4.3-13.1-7.6-.2.1 13.3 7.7 7.5-4.4" clip-path="url(#n)"/>
  <defs>
    <path id="o" d="M398.8 258.7l.1-9.4 10.5 6.1v9.4z"/>
  </defs>
  <clipPath id="p">
    <use xlink:href="#o" overflow="visible"/>
  </clipPath>
  <path fill="#F59680" d="M403.4 252l-4.5-2.7-.1 9.4 4.6 2.7V252m6 3.4l-4.6-2.6v9.4l4.6 2.6v-9.4" clip-path="url(#p)"/>
  <defs>
    <path id="q" d="M424.1 258l-.1-56 12.1-6.9.1 55.9z"/>
  </defs>
  <clipPath id="r">
    <use xlink:href="#q" overflow="visible"/>
  </clipPath>
  <path fill="#FFF" d="M436.1 195.1L424 202l.1 56 12.1-7-.1-55.9" clip-path="url(#r)"/>
  <defs>
    <path id="s" d="M425.5 255.7l-.1-39.7 8.5-4.9.1 39.6z"/>
  </defs>
  <clipPath id="t">
    <use xlink:href="#s" overflow="visible"/>
  </clipPath>
  <path fill="#CEDA91" d="M425.4 216l.1 39.7 8.5-5-8.6-34.7" clip-path="url(#t)"/>
  <defs>
    <path id="u" d="M428.5 217.4l-.1-6.9 6.1-3.4v6.9z"/>
  </defs>
  <clipPath id="v">
    <use xlink:href="#u" overflow="visible"/>
  </clipPath>
  <path fill="#F1526B" d="M431.4 208.8c-1.7 1-3 3.3-3 5.2 0 1.9 1.4 2.7 3 1.7 1.7-1 3-3.3 3-5.2.1-1.9-1.3-2.7-3-1.7" clip-path="url(#v)"/>
  <defs>
    <path id="w" d="M427.9 211.5v-4.4l3.9-2.2v4.4z"/>
  </defs>
  <clipPath id="x">
    <use xlink:href="#w" overflow="visible"/>
  </clipPath>
  <path fill="#F5967F" d="M429.9 206c-1.1.6-1.9 2.1-1.9 3.3 0 1.2.9 1.7 1.9 1.1 1.1-.6 1.9-2.1 1.9-3.3 0-1.3-.9-1.7-1.9-1.1" clip-path="url(#x)"/>
  <defs>
    <path id="y" d="M394 226.5v-14.2l6.1 3.5-.1 14.2z"/>
  </defs>
  <clipPath id="z">
    <use xlink:href="#y" overflow="visible"/>
  </clipPath>
  <path fill="#FFF" d="M400.1 215.8l-6.1-3.5v14.2l6 3.5.1-14.2" clip-path="url(#z)"/>
  <defs>
    <path id="A" d="M401.5 230.7v-14.2l6.1 3.5-.1 14.2z"/>
  </defs>
  <clipPath id="B">
    <use xlink:href="#A" overflow="visible"/>
  </clipPath>
  <path fill="#FFF" d="M407.6 220l-6.1-3.5v14.2l6 3.5.1-14.2" clip-path="url(#B)"/>
  <defs>
    <path id="C" d="M409.1 235v-14.2l6 3.5v14.2z"/>
  </defs>
  <clipPath id="D">
    <use xlink:href="#C" overflow="visible"/>
  </clipPath>
  <path fill="#FFF" d="M415.1 224.3l-6-3.5V235l6 3.5v-14.2" clip-path="url(#D)"/>
  <defs>
    <path id="E" d="M394 241.4v-14.2l6.1 3.5-.1 14.2z"/>
  </defs>
  <clipPath id="F">
    <use xlink:href="#E" overflow="visible"/>
  </clipPath>
  <path fill="#FFF" d="M400.1 230.7l-6.1-3.5v14.2l6 3.5.1-14.2" clip-path="url(#F)"/>
  <defs>
    <path id="G" d="M401.5 245.6v-14.1l6.1 3.5-.1 14.1z"/>
  </defs>
  <clipPath id="H">
    <use xlink:href="#G" overflow="visible"/>
  </clipPath>
  <path fill="#FFF" d="M407.6 235l-6.1-3.5v14.1l6 3.5.1-14.1" clip-path="url(#H)"/>
  <defs>
    <path id="I" d="M409.1 249.9v-14.1l6 3.4v14.2z"/>
  </defs>
  <clipPath id="J">
    <use xlink:href="#I" overflow="visible"/>
  </clipPath>
  <path fill="#FFF" d="M415.1 239.2l-6-3.4v14.1l6 3.5v-14.2" clip-path="url(#J)"/>
  <path fill="#F1526B" d="M381.1 204.4l.1 43.4-18.5 10.7-.1-38.3"/>
  <path fill="#FFCABE" d="M362.7 258.5l-28.2-16.4-.1-38.3 28.2 16.4"/>
  <path fill="#F5967F" d="M362.6 220.2l-28.2-16.4 18.5-15.7 28.2 16.3"/>
  <defs>
    <path id="K" d="M337.1 223.6v-14.2l22.7 13.1v14.2z"/>
  </defs>
  <clipPath id="L">
    <use xlink:href="#K" overflow="visible"/>
  </clipPath>
  <path fill="#FFF" d="M359.8 222.5l-22.7-13.1v14.2l22.7 13.1v-14.2" clip-path="url(#L)"/>
  <defs>
    <path id="M" d="M365.9 237.1v-14.2l6-3.5v14.2z"/>
  </defs>
  <clipPath id="N">
    <use xlink:href="#M" overflow="visible"/>
  </clipPath>
  <path fill="#FFF" d="M371.9 219.4l-6 3.5v14.2l6-3.5v-14.2" clip-path="url(#N)"/>
  <defs>
    <path id="O" d="M372.8 233.1v-14.2l6-3.4.1 14.1z"/>
  </defs>
  <clipPath id="P">
    <use xlink:href="#O" overflow="visible"/>
  </clipPath>
  <path fill="#FFF" d="M378.8 215.5l-6 3.4v14.2l6.1-3.5-.1-14.1" clip-path="url(#P)"/>
  <path fill="#F1526B" d="M382.8 283.9v24.4l-46.4 27 .1-24.5"/>
  <path fill="#F8B9AA" d="M382.8 283.9l-46.3 26.9 21.3 12.3-31.8 18.5-98.8-57 78.2-45.5"/>
  <path fill="#F1526B" d="M357.8 323.1l-.1 24.5-31.8 18.4.1-24.4"/>
  <path fill="#FFCABE" d="M326 341.6l-.1 24.4-98.7-57v-24.4"/>
  <path fill="#43A4C9" d="M388.5 274v8.2l-46.4 26.9V301"/>
  <path fill="#97D2E8" d="M388.5 274l-46.4 27 21.3 12.3L326 335l-104.5-60.3 83.8-48.7"/>
  <path fill="#43A4C9" d="M363.4 313.3v8.1L326 343.2V335"/>
  <path fill="#EDF6F9" d="M326 335v8.2l-104.5-60.3v-8.2"/>
  <path fill="#FFBD6A" d="M359 249.6l.1 26.2-53.4 30.8-.1-26.2"/>
  <path fill="#FFF5D4" d="M305.7 306.6l-53.5-31.1-.1-26.2 53.5 31.1"/>
  <path fill="#FFDD8E" d="M305.6 280.4l-53.5-31.1 53.3-30.8 53.6 31.1"/>
  <path fill="#43A4C9" d="M359 244.1l.1 3.3-53.4 30.8v-3.3"/>
  <path fill="#EDF6F9" d="M305.7 278.2l-53.6-31.1v-3.4l53.6 31.2"/>
  <path fill="#97D2E8" d="M305.7 274.9l-53.6-31.2 53.4-30.8 53.5 31.2"/>
  <defs>
    <path id="Q" d="M257.6 273.5l.1-16 40.7 23.5-.1 16z"/>
  </defs>
  <clipPath id="R">
    <use xlink:href="#Q" overflow="visible"/>
  </clipPath>
  <path fill="#FFF" d="M276.7 268.5l-19-11v7.1l19 10.9v-7m21.7 12.5l-19-11-.1 7.1 19 10.9.1-7m-21.7-3.6l-19-10.9-.1 7 19 11 .1-7.1m21.6 12.5l-19-10.9v7l19 11v-7.1" clip-path="url(#R)"/>
  <defs>
    <path id="S" d="M316.8 293.6v-11.5l34.9-20.2v11.6z"/>
  </defs>
  <clipPath id="T">
    <use xlink:href="#S" overflow="visible"/>
  </clipPath>
  <path fill="#FFF" d="M351.7 261.9l-34.9 20.2v11.5l34.9-20.1v-11.6" clip-path="url(#T)"/>
  <path fill="#F5967F" d="M287.9 226l9.9-5.8 8.1 3.3-9.9 5.8"/>
  <path fill="#F1526B" d="M305.4 242.6l9.9-5.7 1.4 10-9.9 5.8m-7.2-29.7l9.9-5.8 3.6 10.5-9.9 5.7"/>
  <path fill="#FFCABE" d="M299.6 223l3.6 10.4 8.1 6.1-5.9 3.1 1.4 10.1-7.2-8.6-7.3.2 1.4-8.4-5.8-9.9 8.1 3.3"/>
  <path fill="#F5967F" d="M303.2 233.4l9.9-5.7 8.1 6-9.9 5.8"/>
  <ellipse cx="409.4" cy="271.3" fill="#FFF" rx="0.7" ry="0.8"/>
  <path fill="#FFF" d="M409.3 272v.3s.4-.1.5.1c0 0 0 .4-.5.4s-.6-.5-.6-.5.3-.1.4 0v-.4l.2.1zm.7.5c.3.3.2 3.2.2 3.2s0 .2-.1.2c-.2 0-.2-.2-.2-.2v-2.1l.1-1.1zm-1.2 4.6l-.1 2.5s0 .2-.2.2-.2-.2-.2-.2l.1-2.6.4.1zm1.1-.1l.1 2.5s0 .2-.1.2c-.2 0-.2-.2-.2-.2l-.2-2.6.4.1zm-1.3-4.6l-.1 3.5s0 .2-.1.2c-.2 0-.1-.1-.1-.2s.1-3 .1-3 0-.4.2-.5z"/>
  <path fill="#CEDA91" d="M409.9 275.4l.2 2.2h-.6v-1.7h-.6v1.7h-.5l.1-2.2"/>
  <path fill="#F1526B" d="M409.7 272.3s.2 0 .2.2l.1 2.9h-1.6l.1-3.1s.1-.1.2-.1c0 0 0 .3.4.3.3.1.7.2.6-.2z"/>
  <path fill="#FFE29D" d="M409.4 270.4s.8-.1.9.6c0 .8.6 2.3 0 3.1-.6.8-1.7.5-2.1 0-.3-.4.1-3.1.5-3.5.3-.2.7-.2.7-.2z"/>
  <defs>
    <path id="U" d="M389.3 327.6l70.4-40.9 99.4 57.4-70.4 40.9z"/>
  </defs>
  <clipPath id="V">
    <use xlink:href="#U" overflow="visible"/>
  </clipPath>
  <path fill="#CEDA91" d="M397.1 327.6l62.6-36.4 91.6 52.9-15.2 8.8-6.8 4-18.5 10.7-6.8 4-15.2 8.8-91.7-52.8m162 16.5l-99.4-57.4-70.4 40.9 99.4 57.4 70.4-40.9" clip-path="url(#V)"/>
  <path fill="#CEDA91" d="M451.4 316.1l-11.3 6.6c3.2 1 7.3.7 9.9-.8 2.6-1.5 3.2-3.9 1.4-5.8m56.9 32.9c-3.2-1-7.3-.7-9.9.8-2.6 1.5-3.2 3.9-1.4 5.7l11.3-6.5m-63.9-40.2l-6.8-3.9-17.1 9.9 6.8 3.9 17.1-9.9m83.4 48.1L521 353l-17.1 9.9 6.8 3.9 17.1-9.9m-43.7-26.4l-19 11.1c5.3 2.8 13.6 2.8 18.7-.2s5.2-7.8.3-10.9m-.7-.4c-5.3-2.8-13.6-2.8-18.7.2s-5.2 7.8-.3 10.9l19-11.1m51.3 22.9l-15.9-9.2-30.8 17.8 15.9 9.2 6.1-3.6-7.5-4.3 18.5-10.7 7.5 4.3 6.2-3.5m-74.3-42.9l-15.9-9.2-6.1 3.6 7.5 4.3-18.5 10.7-7.5-4.3-6.1 3.6 15.9 9.2 30.7-17.9m44.1 7.8L459.7 292l-14.5 8.4 16.7 9.6-9.7 5.6c2.1 2.1 1.6 4.8-1.4 6.6-3 1.7-7.7 2.1-11.3.9l-9.7 5.6-16.7-9.6-14.5 8.4 44.7 25.8 20.4-11.8c-5.3-3.3-5.2-8.5.3-11.7 5.5-3.2 14.5-3.3 20.2-.2l20.3-11.7m45.4 26.2l-44.7-25.8-20.4 11.8c5.3 3.3 5.2 8.5-.3 11.7-5.5 3.2-14.5 3.3-20.2.2l-20.4 11.8 44.8 25.8 14.5-8.4-16.7-9.6 9.7-5.6c-2.1-2.1-1.6-4.8 1.4-6.6 3-1.7 7.7-2.1 11.3-.8l9.7-5.6 16.7 9.6 14.6-8.5" clip-path="url(#V)"/>
  <path fill="#FFF" d="M551.3 344.1l-91.6-52.9-62.6 36.4 91.6 52.9 15.2-8.9-.7-.4-14.5 8.5-44.8-25.9-.5.3-.7-.4.5-.3-44.7-25.8 14.5-8.4-.7-.5 32.2-18.7.7.5 14.5-8.5 44.8 25.9.5-.3.7.4-.5.3 44.7 25.8-14.5 8.4.7.4 15.2-8.8" clip-path="url(#V)"/>
  <path fill="#FFF" d="M464.3 342c-.1-.1-.2-.1-.4-.2-.1-.1-.2-.1-.3-.2l-20.4 11.8-.5.3.7.4.5-.3 20.4-11.8m19.4-11.7c-.1-.1-.2-.1-.4-.2l-19 11.1c.1.1.2.1.3.2.1.1.2.1.4.2l19-11.1s-.2-.1-.3-.2m22-12.3l-.7-.4-.5.3-20.4 11.8c.1.1.2.1.4.2.1.1.2.1.4.2l20.4-11.8.4-.3m30.4 34.9l-.7-.4-16.7-9.6-9.7 5.6c.1 0 .3.1.4.1l-.5.5c-.2-.1-.4-.1-.6-.2l-11.3 6.6.3.3-.8.3-.2-.2-9.7 5.6 16.7 9.6.7.4 6.8-4-.7-.4-6.1 3.6-15.9-9.2 30.8-17.9 15.9 9.2-6.1 3.6.7.4 6.7-3.9" clip-path="url(#V)"/>
  <path fill="#FFF" d="M527.8 356.9l-17.1 9.9-6.8-3.9L521 353l6.8 3.9m1.5 0l-.7-.4-7.5-4.3-18.5 10.7 7.5 4.3.7.4 18.5-10.7m-19.9-8.2c-.1 0-.3-.1-.4-.1-3.6-1.2-8.3-.9-11.3.8-3 1.7-3.6 4.5-1.4 6.6l.2.2.8-.3-.3-.3c-1.8-1.9-1.2-4.2 1.4-5.7 2.6-1.5 6.7-1.8 9.9-.8.2.1.4.1.6.2l.5-.6m-26-18.6c.1.1.2.1.4.2.1.1.2.1.4.2 4.9 3.1 4.9 7.9-.3 10.9-5.1 3-13.4 3-18.7.2-.1-.1-.2-.1-.4-.2-.1-.1-.2-.1-.3-.2-4.9-3.1-4.9-7.9.3-10.9 4.9-3 13.3-3 18.6-.2m1-.2c-.1-.1-.2-.1-.4-.2-5.7-3.1-14.6-3-20.2.2-5.5 3.2-5.6 8.4-.3 11.7.1.1.2.1.3.2.1.1.2.1.4.2 5.7 3.1 14.6 3 20.2-.2 5.5-3.2 5.6-8.4.3-11.7 0-.1-.2-.1-.3-.2m-46.1-25.5l6.1-3.6 15.9 9.2-30.6 18-15.9-9.2 6.1-3.6-.7-.4 18.5-10.7.6.3m23.5 5.7l-16.7-9.6-.7-.4-32.2 18.7.7.4 16.7 9.6 9.7-5.6c-.1 0-.3-.1-.4-.1l.5-.5c.2.1.4.1.6.2l11.3-6.6-.3-.3.8-.3.2.2 9.8-5.7" clip-path="url(#V)"/>
  <path fill="#FFF" d="M420.6 314.8l17.1-9.9 6.8 3.9-17.1 9.9-6.8-3.9m25.3-6l-7.5-4.3-.7-.4-18.5 10.7.7.4 7.5 4.3 18.5-10.7m6 6.7l-.8.3.3.3c1.8 1.9 1.2 4.2-1.4 5.7-2.6 1.5-6.7 1.8-9.9.8-.2-.1-.4-.1-.6-.2l-.5.6c.1 0 .3.1.4.1 3.6 1.2 8.3.9 11.3-.9 3-1.7 3.6-4.5 1.4-6.6 0 0-.1 0-.2-.1" clip-path="url(#V)"/>
  <path fill="#B9DEE9" d="M500 241.9l-.7.4-.8-.4.7-.5"/>
  <path fill="#ACD8E5" d="M500 241.9l-.1 48.9-.7.4.1-48.9"/>
  <path fill="#E5F3F7" d="M499.3 242.3l-.1 48.9-.8-.4.1-48.9"/>
  <defs>
    <path id="W" d="M493.5 240.4L492 234l10.9 6.3 1.5 6.4z"/>
  </defs>
  <clipPath id="X">
    <use xlink:href="#W" overflow="visible"/>
  </clipPath>
  <g clip-path="url(#X)">
    <path fill="#FFF" d="M502.9 240.3L492 234l1.5 6.4 10.9 6.3-1.5-6.4"/>
  </g>
  <path fill="#B9DEE9" d="M552 267.1l-.8.4-.7-.4.7-.5"/>
  <path fill="#ACD8E5" d="M552 267.1l-.2 48.9-.7.4.1-48.9"/>
  <path fill="#E5F3F7" d="M551.2 267.5l-.1 48.9-.8-.4.2-48.9"/>
  <defs>
    <path id="Y" d="M545.5 265.6l-1.6-6.4 10.9 6.3 1.6 6.4z"/>
  </defs>
  <clipPath id="Z">
    <use xlink:href="#Y" overflow="visible"/>
  </clipPath>
  <g clip-path="url(#Z)">
    <path fill="#FFF" d="M554.8 265.5l-10.9-6.3 1.6 6.4 10.9 6.3-1.6-6.4"/>
  </g>
  <path fill="#F1526B" d="M574.7 324.6v12.2l-13.5 7.8"/>
  <path fill="#F5967F" d="M561.2 344.6l-101.5-59 13.5-19.9 101.5 58.9"/>
  <path fill="#FFCABE" d="M375.8 307.5l13.4 20-13.4-7.8"/>
  <path fill="#F59781" d="M375.8 307.5l70.5-41 13.4 20-70.5 41"/>
  <defs>
    <path id="aa" d="M386.9 323.8l-8.6-13.2 70.2-41 8.6 13.2z"/>
  </defs>
  <clipPath id="ab">
    <use xlink:href="#aa" overflow="visible"/>
  </clipPath>
  <path fill="#E07868" d="M456.6 282.2l-70.1 40.9.4.7 70.2-41-.5-.6" clip-path="url(#ab)"/>
  <path fill="#F1526B" d="M453.9 278l-70.2 41 .5.6 70.1-41-.4-.6m-2.7-4.2l-70.2 41 .4.6 70.2-40.9-.4-.7m-2.7-4.2l-70.2 41 .4.7 70.2-41-.4-.7" clip-path="url(#ab)"/>
  <defs>
    <path id="ac" d="M462.5 281.7l8.3-13.5 101.7 59.3-8.3 13.5z"/>
  </defs>
  <clipPath id="ad">
    <use xlink:href="#ac" overflow="visible"/>
  </clipPath>
  <path fill="#F1526B" d="M564.6 340.3L462.9 281l-.4.7L564.2 341l.4-.7m2.6-4.3l-101.6-59.3-.4.7 101.6 59.3.4-.7m2.6-4.2l-101.6-59.3-.4.7 101.6 59.2.4-.6m2.7-4.3l-101.7-59.3-.4.7 101.7 59.3.4-.7" clip-path="url(#ad)"/>
  <path fill="#F1526B" d="M388.8 325.6l71.2-41.4v2.8l-71.2 41.4"/>
  <path fill="#FFCABE" d="M460 284.2l100.7 58.1v2.9L460 287"/>
  <path fill="#F1526B" d="M560.7 342.3v2.9l-71.2 41.4v-2.9"/>
  <path fill="#F9C4B7" d="M489.5 383.7v2.9l-100.7-58.2v-2.8"/>
  <path fill="#F1526B" d="M476 382.1l13.5 4.4-13.5 7.8"/>
  <path fill="#F1526B" d="M476 382.1l-101.5-59 13.5 4.5 101.5 58.9"/>
  <path fill="#FFCABE" d="M476 394.3l-101.5-59v-12.2l101.5 59"/>
  <path fill="#FCDBD4" d="M502.9 382.1v12.2l-13.4-7.8"/>
  <path fill="#F1526B" d="M502.9 382.1l70.5-41v12.2l-70.5 41"/>
  <path fill="#F8B4A4" d="M489.5 386.5l70.4-40.9 13.5-4.5-70.5 41"/>
  <defs>
    <path id="ae" d="M443.8 334.9l2.8-8.4 10.9 6.3-2.8 8.4z"/>
  </defs>
  <clipPath id="af">
    <use xlink:href="#ae" overflow="visible"/>
  </clipPath>
  <g clip-path="url(#af)">
    <path fill="#FFF" d="M457.5 332.8l-10.9-6.3-2.8 8.4 10.9 6.3 2.8-8.4"/>
  </g>
  <path fill="#B9DEE9" d="M450.5 334.4l-.8.4-.7-.4.7-.5"/>
  <path fill="#ACD8E5" d="M450.5 334.4l-.2 48.9-.7.4.1-48.9"/>
  <path fill="#E5F3F7" d="M449.7 334.8l-.1 48.9-.8-.4.2-48.9"/>
  <defs>
    <path id="ag" d="M394.8 306.9l2.8-8.4 10.9 6.3-2.8 8.4z"/>
  </defs>
  <clipPath id="ah">
    <use xlink:href="#ag" overflow="visible"/>
  </clipPath>
  <g clip-path="url(#ah)">
    <path fill="#FFF" d="M408.5 304.8l-10.9-6.3-2.8 8.4 10.9 6.3 2.8-8.4"/>
  </g>
  <path fill="#B9DEE9" d="M401.5 306.4l-.8.4-.7-.4.7-.5"/>
  <path fill="#ACD8E5" d="M401.5 306.4l-.2 48.9-.7.4.1-48.9"/>
  <path fill="#E5F3F7" d="M400.7 306.8l-.1 48.9-.8-.4.2-48.9"/>
  <path fill="#43A4C9" d="M471.7 380.8l-40 23.2-75.9-43.8 40.1-23.2"/>
  <path fill="#43A4C9" d="M471.7 380.8v24.4l-40.1 23.3.1-24.5"/>
  <path fill="#EDF6F9" d="M431.7 404l-.1 24.5-75.8-43.8v-24.5"/>
  <defs>
    <path id="ai" d="M352 367.2l43.9-25.5 79.8 46-43.9 25.6z"/>
  </defs>
  <clipPath id="aj">
    <use xlink:href="#ai" overflow="visible"/>
  </clipPath>
  <path fill="#0066AE" d="M475.7 387.7l-3.6-2-40.4 23.5-76.2-44-3.5 2 79.8 46.1 43.9-25.6" clip-path="url(#aj)"/>
  <path fill="#F5967F" d="M471.7 370.5l-40 23.3-75.9-43.8 40-23.3"/>
  <path fill="#F1526B" d="M471.7 370.5v4.9l-40.1 23.3.1-4.9"/>
  <path fill="#FFCABE" d="M431.7 393.8l-.1 4.9-75.8-43.8V350"/>
  <defs>
    <path id="ak" d="M368.7 392.2v-18.4l47.4 27.4-.1 18.4z"/>
  </defs>
  <clipPath id="al">
    <use xlink:href="#ak" overflow="visible"/>
  </clipPath>
  <path fill="#0066AE" d="M369.3 374.1l-.6-.3v18.4l.5.3.1-18.4m15.6 9l-.6-.3v18.4l.5.3.1-18.4m15.6 9.1l-.6-.4v18.4l.5.3.1-18.3m15.6 9l-.6-.3v18.3l.5.4.1-18.4" clip-path="url(#al)"/>
  <defs>
    <path id="am" d="M444.7 421v-18.4l16.1-9.3v18.4z"/>
  </defs>
  <clipPath id="an">
    <use xlink:href="#am" overflow="visible"/>
  </clipPath>
  <path fill="#0066AE" d="M445.2 402.3l-.5.3V421l.5-.3v-18.4m15.6-9l-.5.3V412l.5-.3v-18.4" clip-path="url(#an)"/>
  <path fill="#F1526B" d="M457.1 366.6v5l-4.3 2.5"/>
  <path fill="#FFF2D3" d="M452.8 374.1l-6.6-3.8 4.3-7.5 6.6 3.8"/>
  <path fill="#F59680" d="M452.4 372.4l-4.5-2.6 3-5.2 4.5 2.6"/>
  <path fill="#FFCABE" d="M373.2 345.6v5l4.3 2.5"/>
  <path fill="#FFF2D3" d="M377.5 353.1l6.6-3.8-4.3-7.5-6.6 3.8"/>
  <path fill="#F1526B" d="M377.9 351.4l4.5-2.6-3-5.2-4.5 2.6"/>
</svg>
