<?xml version="1.0" encoding="utf-8"?>
<!-- Generator: Adobe Illustrator 18.1.0, SVG Export Plug-In . SVG Version: 6.00 Build 0)  -->
<svg version="1.1" id="Calque_1" xmlns="http://www.w3.org/2000/svg" xmlns:xlink="http://www.w3.org/1999/xlink" x="0px" y="0px"
	 viewBox="0 0 1440 875.8" enable-background="new 0 0 1440 875.8" xml:space="preserve">
<polygon fill="#CEDA91" points="652.6,562.2 921.1,716.5 1074.4,626.2 805.6,471.7 "/>
<g>
	<g>
		<g enable-background="new    ">
			<defs>
				<polygon id="SVGID_1_" enable-background="new    " points="754.8,538.3 769.1,530 783.5,538.3 769.2,546.7 				"/>
			</defs>
			<clipPath id="SVGID_2_">
				<use xlink:href="#SVGID_1_"  overflow="visible"/>
			</clipPath>
			<g clip-path="url(#SVGID_2_)">
				<g>
					<g>
						<g>
							<polyline fill="#E2E2E2" points="783.5,538.3 769.1,530 754.8,538.3 769.2,546.7 783.5,538.3 							"/>
						</g>
					</g>
				</g>
			</g>
		</g>
	</g>
</g>
<g>
	<polygon fill="#F1526B" points="807.4,522 822.9,523.3 822.9,524.5 807.2,533.5 	"/>
	<polygon fill="#F5967F" points="807.4,522 777.8,504.8 793.3,506 822.9,523.3 	"/>
	<polygon fill="#FFCABE" points="807.2,533.5 777.6,516.3 777.8,504.8 807.4,522 	"/>
	<g>
		<polygon fill="#FFDD8E" points="781.8,506.4 805.4,520.1 817.7,521.1 794.2,507.4 		"/>
		<g>
			<defs>
				<polygon id="SVGID_3_" points="781.8,506.4 805.4,520.1 817.7,521.1 794.2,507.4 				"/>
			</defs>
			<clipPath id="SVGID_4_">
				<use xlink:href="#SVGID_3_"  overflow="visible"/>
			</clipPath>
			
				<line clip-path="url(#SVGID_4_)" fill="none" stroke="#FFC550" stroke-miterlimit="10" x1="798.8" y1="516.7" x2="813.5" y2="517.9"/>
			
				<line clip-path="url(#SVGID_4_)" fill="none" stroke="#FFC550" stroke-miterlimit="10" x1="791.8" y1="512.7" x2="806.6" y2="513.9"/>
			
				<line clip-path="url(#SVGID_4_)" fill="none" stroke="#FFC550" stroke-miterlimit="10" x1="785" y1="508.9" x2="799.7" y2="510"/>
		</g>
	</g>
</g>
<g>
	<polygon fill="#F1526B" points="844.1,543.2 859.6,544.5 859.6,545.7 844,554.7 	"/>
	<polygon fill="#F5967F" points="844.1,543.2 814.5,526 830,527.3 859.6,544.5 	"/>
	<polygon fill="#FFCABE" points="844,554.7 814.4,537.5 814.5,526 844.1,543.2 	"/>
	<g>
		<polygon fill="#FFDD8E" points="819.1,527.8 842.7,541.5 855,542.5 831.5,528.8 		"/>
		<g>
			<defs>
				<polygon id="SVGID_5_" points="819.1,527.8 842.7,541.5 855,542.5 831.5,528.8 				"/>
			</defs>
			<clipPath id="SVGID_6_">
				<use xlink:href="#SVGID_5_"  overflow="visible"/>
			</clipPath>
			
				<line clip-path="url(#SVGID_6_)" fill="none" stroke="#FFC550" stroke-miterlimit="10" x1="836.1" y1="538.1" x2="850.8" y2="539.3"/>
			
				<line clip-path="url(#SVGID_6_)" fill="none" stroke="#FFC550" stroke-miterlimit="10" x1="829.1" y1="534.1" x2="843.8" y2="535.3"/>
			
				<line clip-path="url(#SVGID_6_)" fill="none" stroke="#FFC550" stroke-miterlimit="10" x1="822.3" y1="530.3" x2="837" y2="531.4"/>
		</g>
	</g>
</g>
<g>
	<polygon fill="#F1526B" points="880.3,564.3 895.8,565.6 895.8,566.8 880.1,575.8 	"/>
	<polygon fill="#F5967F" points="880.3,564.3 850.6,547.1 866.2,548.4 895.8,565.6 	"/>
	<polygon fill="#FFCABE" points="880.1,575.8 850.5,558.6 850.6,547.1 880.3,564.3 	"/>
	<g>
		<polygon fill="#FFDD8E" points="857.7,550 878.1,561.8 888.8,562.7 868.4,550.8 		"/>
		<g>
			<defs>
				<polygon id="SVGID_7_" points="857.7,550 878.1,561.8 888.8,562.7 868.4,550.8 				"/>
			</defs>
			<clipPath id="SVGID_8_">
				<use xlink:href="#SVGID_7_"  overflow="visible"/>
			</clipPath>
			
				<line clip-path="url(#SVGID_8_)" fill="none" stroke="#FFC550" stroke-miterlimit="10" x1="872.4" y1="558.9" x2="885.1" y2="559.9"/>
			
				<line clip-path="url(#SVGID_8_)" fill="none" stroke="#FFC550" stroke-miterlimit="10" x1="866.4" y1="555.5" x2="879.1" y2="556.5"/>
			
				<line clip-path="url(#SVGID_8_)" fill="none" stroke="#FFC550" stroke-miterlimit="10" x1="860.5" y1="552.1" x2="873.2" y2="553.2"/>
		</g>
	</g>
</g>
<g>
	<polygon fill="#F1526B" points="879.7,539.3 895.3,540.5 895.3,541.8 879.6,550.8 	"/>
	<polygon fill="#F5967F" points="879.7,539.3 850.1,522.1 865.7,523.3 895.3,540.5 	"/>
	<polygon fill="#FFCABE" points="879.6,550.8 850,533.6 850.1,522.1 879.7,539.3 	"/>
	<g>
		<polygon fill="#FFDD8E" points="854.3,523.7 877.8,537.4 890.2,538.3 866.6,524.6 		"/>
		<g>
			<defs>
				<polygon id="SVGID_9_" points="854.3,523.7 877.8,537.4 890.2,538.3 866.6,524.6 				"/>
			</defs>
			<clipPath id="SVGID_10_">
				<use xlink:href="#SVGID_9_"  overflow="visible"/>
			</clipPath>
			
				<line clip-path="url(#SVGID_10_)" fill="none" stroke="#FFC550" stroke-miterlimit="10" x1="871.3" y1="534" x2="886" y2="535.2"/>
			
				<line clip-path="url(#SVGID_10_)" fill="none" stroke="#FFC550" stroke-miterlimit="10" x1="864.3" y1="530" x2="879" y2="531.2"/>
			
				<line clip-path="url(#SVGID_10_)" fill="none" stroke="#FFC550" stroke-miterlimit="10" x1="857.5" y1="526.2" x2="872.2" y2="527.3"/>
		</g>
	</g>
</g>
<g>
	<polygon fill="#F1526B" points="916.5,560.5 932,561.7 932,563 916.3,572 	"/>
	<polygon fill="#F5967F" points="916.5,560.5 886.9,543.3 902.4,544.5 932,561.7 	"/>
	<polygon fill="#FFCABE" points="916.3,572 886.7,554.8 886.9,543.3 916.5,560.5 	"/>
	<g>
		<polygon fill="#FFDD8E" points="891.5,545 915,558.7 927.4,559.7 903.8,546 		"/>
		<g>
			<defs>
				<polygon id="SVGID_11_" points="891.5,545 915,558.7 927.4,559.7 903.8,546 				"/>
			</defs>
			<clipPath id="SVGID_12_">
				<use xlink:href="#SVGID_11_"  overflow="visible"/>
			</clipPath>
			
				<line clip-path="url(#SVGID_12_)" fill="none" stroke="#FFC550" stroke-miterlimit="10" x1="908.5" y1="555.4" x2="923.2" y2="556.5"/>
			
				<line clip-path="url(#SVGID_12_)" fill="none" stroke="#FFC550" stroke-miterlimit="10" x1="901.5" y1="551.4" x2="916.2" y2="552.6"/>
			
				<line clip-path="url(#SVGID_12_)" fill="none" stroke="#FFC550" stroke-miterlimit="10" x1="894.7" y1="547.5" x2="909.4" y2="548.7"/>
		</g>
	</g>
</g>
<g>
	<polygon fill="#F1526B" points="952.6,581.6 968.2,582.8 968.2,584.1 952.5,593.1 	"/>
	<polygon fill="#F5967F" points="952.6,581.6 923,564.4 938.6,565.6 968.2,582.8 	"/>
	<polygon fill="#FFCABE" points="952.5,593.1 922.9,575.9 923,564.4 952.6,581.6 	"/>
	<g>
		<polygon fill="#FFDD8E" points="927.6,566.1 951.2,579.8 963.6,580.7 940,567 		"/>
		<g>
			<defs>
				<polygon id="SVGID_13_" points="927.6,566.1 951.2,579.8 963.6,580.7 940,567 				"/>
			</defs>
			<clipPath id="SVGID_14_">
				<use xlink:href="#SVGID_13_"  overflow="visible"/>
			</clipPath>
			
				<line clip-path="url(#SVGID_14_)" fill="none" stroke="#FFC550" stroke-miterlimit="10" x1="944.6" y1="576.4" x2="959.4" y2="577.6"/>
			
				<line clip-path="url(#SVGID_14_)" fill="none" stroke="#FFC550" stroke-miterlimit="10" x1="937.7" y1="572.4" x2="952.4" y2="573.6"/>
			
				<line clip-path="url(#SVGID_14_)" fill="none" stroke="#FFC550" stroke-miterlimit="10" x1="930.8" y1="568.6" x2="945.6" y2="569.7"/>
		</g>
	</g>
</g>
<g enable-background="new    ">
	<defs>
		<path id="SVGID_15_" enable-background="new    " d="M750.7,355l-0.3,90.6c-6.5-3.8-17.1-3.8-23.6,0l0.3-90.6
			C733.6,351.2,744.1,351.2,750.7,355z"/>
	</defs>
	<clipPath id="SVGID_16_">
		<use xlink:href="#SVGID_15_"  overflow="visible"/>
	</clipPath>
	<path clip-path="url(#SVGID_16_)" fill="#FFF9EC" d="M750.7,355l-0.3,90.6c-0.4-0.2-0.9-0.5-1.3-0.7l0.3-90.6
		C749.8,354.6,750.2,354.8,750.7,355"/>
	<path clip-path="url(#SVGID_16_)" fill="#FFF6E2" d="M749.3,354.3l-0.3,90.6c-0.5-0.2-1-0.5-1.6-0.7l0.3-90.6
		C748.3,353.9,748.8,354.1,749.3,354.3"/>
	<path clip-path="url(#SVGID_16_)" fill="#FFF3D8" d="M747.8,353.7l-0.3,90.6c-0.5-0.2-1-0.4-1.6-0.5l0.3-90.6
		C746.7,353.3,747.3,353.5,747.8,353.7"/>
	<path clip-path="url(#SVGID_16_)" fill="#FFF1CF" d="M746.2,353.2l-0.3,90.6c-0.5-0.2-1.1-0.3-1.6-0.4l0.3-90.6
		C745.1,352.9,745.7,353,746.2,353.2"/>
	<path clip-path="url(#SVGID_16_)" fill="#FFEEC5" d="M744.6,352.8l-0.3,90.6c-0.6-0.1-1.2-0.2-1.8-0.3l0.3-90.6
		C743.4,352.6,744,352.7,744.6,352.8"/>
	<path clip-path="url(#SVGID_16_)" fill="#FFEBBB" d="M742.8,352.5l-0.3,90.6c-0.7-0.1-1.3-0.2-2-0.2l0.3-90.6
		C741.5,352.3,742.1,352.4,742.8,352.5"/>
	<path clip-path="url(#SVGID_16_)" fill="#FFE8B1" d="M740.8,352.3l-0.3,90.6c-0.8-0.1-1.7-0.1-2.5-0.1l0.3-90.6
		C739.2,352.2,740,352.2,740.8,352.3"/>
	<path clip-path="url(#SVGID_16_)" fill="#FFE5A8" d="M738.3,352.2l-0.3,90.6c-4.1,0.1-8.2,1-11.3,2.8l0.3-90.6
		C730.2,353.2,734.2,352.3,738.3,352.2"/>
</g>
<g enable-background="new    ">
	<defs>
		<path id="SVGID_17_" enable-background="new    " d="M726.8,445.6c-1.7,1-3,2.2-3.8,3.4c0.1-26.7,0.2-53.3,0.2-80l0-10.6
			c0.8-1.2,2.1-2.4,3.8-3.4C727,382.2,726.9,418.4,726.8,445.6z"/>
	</defs>
	<clipPath id="SVGID_18_">
		<use xlink:href="#SVGID_17_"  overflow="visible"/>
	</clipPath>
	<path clip-path="url(#SVGID_18_)" fill="#FFE5A8" d="M727.1,355l-0.3,90.6c-1.7,1-3,2.2-3.8,3.4l0.3-90.6
		C724.1,357.2,725.3,356,727.1,355"/>
</g>
<polygon fill="#FFF7E4" points="723.3,358.4 723,449 722,448.4 722.2,357.8 "/>
<path fill="#FFE5A7" d="M723.3,358.4l-1-0.6l4.8-2.8C725.3,356,724.1,357.2,723.3,358.4z"/>
<g enable-background="new    ">
	<defs>
		<path id="SVGID_19_" enable-background="new    " d="M722,452.4l0.3-90.6c0,2.5,1.6,5,4.9,6.9l-0.3,90.6
			C723.6,457.4,721.9,454.9,722,452.4z"/>
	</defs>
	<clipPath id="SVGID_20_">
		<use xlink:href="#SVGID_19_"  overflow="visible"/>
	</clipPath>
	<path clip-path="url(#SVGID_20_)" fill="#FFF9EC" d="M727.1,368.7l-0.3,90.6c-0.1-0.1-0.2-0.1-0.3-0.2l0.3-90.6
		C726.9,368.6,727,368.6,727.1,368.7"/>
	<path clip-path="url(#SVGID_20_)" fill="#FFFCF5" d="M726.8,368.5l-0.3,90.6c-0.7-0.5-1.4-0.9-1.9-1.4l0.3-90.6
		C725.4,367.6,726.1,368.1,726.8,368.5"/>
	<path clip-path="url(#SVGID_20_)" fill="#FFFFFF" d="M724.9,367.1l-0.3,90.6c-1.3-1.2-2.1-2.4-2.4-3.7l0.3-90.6
		C722.8,364.6,723.6,365.9,724.9,367.1"/>
	<path clip-path="url(#SVGID_20_)" fill="#FFFCF5" d="M722.4,363.3l-0.3,90.6c-0.1-0.5-0.2-1-0.2-1.5l0.3-90.6
		C722.2,362.3,722.3,362.8,722.4,363.3"/>
</g>
<polygon fill="#FFF7E4" points="780.3,372.1 780,462.7 750.4,445.6 750.7,355 "/>
<g enable-background="new    ">
	<defs>
		<path id="SVGID_21_" enable-background="new    " d="M784.7,468c-0.6-1.9-2.1-3.8-4.7-5.3l0.3-90.6c2.6,1.5,4.1,3.3,4.7,5.3
			C784.9,407.6,784.8,437.8,784.7,468z"/>
	</defs>
	<clipPath id="SVGID_22_">
		<use xlink:href="#SVGID_21_"  overflow="visible"/>
	</clipPath>
	<path clip-path="url(#SVGID_22_)" fill="#FFFFFF" d="M785,377.5l-0.3,90.6c-0.4-1.3-1.2-2.6-2.4-3.7l0.3-90.6
		C783.9,374.9,784.7,376.2,785,377.5"/>
	<path clip-path="url(#SVGID_22_)" fill="#FFFCF5" d="M782.6,373.8l-0.3,90.6c-0.6-0.5-1.2-1-2-1.4l0.3-90.6
		C781.4,372.8,782,373.3,782.6,373.8"/>
	<path clip-path="url(#SVGID_22_)" fill="#FFF9EC" d="M780.6,372.3l-0.3,90.6c-0.1-0.1-0.2-0.1-0.3-0.2l0.3-90.6
		C780.4,372.2,780.5,372.3,780.6,372.3"/>
</g>
<g enable-background="new    ">
	<defs>
		<path id="SVGID_23_" enable-background="new    " d="M784.7,468c-4.2-30.2,0.2-60.4,0.3-90.6c0.2,0.5,0.2,1.1,0.2,1.6l-0.3,90.6
			C785,469,784.9,468.5,784.7,468z"/>
	</defs>
	<clipPath id="SVGID_24_">
		<use xlink:href="#SVGID_23_"  overflow="visible"/>
	</clipPath>
	<path clip-path="url(#SVGID_24_)" fill="#FFFCF5" d="M785.2,379l-0.3,90.6c0-0.5-0.1-1-0.2-1.5l0.3-90.6
		C785.2,378,785.2,378.5,785.2,379"/>
	<path clip-path="url(#SVGID_24_)" fill="#FFFFFF" d="M785,377.5l-0.3,90.6c-0.4-1.3-1.2-2.6-2.4-3.7l0.3-90.6
		C783.9,374.9,784.7,376.2,785,377.5"/>
</g>
<g enable-background="new    ">
	<defs>
		<path id="SVGID_25_" enable-background="new    " d="M785.2,379l-0.3,90.6c0,2.5-1.6,4.9-4.9,6.8l0.3-90.6
			C783.6,383.9,785.2,381.5,785.2,379z"/>
	</defs>
	<clipPath id="SVGID_26_">
		<use xlink:href="#SVGID_25_"  overflow="visible"/>
	</clipPath>
	<path clip-path="url(#SVGID_26_)" fill="#FFE5A8" d="M785.2,379l-0.3,90.6c0,2.5-1.6,4.9-4.9,6.8l0.3-90.6
		C783.6,383.9,785.2,381.5,785.2,379"/>
</g>
<path fill="#FFDD8E" d="M745.8,344.2L727.1,355c-1.7,1-3,2.2-3.8,3.4c-2.2,3.4-0.9,7.5,3.9,10.3l29.6,17.1
	c4.8,2.8,11.8,3.5,17.7,2.2c2.1-0.5,4.1-1.2,5.9-2.2l18.7-10.9L745.8,344.2z"/>
<polygon fill="#FFF7E4" points="756.8,385.8 756.5,476.4 726.9,459.3 727.1,368.7 "/>
<g enable-background="new    ">
	<defs>
		<path id="SVGID_27_" enable-background="new    " d="M780.4,385.8l-0.3,90.6c-1.7,1-3.7,1.7-5.9,2.2c-5.9,1.3-12.9,0.6-17.7-2.2
			l0.3-90.6c4.8,2.8,11.8,3.5,17.7,2.2C776.6,387.5,778.6,386.8,780.4,385.8z"/>
	</defs>
	<clipPath id="SVGID_28_">
		<use xlink:href="#SVGID_27_"  overflow="visible"/>
	</clipPath>
	<path clip-path="url(#SVGID_28_)" fill="#FFE5A8" d="M780.4,385.8l-0.3,90.6c-1.7,1-3.7,1.7-5.9,2.2c-1.7,0.4-3.6,0.6-5.4,0.6
		l0.3-90.6c1.8,0,3.7-0.2,5.4-0.6C776.6,387.5,778.6,386.8,780.4,385.8"/>
	<path clip-path="url(#SVGID_28_)" fill="#FFE8B1" d="M769.1,388.6l-0.3,90.6c-0.8,0-1.6,0-2.5-0.1l0.3-90.6
		C767.4,388.6,768.3,388.6,769.1,388.6"/>
	<path clip-path="url(#SVGID_28_)" fill="#FFEBBB" d="M766.6,388.6l-0.3,90.6c-0.7,0-1.3-0.1-2-0.2l0.3-90.6
		C765.3,388.5,765.9,388.5,766.6,388.6"/>
	<path clip-path="url(#SVGID_28_)" fill="#FFEEC5" d="M764.6,388.4l-0.3,90.6c-0.6-0.1-1.2-0.2-1.8-0.3l0.3-90.6
		C763.4,388.2,764,388.3,764.6,388.4"/>
	<path clip-path="url(#SVGID_28_)" fill="#FFF1CF" d="M762.9,388.1l-0.3,90.6c-0.6-0.1-1.1-0.2-1.6-0.4l0.3-90.6
		C761.8,387.8,762.3,387.9,762.9,388.1"/>
	<path clip-path="url(#SVGID_28_)" fill="#FFF3D8" d="M761.2,387.7l-0.3,90.6c-0.5-0.2-1.1-0.3-1.6-0.5l0.3-90.6
		C760.2,387.3,760.7,387.5,761.2,387.7"/>
	<path clip-path="url(#SVGID_28_)" fill="#FFF6E2" d="M759.7,387.1l-0.3,90.6c-0.5-0.2-1.1-0.4-1.6-0.6l0.3-90.6
		C758.6,386.7,759.1,386.9,759.7,387.1"/>
	<path clip-path="url(#SVGID_28_)" fill="#FFF9EC" d="M758.1,386.5l-0.3,90.6c-0.5-0.2-0.9-0.4-1.3-0.7l0.3-90.6
		C757.2,386.1,757.6,386.3,758.1,386.5"/>
</g>
<polygon fill="#FFBD6A" points="775.5,388.6 775.3,479.2 798.8,465.5 799.1,374.9 "/>
<polygon fill="#FFF7E4" points="775.5,388.6 775.3,479.2 774.2,478.6 774.5,388 "/>
<path fill="#FFE5A7" d="M775.5,388.6l-1-0.6c2.1-0.5,4.1-1.2,5.9-2.2L775.5,388.6z"/>
<g enable-background="new    ">
	<defs>
		<polygon id="SVGID_29_" enable-background="new    " points="738.3,366.4 756.6,355.7 775.8,366.8 757.5,377.4 		"/>
	</defs>
	<clipPath id="SVGID_30_">
		<use xlink:href="#SVGID_29_"  overflow="visible"/>
	</clipPath>
	<polyline clip-path="url(#SVGID_30_)" fill="#FFFFFF" points="775.8,366.8 756.6,355.7 738.3,366.4 757.5,377.4 775.8,366.8 	"/>
</g>
<g enable-background="new    ">
	<defs>
		<polygon id="SVGID_31_" enable-background="new    " points="744.8,367 758.1,359.3 769.1,365.7 755.9,373.4 		"/>
	</defs>
	<clipPath id="SVGID_32_">
		<use xlink:href="#SVGID_31_"  overflow="visible"/>
	</clipPath>
	<polyline clip-path="url(#SVGID_32_)" fill="#F69E89" points="769.1,365.7 766.1,364 761,366.9 756,364 761.1,361.1 758.1,359.3 
		744.8,367 747.9,368.8 753.4,365.6 758.4,368.4 752.8,371.7 755.9,373.4 769.1,365.7 	"/>
</g>
<path fill="#F5967F" d="M798.8,384.8l-23.4,13.6l-1-0.6l-0.1,0c-6.1,1.3-13,0.5-17.6-2.2l-29.6-17.1c-2.6-1.5-4.2-3.3-4.7-5.4
	c-0.1-0.3-0.1-0.7-0.1-1h0v-2.3c-0.4,1.1-0.5,2.3-0.2,3.4c0.5,2.2,2.2,4.1,4.9,5.7l29.6,17.1c4.7,2.7,11.7,3.6,17.8,2.2l1.1,0.6
	l23.6-13.7L798.8,384.8z"/>
<path fill="#F5967F" d="M798.8,392.8l-23.4,13.6l-1-0.6l-0.1,0c-6.1,1.3-13,0.5-17.6-2.2l-29.6-17.1c-2.6-1.5-4.2-3.3-4.7-5.4
	c-0.1-0.3-0.1-0.7-0.1-1h0v-2.3c-0.4,1.1-0.5,2.3-0.2,3.4c0.5,2.2,2.2,4.1,4.9,5.7l29.6,17.1c4.7,2.7,11.7,3.6,17.8,2.2l1.1,0.6
	l23.6-13.7L798.8,392.8z"/>
<path fill="#F5967F" d="M798.8,400.8l-23.4,13.6l-1-0.6l-0.1,0c-6.1,1.3-13,0.5-17.6-2.2l-29.6-17.1c-2.6-1.5-4.2-3.3-4.7-5.4
	c-0.1-0.3-0.1-0.7-0.1-1h0v-2.3c-0.4,1.1-0.5,2.3-0.2,3.4c0.5,2.2,2.2,4.1,4.9,5.7l29.6,17.1c4.7,2.7,11.7,3.6,17.8,2.2l1.1,0.6
	l23.6-13.7L798.8,400.8z"/>
<path fill="#F5967F" d="M798.8,408.8l-23.4,13.6l-1-0.6l-0.1,0c-6.1,1.3-13,0.5-17.6-2.2l-29.6-17.1c-2.6-1.5-4.2-3.3-4.7-5.4
	c-0.1-0.3-0.1-0.7-0.1-1h0v-2.3c-0.4,1.1-0.5,2.3-0.2,3.4c0.5,2.2,2.2,4.1,4.9,5.7l29.6,17.1c4.7,2.7,11.7,3.6,17.8,2.2l1.1,0.6
	l23.6-13.7L798.8,408.8z"/>
<path fill="#F5967F" d="M798.8,416.8l-23.4,13.6l-1-0.6l-0.1,0c-6.1,1.3-13,0.5-17.6-2.2l-29.6-17.1c-2.6-1.5-4.2-3.3-4.7-5.4
	c-0.1-0.3-0.1-0.7-0.1-1h0v-2.3c-0.4,1.1-0.5,2.3-0.2,3.4c0.5,2.2,2.2,4.1,4.9,5.7l29.6,17.1c4.7,2.7,11.7,3.6,17.8,2.2l1.1,0.6
	l23.6-13.7L798.8,416.8z"/>
<path fill="#F5967F" d="M798.8,424.8l-23.4,13.6l-1-0.6l-0.1,0c-6.1,1.3-13,0.5-17.6-2.2l-29.6-17.1c-2.6-1.5-4.2-3.3-4.7-5.4
	c-0.1-0.3-0.1-0.7-0.1-1h0v-2.3c-0.4,1.1-0.5,2.3-0.2,3.4c0.5,2.2,2.2,4.1,4.9,5.7l29.6,17.1c4.7,2.7,11.7,3.6,17.8,2.2l1.1,0.6
	l23.6-13.7L798.8,424.8z"/>
<path fill="#F5967F" d="M798.8,432.8l-23.4,13.6l-1-0.6l-0.1,0c-6.1,1.3-13,0.5-17.6-2.2l-29.6-17.1c-2.6-1.5-4.2-3.3-4.7-5.4
	c-0.1-0.3-0.1-0.7-0.1-1h0v-2.3c-0.4,1.1-0.5,2.3-0.2,3.4c0.5,2.2,2.2,4.1,4.9,5.7l29.6,17.1c4.7,2.7,11.7,3.6,17.8,2.2l1.1,0.6
	l23.6-13.7L798.8,432.8z"/>
<path fill="#F5967F" d="M798.8,440.8l-23.4,13.6l-1-0.6l-0.1,0c-6.1,1.3-13,0.5-17.6-2.2l-29.6-17.1c-2.6-1.5-4.2-3.3-4.7-5.4
	c-0.1-0.3-0.1-0.7-0.1-1h0v-2.3c-0.4,1.1-0.5,2.3-0.2,3.4c0.5,2.2,2.2,4.1,4.9,5.7l29.6,17.1c4.7,2.7,11.7,3.6,17.8,2.2l1.1,0.6
	l23.6-13.7L798.8,440.8z"/>
<path fill="#F5967F" d="M798.8,448.8l-23.4,13.6l-1-0.6l-0.1,0c-6.1,1.3-13,0.5-17.6-2.2l-29.6-17.1c-2.6-1.5-4.2-3.3-4.7-5.4
	c-0.1-0.3-0.1-0.7-0.1-1h0v-2.3c-0.4,1.1-0.5,2.3-0.2,3.4c0.5,2.2,2.2,4.1,4.9,5.7l29.6,17.1c4.7,2.7,11.7,3.6,17.8,2.2l1.1,0.6
	l23.6-13.7L798.8,448.8z"/>
<path fill="#F5967F" d="M798.8,456.8l-23.4,13.6l-1-0.6l-0.1,0c-6.1,1.3-13,0.5-17.6-2.2l-29.6-17.1c-2.6-1.5-4.2-3.3-4.7-5.4
	c-0.1-0.3-0.1-0.7-0.1-1h0v-2.3c-0.4,1.1-0.5,2.3-0.2,3.4c0.5,2.2,2.2,4.1,4.9,5.7l29.6,17.1c4.7,2.7,11.7,3.6,17.8,2.2l1.1,0.6
	l23.6-13.7L798.8,456.8z"/>
<polygon fill="#FFDD8E" points="762.1,440.5 722.4,464 661.5,429.4 701.2,406 "/>
<polygon fill="#FFBD6A" points="762.1,440.5 761.9,485.3 722.2,508.8 722.4,464 "/>
<polygon fill="#FFF5D4" points="722.4,464 722.2,508.8 661.4,474.3 661.5,429.4 "/>
<polygon fill="#97D2E8" points="726.7,425 710.5,434.4 693.1,424.3 709.3,414.9 "/>
<polygon fill="#43A4C9" points="726.7,425 726.7,436.4 710.5,445.8 710.5,434.4 "/>
<polygon fill="#EDF6F9" points="710.5,434.4 710.5,445.8 693.1,435.7 693.1,424.3 "/>
<g enable-background="new    ">
	<g>
		<polygon fill="#F1526B" points="684.7,426.9 684.7,431.3 680.9,433.5 		"/>
	</g>
	<g>
		<polygon fill="#FFF2D3" points="680.9,433.5 674.4,429.7 678.2,423.1 684.7,426.9 		"/>
	</g>
	<g>
		<polygon fill="#F59680" points="680.4,431.7 676.1,429.2 678.6,424.9 682.9,427.4 		"/>
	</g>
</g>
<polygon fill="#F1526B" points="746.8,436.2 746.8,441.1 742.5,443.6 "/>
<polygon fill="#FFF2D3" points="742.5,443.6 736,439.8 740.3,432.4 746.8,436.2 "/>
<polygon fill="#F59680" points="742.2,441.9 737.6,439.3 740.6,434.1 745.2,436.7 "/>
<g enable-background="new    ">
	<defs>
		<polygon id="SVGID_33_" enable-background="new    " points="720.9,439.8 720.9,434.8 718.5,436.2 718.5,441.2 		"/>
	</defs>
	<use xlink:href="#SVGID_33_"  overflow="visible" fill="#FFFFFF"/>
	<clipPath id="SVGID_34_">
		<use xlink:href="#SVGID_33_"  overflow="visible"/>
	</clipPath>
</g>
<g enable-background="new    ">
	<defs>
		<polygon id="SVGID_721_" enable-background="new    " points="661.4,437.8 701.4,414.5 762.3,449.7 722.3,472.9 		"/>
	</defs>
	<clipPath id="SVGID_35_">
		<use xlink:href="#SVGID_721_"  overflow="visible"/>
	</clipPath>
	<polyline clip-path="url(#SVGID_35_)" fill="#F5967F" points="762.3,449.7 762,449.5 722.4,472 661.8,437.6 661.4,437.8 
		722.3,472.3 722.4,472.4 762.3,449.7 	"/>
</g>
<g enable-background="new    ">
	<defs>
		<polygon id="SVGID_720_" enable-background="new    " points="661.4,445.3 701.4,422 762.3,457.2 722.3,480.4 		"/>
	</defs>
	<clipPath id="SVGID_36_">
		<use xlink:href="#SVGID_720_"  overflow="visible"/>
	</clipPath>
	<polyline clip-path="url(#SVGID_36_)" fill="#F5967F" points="762.3,457.2 762,457 722.4,479.5 661.7,445.1 661.4,445.3 
		722.3,479.8 722.4,479.9 762.3,457.2 	"/>
</g>
<g enable-background="new    ">
	<defs>
		<polygon id="SVGID_719_" enable-background="new    " points="661.4,452.8 701.4,429.5 762.3,464.7 722.3,487.9 		"/>
	</defs>
	<clipPath id="SVGID_37_">
		<use xlink:href="#SVGID_719_"  overflow="visible"/>
	</clipPath>
	<polyline clip-path="url(#SVGID_37_)" fill="#F5967F" points="762,464.4 722.4,487 661.7,452.6 661.4,452.8 722.2,487.3 
		722.4,487.4 762.3,464.7 762,464.4 	"/>
</g>
<g enable-background="new    ">
	<defs>
		<polygon id="SVGID_718_" enable-background="new    " points="661.4,460.3 701.4,437 762.3,472.2 722.3,495.4 		"/>
	</defs>
	<clipPath id="SVGID_38_">
		<use xlink:href="#SVGID_718_"  overflow="visible"/>
	</clipPath>
	<polyline clip-path="url(#SVGID_38_)" fill="#F5967F" points="762.3,472.2 762,472 722.4,494.5 661.8,460.1 661.4,460.3 
		722.3,494.8 722.4,494.9 762.3,472.2 	"/>
</g>
<g enable-background="new    ">
	<defs>
		<polygon id="SVGID_717_" enable-background="new    " points="661.4,467.8 701.4,444.5 762.3,479.7 722.3,502.9 		"/>
	</defs>
	<clipPath id="SVGID_39_">
		<use xlink:href="#SVGID_717_"  overflow="visible"/>
	</clipPath>
	<polyline clip-path="url(#SVGID_39_)" fill="#F5967F" points="762.3,479.7 762,479.5 722.4,502 661.7,467.6 661.4,467.8 
		722.3,502.3 722.4,502.4 762.3,479.7 	"/>
</g>
<g enable-background="new    ">
	<g>
		<polygon fill="#FFCABE" points="657.9,461.9 657.9,466.8 642.5,457.9 642.5,453 		"/>
	</g>
	<g>
		<polygon fill="#F1526B" points="642.5,453 642.5,457.9 609.3,477.3 609.3,472.4 		"/>
	</g>
	<g>
		<path fill="#F5967F" d="M642.5,452.2l16.8,9.7L624.7,482l-16.8-9.7L642.5,452.2z M624.6,481.2l33.2-19.3l-15.4-8.9l-33.2,19.3
			L624.6,481.2"/>
	</g>
	<g>
		<polygon fill="#F1526B" points="659.3,461.9 659.3,466.8 624.6,486.9 624.7,482 		"/>
	</g>
	<g>
		<polygon fill="#FFCABE" points="624.7,482 624.6,486.9 607.9,477.3 607.9,472.4 		"/>
	</g>
</g>
<polygon fill="#BCE5EC" points="611,473.4 624.6,481.3 656.2,463 642.5,455.1 "/>
<polygon fill="#FFDD8E" points="697.4,458.5 667,476.2 635.1,457.8 665.5,440.1 "/>
<polygon fill="#FFBD6A" points="697.4,458.5 697.3,495.2 666.8,512.9 667,476.2 "/>
<polygon fill="#FFF5D4" points="667,476.2 666.8,512.9 635,494.5 635.1,457.8 "/>
<g enable-background="new    ">
	<g>
		<polygon fill="#F5967F" points="680,461.8 674.9,464.8 669.1,461.5 674.3,458.5 		"/>
	</g>
	<g>
		<polygon fill="#F1526B" points="680,461.8 680,465.1 674.9,468.1 674.9,464.8 		"/>
	</g>
	<g>
		<polygon fill="#FFCABE" points="674.9,464.8 674.9,468.1 669.1,464.8 669.1,461.5 		"/>
	</g>
</g>
<g enable-background="new    ">
	<g>
		<polygon fill="#F5967F" points="670,456.8 664.9,459.8 659.1,456.5 664.3,453.5 		"/>
	</g>
	<g>
		<polygon fill="#F1526B" points="670,456.8 670,460.1 664.9,463.1 664.9,459.8 		"/>
	</g>
	<g>
		<polygon fill="#FFCABE" points="664.9,459.8 664.9,463.1 659.1,459.8 659.1,456.5 		"/>
	</g>
</g>
<g enable-background="new    ">
	<defs>
		<polygon id="SVGID_716_" enable-background="new    " points="634.5,467.8 665.3,449.9 697.7,468.6 666.8,486.5 		"/>
	</defs>
	<clipPath id="SVGID_40_">
		<use xlink:href="#SVGID_716_"  overflow="visible"/>
	</clipPath>
	<polyline clip-path="url(#SVGID_40_)" fill="#F5967F" points="697.3,468.4 666.9,485.6 634.8,467.6 634.5,467.8 666.9,486 
		697.7,468.6 697.3,468.4 	"/>
</g>
<g enable-background="new    ">
	<defs>
		<polygon id="SVGID_715_" enable-background="new    " points="634.5,475.8 665.3,457.9 697.7,476.6 666.8,494.5 		"/>
	</defs>
	<clipPath id="SVGID_41_">
		<use xlink:href="#SVGID_715_"  overflow="visible"/>
	</clipPath>
	<polyline clip-path="url(#SVGID_41_)" fill="#F5967F" points="697.7,476.6 697.3,476.4 666.9,493.6 634.8,475.6 634.5,475.8 
		666.9,494 697.7,476.6 	"/>
</g>
<g enable-background="new    ">
	<defs>
		<polygon id="SVGID_714_" enable-background="new    " points="634.5,483.8 665.3,465.9 697.7,484.6 666.8,502.5 		"/>
	</defs>
	<clipPath id="SVGID_42_">
		<use xlink:href="#SVGID_714_"  overflow="visible"/>
	</clipPath>
	<polyline clip-path="url(#SVGID_42_)" fill="#F5967F" points="697.7,484.6 697.3,484.4 666.9,501.6 634.8,483.6 634.5,483.8 
		666.9,502 697.7,484.6 	"/>
</g>
<g enable-background="new    ">
	<defs>
		<polygon id="SVGID_713_" enable-background="new    " points="644.5,500 644.6,486.8 652.1,491.2 652.1,504.3 		"/>
	</defs>
	<clipPath id="SVGID_43_">
		<use xlink:href="#SVGID_713_"  overflow="visible"/>
	</clipPath>
	<g clip-path="url(#SVGID_43_)">
		<polyline fill="#FFFFFF" points="652.1,491.2 644.6,486.8 644.5,500 652.1,504.3 652.1,491.2 		"/>
	</g>
</g>
<g enable-background="new    ">
	<g>
		<polygon fill="#E2F1F6" points="637.3,500 636.5,500.5 635.7,500 636.5,499.6 		"/>
	</g>
	<g>
		<polygon fill="#43A4C9" points="637.3,500 637.2,516.3 636.4,516.8 636.5,500.5 		"/>
	</g>
	<g>
		<polygon fill="#EDF6F9" points="636.5,500.5 636.4,516.8 635.7,516.4 635.7,500 		"/>
	</g>
</g>
<g enable-background="new    ">
	<g>
		<polygon fill="#E2F1F6" points="626.3,494 625.5,494.5 624.7,494 625.5,493.6 		"/>
	</g>
	<g>
		<polygon fill="#43A4C9" points="626.3,494 626.2,510.3 625.4,510.8 625.5,494.5 		"/>
	</g>
	<g>
		<polygon fill="#EDF6F9" points="625.5,494.5 625.4,510.8 624.7,510.3 624.7,494 		"/>
	</g>
</g>
<g enable-background="new    ">
	<g>
		<polygon fill="#97D2E8" points="656.3,490.2 632.7,503.9 618.7,495.8 642.2,482.1 		"/>
	</g>
	<g>
		<polygon fill="#43A4C9" points="656.3,490.2 656.3,492.6 632.7,506.3 632.7,503.9 		"/>
	</g>
	<g>
		<polygon fill="#EDF6F9" points="632.7,503.9 632.7,506.3 618.7,498.2 618.7,495.8 		"/>
	</g>
</g>
<g enable-background="new    ">
	<defs>
		<polygon id="SVGID_712_" enable-background="new    " points="643.2,478.1 643.2,466.8 653,472.5 653,483.7 		"/>
	</defs>
	<clipPath id="SVGID_44_">
		<use xlink:href="#SVGID_712_"  overflow="visible"/>
	</clipPath>
	<polyline clip-path="url(#SVGID_44_)" fill="#F1526B" points="649.6,470.5 646.7,468.8 646.7,472.8 643.2,470.8 643.2,474.1 
		646.7,476.1 646.6,480 649.5,481.7 649.5,477.8 653,479.7 653,476.4 649.6,474.4 649.6,470.5 	"/>
</g>
<g enable-background="new    ">
	<g>
		<polygon fill="#F1526B" points="600.2,501.3 600.1,506.2 581.2,517.2 581.2,512.3 		"/>
	</g>
	<g>
		<polygon fill="#FFCABE" points="648.1,529 648.1,533.9 600.1,506.2 600.2,501.3 		"/>
	</g>
	<g>
		<path fill="#F5967F" d="M600.2,500.5l49.4,28.5l-20.3,11.8l-49.4-28.5L600.2,500.5z M629.2,540l18.9-11l-48-27.7l-18.9,11
			L629.2,540"/>
	</g>
	<g>
		<polygon fill="#F1526B" points="649.5,529 649.5,533.9 629.2,545.7 629.2,540.9 		"/>
	</g>
	<g>
		<polygon fill="#FFCABE" points="629.2,540.9 629.2,545.7 579.8,517.2 579.8,512.3 		"/>
	</g>
</g>
<polygon fill="#BCE5EC" points="583,513.4 629.2,540 646.4,530.1 600.2,503.4 "/>
<g>
	<polygon fill="#F1526B" points="812.1,620.7 826.6,602.7 826.2,614.4 812.1,622 	"/>
	<polygon fill="#F5967F" points="812.1,620.7 783.2,603.8 797.6,585.9 826.6,602.7 	"/>
	<polygon fill="#FFCABE" points="812.1,622 783.2,605.2 783.2,603.8 812.1,620.7 	"/>
</g>
<g>
	<polygon fill="#F1526B" points="849,642.2 863.4,624.3 863.1,636 848.9,643.6 	"/>
	<polygon fill="#F5967F" points="849,642.2 820,625.4 834.4,607.5 863.4,624.3 	"/>
	<polygon fill="#FFCABE" points="848.9,643.6 820,626.8 820,625.4 849,642.2 	"/>
</g>
<g>
	<polygon fill="#F1526B" points="885.9,664.3 900.4,646.4 900,658.1 885.9,665.7 	"/>
	<polygon fill="#F5967F" points="885.9,664.3 857,647.5 871.4,629.6 900.4,646.4 	"/>
	<polygon fill="#FFCABE" points="885.9,665.7 857,648.9 857,647.5 885.9,664.3 	"/>
</g>
<g>
	<path fill="#FFFFFF" d="M767.2,466l-0.7,65.3c0,0,2.5,2.3,5.1,0c0,0-0.3-66.3-0.3-66.3L767.2,466z"/>
	<path fill="#FFFFFF" d="M767.9,459.3l10.5-6.4c0,0,4.9,0.1,4.5,6.8c0,0-7.5,12-15.7,7.5c0-0.1,0.3-4.5-3.2-5.3L767.9,459.3z"/>
	<g>
		<defs>
			<path id="SVGID_45_" d="M767.2,466l-0.7,65.3c0,0,2.5,2.3,5.1,0c0,0-0.3-66.3-0.3-66.3L767.2,466z"/>
		</defs>
		<clipPath id="SVGID_46_">
			<use xlink:href="#SVGID_45_"  overflow="visible"/>
		</clipPath>
		<path clip-path="url(#SVGID_46_)" fill="#E2E2E2" d="M769.5,466.4c0.4,0.1,0.2,50.1-0.3,67.3c-0.3,10.1,7.8-1,7.8-1l-2.4-64.1
			L769.5,466.4z"/>
	</g>
	<path fill="#D1D1D1" d="M766.5,531.1c0,0,2.9,1.3,5.2,0c0,0,0,6.7,0,6.7s-2.9,2.1-5.2-0.1C766.5,537.7,766.5,531.1,766.5,531.1z"/>
	<g>
		<defs>
			<path id="SVGID_47_" d="M766.5,531.1c0,0,2.9,1.3,5.2,0c0,0,0,6.7,0,6.7s-2.9,2.1-5.2-0.1C766.5,537.7,766.5,531.1,766.5,531.1z"
				/>
		</defs>
		<clipPath id="SVGID_48_">
			<use xlink:href="#SVGID_47_"  overflow="visible"/>
		</clipPath>
		<path clip-path="url(#SVGID_48_)" fill="#B7B7B7" d="M769.2,531.3l-0.1,8.2l3.2-0.8l0.9-4.8c0,0-0.7-3.5-0.8-3.5
			C772.4,530.5,769.2,531.3,769.2,531.3z"/>
	</g>
	<g>
		<defs>
			<path id="SVGID_49_" d="M767.9,459.3l10.5-6.4c0,0,4.9,0.1,4.5,6.8c0,0-7.5,12-15.7,7.5c0-0.1,0.3-4.5-3.2-5.3L767.9,459.3z"/>
		</defs>
		<clipPath id="SVGID_50_">
			<use xlink:href="#SVGID_49_"  overflow="visible"/>
		</clipPath>
		<path clip-path="url(#SVGID_50_)" fill="#E2E2E2" d="M766.1,464.6c0.7-0.5,15.1-9.2,15.7-9.9c0.5-0.5,0.5,0.4,0.8-0.3
			c0.2-0.5-0.3-0.6,0.2-0.7c1.1-0.2,2.1,1.5,2.6,2.2c0.4,0.6,0.8,1.3,0.7,2c-0.1,0.8-0.8,1.8-1.3,2.5c-1.3,2-3.3,3.4-5.2,4.7
			c-1,0.7-2.1,1.2-3.2,1.7c-1.1,0.5-2.1,1.1-3.2,1.6c-0.7,0.3-1.4,0.8-2.2,1c-0.8,0.2-1.7,0.3-2.6,0.3c-0.7,0-1.4,0-2-0.5
			c-0.4-0.3-0.7-0.6-0.9-1c-0.5-0.6-0.4-1.2-0.4-1.9c0-0.2,0-0.4,0-0.5c0-0.2-0.2-0.4-0.2-0.5C764.9,464.8,765.7,464.8,766.1,464.6"
			/>
	</g>
	<path fill="#FFFFFF" d="M762.4,464l-27.2,20.4c0,0-0.3,1.5,0.4,2.2c0,0,24.6-13.1,26-16.6c0.1-0.1,1.1-2.3,3.3-3.4
		c0,0-0.2-1.6-0.2-1.6L762.4,464z"/>
	<path fill="#E5E5E5" d="M761.7,463.3c0,0,4.3,1.8,3,5.4c0,0-2.6,1.8-4.3-0.8C758.7,465.3,760.8,463.6,761.7,463.3z"/>
	<path fill="#D1D1D1" d="M764,461.8c-0.1,0-2.6,1.6-2.6,1.6s4.1,1.5,3.3,5.3l2.5-1.5C767.2,467.2,767.6,462.6,764,461.8z"/>
	<g>
		<defs>
			<path id="SVGID_51_" d="M762.4,464l-27.2,20.4c0,0-0.3,1.5,0.4,2.2c0,0,24.6-13.1,26-16.6c0.1-0.1,1.1-2.3,3.3-3.4
				c0,0-0.2-1.6-0.2-1.6L762.4,464z"/>
		</defs>
		<clipPath id="SVGID_52_">
			<use xlink:href="#SVGID_51_"  overflow="visible"/>
		</clipPath>
		<polygon clip-path="url(#SVGID_52_)" fill="#E2E2E2" points="761.9,468.4 734.7,486.3 736,488.3 761.5,477.1 764,469.1 
			765.3,469.3 766.3,465.5 		"/>
	</g>
	<g>
		<defs>
			<path id="SVGID_53_" d="M761.9,463.3c0,0,4.1,1.8,2.8,5.4c0,0-2.6,1.8-4.3-0.8C758.7,465.3,761.1,463.5,761.9,463.3z"/>
		</defs>
		<clipPath id="SVGID_54_">
			<use xlink:href="#SVGID_53_"  overflow="visible"/>
		</clipPath>
		<path clip-path="url(#SVGID_54_)" fill="#D6D6D6" d="M759.2,465.7c0.4,1,1.3,1.8,2.4,1.7c1.1,0,1.7-0.6,2.3-1.1
			c0.1-0.1,0.3-0.4,0.4-0.6c0,0,0.1,0,0.5,0.1c0.7,0.2,1.3,0.7,1.5,1.5c0.2,0.9-0.6,1.8-1.4,2.3c-0.7,0.3-1.5,0.5-2.2,0.6
			c-0.6,0.1-1.1,0.1-1.7-0.1c-0.5-0.2-1-0.6-1.3-1c-0.2-0.3-0.4-0.7-0.5-1c-0.1-0.2-0.1-0.3-0.1-0.5c0-0.3-0.1-0.5-0.1-0.8
			c0-0.3,0.3-0.4,0.3-0.6c0.1,0,0.2,0,0.2,0"/>
	</g>
	<g>
		<defs>
			<path id="SVGID_55_" d="M764.1,461.9c-0.1,0-2.6,1.5-2.6,1.5s4,1.4,3.2,5.2l2.5-1.5C767.2,467.2,767.6,462.8,764.1,461.9z"/>
		</defs>
		<clipPath id="SVGID_56_">
			<use xlink:href="#SVGID_55_"  overflow="visible"/>
		</clipPath>
		<polygon clip-path="url(#SVGID_56_)" fill="#BFBFBF" points="766.8,464.3 764.3,465.7 764.4,469.3 767.2,468.3 768.1,465 		"/>
	</g>
	<path fill="#FFFFFF" d="M765.5,468.2l28.8,17.6c0,0,1.5-0.3,1.8-1.2c0,0-21.3-18-25.1-18.1c-0.1,0-2.5-0.2-4.4-1.8
		c0,0-1.4,0.8-1.4,0.8L765.5,468.2z"/>
	<path fill="#FFFFFF" d="M764.6,462.6l-12.9-31.9c0,0-1.3-0.7-2.2-0.1c0,0,6.4,26.3,9.4,28.5c0.1,0.1,2.5,1.5,3.3,3.8
		c0,0,1.6,0.2,1.6,0.2L764.6,462.6z"/>
	<g>
		<defs>
			<path id="SVGID_57_" d="M764.7,462.9l-13-32.1c0,0-1.3-0.7-2.2-0.1c0,0,6.4,26.3,9.4,28.5c0.1,0.1,2.5,1.5,3.3,3.8
				c0,0,1.6,0.2,1.6,0.2L764.7,462.9z"/>
		</defs>
		<clipPath id="SVGID_58_">
			<use xlink:href="#SVGID_57_"  overflow="visible"/>
		</clipPath>
		<polygon clip-path="url(#SVGID_58_)" fill="#E2E2E2" points="751,430 763.9,463.2 765.9,462.9 751.9,429.7 		"/>
	</g>
	<g>
		<defs>
			<path id="SVGID_59_" d="M765.5,468.2l28.8,17.6c0,0,1.5-0.3,1.8-1.2c0,0-21.3-18-25.1-18.1c-0.1,0-2.5-0.2-4.4-1.8
				c0,0-1.4,0.8-1.4,0.8L765.5,468.2z"/>
		</defs>
		<clipPath id="SVGID_60_">
			<use xlink:href="#SVGID_59_"  overflow="visible"/>
		</clipPath>
		<polygon clip-path="url(#SVGID_60_)" fill="#E2E2E2" points="765.6,465 796.6,485.5 800,484.1 777.5,467.8 767.3,464 		"/>
	</g>
</g>
<g>
	<g>
		<polygon fill="#F1526B" points="775.1,597 789.5,579.1 789.2,590.8 775.1,598.4 		"/>
		<polygon fill="#F5967F" points="775.1,597 746.2,580.2 760.6,562.3 789.5,579.1 		"/>
		<polygon fill="#FFCABE" points="775.1,598.4 746.1,581.6 746.2,580.2 775.1,597 		"/>
	</g>
	<g>
		<polygon fill="#FFDD8E" points="762.5,566.9 783.8,579.2 773.2,592.4 751.9,580.1 		"/>
		<g>
			<defs>
				<polygon id="SVGID_61_" points="762.5,566.9 783.8,579.2 773.2,592.4 751.9,580.1 				"/>
			</defs>
			<clipPath id="SVGID_62_">
				<use xlink:href="#SVGID_61_"  overflow="visible"/>
			</clipPath>
			
				<line clip-path="url(#SVGID_62_)" fill="none" stroke="#FFC550" stroke-miterlimit="10" x1="754.4" y1="582.3" x2="765.6" y2="568.2"/>
			
				<line clip-path="url(#SVGID_62_)" fill="none" stroke="#FFC550" stroke-miterlimit="10" x1="758.2" y1="584.5" x2="769.3" y2="570.4"/>
			
				<line clip-path="url(#SVGID_62_)" fill="none" stroke="#FFC550" stroke-miterlimit="10" x1="761.6" y1="586.3" x2="772.8" y2="572.3"/>
			
				<line clip-path="url(#SVGID_62_)" fill="none" stroke="#FFC550" stroke-miterlimit="10" x1="765.4" y1="588.5" x2="776.6" y2="574.5"/>
			
				<line clip-path="url(#SVGID_62_)" fill="none" stroke="#FFC550" stroke-miterlimit="10" x1="769.3" y1="591.1" x2="780.5" y2="577"/>
		</g>
	</g>
</g>
<g>
	<g>
		<polygon fill="#F1526B" points="739.4,574 753.8,556.1 753.5,567.8 739.3,575.4 		"/>
		<polygon fill="#F5967F" points="739.4,574 710.4,557.2 724.9,539.3 753.8,556.1 		"/>
		<polygon fill="#FFCABE" points="739.3,575.4 710.4,558.6 710.4,557.2 739.4,574 		"/>
	</g>
	<g>
		<polygon fill="#FFDD8E" points="726.8,543.9 748.1,556.3 737.4,569.4 716.2,557.1 		"/>
		<g>
			<defs>
				<polygon id="SVGID_63_" points="726.8,543.9 748.1,556.3 737.4,569.4 716.2,557.1 				"/>
			</defs>
			<clipPath id="SVGID_64_">
				<use xlink:href="#SVGID_63_"  overflow="visible"/>
			</clipPath>
			
				<line clip-path="url(#SVGID_64_)" fill="none" stroke="#FFC550" stroke-miterlimit="10" x1="718.7" y1="559.3" x2="729.8" y2="545.2"/>
			
				<line clip-path="url(#SVGID_64_)" fill="none" stroke="#FFC550" stroke-miterlimit="10" x1="722.5" y1="561.5" x2="733.6" y2="547.4"/>
			
				<line clip-path="url(#SVGID_64_)" fill="none" stroke="#FFC550" stroke-miterlimit="10" x1="725.9" y1="563.3" x2="737" y2="549.3"/>
			
				<line clip-path="url(#SVGID_64_)" fill="none" stroke="#FFC550" stroke-miterlimit="10" x1="729.7" y1="565.6" x2="740.8" y2="551.5"/>
			
				<line clip-path="url(#SVGID_64_)" fill="none" stroke="#FFC550" stroke-miterlimit="10" x1="733.6" y1="568.1" x2="744.8" y2="554"/>
		</g>
	</g>
</g>
<g>
	<polygon fill="#F1526B" points="921,686.2 935.4,668.3 935.1,680 921,687.6 	"/>
	<polygon fill="#F5967F" points="921,686.2 892.1,669.4 906.5,651.5 935.4,668.3 	"/>
	<polygon fill="#FFCABE" points="921,687.6 892,670.8 892.1,669.4 921,686.2 	"/>
	<g>
		<polygon fill="#FFDD8E" points="908.4,656 929.7,668.4 919.1,681.6 897.8,669.2 		"/>
		<g>
			<defs>
				<polygon id="SVGID_65_" points="908.4,656 929.7,668.4 919.1,681.6 897.8,669.2 				"/>
			</defs>
			<clipPath id="SVGID_66_">
				<use xlink:href="#SVGID_65_"  overflow="visible"/>
			</clipPath>
			
				<line clip-path="url(#SVGID_66_)" fill="none" stroke="#FFC550" stroke-miterlimit="10" x1="900.3" y1="671.4" x2="911.5" y2="657.4"/>
			
				<line clip-path="url(#SVGID_66_)" fill="none" stroke="#FFC550" stroke-miterlimit="10" x1="904.1" y1="673.7" x2="915.3" y2="659.6"/>
			
				<line clip-path="url(#SVGID_66_)" fill="none" stroke="#FFC550" stroke-miterlimit="10" x1="907.5" y1="675.5" x2="918.7" y2="661.5"/>
			
				<line clip-path="url(#SVGID_66_)" fill="none" stroke="#FFC550" stroke-miterlimit="10" x1="911.3" y1="677.7" x2="922.5" y2="663.7"/>
			
				<line clip-path="url(#SVGID_66_)" fill="none" stroke="#FFC550" stroke-miterlimit="10" x1="915.3" y1="680.3" x2="926.4" y2="666.2"/>
		</g>
	</g>
</g>
<g>
	<polygon fill="#FFDD8E" points="798.9,590.5 820.2,602.9 809.6,616.1 788.3,603.7 	"/>
	<g>
		<defs>
			<polygon id="SVGID_67_" points="798.9,590.5 820.2,602.9 809.6,616.1 788.3,603.7 			"/>
		</defs>
		<clipPath id="SVGID_68_">
			<use xlink:href="#SVGID_67_"  overflow="visible"/>
		</clipPath>
		
			<line clip-path="url(#SVGID_68_)" fill="none" stroke="#FFC550" stroke-miterlimit="10" x1="790.9" y1="605.9" x2="802" y2="591.8"/>
		
			<line clip-path="url(#SVGID_68_)" fill="none" stroke="#FFC550" stroke-miterlimit="10" x1="794.6" y1="608.1" x2="805.8" y2="594.1"/>
		
			<line clip-path="url(#SVGID_68_)" fill="none" stroke="#FFC550" stroke-miterlimit="10" x1="798.1" y1="610" x2="809.2" y2="595.9"/>
		
			<line clip-path="url(#SVGID_68_)" fill="none" stroke="#FFC550" stroke-miterlimit="10" x1="801.9" y1="612.2" x2="813" y2="598.1"/>
		
			<line clip-path="url(#SVGID_68_)" fill="none" stroke="#FFC550" stroke-miterlimit="10" x1="805.8" y1="614.7" x2="817" y2="600.7"/>
	</g>
</g>
<g>
	<polygon fill="#FFDD8E" points="836.3,612.1 857.6,624.4 846.9,637.6 825.7,625.3 	"/>
	<g>
		<defs>
			<polygon id="SVGID_69_" points="836.3,612.1 857.6,624.4 846.9,637.6 825.7,625.3 			"/>
		</defs>
		<clipPath id="SVGID_70_">
			<use xlink:href="#SVGID_69_"  overflow="visible"/>
		</clipPath>
		
			<line clip-path="url(#SVGID_70_)" fill="none" stroke="#FFC550" stroke-miterlimit="10" x1="828.2" y1="627.5" x2="839.3" y2="613.4"/>
		
			<line clip-path="url(#SVGID_70_)" fill="none" stroke="#FFC550" stroke-miterlimit="10" x1="832" y1="629.7" x2="843.1" y2="615.6"/>
		
			<line clip-path="url(#SVGID_70_)" fill="none" stroke="#FFC550" stroke-miterlimit="10" x1="835.4" y1="631.5" x2="846.5" y2="617.5"/>
		
			<line clip-path="url(#SVGID_70_)" fill="none" stroke="#FFC550" stroke-miterlimit="10" x1="839.2" y1="633.7" x2="850.3" y2="619.7"/>
		
			<line clip-path="url(#SVGID_70_)" fill="none" stroke="#FFC550" stroke-miterlimit="10" x1="843.1" y1="636.3" x2="854.3" y2="622.2"/>
	</g>
</g>
<g>
	<polygon fill="#FFDD8E" points="873.3,634 894.6,646.4 884,659.6 862.7,647.2 	"/>
	<g>
		<defs>
			<polygon id="SVGID_71_" points="873.3,634 894.6,646.4 884,659.6 862.7,647.2 			"/>
		</defs>
		<clipPath id="SVGID_72_">
			<use xlink:href="#SVGID_71_"  overflow="visible"/>
		</clipPath>
		
			<line clip-path="url(#SVGID_72_)" fill="none" stroke="#FFC550" stroke-miterlimit="10" x1="865.2" y1="649.4" x2="876.4" y2="635.3"/>
		
			<line clip-path="url(#SVGID_72_)" fill="none" stroke="#FFC550" stroke-miterlimit="10" x1="869" y1="651.6" x2="880.2" y2="637.6"/>
		
			<line clip-path="url(#SVGID_72_)" fill="none" stroke="#FFC550" stroke-miterlimit="10" x1="872.5" y1="653.5" x2="883.6" y2="639.4"/>
		
			<line clip-path="url(#SVGID_72_)" fill="none" stroke="#FFC550" stroke-miterlimit="10" x1="876.2" y1="655.7" x2="887.4" y2="641.6"/>
		
			<line clip-path="url(#SVGID_72_)" fill="none" stroke="#FFC550" stroke-miterlimit="10" x1="880.2" y1="658.2" x2="891.4" y2="644.2"/>
	</g>
</g>
<g>
	<g>
		<g enable-background="new    ">
			<defs>
				<polygon id="SVGID_73_" enable-background="new    " points="823.3,578.6 837.6,570.3 852,578.6 837.7,586.9 				"/>
			</defs>
			<clipPath id="SVGID_74_">
				<use xlink:href="#SVGID_73_"  overflow="visible"/>
			</clipPath>
			<g clip-path="url(#SVGID_74_)">
				<g>
					<g>
						<g>
							<polyline fill="#E2E2E2" points="852,578.6 837.6,570.3 823.3,578.6 837.7,586.9 852,578.6 							"/>
						</g>
					</g>
				</g>
			</g>
		</g>
	</g>
</g>
<g>
	<g>
		<g enable-background="new    ">
			<defs>
				<polygon id="SVGID_75_" enable-background="new    " points="892.2,619.3 906.5,611 920.9,619.3 906.6,627.6 				"/>
			</defs>
			<clipPath id="SVGID_76_">
				<use xlink:href="#SVGID_75_"  overflow="visible"/>
			</clipPath>
			<g clip-path="url(#SVGID_76_)">
				<g>
					<g>
						<g>
							<polyline fill="#E2E2E2" points="920.9,619.3 906.5,611 892.2,619.3 906.6,627.6 920.9,619.3 							"/>
						</g>
					</g>
				</g>
			</g>
		</g>
	</g>
</g>
<g>
	<g>
		<g enable-background="new    ">
			<defs>
				<polygon id="SVGID_77_" enable-background="new    " points="963,659.7 977.3,651.4 991.7,659.7 977.4,668 				"/>
			</defs>
			<clipPath id="SVGID_78_">
				<use xlink:href="#SVGID_77_"  overflow="visible"/>
			</clipPath>
			<g clip-path="url(#SVGID_78_)">
				<g>
					<g>
						<g>
							<polyline fill="#E2E2E2" points="991.7,659.7 977.3,651.4 963,659.7 977.4,668 991.7,659.7 							"/>
						</g>
					</g>
				</g>
			</g>
		</g>
	</g>
</g>
<g>
	<path fill="#FFFFFF" d="M835.7,505.9l-0.7,65.3c0,0,2.5,2.3,5.1,0c0,0-0.3-66.3-0.3-66.3L835.7,505.9z"/>
	<path fill="#FFFFFF" d="M836.5,499.2l10.5-6.4c0,0,4.9,0.1,4.5,6.8c0,0-7.5,12-15.7,7.5c0-0.1,0.3-4.5-3.2-5.3L836.5,499.2z"/>
	<g>
		<defs>
			<path id="SVGID_79_" d="M835.7,505.9l-0.7,65.3c0,0,2.5,2.3,5.1,0c0,0-0.3-66.3-0.3-66.3L835.7,505.9z"/>
		</defs>
		<clipPath id="SVGID_80_">
			<use xlink:href="#SVGID_79_"  overflow="visible"/>
		</clipPath>
		<path clip-path="url(#SVGID_80_)" fill="#E2E2E2" d="M838,506.3c0.4,0.1,0.2,50.1-0.3,67.3c-0.3,10.1,7.8-1,7.8-1l-2.4-64.1
			L838,506.3z"/>
	</g>
	<path fill="#D1D1D1" d="M835.1,571c0,0,2.9,1.3,5.2,0c0,0,0,6.7,0,6.7s-2.9,2.1-5.2-0.1C835.1,577.6,835.1,571,835.1,571z"/>
	<g>
		<defs>
			<path id="SVGID_81_" d="M835.1,571c0,0,2.9,1.3,5.2,0c0,0,0,6.7,0,6.7s-2.9,2.1-5.2-0.1C835.1,577.6,835.1,571,835.1,571z"/>
		</defs>
		<clipPath id="SVGID_82_">
			<use xlink:href="#SVGID_81_"  overflow="visible"/>
		</clipPath>
		<path clip-path="url(#SVGID_82_)" fill="#B7B7B7" d="M837.7,571.2l-0.1,8.2l3.2-0.8l0.9-4.8c0,0-0.7-3.5-0.8-3.5
			S837.7,571.2,837.7,571.2z"/>
	</g>
	<g>
		<defs>
			<path id="SVGID_83_" d="M836.5,499.2l10.5-6.4c0,0,4.9,0.1,4.5,6.8c0,0-7.5,12-15.7,7.5c0-0.1,0.3-4.5-3.2-5.3L836.5,499.2z"/>
		</defs>
		<clipPath id="SVGID_84_">
			<use xlink:href="#SVGID_83_"  overflow="visible"/>
		</clipPath>
		<path clip-path="url(#SVGID_84_)" fill="#E2E2E2" d="M834.6,504.5c0.7-0.5,15.1-9.2,15.7-9.9c0.5-0.5,0.5,0.4,0.8-0.3
			c0.2-0.5-0.3-0.6,0.2-0.7c1.1-0.2,2.1,1.5,2.6,2.2c0.4,0.6,0.8,1.3,0.7,2c-0.1,0.8-0.8,1.8-1.3,2.5c-1.3,2-3.3,3.4-5.2,4.7
			c-1,0.7-2.1,1.2-3.2,1.7c-1.1,0.5-2.1,1.1-3.2,1.6c-0.7,0.3-1.4,0.8-2.2,1c-0.8,0.2-1.7,0.3-2.6,0.3c-0.7,0-1.4,0-2-0.5
			c-0.4-0.3-0.7-0.6-0.9-1c-0.5-0.6-0.4-1.2-0.4-1.9c0-0.2,0-0.4,0-0.5c0-0.2-0.2-0.4-0.2-0.5C833.4,504.7,834.3,504.7,834.6,504.5"
			/>
	</g>
	<path fill="#FFFFFF" d="M830.9,503.9l-27.2,20.4c0,0-0.3,1.5,0.4,2.2c0,0,24.6-13.1,26-16.6c0.1-0.1,1.1-2.3,3.3-3.4
		c0,0-0.2-1.6-0.2-1.6L830.9,503.9z"/>
	<path fill="#E5E5E5" d="M830.2,503.2c0,0,4.3,1.8,3,5.4c0,0-2.6,1.8-4.3-0.8C827.3,505.2,829.4,503.4,830.2,503.2z"/>
	<path fill="#D1D1D1" d="M832.6,501.7c-0.1,0-2.6,1.6-2.6,1.6s4.1,1.5,3.3,5.3l2.5-1.5C835.7,507,836.2,502.5,832.6,501.7z"/>
	<g>
		<defs>
			<path id="SVGID_85_" d="M830.9,503.9l-27.2,20.4c0,0-0.3,1.5,0.4,2.2c0,0,24.6-13.1,26-16.6c0.1-0.1,1.1-2.3,3.3-3.4
				c0,0-0.2-1.6-0.2-1.6L830.9,503.9z"/>
		</defs>
		<clipPath id="SVGID_86_">
			<use xlink:href="#SVGID_85_"  overflow="visible"/>
		</clipPath>
		<polygon clip-path="url(#SVGID_86_)" fill="#E2E2E2" points="830.4,508.2 803.2,526.1 804.5,528.2 830,517 832.6,508.9 
			833.8,509.2 834.8,505.3 		"/>
	</g>
	<g>
		<defs>
			<path id="SVGID_87_" d="M830.4,503.2c0,0,4.1,1.8,2.8,5.4c0,0-2.6,1.8-4.3-0.8C827.3,505.2,829.6,503.4,830.4,503.2z"/>
		</defs>
		<clipPath id="SVGID_88_">
			<use xlink:href="#SVGID_87_"  overflow="visible"/>
		</clipPath>
		<path clip-path="url(#SVGID_88_)" fill="#D6D6D6" d="M827.8,505.6c0.4,1,1.3,1.8,2.4,1.7c1.1,0,1.7-0.6,2.3-1.1
			c0.1-0.1,0.3-0.4,0.4-0.6c0,0,0.1,0,0.5,0.1c0.7,0.2,1.3,0.7,1.5,1.5c0.2,0.9-0.6,1.8-1.4,2.3c-0.7,0.3-1.5,0.5-2.2,0.6
			c-0.6,0.1-1.1,0.1-1.7-0.1c-0.5-0.2-1-0.6-1.3-1c-0.2-0.3-0.4-0.7-0.5-1c-0.1-0.2-0.1-0.3-0.1-0.5c0-0.3-0.1-0.5-0.1-0.8
			c0-0.3,0.3-0.4,0.3-0.6c0.1,0,0.2,0,0.2,0"/>
	</g>
	<g>
		<defs>
			<path id="SVGID_89_" d="M832.6,501.8c-0.1,0-2.6,1.5-2.6,1.5s4,1.4,3.2,5.2l2.5-1.5C835.7,507,836.2,502.7,832.6,501.8z"/>
		</defs>
		<clipPath id="SVGID_90_">
			<use xlink:href="#SVGID_89_"  overflow="visible"/>
		</clipPath>
		<polygon clip-path="url(#SVGID_90_)" fill="#BFBFBF" points="835.3,504.1 832.8,505.6 832.9,509.2 835.7,508.2 836.7,504.9 		"/>
	</g>
	<path fill="#FFFFFF" d="M834,508.1l28.8,17.6c0,0,1.5-0.3,1.8-1.2c0,0-21.3-18-25.1-18.1c-0.1,0-2.5-0.2-4.4-1.8
		c0,0-1.4,0.8-1.4,0.8L834,508.1z"/>
	<path fill="#FFFFFF" d="M833.2,502.5l-12.9-31.9c0,0-1.3-0.7-2.2-0.1c0,0,6.4,26.3,9.4,28.5c0.1,0.1,2.5,1.5,3.3,3.8
		c0,0,1.6,0.2,1.6,0.2L833.2,502.5z"/>
	<g>
		<defs>
			<path id="SVGID_91_" d="M833.3,502.8l-13-32.1c0,0-1.3-0.7-2.2-0.1c0,0,6.4,26.3,9.4,28.5c0.1,0.1,2.5,1.5,3.3,3.8
				c0,0,1.6,0.2,1.6,0.2L833.3,502.8z"/>
		</defs>
		<clipPath id="SVGID_92_">
			<use xlink:href="#SVGID_91_"  overflow="visible"/>
		</clipPath>
		<polygon clip-path="url(#SVGID_92_)" fill="#E2E2E2" points="819.5,469.9 832.5,503.1 834.4,502.8 820.4,469.6 		"/>
	</g>
	<g>
		<defs>
			<path id="SVGID_93_" d="M834,508.1l28.8,17.6c0,0,1.5-0.3,1.8-1.2c0,0-21.3-18-25.1-18.1c-0.1,0-2.5-0.2-4.4-1.8
				c0,0-1.4,0.8-1.4,0.8L834,508.1z"/>
		</defs>
		<clipPath id="SVGID_94_">
			<use xlink:href="#SVGID_93_"  overflow="visible"/>
		</clipPath>
		<polygon clip-path="url(#SVGID_94_)" fill="#E2E2E2" points="834.1,504.9 865.1,525.4 868.6,524 846,507.7 835.9,503.9 		"/>
	</g>
</g>
<g>
	<path fill="#FFFFFF" d="M904.7,546.6l-0.7,65.3c0,0,2.5,2.3,5.1,0c0,0-0.3-66.3-0.3-66.3L904.7,546.6z"/>
	<path fill="#FFFFFF" d="M905.4,539.9l10.5-6.4c0,0,4.9,0.1,4.5,6.8c0,0-7.5,12-15.7,7.5c0-0.1,0.3-4.5-3.2-5.3L905.4,539.9z"/>
	<g>
		<defs>
			<path id="SVGID_95_" d="M904.7,546.6l-0.7,65.3c0,0,2.5,2.3,5.1,0c0,0-0.3-66.3-0.3-66.3L904.7,546.6z"/>
		</defs>
		<clipPath id="SVGID_96_">
			<use xlink:href="#SVGID_95_"  overflow="visible"/>
		</clipPath>
		<path clip-path="url(#SVGID_96_)" fill="#E2E2E2" d="M907,547.1c0.4,0.1,0.2,50.1-0.3,67.3c-0.3,10.1,7.8-1,7.8-1l-2.4-64.1
			L907,547.1z"/>
	</g>
	<path fill="#D1D1D1" d="M904,611.7c0,0,2.9,1.3,5.2,0c0,0,0,6.7,0,6.7s-2.9,2.1-5.2-0.1C904,618.3,904,611.7,904,611.7z"/>
	<g>
		<defs>
			<path id="SVGID_97_" d="M904,611.7c0,0,2.9,1.3,5.2,0c0,0,0,6.7,0,6.7s-2.9,2.1-5.2-0.1C904,618.3,904,611.7,904,611.7z"/>
		</defs>
		<clipPath id="SVGID_98_">
			<use xlink:href="#SVGID_97_"  overflow="visible"/>
		</clipPath>
		<path clip-path="url(#SVGID_98_)" fill="#B7B7B7" d="M906.7,611.9l-0.1,8.2l3.2-0.8l0.9-4.8c0,0-0.7-3.5-0.8-3.5
			C910,611.1,906.7,611.9,906.7,611.9z"/>
	</g>
	<g>
		<defs>
			<path id="SVGID_99_" d="M905.4,539.9l10.5-6.4c0,0,4.9,0.1,4.5,6.8c0,0-7.5,12-15.7,7.5c0-0.1,0.3-4.5-3.2-5.3L905.4,539.9z"/>
		</defs>
		<clipPath id="SVGID_100_">
			<use xlink:href="#SVGID_99_"  overflow="visible"/>
		</clipPath>
		<path clip-path="url(#SVGID_100_)" fill="#E2E2E2" d="M903.6,545.2c0.7-0.5,15.1-9.2,15.7-9.9c0.5-0.5,0.5,0.4,0.8-0.3
			c0.2-0.5-0.3-0.6,0.2-0.7c1.1-0.2,2.1,1.5,2.6,2.2c0.4,0.6,0.8,1.3,0.7,2c-0.1,0.8-0.8,1.8-1.3,2.5c-1.3,2-3.3,3.4-5.2,4.7
			c-1,0.7-2.1,1.2-3.2,1.7c-1.1,0.5-2.1,1.1-3.2,1.6c-0.7,0.3-1.4,0.8-2.2,1c-0.8,0.2-1.7,0.3-2.6,0.3c-0.7,0-1.4,0-2-0.5
			c-0.4-0.3-0.7-0.6-0.9-1c-0.5-0.6-0.4-1.2-0.4-1.9c0-0.2,0-0.4,0-0.5c0-0.2-0.2-0.4-0.2-0.5C902.4,545.4,903.3,545.4,903.6,545.2"
			/>
	</g>
	<path fill="#FFFFFF" d="M899.9,544.6L872.7,565c0,0-0.3,1.5,0.4,2.2c0,0,24.6-13.1,26-16.6c0.1-0.1,1.1-2.3,3.3-3.4
		c0,0-0.2-1.6-0.2-1.6L899.9,544.6z"/>
	<path fill="#E5E5E5" d="M899.2,543.9c0,0,4.3,1.8,3,5.4c0,0-2.6,1.8-4.3-0.8C896.2,545.9,898.3,544.2,899.2,543.9z"/>
	<path fill="#D1D1D1" d="M901.5,542.4c-0.1,0-2.6,1.6-2.6,1.6s4.1,1.5,3.3,5.3l2.5-1.5C904.7,547.8,905.2,543.2,901.5,542.4z"/>
	<g>
		<defs>
			<path id="SVGID_101_" d="M899.9,544.6L872.7,565c0,0-0.3,1.5,0.4,2.2c0,0,24.6-13.1,26-16.6c0.1-0.1,1.1-2.3,3.3-3.4
				c0,0-0.2-1.6-0.2-1.6L899.9,544.6z"/>
		</defs>
		<clipPath id="SVGID_102_">
			<use xlink:href="#SVGID_101_"  overflow="visible"/>
		</clipPath>
		<polygon clip-path="url(#SVGID_102_)" fill="#E2E2E2" points="899.4,549 872.2,566.9 873.5,568.9 899,557.7 901.5,549.7 
			902.8,549.9 903.8,546.1 		"/>
	</g>
	<g>
		<defs>
			<path id="SVGID_103_" d="M899.4,543.9c0,0,4.1,1.8,2.8,5.4c0,0-2.6,1.8-4.3-0.8C896.2,545.9,898.6,544.1,899.4,543.9z"/>
		</defs>
		<clipPath id="SVGID_104_">
			<use xlink:href="#SVGID_103_"  overflow="visible"/>
		</clipPath>
		<path clip-path="url(#SVGID_104_)" fill="#D6D6D6" d="M896.8,546.3c0.4,1,1.3,1.8,2.4,1.7c1.1,0,1.7-0.6,2.3-1.1
			c0.1-0.1,0.3-0.4,0.4-0.6c0,0,0.1,0,0.5,0.1c0.7,0.2,1.3,0.7,1.5,1.5c0.2,0.9-0.6,1.8-1.4,2.3c-0.7,0.3-1.5,0.5-2.2,0.6
			c-0.6,0.1-1.1,0.1-1.7-0.1c-0.5-0.2-1-0.6-1.3-1c-0.2-0.3-0.4-0.7-0.5-1c-0.1-0.2-0.1-0.3-0.1-0.5c0-0.3-0.1-0.5-0.1-0.8
			c0-0.3,0.3-0.4,0.3-0.6c0.1,0,0.2,0,0.2,0"/>
	</g>
	<g>
		<defs>
			<path id="SVGID_105_" d="M901.6,542.6c-0.1,0-2.6,1.5-2.6,1.5s4,1.4,3.2,5.2l2.5-1.5C904.7,547.8,905.2,543.4,901.6,542.6z"/>
		</defs>
		<clipPath id="SVGID_106_">
			<use xlink:href="#SVGID_105_"  overflow="visible"/>
		</clipPath>
		<polygon clip-path="url(#SVGID_106_)" fill="#BFBFBF" points="904.3,544.9 901.8,546.3 901.9,549.9 904.7,548.9 905.6,545.6 		"/>
	</g>
	<path fill="#FFFFFF" d="M903,548.8l28.8,17.6c0,0,1.5-0.3,1.8-1.2c0,0-21.3-18-25.1-18.1c-0.1,0-2.5-0.2-4.4-1.8
		c0,0-1.4,0.8-1.4,0.8L903,548.8z"/>
	<path fill="#FFFFFF" d="M902.1,543.2l-12.9-31.9c0,0-1.3-0.7-2.2-0.1c0,0,6.4,26.3,9.4,28.5c0.1,0.1,2.5,1.5,3.3,3.8
		c0,0,1.6,0.2,1.6,0.2L902.1,543.2z"/>
	<g>
		<defs>
			<path id="SVGID_107_" d="M902.3,543.5l-13-32.1c0,0-1.3-0.7-2.2-0.1c0,0,6.4,26.3,9.4,28.5c0.1,0.1,2.5,1.5,3.3,3.8
				c0,0,1.6,0.2,1.6,0.2L902.3,543.5z"/>
		</defs>
		<clipPath id="SVGID_108_">
			<use xlink:href="#SVGID_107_"  overflow="visible"/>
		</clipPath>
		<polygon clip-path="url(#SVGID_108_)" fill="#E2E2E2" points="888.5,510.6 901.5,543.8 903.4,543.5 889.4,510.3 		"/>
	</g>
	<g>
		<defs>
			<path id="SVGID_109_" d="M903,548.8l28.8,17.6c0,0,1.5-0.3,1.8-1.2c0,0-21.3-18-25.1-18.1c-0.1,0-2.5-0.2-4.4-1.8
				c0,0-1.4,0.8-1.4,0.8L903,548.8z"/>
		</defs>
		<clipPath id="SVGID_110_">
			<use xlink:href="#SVGID_109_"  overflow="visible"/>
		</clipPath>
		<polygon clip-path="url(#SVGID_110_)" fill="#E2E2E2" points="903.1,545.6 934.1,566.1 937.6,564.7 915,548.4 904.9,544.6 		"/>
	</g>
</g>
<g>
	<path fill="#FFFFFF" d="M975.5,587l-0.7,65.3c0,0,2.5,2.3,5.1,0c0,0-0.3-66.3-0.3-66.3L975.5,587z"/>
	<path fill="#FFFFFF" d="M976.2,580.3l10.5-6.4c0,0,4.9,0.1,4.5,6.8c0,0-7.5,12-15.7,7.5c0-0.1,0.3-4.5-3.2-5.3L976.2,580.3z"/>
	<g>
		<defs>
			<path id="SVGID_111_" d="M975.5,587l-0.7,65.3c0,0,2.5,2.3,5.1,0c0,0-0.3-66.3-0.3-66.3L975.5,587z"/>
		</defs>
		<clipPath id="SVGID_112_">
			<use xlink:href="#SVGID_111_"  overflow="visible"/>
		</clipPath>
		<path clip-path="url(#SVGID_112_)" fill="#E2E2E2" d="M977.7,587.4c0.4,0.1,0.2,50.1-0.3,67.3c-0.3,10.1,7.8-1,7.8-1l-2.4-64.1
			L977.7,587.4z"/>
	</g>
	<path fill="#D1D1D1" d="M974.8,652.1c0,0,2.9,1.3,5.2,0c0,0,0,6.7,0,6.7s-2.9,2.1-5.2-0.1C974.8,658.7,974.8,652.1,974.8,652.1z"/>
	<g>
		<defs>
			<path id="SVGID_113_" d="M974.8,652.1c0,0,2.9,1.3,5.2,0c0,0,0,6.7,0,6.7s-2.9,2.1-5.2-0.1C974.8,658.7,974.8,652.1,974.8,652.1z
				"/>
		</defs>
		<clipPath id="SVGID_114_">
			<use xlink:href="#SVGID_113_"  overflow="visible"/>
		</clipPath>
		<path clip-path="url(#SVGID_114_)" fill="#B7B7B7" d="M977.5,652.3l-0.1,8.2l3.2-0.8l0.9-4.8c0,0-0.7-3.5-0.8-3.5
			C980.7,651.5,977.5,652.3,977.5,652.3z"/>
	</g>
	<g>
		<defs>
			<path id="SVGID_115_" d="M976.2,580.3l10.5-6.4c0,0,4.9,0.1,4.5,6.8c0,0-7.5,12-15.7,7.5c0-0.1,0.3-4.5-3.2-5.3L976.2,580.3z"/>
		</defs>
		<clipPath id="SVGID_116_">
			<use xlink:href="#SVGID_115_"  overflow="visible"/>
		</clipPath>
		<path clip-path="url(#SVGID_116_)" fill="#E2E2E2" d="M974.4,585.6c0.7-0.5,15.1-9.2,15.7-9.9c0.5-0.5,0.5,0.4,0.8-0.3
			c0.2-0.5-0.3-0.6,0.2-0.7c1.1-0.2,2.1,1.5,2.6,2.2c0.4,0.6,0.8,1.3,0.7,2c-0.1,0.8-0.8,1.8-1.3,2.5c-1.3,2-3.3,3.4-5.2,4.7
			c-1,0.7-2.1,1.2-3.2,1.7c-1.1,0.5-2.1,1.1-3.2,1.6c-0.7,0.3-1.4,0.8-2.2,1c-0.8,0.2-1.7,0.3-2.6,0.3c-0.7,0-1.4,0-2-0.5
			c-0.4-0.3-0.7-0.6-0.9-1c-0.5-0.6-0.4-1.2-0.4-1.9c0-0.2,0-0.4,0-0.5c0-0.2-0.2-0.4-0.2-0.5C973.2,585.8,974,585.8,974.4,585.6"/>
	</g>
	<path fill="#FFFFFF" d="M970.6,584.9l-27.2,20.4c0,0-0.3,1.5,0.4,2.2c0,0,24.6-13.1,26-16.6c0.1-0.1,1.1-2.3,3.3-3.4
		c0,0-0.2-1.6-0.2-1.6L970.6,584.9z"/>
	<path fill="#E5E5E5" d="M969.9,584.3c0,0,4.3,1.8,3,5.4c0,0-2.6,1.8-4.3-0.8C967,586.3,969.1,584.5,969.9,584.3z"/>
	<path fill="#D1D1D1" d="M972.3,582.8c-0.1,0-2.6,1.6-2.6,1.6s4.1,1.5,3.3,5.3l2.5-1.5C975.5,588.1,975.9,583.6,972.3,582.8z"/>
	<g>
		<defs>
			<path id="SVGID_117_" d="M970.6,584.9l-27.2,20.4c0,0-0.3,1.5,0.4,2.2c0,0,24.6-13.1,26-16.6c0.1-0.1,1.1-2.3,3.3-3.4
				c0,0-0.2-1.6-0.2-1.6L970.6,584.9z"/>
		</defs>
		<clipPath id="SVGID_118_">
			<use xlink:href="#SVGID_117_"  overflow="visible"/>
		</clipPath>
		<polygon clip-path="url(#SVGID_118_)" fill="#E2E2E2" points="970.2,589.3 942.9,607.2 944.3,609.3 969.8,598.1 972.3,590 
			973.5,590.3 974.6,586.4 		"/>
	</g>
	<g>
		<defs>
			<path id="SVGID_119_" d="M970.2,584.3c0,0,4.1,1.8,2.8,5.4c0,0-2.6,1.8-4.3-0.8C967,586.3,969.3,584.5,970.2,584.3z"/>
		</defs>
		<clipPath id="SVGID_120_">
			<use xlink:href="#SVGID_119_"  overflow="visible"/>
		</clipPath>
		<path clip-path="url(#SVGID_120_)" fill="#D6D6D6" d="M967.5,586.7c0.4,1,1.3,1.8,2.4,1.7c1.1,0,1.7-0.6,2.3-1.1
			c0.1-0.1,0.3-0.4,0.4-0.6c0,0,0.1,0,0.5,0.1c0.7,0.2,1.3,0.7,1.5,1.5c0.2,0.9-0.6,1.8-1.4,2.3c-0.7,0.3-1.5,0.5-2.2,0.6
			c-0.6,0.1-1.1,0.1-1.7-0.1c-0.5-0.2-1-0.6-1.3-1c-0.2-0.3-0.4-0.7-0.5-1c-0.1-0.2-0.1-0.3-0.1-0.5c0-0.3-0.1-0.5-0.1-0.8
			c0-0.3,0.3-0.4,0.3-0.6c0.1,0,0.2,0,0.2,0"/>
	</g>
	<g>
		<defs>
			<path id="SVGID_121_" d="M972.3,582.9c-0.1,0-2.6,1.5-2.6,1.5s4,1.4,3.2,5.2l2.5-1.5C975.5,588.1,975.9,583.8,972.3,582.9z"/>
		</defs>
		<clipPath id="SVGID_122_">
			<use xlink:href="#SVGID_121_"  overflow="visible"/>
		</clipPath>
		<polygon clip-path="url(#SVGID_122_)" fill="#BFBFBF" points="975,585.2 972.5,586.7 972.7,590.3 975.5,589.3 976.4,586 		"/>
	</g>
	<path fill="#FFFFFF" d="M973.7,589.2l28.8,17.6c0,0,1.5-0.3,1.8-1.2c0,0-21.3-18-25.1-18.1c-0.1,0-2.5-0.2-4.4-1.8
		c0,0-1.4,0.8-1.4,0.8L973.7,589.2z"/>
	<path fill="#FFFFFF" d="M972.9,583.6L960,551.7c0,0-1.3-0.7-2.2-0.1c0,0,6.4,26.3,9.4,28.5c0.1,0.1,2.5,1.5,3.3,3.8
		c0,0,1.6,0.2,1.6,0.2L972.9,583.6z"/>
	<g>
		<defs>
			<path id="SVGID_123_" d="M973,583.9l-13-32.1c0,0-1.3-0.7-2.2-0.1c0,0,6.4,26.3,9.4,28.5c0.1,0.1,2.5,1.5,3.3,3.8
				c0,0,1.6,0.2,1.6,0.2L973,583.9z"/>
		</defs>
		<clipPath id="SVGID_124_">
			<use xlink:href="#SVGID_123_"  overflow="visible"/>
		</clipPath>
		<polygon clip-path="url(#SVGID_124_)" fill="#E2E2E2" points="959.3,551 972.2,584.2 974.2,583.9 960.1,550.7 		"/>
	</g>
	<g>
		<defs>
			<path id="SVGID_125_" d="M973.7,589.2l28.8,17.6c0,0,1.5-0.3,1.8-1.2c0,0-21.3-18-25.1-18.1c-0.1,0-2.5-0.2-4.4-1.8
				c0,0-1.4,0.8-1.4,0.8L973.7,589.2z"/>
		</defs>
		<clipPath id="SVGID_126_">
			<use xlink:href="#SVGID_125_"  overflow="visible"/>
		</clipPath>
		<polygon clip-path="url(#SVGID_126_)" fill="#E2E2E2" points="973.9,586 1004.8,606.5 1008.3,605.1 985.8,588.8 975.6,584.9 		"/>
	</g>
</g>
</svg>
