<svg xmlns="http://www.w3.org/2000/svg" x="0px" y="0px" xmlns:xlink="http://www.w3.org/1999/xlink" viewBox="-239 103.2 1440 875.8">
  <path fill="#CEDA91" d="M413.6 665.4l268.5 154.3 153.3-90.3-268.8-154.5"/>
  <defs>
    <path id="a" d="M511.7 458.2l-.3 90.6c-6.5-3.8-17.1-3.8-23.6 0l.3-90.6c6.5-3.8 17-3.8 23.6 0z"/>
  </defs>
  <clipPath id="b">
    <use xlink:href="#a" overflow="visible"/>
  </clipPath>
  <path fill="#FFF9EC" d="M511.7 458.2l-.3 90.6c-.4-.2-.9-.5-1.3-.7l.3-90.6c.4.2.8.5 1.3.7" clip-path="url(#b)"/>
  <defs>
    <path id="c" d="M511.7 458.2l-.3 90.6c-6.5-3.8-17.1-3.8-23.6 0l.3-90.6c6.5-3.8 17-3.8 23.6 0z"/>
  </defs>
  <clipPath id="d">
    <use xlink:href="#c" overflow="visible"/>
  </clipPath>
  <path fill="#FFF6E2" d="M510.3 457.5l-.3 90.6c-.5-.2-1-.5-1.6-.7l.3-90.6c.6.3 1.1.5 1.6.7" clip-path="url(#d)"/>
  <defs>
    <path id="e" d="M511.7 458.2l-.3 90.6c-6.5-3.8-17.1-3.8-23.6 0l.3-90.6c6.5-3.8 17-3.8 23.6 0z"/>
  </defs>
  <clipPath id="f">
    <use xlink:href="#e" overflow="visible"/>
  </clipPath>
  <path fill="#FFF3D8" d="M508.8 456.9l-.3 90.6c-.5-.2-1-.4-1.6-.5l.3-90.6c.5.1 1.1.3 1.6.5" clip-path="url(#f)"/>
  <defs>
    <path id="g" d="M511.7 458.2l-.3 90.6c-6.5-3.8-17.1-3.8-23.6 0l.3-90.6c6.5-3.8 17-3.8 23.6 0z"/>
  </defs>
  <clipPath id="h">
    <use xlink:href="#g" overflow="visible"/>
  </clipPath>
  <path fill="#FFF1CF" d="M507.2 456.4l-.3 90.6c-.5-.2-1.1-.3-1.6-.4l.3-90.6c.5.1 1.1.2 1.6.4" clip-path="url(#h)"/>
  <defs>
    <path id="i" d="M511.7 458.2l-.3 90.6c-6.5-3.8-17.1-3.8-23.6 0l.3-90.6c6.5-3.8 17-3.8 23.6 0z"/>
  </defs>
  <clipPath id="j">
    <use xlink:href="#i" overflow="visible"/>
  </clipPath>
  <path fill="#FFEEC5" d="M505.6 456l-.3 90.6-1.8-.3.3-90.6 1.8.3" clip-path="url(#j)"/>
  <defs>
    <path id="k" d="M511.7 458.2l-.3 90.6c-6.5-3.8-17.1-3.8-23.6 0l.3-90.6c6.5-3.8 17-3.8 23.6 0z"/>
  </defs>
  <clipPath id="l">
    <use xlink:href="#k" overflow="visible"/>
  </clipPath>
  <path fill="#FFEBBB" d="M503.8 455.7l-.3 90.6c-.7-.1-1.3-.2-2-.2l.3-90.6c.7 0 1.3.1 2 .2" clip-path="url(#l)"/>
  <defs>
    <path id="m" d="M511.7 458.2l-.3 90.6c-6.5-3.8-17.1-3.8-23.6 0l.3-90.6c6.5-3.8 17-3.8 23.6 0z"/>
  </defs>
  <clipPath id="n">
    <use xlink:href="#m" overflow="visible"/>
  </clipPath>
  <path fill="#FFE8B1" d="M501.8 455.5l-.3 90.6c-.8-.1-1.7-.1-2.5-.1l.3-90.6c.9 0 1.7 0 2.5.1" clip-path="url(#n)"/>
  <defs>
    <path id="o" d="M511.7 458.2l-.3 90.6c-6.5-3.8-17.1-3.8-23.6 0l.3-90.6c6.5-3.8 17-3.8 23.6 0z"/>
  </defs>
  <clipPath id="p">
    <use xlink:href="#o" overflow="visible"/>
  </clipPath>
  <path fill="#FFE5A8" d="M499.3 455.4L499 546c-4.1.1-8.2 1-11.3 2.8l.3-90.6c3.2-1.8 7.2-2.7 11.3-2.8" clip-path="url(#p)"/>
  <defs>
    <path id="q" d="M487.8 548.8c-1.7 1-3 2.2-3.8 3.4.1-26.7.2-53.3.2-80v-10.6c.8-1.2 2.1-2.4 3.8-3.4 0 27.2-.1 63.4-.2 90.6z"/>
  </defs>
  <clipPath id="r">
    <use xlink:href="#q" overflow="visible"/>
  </clipPath>
  <path fill="#FFE5A8" d="M488.1 458.2l-.3 90.6c-1.7 1-3 2.2-3.8 3.4l.3-90.6c.8-1.2 2-2.4 3.8-3.4" clip-path="url(#r)"/>
  <path fill="#FFF7E4" d="M484.3 461.6l-.3 90.6-1-.6.2-90.6"/>
  <path fill="#FFE5A7" d="M484.3 461.6l-1-.6 4.8-2.8c-1.8 1-3 2.2-3.8 3.4z"/>
  <defs>
    <path id="s" d="M483 555.6l.3-90.6c0 2.5 1.6 5 4.9 6.9l-.3 90.6c-3.3-1.9-5-4.4-4.9-6.9z"/>
  </defs>
  <clipPath id="t">
    <use xlink:href="#s" overflow="visible"/>
  </clipPath>
  <path fill="#FFF9EC" d="M488.1 471.9l-.3 90.6c-.1-.1-.2-.1-.3-.2l.3-90.6c.1.1.2.1.3.2" clip-path="url(#t)"/>
  <defs>
    <path id="u" d="M483 555.6l.3-90.6c0 2.5 1.6 5 4.9 6.9l-.3 90.6c-3.3-1.9-5-4.4-4.9-6.9z"/>
  </defs>
  <clipPath id="v">
    <use xlink:href="#u" overflow="visible"/>
  </clipPath>
  <path fill="#FFFCF5" d="M487.8 471.7l-.3 90.6c-.7-.5-1.4-.9-1.9-1.4l.3-90.6c.5.5 1.2.9 1.9 1.4" clip-path="url(#v)"/>
  <defs>
    <path id="w" d="M483 555.6l.3-90.6c0 2.5 1.6 5 4.9 6.9l-.3 90.6c-3.3-1.9-5-4.4-4.9-6.9z"/>
  </defs>
  <clipPath id="x">
    <use xlink:href="#w" overflow="visible"/>
  </clipPath>
  <path fill="#FFF" d="M485.9 470.3l-.3 90.6c-1.3-1.2-2.1-2.4-2.4-3.7l.3-90.6c.3 1.2 1.1 2.5 2.4 3.7" clip-path="url(#x)"/>
  <defs>
    <path id="y" d="M483 555.6l.3-90.6c0 2.5 1.6 5 4.9 6.9l-.3 90.6c-3.3-1.9-5-4.4-4.9-6.9z"/>
  </defs>
  <clipPath id="z">
    <use xlink:href="#y" overflow="visible"/>
  </clipPath>
  <path fill="#FFFCF5" d="M483.4 466.5l-.3 90.6c-.1-.5-.2-1-.2-1.5l.3-90.6c0 .5.1 1 .2 1.5" clip-path="url(#z)"/>
  <path fill="#FFF7E4" d="M541.3 475.3l-.3 90.6-29.6-17.1.3-90.6"/>
  <defs>
    <path id="A" d="M545.7 571.2c-.6-1.9-2.1-3.8-4.7-5.3l.3-90.6c2.6 1.5 4.1 3.3 4.7 5.3l-.3 90.6z"/>
  </defs>
  <clipPath id="B">
    <use xlink:href="#A" overflow="visible"/>
  </clipPath>
  <path fill="#FFF" d="M546 480.7l-.3 90.6c-.4-1.3-1.2-2.6-2.4-3.7l.3-90.6c1.3 1.1 2.1 2.4 2.4 3.7" clip-path="url(#B)"/>
  <defs>
    <path id="C" d="M545.7 571.2c-.6-1.9-2.1-3.8-4.7-5.3l.3-90.6c2.6 1.5 4.1 3.3 4.7 5.3l-.3 90.6z"/>
  </defs>
  <clipPath id="D">
    <use xlink:href="#C" overflow="visible"/>
  </clipPath>
  <path fill="#FFFCF5" d="M543.6 477l-.3 90.6c-.6-.5-1.2-1-2-1.4l.3-90.6c.8.4 1.4.9 2 1.4" clip-path="url(#D)"/>
  <defs>
    <path id="E" d="M545.7 571.2c-.6-1.9-2.1-3.8-4.7-5.3l.3-90.6c2.6 1.5 4.1 3.3 4.7 5.3l-.3 90.6z"/>
  </defs>
  <clipPath id="F">
    <use xlink:href="#E" overflow="visible"/>
  </clipPath>
  <path fill="#FFF9EC" d="M541.6 475.5l-.3 90.6c-.1-.1-.2-.1-.3-.2l.3-90.6c.1.1.2.2.3.2" clip-path="url(#F)"/>
  <defs>
    <path id="G" d="M545.7 571.2c-4.2-30.2.2-60.4.3-90.6.2.5.2 1.1.2 1.6l-.3 90.6c.1-.6 0-1.1-.2-1.6z"/>
  </defs>
  <clipPath id="H">
    <use xlink:href="#G" overflow="visible"/>
  </clipPath>
  <path fill="#FFFCF5" d="M546.2 482.2l-.3 90.6c0-.5-.1-1-.2-1.5l.3-90.6c.2.5.2 1 .2 1.5" clip-path="url(#H)"/>
  <defs>
    <path id="I" d="M545.7 571.2c-4.2-30.2.2-60.4.3-90.6.2.5.2 1.1.2 1.6l-.3 90.6c.1-.6 0-1.1-.2-1.6z"/>
  </defs>
  <clipPath id="J">
    <use xlink:href="#I" overflow="visible"/>
  </clipPath>
  <path fill="#FFF" d="M546 480.7l-.3 90.6c-.4-1.3-1.2-2.6-2.4-3.7l.3-90.6c1.3 1.1 2.1 2.4 2.4 3.7" clip-path="url(#J)"/>
  <defs>
    <path id="K" d="M546.2 482.2l-.3 90.6c0 2.5-1.6 4.9-4.9 6.8l.3-90.6c3.3-1.9 4.9-4.3 4.9-6.8z"/>
  </defs>
  <clipPath id="L">
    <use xlink:href="#K" overflow="visible"/>
  </clipPath>
  <path fill="#FFE5A8" d="M546.2 482.2l-.3 90.6c0 2.5-1.6 4.9-4.9 6.8l.3-90.6c3.3-1.9 4.9-4.3 4.9-6.8" clip-path="url(#L)"/>
  <path fill="#FFDD8E" d="M506.8 447.4l-18.7 10.8c-1.7 1-3 2.2-3.8 3.4-2.2 3.4-.9 7.5 3.9 10.3l29.6 17.1c4.8 2.8 11.8 3.5 17.7 2.2 2.1-.5 4.1-1.2 5.9-2.2l18.7-10.9-53.3-30.7z"/>
  <path fill="#FFF7E4" d="M517.8 489l-.3 90.6-29.6-17.1.2-90.6"/>
  <defs>
    <path id="M" d="M541.4 489l-.3 90.6c-1.7 1-3.7 1.7-5.9 2.2-5.9 1.3-12.9.6-17.7-2.2l.3-90.6c4.8 2.8 11.8 3.5 17.7 2.2 2.1-.5 4.1-1.2 5.9-2.2z"/>
  </defs>
  <clipPath id="N">
    <use xlink:href="#M" overflow="visible"/>
  </clipPath>
  <path fill="#FFE5A8" d="M541.4 489l-.3 90.6c-1.7 1-3.7 1.7-5.9 2.2-1.7.4-3.6.6-5.4.6l.3-90.6c1.8 0 3.7-.2 5.4-.6 2.1-.5 4.1-1.2 5.9-2.2" clip-path="url(#N)"/>
  <defs>
    <path id="O" d="M541.4 489l-.3 90.6c-1.7 1-3.7 1.7-5.9 2.2-5.9 1.3-12.9.6-17.7-2.2l.3-90.6c4.8 2.8 11.8 3.5 17.7 2.2 2.1-.5 4.1-1.2 5.9-2.2z"/>
  </defs>
  <clipPath id="P">
    <use xlink:href="#O" overflow="visible"/>
  </clipPath>
  <path fill="#FFE8B1" d="M530.1 491.8l-.3 90.6c-.8 0-1.6 0-2.5-.1l.3-90.6c.8.1 1.7.1 2.5.1" clip-path="url(#P)"/>
  <defs>
    <path id="Q" d="M541.4 489l-.3 90.6c-1.7 1-3.7 1.7-5.9 2.2-5.9 1.3-12.9.6-17.7-2.2l.3-90.6c4.8 2.8 11.8 3.5 17.7 2.2 2.1-.5 4.1-1.2 5.9-2.2z"/>
  </defs>
  <clipPath id="R">
    <use xlink:href="#Q" overflow="visible"/>
  </clipPath>
  <path fill="#FFEBBB" d="M527.6 491.8l-.3 90.6c-.7 0-1.3-.1-2-.2l.3-90.6c.7.1 1.3.1 2 .2" clip-path="url(#R)"/>
  <defs>
    <path id="S" d="M541.4 489l-.3 90.6c-1.7 1-3.7 1.7-5.9 2.2-5.9 1.3-12.9.6-17.7-2.2l.3-90.6c4.8 2.8 11.8 3.5 17.7 2.2 2.1-.5 4.1-1.2 5.9-2.2z"/>
  </defs>
  <clipPath id="T">
    <use xlink:href="#S" overflow="visible"/>
  </clipPath>
  <path fill="#FFEEC5" d="M525.6 491.6l-.3 90.6-1.8-.3.3-90.6 1.8.3" clip-path="url(#T)"/>
  <defs>
    <path id="U" d="M541.4 489l-.3 90.6c-1.7 1-3.7 1.7-5.9 2.2-5.9 1.3-12.9.6-17.7-2.2l.3-90.6c4.8 2.8 11.8 3.5 17.7 2.2 2.1-.5 4.1-1.2 5.9-2.2z"/>
  </defs>
  <clipPath id="V">
    <use xlink:href="#U" overflow="visible"/>
  </clipPath>
  <path fill="#FFF1CF" d="M523.9 491.3l-.3 90.6c-.6-.1-1.1-.2-1.6-.4l.3-90.6c.5.1 1 .2 1.6.4" clip-path="url(#V)"/>
  <defs>
    <path id="W" d="M541.4 489l-.3 90.6c-1.7 1-3.7 1.7-5.9 2.2-5.9 1.3-12.9.6-17.7-2.2l.3-90.6c4.8 2.8 11.8 3.5 17.7 2.2 2.1-.5 4.1-1.2 5.9-2.2z"/>
  </defs>
  <clipPath id="X">
    <use xlink:href="#W" overflow="visible"/>
  </clipPath>
  <path fill="#FFF3D8" d="M522.2 490.9l-.3 90.6c-.5-.2-1.1-.3-1.6-.5l.3-90.6c.6.1 1.1.3 1.6.5" clip-path="url(#X)"/>
  <defs>
    <path id="Y" d="M541.4 489l-.3 90.6c-1.7 1-3.7 1.7-5.9 2.2-5.9 1.3-12.9.6-17.7-2.2l.3-90.6c4.8 2.8 11.8 3.5 17.7 2.2 2.1-.5 4.1-1.2 5.9-2.2z"/>
  </defs>
  <clipPath id="Z">
    <use xlink:href="#Y" overflow="visible"/>
  </clipPath>
  <path fill="#FFF6E2" d="M520.7 490.3l-.3 90.6c-.5-.2-1.1-.4-1.6-.6l.3-90.6c.5.2 1 .4 1.6.6" clip-path="url(#Z)"/>
  <defs>
    <path id="aa" d="M541.4 489l-.3 90.6c-1.7 1-3.7 1.7-5.9 2.2-5.9 1.3-12.9.6-17.7-2.2l.3-90.6c4.8 2.8 11.8 3.5 17.7 2.2 2.1-.5 4.1-1.2 5.9-2.2z"/>
  </defs>
  <clipPath id="ab">
    <use xlink:href="#aa" overflow="visible"/>
  </clipPath>
  <path fill="#FFF9EC" d="M519.1 489.7l-.3 90.6c-.5-.2-.9-.4-1.3-.7l.3-90.6c.4.3.8.5 1.3.7" clip-path="url(#ab)"/>
  <path fill="#FFBD6A" d="M536.5 491.8l-.2 90.6 23.5-13.7.3-90.6"/>
  <path fill="#FFF7E4" d="M536.5 491.8l-.2 90.6-1.1-.6.3-90.6"/>
  <path fill="#FFE5A7" d="M536.5 491.8l-1-.6c2.1-.5 4.1-1.2 5.9-2.2l-4.9 2.8z"/>
  <defs>
    <path id="ac" d="M499.3 469.6l18.3-10.7 19.2 11.1-18.3 10.6z"/>
  </defs>
  <clipPath id="ad">
    <use xlink:href="#ac" overflow="visible"/>
  </clipPath>
  <path fill="#FFF" d="M536.8 470l-19.2-11.1-18.3 10.7 19.2 11 18.3-10.6" clip-path="url(#ad)"/>
  <defs>
    <path id="ae" d="M505.8 470.2l13.3-7.7 11 6.4-13.2 7.7z"/>
  </defs>
  <clipPath id="af">
    <use xlink:href="#ae" overflow="visible"/>
  </clipPath>
  <path fill="#F69E89" d="M530.1 468.9l-3-1.7-5.1 2.9-5-2.9 5.1-2.9-3-1.8-13.3 7.7 3.1 1.8 5.5-3.2 5 2.8-5.6 3.3 3.1 1.7 13.2-7.7" clip-path="url(#af)"/>
  <path fill="#F5967F" d="M559.8 488l-23.4 13.6-1-.6h-.1c-6.1 1.3-13 .5-17.6-2.2l-29.6-17.1c-2.6-1.5-4.2-3.3-4.7-5.4-.1-.3-.1-.7-.1-1V473c-.4 1.1-.5 2.3-.2 3.4.5 2.2 2.2 4.1 4.9 5.7l29.6 17.1c4.7 2.7 11.7 3.6 17.8 2.2l1.1.6 23.6-13.7-.3-.3z"/>
  <path fill="#F5967F" d="M559.8 496l-23.4 13.6-1-.6h-.1c-6.1 1.3-13 .5-17.6-2.2l-29.6-17.1c-2.6-1.5-4.2-3.3-4.7-5.4-.1-.3-.1-.7-.1-1V481c-.4 1.1-.5 2.3-.2 3.4.5 2.2 2.2 4.1 4.9 5.7l29.6 17.1c4.7 2.7 11.7 3.6 17.8 2.2l1.1.6 23.6-13.7-.3-.3z"/>
  <path fill="#F5967F" d="M559.8 504l-23.4 13.6-1-.6h-.1c-6.1 1.3-13 .5-17.6-2.2l-29.6-17.1c-2.6-1.5-4.2-3.3-4.7-5.4-.1-.3-.1-.7-.1-1V489c-.4 1.1-.5 2.3-.2 3.4.5 2.2 2.2 4.1 4.9 5.7l29.6 17.1c4.7 2.7 11.7 3.6 17.8 2.2l1.1.6 23.6-13.7-.3-.3z"/>
  <path fill="#F5967F" d="M559.8 512l-23.4 13.6-1-.6h-.1c-6.1 1.3-13 .5-17.6-2.2l-29.6-17.1c-2.6-1.5-4.2-3.3-4.7-5.4-.1-.3-.1-.7-.1-1V497c-.4 1.1-.5 2.3-.2 3.4.5 2.2 2.2 4.1 4.9 5.7l29.6 17.1c4.7 2.7 11.7 3.6 17.8 2.2l1.1.6 23.6-13.7-.3-.3z"/>
  <path fill="#F5967F" d="M559.8 520l-23.4 13.6-1-.6h-.1c-6.1 1.3-13 .5-17.6-2.2l-29.6-17.1c-2.6-1.5-4.2-3.3-4.7-5.4-.1-.3-.1-.7-.1-1V505c-.4 1.1-.5 2.3-.2 3.4.5 2.2 2.2 4.1 4.9 5.7l29.6 17.1c4.7 2.7 11.7 3.6 17.8 2.2l1.1.6 23.6-13.7-.3-.3z"/>
  <path fill="#F5967F" d="M559.8 528l-23.4 13.6-1-.6h-.1c-6.1 1.3-13 .5-17.6-2.2l-29.6-17.1c-2.6-1.5-4.2-3.3-4.7-5.4-.1-.3-.1-.7-.1-1V513c-.4 1.1-.5 2.3-.2 3.4.5 2.2 2.2 4.1 4.9 5.7l29.6 17.1c4.7 2.7 11.7 3.6 17.8 2.2l1.1.6 23.6-13.7-.3-.3z"/>
  <path fill="#F5967F" d="M559.8 536l-23.4 13.6-1-.6h-.1c-6.1 1.3-13 .5-17.6-2.2l-29.6-17.1c-2.6-1.5-4.2-3.3-4.7-5.4-.1-.3-.1-.7-.1-1V521c-.4 1.1-.5 2.3-.2 3.4.5 2.2 2.2 4.1 4.9 5.7l29.6 17.1c4.7 2.7 11.7 3.6 17.8 2.2l1.1.6 23.6-13.7-.3-.3z"/>
  <path fill="#F5967F" d="M559.8 544l-23.4 13.6-1-.6h-.1c-6.1 1.3-13 .5-17.6-2.2l-29.6-17.1c-2.6-1.5-4.2-3.3-4.7-5.4-.1-.3-.1-.7-.1-1V529c-.4 1.1-.5 2.3-.2 3.4.5 2.2 2.2 4.1 4.9 5.7l29.6 17.1c4.7 2.7 11.7 3.6 17.8 2.2l1.1.6 23.6-13.7-.3-.3z"/>
  <path fill="#F5967F" d="M559.8 552l-23.4 13.6-1-.6h-.1c-6.1 1.3-13 .5-17.6-2.2l-29.6-17.1c-2.6-1.5-4.2-3.3-4.7-5.4-.1-.3-.1-.7-.1-1V537c-.4 1.1-.5 2.3-.2 3.4.5 2.2 2.2 4.1 4.9 5.7l29.6 17.1c4.7 2.7 11.7 3.6 17.8 2.2l1.1.6 23.6-13.7-.3-.3z"/>
  <path fill="#F5967F" d="M559.8 560l-23.4 13.6-1-.6h-.1c-6.1 1.3-13 .5-17.6-2.2l-29.6-17.1c-2.6-1.5-4.2-3.3-4.7-5.4-.1-.3-.1-.7-.1-1V545c-.4 1.1-.5 2.3-.2 3.4.5 2.2 2.2 4.1 4.9 5.7l29.6 17.1c4.7 2.7 11.7 3.6 17.8 2.2l1.1.6 23.6-13.7-.3-.3z"/>
  <path fill="#FFDD8E" d="M523.1 543.7l-39.7 23.5-60.9-34.6 39.7-23.4"/>
  <path fill="#FFBD6A" d="M523.1 543.7l-.2 44.8-39.7 23.5.2-44.8"/>
  <path fill="#FFF5D4" d="M483.4 567.2l-.2 44.8-60.8-34.5.1-44.9"/>
  <path fill="#97D2E8" d="M487.7 528.2l-16.2 9.4-17.4-10.1 16.2-9.4"/>
  <path fill="#43A4C9" d="M487.7 528.2v11.4l-16.2 9.4v-11.4"/>
  <path fill="#EDF6F9" d="M471.5 537.6V549l-17.4-10.1v-11.4"/>
  <path fill="#F1526B" d="M445.7 530.1v4.4l-3.8 2.2"/>
  <path fill="#FFF2D3" d="M441.9 536.7l-6.5-3.8 3.8-6.6 6.5 3.8"/>
  <path fill="#F59680" d="M441.4 534.9l-4.3-2.5 2.5-4.3 4.3 2.5"/>
  <path fill="#F1526B" d="M507.8 539.4v4.9l-4.3 2.5"/>
  <path fill="#FFF2D3" d="M503.5 546.8L497 543l4.3-7.4 6.5 3.8"/>
  <path fill="#F59680" d="M503.2 545.1l-4.6-2.6 3-5.2 4.6 2.6"/>
  <path fill="#FFF" d="M481.9 543v-5l-2.4 1.4v5"/>
  <defs>
    <path id="ag" d="M422.4 541l40-23.3 60.9 35.2-40 23.2z"/>
  </defs>
  <clipPath id="ah">
    <use xlink:href="#ag" overflow="visible"/>
  </clipPath>
  <path fill="#F5967F" d="M523.3 552.9l-.3-.2-39.6 22.5-60.6-34.4-.4.2 60.9 34.5.1.1 39.9-22.7" clip-path="url(#ah)"/>
  <defs>
    <path id="ai" d="M422.4 548.5l40-23.3 60.9 35.2-40 23.2z"/>
  </defs>
  <clipPath id="aj">
    <use xlink:href="#ai" overflow="visible"/>
  </clipPath>
  <path fill="#F5967F" d="M523.3 560.4l-.3-.2-39.6 22.5-60.7-34.4-.3.2 60.9 34.5.1.1 39.9-22.7" clip-path="url(#aj)"/>
  <defs>
    <path id="ak" d="M422.4 556l40-23.3 60.9 35.2-40 23.2z"/>
  </defs>
  <clipPath id="al">
    <use xlink:href="#ak" overflow="visible"/>
  </clipPath>
  <path fill="#F5967F" d="M523 567.6l-39.6 22.6-60.7-34.5-.3.3 60.8 34.5.2.1 39.9-22.7-.3-.3" clip-path="url(#al)"/>
  <defs>
    <path id="am" d="M422.4 563.5l40-23.3 60.9 35.2-40 23.2z"/>
  </defs>
  <clipPath id="an">
    <use xlink:href="#am" overflow="visible"/>
  </clipPath>
  <path fill="#F5967F" d="M523.3 575.4l-.3-.2-39.6 22.5-60.6-34.4-.4.2 60.9 34.5.1.1 39.9-22.7" clip-path="url(#an)"/>
  <defs>
    <path id="ao" d="M422.4 571l40-23.3 60.9 35.2-40 23.2z"/>
  </defs>
  <clipPath id="ap">
    <use xlink:href="#ao" overflow="visible"/>
  </clipPath>
  <path fill="#F5967F" d="M523.3 582.9l-.3-.2-39.6 22.5-60.7-34.4-.3.2 60.9 34.5.1.1 39.9-22.7" clip-path="url(#ap)"/>
  <path fill="#FFCABE" d="M418.9 565.1v4.9l-15.4-8.9v-4.9"/>
  <path fill="#F1526B" d="M403.5 556.2v4.9l-33.2 19.4v-4.9"/>
  <path fill="#F5967F" d="M403.5 555.4l16.8 9.7-34.6 20.1-16.8-9.7 34.6-20.1zm-17.9 29l33.2-19.3-15.4-8.9-33.2 19.3 15.4 8.9"/>
  <path fill="#F1526B" d="M420.3 565.1v4.9l-34.7 20.1.1-4.9"/>
  <path fill="#FFCABE" d="M385.7 585.2l-.1 4.9-16.7-9.6v-4.9"/>
  <path fill="#BCE5EC" d="M372 576.6l13.6 7.9 31.6-18.3-13.7-7.9"/>
  <path fill="#FFDD8E" d="M458.4 561.7L428 579.4 396.1 561l30.4-17.7"/>
  <path fill="#FFBD6A" d="M458.4 561.7l-.1 36.7-30.5 17.7.2-36.7"/>
  <path fill="#FFF5D4" d="M428 579.4l-.2 36.7-31.8-18.4.1-36.7"/>
  <path fill="#F5967F" d="M441 565l-5.1 3-5.8-3.3 5.2-3"/>
  <path fill="#F1526B" d="M441 565v3.3l-5.1 3V568"/>
  <path fill="#FFCABE" d="M435.9 568v3.3l-5.8-3.3v-3.3"/>
  <path fill="#F5967F" d="M431 560l-5.1 3-5.8-3.3 5.2-3"/>
  <path fill="#F1526B" d="M431 560v3.3l-5.1 3V563"/>
  <path fill="#FFCABE" d="M425.9 563v3.3l-5.8-3.3v-3.3"/>
  <defs>
    <path id="aq" d="M395.5 571l30.8-17.9 32.4 18.7-30.9 17.9z"/>
  </defs>
  <clipPath id="ar">
    <use xlink:href="#aq" overflow="visible"/>
  </clipPath>
  <path fill="#F5967F" d="M458.3 571.6l-30.4 17.2-32.1-18-.3.2 32.4 18.2 30.8-17.4-.4-.2" clip-path="url(#ar)"/>
  <defs>
    <path id="as" d="M395.5 579l30.8-17.9 32.4 18.7-30.9 17.9z"/>
  </defs>
  <clipPath id="at">
    <use xlink:href="#as" overflow="visible"/>
  </clipPath>
  <path fill="#F5967F" d="M458.7 579.8l-.4-.2-30.4 17.2-32.1-18-.3.2 32.4 18.2 30.8-17.4" clip-path="url(#at)"/>
  <defs>
    <path id="au" d="M395.5 587l30.8-17.9 32.4 18.7-30.9 17.9z"/>
  </defs>
  <clipPath id="av">
    <use xlink:href="#au" overflow="visible"/>
  </clipPath>
  <path fill="#F5967F" d="M458.7 587.8l-.4-.2-30.4 17.2-32.1-18-.3.2 32.4 18.2 30.8-17.4" clip-path="url(#av)"/>
  <defs>
    <path id="aw" d="M405.5 603.2l.1-13.2 7.5 4.4v13.1z"/>
  </defs>
  <clipPath id="ax">
    <use xlink:href="#aw" overflow="visible"/>
  </clipPath>
  <g clip-path="url(#ax)">
    <path fill="#FFF" d="M413.1 594.4l-7.5-4.4-.1 13.2 7.6 4.3v-13.1"/>
  </g>
  <path fill="#E2F1F6" d="M398.3 603.2l-.8.5-.8-.5.8-.4"/>
  <path fill="#43A4C9" d="M398.3 603.2l-.1 16.3-.8.5.1-16.3"/>
  <path fill="#EDF6F9" d="M397.5 603.7l-.1 16.3-.7-.5v-16.3"/>
  <path fill="#E2F1F6" d="M387.3 597.2l-.8.5-.8-.5.8-.4"/>
  <path fill="#43A4C9" d="M387.3 597.2l-.1 16.3-.8.5.1-16.3"/>
  <path fill="#EDF6F9" d="M386.5 597.7l-.1 16.3-.7-.5v-16.3"/>
  <path fill="#97D2E8" d="M417.3 593.4l-23.6 13.7-14-8.1 23.5-13.7"/>
  <path fill="#43A4C9" d="M417.3 593.4v2.4l-23.6 13.7v-2.4"/>
  <path fill="#EDF6F9" d="M393.7 607.1v2.4l-14-8.1V599"/>
  <defs>
    <path id="ay" d="M404.2 581.3V570l9.8 5.7v11.2z"/>
  </defs>
  <clipPath id="az">
    <use xlink:href="#ay" overflow="visible"/>
  </clipPath>
  <path fill="#F1526B" d="M410.6 573.7l-2.9-1.7v4l-3.5-2v3.3l3.5 2-.1 3.9 2.9 1.7V581l3.5 1.9v-3.3l-3.4-2v-3.9" clip-path="url(#az)"/>
  <path fill="#F1526B" d="M361.2 604.5l-.1 4.9-18.9 11v-4.9"/>
  <path fill="#FFCABE" d="M409.1 632.2v4.9l-48-27.7.1-4.9"/>
  <path fill="#F5967F" d="M361.2 603.7l49.4 28.5-20.3 11.8-49.4-28.5 20.3-11.8zm29 39.5l18.9-11-48-27.7-18.9 11 48 27.7"/>
  <path fill="#F1526B" d="M410.5 632.2v4.9l-20.3 11.8v-4.8"/>
  <path fill="#FFCABE" d="M390.2 644.1v4.8l-49.4-28.5v-4.9"/>
  <path fill="#BCE5EC" d="M344 616.6l46.2 26.6 17.2-9.9-46.2-26.7"/>
  <path fill="#97D2E8" d="M760.2 753.3l-79.7 45.1L438.3 659l79.7-45"/>
  <path fill="#43A4C9" d="M760.2 753.3v9l-79.8 45.1.1-9"/>
  <path fill="#EDF6F9" d="M680.5 798.4l-.1 9L438.3 668v-9"/>
  <path fill="#F1526B" d="M562 674.2l14.4-18-.3 11.8-14.2 7.5"/>
  <path fill="#F5967F" d="M562 674.2l-29-16.9 14.5-17.9 28.9 16.8"/>
  <path fill="#FFCABE" d="M561.9 675.5L533 658.7v-1.4l29 16.9"/>
  <path fill="#FFDD8E" d="M549.4 644l21.3 12.4-10.6 13.2-21.3-12.4"/>
  <defs>
    <path id="aA" d="M549.4 644l21.3 12.4-10.6 13.2-21.3-12.4z"/>
  </defs>
  <clipPath id="aB">
    <use xlink:href="#aA" overflow="visible"/>
  </clipPath>
  <path fill="none" stroke="#FFC550" stroke-miterlimit="10" d="M541.3 659.4l11.2-14.1" clip-path="url(#aB)"/>
  <defs>
    <path id="aC" d="M549.4 644l21.3 12.4-10.6 13.2-21.3-12.4z"/>
  </defs>
  <clipPath id="aD">
    <use xlink:href="#aC" overflow="visible"/>
  </clipPath>
  <path fill="none" stroke="#FFC550" stroke-miterlimit="10" d="M545.1 661.6l11.1-14" clip-path="url(#aD)"/>
  <defs>
    <path id="aE" d="M549.4 644l21.3 12.4-10.6 13.2-21.3-12.4z"/>
  </defs>
  <clipPath id="aF">
    <use xlink:href="#aE" overflow="visible"/>
  </clipPath>
  <path fill="none" stroke="#FFC550" stroke-miterlimit="10" d="M548.5 663.5l11.2-14.1" clip-path="url(#aF)"/>
  <defs>
    <path id="aG" d="M549.4 644l21.3 12.4-10.6 13.2-21.3-12.4z"/>
  </defs>
  <clipPath id="aH">
    <use xlink:href="#aG" overflow="visible"/>
  </clipPath>
  <path fill="none" stroke="#FFC550" stroke-miterlimit="10" d="M552.3 665.7l11.2-14.1" clip-path="url(#aH)"/>
  <defs>
    <path id="aI" d="M549.4 644l21.3 12.4-10.6 13.2-21.3-12.4z"/>
  </defs>
  <clipPath id="aJ">
    <use xlink:href="#aI" overflow="visible"/>
  </clipPath>
  <path fill="none" stroke="#FFC550" stroke-miterlimit="10" d="M556.2 668.2l11.2-14" clip-path="url(#aJ)"/>
  <path fill="#F1526B" d="M523.1 651.3l14.5-17.9-.4 11.7-14.1 7.6"/>
  <path fill="#F5967F" d="M523.1 651.3l-28.9-16.8 14.4-17.9 29 16.8"/>
  <path fill="#FFCABE" d="M523.1 652.7l-28.9-16.8v-1.4l28.9 16.8"/>
  <path fill="#FFDD8E" d="M510.5 621.2l21.3 12.3-10.6 13.2-21.3-12.3"/>
  <defs>
    <path id="aK" d="M510.5 621.2l21.3 12.3-10.6 13.2-21.3-12.3z"/>
  </defs>
  <clipPath id="aL">
    <use xlink:href="#aK" overflow="visible"/>
  </clipPath>
  <path fill="none" stroke="#FFC550" stroke-miterlimit="10" d="M502.4 636.6l11.2-14.1" clip-path="url(#aL)"/>
  <defs>
    <path id="aM" d="M510.5 621.2l21.3 12.3-10.6 13.2-21.3-12.3z"/>
  </defs>
  <clipPath id="aN">
    <use xlink:href="#aM" overflow="visible"/>
  </clipPath>
  <path fill="none" stroke="#FFC550" stroke-miterlimit="10" d="M506.2 638.8l11.2-14.1" clip-path="url(#aN)"/>
  <defs>
    <path id="aO" d="M510.5 621.2l21.3 12.3-10.6 13.2-21.3-12.3z"/>
  </defs>
  <clipPath id="aP">
    <use xlink:href="#aO" overflow="visible"/>
  </clipPath>
  <path fill="none" stroke="#FFC550" stroke-miterlimit="10" d="M509.7 640.6l11.1-14" clip-path="url(#aP)"/>
  <defs>
    <path id="aQ" d="M510.5 621.2l21.3 12.3-10.6 13.2-21.3-12.3z"/>
  </defs>
  <clipPath id="aR">
    <use xlink:href="#aQ" overflow="visible"/>
  </clipPath>
  <path fill="none" stroke="#FFC550" stroke-miterlimit="10" d="M513.4 642.9l11.2-14.1" clip-path="url(#aR)"/>
  <defs>
    <path id="aS" d="M510.5 621.2l21.3 12.3-10.6 13.2-21.3-12.3z"/>
  </defs>
  <clipPath id="aT">
    <use xlink:href="#aS" overflow="visible"/>
  </clipPath>
  <path fill="none" stroke="#FFC550" stroke-miterlimit="10" d="M517.4 645.4l11.1-14.1" clip-path="url(#aT)"/>
  <path fill="#F1526B" d="M717.9 765l14.4-18-.3 11.8-14.1 7.5"/>
  <path fill="#F5967F" d="M717.9 765L689 748.2l14.4-18 28.9 16.8"/>
  <path fill="#FFCABE" d="M717.9 766.3l-29-16.8.1-1.3 28.9 16.8"/>
  <path fill="#FFDD8E" d="M705.3 734.8l21.3 12.4-10.6 13.2-21.3-12.4"/>
  <defs>
    <path id="aU" d="M705.3 734.8l21.3 12.4-10.6 13.2-21.3-12.4z"/>
  </defs>
  <clipPath id="aV">
    <use xlink:href="#aU" overflow="visible"/>
  </clipPath>
  <path fill="none" stroke="#FFC550" stroke-miterlimit="10" d="M697.2 750.2l11.2-14" clip-path="url(#aV)"/>
  <defs>
    <path id="aW" d="M705.3 734.8l21.3 12.4-10.6 13.2-21.3-12.4z"/>
  </defs>
  <clipPath id="aX">
    <use xlink:href="#aW" overflow="visible"/>
  </clipPath>
  <path fill="none" stroke="#FFC550" stroke-miterlimit="10" d="M701 752.4l11.2-14" clip-path="url(#aX)"/>
  <defs>
    <path id="aY" d="M705.3 734.8l21.3 12.4-10.6 13.2-21.3-12.4z"/>
  </defs>
  <clipPath id="aZ">
    <use xlink:href="#aY" overflow="visible"/>
  </clipPath>
  <path fill="none" stroke="#FFC550" stroke-miterlimit="10" d="M704.4 754.3l11.2-14.1" clip-path="url(#aZ)"/>
  <defs>
    <path id="ba" d="M705.3 734.8l21.3 12.4-10.6 13.2-21.3-12.4z"/>
  </defs>
  <clipPath id="bb">
    <use xlink:href="#ba" overflow="visible"/>
  </clipPath>
  <path fill="none" stroke="#FFC550" stroke-miterlimit="10" d="M708.2 756.5l11.2-14.1" clip-path="url(#bb)"/>
  <defs>
    <path id="bc" d="M705.3 734.8l21.3 12.4-10.6 13.2-21.3-12.4z"/>
  </defs>
  <clipPath id="bd">
    <use xlink:href="#bc" overflow="visible"/>
  </clipPath>
  <path fill="none" stroke="#FFC550" stroke-miterlimit="10" d="M712.2 759l11.1-14" clip-path="url(#bd)"/>
  <path fill="#F1526B" d="M600.9 697l14.4-18-.3 11.8-14.1 7.6"/>
  <path fill="#F5967F" d="M600.9 697L572 680.2l14.4-18 28.9 16.8"/>
  <path fill="#FFCABE" d="M600.9 698.4l-29-16.9.1-1.3 28.9 16.8"/>
  <path fill="#FFDD8E" d="M587.7 666.8l21.3 12.4-10.6 13.2-21.3-12.4"/>
  <defs>
    <path id="be" d="M587.7 666.8l21.3 12.4-10.6 13.2-21.3-12.4z"/>
  </defs>
  <clipPath id="bf">
    <use xlink:href="#be" overflow="visible"/>
  </clipPath>
  <path fill="none" stroke="#FFC550" stroke-miterlimit="10" d="M579.6 682.2l11.2-14" clip-path="url(#bf)"/>
  <defs>
    <path id="bg" d="M587.7 666.8l21.3 12.4-10.6 13.2-21.3-12.4z"/>
  </defs>
  <clipPath id="bh">
    <use xlink:href="#bg" overflow="visible"/>
  </clipPath>
  <path fill="none" stroke="#FFC550" stroke-miterlimit="10" d="M583.4 684.4l11.2-14" clip-path="url(#bh)"/>
  <defs>
    <path id="bi" d="M587.7 666.8l21.3 12.4-10.6 13.2-21.3-12.4z"/>
  </defs>
  <clipPath id="bj">
    <use xlink:href="#bi" overflow="visible"/>
  </clipPath>
  <path fill="none" stroke="#FFC550" stroke-miterlimit="10" d="M586.8 686.3l11.2-14.1" clip-path="url(#bj)"/>
  <defs>
    <path id="bk" d="M587.7 666.8l21.3 12.4-10.6 13.2-21.3-12.4z"/>
  </defs>
  <clipPath id="bl">
    <use xlink:href="#bk" overflow="visible"/>
  </clipPath>
  <path fill="none" stroke="#FFC550" stroke-miterlimit="10" d="M590.6 688.5l11.2-14.1" clip-path="url(#bl)"/>
  <defs>
    <path id="bm" d="M587.7 666.8l21.3 12.4-10.6 13.2-21.3-12.4z"/>
  </defs>
  <clipPath id="bn">
    <use xlink:href="#bm" overflow="visible"/>
  </clipPath>
  <path fill="none" stroke="#FFC550" stroke-miterlimit="10" d="M594.6 691l11.1-14" clip-path="url(#bn)"/>
  <path fill="#F1526B" d="M639.9 719.7l14.5-17.9-.4 11.7-14.1 7.6"/>
  <path fill="#F5967F" d="M639.9 719.7L611 702.9l14.4-18 29 16.9"/>
  <path fill="#FFCABE" d="M639.9 721.1L611 704.3v-1.4l28.9 16.8"/>
  <path fill="#FFDD8E" d="M627.2 689.5l21.3 12.4-10.6 13.2-21.3-12.4"/>
  <defs>
    <path id="bo" d="M627.2 689.5l21.3 12.4-10.6 13.2-21.3-12.4z"/>
  </defs>
  <clipPath id="bp">
    <use xlink:href="#bo" overflow="visible"/>
  </clipPath>
  <path fill="none" stroke="#FFC550" stroke-miterlimit="10" d="M619.2 704.9l11.1-14" clip-path="url(#bp)"/>
  <defs>
    <path id="bq" d="M627.2 689.5l21.3 12.4-10.6 13.2-21.3-12.4z"/>
  </defs>
  <clipPath id="br">
    <use xlink:href="#bq" overflow="visible"/>
  </clipPath>
  <path fill="none" stroke="#FFC550" stroke-miterlimit="10" d="M622.9 707.2l11.2-14.1" clip-path="url(#br)"/>
  <defs>
    <path id="bs" d="M627.2 689.5l21.3 12.4-10.6 13.2-21.3-12.4z"/>
  </defs>
  <clipPath id="bt">
    <use xlink:href="#bs" overflow="visible"/>
  </clipPath>
  <path fill="none" stroke="#FFC550" stroke-miterlimit="10" d="M626.4 709l11.1-14" clip-path="url(#bt)"/>
  <defs>
    <path id="bu" d="M627.2 689.5l21.3 12.4-10.6 13.2-21.3-12.4z"/>
  </defs>
  <clipPath id="bv">
    <use xlink:href="#bu" overflow="visible"/>
  </clipPath>
  <path fill="none" stroke="#FFC550" stroke-miterlimit="10" d="M630.2 711.2l11.1-14" clip-path="url(#bv)"/>
  <defs>
    <path id="bw" d="M627.2 689.5l21.3 12.4-10.6 13.2-21.3-12.4z"/>
  </defs>
  <clipPath id="bx">
    <use xlink:href="#bw" overflow="visible"/>
  </clipPath>
  <path fill="none" stroke="#FFC550" stroke-miterlimit="10" d="M634.1 713.8l11.2-14.1" clip-path="url(#bx)"/>
  <path fill="#F1526B" d="M678.9 742.3l14.5-17.9-.4 11.7-14.1 7.6"/>
  <path fill="#F5967F" d="M678.9 742.3L650 725.5l14.4-17.9 29 16.8"/>
  <path fill="#FFCABE" d="M678.9 743.7L650 726.9v-1.4l28.9 16.8"/>
  <path fill="#FFDD8E" d="M666.3 712l21.3 12.4-10.6 13.2-21.3-12.4"/>
  <defs>
    <path id="by" d="M666.3 712l21.3 12.4-10.6 13.2-21.3-12.4z"/>
  </defs>
  <clipPath id="bz">
    <use xlink:href="#by" overflow="visible"/>
  </clipPath>
  <path fill="none" stroke="#FFC550" stroke-miterlimit="10" d="M658.2 727.4l11.2-14" clip-path="url(#bz)"/>
  <defs>
    <path id="bA" d="M666.3 712l21.3 12.4-10.6 13.2-21.3-12.4z"/>
  </defs>
  <clipPath id="bB">
    <use xlink:href="#bA" overflow="visible"/>
  </clipPath>
  <path fill="none" stroke="#FFC550" stroke-miterlimit="10" d="M662 729.6l11.2-14" clip-path="url(#bB)"/>
  <defs>
    <path id="bC" d="M666.3 712l21.3 12.4-10.6 13.2-21.3-12.4z"/>
  </defs>
  <clipPath id="bD">
    <use xlink:href="#bC" overflow="visible"/>
  </clipPath>
  <path fill="none" stroke="#FFC550" stroke-miterlimit="10" d="M665.5 731.5l11.1-14.1" clip-path="url(#bD)"/>
  <defs>
    <path id="bE" d="M666.3 712l21.3 12.4-10.6 13.2-21.3-12.4z"/>
  </defs>
  <clipPath id="bF">
    <use xlink:href="#bE" overflow="visible"/>
  </clipPath>
  <path fill="none" stroke="#FFC550" stroke-miterlimit="10" d="M669.2 733.7l11.2-14.1" clip-path="url(#bF)"/>
  <defs>
    <path id="bG" d="M666.3 712l21.3 12.4-10.6 13.2-21.3-12.4z"/>
  </defs>
  <clipPath id="bH">
    <use xlink:href="#bG" overflow="visible"/>
  </clipPath>
  <path fill="none" stroke="#FFC550" stroke-miterlimit="10" d="M673.2 736.2l11.1-14" clip-path="url(#bH)"/>
  <path fill="#F1526B" d="M530 692.2l14.4-18-.3 11.8-14.2 7.5"/>
  <path fill="#F5967F" d="M530 692.2l-29-16.9 14.5-17.9 28.9 16.8"/>
  <path fill="#FFCABE" d="M529.9 693.5L501 676.7v-1.4l29 16.9"/>
  <path fill="#FFDD8E" d="M517.4 662l21.3 12.4-10.6 13.2-21.3-12.4"/>
  <defs>
    <path id="bI" d="M517.4 662l21.3 12.4-10.6 13.2-21.3-12.4z"/>
  </defs>
  <clipPath id="bJ">
    <use xlink:href="#bI" overflow="visible"/>
  </clipPath>
  <path fill="none" stroke="#FFC550" stroke-miterlimit="10" d="M509.3 677.4l11.2-14.1" clip-path="url(#bJ)"/>
  <defs>
    <path id="bK" d="M517.4 662l21.3 12.4-10.6 13.2-21.3-12.4z"/>
  </defs>
  <clipPath id="bL">
    <use xlink:href="#bK" overflow="visible"/>
  </clipPath>
  <path fill="none" stroke="#FFC550" stroke-miterlimit="10" d="M513.1 679.6l11.1-14" clip-path="url(#bL)"/>
  <defs>
    <path id="bM" d="M517.4 662l21.3 12.4-10.6 13.2-21.3-12.4z"/>
  </defs>
  <clipPath id="bN">
    <use xlink:href="#bM" overflow="visible"/>
  </clipPath>
  <path fill="none" stroke="#FFC550" stroke-miterlimit="10" d="M516.5 681.5l11.2-14.1" clip-path="url(#bN)"/>
  <defs>
    <path id="bO" d="M517.4 662l21.3 12.4-10.6 13.2-21.3-12.4z"/>
  </defs>
  <clipPath id="bP">
    <use xlink:href="#bO" overflow="visible"/>
  </clipPath>
  <path fill="none" stroke="#FFC550" stroke-miterlimit="10" d="M520.3 683.7l11.2-14.1" clip-path="url(#bP)"/>
  <defs>
    <path id="bQ" d="M517.4 662l21.3 12.4-10.6 13.2-21.3-12.4z"/>
  </defs>
  <clipPath id="bR">
    <use xlink:href="#bQ" overflow="visible"/>
  </clipPath>
  <path fill="none" stroke="#FFC550" stroke-miterlimit="10" d="M524.2 686.2l11.2-14" clip-path="url(#bR)"/>
  <path fill="#F1526B" d="M491.1 669.3l14.5-17.9-.4 11.7-14.1 7.6"/>
  <path fill="#F5967F" d="M491.1 669.3l-28.9-16.8 14.4-17.9 29 16.8"/>
  <path fill="#FFCABE" d="M491.1 670.7l-28.9-16.8v-1.4l28.9 16.8"/>
  <path fill="#FFDD8E" d="M478.5 639.2l21.3 12.3-10.6 13.2-21.3-12.3"/>
  <defs>
    <path id="bS" d="M478.5 639.2l21.3 12.3-10.6 13.2-21.3-12.3z"/>
  </defs>
  <clipPath id="bT">
    <use xlink:href="#bS" overflow="visible"/>
  </clipPath>
  <path fill="none" stroke="#FFC550" stroke-miterlimit="10" d="M470.4 654.6l11.2-14.1" clip-path="url(#bT)"/>
  <defs>
    <path id="bU" d="M478.5 639.2l21.3 12.3-10.6 13.2-21.3-12.3z"/>
  </defs>
  <clipPath id="bV">
    <use xlink:href="#bU" overflow="visible"/>
  </clipPath>
  <path fill="none" stroke="#FFC550" stroke-miterlimit="10" d="M474.2 656.8l11.2-14.1" clip-path="url(#bV)"/>
  <defs>
    <path id="bW" d="M478.5 639.2l21.3 12.3-10.6 13.2-21.3-12.3z"/>
  </defs>
  <clipPath id="bX">
    <use xlink:href="#bW" overflow="visible"/>
  </clipPath>
  <path fill="none" stroke="#FFC550" stroke-miterlimit="10" d="M477.7 658.6l11.1-14" clip-path="url(#bX)"/>
  <defs>
    <path id="bY" d="M478.5 639.2l21.3 12.3-10.6 13.2-21.3-12.3z"/>
  </defs>
  <clipPath id="bZ">
    <use xlink:href="#bY" overflow="visible"/>
  </clipPath>
  <path fill="none" stroke="#FFC550" stroke-miterlimit="10" d="M481.4 660.9l11.2-14.1" clip-path="url(#bZ)"/>
  <defs>
    <path id="ca" d="M478.5 639.2l21.3 12.3-10.6 13.2-21.3-12.3z"/>
  </defs>
  <clipPath id="cb">
    <use xlink:href="#ca" overflow="visible"/>
  </clipPath>
  <path fill="none" stroke="#FFC550" stroke-miterlimit="10" d="M485.4 663.4l11.1-14.1" clip-path="url(#cb)"/>
  <path fill="#F1526B" d="M685.9 783l14.4-18-.3 11.8-14.1 7.5"/>
  <path fill="#F5967F" d="M685.9 783L657 766.2l14.4-18 28.9 16.8"/>
  <path fill="#FFCABE" d="M685.9 784.3l-29-16.8.1-1.3 28.9 16.8"/>
  <path fill="#FFDD8E" d="M673.3 752.8l21.3 12.4-10.6 13.2-21.3-12.4"/>
  <defs>
    <path id="cc" d="M673.3 752.8l21.3 12.4-10.6 13.2-21.3-12.4z"/>
  </defs>
  <clipPath id="cd">
    <use xlink:href="#cc" overflow="visible"/>
  </clipPath>
  <path fill="none" stroke="#FFC550" stroke-miterlimit="10" d="M665.2 768.2l11.2-14" clip-path="url(#cd)"/>
  <defs>
    <path id="ce" d="M673.3 752.8l21.3 12.4-10.6 13.2-21.3-12.4z"/>
  </defs>
  <clipPath id="cf">
    <use xlink:href="#ce" overflow="visible"/>
  </clipPath>
  <path fill="none" stroke="#FFC550" stroke-miterlimit="10" d="M669 770.4l11.2-14" clip-path="url(#cf)"/>
  <defs>
    <path id="cg" d="M673.3 752.8l21.3 12.4-10.6 13.2-21.3-12.4z"/>
  </defs>
  <clipPath id="ch">
    <use xlink:href="#cg" overflow="visible"/>
  </clipPath>
  <path fill="none" stroke="#FFC550" stroke-miterlimit="10" d="M672.4 772.3l11.2-14.1" clip-path="url(#ch)"/>
  <defs>
    <path id="ci" d="M673.3 752.8l21.3 12.4-10.6 13.2-21.3-12.4z"/>
  </defs>
  <clipPath id="cj">
    <use xlink:href="#ci" overflow="visible"/>
  </clipPath>
  <path fill="none" stroke="#FFC550" stroke-miterlimit="10" d="M676.2 774.5l11.2-14.1" clip-path="url(#cj)"/>
  <defs>
    <path id="ck" d="M673.3 752.8l21.3 12.4-10.6 13.2-21.3-12.4z"/>
  </defs>
  <clipPath id="cl">
    <use xlink:href="#ck" overflow="visible"/>
  </clipPath>
  <path fill="none" stroke="#FFC550" stroke-miterlimit="10" d="M680.2 777l11.1-14" clip-path="url(#cl)"/>
  <path fill="#F1526B" d="M568.9 715l14.4-18-.3 11.8-14.1 7.6"/>
  <path fill="#F5967F" d="M568.9 715L540 698.2l14.4-18 28.9 16.8"/>
  <path fill="#FFCABE" d="M568.9 716.4l-29-16.9.1-1.3 28.9 16.8"/>
  <path fill="#FFDD8E" d="M555.7 684.8l21.3 12.4-10.6 13.2-21.3-12.4"/>
  <defs>
    <path id="cm" d="M555.7 684.8l21.3 12.4-10.6 13.2-21.3-12.4z"/>
  </defs>
  <clipPath id="cn">
    <use xlink:href="#cm" overflow="visible"/>
  </clipPath>
  <path fill="none" stroke="#FFC550" stroke-miterlimit="10" d="M547.6 700.2l11.2-14" clip-path="url(#cn)"/>
  <defs>
    <path id="co" d="M555.7 684.8l21.3 12.4-10.6 13.2-21.3-12.4z"/>
  </defs>
  <clipPath id="cp">
    <use xlink:href="#co" overflow="visible"/>
  </clipPath>
  <path fill="none" stroke="#FFC550" stroke-miterlimit="10" d="M551.4 702.4l11.2-14" clip-path="url(#cp)"/>
  <defs>
    <path id="cq" d="M555.7 684.8l21.3 12.4-10.6 13.2-21.3-12.4z"/>
  </defs>
  <clipPath id="cr">
    <use xlink:href="#cq" overflow="visible"/>
  </clipPath>
  <path fill="none" stroke="#FFC550" stroke-miterlimit="10" d="M554.8 704.3l11.2-14.1" clip-path="url(#cr)"/>
  <defs>
    <path id="cs" d="M555.7 684.8l21.3 12.4-10.6 13.2-21.3-12.4z"/>
  </defs>
  <clipPath id="ct">
    <use xlink:href="#cs" overflow="visible"/>
  </clipPath>
  <path fill="none" stroke="#FFC550" stroke-miterlimit="10" d="M558.6 706.5l11.2-14.1" clip-path="url(#ct)"/>
  <defs>
    <path id="cu" d="M555.7 684.8l21.3 12.4-10.6 13.2-21.3-12.4z"/>
  </defs>
  <clipPath id="cv">
    <use xlink:href="#cu" overflow="visible"/>
  </clipPath>
  <path fill="none" stroke="#FFC550" stroke-miterlimit="10" d="M562.6 709l11.1-14" clip-path="url(#cv)"/>
  <path fill="#F1526B" d="M607.9 737.7l14.5-17.9-.4 11.7-14.1 7.6"/>
  <path fill="#F5967F" d="M607.9 737.7L579 720.9l14.4-18 29 16.9"/>
  <path fill="#FFCABE" d="M607.9 739.1L579 722.3v-1.4l28.9 16.8"/>
  <path fill="#FFDD8E" d="M595.2 707.5l21.3 12.4-10.6 13.2-21.3-12.4"/>
  <defs>
    <path id="cw" d="M595.2 707.5l21.3 12.4-10.6 13.2-21.3-12.4z"/>
  </defs>
  <clipPath id="cx">
    <use xlink:href="#cw" overflow="visible"/>
  </clipPath>
  <path fill="none" stroke="#FFC550" stroke-miterlimit="10" d="M587.2 722.9l11.1-14" clip-path="url(#cx)"/>
  <defs>
    <path id="cy" d="M595.2 707.5l21.3 12.4-10.6 13.2-21.3-12.4z"/>
  </defs>
  <clipPath id="cz">
    <use xlink:href="#cy" overflow="visible"/>
  </clipPath>
  <path fill="none" stroke="#FFC550" stroke-miterlimit="10" d="M590.9 725.2l11.2-14.1" clip-path="url(#cz)"/>
  <defs>
    <path id="cA" d="M595.2 707.5l21.3 12.4-10.6 13.2-21.3-12.4z"/>
  </defs>
  <clipPath id="cB">
    <use xlink:href="#cA" overflow="visible"/>
  </clipPath>
  <path fill="none" stroke="#FFC550" stroke-miterlimit="10" d="M594.4 727l11.1-14" clip-path="url(#cB)"/>
  <defs>
    <path id="cC" d="M595.2 707.5l21.3 12.4-10.6 13.2-21.3-12.4z"/>
  </defs>
  <clipPath id="cD">
    <use xlink:href="#cC" overflow="visible"/>
  </clipPath>
  <path fill="none" stroke="#FFC550" stroke-miterlimit="10" d="M598.2 729.2l11.1-14" clip-path="url(#cD)"/>
  <defs>
    <path id="cE" d="M595.2 707.5l21.3 12.4-10.6 13.2-21.3-12.4z"/>
  </defs>
  <clipPath id="cF">
    <use xlink:href="#cE" overflow="visible"/>
  </clipPath>
  <path fill="none" stroke="#FFC550" stroke-miterlimit="10" d="M602.1 731.8l11.2-14.1" clip-path="url(#cF)"/>
  <path fill="#F1526B" d="M646.9 760.3l14.5-17.9-.4 11.7-14.1 7.6"/>
  <path fill="#F5967F" d="M646.9 760.3L618 743.5l14.4-17.9 29 16.8"/>
  <path fill="#FFCABE" d="M646.9 761.7L618 744.9v-1.4l28.9 16.8"/>
  <path fill="#FFDD8E" d="M634.3 730l21.3 12.4-10.6 13.2-21.3-12.4"/>
  <defs>
    <path id="cG" d="M634.3 730l21.3 12.4-10.6 13.2-21.3-12.4z"/>
  </defs>
  <clipPath id="cH">
    <use xlink:href="#cG" overflow="visible"/>
  </clipPath>
  <path fill="none" stroke="#FFC550" stroke-miterlimit="10" d="M626.2 745.4l11.2-14" clip-path="url(#cH)"/>
  <defs>
    <path id="cI" d="M634.3 730l21.3 12.4-10.6 13.2-21.3-12.4z"/>
  </defs>
  <clipPath id="cJ">
    <use xlink:href="#cI" overflow="visible"/>
  </clipPath>
  <path fill="none" stroke="#FFC550" stroke-miterlimit="10" d="M630 747.6l11.2-14" clip-path="url(#cJ)"/>
  <defs>
    <path id="cK" d="M634.3 730l21.3 12.4-10.6 13.2-21.3-12.4z"/>
  </defs>
  <clipPath id="cL">
    <use xlink:href="#cK" overflow="visible"/>
  </clipPath>
  <path fill="none" stroke="#FFC550" stroke-miterlimit="10" d="M633.5 749.5l11.1-14.1" clip-path="url(#cL)"/>
  <defs>
    <path id="cM" d="M634.3 730l21.3 12.4-10.6 13.2-21.3-12.4z"/>
  </defs>
  <clipPath id="cN">
    <use xlink:href="#cM" overflow="visible"/>
  </clipPath>
  <path fill="none" stroke="#FFC550" stroke-miterlimit="10" d="M637.2 751.7l11.2-14.1" clip-path="url(#cN)"/>
  <defs>
    <path id="cO" d="M634.3 730l21.3 12.4-10.6 13.2-21.3-12.4z"/>
  </defs>
  <clipPath id="cP">
    <use xlink:href="#cO" overflow="visible"/>
  </clipPath>
  <path fill="none" stroke="#FFC550" stroke-miterlimit="10" d="M641.2 754.2l11.1-14" clip-path="url(#cP)"/>
  <defs>
    <path id="cQ" d="M723.5 720.2l38.3-22.3 40 23.1-38.4 22.3z"/>
  </defs>
  <clipPath id="cR">
    <use xlink:href="#cQ" overflow="visible"/>
  </clipPath>
  <g clip-path="url(#cR)">
    <path fill="#676B2F" d="M801.8 721l-40-23.1-38.3 22.3 39.9 23.1 38.4-22.3"/>
  </g>
  <defs>
    <path id="cS" d="M662.4 686.7l38.3-22.3 40 23-38.4 22.3z"/>
  </defs>
  <clipPath id="cT">
    <use xlink:href="#cS" overflow="visible"/>
  </clipPath>
  <g clip-path="url(#cT)">
    <path fill="#676B2F" d="M740.7 687.4l-40-23-38.3 22.3 39.9 23 38.4-22.3"/>
  </g>
  <defs>
    <path id="cU" d="M600.9 651.8l38.4-22.3 39.9 23-38.4 22.3z"/>
  </defs>
  <clipPath id="cV">
    <use xlink:href="#cU" overflow="visible"/>
  </clipPath>
  <g clip-path="url(#cV)">
    <path fill="#676B2F" d="M679.2 652.5l-39.9-23-38.4 22.3 39.9 23 38.4-22.3"/>
  </g>
  <defs>
    <path id="cW" d="M541.8 618.2l38.4-22.3 39.9 23-38.4 22.3z"/>
  </defs>
  <clipPath id="cX">
    <use xlink:href="#cW" overflow="visible"/>
  </clipPath>
  <g clip-path="url(#cX)">
    <path fill="#676B2F" d="M620.1 618.9l-39.9-23-38.4 22.3 39.9 23 38.4-22.3"/>
  </g>
  <defs>
    <path id="cY" d="M566.8 618.4l14.3-8.3 14.4 8.3-14.3 8.3z"/>
  </defs>
  <clipPath id="cZ">
    <use xlink:href="#cY" overflow="visible"/>
  </clipPath>
  <g clip-path="url(#cZ)">
    <path fill="#E2E2E2" d="M595.5 618.4l-14.4-8.3-14.3 8.3 14.4 8.3 14.3-8.3"/>
  </g>
  <path fill="#FFF" d="M579.2 546.1l-.7 65.3s2.5 2.3 5.1 0l-.3-66.3-4.1 1z"/>
  <path fill="#FFF" d="M580 539.4l10.5-6.4s4.9.1 4.5 6.8c0 0-7.5 12-15.7 7.5 0-.1.3-4.5-3.2-5.3l3.9-2.6z"/>
  <defs>
    <path id="da" d="M579.2 546.1l-.7 65.3s2.5 2.3 5.1 0l-.3-66.3-4.1 1z"/>
  </defs>
  <clipPath id="db">
    <use xlink:href="#da" overflow="visible"/>
  </clipPath>
  <path fill="#E2E2E2" d="M581.5 546.5c.4.1.2 50.1-.3 67.3-.3 10.1 7.8-1 7.8-1l-2.4-64.1-5.1-2.2z" clip-path="url(#db)"/>
  <path fill="#D1D1D1" d="M578.5 611.2s2.9 1.3 5.2 0v6.7s-2.9 2.1-5.2-.1v-6.6z"/>
  <defs>
    <path id="dc" d="M578.5 611.2s2.9 1.3 5.2 0v6.7s-2.9 2.1-5.2-.1v-6.6z"/>
  </defs>
  <clipPath id="dd">
    <use xlink:href="#dc" overflow="visible"/>
  </clipPath>
  <path fill="#B7B7B7" d="M581.2 611.4l-.1 8.2 3.2-.8.9-4.8s-.7-3.5-.8-3.5-3.2.9-3.2.9z" clip-path="url(#dd)"/>
  <defs>
    <path id="de" d="M580 539.4l10.5-6.4s4.9.1 4.5 6.8c0 0-7.5 12-15.7 7.5 0-.1.3-4.5-3.2-5.3l3.9-2.6z"/>
  </defs>
  <clipPath id="df">
    <use xlink:href="#de" overflow="visible"/>
  </clipPath>
  <path fill="#E2E2E2" d="M578.1 544.7c.7-.5 15.1-9.2 15.7-9.9.5-.5.5.4.8-.3.2-.5-.3-.6.2-.7 1.1-.2 2.1 1.5 2.6 2.2.4.6.8 1.3.7 2-.1.8-.8 1.8-1.3 2.5-1.3 2-3.3 3.4-5.2 4.7-1 .7-2.1 1.2-3.2 1.7s-2.1 1.1-3.2 1.6c-.7.3-1.4.8-2.2 1s-1.7.3-2.6.3c-.7 0-1.4 0-2-.5-.4-.3-.7-.6-.9-1-.5-.6-.4-1.2-.4-1.9v-.5c0-.2-.2-.4-.2-.5 0-.5.9-.5 1.2-.7" clip-path="url(#df)"/>
  <path fill="#D1D1D1" d="M576.1 541.9c-.1 0-2.6 1.6-2.6 1.6s4.1 1.5 3.3 5.3l2.5-1.5c-.1 0 .4-4.6-3.2-5.4z"/>
  <defs>
    <path id="dg" d="M576.1 542c-.1 0-2.6 1.5-2.6 1.5s4 1.4 3.2 5.2l2.5-1.5c0 .1.5-4.3-3.1-5.2z"/>
  </defs>
  <clipPath id="dh">
    <use xlink:href="#dg" overflow="visible"/>
  </clipPath>
  <path fill="#BFBFBF" d="M578.8 544.4l-2.5 1.4.1 3.6 2.8-1 .9-3.3" clip-path="url(#dh)"/>
  <defs>
    <path id="di" d="M625.3 651.7l14.3-8.3 14.4 8.3-14.3 8.4z"/>
  </defs>
  <clipPath id="dj">
    <use xlink:href="#di" overflow="visible"/>
  </clipPath>
  <g clip-path="url(#dj)">
    <path fill="#E2E2E2" d="M654 651.7l-14.4-8.3-14.3 8.3 14.4 8.4 14.3-8.4"/>
  </g>
  <path fill="#FFF" d="M637.7 579l-.7 65.3s2.5 2.3 5.1 0l-.3-66.3-4.1 1z"/>
  <path fill="#FFF" d="M638.5 572.3l10.5-6.4s4.9.1 4.5 6.8c0 0-7.5 12-15.7 7.5 0-.1.3-4.5-3.2-5.3l3.9-2.6z"/>
  <defs>
    <path id="dk" d="M637.7 579l-.7 65.3s2.5 2.3 5.1 0l-.3-66.3-4.1 1z"/>
  </defs>
  <clipPath id="dl">
    <use xlink:href="#dk" overflow="visible"/>
  </clipPath>
  <path fill="#E2E2E2" d="M640 579.5c.4.1.2 50.1-.3 67.3-.3 10.1 7.8-1 7.8-1l-2.4-64.1-5.1-2.2z" clip-path="url(#dl)"/>
  <path fill="#D1D1D1" d="M637 644.1s2.9 1.3 5.2 0v6.7s-2.9 2.1-5.2-.1v-6.6z"/>
  <defs>
    <path id="dm" d="M637 644.1s2.9 1.3 5.2 0v6.7s-2.9 2.1-5.2-.1v-6.6z"/>
  </defs>
  <clipPath id="dn">
    <use xlink:href="#dm" overflow="visible"/>
  </clipPath>
  <path fill="#B7B7B7" d="M639.7 644.4l-.1 8.2 3.2-.8.9-4.8s-.7-3.5-.8-3.5c.1 0-3.2.9-3.2.9z" clip-path="url(#dn)"/>
  <defs>
    <path id="do" d="M638.5 572.3l10.5-6.4s4.9.1 4.5 6.8c0 0-7.5 12-15.7 7.5 0-.1.3-4.5-3.2-5.3l3.9-2.6z"/>
  </defs>
  <clipPath id="dp">
    <use xlink:href="#do" overflow="visible"/>
  </clipPath>
  <path fill="#E2E2E2" d="M636.6 577.7c.7-.5 15.1-9.2 15.7-9.9.5-.5.5.4.8-.3.2-.5-.3-.6.2-.7 1.1-.2 2.1 1.5 2.6 2.2.4.6.8 1.3.7 2-.1.8-.8 1.8-1.3 2.5-1.3 2-3.3 3.4-5.2 4.7-1 .7-2.1 1.2-3.2 1.7s-2.1 1.1-3.2 1.6c-.7.3-1.4.8-2.2 1s-1.7.3-2.6.3c-.7 0-1.4 0-2-.5-.4-.3-.7-.6-.9-1-.5-.6-.4-1.2-.4-1.9v-.5c0-.2-.2-.4-.2-.5 0-.5.9-.5 1.2-.7" clip-path="url(#dp)"/>
  <path fill="#D1D1D1" d="M634.5 574.8c-.1 0-2.6 1.6-2.6 1.6s4.1 1.5 3.3 5.3l2.5-1.5s.5-4.5-3.2-5.4z"/>
  <defs>
    <path id="dq" d="M634.6 575c-.1 0-2.6 1.5-2.6 1.5s4 1.4 3.2 5.2l2.5-1.5s.5-4.4-3.1-5.2z"/>
  </defs>
  <clipPath id="dr">
    <use xlink:href="#dq" overflow="visible"/>
  </clipPath>
  <path fill="#BFBFBF" d="M637.3 577.3l-2.5 1.5.1 3.6 2.8-1 .9-3.3" clip-path="url(#dr)"/>
  <defs>
    <path id="ds" d="M687.4 686.7l14.3-8.3 14.3 8.3-14.3 8.3z"/>
  </defs>
  <clipPath id="dt">
    <use xlink:href="#ds" overflow="visible"/>
  </clipPath>
  <g clip-path="url(#dt)">
    <path fill="#E2E2E2" d="M716 686.7l-14.3-8.3-14.3 8.3 14.3 8.3 14.3-8.3"/>
  </g>
  <path fill="#FFF" d="M699.9 614l-.7 65.3s2.5 2.3 5.1 0L704 613l-4.1 1z"/>
  <path fill="#FFF" d="M700.6 607.3l10.5-6.4s4.9.1 4.5 6.8c0 0-7.5 12-15.7 7.5 0-.1.3-4.5-3.2-5.3l3.9-2.6z"/>
  <defs>
    <path id="du" d="M699.9 614l-.7 65.3s2.5 2.3 5.1 0L704 613l-4.1 1z"/>
  </defs>
  <clipPath id="dv">
    <use xlink:href="#du" overflow="visible"/>
  </clipPath>
  <path fill="#E2E2E2" d="M702.1 614.5c.4.1.2 50.1-.3 67.3-.3 10.1 7.8-1 7.8-1l-2.4-64.1-5.1-2.2z" clip-path="url(#dv)"/>
  <path fill="#D1D1D1" d="M699.2 679.1s2.9 1.3 5.2 0v6.7s-2.9 2.1-5.2-.1v-6.6z"/>
  <defs>
    <path id="dw" d="M699.2 679.1s2.9 1.3 5.2 0v6.7s-2.9 2.1-5.2-.1v-6.6z"/>
  </defs>
  <clipPath id="dx">
    <use xlink:href="#dw" overflow="visible"/>
  </clipPath>
  <path fill="#B7B7B7" d="M701.8 679.3l-.1 8.2 3.2-.8.9-4.8s-.7-3.5-.8-3.5c.1.1-3.2.9-3.2.9z" clip-path="url(#dx)"/>
  <defs>
    <path id="dy" d="M700.6 607.3l10.5-6.4s4.9.1 4.5 6.8c0 0-7.5 12-15.7 7.5 0-.1.3-4.5-3.2-5.3l3.9-2.6z"/>
  </defs>
  <clipPath id="dz">
    <use xlink:href="#dy" overflow="visible"/>
  </clipPath>
  <path fill="#E2E2E2" d="M698.7 612.6c.7-.5 15.1-9.2 15.7-9.9.5-.5.5.4.8-.3.2-.5-.3-.6.2-.7 1.1-.2 2.1 1.5 2.6 2.2.4.6.8 1.3.7 2-.1.8-.8 1.8-1.3 2.5-1.3 2-3.3 3.4-5.2 4.7-1 .7-2.1 1.2-3.2 1.7s-2.1 1.1-3.2 1.6c-.7.3-1.4.8-2.2 1s-1.7.3-2.6.3c-.7 0-1.4 0-2-.5-.4-.3-.7-.6-.9-1-.5-.6-.4-1.2-.4-1.9v-.5c0-.2-.2-.4-.2-.5 0-.4.9-.5 1.2-.7" clip-path="url(#dz)"/>
  <path fill="#D1D1D1" d="M696.7 609.8c-.1 0-2.6 1.6-2.6 1.6s4.1 1.5 3.3 5.3l2.5-1.5s.4-4.6-3.2-5.4z"/>
  <defs>
    <path id="dA" d="M696.7 610c-.1 0-2.6 1.5-2.6 1.5s4 1.4 3.2 5.2l2.5-1.5c.1 0 .5-4.4-3.1-5.2z"/>
  </defs>
  <clipPath id="dB">
    <use xlink:href="#dA" overflow="visible"/>
  </clipPath>
  <path fill="#BFBFBF" d="M699.4 612.3l-2.5 1.4.1 3.6 2.8-1 1-3.2" clip-path="url(#dB)"/>
  <defs>
    <path id="dC" d="M748.2 720.2l14.3-8.3 14.4 8.3-14.3 8.3z"/>
  </defs>
  <clipPath id="dD">
    <use xlink:href="#dC" overflow="visible"/>
  </clipPath>
  <g clip-path="url(#dD)">
    <path fill="#E2E2E2" d="M776.9 720.2l-14.4-8.3-14.3 8.3 14.4 8.3 14.3-8.3"/>
  </g>
  <path fill="#FFF" d="M760.6 647.5l-.7 65.3s2.5 2.3 5.1 0l-.3-66.3-4.1 1z"/>
  <path fill="#FFF" d="M761.4 640.8l10.5-6.4s4.9.1 4.5 6.8c0 0-7.5 12-15.7 7.5 0-.1.3-4.5-3.2-5.3l3.9-2.6z"/>
  <defs>
    <path id="dE" d="M760.6 647.5l-.7 65.3s2.5 2.3 5.1 0l-.3-66.3-4.1 1z"/>
  </defs>
  <clipPath id="dF">
    <use xlink:href="#dE" overflow="visible"/>
  </clipPath>
  <path fill="#E2E2E2" d="M762.9 648c.4.1.2 50.1-.3 67.3-.3 10.1 7.8-1 7.8-1l-2.4-64.1-5.1-2.2z" clip-path="url(#dF)"/>
  <path fill="#D1D1D1" d="M759.9 712.6s2.9 1.3 5.2 0v6.7s-2.9 2.1-5.2-.1v-6.6z"/>
  <defs>
    <path id="dG" d="M759.9 712.6s2.9 1.3 5.2 0v6.7s-2.9 2.1-5.2-.1v-6.6z"/>
  </defs>
  <clipPath id="dH">
    <use xlink:href="#dG" overflow="visible"/>
  </clipPath>
  <path fill="#B7B7B7" d="M762.6 712.8l-.1 8.2 3.2-.8.9-4.8s-.7-3.5-.8-3.5c.1.1-3.2.9-3.2.9z" clip-path="url(#dH)"/>
  <defs>
    <path id="dI" d="M761.4 640.8l10.5-6.4s4.9.1 4.5 6.8c0 0-7.5 12-15.7 7.5 0-.1.3-4.5-3.2-5.3l3.9-2.6z"/>
  </defs>
  <clipPath id="dJ">
    <use xlink:href="#dI" overflow="visible"/>
  </clipPath>
  <path fill="#E2E2E2" d="M759.5 646.1c.7-.5 15.1-9.2 15.7-9.9.5-.5.5.4.8-.3.2-.5-.3-.6.2-.7 1.1-.2 2.1 1.5 2.6 2.2.4.6.8 1.3.7 2-.1.8-.8 1.8-1.3 2.5-1.3 2-3.3 3.4-5.2 4.7-1 .7-2.1 1.2-3.2 1.7s-2.1 1.1-3.2 1.6c-.7.3-1.4.8-2.2 1s-1.7.3-2.6.3c-.7 0-1.4 0-2-.5-.4-.3-.7-.6-.9-1-.5-.6-.4-1.2-.4-1.9v-.5c0-.2-.2-.4-.2-.5 0-.4.9-.4 1.2-.7" clip-path="url(#dJ)"/>
  <path fill="#D1D1D1" d="M757.5 643.3c-.1 0-2.6 1.6-2.6 1.6s4.1 1.5 3.3 5.3l2.5-1.5c-.1 0 .4-4.5-3.2-5.4z"/>
  <defs>
    <path id="dK" d="M757.5 643.5c-.1 0-2.6 1.5-2.6 1.5s4 1.4 3.2 5.2l2.5-1.5s.5-4.4-3.1-5.2z"/>
  </defs>
  <clipPath id="dL">
    <use xlink:href="#dK" overflow="visible"/>
  </clipPath>
  <path fill="#BFBFBF" d="M760.2 645.8l-2.5 1.5.1 3.5 2.8-1 .9-3.2" clip-path="url(#dL)"/>
</svg>
