<?xml version="1.0" encoding="utf-8"?>
<!-- Generator: Adobe Illustrator 18.1.0, SVG Export Plug-In . SVG Version: 6.00 Build 0)  -->
<svg version="1.1" id="Calque_1" xmlns="http://www.w3.org/2000/svg" xmlns:xlink="http://www.w3.org/1999/xlink" x="0px" y="0px"
	 viewBox="0 0 1440 875.8" enable-background="new 0 0 1440 875.8" xml:space="preserve">
<g enable-background="new    ">
	<defs>
		<polygon id="SVGID_306_" enable-background="new    " points="943.9,288.4 970,273.2 1008.9,295.7 982.9,310.9 		"/>
	</defs>
	<clipPath id="SVGID_1_">
		<use xlink:href="#SVGID_306_"  overflow="visible"/>
	</clipPath>
	<polyline clip-path="url(#SVGID_1_)" fill="#FFFFFF" points="1008.9,295.7 970,273.2 943.9,288.4 982.9,310.9 1008.9,295.7 	"/>
</g>
<polygon fill="#F5967F" points="1031.8,258.6 1016.5,267.5 970.1,240.7 985.3,231.8 "/>
<polygon fill="#F59A84" points="1031.8,258.6 1031.7,291.2 1016.5,300.1 1016.5,267.5 "/>
<polygon fill="#FFCABE" points="1016.5,267.5 1016.5,300.1 970,273.3 970.1,240.7 "/>
<polygon fill="#F8F6F3" points="1145.8,297.4 1145.7,313.7 1106.4,291 1106.5,274.7 "/>
<polygon fill="#E0D9CD" points="1148.6,297.4 1131.6,307.3 1130.1,306.4 1145.8,297.4 1106.5,274.7 1107.9,273.8 "/>
<polygon fill="#D8CFBF" points="1148.6,297.4 1148.6,313.7 1131.5,323.6 1131.6,307.3 "/>
<polygon fill="#F8F6F3" points="1131.6,307.3 1131.5,323.6 1130.1,322.8 1130.1,306.4 "/>
<polygon fill="#D8CFBF" points="1060.9,259.5 1060.8,275.8 1045.2,284.9 1045.2,268.6 "/>
<polygon fill="#F8F6F3" points="1045.2,268.6 1045.2,284.9 1043.8,284.1 1043.8,267.7 "/>
<polygon fill="#E0D9CD" points="1101.6,281.4 1100.2,282.2 1060.9,259.5 1045.2,268.6 1043.8,267.7 1060.9,257.8 "/>
<polygon fill="#D8CFBF" points="1101.6,281.4 1101.6,297.7 1100.2,298.5 1100.2,282.2 "/>
<polygon fill="#F8F6F3" points="1100.2,282.2 1100.2,298.5 1060.8,275.8 1060.9,259.5 "/>
<polygon fill="#FFD176" points="1076,243.9 1076,248.8 1069.7,252.4 1069.7,247.5 "/>
<polygon fill="#FFF7E6" points="1069.7,247.5 1069.7,252.4 1061.2,247.5 1061.2,242.6 "/>
<polygon fill="#FFDD8E" points="1076,243.9 1069.7,247.5 1061.2,242.6 1051.7,248.1 1045.2,244.4 1061,235.2 "/>
<polygon fill="#FFBD6A" points="1061.2,242.6 1061.2,247.5 1051.7,253 1051.7,248.1 "/>
<polygon fill="#FFF7E6" points="1051.7,248.1 1051.7,253 1045.2,249.3 1045.2,244.4 "/>
<polygon fill="#FFDD8E" points="1054.1,218.3 1014.3,241.4 997.9,231.9 1037.7,208.8 "/>
<polygon fill="#FFBD6A" points="1054.1,218.3 1053.9,308 1014.1,331.1 1014.3,241.4 "/>
<polygon fill="#FFF5D4" points="1014.3,241.4 1014.1,331.1 997.6,321.6 997.9,231.9 "/>
<polygon fill="#FFDD8E" points="1010.6,245.5 1006.1,248.1 997.4,243 1001.8,240.4 "/>
<polygon fill="#FFBD6A" points="1010.6,245.5 1010.4,318.9 1005.9,321.5 1006.1,248.1 "/>
<polygon fill="#FFF5D4" points="1006.1,248.1 1005.9,321.5 997.2,316.4 997.4,243 "/>
<polygon fill="#F59680" points="1029.9,216.7 1029.9,221.7 1034.2,224.2 "/>
<polygon fill="#FFF2D3" points="1034.2,224.2 1040.8,220.4 1036.4,212.9 1029.9,216.7 "/>
<polygon fill="#F1526B" points="1034.6,222.4 1039.1,219.8 1036.1,214.6 1031.6,217.2 "/>
<g enable-background="new    ">
	<defs>
		<polygon id="SVGID_305_" enable-background="new    " points="1023.6,308.3 1023.4,243.8 1046.3,230.6 1046.5,295.1 		"/>
	</defs>
	<clipPath id="SVGID_2_">
		<use xlink:href="#SVGID_305_"  overflow="visible"/>
	</clipPath>
	<polyline clip-path="url(#SVGID_2_)" fill="#FFFFFF" points="1033.9,237.7 1023.4,243.8 1023.4,251.5 1033.9,245.4 1033.9,237.7 	
		"/>
	<polyline clip-path="url(#SVGID_2_)" fill="#FFFFFF" points="1046.3,230.6 1035.7,236.7 1035.8,244.3 1046.3,238.2 1046.3,230.6 	
		"/>
	<polyline clip-path="url(#SVGID_2_)" fill="#FFFFFF" points="1033.9,247.2 1023.4,253.3 1023.4,261 1034,254.9 1033.9,247.2 	"/>
	<polyline clip-path="url(#SVGID_2_)" fill="#FFFFFF" points="1046.3,240.1 1035.8,246.2 1035.8,253.8 1046.3,247.7 1046.3,240.1 	
		"/>
	<polyline clip-path="url(#SVGID_2_)" fill="#FFFFFF" points="1034,256.7 1023.4,262.8 1023.4,270.4 1034,264.3 1034,256.7 	"/>
	<polyline clip-path="url(#SVGID_2_)" fill="#FFFFFF" points="1046.3,249.5 1035.8,255.6 1035.8,263.3 1046.4,257.2 1046.3,249.5 	
		"/>
	<polyline clip-path="url(#SVGID_2_)" fill="#FFFFFF" points="1034,266.2 1023.4,272.3 1023.5,279.9 1034,273.8 1034,266.2 	"/>
	<polyline clip-path="url(#SVGID_2_)" fill="#FFFFFF" points="1046.4,259 1035.8,265.1 1035.8,272.8 1046.4,266.7 1046.4,259 	"/>
	<polyline clip-path="url(#SVGID_2_)" fill="#FFFFFF" points="1034,275.6 1023.5,281.7 1023.5,289.4 1034.1,283.3 1034,275.6 	"/>
	<polyline clip-path="url(#SVGID_2_)" fill="#FFFFFF" points="1046.4,268.5 1035.8,274.6 1035.9,282.2 1046.4,276.1 1046.4,268.5 	
		"/>
	<polyline clip-path="url(#SVGID_2_)" fill="#FFFFFF" points="1034.1,285.1 1023.5,291.2 1023.5,298.9 1034.1,292.8 1034.1,285.1 	
		"/>
	<polyline clip-path="url(#SVGID_2_)" fill="#FFFFFF" points="1046.4,278 1035.9,284.1 1035.9,291.7 1046.5,285.6 1046.4,278 	"/>
	<polyline clip-path="url(#SVGID_2_)" fill="#FFFFFF" points="1034.1,294.6 1023.5,300.7 1023.6,308.3 1034.1,302.2 1034.1,294.6 	
		"/>
	<polyline clip-path="url(#SVGID_2_)" fill="#FFFFFF" points="1046.5,287.4 1035.9,293.5 1035.9,301.2 1046.5,295.1 1046.5,287.4 	
		"/>
</g>
<polygon fill="#FFDD8E" points="1125.5,227.9 1109.1,237.4 1069.1,214.3 1085.4,204.8 "/>
<polygon fill="#FFBD6A" points="1125.5,227.9 1125.2,317.6 1108.9,327.1 1109.1,237.4 "/>
<polygon fill="#FFF5D4" points="1109.1,237.4 1108.9,327.1 1068.8,304 1069.1,214.3 "/>
<polygon fill="#F5967F" points="1117,219.8 1113.1,222.1 1109.4,219.9 1113.2,217.7 "/>
<polygon fill="#F1526B" points="1117,219.8 1116.9,228 1113.1,230.2 1113.1,222.1 "/>
<polygon fill="#FDECE8" points="1113.1,222.1 1113.1,230.2 1109.3,228.1 1109.4,219.9 "/>
<polygon fill="#F1526B" points="1097,210 1097,215 1092.7,217.5 "/>
<polygon fill="#FFF2D3" points="1092.7,217.5 1086.1,213.7 1090.5,206.2 1097,210 "/>
<polygon fill="#F59680" points="1092.3,215.8 1087.8,213.2 1090.8,208 1095.3,210.6 "/>
<g enable-background="new    ">
	<defs>
		<polygon id="SVGID_304_" enable-background="new    " points="1077.1,291.1 1077.3,226.6 1100.2,239.8 1100.1,304.3 		"/>
	</defs>
	<clipPath id="SVGID_3_">
		<use xlink:href="#SVGID_304_"  overflow="visible"/>
	</clipPath>
	<polyline clip-path="url(#SVGID_3_)" fill="#FFFFFF" points="1100.2,239.8 1089.7,233.7 1089.7,241.4 1100.2,247.5 1100.2,239.8 	
		"/>
	<polyline clip-path="url(#SVGID_3_)" fill="#FFFFFF" points="1087.9,232.7 1077.3,226.6 1077.3,234.2 1087.9,240.3 1087.9,232.7 	
		"/>
	<polyline clip-path="url(#SVGID_3_)" fill="#FFFFFF" points="1100.2,249.3 1089.7,243.2 1089.6,250.9 1100.2,257 1100.2,249.3 	"/>
	<polyline clip-path="url(#SVGID_3_)" fill="#FFFFFF" points="1087.9,242.2 1077.3,236.1 1077.3,243.7 1087.8,249.8 1087.9,242.2 	
		"/>
	<polyline clip-path="url(#SVGID_3_)" fill="#FFFFFF" points="1100.2,258.8 1089.6,252.7 1089.6,260.3 1100.2,266.4 1100.2,258.8 	
		"/>
	<polyline clip-path="url(#SVGID_3_)" fill="#FFFFFF" points="1087.8,251.6 1077.3,245.5 1077.2,253.2 1087.8,259.3 1087.8,251.6 	
		"/>
	<polyline clip-path="url(#SVGID_3_)" fill="#FFFFFF" points="1100.2,268.3 1089.6,262.2 1089.6,269.8 1100.1,275.9 1100.2,268.3 	
		"/>
	<polyline clip-path="url(#SVGID_3_)" fill="#FFFFFF" points="1087.8,261.1 1077.2,255 1077.2,262.7 1087.8,268.8 1087.8,261.1 	"/>
	<polyline clip-path="url(#SVGID_3_)" fill="#FFFFFF" points="1100.1,277.7 1089.6,271.6 1089.6,279.3 1100.1,285.4 1100.1,277.7 	
		"/>
	<polyline clip-path="url(#SVGID_3_)" fill="#FFFFFF" points="1087.8,270.6 1077.2,264.5 1077.2,272.1 1087.8,278.2 1087.8,270.6 	
		"/>
	<polyline clip-path="url(#SVGID_3_)" fill="#FFFFFF" points="1100.1,287.2 1089.6,281.1 1089.5,288.8 1100.1,294.9 1100.1,287.2 	
		"/>
	<polyline clip-path="url(#SVGID_3_)" fill="#FFFFFF" points="1087.7,280.1 1077.2,274 1077.2,281.6 1087.7,287.7 1087.7,280.1 	"/>
	<polyline clip-path="url(#SVGID_3_)" fill="#FFFFFF" points="1100.1,296.7 1089.5,290.6 1089.5,298.2 1100.1,304.3 1100.1,296.7 	
		"/>
	<polyline clip-path="url(#SVGID_3_)" fill="#FFFFFF" points="1087.7,289.5 1077.2,283.4 1077.1,291.1 1087.7,297.2 1087.7,289.5 	
		"/>
</g>
<polygon fill="#F5967F" points="1097.8,323.2 1056.7,347.1 1023.4,327.8 1064.5,303.9 "/>
<polygon fill="#F1526B" points="1097.8,323.2 1097.8,332.9 1056.6,356.9 1056.7,347.1 "/>
<polygon fill="#FFCABE" points="1056.7,347.1 1056.6,356.9 1023.3,337.6 1023.4,327.8 "/>
<polygon fill="#97D2E8" points="1097.8,317.4 1056.7,341.3 1023.4,322.1 1064.5,298.2 "/>
<g>
	<polygon fill="#43A4C9" points="1097.8,317.4 1097.8,320.7 1056.7,344.6 1056.7,341.3 	"/>
</g>
<g>
	<polygon fill="#EDF6F9" points="1056.6,341.4 1056.6,344.7 1023.4,325.3 1023.4,322.1 	"/>
</g>
<polygon fill="#97D2E8" points="996.2,235.3 988.6,239.7 980.5,235 988.1,230.6 "/>
<polygon fill="#43A4C9" points="996.2,235.3 996.2,241.8 988.6,246.2 988.6,239.7 "/>
<polygon fill="#EDF6F9" points="988.6,239.7 988.6,246.2 980.5,241.5 980.5,235 "/>
<g enable-background="new    ">
	<defs>
		<polygon id="SVGID_4_" enable-background="new    " points="983.7,241.6 983.8,239.2 984.9,239.9 984.9,242.2 		"/>
	</defs>
	<use xlink:href="#SVGID_4_"  overflow="visible" fill="#5095A0"/>
	<clipPath id="SVGID_5_">
		<use xlink:href="#SVGID_4_"  overflow="visible"/>
	</clipPath>
	<polyline clip-path="url(#SVGID_5_)" fill="#5095A0" points="984.9,239.9 983.8,239.2 983.7,241.6 984.9,242.2 984.9,239.9 	"/>
</g>
<g>
	<defs>
		<rect id="SVGID_6_" x="960.1" y="259.4" width="37.9" height="28.4"/>
	</defs>
	<clipPath id="SVGID_7_">
		<use xlink:href="#SVGID_6_"  overflow="visible"/>
	</clipPath>
	<g clip-path="url(#SVGID_7_)">
		<defs>
			<rect id="SVGID_8_" x="983.8" y="264.7" width="10.9" height="14.8"/>
		</defs>
		<clipPath id="SVGID_9_">
			<use xlink:href="#SVGID_8_"  overflow="visible"/>
		</clipPath>
		<polygon clip-path="url(#SVGID_9_)" fill="#FFFFFF" points="983.8,273.2 994.6,279.5 994.6,271 983.8,264.7 		"/>
	</g>
	<polygon opacity="0.5" clip-path="url(#SVGID_7_)" fill="#FFE29D" points="988.7,273.5 992.1,275.4 994.6,273.9 994.6,271 
		993.8,270.5 	"/>
	<polygon opacity="0.5" clip-path="url(#SVGID_7_)" fill="#FFE29D" points="983.8,271 983.8,273.2 986.2,274.6 993.5,270.3 
		989.2,267.8 	"/>
</g>
<g>
	<defs>
		<polygon id="SVGID_10_" points="982.2,264.6 993.7,271.3 995.6,268.7 984.1,262 		"/>
	</defs>
	<clipPath id="SVGID_11_">
		<use xlink:href="#SVGID_10_"  overflow="visible"/>
	</clipPath>
	<polygon clip-path="url(#SVGID_11_)" fill="#FFE29D" points="995.6,268.7 984.1,262 982.2,264.6 993.7,271.3 	"/>
</g>
<g>
	<defs>
		<rect id="SVGID_12_" x="960.1" y="259.4" width="37.9" height="28.4"/>
	</defs>
	<clipPath id="SVGID_13_">
		<use xlink:href="#SVGID_12_"  overflow="visible"/>
	</clipPath>
	<polygon clip-path="url(#SVGID_13_)" fill="#CE3653" points="982.2,265.4 982.2,264.6 993.7,271.3 993.7,272.1 	"/>
	<polygon clip-path="url(#SVGID_13_)" fill="#F1526B" points="983.6,265.4 985.5,262.8 986.8,263.6 984.8,266.2 	"/>
	<polygon clip-path="url(#SVGID_13_)" fill="#F1526B" points="986,266.8 987.9,264.2 989.2,265 987.3,267.6 	"/>
	<polygon clip-path="url(#SVGID_13_)" fill="#F1526B" points="988.5,268.3 990.4,265.7 991.7,266.4 989.8,269 	"/>
	<polygon clip-path="url(#SVGID_13_)" fill="#F1526B" points="991,269.7 992.9,267.1 994.2,267.9 992.3,270.5 	"/>
	<polygon clip-path="url(#SVGID_13_)" fill="#FFD580" points="982.2,264.6 983.6,265.4 983.6,266.3 982.2,265.4 	"/>
	<polygon clip-path="url(#SVGID_13_)" fill="#FFD580" points="984.8,266.2 986,266.8 986,267.7 984.8,267 	"/>
	<polygon clip-path="url(#SVGID_13_)" fill="#FFD580" points="987.3,267.6 988.5,268.3 988.5,269.1 987.3,268.4 	"/>
	<polygon clip-path="url(#SVGID_13_)" fill="#FFD580" points="989.8,269 991,269.7 991,270.6 989.8,269.8 	"/>
	<polygon clip-path="url(#SVGID_13_)" fill="#FFD580" points="992.3,270.5 993.7,271.3 993.7,272.1 992.3,271.3 	"/>
</g>
<g>
	<defs>
		<polygon id="SVGID_14_" points="983.8,273.5 994.6,279.8 994.6,279.5 983.8,273.2 		"/>
	</defs>
	<clipPath id="SVGID_15_">
		<use xlink:href="#SVGID_14_"  overflow="visible"/>
	</clipPath>
	<polygon clip-path="url(#SVGID_15_)" fill="#F27D66" points="994.6,279.5 983.8,273.2 983.8,273.5 994.6,279.8 	"/>
</g>
<g>
	<defs>
		<polygon id="SVGID_16_" points="983,273.9 995.4,281.1 995.4,280.2 983,273 		"/>
	</defs>
	<use xlink:href="#SVGID_16_"  overflow="visible" fill="#FFBD6A"/>
	<clipPath id="SVGID_17_">
		<use xlink:href="#SVGID_16_"  overflow="visible"/>
	</clipPath>
	<polygon clip-path="url(#SVGID_17_)" fill="#FFBD6A" points="995.4,280.2 983,273 983,273.9 995.4,281.1 	"/>
</g>
<g>
	<defs>
		<polygon id="SVGID_303_" points="974.5,275.9 974.5,267.9 977.8,269.8 977.7,277.8 		"/>
	</defs>
	<use xlink:href="#SVGID_303_"  overflow="visible" fill="#F1526B"/>
	<clipPath id="SVGID_18_">
		<use xlink:href="#SVGID_303_"  overflow="visible"/>
	</clipPath>
	<polyline clip-path="url(#SVGID_18_)" fill="#F1526B" points="977.8,269.8 974.5,267.9 974.5,275.9 977.7,277.8 977.8,269.8 	"/>
</g>
<polygon fill="#F1526B" points="971.4,251.4 971.5,256.4 966.8,259.7 966.8,254.7 "/>
<polygon fill="#F7E3DF" points="966.8,259.7 966.6,259.5 966.6,254.6 966.8,254.7 "/>
<polygon fill="#F5967F" points="966.8,254.7 966.6,254.6 971.2,251.3 971.4,251.4 "/>
<line fill="none" stroke="#BCE5EC" stroke-width="0.25" stroke-miterlimit="10" x1="971" y1="247.4" x2="971" y2="251.6"/>
<line fill="none" stroke="#BCE5EC" stroke-width="0.25" stroke-miterlimit="10" x1="966.9" y1="250.3" x2="966.9" y2="254.5"/>
<g>
	<defs>
		<rect id="SVGID_19_" x="940" y="242.2" width="57.2" height="53.2"/>
	</defs>
	<clipPath id="SVGID_20_">
		<use xlink:href="#SVGID_19_"  overflow="visible"/>
	</clipPath>
	<path clip-path="url(#SVGID_20_)" fill="#F7BEB2" d="M964.9,251.6l6.3-4.5c0,0,0.1,0,0.1,0L964.9,251.6
		C965,251.6,964.9,251.6,964.9,251.6"/>
	<path clip-path="url(#SVGID_20_)" fill="#F7E3DF" d="M965,251.6c0.1,0.1,0.1,0.2,0.1,0.3c0,0.1-0.1,0.1-0.1,0.1
		c-0.1-0.1-0.1-0.2-0.1-0.3C964.9,251.6,964.9,251.6,965,251.6"/>
	<path clip-path="url(#SVGID_20_)" fill="#F1526B" d="M971.4,247.5l-6.3,4.5c0,0,0-0.1,0-0.1c0-0.1-0.1-0.2-0.1-0.3l6.3-4.5
		c0.1,0.1,0.1,0.2,0.1,0.3C971.4,247.4,971.4,247.5,971.4,247.5"/>
	<path clip-path="url(#SVGID_20_)" fill="#FFE29D" d="M969.4,254.3c-0.3,0.2-0.6,0.5-0.7,0.6c-0.1,0.2-0.1,0.3-0.1,0.3
		c0,0,0.5,1.3,0.5,1.3l0,0c0.1,0,0.2,0,0.2,0c0.1-0.1,0.2-0.3,0.2-0.3c0.1-0.3,0.6-2,0.6-2c0-0.1-0.1-0.1-0.1-0.1
		C969.8,254,969.6,254.2,969.4,254.3"/>
	<path clip-path="url(#SVGID_20_)" fill="#FFE29D" d="M970.3,254.1c0,0-0.5,1.7-0.6,1.9c0,0,0.2-0.1,0.4-0.2c0.1,0,0.1-0.1,0.1-0.1
		c0,0,0.2-0.7,0.6-1.4C970.7,254.4,970.7,253.8,970.3,254.1"/>
	<path clip-path="url(#SVGID_20_)" fill="#FFE29D" d="M970.8,254.5c0,0-0.4,0.7-0.5,1.2c0,0,0,0,0,0c0,0,0,0,0.1,0
		c0.1,0,0.2-0.1,0.3-0.1c0.1-0.1,0.2-0.2,0.3-0.3c0,0,0.1-0.1,0.1-0.3l0,0C971.1,254.9,971,254.7,970.8,254.5"/>
	<path clip-path="url(#SVGID_20_)" fill="#FFE29D" d="M968.5,255.5c0,0-0.3,0.3-0.4,0.7l0,0c0,0-0.1,0.2,0,0.3c0,0,0.4,0.7,0.4,0.7
		s0,0.1,0.1,0c0,0,0,0,0,0l0.4-0.3L968.5,255.5"/>
	<path clip-path="url(#SVGID_20_)" fill="#FFE29D" d="M968,256.5c0,0-0.2,0.5-0.3,0.8c0,0-0.1,0.4,0.2,0.4c0,0,0.1,0,0.2-0.1
		c0.1-0.1,0.2-0.2,0.3-0.3C968.4,257.1,968,256.5,968,256.5"/>
</g>
<g>
	<defs>
		<path id="SVGID_21_" d="M969.4,254.3c-0.3,0.2-0.6,0.5-0.7,0.6c-0.1,0.2-0.1,0.3-0.1,0.3c0,0,0.5,1.3,0.5,1.3l0,0
			c0.1,0,0.2,0,0.2,0c0.1-0.1,0.2-0.3,0.2-0.3c0.1-0.3,0.6-2,0.6-2c0-0.1-0.1-0.1-0.1-0.1c0,0,0,0-0.1,0
			C969.8,254.1,969.6,254.2,969.4,254.3"/>
	</defs>
	<clipPath id="SVGID_22_">
		<use xlink:href="#SVGID_21_"  overflow="visible"/>
	</clipPath>
	<path clip-path="url(#SVGID_22_)" fill="#FFD788" d="M967.3,257.6c0.5-0.8,1-1.5,1.7-1.9c0.7-0.5,1.5-0.7,2.2-0.5
		c0-0.3,0-0.7-0.2-1c-0.2-0.3-0.4-0.5-0.7-0.5c-0.3-0.1-0.6,0-0.8,0.1c-0.3,0.1-0.5,0.3-0.7,0.6c-0.3,0.3-0.6,0.6-0.9,1.1
		c-0.2,0.4-0.4,0.9-0.4,1.4c0,0.3,0,0.6-0.1,0.8"/>
</g>
<g>
	<defs>
		<path id="SVGID_23_" d="M970.3,254.1c0,0-0.5,1.7-0.6,1.9c0,0,0.2-0.1,0.4-0.2c0.1,0,0.1-0.1,0.1-0.1c0,0,0.2-0.7,0.6-1.4
			c0,0,0-0.4-0.2-0.4C970.4,254,970.4,254.1,970.3,254.1"/>
	</defs>
	<clipPath id="SVGID_24_">
		<use xlink:href="#SVGID_23_"  overflow="visible"/>
	</clipPath>
	<path clip-path="url(#SVGID_24_)" fill="#FFD788" d="M967.3,257.6c0.5-0.8,1-1.5,1.7-1.9c0.7-0.5,1.5-0.7,2.2-0.5
		c0-0.3,0-0.7-0.2-1c-0.2-0.3-0.4-0.5-0.7-0.5c-0.3-0.1-0.6,0-0.8,0.1c-0.3,0.1-0.5,0.3-0.7,0.6c-0.3,0.3-0.6,0.6-0.9,1.1
		c-0.2,0.4-0.4,0.9-0.4,1.4c0,0.3,0,0.6-0.1,0.8"/>
</g>
<g>
	<defs>
		<path id="SVGID_25_" d="M970.3,255.7C970.3,255.7,970.3,255.7,970.3,255.7c0,0,0.1,0,0.1,0c0.1,0,0.2-0.1,0.3-0.1
			c0.1-0.1,0.2-0.2,0.3-0.3c0,0,0.1-0.1,0.1-0.3l0,0c0,0,0-0.2-0.2-0.4C970.8,254.5,970.4,255.2,970.3,255.7"/>
	</defs>
	<clipPath id="SVGID_26_">
		<use xlink:href="#SVGID_25_"  overflow="visible"/>
	</clipPath>
	<path clip-path="url(#SVGID_26_)" fill="#FFD788" d="M967.3,257.6c0.5-0.8,1-1.5,1.7-1.9c0.7-0.5,1.5-0.7,2.2-0.5
		c0-0.3,0-0.7-0.2-1c-0.2-0.3-0.4-0.5-0.7-0.5c-0.3-0.1-0.6,0-0.8,0.1c-0.3,0.1-0.5,0.3-0.7,0.6c-0.3,0.3-0.6,0.6-0.9,1.1
		c-0.2,0.4-0.4,0.9-0.4,1.4c0,0.3,0,0.6-0.1,0.8"/>
</g>
<g>
	<defs>
		<path id="SVGID_27_" d="M968.1,256.1c0,0-0.1,0.2,0,0.3c0,0,0.4,0.7,0.4,0.7s0,0.1,0.1,0c0,0,0,0,0,0l0.4-0.3l-0.5-1.2
			C968.5,255.5,968.2,255.8,968.1,256.1"/>
	</defs>
	<clipPath id="SVGID_28_">
		<use xlink:href="#SVGID_27_"  overflow="visible"/>
	</clipPath>
	<path clip-path="url(#SVGID_28_)" fill="#FFD788" d="M967.3,257.6c0.5-0.8,1-1.5,1.7-1.9c0.7-0.5,1.5-0.7,2.2-0.5
		c0-0.3,0-0.7-0.2-1c-0.2-0.3-0.4-0.5-0.7-0.5c-0.3-0.1-0.6,0-0.8,0.1c-0.3,0.1-0.5,0.3-0.7,0.6c-0.3,0.3-0.6,0.6-0.9,1.1
		c-0.2,0.4-0.4,0.9-0.4,1.4c0,0.3,0,0.6-0.1,0.8"/>
</g>
<g>
	<defs>
		<path id="SVGID_29_" d="M967.7,257.3c0,0-0.1,0.4,0.2,0.4c0,0,0.1,0,0.2-0.1c0.1-0.1,0.2-0.2,0.3-0.3c0,0-0.4-0.7-0.4-0.7
			S967.8,257,967.7,257.3"/>
	</defs>
	<clipPath id="SVGID_30_">
		<use xlink:href="#SVGID_29_"  overflow="visible"/>
	</clipPath>
	<path clip-path="url(#SVGID_30_)" fill="#FFD788" d="M967.3,257.6c0.5-0.8,1-1.5,1.7-1.9c0.7-0.5,1.5-0.7,2.2-0.5
		c0-0.3,0-0.7-0.2-1c-0.2-0.3-0.4-0.5-0.7-0.5c-0.3-0.1-0.6,0-0.8,0.1c-0.3,0.1-0.5,0.3-0.7,0.6c-0.3,0.3-0.6,0.6-0.9,1.1
		c-0.2,0.4-0.4,0.9-0.4,1.4c0,0.3,0,0.6-0.1,0.8"/>
</g>
<g>
	<defs>
		<rect id="SVGID_31_" x="954.4" y="243.4" width="80.4" height="60.3"/>
	</defs>
	<clipPath id="SVGID_32_">
		<use xlink:href="#SVGID_31_"  overflow="visible"/>
	</clipPath>
	<g clip-path="url(#SVGID_32_)">
		<defs>
			<rect id="SVGID_33_" x="954.4" y="243.4" width="80.4" height="60.3"/>
		</defs>
		<clipPath id="SVGID_34_">
			<use xlink:href="#SVGID_33_"  overflow="visible"/>
		</clipPath>
		
			<line clip-path="url(#SVGID_34_)" fill="none" stroke="#5FA7AA" stroke-width="0.25" stroke-miterlimit="10" x1="978.7" y1="283" x2="978.7" y2="285.9"/>
		
			<line clip-path="url(#SVGID_34_)" fill="none" stroke="#5FA7AA" stroke-width="0.25" stroke-miterlimit="10" x1="981" y1="284.3" x2="981" y2="287.4"/>
		
			<line clip-path="url(#SVGID_34_)" fill="none" stroke="#5FA7AA" stroke-width="0.25" stroke-miterlimit="10" x1="983.4" y1="283.1" x2="983.4" y2="286.3"/>
	</g>
	<g clip-path="url(#SVGID_32_)">
		<defs>
			<polygon id="SVGID_35_" points="980.9,284.6 983.4,286 983.4,283.2 980.9,281.8 			"/>
		</defs>
		<clipPath id="SVGID_36_">
			<use xlink:href="#SVGID_35_"  overflow="visible"/>
		</clipPath>
		
			<rect x="980.8" y="283.9" transform="matrix(0.8688 -0.4951 0.4951 0.8688 -11.7469 523.556)" clip-path="url(#SVGID_36_)" fill="#5FA7AA" width="2.8" height="0.1"/>
	</g>
	<g clip-path="url(#SVGID_32_)">
		<defs>
			<rect id="SVGID_37_" x="954.4" y="243.4" width="80.4" height="60.3"/>
		</defs>
		<clipPath id="SVGID_38_">
			<use xlink:href="#SVGID_37_"  overflow="visible"/>
		</clipPath>
		
			<line clip-path="url(#SVGID_38_)" fill="none" stroke="#5FA7AA" stroke-width="0.25" stroke-miterlimit="10" x1="978.9" y1="280" x2="978.9" y2="283.2"/>
		
			<line clip-path="url(#SVGID_38_)" fill="none" stroke="#5FA7AA" stroke-width="0.25" stroke-miterlimit="10" x1="980.7" y1="279" x2="980.7" y2="282.2"/>
		<polygon clip-path="url(#SVGID_38_)" fill="#83C5CC" points="981.1,278.1 981.1,279 978.6,280.5 978.6,279.6 		"/>
		<polygon clip-path="url(#SVGID_38_)" fill="#EBF6F7" points="978.6,280.5 978.4,280.4 978.4,279.5 978.6,279.6 		"/>
		<polygon clip-path="url(#SVGID_38_)" fill="#BCE5EC" points="978.6,279.6 978.4,279.5 980.9,278 981.1,278.1 		"/>
		<polygon clip-path="url(#SVGID_38_)" fill="#83C5CC" points="981.1,279.3 981.1,280.2 978.6,281.7 978.6,280.8 		"/>
		<polygon clip-path="url(#SVGID_38_)" fill="#EBF6F7" points="978.6,281.7 978.4,281.6 978.4,280.7 978.6,280.8 		"/>
		<polygon clip-path="url(#SVGID_38_)" fill="#BCE5EC" points="978.6,280.8 978.4,280.7 980.9,279.2 981.1,279.3 		"/>
		<polygon clip-path="url(#SVGID_38_)" fill="#BCE5EC" points="983.6,283.1 981.1,284.6 978.5,283.1 981,281.7 		"/>
		<polygon clip-path="url(#SVGID_38_)" fill="#83C5CC" points="983.6,283.1 983.6,283.3 981.1,284.8 981.1,284.6 		"/>
		<polygon clip-path="url(#SVGID_38_)" fill="#EBF6F7" points="981.1,284.6 981.1,284.8 978.5,283.3 978.5,283.1 		"/>
	</g>
	<g clip-path="url(#SVGID_32_)">
		<defs>
			<polygon id="SVGID_39_" points="980.1,287.9 984.1,290.2 984.2,285.5 980.1,283.2 			"/>
		</defs>
		<clipPath id="SVGID_40_">
			<use xlink:href="#SVGID_39_"  overflow="visible"/>
		</clipPath>
		
			<rect x="982.1" y="282.7" transform="matrix(0.8669 -0.4984 0.4984 0.8669 -12.2105 527.6359)" clip-path="url(#SVGID_40_)" fill="#FFD580" width="0.1" height="8"/>
	</g>
	<g clip-path="url(#SVGID_32_)">
		<defs>
			<polygon id="SVGID_41_" points="980.1,287.8 984.1,290.2 984.2,285.5 980.1,283.2 			"/>
		</defs>
		<clipPath id="SVGID_42_">
			<use xlink:href="#SVGID_41_"  overflow="visible"/>
		</clipPath>
		
			<rect x="979.8" y="286.6" transform="matrix(0.8688 -0.4951 0.4951 0.8688 -13.1047 523.8927)" clip-path="url(#SVGID_42_)" fill="#FFD580" width="4.6" height="0.2"/>
	</g>
	<g clip-path="url(#SVGID_32_)">
		<defs>
			<polygon id="SVGID_43_" points="985,285.3 989.1,287.7 989.1,283 985,280.6 			"/>
		</defs>
		<clipPath id="SVGID_44_">
			<use xlink:href="#SVGID_43_"  overflow="visible"/>
		</clipPath>
		
			<rect x="987" y="280.1" transform="matrix(0.8693 -0.4942 0.4942 0.8693 -11.4633 524.9385)" clip-path="url(#SVGID_44_)" fill="#FFD580" width="0.1" height="8"/>
	</g>
	<g clip-path="url(#SVGID_32_)">
		<defs>
			<polygon id="SVGID_45_" points="985,285.3 989.1,287.7 989.1,283 985,280.6 			"/>
		</defs>
		<clipPath id="SVGID_46_">
			<use xlink:href="#SVGID_45_"  overflow="visible"/>
		</clipPath>
		
			<rect x="984.7" y="284.1" transform="matrix(0.8688 -0.4952 0.4952 0.8688 -11.1873 526.0587)" clip-path="url(#SVGID_46_)" fill="#FFD580" width="4.6" height="0.2"/>
	</g>
	<g clip-path="url(#SVGID_32_)">
		<defs>
			<rect id="SVGID_47_" x="954.4" y="243.4" width="80.4" height="60.3"/>
		</defs>
		<clipPath id="SVGID_48_">
			<use xlink:href="#SVGID_47_"  overflow="visible"/>
		</clipPath>
		<polygon clip-path="url(#SVGID_48_)" fill="#FFDD8E" points="989.4,282.9 984.4,285.8 979.4,282.9 984.4,280 		"/>
		<polygon clip-path="url(#SVGID_48_)" fill="#FFBD6A" points="989.4,282.9 989.4,283.3 984.4,286.2 984.4,285.8 		"/>
		<polygon clip-path="url(#SVGID_48_)" fill="#FFF5D4" points="984.4,285.8 984.4,286.2 979.4,283.3 979.4,282.9 		"/>
		
			<line clip-path="url(#SVGID_48_)" fill="none" stroke="#5FA7AA" stroke-width="0.25" stroke-miterlimit="10" x1="984.6" y1="286.6" x2="984.6" y2="289.5"/>
		
			<line clip-path="url(#SVGID_48_)" fill="none" stroke="#5FA7AA" stroke-width="0.25" stroke-miterlimit="10" x1="986.9" y1="287.9" x2="986.9" y2="291"/>
		
			<line clip-path="url(#SVGID_48_)" fill="none" stroke="#5FA7AA" stroke-width="0.25" stroke-miterlimit="10" x1="989.3" y1="286.7" x2="989.3" y2="289.9"/>
	</g>
	<g clip-path="url(#SVGID_32_)">
		<defs>
			<polygon id="SVGID_49_" points="986.8,288.2 989.3,289.6 989.3,286.8 986.8,285.4 			"/>
		</defs>
		<clipPath id="SVGID_50_">
			<use xlink:href="#SVGID_49_"  overflow="visible"/>
		</clipPath>
		
			<rect x="986.7" y="287.5" transform="matrix(0.8688 -0.4952 0.4952 0.8688 -12.7371 527.002)" clip-path="url(#SVGID_50_)" fill="#5FA7AA" width="2.8" height="0.1"/>
	</g>
	<g clip-path="url(#SVGID_32_)">
		<defs>
			<rect id="SVGID_51_" x="954.4" y="243.4" width="80.4" height="60.3"/>
		</defs>
		<clipPath id="SVGID_52_">
			<use xlink:href="#SVGID_51_"  overflow="visible"/>
		</clipPath>
		<polygon clip-path="url(#SVGID_52_)" fill="#BCE5EC" points="989.5,286.7 987,288.2 984.4,286.7 986.9,285.2 		"/>
		<polygon clip-path="url(#SVGID_52_)" fill="#83C5CC" points="989.5,286.7 989.5,286.9 987,288.4 987,288.2 		"/>
		<polygon clip-path="url(#SVGID_52_)" fill="#EBF6F7" points="987,288.2 987,288.4 984.4,286.9 984.4,286.7 		"/>
		<polygon clip-path="url(#SVGID_52_)" fill="#83C5CC" points="989.4,283 989.4,283.9 986.9,285.3 986.9,284.5 		"/>
		<polygon clip-path="url(#SVGID_52_)" fill="#EBF6F7" points="986.9,285.3 986.8,285.2 986.8,284.4 986.9,284.5 		"/>
		<polygon clip-path="url(#SVGID_52_)" fill="#BCE5EC" points="986.9,284.5 986.8,284.4 989.3,282.9 989.4,283 		"/>
		<polygon clip-path="url(#SVGID_52_)" fill="#83C5CC" points="989.4,284.2 989.4,285.1 986.9,286.5 986.9,285.7 		"/>
		<polygon clip-path="url(#SVGID_52_)" fill="#EBF6F7" points="986.9,286.5 986.8,286.4 986.8,285.6 986.9,285.7 		"/>
		<polygon clip-path="url(#SVGID_52_)" fill="#BCE5EC" points="986.9,285.7 986.8,285.6 989.3,284.1 989.4,284.2 		"/>
		
			<line clip-path="url(#SVGID_52_)" fill="none" stroke="#5FA7AA" stroke-width="0.25" stroke-miterlimit="10" x1="987.2" y1="284.9" x2="987.2" y2="288.1"/>
		
			<line clip-path="url(#SVGID_52_)" fill="none" stroke="#5FA7AA" stroke-width="0.25" stroke-miterlimit="10" x1="989" y1="283.9" x2="989" y2="287.1"/>
	</g>
</g>
<g>
	<defs>
		<rect id="SVGID_53_" x="950.7" y="257.1" width="80.4" height="60.3"/>
	</defs>
	<clipPath id="SVGID_54_">
		<use xlink:href="#SVGID_53_"  overflow="visible"/>
	</clipPath>
	<g clip-path="url(#SVGID_54_)">
		<defs>
			<rect id="SVGID_55_" x="950.7" y="257.1" width="80.4" height="60.3"/>
		</defs>
		<clipPath id="SVGID_56_">
			<use xlink:href="#SVGID_55_"  overflow="visible"/>
		</clipPath>
		
			<line clip-path="url(#SVGID_56_)" fill="none" stroke="#5FA7AA" stroke-width="0.25" stroke-miterlimit="10" x1="975" y1="296.7" x2="975" y2="299.6"/>
		
			<line clip-path="url(#SVGID_56_)" fill="none" stroke="#5FA7AA" stroke-width="0.25" stroke-miterlimit="10" x1="977.3" y1="298" x2="977.3" y2="301.1"/>
		
			<line clip-path="url(#SVGID_56_)" fill="none" stroke="#5FA7AA" stroke-width="0.25" stroke-miterlimit="10" x1="979.6" y1="296.8" x2="979.6" y2="300"/>
	</g>
	<g clip-path="url(#SVGID_54_)">
		<defs>
			<polygon id="SVGID_57_" points="977.2,298.3 979.6,299.7 979.6,296.9 977.2,295.5 			"/>
		</defs>
		<clipPath id="SVGID_58_">
			<use xlink:href="#SVGID_57_"  overflow="visible"/>
		</clipPath>
		
			<rect x="977" y="297.6" transform="matrix(0.8688 -0.4952 0.4952 0.8688 -19.0065 523.52)" clip-path="url(#SVGID_58_)" fill="#5FA7AA" width="2.8" height="0.1"/>
	</g>
	<g clip-path="url(#SVGID_54_)">
		<defs>
			<rect id="SVGID_59_" x="950.7" y="257.1" width="80.4" height="60.3"/>
		</defs>
		<clipPath id="SVGID_60_">
			<use xlink:href="#SVGID_59_"  overflow="visible"/>
		</clipPath>
		
			<line clip-path="url(#SVGID_60_)" fill="none" stroke="#5FA7AA" stroke-width="0.25" stroke-miterlimit="10" x1="975.1" y1="293.7" x2="975.1" y2="296.8"/>
		
			<line clip-path="url(#SVGID_60_)" fill="none" stroke="#5FA7AA" stroke-width="0.25" stroke-miterlimit="10" x1="976.9" y1="292.7" x2="976.9" y2="295.9"/>
		<polygon clip-path="url(#SVGID_60_)" fill="#83C5CC" points="977.3,291.8 977.3,292.7 974.8,294.1 974.8,293.3 		"/>
		<polygon clip-path="url(#SVGID_60_)" fill="#EBF6F7" points="974.8,294.1 974.6,294 974.6,293.2 974.8,293.3 		"/>
		<polygon clip-path="url(#SVGID_60_)" fill="#BCE5EC" points="974.8,293.3 974.6,293.2 977.1,291.7 977.3,291.8 		"/>
		<polygon clip-path="url(#SVGID_60_)" fill="#83C5CC" points="977.3,293 977.3,293.9 974.8,295.3 974.8,294.5 		"/>
		<polygon clip-path="url(#SVGID_60_)" fill="#EBF6F7" points="974.8,295.3 974.6,295.2 974.6,294.4 974.8,294.5 		"/>
		<polygon clip-path="url(#SVGID_60_)" fill="#BCE5EC" points="974.8,294.5 974.6,294.4 977.1,292.9 977.3,293 		"/>
		<polygon clip-path="url(#SVGID_60_)" fill="#BCE5EC" points="979.8,296.8 977.3,298.3 974.8,296.8 977.3,295.3 		"/>
		<polygon clip-path="url(#SVGID_60_)" fill="#83C5CC" points="979.8,296.8 979.8,297 977.3,298.5 977.3,298.3 		"/>
		<polygon clip-path="url(#SVGID_60_)" fill="#EBF6F7" points="977.3,298.3 977.3,298.5 974.8,297 974.8,296.8 		"/>
	</g>
	<g clip-path="url(#SVGID_54_)">
		<defs>
			<polygon id="SVGID_61_" points="976.3,301.5 980.4,303.9 980.4,299.2 976.3,296.8 			"/>
		</defs>
		<clipPath id="SVGID_62_">
			<use xlink:href="#SVGID_61_"  overflow="visible"/>
		</clipPath>
		
			<rect x="978.3" y="296.4" transform="matrix(0.8672 -0.4979 0.4979 0.8672 -19.6534 527.0346)" clip-path="url(#SVGID_62_)" fill="#FFD580" width="0.1" height="8"/>
	</g>
	<g clip-path="url(#SVGID_54_)">
		<defs>
			<polygon id="SVGID_63_" points="976.3,301.5 980.4,303.9 980.4,299.2 976.3,296.8 			"/>
		</defs>
		<clipPath id="SVGID_64_">
			<use xlink:href="#SVGID_63_"  overflow="visible"/>
		</clipPath>
		
			<rect x="976.1" y="300.3" transform="matrix(0.8688 -0.4951 0.4951 0.8688 -20.3705 523.8297)" clip-path="url(#SVGID_64_)" fill="#FFD580" width="4.6" height="0.2"/>
	</g>
	<g clip-path="url(#SVGID_54_)">
		<defs>
			<polygon id="SVGID_65_" points="981.2,299 985.3,301.4 985.3,296.7 981.2,294.3 			"/>
		</defs>
		<clipPath id="SVGID_66_">
			<use xlink:href="#SVGID_65_"  overflow="visible"/>
		</clipPath>
		
			<rect x="983.2" y="293.8" transform="matrix(0.8693 -0.4942 0.4942 0.8693 -18.7146 524.8717)" clip-path="url(#SVGID_66_)" fill="#FFD580" width="0.1" height="8"/>
	</g>
	<g clip-path="url(#SVGID_54_)">
		<defs>
			<polygon id="SVGID_67_" points="981.2,299 985.3,301.3 985.3,296.7 981.3,294.3 			"/>
		</defs>
		<clipPath id="SVGID_68_">
			<use xlink:href="#SVGID_67_"  overflow="visible"/>
		</clipPath>
		
			<rect x="981" y="297.7" transform="matrix(0.8688 -0.4952 0.4952 0.8688 -18.4539 525.9958)" clip-path="url(#SVGID_68_)" fill="#FFD580" width="4.6" height="0.2"/>
	</g>
	<g clip-path="url(#SVGID_54_)">
		<defs>
			<rect id="SVGID_69_" x="950.7" y="257.1" width="80.4" height="60.3"/>
		</defs>
		<clipPath id="SVGID_70_">
			<use xlink:href="#SVGID_69_"  overflow="visible"/>
		</clipPath>
		<polygon clip-path="url(#SVGID_70_)" fill="#FFDD8E" points="985.7,296.6 980.7,299.5 975.6,296.6 980.6,293.7 		"/>
		<polygon clip-path="url(#SVGID_70_)" fill="#FFBD6A" points="985.7,296.6 985.7,297 980.7,299.9 980.7,299.5 		"/>
		<polygon clip-path="url(#SVGID_70_)" fill="#FFF5D4" points="980.7,299.5 980.7,299.9 975.6,297 975.6,296.6 		"/>
		
			<line clip-path="url(#SVGID_70_)" fill="none" stroke="#5FA7AA" stroke-width="0.25" stroke-miterlimit="10" x1="980.9" y1="300.3" x2="980.9" y2="303.1"/>
		
			<line clip-path="url(#SVGID_70_)" fill="none" stroke="#5FA7AA" stroke-width="0.25" stroke-miterlimit="10" x1="983.2" y1="301.6" x2="983.2" y2="304.7"/>
		
			<line clip-path="url(#SVGID_70_)" fill="none" stroke="#5FA7AA" stroke-width="0.25" stroke-miterlimit="10" x1="985.5" y1="300.4" x2="985.5" y2="303.5"/>
	</g>
	<g clip-path="url(#SVGID_54_)">
		<defs>
			<polygon id="SVGID_71_" points="983.1,301.9 985.5,303.3 985.5,300.5 983.1,299.1 			"/>
		</defs>
		<clipPath id="SVGID_72_">
			<use xlink:href="#SVGID_71_"  overflow="visible"/>
		</clipPath>
		
			<rect x="982.9" y="301.2" transform="matrix(0.8688 -0.4951 0.4951 0.8688 -20.0148 526.8894)" clip-path="url(#SVGID_72_)" fill="#5FA7AA" width="2.8" height="0.1"/>
	</g>
	<g clip-path="url(#SVGID_54_)">
		<defs>
			<rect id="SVGID_73_" x="950.7" y="257.1" width="80.4" height="60.3"/>
		</defs>
		<clipPath id="SVGID_74_">
			<use xlink:href="#SVGID_73_"  overflow="visible"/>
		</clipPath>
		<polygon clip-path="url(#SVGID_74_)" fill="#BCE5EC" points="985.7,300.4 983.2,301.9 980.7,300.4 983.2,298.9 		"/>
		<polygon clip-path="url(#SVGID_74_)" fill="#83C5CC" points="985.7,300.4 985.7,300.6 983.2,302 983.2,301.9 		"/>
		<polygon clip-path="url(#SVGID_74_)" fill="#EBF6F7" points="983.2,301.9 983.2,302 980.7,300.6 980.7,300.4 		"/>
		<polygon clip-path="url(#SVGID_74_)" fill="#83C5CC" points="985.7,296.7 985.7,297.6 983.2,299 983.2,298.1 		"/>
		<polygon clip-path="url(#SVGID_74_)" fill="#EBF6F7" points="983.2,299 983,298.9 983,298 983.2,298.1 		"/>
		<polygon clip-path="url(#SVGID_74_)" fill="#BCE5EC" points="983.2,298.1 983,298 985.5,296.6 985.7,296.7 		"/>
		<polygon clip-path="url(#SVGID_74_)" fill="#83C5CC" points="985.7,297.9 985.7,298.8 983.2,300.2 983.2,299.3 		"/>
		<polygon clip-path="url(#SVGID_74_)" fill="#EBF6F7" points="983.2,300.2 983,300.1 983,299.2 983.2,299.3 		"/>
		<polygon clip-path="url(#SVGID_74_)" fill="#BCE5EC" points="983.2,299.3 983,299.2 985.5,297.8 985.7,297.9 		"/>
		
			<line clip-path="url(#SVGID_74_)" fill="none" stroke="#5FA7AA" stroke-width="0.25" stroke-miterlimit="10" x1="983.5" y1="298.6" x2="983.5" y2="301.8"/>
		
			<line clip-path="url(#SVGID_74_)" fill="none" stroke="#5FA7AA" stroke-width="0.25" stroke-miterlimit="10" x1="985.3" y1="297.6" x2="985.3" y2="300.7"/>
	</g>
</g>
<g>
	<defs>
		<rect id="SVGID_75_" x="933.6" y="245.3" width="80.4" height="60.3"/>
	</defs>
	<clipPath id="SVGID_76_">
		<use xlink:href="#SVGID_75_"  overflow="visible"/>
	</clipPath>
	<g clip-path="url(#SVGID_76_)">
		<defs>
			<rect id="SVGID_77_" x="933.6" y="245.3" width="80.4" height="60.3"/>
		</defs>
		<clipPath id="SVGID_78_">
			<use xlink:href="#SVGID_77_"  overflow="visible"/>
		</clipPath>
		
			<line clip-path="url(#SVGID_78_)" fill="none" stroke="#5FA7AA" stroke-width="0.25" stroke-miterlimit="10" x1="957.9" y1="284.9" x2="957.9" y2="287.7"/>
		
			<line clip-path="url(#SVGID_78_)" fill="none" stroke="#5FA7AA" stroke-width="0.25" stroke-miterlimit="10" x1="960.2" y1="286.2" x2="960.2" y2="289.3"/>
		
			<line clip-path="url(#SVGID_78_)" fill="none" stroke="#5FA7AA" stroke-width="0.25" stroke-miterlimit="10" x1="962.6" y1="285" x2="962.6" y2="288.1"/>
	</g>
	<g clip-path="url(#SVGID_76_)">
		<defs>
			<polygon id="SVGID_79_" points="960.1,286.5 962.6,287.9 962.6,285.1 960.1,283.7 			"/>
		</defs>
		<clipPath id="SVGID_80_">
			<use xlink:href="#SVGID_79_"  overflow="visible"/>
		</clipPath>
		
			<rect x="960" y="285.8" transform="matrix(0.8688 -0.4951 0.4951 0.8688 -15.3962 513.4969)" clip-path="url(#SVGID_80_)" fill="#5FA7AA" width="2.8" height="0.1"/>
	</g>
	<g clip-path="url(#SVGID_76_)">
		<defs>
			<rect id="SVGID_81_" x="933.6" y="245.3" width="80.4" height="60.3"/>
		</defs>
		<clipPath id="SVGID_82_">
			<use xlink:href="#SVGID_81_"  overflow="visible"/>
		</clipPath>
		
			<line clip-path="url(#SVGID_82_)" fill="none" stroke="#5FA7AA" stroke-width="0.25" stroke-miterlimit="10" x1="958" y1="281.9" x2="958" y2="285"/>
		
			<line clip-path="url(#SVGID_82_)" fill="none" stroke="#5FA7AA" stroke-width="0.25" stroke-miterlimit="10" x1="959.8" y1="280.9" x2="959.8" y2="284"/>
		<polygon clip-path="url(#SVGID_82_)" fill="#83C5CC" points="960.2,280 960.2,280.9 957.7,282.3 957.7,281.4 		"/>
		<polygon clip-path="url(#SVGID_82_)" fill="#EBF6F7" points="957.7,282.3 957.6,282.2 957.6,281.3 957.7,281.4 		"/>
		<polygon clip-path="url(#SVGID_82_)" fill="#BCE5EC" points="957.7,281.4 957.6,281.3 960.1,279.9 960.2,280 		"/>
		<polygon clip-path="url(#SVGID_82_)" fill="#83C5CC" points="960.2,281.2 960.2,282.1 957.7,283.5 957.7,282.6 		"/>
		<polygon clip-path="url(#SVGID_82_)" fill="#EBF6F7" points="957.7,283.5 957.6,283.4 957.6,282.5 957.7,282.6 		"/>
		<polygon clip-path="url(#SVGID_82_)" fill="#BCE5EC" points="957.7,282.6 957.6,282.5 960.1,281.1 960.2,281.2 		"/>
		<polygon clip-path="url(#SVGID_82_)" fill="#BCE5EC" points="962.8,285 960.2,286.4 957.7,285 960.2,283.5 		"/>
		<polygon clip-path="url(#SVGID_82_)" fill="#83C5CC" points="962.8,285 962.8,285.2 960.2,286.6 960.2,286.4 		"/>
		<polygon clip-path="url(#SVGID_82_)" fill="#EBF6F7" points="960.2,286.4 960.2,286.6 957.7,285.2 957.7,285 		"/>
	</g>
	<g clip-path="url(#SVGID_76_)">
		<defs>
			<polygon id="SVGID_83_" points="959.2,289.7 963.3,292.1 963.3,287.4 959.3,285 			"/>
		</defs>
		<clipPath id="SVGID_84_">
			<use xlink:href="#SVGID_83_"  overflow="visible"/>
		</clipPath>
		
			<rect x="961.2" y="284.5" transform="matrix(0.8664 -0.4994 0.4994 0.8664 -15.6542 518.5789)" clip-path="url(#SVGID_84_)" fill="#FFD580" width="0.1" height="8"/>
	</g>
	<g clip-path="url(#SVGID_76_)">
		<defs>
			<polygon id="SVGID_85_" points="959.3,289.7 963.3,292.1 963.3,287.4 959.3,285 			"/>
		</defs>
		<clipPath id="SVGID_86_">
			<use xlink:href="#SVGID_85_"  overflow="visible"/>
		</clipPath>
		
			<rect x="959" y="288.5" transform="matrix(0.8688 -0.4951 0.4951 0.8688 -16.7568 513.8213)" clip-path="url(#SVGID_86_)" fill="#FFD580" width="4.6" height="0.2"/>
	</g>
	<g clip-path="url(#SVGID_76_)">
		<defs>
			<polygon id="SVGID_87_" points="964.2,287.2 968.3,289.5 968.3,284.8 964.2,282.5 			"/>
		</defs>
		<clipPath id="SVGID_88_">
			<use xlink:href="#SVGID_87_"  overflow="visible"/>
		</clipPath>
		
			<rect x="966.2" y="282" transform="matrix(0.8689 -0.4951 0.4951 0.8689 -14.8792 515.8423)" clip-path="url(#SVGID_88_)" fill="#FFD580" width="0.1" height="8"/>
	</g>
	<g clip-path="url(#SVGID_76_)">
		<defs>
			<polygon id="SVGID_89_" points="964.2,287.2 968.3,289.5 968.3,284.8 964.2,282.5 			"/>
		</defs>
		<clipPath id="SVGID_90_">
			<use xlink:href="#SVGID_89_"  overflow="visible"/>
		</clipPath>
		
			<rect x="963.9" y="285.9" transform="matrix(0.8688 -0.4952 0.4952 0.8688 -14.8382 515.9943)" clip-path="url(#SVGID_90_)" fill="#FFD580" width="4.6" height="0.2"/>
	</g>
	<g clip-path="url(#SVGID_76_)">
		<defs>
			<rect id="SVGID_91_" x="933.6" y="245.3" width="80.4" height="60.3"/>
		</defs>
		<clipPath id="SVGID_92_">
			<use xlink:href="#SVGID_91_"  overflow="visible"/>
		</clipPath>
		<polygon clip-path="url(#SVGID_92_)" fill="#FFDD8E" points="968.6,284.8 963.6,287.7 958.6,284.8 963.6,281.9 		"/>
		<polygon clip-path="url(#SVGID_92_)" fill="#FFBD6A" points="968.6,284.8 968.6,285.2 963.6,288.1 963.6,287.7 		"/>
		<polygon clip-path="url(#SVGID_92_)" fill="#FFF5D4" points="963.6,287.7 963.6,288.1 958.6,285.2 958.6,284.8 		"/>
		
			<line clip-path="url(#SVGID_92_)" fill="none" stroke="#5FA7AA" stroke-width="0.25" stroke-miterlimit="10" x1="963.8" y1="288.5" x2="963.8" y2="291.3"/>
		
			<line clip-path="url(#SVGID_92_)" fill="none" stroke="#5FA7AA" stroke-width="0.25" stroke-miterlimit="10" x1="966.1" y1="289.7" x2="966.1" y2="292.9"/>
		
			<line clip-path="url(#SVGID_92_)" fill="none" stroke="#5FA7AA" stroke-width="0.25" stroke-miterlimit="10" x1="968.5" y1="288.5" x2="968.5" y2="291.7"/>
	</g>
	<g clip-path="url(#SVGID_76_)">
		<defs>
			<polygon id="SVGID_93_" points="966,290.1 968.5,291.5 968.5,288.7 966,287.3 			"/>
		</defs>
		<clipPath id="SVGID_94_">
			<use xlink:href="#SVGID_93_"  overflow="visible"/>
		</clipPath>
		
			<rect x="965.9" y="289.3" transform="matrix(0.8688 -0.4952 0.4952 0.8688 -16.3952 516.9067)" clip-path="url(#SVGID_94_)" fill="#5FA7AA" width="2.8" height="0.1"/>
	</g>
	<g clip-path="url(#SVGID_76_)">
		<defs>
			<rect id="SVGID_95_" x="933.6" y="245.3" width="80.4" height="60.3"/>
		</defs>
		<clipPath id="SVGID_96_">
			<use xlink:href="#SVGID_95_"  overflow="visible"/>
		</clipPath>
		<polygon clip-path="url(#SVGID_96_)" fill="#BCE5EC" points="968.7,288.6 966.1,290 963.6,288.6 966.1,287.1 		"/>
		<polygon clip-path="url(#SVGID_96_)" fill="#83C5CC" points="968.7,288.6 968.7,288.8 966.1,290.2 966.1,290 		"/>
		<polygon clip-path="url(#SVGID_96_)" fill="#EBF6F7" points="966.1,290 966.1,290.2 963.6,288.8 963.6,288.6 		"/>
		<polygon clip-path="url(#SVGID_96_)" fill="#83C5CC" points="968.6,284.9 968.6,285.7 966.1,287.2 966.1,286.3 		"/>
		<polygon clip-path="url(#SVGID_96_)" fill="#EBF6F7" points="966.1,287.2 966,287.1 966,286.2 966.1,286.3 		"/>
		<polygon clip-path="url(#SVGID_96_)" fill="#BCE5EC" points="966.1,286.3 966,286.2 968.5,284.8 968.6,284.9 		"/>
		<polygon clip-path="url(#SVGID_96_)" fill="#83C5CC" points="968.6,286.1 968.6,286.9 966.1,288.4 966.1,287.5 		"/>
		<polygon clip-path="url(#SVGID_96_)" fill="#EBF6F7" points="966.1,288.4 966,288.3 966,287.4 966.1,287.5 		"/>
		<polygon clip-path="url(#SVGID_96_)" fill="#BCE5EC" points="966.1,287.5 966,287.4 968.5,286 968.6,286.1 		"/>
		
			<line clip-path="url(#SVGID_96_)" fill="none" stroke="#5FA7AA" stroke-width="0.25" stroke-miterlimit="10" x1="966.4" y1="286.7" x2="966.4" y2="290"/>
		
			<line clip-path="url(#SVGID_96_)" fill="none" stroke="#5FA7AA" stroke-width="0.25" stroke-miterlimit="10" x1="968.2" y1="285.7" x2="968.2" y2="288.9"/>
	</g>
</g>
<g enable-background="new    ">
	<defs>
		<polygon id="SVGID_252_" enable-background="new    " points="1035.4,394.8 1204.9,296.2 1431.4,427.9 1262.9,526.1 		"/>
	</defs>
	<clipPath id="SVGID_97_">
		<use xlink:href="#SVGID_252_"  overflow="visible"/>
	</clipPath>
	<polyline clip-path="url(#SVGID_97_)" fill="#CEDA91" points="1431.4,427.9 1204.3,296.6 1069.9,374.7 1070.1,414.8 1262.9,526.2 
		1431.4,427.9 	"/>
</g>
<g enable-background="new    ">
	<g>
		<path fill="#F1526B" d="M1145.9,387.5c0.7,0.4,0.7,1.1,0,1.5c-0.7,0.4-1.8,0.4-2.5,0c-0.7-0.4-0.7-1.1,0-1.5
			C1144,387.1,1145.2,387.1,1145.9,387.5z"/>
	</g>
	<g>
		<path fill="#F1526B" d="M1146.4,388.3l-0.1,40.8c0,0.3-0.2,0.5-0.5,0.7c-0.7,0.4-1.8,0.4-2.5,0c-0.4-0.2-0.5-0.5-0.5-0.7l0.1-40.8
			c0,0.3,0.2,0.5,0.5,0.7c0.7,0.4,1.8,0.4,2.5,0C1146.2,388.8,1146.4,388.5,1146.4,388.3z"/>
	</g>
</g>
<g enable-background="new    ">
	<g>
		<path fill="#F1526B" d="M1171.1,397.9l-0.1,40.8c0,0.3-0.2,0.5-0.5,0.7c-0.7,0.4-1.8,0.4-2.5,0c-0.4-0.2-0.5-0.5-0.5-0.7l0.1-40.8
			c0,0.3,0.2,0.5,0.5,0.7c0.7,0.4,1.8,0.4,2.5,0C1170.9,398.4,1171.1,398.1,1171.1,397.9z"/>
	</g>
	<g>
		<path fill="#F1526B" d="M1170.6,397.1c0.7,0.4,0.7,1.1,0,1.5c-0.7,0.4-1.8,0.4-2.5,0c-0.7-0.4-0.7-1.1,0-1.5
			C1168.7,396.7,1169.9,396.7,1170.6,397.1z"/>
	</g>
</g>
<g enable-background="new    ">
	<g>
		<path fill="#F1526B" d="M1201,409.4l-0.1,40.8c0,0.3-0.2,0.5-0.5,0.7c-0.7,0.4-1.8,0.4-2.5,0c-0.3-0.2-0.5-0.5-0.5-0.7l0.1-40.8
			c0,0.3,0.2,0.5,0.5,0.7c0.7,0.4,1.8,0.4,2.5,0C1200.8,409.9,1201,409.7,1201,409.4z"/>
	</g>
	<g>
		<path fill="#F1526B" d="M1200.4,408.7c0.7,0.4,0.7,1.1,0,1.5c-0.7,0.4-1.8,0.4-2.5,0c-0.7-0.4-0.7-1.1,0-1.5
			C1198.6,408.3,1199.7,408.3,1200.4,408.7z"/>
	</g>
</g>
<g enable-background="new    ">
	<g>
		<path fill="#F1526B" d="M1212.5,423.4l-0.1,40.8c0,0.3-0.2,0.5-0.5,0.7c-0.7,0.4-1.8,0.4-2.5,0c-0.3-0.2-0.5-0.5-0.5-0.7l0.1-40.8
			c0,0.3,0.2,0.5,0.5,0.7c0.7,0.4,1.8,0.4,2.5,0C1212.3,423.9,1212.5,423.7,1212.5,423.4z"/>
	</g>
	<g>
		<path fill="#F1526B" d="M1211.9,422.7c0.7,0.4,0.7,1.1,0,1.5c-0.7,0.4-1.8,0.4-2.5,0c-0.7-0.4-0.7-1.1,0-1.5
			C1210.1,422.3,1211.3,422.3,1211.9,422.7z"/>
	</g>
</g>
<g enable-background="new    ">
	<g>
		<path fill="#F1526B" d="M1257,442.6c0.7,0.4,0.7,1.1,0,1.5c-0.7,0.4-1.8,0.4-2.5,0c-0.7-0.4-0.7-1.1,0-1.5
			C1255.2,442.1,1256.3,442.1,1257,442.6z"/>
	</g>
	<g>
		<path fill="#F1526B" d="M1257.6,443.3l-0.1,40.8c0,0.3-0.2,0.5-0.5,0.7c-0.7,0.4-1.8,0.4-2.5,0c-0.4-0.2-0.5-0.5-0.5-0.7l0.1-40.8
			c0,0.3,0.2,0.5,0.5,0.7c0.7,0.4,1.8,0.4,2.5,0C1257.4,443.8,1257.6,443.6,1257.6,443.3z"/>
	</g>
</g>
<g enable-background="new    ">
	<g>
		<path fill="#F1526B" d="M1313.8,429.8l-0.1,40.8c0,0.3-0.2,0.5-0.5,0.7c-0.7,0.4-1.8,0.4-2.5,0c-0.4-0.2-0.5-0.5-0.5-0.7l0.1-40.8
			c0,0.3,0.2,0.5,0.5,0.7c0.7,0.4,1.8,0.4,2.5,0C1313.6,430.3,1313.8,430,1313.8,429.8z"/>
	</g>
	<g>
		<path fill="#F1526B" d="M1313.3,429c0.7,0.4,0.7,1.1,0,1.5c-0.7,0.4-1.8,0.4-2.5,0c-0.7-0.4-0.7-1.1,0-1.5
			C1311.5,428.6,1312.6,428.6,1313.3,429z"/>
	</g>
</g>
<g enable-background="new    ">
	<g>
		<path fill="#F1526B" d="M1273.3,448c0.7,0.4,0.7,1.1,0,1.5c-0.7,0.4-1.8,0.4-2.5,0c-0.7-0.4-0.7-1.1,0-1.5
			C1271.5,447.6,1272.6,447.6,1273.3,448z"/>
	</g>
	<g>
		<path fill="#F1526B" d="M1273.8,448.8l-0.1,40.8c0,0.3-0.2,0.5-0.5,0.7c-0.7,0.4-1.8,0.4-2.5,0c-0.4-0.2-0.5-0.5-0.5-0.7l0.1-40.8
			c0,0.3,0.2,0.5,0.5,0.7c0.7,0.4,1.8,0.4,2.5,0C1273.6,449.3,1273.8,449,1273.8,448.8z"/>
	</g>
</g>
<g enable-background="new    ">
	<g>
		<path fill="#F1526B" d="M1351.3,391c0.7,0.4,0.7,1.1,0,1.5c-0.7,0.4-1.8,0.4-2.5,0c-0.7-0.4-0.7-1.1,0-1.5
			C1349.5,390.6,1350.6,390.6,1351.3,391z"/>
	</g>
	<g>
		<path fill="#F1526B" d="M1351.8,391.8l-0.1,40.8c0,0.3-0.2,0.5-0.5,0.7c-0.7,0.4-1.8,0.4-2.5,0c-0.4-0.2-0.5-0.5-0.5-0.7l0.1-40.8
			c0,0.3,0.2,0.5,0.5,0.7c0.7,0.4,1.8,0.4,2.5,0C1351.6,392.3,1351.8,392,1351.8,391.8z"/>
	</g>
</g>
<g enable-background="new    ">
	<g>
		<path fill="#F1526B" d="M1393.8,380.8l-0.1,40.8c0,0.3-0.2,0.5-0.5,0.7c-0.7,0.4-1.8,0.4-2.5,0c-0.4-0.2-0.5-0.5-0.5-0.7l0.1-40.8
			c0,0.3,0.2,0.5,0.5,0.7c0.7,0.4,1.8,0.4,2.5,0C1393.6,381.3,1393.8,381,1393.8,380.8z"/>
	</g>
	<g>
		<path fill="#F1526B" d="M1393.3,380c0.7,0.4,0.7,1.1,0,1.5c-0.7,0.4-1.8,0.4-2.5,0c-0.7-0.4-0.7-1.1,0-1.5
			C1391.5,379.6,1392.6,379.6,1393.3,380z"/>
	</g>
</g>
<g enable-background="new    ">
	<g>
		<path fill="#F1526B" d="M1378.3,374c0.7,0.4,0.7,1.1,0,1.5c-0.7,0.4-1.8,0.4-2.5,0c-0.7-0.4-0.7-1.1,0-1.5
			C1376.5,373.6,1377.6,373.6,1378.3,374z"/>
	</g>
	<g>
		<path fill="#F1526B" d="M1378.8,374.8l-0.1,40.8c0,0.3-0.2,0.5-0.5,0.7c-0.7,0.4-1.8,0.4-2.5,0c-0.4-0.2-0.5-0.5-0.5-0.7l0.1-40.8
			c0,0.3,0.2,0.5,0.5,0.7c0.7,0.4,1.8,0.4,2.5,0C1378.6,375.3,1378.8,375,1378.8,374.8z"/>
	</g>
</g>
<g enable-background="new    ">
	<g>
		<path fill="#F1526B" d="M1373.8,384.8l-0.1,40.8c0,0.3-0.2,0.5-0.5,0.7c-0.7,0.4-1.8,0.4-2.5,0c-0.3-0.2-0.5-0.5-0.5-0.7l0.1-40.8
			c0,0.3,0.2,0.5,0.5,0.7c0.7,0.4,1.8,0.4,2.5,0C1373.6,385.3,1373.8,385,1373.8,384.8z"/>
	</g>
	<g>
		<path fill="#F1526B" d="M1373.3,384c0.7,0.4,0.7,1.1,0,1.5c-0.7,0.4-1.8,0.4-2.5,0c-0.7-0.4-0.7-1.1,0-1.5
			C1371.5,383.6,1372.6,383.6,1373.3,384z"/>
	</g>
</g>
<g enable-background="new    ">
	<g>
		<path fill="#F1526B" d="M1297.7,450.6l-0.1,40.8c0,0.3-0.2,0.5-0.5,0.7c-0.7,0.4-1.8,0.4-2.5,0c-0.4-0.2-0.5-0.5-0.5-0.7l0.1-40.8
			c0,0.3,0.2,0.5,0.5,0.7c0.7,0.4,1.8,0.4,2.5,0C1297.5,451.1,1297.7,450.9,1297.7,450.6z"/>
	</g>
	<g>
		<path fill="#F1526B" d="M1297.1,449.9c0.7,0.4,0.7,1.1,0,1.5c-0.7,0.4-1.8,0.4-2.5,0c-0.7-0.4-0.7-1.1,0-1.5
			C1295.3,449.5,1296.4,449.5,1297.1,449.9z"/>
	</g>
</g>
<g enable-background="new    ">
	<g>
		<path fill="#F1526B" d="M1137.4,378l-0.1,40.8c0,0.3-0.2,0.5-0.5,0.7c-0.7,0.4-1.8,0.4-2.5,0c-0.4-0.2-0.5-0.5-0.5-0.7l0.1-40.8
			c0,0.3,0.2,0.5,0.5,0.7c0.7,0.4,1.8,0.4,2.5,0C1137.3,378.5,1137.4,378.2,1137.4,378z"/>
	</g>
	<g>
		<path fill="#F1526B" d="M1136.9,377.2c0.7,0.4,0.7,1.1,0,1.5c-0.7,0.4-1.8,0.4-2.5,0c-0.7-0.4-0.7-1.1,0-1.5
			C1135.1,376.8,1136.2,376.8,1136.9,377.2z"/>
	</g>
</g>
<g enable-background="new    ">
	<g>
		<path fill="#F1526B" d="M1185.3,410c0.7,0.4,0.7,1.1,0,1.5c-0.7,0.4-1.8,0.4-2.5,0c-0.7-0.4-0.7-1.1,0-1.5
			C1183.5,409.6,1184.6,409.6,1185.3,410z"/>
	</g>
	<g>
		<path fill="#F1526B" d="M1185.8,410.8l-0.1,40.8c0,0.3-0.2,0.5-0.5,0.7c-0.7,0.4-1.8,0.4-2.5,0c-0.3-0.2-0.5-0.5-0.5-0.7l0.1-40.8
			c0,0.3,0.2,0.5,0.5,0.7c0.7,0.4,1.8,0.4,2.5,0C1185.6,411.3,1185.8,411,1185.8,410.8z"/>
	</g>
</g>
<g enable-background="new    ">
	<g>
		<path fill="#F1526B" d="M1225.3,439c0.7,0.4,0.7,1.1,0,1.5c-0.7,0.4-1.8,0.4-2.5,0c-0.7-0.4-0.7-1.1,0-1.5
			C1223.5,438.6,1224.6,438.6,1225.3,439z"/>
	</g>
	<g>
		<path fill="#F1526B" d="M1225.8,439.8l-0.1,40.8c0,0.3-0.2,0.5-0.5,0.7c-0.7,0.4-1.8,0.4-2.5,0c-0.4-0.2-0.5-0.5-0.5-0.7l0.1-40.8
			c0,0.3,0.2,0.5,0.5,0.7c0.7,0.4,1.8,0.4,2.5,0C1225.6,440.3,1225.8,440,1225.8,439.8z"/>
	</g>
</g>
<g enable-background="new    ">
	<g>
		<path fill="#F1526B" d="M1330.8,412.8l-0.1,40.8c0,0.3-0.2,0.5-0.5,0.7c-0.7,0.4-1.8,0.4-2.5,0c-0.4-0.2-0.5-0.5-0.5-0.7l0.1-40.8
			c0,0.3,0.2,0.5,0.5,0.7c0.7,0.4,1.8,0.4,2.5,0C1330.6,413.3,1330.8,413,1330.8,412.8z"/>
	</g>
	<g>
		<path fill="#F1526B" d="M1330.3,412c0.7,0.4,0.7,1.1,0,1.5c-0.7,0.4-1.8,0.4-2.5,0c-0.7-0.4-0.7-1.1,0-1.5
			C1328.5,411.6,1329.6,411.6,1330.3,412z"/>
	</g>
</g>
<g enable-background="new    ">
	<defs>
		<path id="SVGID_251_" enable-background="new    " d="M1096.2,339.6l28.2-16.4c1-0.6,2.5-0.5,4.1,0.4l-28.2,16.4
			C1098.7,339.1,1097.3,339,1096.2,339.6z"/>
	</defs>
	<clipPath id="SVGID_98_">
		<use xlink:href="#SVGID_251_"  overflow="visible"/>
	</clipPath>
	<g clip-path="url(#SVGID_98_)" enable-background="new    ">
		<path fill="#CDE8EF" d="M1096.2,339.6l28.2-16.4c0.6-0.3,1.3-0.5,2.1-0.3l-28.2,16.4C1097.5,339.1,1096.8,339.2,1096.2,339.6"/>
		<path fill="#C5E4ED" d="M1098.4,339.2l28.2-16.4c0.6,0.1,1.2,0.3,1.9,0.7l-28.2,16.4C1099.6,339.6,1098.9,339.3,1098.4,339.2"/>
		<path fill="#BDE0EA" d="M1100.3,340l28.2-16.4c0,0,0,0,0,0L1100.3,340C1100.3,340,1100.3,340,1100.3,340"/>
	</g>
</g>
<g>
	<polygon fill="#ACD8E5" points="1124.3,360.4 1152.5,344.1 1152.4,366.3 1124.3,382.7 	"/>
</g>
<g>
	<polygon fill="#C0E2EB" points="1100.3,340 1128.5,323.6 1146.8,334.2 1118.6,350.5 	"/>
</g>
<g>
	<path fill="#E2F1F6" d="M1118.6,350.5c3.2,1.8,5.7,6.3,5.7,9.9l-0.1,22.3l-29.8-17.2l0.1-22.3c0-3.6,2.6-5.1,5.8-3.3L1118.6,350.5z
		"/>
</g>
<g enable-background="new    ">
	<defs>
		<path id="SVGID_250_" enable-background="new    " d="M1118.6,350.5l28.2-16.4c3.2,1.8,5.7,6.3,5.7,9.9l-28.2,16.4
			C1124.3,356.8,1121.8,352.4,1118.6,350.5z"/>
	</defs>
	<clipPath id="SVGID_99_">
		<use xlink:href="#SVGID_250_"  overflow="visible"/>
	</clipPath>
	<g clip-path="url(#SVGID_99_)" enable-background="new    ">
		<path fill="#BDE0EA" d="M1118.6,350.5l28.2-16.4c0.6,0.3,1.1,0.7,1.6,1.2l-28.2,16.4C1119.7,351.3,1119.2,350.9,1118.6,350.5"/>
		<path fill="#B4DCE8" d="M1120.2,351.8l28.2-16.4c2.4,2.2,4.1,5.7,4.1,8.7l-28.2,16.4C1124.3,357.5,1122.6,353.9,1120.2,351.8"/>
	</g>
</g>
<path fill="#0066AE" d="M1123.7,347.1l-19-11c-2.7-1.6-5.1-0.7-5.7,1.8l0.6-0.3c0.8-1.9,2.8-2.4,5.2-1l19,11
	c3.1,1.8,5.5,6.1,5.5,9.6l-0.1,23.9l0.4,0.2l0.1-23.9C1129.6,353.6,1127,349,1123.7,347.1z"/>
<path fill="#0066AE" d="M1130.6,343.1l-19-11c-2.7-1.6-5-0.8-5.7,1.8l0.6-0.3c0.8-1.9,2.8-2.4,5.2-1l19,11c3.1,1.8,5.5,6.1,5.5,9.6
	l-0.1,23.9l0.4,0.2l0.1-23.9C1136.5,349.6,1133.9,345,1130.6,343.1z"/>
<path fill="#0066AE" d="M1137.6,339.1l-19-11c-2.7-1.6-5-0.8-5.7,1.8l0.6-0.3c0.8-1.9,2.8-2.4,5.2-1l19,11c3.1,1.8,5.5,6.1,5.5,9.6
	L1143,373l0.4,0.2l0.1-23.9C1143.5,345.6,1140.8,341,1137.6,339.1z"/>
<path fill="#0066AE" d="M1144.5,335.1l-19-11c-2.7-1.6-5-0.8-5.7,1.7l0.6-0.3c0.8-1.9,2.8-2.3,5.2-1l19,11c3.1,1.8,5.5,6.1,5.5,9.6
	L1150,369l0.4,0.2l0.1-23.9C1150.4,341.6,1147.7,337,1144.5,335.1z"/>
<path fill="#9BC183" d="M1184.7,432.8c-21.3-15.9-71.9-22.2-74.7-47.4c-4.3-38.6,11.5-47.4,34.9-66.5c18.7-15.3,52.3-9.4,76.7-18.8
	c24.4-9.4,39.9-30.4,73.4-19.6c33.5,10.9,33.2,27.4,51,37.8c17.8,10.4,45.4-3.5,62.2,10.9c11.1,9.6,41.1,44.2,18.8,65
	c-23.7,22.2-61.5,7.9-80.3,28.8c-15.5,17.2-34.3,54.8-73.2,54.1C1231.5,476.3,1212,453.1,1184.7,432.8z"/>
<path fill="#679358" d="M1241,425.9c1.9,0.5,3.6,1.7,5.4,2.6c3.9,2,8.7,2.7,12.9,1.3c4.2-1.4,7.7-5.1,8.4-9.4
	c0.3-2.2-0.1-4.5-0.4-6.7c-0.5-4.5-0.3-9.5,2.8-12.7c3.1-3.3,8.1-3.8,12-6.2c6.2-3.7,8.7-12.1,6.4-18.9c-2.3-6.8-8.9-11.7-16-12.8
	c-0.6,4.2-3,8.5-7.1,9.7c-2.1,0.6-4.3,0.4-6.4-0.1c-5.7-1.3-10.8-4.1-16.2-6.3s-11.3-3.9-16.9-2.6c-5.7,1.3-10.9,6.2-10.7,12
	c0.2,5.4,4.6,9.5,7.4,14.1c4,6.5,4.8,15,1.5,21.9c-3.3,6.9-10.9,11.7-18.5,11.1c6.8,3.4,14.4,6.9,21.9,5.4
	C1232,427.4,1236.5,424.7,1241,425.9z"/>
<path fill="#679358" d="M1174,313.5c-2.4,1-4.7,2.5-5.6,4.9c3.1-0.2,6.3,1.6,7.8,4.4c0.7,1.3,1.1,2.9,2.3,3.8c1,0.8,2.4,1,3.6,1.2
	c6,1.3,11.4,5.6,13.6,11.4c2.2,5.8,0.8,12.8-3.6,17.1c4.3-2.6,10-1.8,14.4-4.3c3.5-1.9,5.7-5.5,6.7-9.4s0.6-7.9,0-11.8
	c-0.8-4.6-2.8-9.9-7.3-10.9c-1.4-0.3-2.8-0.2-4.2-0.6c-1.2-0.4-2.2-1.1-3.3-1.8C1191.3,312.7,1181.9,310.3,1174,313.5z"/>
<path fill="#679358" d="M1157,363c0.9,0,1.8-0.1,2.6-0.5c0.8-0.5,1.3-1.3,1.2-2.2c-0.1-0.8-0.8-1.4-1.4-1.9
	c-0.9-0.7-1.9-1.4-2.5-2.4s-1-2.3-0.4-3.3c0.6-1.1,2-1.7,2.1-2.9c0.2-1.1-0.9-2-1.8-2.7c-4.6-3.2-10.1-5.1-15.7-5.6
	c2.9,1.6,5,4.7,5.3,8c0.2,2.1-0.1,4.2,0.3,6.2C1147.6,360,1152.4,363,1157,363z"/>
<g>
	<defs>
		<path id="SVGID_100_" d="M1184.7,432.8c-21.3-15.9-71.9-22.2-74.7-47.4c-4.3-38.6,11.5-47.4,34.9-66.5
			c18.7-15.3,52.3-9.4,76.7-18.8c24.4-9.4,39.9-30.4,73.4-19.6c33.5,10.9,33.2,27.4,51,37.8c17.8,10.4,45.4-3.5,62.2,10.9
			c11.1,9.6,41.1,44.2,18.8,65c-23.7,22.2-61.5,7.9-80.3,28.8c-15.5,17.2-34.3,54.8-73.2,54.1C1231.5,476.3,1212,453.1,1184.7,432.8
			z"/>
	</defs>
	<clipPath id="SVGID_101_">
		<use xlink:href="#SVGID_100_"  overflow="visible"/>
	</clipPath>
	<path clip-path="url(#SVGID_101_)" fill="#679358" d="M1381.2,406.5c0.4,1.6,0.2,3.3,0.8,4.8c1.1,2.9,4.6,4,7.7,4.5
		c6.9,1.1,14.3,1.3,20.8-1.3c4.8-1.9,9-5.3,12.5-9.1c12.4-13.2,18.1-32.4,14.9-50.3c-0.3-1.7-0.8-3.5-2.3-4.3
		c-1-0.5-2.1-0.4-3.2-0.4c-7.3-0.1-13.7-4.7-20.3-7.9c-1.5-0.7-3.6-1.3-4.8-0.1c-0.6,0.6-0.8,1.5-0.8,2.3c0,2.7,1.2,5.7-0.3,8
		c-1,1.5-3,2.1-4.8,2c-1.8-0.1-3.5-0.8-5.2-1.4c-4.3-1.5-9-2.4-13.2-0.9c-4.3,1.5-7.7,6-6.6,10.4c0.7,2.7,2.8,4.8,5,6.4
		c2.2,1.7,4.6,3.2,6.3,5.4s2.5,5.4,1,7.7c-2,3.2-6.6,3.1-10.1,4.3c-3.6,1.2-6.7,4.7-6,8.4C1373.5,399.8,1379.9,401.8,1381.2,406.5z"
		/>
	<path clip-path="url(#SVGID_101_)" fill="#679358" d="M1365.7,403.7c-2.6-3.4-7.6-3.4-11.8-2.6c-4.2,0.7-8.8,1.8-12.4-0.5
		c-2.5-1.6-3.9-4.5-5.5-7c-2.4-3.7-5.5-6.8-9.2-9.2c-3.6-2.3-8.5-3.9-12.1-1.5c-0.9,0.6-1.7,1.4-1.9,2.5c-0.5,2.5,1.9,4.4,3.9,5.9
		c4.9,3.6,9,8.4,11.7,13.8c1.1,2.2,2,4.8,1.1,7.1c-0.8,1.8-2.5,2.8-3.8,4.2c-3.1,3.3-3.6,8.5-1.6,12.5s6.6,6.4,11,6.3
		c2.5-0.1,4.9-0.9,7.3-1.7c6.6-2.3,13.3-5,18.1-10.1c2.9-3,4.9-6.7,6-10.7C1367.3,409.6,1367.5,406.2,1365.7,403.7z"/>
	<path clip-path="url(#SVGID_101_)" fill="#679358" d="M1319.7,463.5c1.7-3,3.3-6.4,3.2-9.9c-0.1-3.5-2.2-7.2-5.6-8
		c-2.7-0.7-6,0.4-7.9-1.7c-0.7-0.7-1-1.7-1.3-2.7c-0.8-2.3-1.7-4.7-3.5-6.3c-1.8-1.7-4.7-2.4-6.7-1c-2.5,1.7-2.4,5.2-2.4,8.2
		c0.1,4.2-0.3,8.4-1.2,12.5c-1,4.5-2.7,9.1-6.4,11.9c-4,3-9.4,3.3-14.3,2.3c-3.8-0.8-7.5-2.3-11.4-2.5c-3.9-0.2-8.3,1.5-9.7,5.1
		c-1.2,3.1,0.3,6.9,3,8.9c1.9,1.4,4.3,2.1,6.6,2.7c6.8,1.7,13.7,2.9,20.6,3.5c4.3,0.4,8.6,0.6,12.7-0.5c9-2.3,15.6-10,19.8-18.2"/>
	<path clip-path="url(#SVGID_101_)" fill="#679358" d="M1295.8,351.7c3.7,2.5,9,1.1,12.4-1.8s5.6-7,8.2-10.6
		c4.5-6.3,10.5-11.6,17.3-15.2c2.7-1.4,5.6-2.7,8-4.6c5-4.2,6.8-11.3,5.5-17.7s-5.6-11.8-10.8-15.6c-3.3-2.4-7-4.2-11-4.5
		c-4-0.3-8,0.8-12,1.9c-1.5,0.4-3.1,0.9-4.1,2.1c-1.8,2.5,0.2,5.8,1.9,8.3c2.2,3.3,3.9,7.3,2.8,11.1c-1.2,4.2-5.2,6.8-8.7,9.5
		c-3.5,2.7-6.7,5.9-9.5,9.4c-0.6,0.8-1.2,1.6-1.4,2.6c-0.3,1.6,0.6,3.1,1.1,4.6c1.6,4.6-0.4,9.6-1.7,14.2c-0.2,0.9-0.5,1.8-0.4,2.7
		C1293.5,349.5,1294.5,350.8,1295.8,351.7z"/>
	<path clip-path="url(#SVGID_101_)" fill="#679358" d="M1140.5,422.5c5.4,2.7,10.8,5.5,16.1,8.2c5.7,2.9,12,5.9,18.2,4.7
		c5.1-1,9.5-4.8,11.1-9.6c1.7-4.9,0.6-10.6-2.7-14.5c-1.8-2.1-4.1-3.7-5.8-5.9c-2.6-3.3-3.4-7.8-3.6-12c-0.2-4.2,0-8.5-1-12.6
		c-1-4.1-3.4-8.2-7.4-9.7c1.4,6.5,0.4,13.5-2.6,19.5c-3.1,5.9-8.2,10.8-14.3,13.5c-3.9,1.7-8.1,2.6-11.7,4.9
		c-1.7,1.1-3.4,2.8-3.7,4.8c-0.3,2,0.7,4.1,2.1,5.5C1136.8,420.6,1138.7,421.5,1140.5,422.5z"/>
</g>
<g>
	<polygon fill="#DEEFF5" points="1081.7,395.7 1081.7,412 1081,390.6 1081,374.3 	"/>
</g>
<g>
	<polygon fill="#C7E5ED" points="1084,374.3 1084.7,395 1273,503.8 1270.9,505 1081.7,395.7 1081,374.3 	"/>
</g>
<g>
	<polygon fill="#ACD8E5" points="1273,503.8 1273,520.1 1270.9,521.3 1270.9,505 	"/>
</g>
<g>
	<polygon fill="#E8F4F8" points="1270.9,505 1270.9,521.3 1081.7,412 1081.7,395.7 	"/>
</g>
</svg>
