<svg xmlns="http://www.w3.org/2000/svg" x="0px" y="0px" xmlns:xlink="http://www.w3.org/1999/xlink" viewBox="0 0 1440 875.8">
  <defs>
    <path id="a" d="M501.4 712.4l173.1-100.5 221 127.5L722.4 840z"/>
  </defs>
  <clipPath id="b">
    <use xlink:href="#a" overflow="visible"/>
  </clipPath>
  <g clip-path="url(#b)">
    <path fill="#CEDA91" d="M895.4 739.4L674.5 611.9 501.4 712.4l221 127.6 173.1-100.6"/>
  </g>
  <defs>
    <path id="c" d="M350.2 624.9l172.7-100.4 146.7 84.7-172.7 100.4z"/>
  </defs>
  <clipPath id="d">
    <use xlink:href="#c" overflow="visible"/>
  </clipPath>
  <g clip-path="url(#d)">
    <path fill="#CEDA91" d="M669.6 609.2l-146.7-84.7-172.7 100.4 146.7 84.7 172.7-100.4"/>
  </g>
  <defs>
    <path id="e" d="M349.5 619.9l173.4-100.8 147.4 85.1L496.9 705z"/>
  </defs>
  <clipPath id="f">
    <use xlink:href="#e" overflow="visible"/>
  </clipPath>
  <g clip-path="url(#f)">
    <path fill="#F1526B" d="M350.9 619.9l172-100 146 84.3-172 100-146-84.3m319.4-15.7l-147.4-85.1-173.4 100.8L496.9 705l173.4-100.8"/>
  </g>
  <defs>
    <path id="g" d="M678.2 578.7l.1-34.1 49.5 28.5-.1 34.2z"/>
  </defs>
  <clipPath id="h">
    <use xlink:href="#g" overflow="visible"/>
  </clipPath>
  <g clip-path="url(#h)">
    <path fill="#F1526B" d="M727.8 573.1l-49.5-28.5-.1 34.1 49.5 28.6.1-34.2"/>
  </g>
  <g fill="#F5967F">
    <path d="M687.3 565.3l-.2 66.5c0 .2-.1.3-.3.4-.4.2-1.1.2-1.5 0-.2-.1-.3-.3-.3-.4l.2-66.5c0 .2.1.3.3.4.4.2 1.1.2 1.5 0 .2-.1.3-.3.3-.4z"/>
    <path d="M687 564.8c.4.2.4.6 0 .9-.4.2-1.1.2-1.5 0-.4-.2-.4-.6 0-.9.4-.2 1.1-.2 1.5 0z"/>
  </g>
  <g fill="#F5967F">
    <path d="M717.3 581.3l-.2 66.5c0 .2-.1.3-.3.4-.4.2-1.1.2-1.5 0-.2-.1-.3-.3-.3-.4l.2-66.5c0 .2.1.3.3.4.4.2 1.1.3 1.5 0 .2-.1.3-.2.3-.4z"/>
    <path d="M717 580.8c.4.2.4.7 0 .9-.4.2-1.1.2-1.5 0-.4-.2-.4-.6 0-.9s1.1-.2 1.5 0z"/>
  </g>
  <defs>
    <path id="i" d="M510.7 712.6l153.2-89 80.3 46.4L591 759z"/>
  </defs>
  <clipPath id="j">
    <use xlink:href="#i" overflow="visible"/>
  </clipPath>
  <g fill="#A4AD60" clip-path="url(#j)">
    <path d="M667.8 625.8l-3.9-2.2-153.2 89 3.9 2.2 153.2-89m7.6 4.4l-3.8-2.2-153.2 89 3.8 2.3 153.2-89.1m7.7 4.4l-3.9-2.2L526 721.5l3.9 2.2 153.2-89.1m7.6 4.5l-3.8-2.3-153.2 89.1 3.8 2.2 153.2-89m7.6 4.4l-3.8-2.2-153.2 89 3.8 2.2 153.2-89m7.7 4.4l-3.8-2.2-153.2 89 3.8 2.2 153.2-89m7.6 4.4l-3.8-2.2-153.2 89 3.8 2.2 153.2-89m7.7 4.4l-3.8-2.2-153.2 89 3.8 2.2 153.2-89m7.6 4.4l-3.8-2.2-153.2 89 3.8 2.3 153.2-89.1m7.7 4.4l-3.9-2.2-153.2 89.1 3.9 2.2 153.2-89.1m7.6 4.5l-3.8-2.3-153.2 89.1 3.8 2.2 153.2-89"/>
  </g>
  <defs>
    <path id="k" d="M688.8 706.5L748 672l50 28.9-59.3 34.4z"/>
  </defs>
  <clipPath id="l">
    <use xlink:href="#k" overflow="visible"/>
  </clipPath>
  <g fill="#A4AD60" clip-path="url(#l)">
    <path d="M767.4 683.2l-3.8-2.2-59.3 34.5 3.9 2.2 59.2-34.5m-7.8-4.5l-3.8-2.2-59.2 34.5 3.8 2.2 59.2-34.5m-7.7-4.5L748 672l-59.2 34.5 3.8 2.2 59.3-34.5m23.2 13.4l-3.9-2.2-59.2 34.5 3.8 2.2 59.3-34.5m7.6 4.5l-3.8-2.3-59.3 34.5 3.9 2.2 59.2-34.4m7.7 4.4l-3.9-2.2-59.2 34.4 3.8 2.2 59.3-34.4m7.6 4.4l-3.8-2.2-59.3 34.4 3.8 2.2 59.3-34.4"/>
  </g>
  <defs>
    <path id="m" d="M653.5 795.7l56.9-33.1 72.7 42-57 33.1z"/>
  </defs>
  <clipPath id="n">
    <use xlink:href="#m" overflow="visible"/>
  </clipPath>
  <g fill="#A4AD60" clip-path="url(#n)">
    <path d="M783.1 804.6l-72.7-42-3.8 2.2 72.7 42 3.8-2.2m-7.6 4.4l-72.7-41.9-3.8 2.2 72.7 41.9 3.8-2.2m-7.6 4.4l-72.7-41.9-3.8 2.2 72.7 41.9 3.8-2.2m-7.6 4.4l-72.7-41.9-3.8 2.2 72.7 41.9 3.8-2.2m-7.6 4.4L680 780.3l-3.8 2.2 72.7 41.9 3.8-2.2m-7.6 4.4l-72.7-41.9-3.8 2.2 72.7 41.9 3.8-2.2m-7.6 4.4l-72.6-41.9-3.8 2.2 72.6 42 3.8-2.3m-7.6 4.5l-72.6-42-3.8 2.2 72.6 42 3.8-2.2"/>
  </g>
  <defs>
    <path id="o" d="M633.6 702.5l34.2-19.9 36.9 21.4-34.1 19.8z"/>
  </defs>
  <clipPath id="p">
    <use xlink:href="#o" overflow="visible"/>
  </clipPath>
  <g clip-path="url(#p)">
    <path fill="#676B2F" d="M704.7 704l-36.9-21.4-34.2 19.9 37 21.3 34.1-19.8"/>
  </g>
  <defs>
    <path id="q" d="M591.1 763.1l94.1-54.7 60.2 34.8-94.1 54.7z"/>
  </defs>
  <clipPath id="r">
    <use xlink:href="#q" overflow="visible"/>
  </clipPath>
  <g clip-path="url(#r)">
    <path fill="#FFE5A8" d="M745.4 743.2l-60.2-34.8-94.1 54.7 60.2 34.8 94.1-54.7"/>
  </g>
  <defs>
    <path id="s" d="M710.8 756.3l89.7-52.1 73.5 42.5-89.7 52.1z"/>
  </defs>
  <clipPath id="t">
    <use xlink:href="#s" overflow="visible"/>
  </clipPath>
  <g clip-path="url(#t)">
    <path fill="#676B2F" d="M874 746.7l-73.5-42.5-89.7 52.1 73.5 42.5 89.7-52.1"/>
  </g>
  <path d="M488.7 620.5h.2v1.4h-.2zm.7 0h.4v1.4h-.4zm1.9 0h.2v1.4h-.2zm.6 0h.2v1.4h-.2z"/>
  <path fill="#FFF" d="M488 618.1s0-1 .7-1.3c0 0 .9-.5 1.5 0 .1 0 .3-.5 1.1-.3.2.1.6.2.5.9 0 0 .5-.3.9.2.3.3.4.5.1 1 0 0 .4.1.3.7 0 0 .1.3-.5.4 0 0 .3.7-.3 1.2 0 0-.8.4-1.3-.1 0 0 0 .5-.5.6-.2 0-.3 0-.7-.4 0 0-.1.4-.8.3-.3-.1-.6-.2-.6-.8 0 0-.9-.2-1-1 .1-.4.1-1 .6-1.4z"/>
  <ellipse cx="488.1" cy="618.5" rx="1.3" ry="1.5"/>
  <path d="M487.1 617.5s-.8.1-1.1 1c0 0 .2.3.9 0l.2-1zm2 0s.8.1 1.1 1c0 0-.2.3-.9 0l-.2-1z"/>
  <circle cx="487.5" cy="618.3" r="0.1" fill="#FCFCFC"/>
  <circle cx="488.6" cy="618.3" r="0.1" fill="#FCFCFC"/>
  <path d="M493.7 622.5h.2v1.4h-.2zm.7 0h.4v1.4h-.4zm1.9 0h.2v1.4h-.2zm.6 0h.2v1.4h-.2z"/>
  <path fill="#FFF" d="M493 620.1s0-1 .7-1.3c0 0 .9-.5 1.5 0 .1 0 .3-.5 1.1-.3.2.1.6.2.5.9 0 0 .5-.3.9.2.3.3.4.5.1 1 0 0 .4.1.3.7 0 0 .1.3-.5.4 0 0 .3.7-.3 1.2 0 0-.8.4-1.3-.1 0 0 0 .5-.5.6-.2 0-.3 0-.7-.4 0 0-.1.4-.8.3-.3-.1-.6-.2-.6-.8 0 0-.9-.2-1-1 .1-.4.1-1 .6-1.4z"/>
  <ellipse cx="493.1" cy="620.5" rx="1.3" ry="1.5"/>
  <path d="M492.1 619.5s-.8.1-1.1 1c0 0 .2.3.9 0l.2-1zm2 0s.8.1 1.1 1c0 0-.2.3-.9 0l-.2-1z"/>
  <circle cx="492.5" cy="620.3" r="0.1" fill="#FCFCFC"/>
  <circle cx="493.6" cy="620.3" r="0.1" fill="#FCFCFC"/>
  <path d="M509.7 569.5h.2v1.4h-.2zm.7 0h.4v1.4h-.4zm1.9 0h.2v1.4h-.2zm.6 0h.2v1.4h-.2z"/>
  <path fill="#FFF" d="M509 567.1s0-1 .7-1.3c0 0 .9-.5 1.5 0 .1 0 .3-.5 1.1-.3.2.1.6.2.5.9 0 0 .5-.3.9.2.3.3.4.5.1 1 0 0 .4.1.3.7 0 0 .1.3-.5.4 0 0 .3.7-.3 1.2 0 0-.8.4-1.3-.1 0 0 0 .5-.5.6-.2 0-.3 0-.7-.4 0 0-.1.4-.8.3-.3-.1-.6-.2-.6-.8 0 0-.9-.2-1-1 .1-.4.1-1 .6-1.4z"/>
  <ellipse cx="509.1" cy="567.5" rx="1.3" ry="1.5"/>
  <path d="M508.1 566.5s-.8.1-1.1 1c0 0 .2.3.9 0l.2-1zm2 0s.8.1 1.1 1c0 0-.2.3-.9 0l-.2-1z"/>
  <circle cx="508.5" cy="567.3" r="0.1" fill="#FCFCFC"/>
  <circle cx="509.6" cy="567.3" r="0.1" fill="#FCFCFC"/>
  <path d="M531.2 581.5h.2v1.4h-.2zm-.8 0h.4v1.4h-.4zm-1.8 0h.2v1.4h-.2zm-.6 0h.2v1.4h-.2z"/>
  <path fill="#FFF" d="M532.2 579.1s0-1-.7-1.3c0 0-.9-.5-1.5 0-.1 0-.3-.5-1.1-.3-.2.1-.6.2-.5.9 0 0-.5-.3-.9.2-.3.3-.4.5-.1 1 0 0-.4.1-.3.7 0 0-.1.3.5.4 0 0-.3.7.3 1.2 0 0 .8.4 1.3-.1 0 0 0 .5.5.6.2 0 .3 0 .7-.4 0 0 .1.4.8.3.3-.1.6-.2.6-.8 0 0 .9-.2 1-1-.2-.4-.2-1-.6-1.4z"/>
  <ellipse cx="532.1" cy="579.5" rx="1.3" ry="1.5"/>
  <path d="M533 578.5s.8.1 1.1 1c0 0-.2.3-.9 0 .1 0-.2-1-.2-1zm-1.9 0s-.8.1-1.1 1c0 0 .2.3.9 0-.1 0 .2-1 .2-1z"/>
  <circle cx="532.7" cy="579.3" r="0.1" fill="#FCFCFC"/>
  <circle cx="531.5" cy="579.3" r="0.1" fill="#FCFCFC"/>
  <path d="M540.2 542.5h.2v1.4h-.2zm-.8 0h.4v1.4h-.4zm-1.8 0h.2v1.4h-.2zm-.6 0h.2v1.4h-.2z"/>
  <path fill="#FFF" d="M541.2 540.1s0-1-.7-1.3c0 0-.9-.5-1.5 0-.1 0-.3-.5-1.1-.3-.2.1-.6.2-.5.9 0 0-.5-.3-.9.2-.3.3-.4.5-.1 1 0 0-.4.1-.3.7 0 0-.1.3.5.4 0 0-.3.7.3 1.2 0 0 .8.4 1.3-.1 0 0 0 .5.5.6.2 0 .3 0 .7-.4 0 0 .1.4.8.3.3-.1.6-.2.6-.8 0 0 .9-.2 1-1-.2-.4-.2-1-.6-1.4z"/>
  <ellipse cx="541.1" cy="540.5" rx="1.3" ry="1.5"/>
  <path d="M542 539.5s.8.1 1.1 1c0 0-.2.3-.9 0 .1 0-.2-1-.2-1zm-1.9 0s-.8.1-1.1 1c0 0 .2.3.9 0-.1 0 .2-1 .2-1z"/>
  <circle cx="541.7" cy="540.3" r="0.1" fill="#FCFCFC"/>
  <circle cx="540.5" cy="540.3" r="0.1" fill="#FCFCFC"/>
  <path d="M603.7 617.5h.2v1.4h-.2zm.7 0h.4v1.4h-.4zm1.9 0h.2v1.4h-.2zm.6 0h.2v1.4h-.2z"/>
  <path fill="#FFF" d="M603 615.1s0-1 .7-1.3c0 0 .9-.5 1.5 0 .1 0 .3-.5 1.1-.3.2.1.6.2.5.9 0 0 .5-.3.9.2.3.3.4.5.1 1 0 0 .4.1.3.7 0 0 .1.3-.5.4 0 0 .3.7-.3 1.2 0 0-.8.4-1.3-.1 0 0 0 .5-.5.6-.2 0-.3 0-.7-.4 0 0-.1.4-.8.3-.3-.1-.6-.2-.6-.8 0 0-.9-.2-1-1 .1-.4.1-1 .6-1.4z"/>
  <ellipse cx="603.1" cy="615.5" rx="1.3" ry="1.5"/>
  <path d="M602.1 614.5s-.8.1-1.1 1c0 0 .2.3.9 0l.2-1zm2 0s.8.1 1.1 1c0 0-.2.3-.9 0l-.2-1z"/>
  <circle cx="602.5" cy="615.3" r="0.1" fill="#FCFCFC"/>
  <circle cx="603.6" cy="615.3" r="0.1" fill="#FCFCFC"/>
  <path d="M599.2 614.5h.2v1.4h-.2zm-.8 0h.4v1.4h-.4zm-1.8 0h.2v1.4h-.2zm-.6 0h.2v1.4h-.2z"/>
  <path fill="#FFF" d="M600.2 612.1s0-1-.7-1.3c0 0-.9-.5-1.5 0-.1 0-.3-.5-1.1-.3-.2.1-.6.2-.5.9 0 0-.5-.3-.9.2-.3.3-.4.5-.1 1 0 0-.4.1-.3.7 0 0-.1.3.5.4 0 0-.3.7.3 1.2 0 0 .8.4 1.3-.1 0 0 0 .5.5.6.2 0 .3 0 .7-.4 0 0 .1.4.8.3.3-.1.6-.2.6-.8 0 0 .9-.2 1-1-.2-.4-.2-1-.6-1.4z"/>
  <ellipse cx="600.1" cy="612.5" rx="1.3" ry="1.5"/>
  <path d="M601 611.5s.8.1 1.1 1c0 0-.2.3-.9 0 .1 0-.2-1-.2-1zm-1.9 0s-.8.1-1.1 1c0 0 .2.3.9 0-.1 0 .2-1 .2-1z"/>
  <circle cx="600.7" cy="612.3" r="0.1" fill="#FCFCFC"/>
  <circle cx="599.5" cy="612.3" r="0.1" fill="#FCFCFC"/>
  <path d="M486.7 635.5h.2v1.4h-.2zm.7 0h.4v1.4h-.4zm1.9 0h.2v1.4h-.2zm.6 0h.2v1.4h-.2z"/>
  <path fill="#FFF" d="M486 633.1s0-1 .7-1.3c0 0 .9-.5 1.5 0 .1 0 .3-.5 1.1-.3.2.1.6.2.5.9 0 0 .5-.3.9.2.3.3.4.5.1 1 0 0 .4.1.3.7 0 0 .1.3-.5.4 0 0 .3.7-.3 1.2 0 0-.8.4-1.3-.1 0 0 0 .5-.5.6-.2 0-.3 0-.7-.4 0 0-.1.4-.8.3-.3-.1-.6-.2-.6-.8 0 0-.9-.2-1-1 .1-.4.1-1 .6-1.4z"/>
  <ellipse cx="486.1" cy="633.5" rx="1.3" ry="1.5"/>
  <path d="M485.1 632.5s-.8.1-1.1 1c0 0 .2.3.9 0l.2-1zm2 0s.8.1 1.1 1c0 0-.2.3-.9 0l-.2-1z"/>
  <circle cx="485.5" cy="633.3" r="0.1" fill="#FCFCFC"/>
  <circle cx="486.6" cy="633.3" r="0.1" fill="#FCFCFC"/>
  <path d="M483.2 628.5h.2v1.4h-.2zm-.8 0h.4v1.4h-.4zm-1.8 0h.2v1.4h-.2zm-.6 0h.2v1.4h-.2z"/>
  <path fill="#FFF" d="M484.2 626.1s0-1-.7-1.3c0 0-.9-.5-1.5 0-.1 0-.3-.5-1.1-.3-.2.1-.6.2-.5.9 0 0-.5-.3-.9.2-.3.3-.4.5-.1 1 0 0-.4.1-.3.7 0 0-.1.3.5.4 0 0-.3.7.3 1.2 0 0 .8.4 1.3-.1 0 0 0 .5.5.6.2 0 .3 0 .7-.4 0 0 .1.4.8.3.3-.1.6-.2.6-.8 0 0 .9-.2 1-1-.2-.4-.2-1-.6-1.4z"/>
  <ellipse cx="484.1" cy="626.5" rx="1.3" ry="1.5"/>
  <path d="M485 625.5s.8.1 1.1 1c0 0-.2.3-.9 0 .1 0-.2-1-.2-1zm-1.9 0s-.8.1-1.1 1c0 0 .2.3.9 0-.1 0 .2-1 .2-1z"/>
  <circle cx="484.7" cy="626.3" r="0.1" fill="#FCFCFC"/>
  <circle cx="483.5" cy="626.3" r="0.1" fill="#FCFCFC"/>
  <path d="M477.2 623.5h.2v1.4h-.2zm-.8 0h.4v1.4h-.4zm-1.8 0h.2v1.4h-.2zm-.6 0h.2v1.4h-.2z"/>
  <path fill="#FFF" d="M478.2 621.1s0-1-.7-1.3c0 0-.9-.5-1.5 0-.1 0-.3-.5-1.1-.3-.2.1-.6.2-.5.9 0 0-.5-.3-.9.2-.3.3-.4.5-.1 1 0 0-.4.1-.3.7 0 0-.1.3.5.4 0 0-.3.7.3 1.2 0 0 .8.4 1.3-.1 0 0 0 .5.5.6.2 0 .3 0 .7-.4 0 0 .1.4.8.3.3-.1.6-.2.6-.8 0 0 .9-.2 1-1-.2-.4-.2-1-.6-1.4z"/>
  <ellipse cx="478.1" cy="621.5" rx="1.3" ry="1.5"/>
  <path d="M479 620.5s.8.1 1.1 1c0 0-.2.3-.9 0 .1 0-.2-1-.2-1zm-1.9 0s-.8.1-1.1 1c0 0 .2.3.9 0-.1 0 .2-1 .2-1z"/>
  <circle cx="478.7" cy="621.3" r="0.1" fill="#FCFCFC"/>
  <circle cx="477.5" cy="621.3" r="0.1" fill="#FCFCFC"/>
  <path d="M470.2 628.5h.2v1.4h-.2zm-.8 0h.4v1.4h-.4zm-1.8 0h.2v1.4h-.2zm-.6 0h.2v1.4h-.2z"/>
  <path fill="#FFF" d="M471.2 626.1s0-1-.7-1.3c0 0-.9-.5-1.5 0-.1 0-.3-.5-1.1-.3-.2.1-.6.2-.5.9 0 0-.5-.3-.9.2-.3.3-.4.5-.1 1 0 0-.4.1-.3.7 0 0-.1.3.5.4 0 0-.3.7.3 1.2 0 0 .8.4 1.3-.1 0 0 0 .5.5.6.2 0 .3 0 .7-.4 0 0 .1.4.8.3.3-.1.6-.2.6-.8 0 0 .9-.2 1-1-.2-.4-.2-1-.6-1.4z"/>
  <ellipse cx="471.1" cy="626.5" rx="1.3" ry="1.5"/>
  <path d="M472 625.5s.8.1 1.1 1c0 0-.2.3-.9 0 .1 0-.2-1-.2-1zm-1.9 0s-.8.1-1.1 1c0 0 .2.3.9 0-.1 0 .2-1 .2-1z"/>
  <circle cx="471.7" cy="626.3" r="0.1" fill="#FCFCFC"/>
  <circle cx="470.5" cy="626.3" r="0.1" fill="#FCFCFC"/>
  <path d="M497.7 639.5h.2v1.4h-.2zm.7 0h.4v1.4h-.4zm1.9 0h.2v1.4h-.2zm.6 0h.2v1.4h-.2z"/>
  <path fill="#FFF" d="M497 637.1s0-1 .7-1.3c0 0 .9-.5 1.5 0 .1 0 .3-.5 1.1-.3.2.1.6.2.5.9 0 0 .5-.3.9.2.3.3.4.5.1 1 0 0 .4.1.3.7 0 0 .1.3-.5.4 0 0 .3.7-.3 1.2 0 0-.8.4-1.3-.1 0 0 0 .5-.5.6-.2 0-.3 0-.7-.4 0 0-.1.4-.8.3-.3-.1-.6-.2-.6-.8 0 0-.9-.2-1-1 .1-.4.1-1 .6-1.4z"/>
  <ellipse cx="497.1" cy="637.5" rx="1.3" ry="1.5"/>
  <path d="M496.1 636.5s-.8.1-1.1 1c0 0 .2.3.9 0l.2-1zm2 0s.8.1 1.1 1c0 0-.2.3-.9 0l-.2-1z"/>
  <circle cx="496.5" cy="637.3" r="0.1" fill="#FCFCFC"/>
  <circle cx="497.6" cy="637.3" r="0.1" fill="#FCFCFC"/>
  <path d="M501.2 631.5h.2v1.4h-.2zm-.8 0h.4v1.4h-.4zm-1.8 0h.2v1.4h-.2zm-.6 0h.2v1.4h-.2z"/>
  <path fill="#FFF" d="M502.2 629.1s0-1-.7-1.3c0 0-.9-.5-1.5 0-.1 0-.3-.5-1.1-.3-.2.1-.6.2-.5.9 0 0-.5-.3-.9.2-.3.3-.4.5-.1 1 0 0-.4.1-.3.7 0 0-.1.3.5.4 0 0-.3.7.3 1.2 0 0 .8.4 1.3-.1 0 0 0 .5.5.6.2 0 .3 0 .7-.4 0 0 .1.4.8.3.3-.1.6-.2.6-.8 0 0 .9-.2 1-1-.2-.4-.2-1-.6-1.4z"/>
  <ellipse cx="502.1" cy="629.5" rx="1.3" ry="1.5"/>
  <path d="M503 628.5s.8.1 1.1 1c0 0-.2.3-.9 0 .1 0-.2-1-.2-1zm-1.9 0s-.8.1-1.1 1c0 0 .2.3.9 0-.1 0 .2-1 .2-1z"/>
  <circle cx="502.7" cy="629.3" r="0.1" fill="#FCFCFC"/>
  <circle cx="501.5" cy="629.3" r="0.1" fill="#FCFCFC"/>
  <path d="M493.7 656.5h.2v1.4h-.2zm.7 0h.4v1.4h-.4zm1.9 0h.2v1.4h-.2zm.6 0h.2v1.4h-.2z"/>
  <path fill="#FFF" d="M493 654.1s0-1 .7-1.3c0 0 .9-.5 1.5 0 .1 0 .3-.5 1.1-.3.2.1.6.2.5.9 0 0 .5-.3.9.2.3.3.4.5.1 1 0 0 .4.1.3.7 0 0 .1.3-.5.4 0 0 .3.7-.3 1.2 0 0-.8.4-1.3-.1 0 0 0 .5-.5.6-.2 0-.3 0-.7-.4 0 0-.1.4-.8.3-.3-.1-.6-.2-.6-.8 0 0-.9-.2-1-1 .1-.4.1-1 .6-1.4z"/>
  <ellipse cx="493.1" cy="654.5" rx="1.3" ry="1.5"/>
  <path d="M492.1 653.5s-.8.1-1.1 1c0 0 .2.3.9 0l.2-1zm2 0s.8.1 1.1 1c0 0-.2.3-.9 0l-.2-1z"/>
  <circle cx="492.5" cy="654.3" r="0.1" fill="#FCFCFC"/>
  <circle cx="493.6" cy="654.3" r="0.1" fill="#FCFCFC"/>
  <path d="M402.2 616.5h.2v1.4h-.2zm-.8 0h.4v1.4h-.4zm-1.8 0h.2v1.4h-.2zm-.6 0h.2v1.4h-.2z"/>
  <path fill="#FFF" d="M403.2 614.1s0-1-.7-1.3c0 0-.9-.5-1.5 0-.1 0-.3-.5-1.1-.3-.2.1-.6.2-.5.9 0 0-.5-.3-.9.2-.3.3-.4.5-.1 1 0 0-.4.1-.3.7 0 0-.1.3.5.4 0 0-.3.7.3 1.2 0 0 .8.4 1.3-.1 0 0 0 .5.5.6.2 0 .3 0 .7-.4 0 0 .1.4.8.3.3-.1.6-.2.6-.8 0 0 .9-.2 1-1-.2-.4-.2-1-.6-1.4z"/>
  <ellipse cx="403.1" cy="614.5" rx="1.3" ry="1.5"/>
  <path d="M404 613.5s.8.1 1.1 1c0 0-.2.3-.9 0 .1 0-.2-1-.2-1zm-1.9 0s-.8.1-1.1 1c0 0 .2.3.9 0-.1 0 .2-1 .2-1z"/>
  <circle cx="403.7" cy="614.3" r="0.1" fill="#FCFCFC"/>
  <circle cx="402.5" cy="614.3" r="0.1" fill="#FCFCFC"/>
  <path d="M484.2 644.5h.2v1.4h-.2zm-.8 0h.4v1.4h-.4zm-1.8 0h.2v1.4h-.2zm-.6 0h.2v1.4h-.2z"/>
  <path fill="#FFF" d="M485.2 642.1s0-1-.7-1.3c0 0-.9-.5-1.5 0-.1 0-.3-.5-1.1-.3-.2.1-.6.2-.5.9 0 0-.5-.3-.9.2-.3.3-.4.5-.1 1 0 0-.4.1-.3.7 0 0-.1.3.5.4 0 0-.3.7.3 1.2 0 0 .8.4 1.3-.1 0 0 0 .5.5.6.2 0 .3 0 .7-.4 0 0 .1.4.8.3.3-.1.6-.2.6-.8 0 0 .9-.2 1-1-.2-.4-.2-1-.6-1.4z"/>
  <ellipse cx="485.1" cy="642.5" rx="1.3" ry="1.5"/>
  <path d="M486 641.5s.8.1 1.1 1c0 0-.2.3-.9 0 .1 0-.2-1-.2-1zm-1.9 0s-.8.1-1.1 1c0 0 .2.3.9 0-.1 0 .2-1 .2-1z"/>
  <circle cx="485.7" cy="642.3" r="0.1" fill="#FCFCFC"/>
  <circle cx="484.5" cy="642.3" r="0.1" fill="#FCFCFC"/>
  <path d="M477.2 649.5h.2v1.4h-.2zm-.8 0h.4v1.4h-.4zm-1.8 0h.2v1.4h-.2zm-.6 0h.2v1.4h-.2z"/>
  <path fill="#FFF" d="M478.2 647.1s0-1-.7-1.3c0 0-.9-.5-1.5 0-.1 0-.3-.5-1.1-.3-.2.1-.6.2-.5.9 0 0-.5-.3-.9.2-.3.3-.4.5-.1 1 0 0-.4.1-.3.7 0 0-.1.3.5.4 0 0-.3.7.3 1.2 0 0 .8.4 1.3-.1 0 0 0 .5.5.6.2 0 .3 0 .7-.4 0 0 .1.4.8.3.3-.1.6-.2.6-.8 0 0 .9-.2 1-1-.2-.4-.2-1-.6-1.4z"/>
  <ellipse cx="478.1" cy="647.5" rx="1.3" ry="1.5"/>
  <path d="M479 646.5s.8.1 1.1 1c0 0-.2.3-.9 0 .1 0-.2-1-.2-1zm-1.9 0s-.8.1-1.1 1c0 0 .2.3.9 0-.1 0 .2-1 .2-1z"/>
  <circle cx="478.7" cy="647.3" r="0.1" fill="#FCFCFC"/>
  <circle cx="477.5" cy="647.3" r="0.1" fill="#FCFCFC"/>
  <path d="M504.7 660.5h.2v1.4h-.2zm.7 0h.4v1.4h-.4zm1.9 0h.2v1.4h-.2zm.6 0h.2v1.4h-.2z"/>
  <path fill="#FFF" d="M504 658.1s0-1 .7-1.3c0 0 .9-.5 1.5 0 .1 0 .3-.5 1.1-.3.2.1.6.2.5.9 0 0 .5-.3.9.2.3.3.4.5.1 1 0 0 .4.1.3.7 0 0 .1.3-.5.4 0 0 .3.7-.3 1.2 0 0-.8.4-1.3-.1 0 0 0 .5-.5.6-.2 0-.3 0-.7-.4 0 0-.1.4-.8.3-.3-.1-.6-.2-.6-.8 0 0-.9-.2-1-1 .1-.4.1-1 .6-1.4z"/>
  <ellipse cx="504.1" cy="658.5" rx="1.3" ry="1.5"/>
  <path d="M503.1 657.5s-.8.1-1.1 1c0 0 .2.3.9 0l.2-1zm2 0s.8.1 1.1 1c0 0-.2.3-.9 0l-.2-1z"/>
  <circle cx="503.5" cy="658.3" r="0.1" fill="#FCFCFC"/>
  <circle cx="504.6" cy="658.3" r="0.1" fill="#FCFCFC"/>
  <path d="M508.2 652.5h.2v1.4h-.2zm-.8 0h.4v1.4h-.4zm-1.8 0h.2v1.4h-.2zm-.6 0h.2v1.4h-.2z"/>
  <path fill="#FFF" d="M509.2 650.1s0-1-.7-1.3c0 0-.9-.5-1.5 0-.1 0-.3-.5-1.1-.3-.2.1-.6.2-.5.9 0 0-.5-.3-.9.2-.3.3-.4.5-.1 1 0 0-.4.1-.3.7 0 0-.1.3.5.4 0 0-.3.7.3 1.2 0 0 .8.4 1.3-.1 0 0 0 .5.5.6.2 0 .3 0 .7-.4 0 0 .1.4.8.3.3-.1.6-.2.6-.8 0 0 .9-.2 1-1-.2-.4-.2-1-.6-1.4z"/>
  <ellipse cx="509.1" cy="650.5" rx="1.3" ry="1.5"/>
  <path d="M510 649.5s.8.1 1.1 1c0 0-.2.3-.9 0 .1 0-.2-1-.2-1zm-1.9 0s-.8.1-1.1 1c0 0 .2.3.9 0-.1 0 .2-1 .2-1z"/>
  <circle cx="509.7" cy="650.3" r="0.1" fill="#FCFCFC"/>
  <circle cx="508.5" cy="650.3" r="0.1" fill="#FCFCFC"/>
</svg>
