<svg xmlns="http://www.w3.org/2000/svg" x="0px" y="0px" xmlns:xlink="http://www.w3.org/1999/xlink" viewBox="0 0 1440 875.8">
  <path fill="#CEDA91" d="M895.4 739.4l-371-214.5-173.2 100.5L722.4 840l173.1-100.6"/>
  <defs>
    <path id="a" d="M678.2 578.7l.1-34.1 49.5 28.5-.1 34.2z"/>
  </defs>
  <clipPath id="b">
    <use xlink:href="#a" overflow="visible"/>
  </clipPath>
  <g clip-path="url(#b)">
    <path fill="#F1526B" d="M727.8 573.1l-49.5-28.5-.1 34.1 49.5 28.6.1-34.2"/>
  </g>
  <path fill="#F5967F" d="M687.3 565.3l-.2 66.5c0 .2-.1.3-.3.4-.4.2-1.1.2-1.5 0-.2-.1-.3-.3-.3-.4l.2-66.5c0 .2.1.3.3.4.4.2 1.1.2 1.5 0 .2-.1.3-.3.3-.4z"/>
  <path fill="#F5967F" d="M687 564.8c.4.2.4.6 0 .9-.4.2-1.1.2-1.5 0-.4-.2-.4-.6 0-.9.4-.2 1.1-.2 1.5 0z"/>
  <g fill="#F5967F">
    <path d="M717.3 581.3l-.2 66.5c0 .2-.1.3-.3.4-.4.2-1.1.2-1.5 0-.2-.1-.3-.3-.3-.4l.2-66.5c0 .2.1.3.3.4.4.2 1.1.3 1.5 0 .2-.1.3-.2.3-.4z"/>
    <path d="M717 580.8c.4.2.4.7 0 .9-.4.2-1.1.2-1.5 0-.4-.2-.4-.6 0-.9s1.1-.2 1.5 0z"/>
  </g>
  <defs>
    <path id="c" d="M510.7 712.6l153.2-89 80.3 46.4L591 759z"/>
  </defs>
  <clipPath id="d">
    <use xlink:href="#c" overflow="visible"/>
  </clipPath>
  <g fill="#A4AD60" clip-path="url(#d)">
    <path d="M667.8 625.8l-3.9-2.2-153.2 89 3.9 2.2 153.2-89m7.6 4.4l-3.8-2.2-153.2 89 3.8 2.3 153.2-89.1m7.7 4.4l-3.9-2.2L526 721.5l3.9 2.2 153.2-89.1m7.6 4.5l-3.8-2.3-153.2 89.1 3.8 2.2 153.2-89m7.6 4.4l-3.8-2.2-153.2 89 3.8 2.2 153.2-89m7.7 4.4l-3.8-2.2-153.2 89 3.8 2.2 153.2-89m7.6 4.4l-3.8-2.2-153.2 89 3.8 2.2 153.2-89m7.7 4.4l-3.8-2.2-153.2 89 3.8 2.2 153.2-89m7.6 4.4l-3.8-2.2-153.2 89 3.8 2.3 153.2-89.1m7.7 4.4l-3.9-2.2-153.2 89.1 3.9 2.2 153.2-89.1m7.6 4.5l-3.8-2.3-153.2 89.1 3.8 2.2 153.2-89"/>
  </g>
  <defs>
    <path id="e" d="M688.8 706.5L748 672l50 28.9-59.3 34.4z"/>
  </defs>
  <clipPath id="f">
    <use xlink:href="#e" overflow="visible"/>
  </clipPath>
  <g fill="#A4AD60" clip-path="url(#f)">
    <path d="M767.4 683.2l-3.8-2.2-59.3 34.5 3.9 2.2 59.2-34.5m-7.8-4.5l-3.8-2.2-59.2 34.5 3.8 2.2 59.2-34.5m-7.7-4.5L748 672l-59.2 34.5 3.8 2.2 59.3-34.5m23.2 13.4l-3.9-2.2-59.2 34.5 3.8 2.2 59.3-34.5m7.6 4.5l-3.8-2.3-59.3 34.5 3.9 2.2 59.2-34.4m7.7 4.4l-3.9-2.2-59.2 34.4 3.8 2.2 59.3-34.4m7.6 4.4l-3.8-2.2-59.3 34.4 3.8 2.2 59.3-34.4"/>
  </g>
  <defs>
    <path id="g" d="M653.5 795.7l56.9-33.1 72.7 42-57 33.1z"/>
  </defs>
  <clipPath id="h">
    <use xlink:href="#g" overflow="visible"/>
  </clipPath>
  <g fill="#A4AD60" clip-path="url(#h)">
    <path d="M783.1 804.6l-72.7-42-3.8 2.2 72.7 42 3.8-2.2m-7.6 4.4l-72.7-41.9-3.8 2.2 72.7 41.9 3.8-2.2m-7.6 4.4l-72.7-41.9-3.8 2.2 72.7 41.9 3.8-2.2m-7.6 4.4l-72.7-41.9-3.8 2.2 72.7 41.9 3.8-2.2m-7.6 4.4L680 780.3l-3.8 2.2 72.7 41.9 3.8-2.2m-7.6 4.4l-72.7-41.9-3.8 2.2 72.7 41.9 3.8-2.2m-7.6 4.4l-72.6-41.9-3.8 2.2 72.6 42 3.8-2.3m-7.6 4.5l-72.6-42-3.8 2.2 72.6 42 3.8-2.2"/>
  </g>
  <defs>
    <path id="i" d="M633.6 702.5l34.2-19.9 36.9 21.4-34.1 19.8z"/>
  </defs>
  <clipPath id="j">
    <use xlink:href="#i" overflow="visible"/>
  </clipPath>
  <g clip-path="url(#j)">
    <path fill="#676B2F" d="M704.7 704l-36.9-21.4-34.2 19.9 37 21.3 34.1-19.8"/>
  </g>
  <defs>
    <path id="k" d="M591.1 763.1l94.1-54.7 60.2 34.8-94.1 54.7z"/>
  </defs>
  <clipPath id="l">
    <use xlink:href="#k" overflow="visible"/>
  </clipPath>
  <g clip-path="url(#l)">
    <path fill="#FFE5A8" d="M745.4 743.2l-60.2-34.8-94.1 54.7 60.2 34.8 94.1-54.7"/>
  </g>
  <defs>
    <path id="m" d="M710.8 756.3l89.7-52.1 73.5 42.5-89.7 52.1z"/>
  </defs>
  <clipPath id="n">
    <use xlink:href="#m" overflow="visible"/>
  </clipPath>
  <g clip-path="url(#n)">
    <path fill="#676B2F" d="M874 746.7l-73.5-42.5-89.7 52.1 73.5 42.5 89.7-52.1"/>
  </g>
  <defs>
    <path id="o" d="M293.5 586.4l153.2-89.1 80.3 46.4-153.2 89z"/>
  </defs>
  <clipPath id="p">
    <use xlink:href="#o" overflow="visible"/>
  </clipPath>
  <g fill="#A4AD60" clip-path="url(#p)">
    <path d="M519.3 539.3l-3.8-2.2-153.2 89 3.8 2.2 153.2-89m7.7 4.4l-3.9-2.2-153.2 89 3.9 2.2 153.2-89"/>
  </g>
  <defs>
    <path id="q" d="M471.5 580.2l59.3-34.4 49.9 28.8-59.2 34.4z"/>
  </defs>
  <clipPath id="r">
    <use xlink:href="#q" overflow="visible"/>
  </clipPath>
  <g fill="#A4AD60" clip-path="url(#r)">
    <path d="M550.2 556.9l-3.9-2.2-59.2 34.5 3.8 2.2 59.3-34.5m-7.8-4.5l-3.8-2.2-59.3 34.5 3.8 2.2 59.3-34.5m-7.8-4.4l-3.8-2.2-59.3 34.4 3.9 2.2 59.2-34.4m23.2 13.4l-3.8-2.2-59.3 34.4 3.9 2.2 59.2-34.4m7.7 4.4l-3.9-2.2-59.2 34.4 3.8 2.2 59.3-34.4m7.6 4.4l-3.8-2.2-59.3 34.4 3.8 2.2 59.3-34.4m7.6 4.4l-3.8-2.2-59.2 34.4 3.8 2.2 59.2-34.4"/>
  </g>
  <defs>
    <path id="s" d="M436.2 669.5l57-33.1 72.6 41.9-57 33.1z"/>
  </defs>
  <clipPath id="t">
    <use xlink:href="#s" overflow="visible"/>
  </clipPath>
  <g fill="#A4AD60" clip-path="url(#t)">
    <path d="M565.8 678.3l-72.6-41.9-3.8 2.2 72.6 41.9 3.8-2.2m-7.6 4.4l-72.6-41.9-3.8 2.2 72.6 41.9 3.8-2.2m-7.6 4.4L478 645.2l-3.8 2.2 72.6 41.9 3.8-2.2m-7.6 4.4l-72.6-41.9-3.8 2.2 72.6 41.9 3.8-2.2m-7.6 4.4L462.8 654l-3.8 2.2 72.6 41.9 3.8-2.2m-7.6 4.5l-72.6-42-3.8 2.2 72.6 42 3.8-2.2m-7.6 4.4l-72.6-42-3.8 2.2 72.6 42 3.8-2.2m-7.6 4.4L440 667.3l-3.8 2.2 72.6 41.9 3.8-2.2"/>
  </g>
  <defs>
    <path id="u" d="M373.9 636.8l94-54.6 60.2 34.7-94.1 54.7z"/>
  </defs>
  <clipPath id="v">
    <use xlink:href="#u" overflow="visible"/>
  </clipPath>
  <g clip-path="url(#v)">
    <path fill="#676B2F" d="M528.1 616.9l-60.2-34.7-94 54.6 60.1 34.8 94.1-54.7"/>
  </g>
  <defs>
    <path id="w" d="M493.5 630.1l89.7-52.2 73.6 42.5-89.7 52.1z"/>
  </defs>
  <clipPath id="x">
    <use xlink:href="#w" overflow="visible"/>
  </clipPath>
  <g clip-path="url(#x)">
    <path fill="#FFE5A8" d="M656.8 620.4l-73.6-42.5-89.7 52.2 73.6 42.4 89.7-52.1"/>
  </g>
  <defs>
    <path id="y" d="M509.3 685.7l34.2-19.9 36.9 21.3-34.1 19.9z"/>
  </defs>
  <clipPath id="z">
    <use xlink:href="#y" overflow="visible"/>
  </clipPath>
  <g clip-path="url(#z)">
    <path fill="#FFE5A8" d="M580.4 687.1l-36.9-21.3-34.2 19.9 37 21.3 34.1-19.9"/>
  </g>
</svg>
