<?xml version="1.0" encoding="utf-8"?>
<!-- Generator: Adobe Illustrator 18.1.0, SVG Export Plug-In . SVG Version: 6.00 Build 0)  -->
<svg version="1.1" id="Calque_1" xmlns="http://www.w3.org/2000/svg" xmlns:xlink="http://www.w3.org/1999/xlink" x="0px" y="0px"
	 viewBox="0 0 1440 875.8" enable-background="new 0 0 1440 875.8" xml:space="preserve">
<polygon fill="#F5967F" points="888.2,144.6 871.4,154.4 857.1,146.2 873.9,136.4 "/>
<polygon fill="#F6A28F" points="888.2,144.6 888.1,177 871.3,186.7 871.4,154.4 "/>
<polygon fill="#FEF4F2" points="871.4,154.4 871.3,186.7 857,178.5 857.1,146.2 "/>
<polygon fill="#F5967F" points="921.6,148.9 898.4,162.4 873.5,148 896.7,134.6 "/>
<polygon fill="#F6A28F" points="921.6,148.9 921.5,201.1 898.3,214.6 898.4,162.4 "/>
<polygon fill="#FEF4F2" points="898.4,162.4 898.3,214.6 873.4,200.2 873.5,148 "/>
<polygon fill="#97D2E8" points="963.1,140 926.3,161.4 893,142.2 929.8,120.8 "/>
<polygon fill="#43A4C9" points="963.1,140 963,172.6 926.2,194 926.3,161.4 "/>
<polygon fill="#EDF6F9" points="926.3,161.4 926.2,194 892.9,174.8 893,142.2 "/>
<g enable-background="new    ">
	<defs>
		<polygon id="SVGID_302_" enable-background="new    " points="892,149.3 929.9,127.2 964.3,147.1 926.4,169.1 		"/>
	</defs>
	<clipPath id="SVGID_1_">
		<use xlink:href="#SVGID_302_"  overflow="visible"/>
	</clipPath>
	<polyline clip-path="url(#SVGID_1_)" fill="#0066AE" points="964.3,147.1 963.5,146.7 926.3,168.3 892.7,148.9 892,149.3 
		926.4,169.1 964.3,147.1 	"/>
</g>
<g enable-background="new    ">
	<defs>
		<polygon id="SVGID_301_" enable-background="new    " points="892,159.3 929.9,137.2 964.3,157.1 926.4,179.1 		"/>
	</defs>
	<clipPath id="SVGID_2_">
		<use xlink:href="#SVGID_301_"  overflow="visible"/>
	</clipPath>
	<polyline clip-path="url(#SVGID_2_)" fill="#0066AE" points="964.3,157.1 963.5,156.7 926.3,178.3 892.7,158.8 892,159.3 
		926.4,179.1 964.3,157.1 	"/>
</g>
<polygon fill="#F5967F" points="989,184.5 972.2,194.3 957.9,186.1 974.7,176.3 "/>
<polygon fill="#FEF4F2" points="972.2,194.3 972.1,226.6 957.8,218.4 957.9,186.1 "/>
<polygon fill="#F5967F" points="972.7,174.2 949.5,187.7 924.6,173.3 947.8,159.8 "/>
<polygon fill="#F1526B" points="989,184.5 972.7,194 972.7,174.2 949.5,187.7 949.4,239.8 972.6,226.4 972.6,226.4 988.9,216.9 "/>
<polygon fill="#FEF4F2" points="949.5,187.7 949.4,239.8 924.5,225.4 924.6,173.3 "/>
<polygon fill="#FFE5A7" points="946,166.4 944.1,167.6 942.2,166.5 944.2,165.4 "/>
<polygon fill="#FFE29E" points="946,166.4 946,176.2 944,177.4 944.1,167.6 "/>
<polygon fill="#FFF9EA" points="944.1,167.6 944,177.4 942.1,176.3 942.2,166.5 "/>
<g enable-background="new    ">
	<defs>
		<polygon id="SVGID_300_" enable-background="new    " points="956.3,200.5 956.3,194 959.4,192.2 959.4,198.7 		"/>
	</defs>
	<clipPath id="SVGID_3_">
		<use xlink:href="#SVGID_300_"  overflow="visible"/>
	</clipPath>
	<polyline clip-path="url(#SVGID_3_)" fill="#FFFFFF" points="959.4,192.2 956.3,194 956.3,200.5 959.4,198.7 959.4,192.2 	"/>
</g>
<g enable-background="new    ">
	<defs>
		<polygon id="SVGID_299_" enable-background="new    " points="965.6,202.9 965.5,196.4 968.7,194.6 968.7,201.1 		"/>
	</defs>
	<clipPath id="SVGID_4_">
		<use xlink:href="#SVGID_299_"  overflow="visible"/>
	</clipPath>
	<polyline clip-path="url(#SVGID_4_)" fill="#FFFFFF" points="968.7,194.6 965.5,196.4 965.6,202.9 968.7,201.1 968.7,194.6 	"/>
</g>
<g enable-background="new    ">
	<defs>
		<polygon id="SVGID_298_" enable-background="new    " points="959.7,216.6 959.7,210.1 962.8,208.2 962.9,214.8 		"/>
	</defs>
	<clipPath id="SVGID_5_">
		<use xlink:href="#SVGID_298_"  overflow="visible"/>
	</clipPath>
	<polyline clip-path="url(#SVGID_5_)" fill="#FFFFFF" points="962.8,208.2 959.7,210.1 959.7,216.6 962.9,214.8 962.8,208.2 	"/>
</g>
<g enable-background="new    ">
	<defs>
		<polygon id="SVGID_297_" enable-background="new    " points="981.4,203.1 981.4,196.6 984.5,194.8 984.5,201.3 		"/>
	</defs>
	<clipPath id="SVGID_6_">
		<use xlink:href="#SVGID_297_"  overflow="visible"/>
	</clipPath>
	<polyline clip-path="url(#SVGID_6_)" fill="#FFFFFF" points="984.5,194.8 981.4,196.6 981.4,203.1 984.5,201.3 984.5,194.8 	"/>
</g>
<g enable-background="new    ">
	<defs>
		<polygon id="SVGID_296_" enable-background="new    " points="976.4,216.1 976.4,209.6 979.5,207.8 979.5,214.3 		"/>
	</defs>
	<clipPath id="SVGID_7_">
		<use xlink:href="#SVGID_296_"  overflow="visible"/>
	</clipPath>
	<polyline clip-path="url(#SVGID_7_)" fill="#FFFFFF" points="979.5,207.8 976.4,209.6 976.4,216.1 979.5,214.3 979.5,207.8 	"/>
</g>
<polygon fill="#EDF6F9" points="912.3,207.5 912.1,261.5 832.1,215.3 832.3,161.3 "/>
<polygon fill="#B6DCE8" points="832.3,161.3 869.7,139.5 949.7,185.7 912.3,207.5 "/>
<polygon fill="#43A4C9" points="949.7,185.7 931.7,175.4 912.3,207.5 912.1,261.5 949.5,239.8 949.7,185.7 "/>
<polygon fill="#C1432F" points="931.7,175.4 851.6,129 870.6,139.4 950.7,186.2 "/>
<polygon fill="#FFCABE" points="912.7,208.2 832.3,161.3 851.6,129 931.7,175.4 "/>
<polygon fill="#43A4C9" points="900,209.2 906.5,205.5 906.4,257.9 899.9,261.7 "/>
<polygon fill="#B6DCE8" points="889.2,203 895.7,199.2 906.5,205.5 900,209.2 "/>
<polygon fill="#43A4C9" points="843.9,176.8 850.4,173.1 850.3,225.5 843.8,229.3 "/>
<polygon fill="#B6DCE8" points="833.1,170.6 839.6,166.8 850.4,173.1 843.9,176.8 "/>
<polygon fill="#F4A395" points="888.7,203.2 895.7,199.2 901.1,196.4 894.6,200.2 "/>
<polygon fill="#EDF6F9" points="900,209.3 900,209.2 900,209.2 900,209.2 894.6,200.2 889.2,203 889.2,203 889,255.4 899.9,261.7 
	900,209.2 "/>
<polygon fill="#F1526B" points="894.6,200.2 901.1,196.4 906.7,205.7 900.2,209.5 "/>
<polygon fill="#F4A395" points="832.8,170.7 839.6,166.8 845.1,164 838.4,168 "/>
<polygon fill="#EDF6F9" points="838.5,167.8 833.1,170.6 832.9,223 843.8,229.3 843.9,176.8 "/>
<polygon fill="#F1526B" points="838.5,167.8 845.1,164 850.6,173.3 844.1,177.1 "/>
<g>
	<defs>
		<polygon id="SVGID_295_" points="862.8,233 862.8,213.8 868.6,217.1 868.5,236.3 		"/>
	</defs>
	<use xlink:href="#SVGID_295_"  overflow="visible" fill="#F1526B"/>
	<clipPath id="SVGID_8_">
		<use xlink:href="#SVGID_295_"  overflow="visible"/>
	</clipPath>
	<polyline clip-path="url(#SVGID_8_)" fill="#F1526B" points="868.6,217.1 862.8,213.8 862.8,233 868.5,236.3 868.6,217.1 	"/>
</g>
<g>
	<defs>
		<polygon id="SVGID_294_" points="868.9,236.6 868.9,217.4 874.7,220.7 874.6,239.9 		"/>
	</defs>
	<use xlink:href="#SVGID_294_"  overflow="visible" fill="#F1526B"/>
	<clipPath id="SVGID_9_">
		<use xlink:href="#SVGID_294_"  overflow="visible"/>
	</clipPath>
	<polyline clip-path="url(#SVGID_9_)" fill="#F1526B" points="874.7,220.7 868.9,217.4 868.9,236.6 874.6,239.9 874.7,220.7 	"/>
</g>
<polygon fill="#6FB1C1" points="857.6,231.4 857.7,207.2 858.8,206.5 858.8,230.7 "/>
<polygon fill="#6FB1C1" points="879.8,220 881,219.3 880.9,243.5 879.7,244.2 "/>
<polygon fill="#B0DAE6" points="857.7,207.2 858.8,206.5 881,219.3 879.8,220 "/>
<g enable-background="new    ">
	<defs>
		<polygon id="SVGID_293_" enable-background="new    " points="893.2,221.5 893.3,215 896,216.5 895.9,223 		"/>
	</defs>
	<clipPath id="SVGID_10_">
		<use xlink:href="#SVGID_293_"  overflow="visible"/>
	</clipPath>
	<polyline clip-path="url(#SVGID_10_)" fill="#62A1AF" points="896,216.5 893.3,215 893.2,221.5 895.9,223 896,216.5 	"/>
</g>
<g enable-background="new    ">
	<defs>
		<polygon id="SVGID_292_" enable-background="new    " points="893.2,233.7 893.3,227.2 896,228.7 895.9,235.2 		"/>
	</defs>
	<clipPath id="SVGID_11_">
		<use xlink:href="#SVGID_292_"  overflow="visible"/>
	</clipPath>
	<polyline clip-path="url(#SVGID_11_)" fill="#62A1AF" points="896,228.7 893.3,227.2 893.2,233.7 895.9,235.2 896,228.7 	"/>
</g>
<g enable-background="new    ">
	<defs>
		<polygon id="SVGID_291_" enable-background="new    " points="893.2,245.9 893.3,239.4 896,240.9 895.9,247.4 		"/>
	</defs>
	<clipPath id="SVGID_12_">
		<use xlink:href="#SVGID_291_"  overflow="visible"/>
	</clipPath>
	<polyline clip-path="url(#SVGID_12_)" fill="#62A1AF" points="896,240.9 893.3,239.4 893.2,245.9 895.9,247.4 896,240.9 	"/>
</g>
<g enable-background="new    ">
	<defs>
		<polygon id="SVGID_290_" enable-background="new    " points="836.5,188.5 836.5,182.1 839.2,183.6 839.2,190.1 		"/>
	</defs>
	<clipPath id="SVGID_13_">
		<use xlink:href="#SVGID_290_"  overflow="visible"/>
	</clipPath>
	<polyline clip-path="url(#SVGID_13_)" fill="#62A1AF" points="839.2,183.6 836.5,182.1 836.5,188.5 839.2,190.1 839.2,183.6 	"/>
</g>
<g enable-background="new    ">
	<defs>
		<polygon id="SVGID_289_" enable-background="new    " points="836.5,200.7 836.5,194.2 839.2,195.8 839.2,202.3 		"/>
	</defs>
	<clipPath id="SVGID_14_">
		<use xlink:href="#SVGID_289_"  overflow="visible"/>
	</clipPath>
	<polyline clip-path="url(#SVGID_14_)" fill="#62A1AF" points="839.2,195.8 836.5,194.2 836.5,200.7 839.2,202.3 839.2,195.8 	"/>
</g>
<g enable-background="new    ">
	<defs>
		<polygon id="SVGID_288_" enable-background="new    " points="836.5,212.9 836.5,206.5 839.2,208 839.2,214.5 		"/>
	</defs>
	<clipPath id="SVGID_15_">
		<use xlink:href="#SVGID_288_"  overflow="visible"/>
	</clipPath>
	<polyline clip-path="url(#SVGID_15_)" fill="#62A1AF" points="839.2,208 836.5,206.5 836.5,212.9 839.2,214.5 839.2,208 	"/>
</g>
<g enable-background="new    ">
	<defs>
		<polygon id="SVGID_287_" enable-background="new    " points="867.8,203.6 867.9,191.3 873,194.3 873,206.6 		"/>
	</defs>
	<clipPath id="SVGID_16_">
		<use xlink:href="#SVGID_287_"  overflow="visible"/>
	</clipPath>
	<polyline clip-path="url(#SVGID_16_)" fill="#62A1AF" points="873,194.3 867.9,191.3 867.8,203.6 873,206.6 873,194.3 	"/>
</g>
<g enable-background="new    ">
	<defs>
		<polygon id="SVGID_286_" enable-background="new    " points="876.4,208.6 876.4,196.3 881.6,199.3 881.6,211.6 		"/>
	</defs>
	<clipPath id="SVGID_17_">
		<use xlink:href="#SVGID_286_"  overflow="visible"/>
	</clipPath>
	<polyline clip-path="url(#SVGID_17_)" fill="#62A1AF" points="881.6,199.3 876.4,196.3 876.4,208.6 881.6,211.6 881.6,199.3 	"/>
</g>
<g enable-background="new    ">
	<defs>
		<polygon id="SVGID_285_" enable-background="new    " points="859.3,199 859.3,186.7 864.5,189.7 864.4,202 		"/>
	</defs>
	<clipPath id="SVGID_18_">
		<use xlink:href="#SVGID_285_"  overflow="visible"/>
	</clipPath>
	<polyline clip-path="url(#SVGID_18_)" fill="#62A1AF" points="864.5,189.7 859.3,186.7 859.3,199 864.4,202 864.5,189.7 	"/>
</g>
<g enable-background="new    ">
	<defs>
		<polygon id="SVGID_284_" enable-background="new    " points="926.9,225.6 926.8,213.3 932,210.3 932,222.6 		"/>
	</defs>
	<clipPath id="SVGID_19_">
		<use xlink:href="#SVGID_284_"  overflow="visible"/>
	</clipPath>
	<polyline clip-path="url(#SVGID_19_)" fill="#FFFFFF" points="932,210.3 926.8,213.3 926.9,225.6 932,222.6 932,210.3 	"/>
</g>
<g enable-background="new    ">
	<defs>
		<polygon id="SVGID_283_" enable-background="new    " points="934.9,221.6 934.8,209.3 940,206.3 940,218.6 		"/>
	</defs>
	<clipPath id="SVGID_20_">
		<use xlink:href="#SVGID_283_"  overflow="visible"/>
	</clipPath>
	<polyline clip-path="url(#SVGID_20_)" fill="#FFFFFF" points="940,206.3 934.8,209.3 934.9,221.6 940,218.6 940,206.3 	"/>
</g>
<g enable-background="new    ">
	<defs>
		<polygon id="SVGID_282_" enable-background="new    " points="930.1,202.3 930.1,194.1 937.2,190 937.2,198.2 		"/>
	</defs>
	<clipPath id="SVGID_21_">
		<use xlink:href="#SVGID_282_"  overflow="visible"/>
	</clipPath>
	<path clip-path="url(#SVGID_21_)" fill="#FFFFFF" d="M933.7,192.1c-2,1.1-3.5,3.9-3.5,6.1c0,2.3,1.6,3.2,3.6,2
		c2-1.1,3.5-3.9,3.5-6.1C937.2,191.8,935.6,190.9,933.7,192.1"/>
</g>
<path fill="#FFF9EA" d="M873.1,215l-0.1,40.8c0,0.1-0.1,0.2-0.2,0.3c-0.3,0.2-0.7,0.2-1,0c-0.1-0.1-0.2-0.2-0.2-0.3l0.1-40.8
	c0,0.1,0.1,0.2,0.2,0.3c0.3,0.2,0.7,0.2,1,0C873,215.3,873.1,215.2,873.1,215z"/>
<path fill="#FFF9EA" d="M872.9,214.8c0.3,0.2,0.3,0.4,0,0.6c-0.3,0.2-0.7,0.2-1,0c-0.3-0.2-0.3-0.4,0-0.6
	C872.2,214.6,872.6,214.6,872.9,214.8z"/>
<g enable-background="new    ">
	<defs>
		<polygon id="SVGID_281_" enable-background="new    " points="872.5,228.3 872.5,216.9 884.2,223.7 884.1,235.1 		"/>
	</defs>
	<clipPath id="SVGID_22_">
		<use xlink:href="#SVGID_281_"  overflow="visible"/>
	</clipPath>
	<path clip-path="url(#SVGID_22_)" fill="#FFD176" d="M881.7,222.2c-1.1-0.6-2.2-0.9-3.4-1.1c-1.1-0.2-2.2-0.4-3.4-1.1
		c-0.8-0.5-1.6-1.2-2.5-2.3c0,3.2,0,6.5,0,9.7c0.8,1.1,1.6,1.8,2.5,2.3c1.1,0.6,2.2,0.9,3.4,1.1c1.1,0.2,2.2,0.5,3.4,1.1
		c0.8,0.5,1.6,1.2,2.5,2.3c0-3.2,0-6.5,0-9.7C883.3,223.4,882.5,222.7,881.7,222.2"/>
</g>
<path fill="#FFF9EA" d="M842.1,197l-0.1,40.8c0,0.1-0.1,0.2-0.2,0.3c-0.3,0.2-0.7,0.2-1,0c-0.1-0.1-0.2-0.2-0.2-0.3l0.1-40.8
	c0,0.1,0.1,0.2,0.2,0.3c0.3,0.2,0.7,0.2,1,0C842,197.3,842.1,197.2,842.1,197z"/>
<path fill="#FFF9EA" d="M841.9,196.8c0.3,0.2,0.3,0.4,0,0.6c-0.3,0.2-0.7,0.2-1,0c-0.3-0.2-0.3-0.4,0-0.6
	C841.2,196.6,841.6,196.6,841.9,196.8z"/>
<g enable-background="new    ">
	<defs>
		<polygon id="SVGID_280_" enable-background="new    " points="841.5,210.3 841.5,198.9 853.2,205.7 853.1,217.1 		"/>
	</defs>
	<clipPath id="SVGID_23_">
		<use xlink:href="#SVGID_280_"  overflow="visible"/>
	</clipPath>
	<path clip-path="url(#SVGID_23_)" fill="#FFD176" d="M850.7,204.2c-1.1-0.6-2.2-0.9-3.4-1.1c-1.1-0.2-2.2-0.5-3.4-1.1
		c-0.8-0.5-1.6-1.2-2.5-2.3c0,3.2,0,6.5,0,9.7c0.8,1.1,1.6,1.8,2.5,2.3c1.1,0.6,2.2,0.9,3.4,1.1c1.1,0.2,2.2,0.5,3.4,1.1
		c0.8,0.5,1.6,1.2,2.5,2.3c0-3.2,0-6.5,0-9.7C852.3,205.4,851.5,204.7,850.7,204.2"/>
</g>
<polygon fill="#F5967F" points="896.1,260.7 889.4,264.6 876.7,257.3 883.5,253.4 "/>
<polygon fill="#F1526B" points="896.1,260.7 896.1,264 889.4,267.9 889.4,264.6 "/>
<polygon fill="#FFCABE" points="889.4,264.6 889.4,267.9 876.7,260.6 876.7,257.3 "/>
<g enable-background="new    ">
	<defs>
		<polygon id="SVGID_279_" enable-background="new    " points="879.5,257.2 883.5,255 893.3,260.6 889.4,262.9 		"/>
	</defs>
	<clipPath id="SVGID_24_">
		<use xlink:href="#SVGID_279_"  overflow="visible"/>
	</clipPath>
	<polyline clip-path="url(#SVGID_24_)" fill="#CEDA91" points="893.3,260.6 883.5,255 879.5,257.2 889.4,262.9 893.3,260.6 	"/>
</g>
<polygon fill="#F5967F" points="839.8,228.8 833,232.7 820.3,225.4 827.1,221.4 "/>
<polygon fill="#F1526B" points="839.8,228.8 839.8,232 833,235.9 833,232.7 "/>
<polygon fill="#FFCABE" points="833,232.7 833,235.9 820.3,228.6 820.3,225.4 "/>
<g enable-background="new    ">
	<defs>
		<polygon id="SVGID_278_" enable-background="new    " points="823.2,225.3 827.1,223 836.9,228.7 833,231 		"/>
	</defs>
	<clipPath id="SVGID_25_">
		<use xlink:href="#SVGID_278_"  overflow="visible"/>
	</clipPath>
	<polyline clip-path="url(#SVGID_25_)" fill="#CEDA91" points="836.9,228.7 827.1,223 823.2,225.3 833,231 836.9,228.7 	"/>
</g>
<ellipse fill="#FFFFFF" cx="955.7" cy="232.3" rx="0.7" ry="0.8"/>
<path fill="#3F3F3F" d="M956.9,231.7c0,0,0,0.5-0.8,0.5c-0.7,0-0.8-0.4-0.8-0.4l-0.2,0.2c0,0-0.2-0.2,0.1-0.6c0,0,0.6-0.5,0.9,0.1
	C956.4,231.9,956.9,231.7,956.9,231.7z"/>
<path fill="#FFFFFF" d="M955.6,233v0.3c0,0,0.4-0.1,0.5,0.1c0,0,0,0.4-0.5,0.4c-0.5,0-0.6-0.5-0.6-0.5s0.3-0.1,0.4,0
	c0,0,0-0.4,0-0.4L955.6,233z"/>
<path fill="#FFFFFF" d="M956.5,234.8c0,0,0,2.5,0,2.5s0,0.2-0.1,0.2c-0.2,0-0.2-0.2-0.2-0.2l0-2.6L956.5,234.8z"/>
<path fill="#FFFFFF" d="M955.1,238.1c0,0-0.1,2.5-0.1,2.5s0,0.2-0.2,0.2c-0.2,0-0.2-0.2-0.2-0.2l0.1-2.6L955.1,238.1z"/>
<path fill="#FFFFFF" d="M956.3,238c0,0,0.1,2.5,0.1,2.5s0,0.2-0.1,0.2c-0.2,0-0.2-0.2-0.2-0.2l-0.2-2.6L956.3,238z"/>
<path fill="#FFFFFF" d="M954.9,235c0,0,0,2.5,0,2.5s0,0.2-0.1,0.2c-0.2,0-0.2-0.2-0.2-0.2l0-2.6L954.9,235z"/>
<path fill="#3F3F3F" d="M955.1,232.5c0,0,0.6,0.6,1.3,0.1c0,0,0,0,0,0c0.1-0.1,0.3-0.7-0.1-1c0-0.1-1.1,0-1.1,0
	S954.9,232,955.1,232.5z"/>
<polygon fill="#BCE5EC" points="956.3,236.4 956.4,238.6 955.9,238.6 955.8,236.9 955.3,237 955.3,238.6 954.7,238.6 954.8,236.5 
	"/>
<path fill="#CEDA91" d="M956.1,233.3c0,0,0.6,0,0.6,1.6c0,0-0.3,0-0.3,0v1.7l-1.5,0V235l-0.4-0.1c0,0-0.1-1.6,0.7-1.6
	c0,0-0.1,0.4,0.4,0.4C955.6,233.8,956.1,233.8,956.1,233.3z"/>
</svg>
