<?xml version="1.0" encoding="utf-8"?>
<!-- Generator: Adobe Illustrator 18.1.0, SVG Export Plug-In . SVG Version: 6.00 Build 0)  -->
<svg version="1.1" id="Calque_1" xmlns="http://www.w3.org/2000/svg" xmlns:xlink="http://www.w3.org/1999/xlink" x="0px" y="0px"
	 viewBox="0 0 1440 875.8" enable-background="new 0 0 1440 875.8" xml:space="preserve">
<g>
	<polygon fill="#0066AE" points="1431.4,427.9 1431.3,452.4 722.3,864.4 722.4,840 	"/>
</g>
<g>
	<polygon fill="#E7F1F2" points="722.4,840 722.3,864.4 8.6,452.4 10.9,426.6 	"/>
</g>
<g enable-background="new    ">
	<defs>
		<polygon id="SVGID_13_" enable-background="new    " points="8.7,427.9 718.6,15.7 1431.4,427.9 722.4,840 		"/>
	</defs>
	<clipPath id="SVGID_1_">
		<use xlink:href="#SVGID_13_"  overflow="visible"/>
	</clipPath>
	<polyline clip-path="url(#SVGID_1_)" fill="#BCE5EC" points="1432.3,427.8 718.6,15.7 8.7,427.9 722.4,840 1432.3,427.8 	"/>
</g>
<polygon fill="#FFF3DC" points="8.7,427.9 8.6,452.4 297.5,619.2 297.6,594 "/>
<g>
	<g enable-background="new    ">
		<defs>
			<polygon id="SVGID_497_" enable-background="new    " points="8.8,428 718.3,15.6 1432.3,427.8 722.9,840.3 			"/>
		</defs>
		<clipPath id="SVGID_2_">
			<use xlink:href="#SVGID_497_"  overflow="visible"/>
		</clipPath>
		<g clip-path="url(#SVGID_2_)">
			<path fill="#0066AE" d="M437.3,458.3l-14.2-8.2l-0.2,0.1l14.2,8.2L437.3,458.3 M627.9,347.5l-14.2-8.2l-8.8,5.1L432.7,444.5
				l-8.8,5.1l14.2,8.2l8.8-5.1l172.2-100.1L627.9,347.5"/>
			<g>
				<path fill="#0066AE" d="M1305,392.4l18.3-10.6L1040,218.2l14.3-8.3l-8.8-5.1l-135.2,78.6l-0.7-0.4l135.2-78.6l-8.9-5.1
					l-15.6,9.1l-189.9-110l-88.9,0l-76.6,44.5l-83-47.9l-18.3,10.6L881.3,289L714,386.2L528.8,279.3l-8.8,5.1l185,106.8l-0.7,0.4
					l-76.5-44.2l-8.8,5.1l76.6,44.2L523.5,497l-76.6-44.2l-8.8,5.1l75.5,43.6l-0.7,0.4L423,450.2l0.2-0.1L196.1,319l0.7-0.4
					l227,131.1l8.8-5.1l-227-131.1l-18.3,10.6l90.8,52.4l-78.6,45.7l7.1,4.1l78.6-45.7l219.9,127L326.5,611.4l18.7,10.8l178.4-103.9
					L901,736.2l8.8-5.1l-375-216.5l0.7-0.4l375,216.5l8.8-5.1L634.8,561.3l52.6-30.6L594.5,477l119.6-69.5L1092,625.7l8.8-5.1
					L724.2,403.2l0.7-0.4l376.5,217.4l8.8-5.1L732.4,396.9l167.3-97.2l116.4,67.2l-0.1,49.3l219,126.3l8.7-5l-215.2-124.3l0-0.1
					l0.1-49.2l-120-69.3l-1.6-0.9l0.7-0.4l1.6,0.9l120.3,69.5l0,0.1l-0.1,49.2l215,124l8.7-5.1L1042,410l0.1-49.3l-124-71.6
					l103.6-60.2L1305,392.4z M336.6,616.6l-0.7-0.4l177.7-103.3l0.7,0.4L336.6,616.6z M664.8,530.7l-41.4,24l-81.5-47.1l41.4-24
					L664.8,530.7z M585.7,471.9l-11.3,6.6l-39.6,23l-0.7-0.4l170.4-99l0.7,0.4L585.7,471.9z M745.6,104.1l80.6,0l80.7,46.8
					l-113.7,66.1l-121.3-70L745.6,104.1z M572.3,100.4l0.7-0.4l316.9,183l-0.7,0.4L572.3,100.4z M724.2,391.4l-0.7-0.4l166.3-96.7
					l0.7,0.4L724.2,391.4z M899.6,278.4L800.3,221L914,154.9l99.2,57.4L899.6,278.4z"/>
				
					<rect x="386.6" y="208.1" transform="matrix(0.8645 -0.5026 0.5026 0.8645 -52.1391 222.6893)" fill="#0066AE" width="0.8" height="0"/>
				<polygon fill="#0066AE" points="521.8,275.2 396.2,202.7 387.4,207.9 512.9,280.4 				"/>
				<polygon fill="#0066AE" points="604.9,344.5 613.7,339.3 519.3,284.9 517.1,286.1 510,282 512.2,280.8 386.7,208.3 377.9,213.4 
									"/>
			</g>
			<path fill="#0066AE" d="M519.3,284.9l-7.1-4.1L510,282l7.1,4.1L519.3,284.9 M599.3,238.4l-7.1-4.1l-70.5,41l-8.8,5.1l7.1,4.1
				l8.8-5.1L599.3,238.4"/>
			<polyline fill="#FFFFFF" points="1029.6,363.6 909.3,294.1 907.7,293.2 907,293.6 908.5,294.5 1028.6,363.9 1028.5,413.1 
				1028.5,413.2 1243.3,537.2 1244,536.8 1029.5,413 1029.6,363.7 1029.6,363.6 			"/>
			<polyline fill="#FFFFFF" points="889.9,283 573,100 572.3,100.4 889.2,283.4 889.9,283 			"/>
			<polyline fill="#FFFFFF" points="910.5,730.7 535.5,514.1 534.8,514.6 909.8,731.1 910.5,730.7 			"/>
			<polyline fill="#FFFFFF" points="513.5,501.4 438,457.9 423.9,449.7 294.7,375.1 287.6,371 196.8,318.6 196.1,319 286.9,371.4 
				294,375.5 423.2,450.1 437.3,458.3 512.8,501.9 513.5,501.4 			"/>
			<polyline fill="#FFFFFF" points="1101,619.9 724.9,402.8 724.2,403.2 1100.3,620.3 1101,619.9 			"/>
			<polyline fill="#FFFFFF" points="705.1,391.3 520,284.5 512.9,280.4 387.4,207.9 386.7,208.3 512.2,280.8 519.3,284.9 
				613.7,339.3 627.9,347.5 704.4,391.7 705.1,391.3 			"/>
			<polyline fill="#FFFFFF" points="1045.7,204.6 1045.2,204.1 909.7,282.8 910.3,283.3 1045.7,204.6 			"/>
			<polyline fill="#FFFFFF" points="890.5,294.7 889.8,294.3 723.5,391 724.2,391.4 890.5,294.7 			"/>
			<polyline fill="#FFFFFF" points="705.2,402.5 704.5,402.1 534.1,501.1 534.8,501.5 574.4,478.5 585.7,471.9 705.2,402.5 			"/>
			<polyline fill="#FFFFFF" points="514.4,513.3 513.7,512.9 335.9,616.2 336.6,616.6 514.4,513.3 			"/>
		</g>
	</g>
</g>
<g enable-background="new    ">
	<defs>
		<polygon id="SVGID_15_" enable-background="new    " points="414.3,579.6 414.3,577.7 416,576.8 416,578.7 		"/>
	</defs>
	<clipPath id="SVGID_3_">
		<use xlink:href="#SVGID_15_"  overflow="visible"/>
	</clipPath>
	<path clip-path="url(#SVGID_3_)" fill="#4C4C4C" d="M415.1,577.2c-0.5,0.3-0.8,0.9-0.8,1.4c0,0.5,0.4,0.7,0.8,0.5
		c0.5-0.3,0.8-0.9,0.8-1.4C416,577.2,415.6,577,415.1,577.2"/>
</g>
<g enable-background="new    ">
	<defs>
		<polygon id="SVGID_25_" enable-background="new    " points="420.1,576.2 420.1,574.3 421.8,573.4 421.8,575.3 		"/>
	</defs>
	<clipPath id="SVGID_4_">
		<use xlink:href="#SVGID_25_"  overflow="visible"/>
	</clipPath>
	<path clip-path="url(#SVGID_4_)" fill="#4C4C4C" d="M420.9,573.9c-0.5,0.3-0.8,0.9-0.8,1.4c0,0.5,0.4,0.7,0.8,0.5
		c0.5-0.3,0.8-0.9,0.8-1.4C421.8,573.8,421.4,573.6,420.9,573.9"/>
</g>
<g>
	<polygon fill="#FEE2AA" points="420.4,573.1 414.9,569.9 417.6,569.1 423,572.3 	"/>
</g>
<g enable-background="new    ">
	<defs>
		<path id="SVGID_5_" enable-background="new    " d="M416,573.5l-5.5-3.2c3-1.7,3.2-1.8,3.2-1.8l5.5,3.2
			C419.2,571.7,419,571.8,416,573.5z"/>
	</defs>
	<clipPath id="SVGID_6_">
		<use xlink:href="#SVGID_5_"  overflow="visible"/>
	</clipPath>
	<g clip-path="url(#SVGID_6_)" enable-background="new    ">
		<path fill="#FEE6B8" d="M416,573.5l-5.5-3.2c2-1.1,2.7-1.5,3-1.7l5.5,3.2C418.7,571.9,418,572.4,416,573.5"/>
		<path fill="#FEE5B3" d="M419,571.8l-5.5-3.2c0.1-0.1,0.1-0.1,0.2-0.1l5.5,3.2C419.2,571.7,419.1,571.7,419,571.8"/>
		<polyline fill="#FEE4AE" points="419.2,571.7 413.7,568.5 413.7,568.5 419.2,571.7 419.2,571.7 		"/>
	</g>
</g>
<g enable-background="new    ">
	<defs>
		<path id="SVGID_7_" enable-background="new    " d="M414.4,576.6l-5.5-3.2c0.7-1.4,1.6-3,1.6-3.1l5.5,3.2
			C416,573.5,415.1,575.2,414.4,576.6z"/>
	</defs>
	<clipPath id="SVGID_8_">
		<use xlink:href="#SVGID_7_"  overflow="visible"/>
	</clipPath>
	<g clip-path="url(#SVGID_8_)" enable-background="new    ">
		<path fill="#FDFDFD" d="M414.4,576.6l-5.5-3.2c0.6-1.3,1.4-2.8,1.5-3l5.5,3.2C415.9,573.8,415,575.3,414.4,576.6"/>
		<path fill="#FDFDFD" d="M416,573.5l-5.5-3.2c0,0,0,0,0,0L416,573.5C416,573.5,416,573.5,416,573.5"/>
		<polyline fill="#FDFDFD" points="416,573.5 410.5,570.3 410.5,570.3 416,573.5 416,573.5 		"/>
		<polyline fill="#FDFDFD" points="416,573.5 410.5,570.3 410.5,570.3 416,573.5 416,573.5 		"/>
		<polyline fill="#FDFDFD" points="416,573.5 410.5,570.3 410.5,570.3 416,573.5 416,573.5 		"/>
		<polyline fill="#FCFCFC" points="416,573.5 410.5,570.3 410.5,570.3 416,573.5 416,573.5 		"/>
		<polyline fill="#FCFCFC" points="416,573.5 410.5,570.3 410.5,570.3 416,573.5 416,573.5 		"/>
		<polyline fill="#FCFBF7" points="416,573.5 410.5,570.3 410.5,570.3 416,573.5 416,573.5 		"/>
		<polyline fill="#FCF9F3" points="416,573.5 410.5,570.3 410.5,570.3 416,573.5 416,573.5 		"/>
		<polyline fill="#FCF8EE" points="416,573.5 410.5,570.3 410.5,570.3 416,573.5 416,573.5 		"/>
		<polyline fill="#FCF6EA" points="416,573.5 410.5,570.3 410.5,570.3 416,573.5 416,573.5 		"/>
		<polyline fill="#FDF5E5" points="416,573.5 410.5,570.3 410.6,570.3 416,573.5 416,573.5 		"/>
		<polyline fill="#FDF3E1" points="416,573.5 410.6,570.3 410.6,570.3 416,573.5 416,573.5 		"/>
		<polyline fill="#FDF2DC" points="416,573.5 410.6,570.3 410.6,570.3 416,573.5 416,573.5 		"/>
		<polyline fill="#FDF0D8" points="416,573.5 410.6,570.3 410.6,570.3 416,573.5 416,573.5 		"/>
		<polyline fill="#FDEFD3" points="416,573.5 410.6,570.3 410.6,570.3 416,573.5 416,573.5 		"/>
	</g>
</g>
<g>
	<path fill="#FFD07D" d="M416,573.5c3-1.7,3.2-1.8,3.2-1.8l1.2,1.4l2.7-0.8l0,1.3l-10.2,5.9l0-1.7l1.6-1.1
		C415.1,575.2,416,573.5,416,573.5z"/>
</g>
<g>
	<polygon fill="#FDFDFD" points="412.9,579.4 407.4,576.3 407.4,574.5 412.9,577.7 	"/>
</g>
<g>
	<polygon fill="#FDEFD2" points="412.9,577.7 407.4,574.5 409,573.4 414.4,576.6 	"/>
</g>
<g enable-background="new    ">
	<defs>
		<polygon id="SVGID_9_" enable-background="new    " points="415,576.2 413.1,575.2 417.5,573 417.5,574.7 		"/>
	</defs>
	<clipPath id="SVGID_10_">
		<use xlink:href="#SVGID_9_"  overflow="visible"/>
	</clipPath>
	<polyline clip-path="url(#SVGID_10_)" fill="#4C4C4C" points="417.5,573 416.3,573.7 415.1,576.1 417.5,574.7 417.5,573 	"/>
</g>
<g enable-background="new    ">
	<defs>
		<polygon id="SVGID_11_" enable-background="new    " points="417.7,574.6 417.7,572.9 419.8,571.6 420.2,573.2 		"/>
	</defs>
	<clipPath id="SVGID_12_">
		<use xlink:href="#SVGID_11_"  overflow="visible"/>
	</clipPath>
	<polyline clip-path="url(#SVGID_12_)" fill="#4C4C4C" points="419.1,572.1 417.7,572.9 417.7,574.6 420,573.3 419.1,572.1 	"/>
</g>
<polygon fill="#4C4C4C" points="410.7,570.8 409.4,573.3 414.2,576.1 415.5,573.6 "/>
<g enable-background="new    ">
	<defs>
		<polygon id="SVGID_27_" enable-background="new    " points="407.4,575.4 407.4,574.8 408.7,575.5 408.7,576.1 		"/>
	</defs>
	<clipPath id="SVGID_14_">
		<use xlink:href="#SVGID_27_"  overflow="visible"/>
	</clipPath>
	<polyline clip-path="url(#SVGID_14_)" fill="#F5967F" points="408.7,575.5 407.4,574.8 407.4,575.4 408.7,576.1 408.7,575.5 	"/>
</g>
<g enable-background="new    ">
	<defs>
		<polygon id="SVGID_29_" enable-background="new    " points="411.6,577.8 411.6,577.2 412.9,578 412.9,578.6 		"/>
	</defs>
	<clipPath id="SVGID_16_">
		<use xlink:href="#SVGID_29_"  overflow="visible"/>
	</clipPath>
	<polyline clip-path="url(#SVGID_16_)" fill="#F5967F" points="412.9,578 411.6,577.2 411.6,577.8 412.9,578.6 412.9,578 	"/>
</g>
<g enable-background="new    ">
	<defs>
		<polygon id="SVGID_31_" enable-background="new    " points="407.4,575.5 407.4,575.4 408.7,576.1 408.7,576.3 		"/>
	</defs>
	<clipPath id="SVGID_17_">
		<use xlink:href="#SVGID_31_"  overflow="visible"/>
	</clipPath>
	<polyline clip-path="url(#SVGID_17_)" fill="#FFD07D" points="408.7,576.1 407.4,575.4 407.4,575.5 408.7,576.3 408.7,576.1 	"/>
</g>
<g enable-background="new    ">
	<defs>
		<polygon id="SVGID_33_" enable-background="new    " points="411.6,578 411.6,577.8 412.9,578.6 412.9,578.7 		"/>
	</defs>
	<clipPath id="SVGID_18_">
		<use xlink:href="#SVGID_33_"  overflow="visible"/>
	</clipPath>
	<polyline clip-path="url(#SVGID_18_)" fill="#FFD07D" points="412.9,578.6 411.6,577.8 411.6,578 412.9,578.7 412.9,578.6 	"/>
</g>
<g enable-background="new    ">
	<defs>
		<polygon id="SVGID_35_" enable-background="new    " points="666.3,433.5 666.3,431.6 667.9,430.6 668,432.5 		"/>
	</defs>
	<clipPath id="SVGID_19_">
		<use xlink:href="#SVGID_35_"  overflow="visible"/>
	</clipPath>
	<g clip-path="url(#SVGID_19_)">
		<path fill="#4C4C4C" d="M667.1,431.1c-0.5,0.3-0.8,0.9-0.8,1.4c0,0.5,0.4,0.7,0.8,0.5c0.5-0.3,0.8-0.9,0.8-1.4
			C667.9,431,667.6,430.8,667.1,431.1"/>
	</g>
</g>
<g enable-background="new    ">
	<defs>
		<polygon id="SVGID_45_" enable-background="new    " points="672.1,430.1 672.1,428.2 673.8,427.2 673.8,429.1 		"/>
	</defs>
	<clipPath id="SVGID_20_">
		<use xlink:href="#SVGID_45_"  overflow="visible"/>
	</clipPath>
	<g clip-path="url(#SVGID_20_)">
		<path fill="#4C4C4C" d="M672.9,427.7c-0.5,0.3-0.8,0.9-0.8,1.4c0,0.5,0.4,0.7,0.8,0.5c0.5-0.3,0.8-0.9,0.8-1.4
			C673.8,427.6,673.4,427.4,672.9,427.7"/>
	</g>
</g>
<g enable-background="new    ">
	<g>
		<polygon fill="#F8B9AA" points="672.4,426.9 666.9,423.8 669.6,423 675,426.2 		"/>
	</g>
	<g>
		<defs>
			<path id="SVGID_21_" d="M668,427.3l-5.5-3.2c3-1.7,3.2-1.8,3.2-1.8l5.5,3.2C671.2,425.6,671,425.6,668,427.3z"/>
		</defs>
		<use xlink:href="#SVGID_21_"  overflow="visible" fill="#F8B9AA"/>
		<clipPath id="SVGID_22_">
			<use xlink:href="#SVGID_21_"  overflow="visible"/>
		</clipPath>
		<g clip-path="url(#SVGID_22_)" enable-background="new    ">
			<path fill="#F8B9AA" d="M668,427.3l-5.5-3.2c2-1.1,2.7-1.5,3-1.7l5.5,3.2C670.7,425.8,670,426.2,668,427.3"/>
			<path fill="#F8B9AA" d="M671,425.6l-5.5-3.2c0.1-0.1,0.1-0.1,0.2-0.1l5.5,3.2C671.1,425.6,671.1,425.6,671,425.6"/>
			<polyline fill="#F8B9AA" points="671.2,425.6 665.7,422.4 665.7,422.4 671.2,425.5 671.2,425.6 			"/>
		</g>
	</g>
	<g>
		<defs>
			<path id="SVGID_23_" d="M666.4,430.4l-5.5-3.2c0.7-1.4,1.6-3,1.6-3.1l5.5,3.2C668,427.4,667.1,429,666.4,430.4z"/>
		</defs>
		<use xlink:href="#SVGID_23_"  overflow="visible" fill="#FEF4F2"/>
		<clipPath id="SVGID_24_">
			<use xlink:href="#SVGID_23_"  overflow="visible"/>
		</clipPath>
		<g clip-path="url(#SVGID_24_)" enable-background="new    ">
			<path fill="#FEF4F2" d="M666.4,430.4l-5.5-3.2c0.6-1.3,1.4-2.8,1.5-3l5.5,3.2C667.9,427.6,667,429.1,666.4,430.4"/>
			<path fill="#FEF4F2" d="M668,427.4l-5.5-3.2c0,0,0,0,0,0L668,427.4C668,427.4,668,427.4,668,427.4"/>
			<polyline fill="#FEF4F2" points="668,427.3 662.5,424.2 662.5,424.2 668,427.3 668,427.3 			"/>
			<polyline fill="#FEF4F2" points="668,427.3 662.5,424.2 662.5,424.2 668,427.3 668,427.3 			"/>
			<polyline fill="#FEF4F2" points="668,427.3 662.5,424.2 662.5,424.2 668,427.3 668,427.3 			"/>
			<polyline fill="#FEF4F2" points="668,427.3 662.5,424.2 662.5,424.2 668,427.3 668,427.3 			"/>
			<polyline fill="#FEF4F2" points="668,427.3 662.5,424.2 662.5,424.2 668,427.3 668,427.3 			"/>
			<polyline fill="#FEF4F2" points="668,427.3 662.5,424.2 662.5,424.2 668,427.3 668,427.3 			"/>
			<polyline fill="#FEF4F2" points="668,427.3 662.5,424.2 662.5,424.2 668,427.3 668,427.3 			"/>
			<polyline fill="#FEF4F2" points="668,427.3 662.5,424.2 662.5,424.2 668,427.3 668,427.3 			"/>
			<polyline fill="#FEF4F2" points="668,427.3 662.5,424.2 662.5,424.2 668,427.3 668,427.3 			"/>
			<polyline fill="#FEF4F2" points="668,427.3 662.5,424.2 662.5,424.2 668,427.3 668,427.3 			"/>
			<polyline fill="#FEF4F2" points="668,427.3 662.5,424.2 662.5,424.2 668,427.3 668,427.3 			"/>
			<polyline fill="#FEF4F2" points="668,427.3 662.5,424.2 662.5,424.2 668,427.3 668,427.3 			"/>
			<polyline fill="#FEF4F2" points="668,427.3 662.5,424.2 662.5,424.2 668,427.3 668,427.3 			"/>
			<polyline fill="#FEF4F2" points="668,427.3 662.5,424.2 662.5,424.2 668,427.3 668,427.3 			"/>
		</g>
	</g>
	<g>
		<path fill="#DD7B6B" d="M668,427.3c3-1.7,3.2-1.8,3.2-1.8l1.2,1.4l2.7-0.8l0,1.3l-10.2,5.9l0-1.7l1.6-1.1
			C667.1,429,668,427.4,668,427.3z"/>
	</g>
	<g>
		<polygon fill="#FEF4F2" points="664.9,433.3 659.4,430.1 659.4,428.4 664.9,431.5 		"/>
	</g>
	<g>
		<polygon fill="#F8B9AA" points="664.9,431.5 659.4,428.4 661,427.2 666.4,430.4 		"/>
	</g>
</g>
<g enable-background="new    ">
	<defs>
		<polygon id="SVGID_26_" enable-background="new    " points="667,430 665.1,429.1 669.5,426.8 669.5,428.6 		"/>
	</defs>
	<clipPath id="SVGID_28_">
		<use xlink:href="#SVGID_26_"  overflow="visible"/>
	</clipPath>
	<g clip-path="url(#SVGID_28_)">
		<polyline fill="#4C4C4C" points="669.5,426.8 668.3,427.5 667.1,429.9 669.5,428.6 669.5,426.8 		"/>
	</g>
</g>
<g enable-background="new    ">
	<defs>
		<polygon id="SVGID_30_" enable-background="new    " points="669.7,428.5 669.7,426.7 671.7,425.5 672.2,427 		"/>
	</defs>
	<clipPath id="SVGID_32_">
		<use xlink:href="#SVGID_30_"  overflow="visible"/>
	</clipPath>
	<g clip-path="url(#SVGID_32_)">
		<polyline fill="#4C4C4C" points="671.1,425.9 669.7,426.7 669.7,428.5 672,427.1 671.1,425.9 		"/>
	</g>
</g>
<polygon fill="#4C4C4C" points="662.7,424.6 661.4,427.1 666.2,429.9 667.5,427.4 "/>
<g enable-background="new    ">
	<defs>
		<polygon id="SVGID_47_" enable-background="new    " points="659.4,429.2 659.4,428.6 660.7,429.4 660.7,430 		"/>
	</defs>
	<clipPath id="SVGID_34_">
		<use xlink:href="#SVGID_47_"  overflow="visible"/>
	</clipPath>
	<g clip-path="url(#SVGID_34_)">
		<polyline fill="#F5967F" points="660.7,429.4 659.4,428.6 659.4,429.2 660.7,430 660.7,429.4 		"/>
	</g>
</g>
<g enable-background="new    ">
	<defs>
		<polygon id="SVGID_49_" enable-background="new    " points="663.6,431.7 663.6,431.1 664.9,431.8 664.9,432.4 		"/>
	</defs>
	<clipPath id="SVGID_36_">
		<use xlink:href="#SVGID_49_"  overflow="visible"/>
	</clipPath>
	<g clip-path="url(#SVGID_36_)">
		<polyline fill="#F5967F" points="664.9,431.8 663.6,431.1 663.6,431.7 664.9,432.4 664.9,431.8 		"/>
	</g>
</g>
<g enable-background="new    ">
	<defs>
		<polygon id="SVGID_51_" enable-background="new    " points="659.4,429.4 659.4,429.2 660.7,430 660.7,430.1 		"/>
	</defs>
	<clipPath id="SVGID_37_">
		<use xlink:href="#SVGID_51_"  overflow="visible"/>
	</clipPath>
	<g clip-path="url(#SVGID_37_)">
		<polyline fill="#FFD07D" points="660.7,430 659.4,429.2 659.4,429.4 660.7,430.1 660.7,430 		"/>
	</g>
</g>
<g enable-background="new    ">
	<defs>
		<polygon id="SVGID_53_" enable-background="new    " points="663.6,431.8 663.6,431.7 664.9,432.4 664.9,432.6 		"/>
	</defs>
	<clipPath id="SVGID_38_">
		<use xlink:href="#SVGID_53_"  overflow="visible"/>
	</clipPath>
	<g clip-path="url(#SVGID_38_)">
		<polyline fill="#FFD07D" points="664.9,432.4 663.6,431.7 663.6,431.8 664.9,432.6 664.9,432.4 		"/>
	</g>
</g>
<g enable-background="new    ">
	<defs>
		<polygon id="SVGID_55_" enable-background="new    " points="328.2,392.7 328.2,390.8 329.8,391.7 329.8,393.6 		"/>
	</defs>
	<clipPath id="SVGID_39_">
		<use xlink:href="#SVGID_55_"  overflow="visible"/>
	</clipPath>
	<g clip-path="url(#SVGID_39_)">
		<path fill="#4C4C4C" d="M329,391.2c-0.5-0.3-0.8,0-0.8,0.5c0,0.5,0.4,1.2,0.8,1.4c0.5,0.3,0.8,0.1,0.8-0.5
			C329.8,392.1,329.4,391.5,329,391.2"/>
	</g>
</g>
<g enable-background="new    ">
	<defs>
		<polygon id="SVGID_65_" enable-background="new    " points="322.4,389.3 322.4,387.4 324,388.3 324,390.2 		"/>
	</defs>
	<clipPath id="SVGID_40_">
		<use xlink:href="#SVGID_65_"  overflow="visible"/>
	</clipPath>
	<g clip-path="url(#SVGID_40_)">
		<path fill="#4C4C4C" d="M323.2,387.9c-0.5-0.3-0.8-0.1-0.8,0.5c0,0.5,0.4,1.2,0.8,1.4c0.5,0.3,0.8,0.1,0.8-0.5
			C324,388.8,323.6,388.1,323.2,387.9"/>
	</g>
</g>
<g enable-background="new    ">
	<g>
		<polygon fill="#FEE2AA" points="323.7,387.1 329.2,383.9 326.5,383.2 321.1,386.3 		"/>
	</g>
	<g>
		<defs>
			<path id="SVGID_41_" d="M328.1,387.5l5.5-3.2c-3-1.7-3.2-1.8-3.2-1.8l-5.5,3.2C325,385.7,325.1,385.8,328.1,387.5z"/>
		</defs>
		<use xlink:href="#SVGID_41_"  overflow="visible" fill="#FEE6B8"/>
		<clipPath id="SVGID_42_">
			<use xlink:href="#SVGID_41_"  overflow="visible"/>
		</clipPath>
		<g clip-path="url(#SVGID_42_)" enable-background="new    ">
			<path fill="#FEE6B8" d="M328.1,387.5l5.5-3.2c-2-1.1-2.7-1.5-3-1.7l-5.5,3.2C325.4,386,326.1,386.4,328.1,387.5"/>
			<path fill="#FEE6B8" d="M325.1,385.8l5.5-3.2c-0.1-0.1-0.1-0.1-0.2-0.1l-5.5,3.2C325,385.7,325,385.7,325.1,385.8"/>
			<polyline fill="#FEE6B8" points="325,385.7 330.4,382.6 330.4,382.5 324.9,385.7 325,385.7 			"/>
		</g>
	</g>
	<g>
		<defs>
			<path id="SVGID_43_" d="M329.7,390.6l5.5-3.2c-0.7-1.4-1.6-3-1.6-3.1l-5.5,3.2C328.1,387.5,329,389.2,329.7,390.6z"/>
		</defs>
		<use xlink:href="#SVGID_43_"  overflow="visible" fill="#FFD07D"/>
		<clipPath id="SVGID_44_">
			<use xlink:href="#SVGID_43_"  overflow="visible"/>
		</clipPath>
		<g clip-path="url(#SVGID_44_)" enable-background="new    ">
			<path fill="#FFD07D" d="M329.7,390.6l5.5-3.2c-0.6-1.3-1.4-2.8-1.5-3l-5.5,3.2C328.3,387.8,329.1,389.3,329.7,390.6"/>
			<path fill="#FFD07D" d="M328.1,387.5l5.5-3.2c0,0,0,0,0,0L328.1,387.5C328.1,387.5,328.1,387.5,328.1,387.5"/>
			<polyline fill="#FFD07D" points="328.1,387.5 333.6,384.3 333.6,384.3 328.1,387.5 328.1,387.5 			"/>
			<polyline fill="#FFD07D" points="328.1,387.5 333.6,384.3 333.6,384.3 328.1,387.5 328.1,387.5 			"/>
			<polyline fill="#FFD07D" points="328.1,387.5 333.6,384.3 333.6,384.3 328.1,387.5 328.1,387.5 			"/>
			<polyline fill="#FFD07D" points="328.1,387.5 333.6,384.3 333.6,384.3 328.1,387.5 328.1,387.5 			"/>
			<polyline fill="#FFD07D" points="328.1,387.5 333.6,384.3 333.6,384.3 328.1,387.5 328.1,387.5 			"/>
			<polyline fill="#FFD07D" points="328.1,387.5 333.6,384.3 333.6,384.3 328.1,387.5 328.1,387.5 			"/>
			<polyline fill="#FFD07D" points="328.1,387.5 333.6,384.3 333.6,384.3 328.1,387.5 328.1,387.5 			"/>
			<polyline fill="#FFD07D" points="328.1,387.5 333.6,384.3 333.6,384.3 328.1,387.5 328.1,387.5 			"/>
			<polyline fill="#FFD07D" points="328.1,387.5 333.6,384.3 333.6,384.3 328.1,387.5 328.1,387.5 			"/>
			<polyline fill="#FFD07D" points="328.1,387.5 333.6,384.3 333.6,384.3 328.1,387.5 328.1,387.5 			"/>
			<polyline fill="#FFD07D" points="328.1,387.5 333.6,384.3 333.6,384.3 328.1,387.5 328.1,387.5 			"/>
			<polyline fill="#FFD07D" points="328.1,387.5 333.6,384.3 333.6,384.3 328.1,387.5 328.1,387.5 			"/>
			<polyline fill="#FFD07D" points="328.1,387.5 333.6,384.3 333.6,384.3 328.1,387.5 328.1,387.5 			"/>
			<polyline fill="#FFD07D" points="328.1,387.5 333.6,384.3 333.6,384.3 328.1,387.5 328.1,387.5 			"/>
		</g>
	</g>
	<g>
		<path fill="#FFF7E9" d="M328.1,387.5c-3-1.7-3.2-1.8-3.2-1.8l-1.2,1.4l-2.7-0.8l0,1.3l10.2,5.9l0-1.7l-1.6-1.1
			C329,389.2,328.1,387.5,328.1,387.5z"/>
	</g>
	<g>
		<polygon fill="#FFD07D" points="331.2,393.4 336.7,390.3 336.7,388.5 331.2,391.7 		"/>
	</g>
	<g>
		<polygon fill="#FEE6B8" points="331.2,391.7 336.7,388.5 335.1,387.4 329.7,390.6 		"/>
	</g>
</g>
<g enable-background="new    ">
	<defs>
		<polygon id="SVGID_46_" enable-background="new    " points="329.1,390.2 331,389.2 326.7,387 326.6,388.7 		"/>
	</defs>
	<clipPath id="SVGID_48_">
		<use xlink:href="#SVGID_46_"  overflow="visible"/>
	</clipPath>
	<g clip-path="url(#SVGID_48_)">
		<polyline fill="#4C4C4C" points="326.7,387 327.8,387.7 329,390.1 326.6,388.7 326.7,387 		"/>
	</g>
</g>
<g enable-background="new    ">
	<defs>
		<polygon id="SVGID_50_" enable-background="new    " points="326.4,388.7 326.4,386.9 324.4,385.6 323.9,387.2 		"/>
	</defs>
	<clipPath id="SVGID_52_">
		<use xlink:href="#SVGID_50_"  overflow="visible"/>
	</clipPath>
	<g clip-path="url(#SVGID_52_)">
		<polyline fill="#4C4C4C" points="325.1,386.1 326.4,386.9 326.4,388.7 324.1,387.3 325.1,386.1 		"/>
	</g>
</g>
<polygon fill="#4C4C4C" points="333.4,384.8 334.7,387.3 329.9,390.1 328.6,387.6 "/>
<g enable-background="new    ">
	<defs>
		<polygon id="SVGID_67_" enable-background="new    " points="335.4,390.3 335.4,390.1 336.7,389.4 336.7,389.5 		"/>
	</defs>
	<clipPath id="SVGID_54_">
		<use xlink:href="#SVGID_67_"  overflow="visible"/>
	</clipPath>
	<g clip-path="url(#SVGID_54_)">
		<polyline fill="#FFF7E9" points="336.7,389.4 335.4,390.1 335.4,390.3 336.7,389.5 336.7,389.4 		"/>
	</g>
</g>
<g enable-background="new    ">
	<defs>
		<polygon id="SVGID_69_" enable-background="new    " points="335.4,390.2 335.4,389.5 336.7,388.8 336.7,389.4 		"/>
	</defs>
	<clipPath id="SVGID_56_">
		<use xlink:href="#SVGID_69_"  overflow="visible"/>
	</clipPath>
	<g clip-path="url(#SVGID_56_)">
		<polyline fill="#F29481" points="336.7,388.8 335.4,389.5 335.4,390.2 336.7,389.4 336.7,388.8 		"/>
	</g>
</g>
<g enable-background="new    ">
	<defs>
		<polygon id="SVGID_71_" enable-background="new    " points="331.2,392.6 331.2,392 332.5,391.2 332.5,391.8 		"/>
	</defs>
	<clipPath id="SVGID_57_">
		<use xlink:href="#SVGID_71_"  overflow="visible"/>
	</clipPath>
	<g clip-path="url(#SVGID_57_)">
		<polyline fill="#F29481" points="332.5,391.2 331.2,392 331.2,392.6 332.5,391.8 332.5,391.2 		"/>
	</g>
</g>
<g enable-background="new    ">
	<defs>
		<polygon id="SVGID_73_" enable-background="new    " points="331.2,392.7 331.2,392.6 332.5,391.8 332.5,392 		"/>
	</defs>
	<clipPath id="SVGID_58_">
		<use xlink:href="#SVGID_73_"  overflow="visible"/>
	</clipPath>
	<g clip-path="url(#SVGID_58_)">
		<polyline fill="#FFF7E9" points="332.5,391.8 331.2,392.6 331.2,392.7 332.5,392 332.5,391.8 		"/>
	</g>
</g>
<g enable-background="new    ">
	<defs>
		<polygon id="SVGID_75_" enable-background="new    " points="932.8,278.8 932.8,276.9 934.5,276 934.5,277.9 		"/>
	</defs>
	<clipPath id="SVGID_59_">
		<use xlink:href="#SVGID_75_"  overflow="visible"/>
	</clipPath>
	<g clip-path="url(#SVGID_59_)">
		<path fill="#4C4C4C" d="M933.6,276.5c-0.5,0.3-0.8,0.9-0.8,1.4c0,0.5,0.4,0.7,0.8,0.5c0.5-0.3,0.8-0.9,0.8-1.4
			C934.5,276.4,934.1,276.2,933.6,276.5"/>
	</g>
</g>
<g enable-background="new    ">
	<defs>
		<polygon id="SVGID_85_" enable-background="new    " points="938.6,275.4 938.6,273.5 940.2,272.6 940.3,274.5 		"/>
	</defs>
	<clipPath id="SVGID_60_">
		<use xlink:href="#SVGID_85_"  overflow="visible"/>
	</clipPath>
	<g clip-path="url(#SVGID_60_)">
		<path fill="#4C4C4C" d="M939.4,273.1c-0.5,0.3-0.8,0.9-0.8,1.4c0,0.5,0.4,0.7,0.8,0.5c0.5-0.3,0.8-0.9,0.8-1.4
			C940.3,273,939.9,272.8,939.4,273.1"/>
	</g>
</g>
<g enable-background="new    ">
	<g>
		<polygon fill="#C8E5EE" points="938.9,272.3 933.4,269.2 936.1,268.4 941.5,271.5 		"/>
	</g>
	<g>
		<defs>
			<path id="SVGID_61_" d="M934.5,272.7l-5.5-3.2c3-1.7,3.2-1.8,3.2-1.8l5.5,3.2C937.7,270.9,937.5,271,934.5,272.7z"/>
		</defs>
		<use xlink:href="#SVGID_61_"  overflow="visible" fill="#C8E5EE"/>
		<clipPath id="SVGID_62_">
			<use xlink:href="#SVGID_61_"  overflow="visible"/>
		</clipPath>
		<g clip-path="url(#SVGID_62_)" enable-background="new    ">
			<path fill="#C8E5EE" d="M934.5,272.7l-5.5-3.2c2-1.1,2.7-1.5,3-1.7l5.5,3.2C937.2,271.2,936.5,271.6,934.5,272.7"/>
			<path fill="#C8E5EE" d="M937.5,271l-5.5-3.2c0.1-0.1,0.1-0.1,0.2-0.1l5.5,3.2C937.6,270.9,937.6,270.9,937.5,271"/>
			<polyline fill="#C8E5EE" points="937.7,270.9 932.2,267.8 932.2,267.8 937.7,270.9 937.7,270.9 			"/>
		</g>
	</g>
	<g>
		<defs>
			<path id="SVGID_63_" d="M932.9,275.8l-5.5-3.2c0.7-1.4,1.6-3,1.6-3.1l5.5,3.2C934.5,272.8,933.6,274.4,932.9,275.8z"/>
		</defs>
		<use xlink:href="#SVGID_63_"  overflow="visible" fill="#F6FBFC"/>
		<clipPath id="SVGID_64_">
			<use xlink:href="#SVGID_63_"  overflow="visible"/>
		</clipPath>
		<g clip-path="url(#SVGID_64_)" enable-background="new    ">
			<path fill="#F6FBFC" d="M932.9,275.8l-5.5-3.2c0.6-1.3,1.4-2.8,1.5-3l5.5,3.2C934.4,273,933.5,274.5,932.9,275.8"/>
			<path fill="#F6FBFC" d="M934.5,272.7l-5.5-3.2c0,0,0,0,0,0L934.5,272.7C934.5,272.7,934.5,272.7,934.5,272.7"/>
			<polyline fill="#F6FBFC" points="934.5,272.7 929,269.6 929,269.6 934.5,272.7 934.5,272.7 			"/>
			<polyline fill="#F6FBFC" points="934.5,272.7 929,269.6 929,269.6 934.5,272.7 934.5,272.7 			"/>
			<polyline fill="#F6FBFC" points="934.5,272.7 929,269.6 929,269.6 934.5,272.7 934.5,272.7 			"/>
			<polyline fill="#F6FBFC" points="934.5,272.7 929,269.6 929,269.5 934.5,272.7 934.5,272.7 			"/>
			<polyline fill="#F6FBFC" points="934.5,272.7 929,269.5 929,269.5 934.5,272.7 934.5,272.7 			"/>
			<polyline fill="#F6FBFC" points="934.5,272.7 929,269.5 929,269.5 934.5,272.7 934.5,272.7 			"/>
			<polyline fill="#F6FBFC" points="934.5,272.7 929,269.5 929,269.5 934.5,272.7 934.5,272.7 			"/>
			<polyline fill="#F6FBFC" points="934.5,272.7 929,269.5 929,269.5 934.5,272.7 934.5,272.7 			"/>
			<polyline fill="#F6FBFC" points="934.5,272.7 929,269.5 929,269.5 934.5,272.7 934.5,272.7 			"/>
			<polyline fill="#F6FBFC" points="934.5,272.7 929,269.5 929,269.5 934.5,272.7 934.5,272.7 			"/>
			<polyline fill="#F6FBFC" points="934.5,272.7 929,269.5 929,269.5 934.5,272.7 934.5,272.7 			"/>
			<polyline fill="#F6FBFC" points="934.5,272.7 929,269.5 929,269.5 934.5,272.7 934.5,272.7 			"/>
			<polyline fill="#F6FBFC" points="934.5,272.7 929,269.5 929,269.5 934.5,272.7 934.5,272.7 			"/>
			<polyline fill="#F6FBFC" points="934.5,272.7 929,269.5 929,269.5 934.5,272.7 934.5,272.7 			"/>
		</g>
	</g>
	<g>
		<path fill="#8FC5D1" d="M934.5,272.7c3-1.7,3.2-1.8,3.2-1.8l1.2,1.4l2.7-0.8l0,1.3l-10.2,5.9l0-1.7l1.6-1.1
			C933.6,274.4,934.5,272.8,934.5,272.7z"/>
	</g>
	<g>
		<polygon fill="#F6FBFC" points="931.4,278.6 925.9,275.5 925.9,273.7 931.4,276.9 		"/>
	</g>
	<g>
		<polygon fill="#C8E5EE" points="931.4,276.9 925.9,273.7 927.5,272.6 932.9,275.8 		"/>
	</g>
</g>
<g enable-background="new    ">
	<defs>
		<polygon id="SVGID_66_" enable-background="new    " points="933.5,275.4 931.6,274.4 936,272.2 936,274 		"/>
	</defs>
	<clipPath id="SVGID_68_">
		<use xlink:href="#SVGID_66_"  overflow="visible"/>
	</clipPath>
	<g clip-path="url(#SVGID_68_)">
		<polyline fill="#4C4C4C" points="936,272.2 934.8,272.9 933.6,275.3 936,274 936,272.2 		"/>
	</g>
</g>
<g enable-background="new    ">
	<defs>
		<polygon id="SVGID_70_" enable-background="new    " points="936.2,273.9 936.2,272.1 938.2,270.8 938.7,272.4 		"/>
	</defs>
	<clipPath id="SVGID_72_">
		<use xlink:href="#SVGID_70_"  overflow="visible"/>
	</clipPath>
	<g clip-path="url(#SVGID_72_)">
		<polyline fill="#4C4C4C" points="937.6,271.3 936.2,272.1 936.2,273.9 938.5,272.5 937.6,271.3 		"/>
	</g>
</g>
<polygon fill="#4C4C4C" points="929.2,270 927.9,272.5 932.7,275.3 934,272.8 "/>
<g enable-background="new    ">
	<defs>
		<polygon id="SVGID_87_" enable-background="new    " points="925.9,274.6 925.9,274 927.2,274.8 927.2,275.4 		"/>
	</defs>
	<clipPath id="SVGID_74_">
		<use xlink:href="#SVGID_87_"  overflow="visible"/>
	</clipPath>
	<g clip-path="url(#SVGID_74_)">
		<polyline fill="#F5967F" points="927.2,274.8 925.9,274 925.9,274.6 927.2,275.4 927.2,274.8 		"/>
	</g>
</g>
<g enable-background="new    ">
	<defs>
		<polygon id="SVGID_89_" enable-background="new    " points="930.1,277 930.1,276.4 931.4,277.2 931.4,277.8 		"/>
	</defs>
	<clipPath id="SVGID_76_">
		<use xlink:href="#SVGID_89_"  overflow="visible"/>
	</clipPath>
	<g clip-path="url(#SVGID_76_)">
		<polyline fill="#F5967F" points="931.4,277.2 930.1,276.4 930.1,277 931.4,277.8 931.4,277.2 		"/>
	</g>
</g>
<g enable-background="new    ">
	<defs>
		<polygon id="SVGID_91_" enable-background="new    " points="925.9,274.8 925.9,274.6 927.2,275.4 927.2,275.5 		"/>
	</defs>
	<clipPath id="SVGID_77_">
		<use xlink:href="#SVGID_91_"  overflow="visible"/>
	</clipPath>
	<g clip-path="url(#SVGID_77_)">
		<polyline fill="#FFD07D" points="927.2,275.4 925.9,274.6 925.9,274.8 927.2,275.5 927.2,275.4 		"/>
	</g>
</g>
<g enable-background="new    ">
	<defs>
		<polygon id="SVGID_93_" enable-background="new    " points="930.1,277.2 930.1,277 931.4,277.8 931.4,277.9 		"/>
	</defs>
	<clipPath id="SVGID_78_">
		<use xlink:href="#SVGID_93_"  overflow="visible"/>
	</clipPath>
	<g clip-path="url(#SVGID_78_)">
		<polyline fill="#FFD07D" points="931.4,277.8 930.1,277 930.1,277.2 931.4,277.9 931.4,277.8 		"/>
	</g>
</g>
<g>
	<g enable-background="new    ">
		<defs>
			<polygon id="SVGID_95_" enable-background="new    " points="572.7,312.9 572.7,311 574.4,311.9 574.3,313.8 			"/>
		</defs>
		<clipPath id="SVGID_79_">
			<use xlink:href="#SVGID_95_"  overflow="visible"/>
		</clipPath>
		<g clip-path="url(#SVGID_79_)">
			<path fill="#4C4C4C" d="M573.5,311.4c-0.5-0.3-0.8,0-0.8,0.5c0,0.5,0.4,1.2,0.8,1.4c0.5,0.3,0.8,0.1,0.8-0.5
				C574.3,312.3,574,311.7,573.5,311.4"/>
		</g>
	</g>
	<g enable-background="new    ">
		<defs>
			<polygon id="SVGID_105_" enable-background="new    " points="566.9,309.5 566.9,307.6 568.6,308.5 568.5,310.4 			"/>
		</defs>
		<clipPath id="SVGID_80_">
			<use xlink:href="#SVGID_105_"  overflow="visible"/>
		</clipPath>
		<g clip-path="url(#SVGID_80_)">
			<path fill="#4C4C4C" d="M567.7,308c-0.5-0.3-0.8-0.1-0.8,0.5c0,0.5,0.4,1.2,0.8,1.4c0.5,0.3,0.8,0.1,0.8-0.5
				C568.6,309,568.2,308.3,567.7,308"/>
		</g>
	</g>
	<g enable-background="new    ">
		<g>
			<polygon fill="#F8B9AA" points="568.3,307.3 573.7,304.1 571.1,303.3 565.6,306.5 			"/>
		</g>
		<g>
			<defs>
				<path id="SVGID_81_" d="M572.7,307.7l5.5-3.2c-3-1.7-3.2-1.8-3.2-1.8l-5.5,3.2C569.5,305.9,569.6,306,572.7,307.7z"/>
			</defs>
			<use xlink:href="#SVGID_81_"  overflow="visible" fill="#F8B9AA"/>
			<clipPath id="SVGID_82_">
				<use xlink:href="#SVGID_81_"  overflow="visible"/>
			</clipPath>
			<g clip-path="url(#SVGID_82_)" enable-background="new    ">
				<path fill="#F8B9AA" d="M572.7,307.7l5.5-3.2c-2-1.1-2.7-1.5-3-1.7l-5.5,3.2C569.9,306.1,570.7,306.6,572.7,307.7"/>
				<path fill="#F8B9AA" d="M569.7,306l5.5-3.2c-0.1-0.1-0.1-0.1-0.2-0.1l-5.5,3.2C569.5,305.9,569.5,305.9,569.7,306"/>
				<polyline fill="#F8B9AA" points="569.5,305.9 574.9,302.7 574.9,302.7 569.5,305.9 569.5,305.9 				"/>
			</g>
		</g>
		<g>
			<defs>
				<path id="SVGID_83_" d="M574.2,310.8l5.5-3.2c-0.7-1.4-1.6-3-1.6-3.1l-5.5,3.2C572.7,307.7,573.6,309.4,574.2,310.8z"/>
			</defs>
			<use xlink:href="#SVGID_83_"  overflow="visible" fill="#DD7B6B"/>
			<clipPath id="SVGID_84_">
				<use xlink:href="#SVGID_83_"  overflow="visible"/>
			</clipPath>
			<g clip-path="url(#SVGID_84_)" enable-background="new    ">
				<path fill="#DD7B6B" d="M574.2,310.8l5.5-3.2c-0.6-1.3-1.4-2.8-1.5-3l-5.5,3.2C572.8,308,573.6,309.5,574.2,310.8"/>
				<path fill="#DD7B6B" d="M572.7,307.7l5.5-3.2c0,0,0,0,0,0L572.7,307.7C572.7,307.7,572.7,307.7,572.7,307.7"/>
				<polyline fill="#DD7B6B" points="572.7,307.7 578.1,304.5 578.1,304.5 572.7,307.7 572.7,307.7 				"/>
				<polyline fill="#DD7B6B" points="572.7,307.7 578.1,304.5 578.1,304.5 572.7,307.7 572.7,307.7 				"/>
				<polyline fill="#DD7B6B" points="572.7,307.7 578.1,304.5 578.1,304.5 572.7,307.7 572.7,307.7 				"/>
				<polyline fill="#DD7B6B" points="572.7,307.7 578.1,304.5 578.1,304.5 572.7,307.7 572.7,307.7 				"/>
				<polyline fill="#DD7B6B" points="572.7,307.7 578.1,304.5 578.1,304.5 572.7,307.7 572.7,307.7 				"/>
				<polyline fill="#DD7B6B" points="572.7,307.7 578.1,304.5 578.1,304.5 572.7,307.7 572.7,307.7 				"/>
				<polyline fill="#DD7B6B" points="572.7,307.7 578.1,304.5 578.1,304.5 572.7,307.7 572.7,307.7 				"/>
				<polyline fill="#DD7B6B" points="572.7,307.7 578.1,304.5 578.1,304.5 572.7,307.7 572.7,307.7 				"/>
				<polyline fill="#DD7B6B" points="572.7,307.7 578.1,304.5 578.1,304.5 572.7,307.7 572.7,307.7 				"/>
				<polyline fill="#DD7B6B" points="572.7,307.7 578.1,304.5 578.1,304.5 572.7,307.7 572.7,307.7 				"/>
				<polyline fill="#DD7B6B" points="572.7,307.7 578.1,304.5 578.1,304.5 572.7,307.7 572.7,307.7 				"/>
				<polyline fill="#DD7B6B" points="572.7,307.7 578.1,304.5 578.1,304.5 572.7,307.7 572.7,307.7 				"/>
				<polyline fill="#DD7B6B" points="572.7,307.7 578.1,304.5 578.1,304.5 572.7,307.7 572.7,307.7 				"/>
				<polyline fill="#DD7B6B" points="572.7,307.7 578.1,304.5 578.1,304.5 572.7,307.7 572.7,307.7 				"/>
			</g>
		</g>
		<g>
			<path fill="#FEF4F2" d="M572.7,307.7c-3-1.7-3.2-1.8-3.2-1.8l-1.2,1.4l-2.7-0.8l0,1.3l10.2,5.9l0-1.7l-1.6-1.1
				C573.6,309.4,572.7,307.7,572.7,307.7z"/>
		</g>
		<g>
			<polygon fill="#DD7B6B" points="575.8,313.6 581.2,310.5 581.2,308.7 575.8,311.9 			"/>
		</g>
		<g>
			<polygon fill="#F8B9AA" points="575.8,311.9 581.2,308.7 579.7,307.6 574.2,310.8 			"/>
		</g>
	</g>
	<g enable-background="new    ">
		<defs>
			<polygon id="SVGID_86_" enable-background="new    " points="573.6,310.4 575.6,309.4 571.2,307.2 571.2,308.9 			"/>
		</defs>
		<clipPath id="SVGID_88_">
			<use xlink:href="#SVGID_86_"  overflow="visible"/>
		</clipPath>
		<g clip-path="url(#SVGID_88_)">
			<polyline fill="#4C4C4C" points="571.2,307.2 572.3,307.9 573.5,310.3 571.2,308.9 571.2,307.2 			"/>
		</g>
	</g>
	<g enable-background="new    ">
		<defs>
			<polygon id="SVGID_90_" enable-background="new    " points="571,308.8 571,307.1 568.9,305.8 568.4,307.4 			"/>
		</defs>
		<clipPath id="SVGID_92_">
			<use xlink:href="#SVGID_90_"  overflow="visible"/>
		</clipPath>
		<g clip-path="url(#SVGID_92_)">
			<polyline fill="#4C4C4C" points="569.6,306.3 571,307.1 571,308.8 568.6,307.5 569.6,306.3 			"/>
		</g>
	</g>
	<polygon fill="#4C4C4C" points="577.9,305 579.2,307.5 574.4,310.3 573.1,307.8 	"/>
	<g enable-background="new    ">
		<defs>
			<polygon id="SVGID_107_" enable-background="new    " points="579.9,310.3 579.9,309.7 581.2,309 581.2,309.6 			"/>
		</defs>
		<clipPath id="SVGID_94_">
			<use xlink:href="#SVGID_107_"  overflow="visible"/>
		</clipPath>
		<g clip-path="url(#SVGID_94_)">
			<polyline fill="#FFD07D" points="581.2,309 579.9,309.7 579.9,310.3 581.2,309.6 581.2,309 			"/>
		</g>
	</g>
	<g enable-background="new    ">
		<defs>
			<polygon id="SVGID_109_" enable-background="new    " points="575.8,312.8 575.8,312.2 577.1,311.4 577.1,312 			"/>
		</defs>
		<clipPath id="SVGID_96_">
			<use xlink:href="#SVGID_109_"  overflow="visible"/>
		</clipPath>
		<g clip-path="url(#SVGID_96_)">
			<polyline fill="#FFD07D" points="577.1,311.4 575.8,312.2 575.8,312.8 577.1,312 577.1,311.4 			"/>
		</g>
	</g>
	<g enable-background="new    ">
		<defs>
			<polygon id="SVGID_111_" enable-background="new    " points="579.9,310.5 579.9,310.3 581.2,309.6 581.2,309.7 			"/>
		</defs>
		<clipPath id="SVGID_97_">
			<use xlink:href="#SVGID_111_"  overflow="visible"/>
		</clipPath>
		<g clip-path="url(#SVGID_97_)">
			<polyline fill="#F8B9AA" points="581.2,309.6 579.9,310.3 579.9,310.5 581.2,309.7 581.2,309.6 			"/>
		</g>
	</g>
	<g enable-background="new    ">
		<defs>
			<polygon id="SVGID_113_" enable-background="new    " points="575.8,312.9 575.8,312.8 577.1,312 577.1,312.2 			"/>
		</defs>
		<clipPath id="SVGID_98_">
			<use xlink:href="#SVGID_113_"  overflow="visible"/>
		</clipPath>
		<g clip-path="url(#SVGID_98_)">
			<polyline fill="#F8B9AA" points="577.1,312 575.8,312.8 575.8,312.9 577.1,312.2 577.1,312 			"/>
		</g>
	</g>
</g>
<g enable-background="new    ">
	<defs>
		<polygon id="SVGID_135_" enable-background="new    " points="506,274.9 506,270.8 509.6,272.9 509.6,277 		"/>
	</defs>
	<clipPath id="SVGID_99_">
		<use xlink:href="#SVGID_135_"  overflow="visible"/>
	</clipPath>
	<g clip-path="url(#SVGID_99_)">
		<path fill="#2A2A2A" d="M507.8,271.8c-1-0.6-1.8-0.1-1.8,1c0,1.1,0.8,2.5,1.8,3.1c1,0.6,1.8,0.1,1.8-1
			C509.6,273.8,508.8,272.4,507.8,271.8"/>
	</g>
</g>
<g enable-background="new    ">
	<defs>
		<polygon id="SVGID_137_" enable-background="new    " points="494.9,268.5 494.9,264.4 498.5,266.5 498.4,270.6 		"/>
	</defs>
	<clipPath id="SVGID_100_">
		<use xlink:href="#SVGID_137_"  overflow="visible"/>
	</clipPath>
	<g clip-path="url(#SVGID_100_)">
		<path fill="#2A2A2A" d="M496.7,265.4c-1-0.6-1.8-0.1-1.8,1c0,1.1,0.8,2.5,1.8,3.1c1,0.6,1.8,0.1,1.8-1
			C498.5,267.4,497.7,266,496.7,265.4"/>
	</g>
</g>
<g enable-background="new    ">
	<g>
		<polygon fill="#2A2A2A" points="493.5,262.3 500.5,258.2 503.4,259.9 496.5,264 		"/>
	</g>
	<g>
		<polygon fill="#4C4C4C" points="499.8,263.4 499.8,269.2 493.5,265.6 493.5,262.3 496.5,264 497.9,262.4 		"/>
	</g>
	<g>
		<polygon fill="#1B1B1B" points="499.8,263.4 506.7,259.4 506.7,265.2 499.8,269.2 		"/>
	</g>
	<g>
		<polygon fill="#2A2A2A" points="497.9,262.4 504.9,258.3 506.7,259.4 499.8,263.4 		"/>
	</g>
</g>
<g enable-background="new    ">
	<g>
		<polygon fill="#F2F2F2" points="518.2,264 511.4,268 499.8,261.3 506.6,257.3 		"/>
	</g>
	<g>
		<polygon fill="#E9E9E9" points="518.2,264 518.2,272.1 511.4,276 511.4,268 		"/>
	</g>
	<g>
		<polygon fill="#F9F9F9" points="511.4,268 511.4,276 499.8,269.3 499.8,261.3 		"/>
	</g>
</g>
<polygon fill="#F9F9F9" points="497.1,264.2 498,263.2 499.1,263.9 499.1,265.3 "/>
<polygon fill="#F9F9F9" points="493.5,262.7 494.4,263.2 494.4,263.6 493.5,263.1 "/>
<g enable-background="new    ">
	<defs>
		<polygon id="SVGID_139_" enable-background="new    " points="784.5,655.7 784.6,651.6 788.1,653.6 788.1,657.7 		"/>
	</defs>
	<clipPath id="SVGID_101_">
		<use xlink:href="#SVGID_139_"  overflow="visible"/>
	</clipPath>
	<g clip-path="url(#SVGID_101_)">
		<path fill="#2A2A2A" d="M786.4,652.6c-1-0.6-1.8-0.1-1.8,1c0,1.1,0.8,2.5,1.8,3.1c1,0.6,1.8,0.1,1.8-1
			C788.1,654.6,787.3,653.2,786.4,652.6"/>
	</g>
</g>
<g enable-background="new    ">
	<defs>
		<polygon id="SVGID_377_" enable-background="new    " points="773.4,649.3 773.4,645.2 777,647.2 777,651.3 		"/>
	</defs>
	<clipPath id="SVGID_102_">
		<use xlink:href="#SVGID_377_"  overflow="visible"/>
	</clipPath>
	<g clip-path="url(#SVGID_102_)">
		<path fill="#2A2A2A" d="M775.2,646.2c-1-0.6-1.8-0.1-1.8,1c0,1.1,0.8,2.5,1.8,3.1c1,0.6,1.8,0.1,1.8-1
			C777,648.2,776.2,646.8,775.2,646.2"/>
	</g>
</g>
<g enable-background="new    ">
	<g>
		<polygon fill="#2A2A2A" points="772.1,643 779,639 782,640.7 775.1,644.7 		"/>
	</g>
	<g>
		<polygon fill="#4C4C4C" points="778.3,644.2 778.3,650 772.1,646.4 772.1,643 775.1,644.7 776.5,643.1 		"/>
	</g>
	<g>
		<polygon fill="#1B1B1B" points="778.3,644.2 785.3,640.2 785.2,646 778.3,650 		"/>
	</g>
	<g>
		<polygon fill="#2A2A2A" points="776.5,643.1 783.4,639.1 785.3,640.2 778.3,644.2 		"/>
	</g>
</g>
<g enable-background="new    ">
	<g>
		<polygon fill="#F2F2F2" points="796.8,644.8 790,648.7 778.4,642 785.1,638.1 		"/>
	</g>
	<g>
		<polygon fill="#E9E9E9" points="796.8,644.8 796.8,652.8 790,656.7 790,648.7 		"/>
	</g>
	<g>
		<polygon fill="#F9F9F9" points="790,648.7 790,656.7 778.3,650 778.4,642 		"/>
	</g>
</g>
<polygon fill="#F9F9F9" points="775.7,645 776.5,644 777.6,644.6 777.6,646.1 "/>
<polygon fill="#F9F9F9" points="772.1,643.4 772.9,643.9 772.9,644.3 772.1,643.8 "/>
<g>
	<g>
		<g enable-background="new    ">
			<defs>
				<polygon id="SVGID_103_" enable-background="new    " points="782.5,354.9 782.5,352.9 784.3,351.9 784.3,353.9 				"/>
			</defs>
			<clipPath id="SVGID_104_">
				<use xlink:href="#SVGID_103_"  overflow="visible"/>
			</clipPath>
			<g clip-path="url(#SVGID_104_)">
				<path fill="#4C4C4C" d="M783.4,352.4c-0.5,0.3-0.9,0.9-0.9,1.5c0,0.5,0.4,0.8,0.9,0.5c0.5-0.3,0.9-0.9,0.9-1.5
					C784.3,352.4,783.9,352.1,783.4,352.4"/>
			</g>
		</g>
	</g>
	<g>
		<g enable-background="new    ">
			<defs>
				<polygon id="SVGID_106_" enable-background="new    " points="789.1,350.9 789.1,348.9 790.8,347.9 790.8,349.9 				"/>
			</defs>
			<clipPath id="SVGID_108_">
				<use xlink:href="#SVGID_106_"  overflow="visible"/>
			</clipPath>
			<g clip-path="url(#SVGID_108_)">
				<path fill="#4C4C4C" d="M789.9,348.4c-0.5,0.3-0.9,0.9-0.9,1.5c0,0.5,0.4,0.8,0.9,0.5c0.5-0.3,0.9-0.9,0.9-1.5
					C790.8,348.4,790.4,348.2,789.9,348.4"/>
			</g>
		</g>
	</g>
	<g>
		<g enable-background="new    ">
			<g>
				<polygon fill="#FEE6B6" points="790,347.5 784.5,344.3 786.1,343.7 791.5,346.8 				"/>
			</g>
			<g>
				<polygon fill="#FCFBFA" points="784,350.9 778.5,347.7 779.7,344.9 785.2,348.1 				"/>
			</g>
			<g enable-background="new    ">
				<defs>
					<path id="SVGID_110_" enable-background="new    " d="M785.2,348.1l-5.5-3.2c0,0,0.1-0.1,3.2-1.9l5.5,3.2
						C785.3,348,785.2,348.1,785.2,348.1z"/>
				</defs>
				<clipPath id="SVGID_112_">
					<use xlink:href="#SVGID_110_"  overflow="visible"/>
				</clipPath>
				<g clip-path="url(#SVGID_112_)" enable-background="new    ">
					<polyline fill="#FEE9C1" points="785.2,348.1 779.7,344.9 779.8,344.9 785.2,348.1 785.2,348.1 					"/>
					<path fill="#FEE8BC" d="M785.2,348.1l-5.5-3.2c0,0,0.1,0,0.3-0.2l5.5,3.2C785.3,348.1,785.2,348.1,785.2,348.1"/>
					<path fill="#FEE6B8" d="M785.5,347.9l-5.5-3.2c0.3-0.2,1.1-0.7,2.9-1.7l5.5,3.2C786.6,347.3,785.8,347.7,785.5,347.9"/>
				</g>
			</g>
			<g>
				<path fill="#FFDA90" d="M788.4,346.2c0,0,0.9,0.6,1.6,1.3l1.6-0.7l0,1.7l-10.2,5.9l0-1.3l2.7-2.3l1.2-2.8
					C785.2,348.1,785.3,348,788.4,346.2z"/>
			</g>
			<g>
				<polygon fill="#FDF3DE" points="781.4,354.4 775.9,351.3 775.9,350 781.3,353.2 				"/>
			</g>
			<g>
				<polygon fill="#FDF2DB" points="781.3,353.2 775.9,350 778.5,347.7 784,350.9 				"/>
			</g>
		</g>
	</g>
	<g>
		<g enable-background="new    ">
			<defs>
				<polygon id="SVGID_114_" enable-background="new    " points="784.6,350.7 782.7,349.8 786.9,347.7 786.9,349.3 				"/>
			</defs>
			<clipPath id="SVGID_115_">
				<use xlink:href="#SVGID_114_"  overflow="visible"/>
			</clipPath>
			<g clip-path="url(#SVGID_115_)">
				<polyline fill="#4C4C4C" points="786.9,347.7 785.6,348.4 784.7,350.6 786.9,349.3 786.9,347.7 				"/>
			</g>
		</g>
	</g>
	<g>
		<g enable-background="new    ">
			<defs>
				<polygon id="SVGID_116_" enable-background="new    " points="787.1,349.2 787.1,347.6 789.1,346.4 789.6,347.8 				"/>
			</defs>
			<clipPath id="SVGID_117_">
				<use xlink:href="#SVGID_116_"  overflow="visible"/>
			</clipPath>
			<g clip-path="url(#SVGID_117_)">
				<polyline fill="#4C4C4C" points="788.4,346.8 787.1,347.6 787.1,349.2 789.6,347.8 788.4,346.8 				"/>
			</g>
		</g>
	</g>
	<polygon fill="#4C4C4C" points="779.9,345.4 778.9,347.6 783.8,350.4 784.8,348.2 	"/>
	<g>
		<g enable-background="new    ">
			<defs>
				<polygon id="SVGID_118_" enable-background="new    " points="775.9,350.7 775.9,350.1 777.2,350.8 777.2,351.5 				"/>
			</defs>
			<clipPath id="SVGID_119_">
				<use xlink:href="#SVGID_118_"  overflow="visible"/>
			</clipPath>
			<g clip-path="url(#SVGID_119_)">
				<polyline fill="#F5967F" points="777.2,350.8 775.9,350.1 775.9,350.7 777.2,351.5 777.2,350.8 				"/>
			</g>
		</g>
	</g>
	<g>
		<g enable-background="new    ">
			<defs>
				<polygon id="SVGID_120_" enable-background="new    " points="780,353.1 780,352.5 781.4,353.3 781.4,353.9 				"/>
			</defs>
			<clipPath id="SVGID_121_">
				<use xlink:href="#SVGID_120_"  overflow="visible"/>
			</clipPath>
			<g clip-path="url(#SVGID_121_)">
				<polyline fill="#F5967F" points="781.4,353.3 780,352.5 780,353.1 781.4,353.9 781.4,353.3 				"/>
			</g>
		</g>
	</g>
</g>
</svg>
