<svg xmlns="http://www.w3.org/2000/svg" x="0px" y="0px" xmlns:xlink="http://www.w3.org/1999/xlink" viewBox="0 0 1440 875.8">
  <defs>
    <path id="a" d="M22.1 420.3l91.4-53.1 320.7 185.1-91.4 53.1z"/>
  </defs>
  <clipPath id="b">
    <use xlink:href="#a" overflow="visible"/>
  </clipPath>
  <path fill="#0066AE" d="M319.4 486L113.5 367.2l-14.1 8.1 200 115.5-.8 89.1 41.2 23.8 14.1-8.2-35.2-20.3.7-89.2" clip-path="url(#b)"/>
  <path fill="#FFDD8E" d="M97.4 376.2l200.4 114.5-.3 104s0-18.4 0 0C236 559.1 57.8 456.3 8.7 427.9"/>
  <defs>
    <path id="c" d="M21.8 432.6l78.2-45.5 246.9 142.6-78.2 45.5z"/>
  </defs>
  <clipPath id="d">
    <use xlink:href="#c" overflow="visible"/>
  </clipPath>
  <path fill="#FFF2DC" d="M251.4 536.6c-6.5-3.8-11.3-4.8-15.9-5.9-4.6-1-9-2-15.4-5.6-6.3-3.7-8-6.2-9.8-8.9-1.8-2.7-3.6-5.4-10.1-9.1-6.4-3.7-11.2-4.8-15.8-5.8-4.6-1-9-2-15.4-5.6-6.3-3.7-8-6.2-9.8-8.9-1.8-2.7-3.6-5.4-10.1-9.1-6.4-3.7-11.2-4.8-15.8-5.8-4.6-1-9-2-15.4-5.6-6.3-3.7-8-6.2-9.8-8.9-1.8-2.7-3.6-5.4-10.1-9.1-6.5-3.7-11.2-4.8-15.8-5.8-4.6-1-9-2-15.4-5.6-6.3-3.7-8-6.2-9.8-8.9-1.8-2.7-3.6-5.4-10.1-9.1-.3-.2-.7-.2-1 0-.3.2-.3.4 0 .6 6.3 3.7 8 6.2 9.8 8.9 1.8 2.7 3.6 5.4 10.1 9.1 6.4 3.7 11.2 4.8 15.8 5.8 4.6 1 9 2 15.4 5.6 6.3 3.6 8 6.2 9.8 8.9 1.8 2.7 3.6 5.4 10.1 9.1 6.4 3.7 11.2 4.8 15.8 5.8 4.6 1 9 2 15.4 5.6 6.3 3.7 8 6.2 9.8 8.9 1.8 2.7 3.6 5.4 10.1 9.1 6.4 3.7 11.2 4.8 15.8 5.8 4.6 1 9 2 15.3 5.6 6.3 3.7 8 6.2 9.8 8.9 1.8 2.7 3.6 5.4 10.1 9.1 6.5 3.7 11.2 4.8 15.8 5.8 4.6 1 9 2 15.4 5.6 6.3 3.7 8 6.2 9.8 8.9 1.8 2.7 3.6 5.4 10.1 9.1.3.2.7.2 1 0 .3-.2.3-.4 0-.6-6.3-3.7-8-6.2-9.8-8.9-1.6-2.5-3.4-5.3-9.9-9m-3.7 18.6c-6.9-4-12-5.2-16.8-6.3-4.9-1.1-9.5-2.2-16.3-6.1-6.8-3.9-8.6-6.6-10.6-9.4-2-2.8-4-5.7-10.9-9.7-6.9-4-11.9-5.2-16.8-6.3-4.8-1.1-9.5-2.2-16.3-6.1-6.8-3.9-8.6-6.6-10.6-9.4-2-2.8-4-5.7-10.9-9.7-6.9-4-11.9-5.2-16.8-6.3-4.8-1.1-9.5-2.2-16.3-6.1-6.8-3.9-8.6-6.6-10.6-9.4-2-2.8-4-5.7-10.9-9.7-6.9-4-11.9-5.2-16.8-6.3-4.9-1.1-9.5-2.2-16.3-6.1-6.8-3.9-8.6-6.6-10.6-9.4-2-2.8-4-5.7-10.9-9.7-.3-.2-.7-.2-1 0-.3.2-.3.4 0 .6 6.8 3.9 8.6 6.6 10.6 9.4 2 2.8 4 5.7 10.9 9.7 6.9 4 11.9 5.2 16.8 6.3 4.9 1.1 9.5 2.2 16.3 6.1 6.8 3.9 8.6 6.6 10.6 9.4 2 2.8 4 5.7 10.9 9.7 6.9 4 11.9 5.2 16.8 6.3 4.9 1.1 9.5 2.2 16.3 6.1 6.8 3.9 8.6 6.6 10.6 9.4 2 2.8 4 5.7 10.9 9.7 6.9 4 11.9 5.2 16.8 6.3 4.9 1.1 9.5 2.2 16.3 6.1 6.8 3.9 8.6 6.6 10.6 9.4 2 2.8 4 5.7 10.9 9.7 6.9 4 11.9 5.2 16.8 6.3 4.9 1.1 9.5 2.2 16.3 6.1 6.8 3.9 8.6 6.6 10.6 9.4 2 2.8 4 5.7 10.9 9.7.3.2.7.2 1 0 .3-.2.3-.4 0-.6-6.8-3.9-8.6-6.6-10.6-9.4-1.9-2.8-4-5.7-10.9-9.7m7.7-37s-.1 0 0 0c-6.1-3.5-10.6-4.5-14.9-5.4-4.3-.9-8.4-1.8-14.3-5.2-5.9-3.4-7.4-5.8-9.1-8.3-1.6-2.5-3.4-5.1-9.4-8.5-6-3.5-10.5-4.5-14.8-5.4-4.3-.9-8.4-1.8-14.3-5.2-5.9-3.4-7.4-5.8-9.1-8.3-1.6-2.5-3.4-5.1-9.4-8.5-6-3.5-10.5-4.5-14.8-5.4-4.3-.9-8.4-1.8-14.3-5.2-5.9-3.4-7.4-5.8-9.1-8.3-1.6-2.5-3.4-5.1-9.4-8.6s-10.5-4.5-14.8-5.4c-4.3-.9-8.4-1.8-14.3-5.2-5.9-3.4-7.4-5.8-9.1-8.3-1.6-2.5-3.4-5.1-9.4-8.6-.3-.2-.7-.2-1 0-.3.2-.3.4 0 .6 5.9 3.4 7.4 5.8 9.1 8.3 1.6 2.5 3.4 5.1 9.4 8.5 6 3.5 10.5 4.5 14.8 5.4 4.3.9 8.4 1.8 14.3 5.2 5.9 3.4 7.4 5.8 9.1 8.3 1.6 2.5 3.4 5.1 9.4 8.5 6 3.5 10.5 4.5 14.8 5.4 4.3.9 8.4 1.8 14.3 5.2 5.9 3.4 7.4 5.8 9.1 8.3 1.6 2.5 3.4 5.1 9.4 8.6s10.5 4.5 14.8 5.4c4.3.9 8.4 1.8 14.3 5.2 5.9 3.4 7.4 5.8 9.1 8.3 1.6 2.5 3.4 5.1 9.4 8.6s10.5 4.5 14.8 5.4c4.3.9 8.4 1.8 14.3 5.2 5.9 3.4 7.4 5.8 9.1 8.3 1.6 2.5 3.4 5.1 9.4 8.6.3.2.7.2 1 0 .3-.2.3-.4 0-.6-5.9-3.4-7.4-5.8-9.1-8.3-1.6-2.5-3.3-5.1-9.3-8.6m4.2-18.2s-.1 0 0 0c-5.6-3.3-9.8-4.2-13.9-5-4-.9-7.9-1.7-13.3-4.8-5.5-3.2-6.9-5.4-8.4-7.7s-3.1-4.7-8.7-8c-5.6-3.2-9.8-4.2-13.8-5-4-.9-7.9-1.7-13.3-4.8-5.5-3.2-6.9-5.4-8.4-7.7s-3.1-4.7-8.7-8c-5.6-3.2-9.8-4.2-13.8-5-4-.9-7.9-1.7-13.3-4.8-5.5-3.2-6.9-5.4-8.4-7.7s-3.1-4.7-8.7-8c-5.6-3.2-9.8-4.2-13.8-5-4-.9-7.9-1.7-13.3-4.8-5.5-3.2-6.9-5.4-8.4-7.7s-3.1-4.7-8.7-8c-.3-.2-.7-.2-1 0-.3.2-.3.4 0 .6 5.5 3.2 6.9 5.4 8.4 7.7s3.1 4.7 8.7 8c5.6 3.2 9.8 4.2 13.8 5 4 .9 7.9 1.7 13.3 4.8 5.5 3.2 6.9 5.4 8.4 7.7s3.1 4.7 8.7 8c5.6 3.2 9.8 4.2 13.8 5 4 .9 7.9 1.7 13.3 4.8 5.5 3.2 6.9 5.4 8.4 7.7s3.1 4.7 8.7 8c5.6 3.2 9.8 4.2 13.8 5 4 .9 7.9 1.7 13.3 4.8 5.5 3.2 6.9 5.4 8.4 7.7s3.1 4.7 8.7 8c5.6 3.2 9.8 4.2 13.8 5 4 .9 7.8 1.7 13.3 4.8 5.5 3.2 6.9 5.4 8.4 7.7s3.1 4.7 8.7 8c.3.2.7.2 1 0 .3-.2.3-.4 0-.6-5.5-3.2-6.9-5.4-8.4-7.7s-3.1-4.7-8.6-8m2.3-19.4c-.1 0-.1 0 0 0l-.1-.1c-5.1-2.9-9-3.7-12.7-4.4-3.7-.7-7.3-1.4-12.3-4.3-5-2.9-6.2-4.9-7.5-7.1-1.3-2.2-2.6-4.4-7.7-7.4h-.2c-5.1-2.9-9-3.7-12.7-4.4-3.7-.7-7.3-1.4-12.3-4.3-5-2.9-6.2-4.9-7.5-7.1-1.3-2.2-2.6-4.4-7.7-7.4h-.2c-5.1-2.9-9-3.7-12.7-4.4-3.8-.7-7.3-1.4-12.3-4.3-5-2.9-6.2-4.9-7.5-7.1-1.3-2.2-2.6-4.4-7.7-7.4h-.2c-5.1-2.9-9-3.7-12.7-4.4-3.7-.7-7.3-1.4-12.3-4.3-5-2.9-6.2-4.9-7.5-7.1-1.3-2.2-2.6-4.4-7.7-7.4h-.1c-.3-.2-.7-.2-1 0-.3.2-.3.4 0 .6 5 2.9 6.2 4.9 7.5 7.1 1.3 2.2 2.7 4.4 7.7 7.4 5.1 3 9.1 3.7 12.8 4.5 3.8.7 7.3 1.4 12.3 4.3 5 2.9 6.2 4.9 7.5 7.1 1.3 2.2 2.7 4.4 7.7 7.4 5.1 3 9.1 3.7 12.8 4.5 3.7.7 7.3 1.4 12.3 4.3 5 2.9 6.2 4.9 7.5 7.1 1.3 2.2 2.7 4.4 7.7 7.4 5.1 3 9.1 3.7 12.8 4.5 3.7.7 7.3 1.4 12.3 4.3 5 2.9 6.2 4.9 7.5 7.1 1.3 2.2 2.7 4.4 7.7 7.4 5.1 3 9.1 3.7 12.8 4.5 3.8.7 7.3 1.4 12.3 4.3 5 2.9 6.2 4.9 7.5 7.1 1.3 2.2 2.7 4.4 7.7 7.4.3.2.7.2 1 0 .3-.2.3-.4 0-.6-5-2.9-6.2-4.9-7.5-7.1-.9-2.5-2.3-4.8-7.3-7.7" clip-path="url(#d)"/>
  <path fill="#FFCABE" d="M297.5 488.6v3.2l-200-115.5V373"/>
  <path fill="#F5967F" d="M98.9 372.2l200.6 115.9-.1 100.2h-2.1l.2-99.7L97.5 373"/>
  <path fill="#F1526B" d="M297.3435088 591.54162128l.0093106-3.3 2 .0056428-.0093106 3.3z"/>
  <path fill="#FBD3CA" d="M297.3 588.3v3.2l.2-99.7v-3.2"/>
  <path fill="#F7DEDA" d="M101.1 459.4v7.2l-.6-.3V459"/>
  <path fill="#F1526B" d="M101.1 459.4l.6-.4v7.3l-.6.3"/>
  <path fill="#F7A997" d="M100.5 459l.6-.3.6.3-.6.4"/>
  <path fill="#F7DEDA" d="M112.8 453v7.2l-.6-.3v-7.3"/>
  <path fill="#F1526B" d="M112.8 453l.6-.4v7.3l-.6.3"/>
  <path fill="#F7A997" d="M112.2 452.6l.6-.3.6.3-.6.4"/>
  <path fill="#F7DEDA" d="M124.5 446.5l-.1 7.3-.6-.3.1-7.3"/>
  <path fill="#F1526B" d="M124.5 446.5l.6-.3-.1 7.3-.6.3"/>
  <path fill="#F7A997" d="M123.9 446.2l.6-.4.6.4-.6.3"/>
  <path fill="#F7DEDA" d="M136.1 440.1v7.3l-.6-.4v-7.2"/>
  <path fill="#F1526B" d="M136.1 440.1l.6-.3v7.2l-.6.4"/>
  <path fill="#F7A997" d="M135.5 439.8l.6-.4.6.4-.6.3"/>
  <defs>
    <path id="e" d="M83.7 471.5l55.6-32.4 6.3 3.7L90 475.1z"/>
  </defs>
  <clipPath id="f">
    <use xlink:href="#e" overflow="visible"/>
  </clipPath>
  <path fill="#F5967F" d="M145.6 442.8l-6.3-3.7-1.9 1.1 6.4 3.6 1.8-1m-3 1.7l-6.3-3.6-1.8 1 6.3 3.7 1.8-1.1m-3 1.8l-6.3-3.7-1.8 1.1 6.3 3.6 1.8-1m-3 1.7l-6.3-3.7-1.8 1.1 6.3 3.7 1.8-1.1m-2.9 1.7l-6.4-3.6-1.8 1 6.3 3.7 1.9-1.1m-3 1.8l-6.4-3.7-1.8 1.1 6.3 3.6 1.9-1m-3 1.7l-6.3-3.7-1.9 1.1 6.3 3.7 1.9-1.1m-3 1.7l-6.3-3.6-1.9 1.1 6.4 3.6 1.8-1.1m-3 1.8l-6.3-3.7-1.9 1.1 6.4 3.6 1.8-1m-3 1.7l-6.3-3.6-1.9 1 6.4 3.7 1.8-1.1m-3 1.7l-6.3-3.6-1.8 1.1 6.3 3.6 1.8-1.1m-3 1.8l-6.3-3.7-1.8 1.1 6.3 3.7 1.8-1.1m-3 1.7l-6.3-3.6-1.8 1 6.3 3.7 1.8-1.1m-2.9 1.8l-6.4-3.7-1.8 1.1 6.3 3.6 1.9-1m-3 1.7l-6.4-3.7-1.8 1.1 6.3 3.7 1.9-1.1m-3 1.7l-6.3-3.6-1.9 1 6.3 3.7 1.9-1.1m-3 1.8l-6.3-3.7-1.9 1.1 6.4 3.6 1.8-1m-3 1.7l-6.3-3.6-1.9 1 6.4 3.7 1.8-1.1m-3 1.7l-6.3-3.6-1.8 1.1 6.3 3.6 1.8-1.1" clip-path="url(#f)"/>
  <path fill="#F7DEDA" d="M107.1 461.9l-.1 7.3-.6-.4.1-7.2"/>
  <path fill="#F1526B" d="M107.1 461.9l.6-.3-.1 7.2-.6.4"/>
  <path fill="#F7A997" d="M106.5 461.6l.6-.4.6.4-.6.3"/>
  <path fill="#F7DEDA" d="M118.7 455.5v7.3l-.6-.4v-7.2"/>
  <path fill="#F1526B" d="M118.7 455.5l.6-.3v7.2l-.6.4"/>
  <path fill="#F7A997" d="M118.1 455.2l.6-.4.6.4-.6.3"/>
  <path fill="#F7DEDA" d="M130.4 449.1v7.2l-.6-.3v-7.3"/>
  <path fill="#F1526B" d="M130.4 449.1l.6-.4v7.3l-.6.3"/>
  <path fill="#F7A997" d="M129.8 448.7l.6-.3.6.3-.6.4"/>
  <path fill="#F7DEDA" d="M142.1 442.7l-.1 7.2-.6-.3.1-7.3"/>
  <path fill="#F1526B" d="M142.1 442.7l.6-.4-.1 7.3-.6.3"/>
  <path fill="#F7A997" d="M141.5 442.3l.6-.3.6.3-.6.4"/>
  <path fill="#F5967F" d="M188.3 329.7l-29.4 17.1-10.7-6.2 29.4-17.1"/>
  <path fill="#F1526B" d="M188.3 329.7v11.5l-29.5 17.1.1-11.5"/>
  <path fill="#FFCABE" d="M158.9 346.8l-.1 11.5-10.6-6.2v-11.5"/>
  <path fill="#FFE29E" d="M177.2 346.9l.1 21.9-.7.4v-22"/>
  <path fill="#FFF9EB" d="M176.6 369.2l-.3-.2-.1-22 .4.2"/>
  <path fill="#FFE5A7" d="M176.6 347.2l-.4-.2.7-.3.3.2"/>
  <path fill="#FFE29E" d="M166.8 340.6v22l-.6.4-.1-22"/>
  <path fill="#FFF9EB" d="M166.2 363l-.4-.2v-22l.3.2"/>
  <path fill="#FFE5A7" d="M166.1 341l-.3-.2.6-.4.4.2"/>
  <path fill="#97D2E8" d="M265.5 361.1l-43.1 25-37.2-21.5 43.1-25"/>
  <path fill="#43A4C9" d="M265.5 361.1v8.4l-43.1 25.1v-8.5"/>
  <path fill="#EDF7F9" d="M222.4 386.1v8.5l-37.2-21.5v-8.5"/>
  <path fill="#97D2E8" d="M265.6 349.4l-43.1 25.1-37.2-21.5 43.1-25"/>
  <path fill="#43A4C9" d="M265.6 349.4l-.1 8.5-43.1 25 .1-8.4"/>
  <path fill="#EDF6F9" d="M222.4 374.4v8.4l-37.1-21.4V353"/>
  <path fill="#FFBD6A" d="M238.8 331v3.7l-23.4 13.5v-3.6"/>
  <path fill="#FFF9EA" d="M215.4 344.6v3.6l-10.8-6.2v-3.7"/>
  <path fill="#FFDD8E" d="M238.8 331l-23.4 13.6-10.8-6.3-23.3 13.6-20.6-11.9 46.7-27.1"/>
  <path fill="#FFBD6A" d="M204.6 338.3v3.7l-23.3 13.6v-3.7"/>
  <path fill="#FFF9EA" d="M181.3 351.9v3.7l-20.6-11.9V340"/>
  <path fill="#97D2E8" d="M238.9 305.3l-17 9.9-31.4-18.1 17-9.9"/>
  <path fill="#43A4C9" d="M238.9 305.3l-.1 25.7-17 9.9.1-25.7"/>
  <path fill="#EDF6F9" d="M221.9 315.2l-.1 25.7-31.4-18.1.1-25.7"/>
  <path fill="#F5967F" d="M195.9 293.8l-15.1 8.8L166 294l15.1-8.7"/>
  <path fill="#F1526B" d="M195.9 293.8l-.1 46.5-15.1 8.8.1-46.5"/>
  <path fill="#FFCABE" d="M180.8 302.6l-.1 46.5-14.9-8.6.2-46.5"/>
  <path fill="#FFDD8E" d="M184.9 293l-4 2.3-6.4-3.7 4-2.3"/>
  <path fill="#FFBD6A" d="M184.9 293v4.6l-4 2.3v-4.6"/>
  <path fill="#FFF9EA" d="M180.9 295.3v4.6l-6.4-3.7v-4.6"/>
  <path fill="#F5967F" d="M223.5 292.7l-8.4 4.9-4.6-2.6 8.4-4.9"/>
  <path fill="#F1526B" d="M223.5 292.7v3.9l-8.4 4.9v-3.9"/>
  <path fill="#FFCABE" d="M215.1 297.6v3.9l-4.6-2.7V295"/>
  <path fill="#F5967F" d="M258.3 314.3l-16.1 9.3-16.2-9.3 16.1-9.4"/>
  <path fill="#F1526B" d="M258.3 314.3l-.1 34.4-16.1 9.4.1-34.5"/>
  <path fill="#FFCABE" d="M242.2 323.6l-.1 34.5-16.2-9.4.1-34.4"/>
  <path fill="#FFDD8E" d="M235.5 301.3l-9.3 5.4-9.2-5.3 9.3-5.4"/>
  <path fill="#FFBD6A" d="M235.4 301.2v3.5l-9.2 5.6v-3.5"/>
  <path fill="#FFF9EA" d="M226.2 306.7l-.1 3.5-9.1-5.2v-3.6"/>
  <defs>
    <path id="g" d="M219.3 305.7v-2.3l1.2.7v2.3z"/>
  </defs>
  <use fill="#43A4C9" xlink:href="#g" overflow="visible"/>
  <clipPath id="h">
    <use xlink:href="#g" overflow="visible"/>
  </clipPath>
  <path fill="#43A4C9" d="M220.5 304.1l-1.2-.7v2.3l1.2.7v-2.3" clip-path="url(#h)"/>
  <defs>
    <path id="i" d="M220.7 306.5v-2.3l1.1.6v2.4z"/>
  </defs>
  <use fill="#43A4C9" xlink:href="#i" overflow="visible"/>
  <clipPath id="j">
    <use xlink:href="#i" overflow="visible"/>
  </clipPath>
  <path fill="#43A4C9" d="M221.8 304.8l-1.1-.6v2.3l1.1.7v-2.4" clip-path="url(#j)"/>
  <defs>
    <path id="k" d="M222 307.3V305l1.2.6v2.3z"/>
  </defs>
  <use fill="#43A4C9" xlink:href="#k" overflow="visible"/>
  <clipPath id="l">
    <use xlink:href="#k" overflow="visible"/>
  </clipPath>
  <path fill="#43A4C9" d="M223.2 305.6l-1.2-.6v2.3l1.2.6v-2.3" clip-path="url(#l)"/>
  <defs>
    <path id="m" d="M231.3 351.9V345l2.8 1.6v6.9z"/>
  </defs>
  <use fill="#43A4C9" xlink:href="#m" overflow="visible"/>
  <clipPath id="n">
    <use xlink:href="#m" overflow="visible"/>
  </clipPath>
  <path fill="#43A4C9" d="M234.1 346.6l-2.8-1.6v6.9l2.8 1.6v-6.9" clip-path="url(#n)"/>
  <defs>
    <path id="o" d="M229.8 325.2v-1.3l1.8 1v1.3z"/>
  </defs>
  <use fill="#FFF" xlink:href="#o" overflow="visible"/>
  <clipPath id="p">
    <use xlink:href="#o" overflow="visible"/>
  </clipPath>
  <path fill="#FFF" d="M231.6 324.9l-1.8-1v1.3l1.8 1v-1.3" clip-path="url(#p)"/>
  <defs>
    <path id="q" d="M229.8 323.6v-1.3l1.8 1.1v1.3z"/>
  </defs>
  <use fill="#FFF" xlink:href="#q" overflow="visible"/>
  <clipPath id="r">
    <use xlink:href="#q" overflow="visible"/>
  </clipPath>
  <path fill="#FFF" d="M231.6 323.4l-1.8-1.1v1.3l1.8 1.1v-1.3" clip-path="url(#r)"/>
  <defs>
    <path id="s" d="M229.8 330.8v-1.3l1.8 1v1.3z"/>
  </defs>
  <use fill="#FFF" xlink:href="#s" overflow="visible"/>
  <clipPath id="t">
    <use xlink:href="#s" overflow="visible"/>
  </clipPath>
  <path fill="#FFF" d="M231.6 330.5l-1.8-1v1.3l1.8 1v-1.3" clip-path="url(#t)"/>
  <defs>
    <path id="u" d="M229.8 329.2v-1.3l1.8 1.1v1.2z"/>
  </defs>
  <use fill="#FFF" xlink:href="#u" overflow="visible"/>
  <clipPath id="v">
    <use xlink:href="#u" overflow="visible"/>
  </clipPath>
  <path fill="#FFF" d="M231.6 329l-1.8-1.1v1.3l1.8 1V329" clip-path="url(#v)"/>
  <defs>
    <path id="w" d="M236.2 336.9v-1.3l1.8 1.1v1.2z"/>
  </defs>
  <use fill="#FFF" xlink:href="#w" overflow="visible"/>
  <clipPath id="x">
    <use xlink:href="#w" overflow="visible"/>
  </clipPath>
  <path fill="#FFF" d="M238 336.7l-1.8-1.1v1.3l1.8 1v-1.2" clip-path="url(#x)"/>
  <defs>
    <path id="y" d="M236.2 335.4v-1.3l1.8 1v1.3z"/>
  </defs>
  <use fill="#FFF" xlink:href="#y" overflow="visible"/>
  <clipPath id="z">
    <use xlink:href="#y" overflow="visible"/>
  </clipPath>
  <path fill="#FFF" d="M238 335.1l-1.8-1v1.3l1.8 1v-1.3" clip-path="url(#z)"/>
  <defs>
    <path id="A" d="M236.2 342.5v-1.3l1.8 1v1.3z"/>
  </defs>
  <use fill="#FFF" xlink:href="#A" overflow="visible"/>
  <clipPath id="B">
    <use xlink:href="#A" overflow="visible"/>
  </clipPath>
  <path fill="#FFF" d="M238 342.2l-1.8-1v1.3l1.8 1v-1.3" clip-path="url(#B)"/>
  <defs>
    <path id="C" d="M236.2 340.9v-1.3l1.8 1.1v1.3z"/>
  </defs>
  <use fill="#FFF" xlink:href="#C" overflow="visible"/>
  <clipPath id="D">
    <use xlink:href="#C" overflow="visible"/>
  </clipPath>
  <path fill="#FFF" d="M238 340.7l-1.8-1.1v1.3l1.8 1.1v-1.3" clip-path="url(#D)"/>
  <defs>
    <path id="E" d="M170.4 343.2l.1-7.9 3.1 1.9v7.9z"/>
  </defs>
  <use fill="#43A4C9" xlink:href="#E" overflow="visible"/>
  <clipPath id="F">
    <use xlink:href="#E" overflow="visible"/>
  </clipPath>
  <path fill="#43A4C9" d="M173.6 337.2l-3.1-1.9-.1 7.9 3.2 1.9v-7.9" clip-path="url(#F)"/>
  <defs>
    <path id="G" d="M170.8 308.6v-2.5l1.2.7v2.6z"/>
  </defs>
  <use fill="#FFF" xlink:href="#G" overflow="visible"/>
  <clipPath id="H">
    <use xlink:href="#G" overflow="visible"/>
  </clipPath>
  <path fill="#FFF" d="M172 306.8l-1.2-.7v2.5l1.2.8v-2.6" clip-path="url(#H)"/>
  <defs>
    <path id="I" d="M172.3 309.5V307l1.2.7v2.5z"/>
  </defs>
  <use fill="#FFF" xlink:href="#I" overflow="visible"/>
  <clipPath id="J">
    <use xlink:href="#I" overflow="visible"/>
  </clipPath>
  <path fill="#FFF" d="M173.5 307.7l-1.2-.7v2.5l1.2.7v-2.5" clip-path="url(#J)"/>
  <defs>
    <path id="K" d="M170.8 311.7v-2.6l1.2.7v2.6z"/>
  </defs>
  <use fill="#FFF" xlink:href="#K" overflow="visible"/>
  <clipPath id="L">
    <use xlink:href="#K" overflow="visible"/>
  </clipPath>
  <path fill="#FFF" d="M172 309.8l-1.2-.7v2.6l1.2.7v-2.6" clip-path="url(#L)"/>
  <defs>
    <path id="M" d="M172.3 312.5V310l1.2.7v2.5z"/>
  </defs>
  <use fill="#FFF" xlink:href="#M" overflow="visible"/>
  <clipPath id="N">
    <use xlink:href="#M" overflow="visible"/>
  </clipPath>
  <path fill="#FFF" d="M173.5 310.7l-1.2-.7v2.5l1.2.7v-2.5" clip-path="url(#N)"/>
  <defs>
    <path id="O" d="M170.8 314.7v-2.6l1.2.7v2.6z"/>
  </defs>
  <use fill="#FFF" xlink:href="#O" overflow="visible"/>
  <clipPath id="P">
    <use xlink:href="#O" overflow="visible"/>
  </clipPath>
  <path fill="#FFF" d="M172 312.8l-1.2-.7v2.6l1.2.7v-2.6" clip-path="url(#P)"/>
  <defs>
    <path id="Q" d="M172.3 315.5V313l1.2.7v2.5z"/>
  </defs>
  <use fill="#FFF" xlink:href="#Q" overflow="visible"/>
  <clipPath id="R">
    <use xlink:href="#Q" overflow="visible"/>
  </clipPath>
  <path fill="#FFF" d="M173.5 313.7l-1.2-.7v2.5l1.2.7v-2.5" clip-path="url(#R)"/>
  <defs>
    <path id="S" d="M170.8 317.6v-2.5l1.2.7v2.5z"/>
  </defs>
  <use fill="#FFF" xlink:href="#S" overflow="visible"/>
  <clipPath id="T">
    <use xlink:href="#S" overflow="visible"/>
  </clipPath>
  <path fill="#FFF" d="M172 315.8l-1.2-.7v2.5l1.2.7v-2.5" clip-path="url(#T)"/>
  <defs>
    <path id="U" d="M172.3 318.5v-2.6l1.2.8v2.5z"/>
  </defs>
  <use fill="#FFF" xlink:href="#U" overflow="visible"/>
  <clipPath id="V">
    <use xlink:href="#U" overflow="visible"/>
  </clipPath>
  <path fill="#FFF" d="M173.5 316.7l-1.2-.8v2.6l1.2.7v-2.5" clip-path="url(#V)"/>
  <defs>
    <path id="W" d="M170.8 320.7v-2.6l1.2.7v2.6z"/>
  </defs>
  <use fill="#FFF" xlink:href="#W" overflow="visible"/>
  <clipPath id="X">
    <use xlink:href="#W" overflow="visible"/>
  </clipPath>
  <path fill="#FFF" d="M172 318.8l-1.2-.7v2.6l1.2.7v-2.6" clip-path="url(#X)"/>
  <defs>
    <path id="Y" d="M172.3 321.5V319l1.2.7v2.5z"/>
  </defs>
  <use fill="#FFF" xlink:href="#Y" overflow="visible"/>
  <clipPath id="Z">
    <use xlink:href="#Y" overflow="visible"/>
  </clipPath>
  <path fill="#FFF" d="M173.5 319.7l-1.2-.7v2.5l1.2.7v-2.5" clip-path="url(#Z)"/>
  <defs>
    <path id="aa" d="M170.8 327.9v-2.6l1.2.7v2.6z"/>
  </defs>
  <use fill="#FFF" xlink:href="#aa" overflow="visible"/>
  <clipPath id="ab">
    <use xlink:href="#aa" overflow="visible"/>
  </clipPath>
  <path fill="#FFF" d="M172 326l-1.2-.7v2.6l1.2.7V326" clip-path="url(#ab)"/>
  <defs>
    <path id="ac" d="M172.3 328.7v-2.5l1.2.7v2.5z"/>
  </defs>
  <use fill="#FFF" xlink:href="#ac" overflow="visible"/>
  <clipPath id="ad">
    <use xlink:href="#ac" overflow="visible"/>
  </clipPath>
  <path fill="#FFF" d="M173.5 326.9l-1.2-.7v2.5l1.2.7v-2.5" clip-path="url(#ad)"/>
  <defs>
    <path id="ae" d="M170.8 330.8v-2.5l1.2.7v2.5z"/>
  </defs>
  <use fill="#FFF" xlink:href="#ae" overflow="visible"/>
  <clipPath id="af">
    <use xlink:href="#ae" overflow="visible"/>
  </clipPath>
  <path fill="#FFF" d="M172 329l-1.2-.7v2.5l1.2.7V329" clip-path="url(#af)"/>
  <defs>
    <path id="ag" d="M172.3 331.7v-2.6l1.2.7v2.6z"/>
  </defs>
  <use fill="#FFF" xlink:href="#ag" overflow="visible"/>
  <clipPath id="ah">
    <use xlink:href="#ag" overflow="visible"/>
  </clipPath>
  <path fill="#FFF" d="M173.5 329.8l-1.2-.7v2.6l1.2.7v-2.6" clip-path="url(#ah)"/>
  <defs>
    <path id="ai" d="M212.1 299.8v-3.4l1.4.8v3.4z"/>
  </defs>
  <use fill="#FFF" xlink:href="#ai" overflow="visible"/>
  <clipPath id="aj">
    <use xlink:href="#ai" overflow="visible"/>
  </clipPath>
  <path fill="#FFF" d="M213.5 297.2l-1.4-.8v3.4l1.4.8v-3.4" clip-path="url(#aj)"/>
  <defs>
    <path id="ak" d="M170.8 305.7v-2.6l1.2.7v2.6z"/>
  </defs>
  <use fill="#FFF" xlink:href="#ak" overflow="visible"/>
  <clipPath id="al">
    <use xlink:href="#ak" overflow="visible"/>
  </clipPath>
  <path fill="#FFF" d="M172 303.8l-1.2-.7v2.6l1.2.7v-2.6" clip-path="url(#al)"/>
  <defs>
    <path id="am" d="M172.3 306.5V304l1.2.7v2.6z"/>
  </defs>
  <use fill="#FFF" xlink:href="#am" overflow="visible"/>
  <clipPath id="an">
    <use xlink:href="#am" overflow="visible"/>
  </clipPath>
  <path fill="#FFF" d="M173.5 304.7l-1.2-.7v2.5l1.2.8v-2.6" clip-path="url(#an)"/>
  <defs>
    <path id="ao" d="M191.2 302.8v-2.6l-1.2.8v2.5z"/>
  </defs>
  <use fill="#FFF" xlink:href="#ao" overflow="visible"/>
  <clipPath id="ap">
    <use xlink:href="#ao" overflow="visible"/>
  </clipPath>
  <path fill="#FFF" d="M190 301l1.2-.8v2.6l-1.2.7V301" clip-path="url(#ap)"/>
  <defs>
    <path id="aq" d="M189.3 303.9v-2.6l-1.2.7v2.6z"/>
  </defs>
  <use fill="#FFF" xlink:href="#aq" overflow="visible"/>
  <clipPath id="ar">
    <use xlink:href="#aq" overflow="visible"/>
  </clipPath>
  <path fill="#FFF" d="M188.1 302l1.2-.7v2.6l-1.2.7V302" clip-path="url(#ar)"/>
  <defs>
    <path id="as" d="M179.4 297.5v-1.3l.6.4v1.3z"/>
  </defs>
  <use fill="#5095A0" xlink:href="#as" overflow="visible"/>
  <clipPath id="at">
    <use xlink:href="#as" overflow="visible"/>
  </clipPath>
  <path fill="#5095A0" d="M180 296.6l-.6-.4v1.3l.6.4v-1.3" clip-path="url(#at)"/>
  <defs>
    <path id="au" d="M207 314.4v-4.1l2 1.1v4.2z"/>
  </defs>
  <use fill="#43A4C9" xlink:href="#au" overflow="visible"/>
  <clipPath id="av">
    <use xlink:href="#au" overflow="visible"/>
  </clipPath>
  <path fill="#43A4C9" d="M209 311.4l-2-1.1v4.1l2 1.2v-4.2" clip-path="url(#av)"/>
  <defs>
    <path id="aw" d="M209.4 315.8v-4.1l2 1.1v4.2z"/>
  </defs>
  <use fill="#43A4C9" xlink:href="#aw" overflow="visible"/>
  <clipPath id="ax">
    <use xlink:href="#aw" overflow="visible"/>
  </clipPath>
  <path fill="#43A4C9" d="M211.4 312.8l-2-1.1v4.1l2 1.2v-4.2" clip-path="url(#ax)"/>
  <defs>
    <path id="ay" d="M211.8 317.2v-4.1l2 1.1v4.2z"/>
  </defs>
  <use fill="#43A4C9" xlink:href="#ay" overflow="visible"/>
  <clipPath id="az">
    <use xlink:href="#ay" overflow="visible"/>
  </clipPath>
  <path fill="#43A4C9" d="M213.8 314.2l-2-1.1v4.1l2 1.2v-4.2" clip-path="url(#az)"/>
  <defs>
    <path id="aA" d="M214.1 318.6l.1-4.2 2 1.2-.1 4.1z"/>
  </defs>
  <use fill="#43A4C9" xlink:href="#aA" overflow="visible"/>
  <clipPath id="aB">
    <use xlink:href="#aA" overflow="visible"/>
  </clipPath>
  <path fill="#43A4C9" d="M216.2 315.6l-2-1.2-.1 4.2 2 1.1.1-4.1" clip-path="url(#aB)"/>
  <defs>
    <path id="aC" d="M216.6 320v-4.2l2 1.2v4.2z"/>
  </defs>
  <use fill="#43A4C9" xlink:href="#aC" overflow="visible"/>
  <clipPath id="aD">
    <use xlink:href="#aC" overflow="visible"/>
  </clipPath>
  <path fill="#43A4C9" d="M218.6 317l-2-1.2v4.2l2 1.2V317" clip-path="url(#aD)"/>
  <defs>
    <path id="aE" d="M207 319.3v-4.2l2 1.2v4.1z"/>
  </defs>
  <use fill="#43A4C9" xlink:href="#aE" overflow="visible"/>
  <clipPath id="aF">
    <use xlink:href="#aE" overflow="visible"/>
  </clipPath>
  <path fill="#43A4C9" d="M209 316.3l-2-1.2v4.2l2 1.1v-4.1" clip-path="url(#aF)"/>
  <defs>
    <path id="aG" d="M209.4 320.7v-4.2l2 1.2v4.1z"/>
  </defs>
  <use fill="#43A4C9" xlink:href="#aG" overflow="visible"/>
  <clipPath id="aH">
    <use xlink:href="#aG" overflow="visible"/>
  </clipPath>
  <path fill="#43A4C9" d="M211.4 317.7l-2-1.2v4.2l2 1.1v-4.1" clip-path="url(#aH)"/>
  <defs>
    <path id="aI" d="M211.8 322.1v-4.2l2 1.1v4.2z"/>
  </defs>
  <use fill="#43A4C9" xlink:href="#aI" overflow="visible"/>
  <clipPath id="aJ">
    <use xlink:href="#aI" overflow="visible"/>
  </clipPath>
  <path fill="#43A4C9" d="M213.8 319l-2-1.1v4.2l2 1.1V319" clip-path="url(#aJ)"/>
  <defs>
    <path id="aK" d="M214.1 323.4l.1-4.1 2 1.1-.1 4.2z"/>
  </defs>
  <use fill="#43A4C9" xlink:href="#aK" overflow="visible"/>
  <clipPath id="aL">
    <use xlink:href="#aK" overflow="visible"/>
  </clipPath>
  <path fill="#43A4C9" d="M216.2 320.4l-2-1.1-.1 4.1 2 1.2.1-4.2" clip-path="url(#aL)"/>
  <defs>
    <path id="aM" d="M216.6 324.8v-4.1l2 1.1v4.2z"/>
  </defs>
  <use fill="#43A4C9" xlink:href="#aM" overflow="visible"/>
  <clipPath id="aN">
    <use xlink:href="#aM" overflow="visible"/>
  </clipPath>
  <path fill="#43A4C9" d="M218.6 321.8l-2-1.1v4.1l2 1.2v-4.2" clip-path="url(#aN)"/>
  <defs>
    <path id="aO" d="M207 324.2v-4.1l2 1.1v4.2z"/>
  </defs>
  <use fill="#43A4C9" xlink:href="#aO" overflow="visible"/>
  <clipPath id="aP">
    <use xlink:href="#aO" overflow="visible"/>
  </clipPath>
  <path fill="#43A4C9" d="M209 321.2l-2-1.1v4.1l2 1.2v-4.2" clip-path="url(#aP)"/>
  <defs>
    <path id="aQ" d="M209.4 325.6v-4.1l2 1.1v4.2z"/>
  </defs>
  <use fill="#43A4C9" xlink:href="#aQ" overflow="visible"/>
  <clipPath id="aR">
    <use xlink:href="#aQ" overflow="visible"/>
  </clipPath>
  <path fill="#43A4C9" d="M211.4 322.6l-2-1.1v4.1l2 1.2v-4.2" clip-path="url(#aR)"/>
  <defs>
    <path id="aS" d="M211.8 327v-4.2l2 1.2v4.2z"/>
  </defs>
  <use fill="#43A4C9" xlink:href="#aS" overflow="visible"/>
  <clipPath id="aT">
    <use xlink:href="#aS" overflow="visible"/>
  </clipPath>
  <path fill="#43A4C9" d="M213.8 324l-2-1.2v4.2l2 1.2V324" clip-path="url(#aT)"/>
  <defs>
    <path id="aU" d="M214.1 328.4l.1-4.2 2 1.2-.1 4.1z"/>
  </defs>
  <use fill="#43A4C9" xlink:href="#aU" overflow="visible"/>
  <clipPath id="aV">
    <use xlink:href="#aU" overflow="visible"/>
  </clipPath>
  <path fill="#43A4C9" d="M216.2 325.4l-2-1.2-.1 4.2 2 1.1.1-4.1" clip-path="url(#aV)"/>
  <defs>
    <path id="aW" d="M216.6 329.8v-4.2l2 1.2v4.1z"/>
  </defs>
  <use fill="#43A4C9" xlink:href="#aW" overflow="visible"/>
  <clipPath id="aX">
    <use xlink:href="#aW" overflow="visible"/>
  </clipPath>
  <path fill="#43A4C9" d="M218.6 326.8l-2-1.2v4.2l2 1.1v-4.1" clip-path="url(#aX)"/>
  <defs>
    <path id="aY" d="M151 350.2v-4.1l2 1.1v4.2z"/>
  </defs>
  <clipPath id="aZ">
    <use xlink:href="#aY" overflow="visible"/>
  </clipPath>
  <path fill="#8BC6CC" d="M153 347.2l-2-1.1v4.1l2 1.2v-4.2" clip-path="url(#aZ)"/>
  <defs>
    <path id="ba" d="M153.4 351.6v-4.1l2 1.1v4.2z"/>
  </defs>
  <clipPath id="bb">
    <use xlink:href="#ba" overflow="visible"/>
  </clipPath>
  <path fill="#8BC6CC" d="M155.4 348.6l-2-1.1v4.1l2 1.2v-4.2" clip-path="url(#bb)"/>
  <defs>
    <path id="bc" d="M284.6 435.1l45.4-26.4 53.8 31.1-45.3 26.4z"/>
  </defs>
  <clipPath id="bd">
    <use xlink:href="#bc" overflow="visible"/>
  </clipPath>
  <path fill="#0066AE" d="M314.1 429.6l-9.9-5.8.7-.4 9.9 5.7-.7.5m6.5-3.8l-9.9-5.7.7-.4 9.9 5.7-.7.4m10.5 13.1l7.8-4.5.7.4-7.8 4.5 6.4 3.7 7.8-4.5.7.4-7.8 4.5 6.1 3.5 7.8-4.5.7.4-7.8 4.5 6.2 3.6 7.7-4.4.7.4-7.7 4.4 5.3 3.1-.7.4-32.4-18.9.7-.4 5.6 3.4m26.5-3.5l-.7-.4 9-5.2.7.4-9 5.2m-6.3-3.7l-.7-.4 9-5.2.7.4-9 5.2m-7.7-4.5l9-5.2.7.4-9 5.2-.7-.4m-6.3-3.6l9-5.2.7.4-9 5.2-.7-.4m-6.6-3.9l-.7-.4 9-5.2.7.4-9 5.2m-.5-10.9L284.8 435l6.9 4 9-5.2.7.4-9 5.2 5.6 3.3 9-5.2.7.4-9 5.2 5.5 3.2 9-5.2.7.4-9 5.2 5.6 3.3 9-5.2.7.4-9 5.2 5.6 3.2 9-5.2.7.4-9 5.2 5.6 3.3 9-5.2.7.4-9 5.2 5.9 3.4 9-5.2.7.4-9 5.2 7.8 4.5 45.3-26.1-53.3-31.1" clip-path="url(#bd)"/>
  <path fill="#FCFCFC" d="M300.8 433.8l-9 5.2.7.4 9-5.2-.7-.4m6.3 3.7l-9 5.2.7.4 9-5.2-.7-.4m6.9 4l-.7-.4-9 5.2.7.4 9-5.2m6.3 3.7l-.7-.4-9 5.2.7.4 9-5.2m6.3 3.6l-.7-.4-9 5.2.7.4 9-5.2m6.3 3.7l-.7-.4-9 5.2.7.4 9-5.2m6.6 3.8l-.7-.4-9 5.2.7.4 9-5.2m-14-20.6l-.7.4 32.4 18.8.7-.4-5.3-3.1-.1.1-.7-.4.1-.1-6.2-3.6-.4.2-.7-.4.4-.2-6.1-3.6-.4.3-.7-.4.4-.3-6.4-3.7-.4.2-.8-.4.5-.2-5.6-3.2" clip-path="url(#bd)"/>
  <path fill="#FCFCFC" d="M339.6 434.8l-.7-.4-7.8 4.5-.5.2.8.4.4-.2 7.8-4.5m7.1 4.1l-.7-.4-7.8 4.5-.4.3.7.4.4-.3 7.8-4.5m6.1 3.6L345 447l-.4.2.7.4.4-.2 7.8-4.5-.7-.4m7.5 4.5l-.7-.4-7.7 4.4-.1.1.7.4.1-.1 7.7-4.4m0-20.5l-.7-.4-9 5.2.7.4 9-5.2m6.3 3.7l-.7-.4-9 5.2.7.4 9-5.2M347 418.8l-.7-.4-9 5.2.7.4 9-5.2m-7.3-4.3l-.7-.4-9 5.2.7.4 9-5.2m12.9 7.5l-9 5.2.7.4 9-5.1-.7-.5m-47.7 1.4l-.7.4 9.9 5.8.7-.5-9.9-5.7m6.5-3.7l-.7.4 9.9 5.7.7-.4-9.9-5.7" clip-path="url(#bd)"/>
  <path fill="#8FBCDB" d="M138.7 367.6l3.5-2v8.6l-3.5 2"/>
  <path fill="#E0EDF5" d="M136.7 363.5l2 4.1v8.6l-4-2.3v-8.6"/>
  <path fill="#0066AE" d="M136.7 363.5l3.5-2 2 4.1-3.5 2"/>
  <path fill="#FFF" d="M135.7 374.5l-.6-.4V365l.6-.6m1.2 10.8l-.7-.4.1-10.8.4-.5.2.4m1.3 12l-.7-.4v-10.3l.7 1.3"/>
  <path fill="#AACFE5" d="M139.3 367.3v8.6l.8-.5v-8.6m.8-.4v8.6l.8-.5v-8.6"/>
  <defs>
    <path id="be" d="M136.3 367.5v-.7l.6.3v.7z"/>
  </defs>
  <clipPath id="bf">
    <use xlink:href="#be" overflow="visible"/>
  </clipPath>
  <path fill="#0066AE" d="M136.9 367.3l-.3-.2-.3-.2c0 .2.3.6.3.6s.3 0 .3-.2" clip-path="url(#bf)"/>
  <path fill="#0066AE" d="M136.4 366.8c-.1 0-.2 0-.2.2l.3.2v-.1c.1-.1 0-.2-.1-.3m.3.2c-.1 0-.1 0-.1.1v.1l.3.2c0-.2-.1-.3-.2-.4" clip-path="url(#bf)"/>
  <path fill="#8FBCDB" d="M147.5 373.3l3.5-2v8.6l-3.5 2"/>
  <path fill="#E0EDF5" d="M145.5 369.2l2 4.1v8.6l-4-2.3V371"/>
  <path fill="#0066AE" d="M145.5 369.2l3.5-2 2 4.1-3.5 2"/>
  <path fill="#FFF" d="M144.5 380.2l-.7-.4.1-9.1.6-.6m1.2 10.8l-.7-.4v-10.9l.5-.4.2.4m1.3 12l-.7-.4v-10.4l.7 1.4"/>
  <path fill="#AACFE5" d="M148.1 372.9v8.7l.8-.5v-8.6m.8-.5v8.6l.8-.5v-8.5"/>
  <defs>
    <path id="bg" d="M145.1 373.1v-.7l.6.4v.7z"/>
  </defs>
  <clipPath id="bh">
    <use xlink:href="#bg" overflow="visible"/>
  </clipPath>
  <path fill="#0066AE" d="M145.7 373l-.3-.2-.3-.2c0 .2.3.6.3.6s.3-.1.3-.2" clip-path="url(#bh)"/>
  <path fill="#0066AE" d="M145.2 372.5c-.1 0-.1 0-.1.2l.3.2v-.1c-.1-.1-.1-.3-.2-.3m.3.2c-.1 0-.1 0-.1.1v.1l.3.2c0-.2-.1-.4-.2-.4" clip-path="url(#bh)"/>
  <path fill="#8FBCDB" d="M200.8 402.8l3.5-2v8.6l-3.5 2"/>
  <path fill="#E0EDF5" d="M198.8 398.7l2 4.1v8.6l-4-2.3v-8.6"/>
  <path fill="#0066AE" d="M198.8 398.7l3.5-2 2 4.1-3.5 2"/>
  <path fill="#FFF" d="M197.8 409.7l-.6-.4v-9.1l.6-.6m1.2 10.8l-.7-.4.1-10.9.4-.4.2.4m1.3 12l-.7-.4v-10.3l.7 1.3"/>
  <path fill="#AACFE5" d="M201.4 402.5v8.6l.8-.5V402m.8-.4v8.6l.8-.5v-8.6"/>
  <defs>
    <path id="bi" d="M198.4 402.7v-.8l.6.4v.7z"/>
  </defs>
  <clipPath id="bj">
    <use xlink:href="#bi" overflow="visible"/>
  </clipPath>
  <path fill="#0066AE" d="M199 402.5l-.3-.2-.3-.2c0 .2.3.6.3.6s.3 0 .3-.2" clip-path="url(#bj)"/>
  <path fill="#0066AE" d="M198.5 402c-.1 0-.2 0-.2.2l.3.2v-.1c.1-.1 0-.2-.1-.3m.3.2c-.1 0-.1 0-.1.1v.1l.3.2c0-.2-.1-.4-.2-.4" clip-path="url(#bj)"/>
  <path fill="#97D2E8" d="M424.8 415.9l55 32-76.4 44.4-55.2-31.9"/>
  <path fill="#43A4C9" d="M479.8 447.9l-.2 54.5-76.4 44.4.2-54.5"/>
  <path fill="#EDF6F9" d="M403.4 492.3l-.2 54.5-55.1-31.9.1-54.5"/>
  <defs>
    <path id="bk" d="M425.7 533.7l-.1-17.2 20.5-11.9.1 17.3z"/>
  </defs>
  <clipPath id="bl">
    <use xlink:href="#bk" overflow="visible"/>
  </clipPath>
  <path fill="#FFF" d="M446.1 504.6l-20.5 11.9.1 17.2 20.5-11.8-.1-17.3" clip-path="url(#bl)"/>
  <defs>
    <path id="bm" d="M447.5 521.1l-.1-17.2 20.5-11.9.1 17.3z"/>
  </defs>
  <clipPath id="bn">
    <use xlink:href="#bm" overflow="visible"/>
  </clipPath>
  <path fill="#FFF" d="M467.9 492l-20.5 11.9.1 17.2 20.5-11.8-.1-17.3" clip-path="url(#bn)"/>
  <path fill="#0066AE" d="M479.7 478.2v5.1l-71.4 41.5 4.1 2.4 75.5-43.9-7.8-4.7"/>
  <path fill="#E5F3F7" d="M488.2 481.6v2.7l-8.4-5.1v-2.7"/>
  <path fill="#97D2E8" d="M480.4 476.2l9 5.4-77 44.7-6.5-3.8.6-.3 5.9 3.4 75.8-44-8.4-5.1"/>
  <path fill="#43A4C9" d="M489.4 481.6v2.7l-77 44.7v-2.7"/>
  <path fill="#EDF6F9" d="M412.4 526.3v2.7l-6.5-3.7v-2.8"/>
  <path fill="#0066AE" d="M479.7 466.5v5.1l-71.4 41.5 4.1 2.4 75.5-43.9-7.8-4.7"/>
  <path fill="#E5F3F7" d="M488.2 469.9v2.7l-8.4-5.1v-2.7"/>
  <path fill="#97D2E8" d="M480.4 464.5l9 5.4-77 44.7-6.5-3.8.6-.3 5.9 3.4 75.8-44-8.4-5.1"/>
  <path fill="#43A4C9" d="M489.4 469.9v2.7l-77 44.7v-2.7"/>
  <path fill="#EDF6F9" d="M412.4 514.6v2.7l-6.5-3.7v-2.8"/>
  <path fill="#FFDD8E" d="M405 445.8l-11.8 6.9-12.7-7.4 11.7-6.8"/>
  <path fill="#FFBD6A" d="M405 445.8v13.7l-11.8 6.8v-13.6"/>
  <path fill="#FFF5D4" d="M393.2 452.7v13.6l-12.8-7.4.1-13.6"/>
  <defs>
    <path id="bo" d="M399.4 462.8v-4.7l1.9-1.2v4.7z"/>
  </defs>
  <use fill="#F1526B" xlink:href="#bo" overflow="visible"/>
  <clipPath id="bp">
    <use xlink:href="#bo" overflow="visible"/>
  </clipPath>
  <path fill="#F1526B" d="M401.3 456.9l-1.9 1.2v4.7l1.9-1.2v-4.7" clip-path="url(#bp)"/>
  <defs>
    <path id="bq" d="M403.4 505.5l-.1-13.3 76.4-44.1.1 13.3z"/>
  </defs>
  <clipPath id="br">
    <use xlink:href="#bq" overflow="visible"/>
  </clipPath>
  <path fill="#023568" d="M479.7 448.1l-76.4 44.1.1 13.3 76.4-44.1-.1-13.3" clip-path="url(#br)"/>
  <defs>
    <path id="bs" d="M348.2 473.7v-13.3l55.2 31.9v13.2z"/>
  </defs>
  <clipPath id="bt">
    <use xlink:href="#bs" overflow="visible"/>
  </clipPath>
  <path fill="#0066AE" d="M403.4 492.3l-55.2-31.9v13.3l55.2 31.8v-13.2" clip-path="url(#bt)"/>
  <path fill="#F4F5F5" d="M478.5 440.8v6.8l-53.8-31.3v-6.8"/>
  <path fill="#DEE0E0" d="M424.7 409.5v6.8l-75.4 43.8v-6.8"/>
  <path fill="#EBECEC" d="M424.7 408.1l56.2 32.6-77.6 45.1-56.3-32.5 77.7-45.2zm-21.4 76.4l75.2-43.7-53.8-31.3-75.4 43.8 54 31.2"/>
  <path fill="#DEE0E0" d="M480.9 440.8v6.8l-77.6 45.1v-6.8"/>
  <path fill="#F4F5F5" d="M403.3 485.9v6.8l-56.4-32.6.1-6.8"/>
  <defs>
    <path id="bu" d="M431.1 485.3v-5.7l24.2-13.9v5.7z"/>
  </defs>
  <clipPath id="bv">
    <use xlink:href="#bu" overflow="visible"/>
  </clipPath>
  <path fill="#FFF" d="M432.2 481.8c-.2.1-.4.2-.5.2v-2.1c.1-.1.3-.2.6-.4.7-.4 1.1-.3 1.1.4 0 .8-.4 1.5-1.2 1.9m.1-2.8c-.5.3-.9.6-1.2.8v5.5l.6-.4v-2.2c.1 0 .3-.1.5-.2.6-.4 1.1-.9 1.5-1.5.2-.4.4-.9.4-1.4 0-.5-.2-.8-.4-.9-.3-.2-.8-.1-1.4.3m5.2 2c-1 .6-1.5-.2-1.5-1.3 0-1.2.5-2.6 1.5-3.2 1-.6 1.5.3 1.5 1.4.1 1.2-.5 2.5-1.5 3.1m0-5.1c-1.3.7-2.2 2.4-2.2 4.2 0 1.7.9 2.3 2.2 1.5 1.2-.7 2.2-2.3 2.2-4.2 0-1.6-.8-2.3-2.2-1.5m4.3-2.4l-.6.3v5.6l2.7-1.6v-.6l-2 1.2-.1-4.9m4.1-2.4l-.6.4v5.5l.6-.3v-5.6m4-2.4c-1.5.9-2.5 2.6-2.5 4.3 0 1.8 1 2.2 2.4 1.4.6-.3 1-.7 1.3-1l-.1-.5c-.2.3-.6.6-1 .8-1.2.7-1.8.2-1.9-1.2 0-1.4.7-2.7 1.9-3.4.4-.2.7-.3 1-.3l.1-.7c-.2.2-.6.3-1.2.6m5.2-2.9l-2.5 1.5v5.5l2.7-1.5v-.6l-2.1 1.2v-2l1.8-1.1v-.6l-1.8 1.1v-1.8l1.9-1.1v-.6" clip-path="url(#bv)"/>
  <path fill="#F5967F" d="M390.3 518.6l-25.4 14.8-23.6-13.6 25.4-14.8"/>
  <path fill="#F1526B" d="M390.3 518.6v20.7l-25.4 14.8v-20.7"/>
  <path fill="#FFCABE" d="M364.9 533.4v20.7l-23.6-13.6v-20.7"/>
  <path fill="#C4DCEC" d="M366.5 504l19.6 11.3v3.3l-19.6-11.2"/>
  <path fill="#43A4C9" d="M345.5 516.2l21-12.2v3.4l-21 12.2m40.6-4.3v3.3L365 530.9l.1-3.4"/>
  <path fill="#C4DCEC" d="M365.1 527.5l-.1 3.4-19.5-11.3v-3.4"/>
  <defs>
    <path id="bw" d="M367.6 540.4v-5l1.9-1.1v5z"/>
  </defs>
  <clipPath id="bx">
    <use xlink:href="#bw" overflow="visible"/>
  </clipPath>
  <path fill="#FFF" d="M369.5 534.3l-1.9 1.1v5l1.9-1.1v-5" clip-path="url(#bx)"/>
  <defs>
    <path id="by" d="M370.3 538.9v-5.1l1.9-1.1v5.1z"/>
  </defs>
  <clipPath id="bz">
    <use xlink:href="#by" overflow="visible"/>
  </clipPath>
  <path fill="#FFF" d="M372.2 532.7l-1.9 1.1v5.1l1.9-1.1v-5.1" clip-path="url(#bz)"/>
  <defs>
    <path id="bA" d="M373 537.3v-5l2-1.1v5z"/>
  </defs>
  <clipPath id="bB">
    <use xlink:href="#bA" overflow="visible"/>
  </clipPath>
  <path fill="#FFF" d="M375 531.2l-2 1.1v5l2-1.1v-5" clip-path="url(#bB)"/>
  <defs>
    <path id="bC" d="M381.2 532.7v-5.1l1.9-1.1v5.1z"/>
  </defs>
  <clipPath id="bD">
    <use xlink:href="#bC" overflow="visible"/>
  </clipPath>
  <path fill="#FFF" d="M383.1 526.5l-1.9 1.1v5.1l1.9-1.1v-5.1" clip-path="url(#bD)"/>
  <defs>
    <path id="bE" d="M383.9 531.1v-5l2-1.1v5z"/>
  </defs>
  <clipPath id="bF">
    <use xlink:href="#bE" overflow="visible"/>
  </clipPath>
  <path fill="#FFF" d="M385.9 525l-2 1.1v5l2-1.1v-5" clip-path="url(#bF)"/>
  <defs>
    <path id="bG" d="M386.7 529.6v-5l1.9-1.2v5.1z"/>
  </defs>
  <clipPath id="bH">
    <use xlink:href="#bG" overflow="visible"/>
  </clipPath>
  <path fill="#FFF" d="M388.6 523.4l-1.9 1.2v5l1.9-1.1v-5.1" clip-path="url(#bH)"/>
  <defs>
    <path id="bI" d="M344 530.5v-5l1.9 1.1v5z"/>
  </defs>
  <clipPath id="bJ">
    <use xlink:href="#bI" overflow="visible"/>
  </clipPath>
  <path fill="#FFF" d="M345.9 526.6l-1.9-1.1v5l1.9 1.1v-5" clip-path="url(#bJ)"/>
  <path fill="#FFE9B1" d="M303 384.1l-47.9 27.8-17.4-10 48-27.9"/>
  <path fill="#FFBD6A" d="M303 384.1v18.7l-48 27.9.1-18.8"/>
  <path fill="#FFF9EA" d="M255.1 411.9l-.1 18.8-17.4-10.1.1-18.7"/>
  <defs>
    <path id="bK" d="M256.5 414.7v-2.1l3.9-2.2v2.1z"/>
  </defs>
  <clipPath id="bL">
    <use xlink:href="#bK" overflow="visible"/>
  </clipPath>
  <path fill="#FFF" d="M260.4 410.4l-3.9 2.2v2.1l3.9-2.2v-2.1" clip-path="url(#bL)"/>
  <defs>
    <path id="bM" d="M260.8 412.1v-2l3.9-2.3v2.1z"/>
  </defs>
  <clipPath id="bN">
    <use xlink:href="#bM" overflow="visible"/>
  </clipPath>
  <path fill="#FFF" d="M264.7 407.8l-3.9 2.3v2l3.9-2.2v-2.1" clip-path="url(#bN)"/>
  <defs>
    <path id="bO" d="M265 409.6v-2.1l3.9-2.2v2.1z"/>
  </defs>
  <clipPath id="bP">
    <use xlink:href="#bO" overflow="visible"/>
  </clipPath>
  <path fill="#FFF" d="M268.9 405.3l-3.9 2.2v2.1l3.9-2.2v-2.1" clip-path="url(#bP)"/>
  <defs>
    <path id="bQ" d="M289.5 395.7v-2.1l3.9-2.3v2.1z"/>
  </defs>
  <clipPath id="bR">
    <use xlink:href="#bQ" overflow="visible"/>
  </clipPath>
  <path fill="#FFF" d="M293.4 391.3l-3.9 2.3v2.1l3.9-2.3v-2.1" clip-path="url(#bR)"/>
  <defs>
    <path id="bS" d="M293.8 393.1V391l3.8-2.2v2.1z"/>
  </defs>
  <clipPath id="bT">
    <use xlink:href="#bS" overflow="visible"/>
  </clipPath>
  <path fill="#FFF" d="M297.6 388.8l-3.8 2.2v2.1l3.8-2.2v-2.1" clip-path="url(#bT)"/>
  <defs>
    <path id="bU" d="M298 390.5v-2l3.9-2.3v2.1z"/>
  </defs>
  <clipPath id="bV">
    <use xlink:href="#bU" overflow="visible"/>
  </clipPath>
  <path fill="#FFF" d="M301.9 386.2l-3.9 2.3v2l3.9-2.2v-2.1" clip-path="url(#bV)"/>
  <path fill="#F5967F" d="M303 380.2L255.1 408l-17.4-10 47.9-27.9"/>
  <path fill="#F1526B" d="M303 380.2v4l-48 27.9.1-4.1"/>
  <path fill="#F7DEDA" d="M255.1 408l-.1 4.1-17.4-10 .1-4.1"/>
  <defs>
    <path id="bW" d="M267.2 422.2v13.9c0 .1-.1.2-.2.2-.2.1-.6.1-.8 0-.1-.1-.2-.1-.2-.2v-13.9c0 .1.1.2.2.2.2.1.6.1.8 0 .2-.1.2-.1.2-.2z"/>
  </defs>
  <clipPath id="bX">
    <use xlink:href="#bW" overflow="visible"/>
  </clipPath>
  <path fill="#F7AB99" d="M267.2 422.2v13.9-13.9" clip-path="url(#bX)"/>
  <path fill="#F8B6A6" d="M267.2 422.2v14-14c0 .1 0 0 0 0" clip-path="url(#bX)"/>
  <path fill="#F9C0B3" d="M267.2 422.3v13.9l-.1.1v-13.9s0-.1.1-.1" clip-path="url(#bX)"/>
  <path fill="#FACBC0" d="M267.1 422.4v13.9s-.1 0-.1.1v-13.9c0-.1 0-.1.1-.1" clip-path="url(#bX)"/>
  <path fill="#F9C0B3" d="M266.9 422.5v13.9h-.2v-13.9h.2" clip-path="url(#bX)"/>
  <path fill="#F8B6A6" d="M266.7 422.5v13.9h-.1v-13.9h.1" clip-path="url(#bX)"/>
  <path fill="#F7AB99" d="M266.6 422.5v13.9h-.1v-13.9h.1" clip-path="url(#bX)"/>
  <path fill="#F6A18D" d="M266.5 422.5v13.9c-.1 0-.1 0-.2-.1s-.2-.1-.2-.2v-13.9c0 .1.1.2.2.2 0 0 .1 0 .2.1" clip-path="url(#bX)"/>
  <path fill="#FCE2DC" d="M267 422c.2.1.2.3 0 .4-.2.1-.6.1-.8 0-.2-.1-.2-.3 0-.4.3-.2.6-.2.8 0z"/>
  <defs>
    <path id="bY" d="M313.2 395.4v13.9c0 .1-.1.2-.2.2-.2.1-.6.1-.8 0-.1-.1-.2-.1-.2-.2v-13.9c0 .1.1.2.2.2.2.1.6.1.8 0 .2 0 .2-.1.2-.2z"/>
  </defs>
  <clipPath id="bZ">
    <use xlink:href="#bY" overflow="visible"/>
  </clipPath>
  <path fill="#F7AB99" d="M313.2 395.4v13.9-13.9" clip-path="url(#bZ)"/>
  <path fill="#F8B6A6" d="M313.2 395.4v14-14c0 .1 0 .1 0 0" clip-path="url(#bZ)"/>
  <path fill="#F9C0B3" d="M313.2 395.5v13.9l-.1.1v-13.9s.1 0 .1-.1" clip-path="url(#bZ)"/>
  <path fill="#FACBC0" d="M313.1 395.6v13.9s-.1 0-.1.1v-13.9l.1-.1" clip-path="url(#bZ)"/>
  <path fill="#F9C0B3" d="M313 395.7v13.9h-.2v-13.9h.2" clip-path="url(#bZ)"/>
  <path fill="#F8B6A6" d="M312.8 395.7v13.9h-.1v-13.9h.1" clip-path="url(#bZ)"/>
  <path fill="#F7AB99" d="M312.6 395.7v13.9h-.1v-13.9h.1" clip-path="url(#bZ)"/>
  <path fill="#F6A18D" d="M312.5 395.7v13.9c-.1 0-.1 0-.2-.1s-.2-.1-.2-.2v-13.9c0 .1.1.2.2.2.1.1.1.1.2.1" clip-path="url(#bZ)"/>
  <path fill="#FCE2DC" d="M313.1 395.2c.2.1.2.3 0 .4-.2.1-.6.1-.8 0-.2-.1-.2-.3 0-.4.2-.1.6-.1.8 0z"/>
  <defs>
    <path id="ca" d="M283.7 412.4v13.9c0 .1-.1.2-.2.2-.2.1-.6.1-.8 0-.1-.1-.2-.1-.2-.2v-13.9c0 .1.1.2.2.2.2.1.6.1.8 0 .2 0 .2-.1.2-.2z"/>
  </defs>
  <clipPath id="cb">
    <use xlink:href="#ca" overflow="visible"/>
  </clipPath>
  <path fill="#F7AB99" d="M283.7 412.4v13.9-13.9c0 .1 0 .1 0 0" clip-path="url(#cb)"/>
  <path fill="#F8B6A6" d="M283.7 412.5v14-14" clip-path="url(#cb)"/>
  <path fill="#F9C0B3" d="M283.7 412.6v13.9l-.1.1v-13.9c0-.1 0-.1.1-.1" clip-path="url(#cb)"/>
  <path fill="#FACBC0" d="M283.6 412.7v13.9s-.1 0-.1.1v-13.9c0-.1 0-.1.1-.1" clip-path="url(#cb)"/>
  <path fill="#F9C0B3" d="M283.4 412.7v13.9h-.2v-13.9c.1.1.2 0 .2 0" clip-path="url(#cb)"/>
  <path fill="#F8B6A6" d="M283.2 412.8v13.9h-.1v-13.9h.1" clip-path="url(#cb)"/>
  <path fill="#F7AB99" d="M283.1 412.8v13.9h-.1v-13.9h.1" clip-path="url(#cb)"/>
  <path fill="#F6A18D" d="M283 412.7v13.9c-.1 0-.1 0-.2-.1s-.2-.1-.2-.2v-13.9c0 .1.1.2.2.2 0 .1.1.1.2.1" clip-path="url(#cb)"/>
  <path fill="#FCE2DC" d="M283.5 412.2c.2.1.2.3 0 .4-.2.1-.6.1-.8 0-.2-.1-.2-.3 0-.4.3-.1.6-.1.8 0z"/>
  <defs>
    <path id="cc" d="M297.4 405.1V419c0 .1-.1.2-.2.2-.2.1-.6.1-.8 0-.1-.1-.2-.1-.2-.2v-13.9c0 .1.1.2.2.2.2.1.6.1.8 0 .2 0 .2-.1.2-.2z"/>
  </defs>
  <clipPath id="cd">
    <use xlink:href="#cc" overflow="visible"/>
  </clipPath>
  <path fill="#F7AB99" d="M297.4 405.1V419v-13.9" clip-path="url(#cd)"/>
  <path fill="#F8B6A6" d="M297.4 405.1v14-14c0 .1 0 .1 0 0" clip-path="url(#cd)"/>
  <path fill="#F9C0B3" d="M297.4 405.2v13.9l-.1.1v-13.9s.1 0 .1-.1" clip-path="url(#cd)"/>
  <path fill="#FACBC0" d="M297.3 405.3v13.9s-.1 0-.1.1v-13.9s0-.1.1-.1" clip-path="url(#cd)"/>
  <path fill="#F9C0B3" d="M297.2 405.4v13.9h-.2v-13.9h.2" clip-path="url(#cd)"/>
  <path fill="#F8B6A6" d="M297 405.4v13.9h-.1v-13.9h.1" clip-path="url(#cd)"/>
  <path fill="#F7AB99" d="M296.8 405.4v13.9h-.1v-13.9h.1" clip-path="url(#cd)"/>
  <path fill="#F6A18D" d="M296.7 405.4v13.9c-.1 0-.1 0-.2-.1s-.2-.1-.2-.2v-13.9c0 .1.1.2.2.2 0 .1.1.1.2.1" clip-path="url(#cd)"/>
  <path fill="#FCE2DC" d="M297.3 404.9c.2.1.2.3 0 .4-.2.1-.6.1-.8 0-.2-.1-.2-.3 0-.4.2-.2.6-.2.8 0z"/>
  <defs>
    <path id="ce" d="M255.2 416.8l47.9-27.8 11.4 6.6-47.8 27.8z"/>
  </defs>
  <use fill="#F2816B" xlink:href="#ce" overflow="visible"/>
  <clipPath id="cf">
    <use xlink:href="#ce" overflow="visible"/>
  </clipPath>
  <path fill="#F2816B" d="M314.5 395.6l-11.4-6.6-47.9 27.8 11.5 6.6 47.8-27.8" clip-path="url(#cf)"/>
  <defs>
    <path id="cg" d="M252.9 395.2v-3.3c0 .3.2.5.5.7v3.3c-.3-.2-.5-.5-.5-.7z"/>
  </defs>
  <clipPath id="ch">
    <use xlink:href="#cg" overflow="visible"/>
  </clipPath>
  <path fill="#EAF6FA" d="M253.4 392.6v3.3h-.1l.1-3.3" clip-path="url(#ch)"/>
  <path fill="#E6F4F9" d="M253.4 392.5v3.3l-.1-.1v-3.3c0 .1.1.1.1.1" clip-path="url(#ch)"/>
  <path fill="#E2F3F9" d="M253.3 392.5v3.3s-.1 0-.1-.1l.1-3.2c-.1-.1 0-.1 0 0" clip-path="url(#ch)"/>
  <path fill="#DEF1F8" d="M253.2 392.4v3.3l-.1-.1.1-3.2" clip-path="url(#ch)"/>
  <path fill="#DAEFF7" d="M253.1 392.3v3.2-3.2" clip-path="url(#ch)"/>
  <path fill="#D5EDF6" d="M253.1 392.3v3.2-3.2" clip-path="url(#ch)"/>
  <path fill="#D1ECF5" d="M253.1 392.2v3.2-3.2c-.1 0-.1 0 0 0" clip-path="url(#ch)"/>
  <path fill="#CDEAF4" d="M253 392.2v3.2-3.2" clip-path="url(#ch)"/>
  <path fill="#C9E8F3" d="M253 392.1v3.2-3.2" clip-path="url(#ch)"/>
  <path fill="#C5E6F2" d="M253 392.1v3.2-3.2" clip-path="url(#ch)"/>
  <path fill="#C1E5F1" d="M252.9 392v3.2-3.2" clip-path="url(#ch)"/>
  <path fill="#BCE3F0" d="M252.9 392v3.2-3.2" clip-path="url(#ch)"/>
  <path fill="#B8E1EF" d="M252.9 391.9v3.2-3.2" clip-path="url(#ch)"/>
  <path fill="#B4DFEE" d="M252.9 391.9v3.3-3.3" clip-path="url(#ch)"/>
  <defs>
    <path id="ci" d="M261.3 392.8v3.3c0 .3-.2.5-.5.7v-3.3c.3-.1.5-.4.5-.7z"/>
  </defs>
  <clipPath id="cj">
    <use xlink:href="#ci" overflow="visible"/>
  </clipPath>
  <path fill="#9BD5E9" d="M261.3 392.8v3.3c0 .3-.2.5-.5.7v-3.3c.3-.1.5-.4.5-.7" clip-path="url(#cj)"/>
  <path fill="#A3D8EB" d="M260.8 393.6v3.3l-1.6.9v-3.3"/>
  <path fill="#F4FAFD" d="M256.7 394.5v3.3l-3.3-1.9v-3.3"/>
  <path fill="#BAE2F0" d="M260.8 392.1c.7.4.7 1.1 0 1.5l-1.5.9c-.7.4-1.8.4-2.5 0l-3.3-1.9c-.7-.4-.7-1.1 0-1.5l1.5-.9c.7-.4 1.8-.4 2.5 0l3.3 1.9z"/>
  <defs>
    <path id="ck" d="M259.2 394.5v3.3c-.7.4-1.8.4-2.5 0v-3.3c.7.4 1.9.4 2.5 0z"/>
  </defs>
  <clipPath id="cl">
    <use xlink:href="#ck" overflow="visible"/>
  </clipPath>
  <path fill="#9BD5E9" d="M259.2 394.5v3.3-3.3" clip-path="url(#cl)"/>
  <path fill="#9FD7EA" d="M259.2 394.5v3.3s-.1 0-.1.1v-3.3c0-.1.1-.1.1-.1" clip-path="url(#cl)"/>
  <path fill="#A3D8EB" d="M259.1 394.6v3.3h-.1v-3.3h.1" clip-path="url(#cl)"/>
  <path fill="#A8DAEC" d="M259 394.6v3.3h-.1v-3.3h.1" clip-path="url(#cl)"/>
  <path fill="#ACDCED" d="M258.9 394.6v3.3h-.1l.1-3.3c-.1.1-.1 0 0 0" clip-path="url(#cl)"/>
  <path fill="#B0DEEE" d="M258.8 394.7v3.3h-.1l.1-3.3c-.1 0-.1 0 0 0" clip-path="url(#cl)"/>
  <path fill="#B4DFEE" d="M258.7 394.7v3.3h-.1l.1-3.3c-.1 0-.1 0 0 0" clip-path="url(#cl)"/>
  <path fill="#B8E1EF" d="M258.6 394.7v3.3h-.1l.1-3.3c-.1 0 0 0 0 0" clip-path="url(#cl)"/>
  <path fill="#BCE3F0" d="M258.5 394.7v3.3h-.1l.1-3.3c-.1 0 0 0 0 0" clip-path="url(#cl)"/>
  <path fill="#C1E5F1" d="M258.4 394.7v3.3h-.1l.1-3.3" clip-path="url(#cl)"/>
  <path fill="#C5E6F2" d="M258.3 394.8v3.3h-.1l.1-3.3" clip-path="url(#cl)"/>
  <path fill="#C9E8F3" d="M258.2 394.8v3.3h-.1l.1-3.3" clip-path="url(#cl)"/>
  <path fill="#CDEAF4" d="M258.1 394.8v3.3h-.1l.1-3.3" clip-path="url(#cl)"/>
  <path fill="#D1ECF5" d="M258.1 394.8v3.3h-.1l.1-3.3c-.1 0-.1 0 0 0" clip-path="url(#cl)"/>
  <path fill="#D5EDF6" d="M258 394.8v3.3h-.1l.1-3.3c-.1 0-.1 0 0 0" clip-path="url(#cl)"/>
  <path fill="#DAEFF7" d="M257.9 394.8v3.3h-.1v-3.3h.1" clip-path="url(#cl)"/>
  <path fill="#DEF1F8" d="M257.8 394.8v3.3h-.1v-3.3h.1" clip-path="url(#cl)"/>
  <path fill="#E2F3F9" d="M257.7 394.8v3.3h-.1v-3.3c0-.1 0-.1.1 0" clip-path="url(#cl)"/>
  <path fill="#E6F4F9" d="M257.5 394.7v3.3h-.1v-3.3h.1" clip-path="url(#cl)"/>
  <path fill="#EAF6FA" d="M257.4 394.7v3.3c-.1 0-.2 0-.3-.1v-3.3c.1.1.2.1.3.1" clip-path="url(#cl)"/>
  <path fill="#EEF8FB" d="M257.1 394.6v3.3c-.1 0-.2-.1-.2-.1v-3.3c.1.1.1.1.2.1" clip-path="url(#cl)"/>
  <path fill="#EAF6FA" d="M256.9 394.6v3.3c-.1 0-.1-.1-.2-.1v-3.3c.1 0 .1 0 .2.1" clip-path="url(#cl)"/>
  <defs>
    <path id="cm" d="M247.3 398v-3.3c0 .3.2.5.5.7v3.3c-.4-.1-.5-.4-.5-.7z"/>
  </defs>
  <clipPath id="cn">
    <use xlink:href="#cm" overflow="visible"/>
  </clipPath>
  <path fill="#EAF6FA" d="M247.8 395.4v3.3h-.1l.1-3.3" clip-path="url(#cn)"/>
  <path fill="#E6F4F9" d="M247.8 395.4v3.3s-.1 0-.1-.1v-3.3c0 .1 0 .1.1.1" clip-path="url(#cn)"/>
  <path fill="#E2F3F9" d="M247.6 395.3v3.3s-.1 0-.1-.1l.1-3.2" clip-path="url(#cn)"/>
  <path fill="#DEF1F8" d="M247.6 395.3v3.3l-.1-.1.1-3.2c-.1-.1-.1 0 0 0" clip-path="url(#cn)"/>
  <path fill="#DAEFF7" d="M247.5 395.2v3.2-3.2" clip-path="url(#cn)"/>
  <path fill="#D5EDF6" d="M247.5 395.2v3.2-3.2c-.1-.1-.1-.1 0 0" clip-path="url(#cn)"/>
  <path fill="#D1ECF5" d="M247.4 395.1v3.2-3.2" clip-path="url(#cn)"/>
  <path fill="#CDEAF4" d="M247.4 395.1v3.2-3.2c0-.1 0-.1 0 0" clip-path="url(#cn)"/>
  <path fill="#C9E8F3" d="M247.4 395v3.2-3.2c-.1 0-.1 0 0 0" clip-path="url(#cn)"/>
  <path fill="#C5E6F2" d="M247.3 395v3.2-3.2c0-.1 0-.1 0 0" clip-path="url(#cn)"/>
  <path fill="#C1E5F1" d="M247.3 394.9v3.2-3.2" clip-path="url(#cn)"/>
  <path fill="#BCE3F0" d="M247.3 394.9v3.2-3.2c0-.1 0-.1 0 0" clip-path="url(#cn)"/>
  <path fill="#B8E1EF" d="M247.3 394.8v3.2-3.2" clip-path="url(#cn)"/>
  <path fill="#B4DFEE" d="M247.3 394.8v3.3-3.3c0-.1 0-.1 0 0" clip-path="url(#cn)"/>
  <defs>
    <path id="co" d="M255.7 395.7v3.3c0 .3-.2.5-.5.7v-3.3c.3-.2.5-.4.5-.7z"/>
  </defs>
  <clipPath id="cp">
    <use xlink:href="#co" overflow="visible"/>
  </clipPath>
  <path fill="#9BD5E9" d="M255.7 395.7v3.3c0 .3-.2.5-.5.7v-3.3c.3-.2.5-.4.5-.7" clip-path="url(#cp)"/>
  <path fill="#A3D8EB" d="M255.1 396.4v3.4l-1.5.9v-3.4"/>
  <path fill="#F4FAFD" d="M251.1 397.3v3.4l-3.3-1.9v-3.4"/>
  <path fill="#BAE2F0" d="M255.1 395c.7.4.7 1.1 0 1.5l-1.5.9c-.7.4-1.8.4-2.5 0l-3.3-1.9c-.7-.4-.7-1.1 0-1.5l1.5-.9c.7-.4 1.8-.4 2.5 0l3.3 1.9z"/>
  <defs>
    <path id="cq" d="M253.6 397.3v3.3c-.7.4-1.8.4-2.5 0v-3.3c.7.4 1.8.4 2.5 0z"/>
  </defs>
  <clipPath id="cr">
    <use xlink:href="#cq" overflow="visible"/>
  </clipPath>
  <path fill="#9BD5E9" d="M253.6 397.3v3.3-3.3c0 .1 0 0 0 0" clip-path="url(#cr)"/>
  <path fill="#9FD7EA" d="M253.6 397.4v3.3s-.1 0-.1.1v-3.3c0-.1 0-.1.1-.1" clip-path="url(#cr)"/>
  <path fill="#A3D8EB" d="M253.4 397.4v3.3h-.1v-3.3c.1.1.1 0 .1 0" clip-path="url(#cr)"/>
  <path fill="#A8DAEC" d="M253.3 397.5v3.3h-.1v-3.3h.1" clip-path="url(#cr)"/>
  <path fill="#ACDCED" d="M253.2 397.5v3.3h-.1l.1-3.3" clip-path="url(#cr)"/>
  <path fill="#B0DEEE" d="M253.1 397.5v3.3h-.1l.1-3.3c0 .1 0 0 0 0" clip-path="url(#cr)"/>
  <path fill="#B4DFEE" d="M253 397.6v3.3h-.1l.1-3.3" clip-path="url(#cr)"/>
  <path fill="#B8E1EF" d="M252.9 397.6v3.3h-.1l.1-3.3" clip-path="url(#cr)"/>
  <path fill="#BCE3F0" d="M252.9 397.6v3.3h-.1l.1-3.3c-.1 0-.1 0 0 0" clip-path="url(#cr)"/>
  <path fill="#C1E5F1" d="M252.8 397.6v3.3h-.1l.1-3.3c-.1 0-.1 0 0 0" clip-path="url(#cr)"/>
  <path fill="#C5E6F2" d="M252.7 397.6v3.3h-.1l.1-3.3c-.1 0 0 0 0 0" clip-path="url(#cr)"/>
  <path fill="#C9E8F3" d="M252.6 397.6v3.3h-.1l.1-3.3c-.1 0 0 0 0 0" clip-path="url(#cr)"/>
  <path fill="#CDEAF4" d="M252.5 397.6v3.3h-.1l.1-3.3c-.1 0 0 0 0 0" clip-path="url(#cr)"/>
  <path fill="#D1ECF5" d="M252.4 397.6v3.3h-.1l.1-3.3" clip-path="url(#cr)"/>
  <path fill="#D5EDF6" d="M252.3 397.6v3.3h-.1l.1-3.3" clip-path="url(#cr)"/>
  <path fill="#DAEFF7" d="M252.2 397.6v3.3h-.1v-3.3h.1" clip-path="url(#cr)"/>
  <path fill="#DEF1F8" d="M252.1 397.6v3.3h-.1v-3.3h.1" clip-path="url(#cr)"/>
  <path fill="#E2F3F9" d="M252 397.6v3.3h-.1v-3.3h.1" clip-path="url(#cr)"/>
  <path fill="#E6F4F9" d="M251.9 397.6v3.3h-.1v-3.3h.1" clip-path="url(#cr)"/>
  <path fill="#EAF6FA" d="M251.7 397.6v3.3c-.1 0-.2 0-.3-.1v-3.3c.2 0 .3.1.3.1" clip-path="url(#cr)"/>
  <path fill="#EEF8FB" d="M251.5 397.5v3.3c-.1 0-.2-.1-.2-.1v-3.3c0 .1.1.1.2.1" clip-path="url(#cr)"/>
  <path fill="#EAF6FA" d="M251.3 397.4v3.3c-.1 0-.1-.1-.2-.1v-3.3c0 .1.1.1.2.1" clip-path="url(#cr)"/>
  <defs>
    <path id="cs" d="M239.9 415.8v-7.2l2 1.1v7.2z"/>
  </defs>
  <use fill="#FFBD6A" xlink:href="#cs" overflow="visible"/>
  <clipPath id="ct">
    <use xlink:href="#cs" overflow="visible"/>
  </clipPath>
  <path fill="#FFBD6A" d="M241.9 409.7l-2-1.1v7.2l2 1.1v-7.2" clip-path="url(#ct)"/>
  <defs>
    <path id="cu" d="M242.7 417.4v-7.2l1.9 1.1v7.2z"/>
  </defs>
  <use fill="#FFBD6A" xlink:href="#cu" overflow="visible"/>
  <clipPath id="cv">
    <use xlink:href="#cu" overflow="visible"/>
  </clipPath>
  <path fill="#FFBD6A" d="M244.6 411.3l-1.9-1.1v7.2l1.9 1.1v-7.2" clip-path="url(#cv)"/>
  <path fill="#F5967F" d="M314.5 425.9l-14.5 8.4-29.5-17 14.5-8.4"/>
  <path fill="#F1526B" d="M314.5 425.9l-.1 32.6-14.5 8.4.1-32.6"/>
  <path fill="#FFCABE" d="M300 434.3l-.1 32.6-29.5-17 .1-32.6"/>
  <defs>
    <path id="cw" d="M304.3 459.9v-13.8l3.5-2v13.8z"/>
  </defs>
  <clipPath id="cx">
    <use xlink:href="#cw" overflow="visible"/>
  </clipPath>
  <path fill="#FFF" d="M307.8 444.1l-3.5 2v13.8l3.5-2v-13.8" clip-path="url(#cx)"/>
  <defs>
    <path id="cy" d="M308.4 457.6l-.1-13.7 3.5-2.1.1 13.8z"/>
  </defs>
  <clipPath id="cz">
    <use xlink:href="#cy" overflow="visible"/>
  </clipPath>
  <path fill="#FFF" d="M311.8 441.8l-3.5 2.1.1 13.7 3.5-2-.1-13.8" clip-path="url(#cz)"/>
  <defs>
    <path id="cA" d="M272.4 422.1V420l14.3 8.2-.1 2.1z"/>
  </defs>
  <clipPath id="cB">
    <use xlink:href="#cA" overflow="visible"/>
  </clipPath>
  <path fill="#FFF" d="M286.7 428.2l-14.3-8.2v2.1l14.2 8.2.1-2.1" clip-path="url(#cB)"/>
  <defs>
    <path id="cC" d="M272.4 424.8v-2l14.3 8.2-.1 2.1z"/>
  </defs>
  <clipPath id="cD">
    <use xlink:href="#cC" overflow="visible"/>
  </clipPath>
  <path fill="#FFF" d="M286.7 431l-14.3-8.2v2l14.2 8.3.1-2.1" clip-path="url(#cD)"/>
  <path fill="#FFE298" d="M307.7 423.3l-6.9 3.9-4.1-2.3 6.8-4"/>
  <path fill="#FFBD6A" d="M307.7 423.3v3.6l-6.9 4v-3.7"/>
  <path fill="#FFFAEF" d="M300.8 427.2v3.7l-4.1-2.4v-3.6"/>
  <path fill="#C8E5EE" d="M349.8 570.5l5.3 3 5.9-3.4-5.2-3"/>
  <path fill="#EDF6F9" d="M349.8 570.5l.1 11.4 5.2 3v-11.4"/>
  <path fill="#43A4C9" d="M355.1 573.5v11.4l5.9-3.4v-11.4"/>
  <defs>
    <path id="cE" d="M368.7 543l-9.9-5.7c-.5-.3-1.2-.3-2 .2l9.9 5.7c.8-.4 1.5-.5 2-.2z"/>
  </defs>
  <use fill="#FFE2A9" xlink:href="#cE" overflow="visible"/>
  <clipPath id="cF">
    <use xlink:href="#cE" overflow="visible"/>
  </clipPath>
  <path fill="#FFE2A9" d="M368.7 543l-9.9-5.7c-.2-.1-.4-.2-.7-.2l9.9 5.7c.2 0 .5.1.7.2" clip-path="url(#cF)"/>
  <path fill="#FFE2A9" d="M368 542.8l-9.9-5.7c-.4 0-.8.1-1.3.4l9.9 5.7c.5-.3.9-.4 1.3-.4" clip-path="url(#cF)"/>
  <defs>
    <path id="cG" d="M338.2 572.6l9.9 5.7c-.5-.3-.8-.9-.8-1.8l-9.9-5.7c0 .9.3 1.5.8 1.8z"/>
  </defs>
  <use fill="#FFE8C0" xlink:href="#cG" overflow="visible"/>
  <clipPath id="cH">
    <use xlink:href="#cG" overflow="visible"/>
  </clipPath>
  <path fill="#FFE8C0" d="M347.3 576.5l-9.9-5.7c0 .9.3 1.5.8 1.8l9.9 5.7c-.5-.3-.8-.9-.8-1.8" clip-path="url(#cH)"/>
  <path fill="#FFF5D4" d="M347.2 557.6l-9.9-5.7.1 18.9 9.9 5.7"/>
  <path fill="#FFDD8E" d="M366.7 543.2l-9.9-5.7-16.7 9.6 9.9 5.8"/>
  <path fill="#FFEBD3" d="M350 552.9c-1.5.9-2.8 3-2.7 4.8l.1 18.9c0 1.8 1.2 2.5 2.8 1.6l16.8-9.7c1.5-.9 2.8-3 2.8-4.8l-.1-18.9c0-1.8-1.2-2.5-2.8-1.6l-16.9 9.7z"/>
  <defs>
    <path id="cI" d="M350 552.9l-9.9-5.7c-1.5.9-2.8 3-2.7 4.8l9.9 5.7c-.1-1.8 1.1-4 2.7-4.8z"/>
  </defs>
  <clipPath id="cJ">
    <use xlink:href="#cI" overflow="visible"/>
  </clipPath>
  <path fill="#FFDA91" d="M350 552.9l-9.9-5.7 9.9 5.7c-.1 0-.1 0 0 0" clip-path="url(#cJ)"/>
  <path fill="#FFE2A9" d="M349.9 552.9l-9.9-5.7c-.7.4-1.3 1-1.7 1.8l9.9 5.7c.4-.8 1-1.4 1.7-1.8" clip-path="url(#cJ)"/>
  <path fill="#FFE8C0" d="M348.2 554.7l-9.9-5.7c-.3.5-.6 1.1-.8 1.7l9.9 5.7c.2-.6.4-1.2.8-1.7" clip-path="url(#cJ)"/>
  <path fill="#FFF0C5" d="M347.4 556.4l-9.9-5.7c-.1.4-.2.8-.2 1.2l9.9 5.7c0-.4.1-.8.2-1.2" clip-path="url(#cJ)"/>
  <defs>
    <path id="cK" d="M369.5 566.9l-.1-25.3-22.2 12.9v25.2z"/>
  </defs>
  <clipPath id="cL">
    <use xlink:href="#cK" overflow="visible"/>
  </clipPath>
  <path fill="#FFB3A4" d="M366.8 567.3L350 577c-1 .6-1.8.1-1.8-1l-.1-18.9c0-1.1.8-2.5 1.8-3.1l16.8-9.7c1-.6 1.8-.1 1.8 1l.1 18.9c-.1 1.2-.9 2.6-1.8 3.1m-16.9-14.4c-1.5.9-2.8 3-2.7 4.8l.1 18.9c0 1.7 1.2 2.5 2.8 1.6l16.8-9.7c1.5-.9 2.8-3 2.7-4.8l-.1-18.9c0-1.8-1.2-2.5-2.8-1.6l-16.8 9.7" clip-path="url(#cL)"/>
  <defs>
    <path id="cM" d="M349.9 552.9c-1.5.9-2.8 3-2.7 4.8l.1 18.9c0 1.8 1.2 2.5 2.8 1.6l16.8-9.7c1.5-.9 2.8-3 2.8-4.8l-.1-18.9c0-1.8-1.2-2.5-2.8-1.6l-16.9 9.7z"/>
  </defs>
  <clipPath id="cN">
    <use xlink:href="#cM" overflow="visible"/>
  </clipPath>
  <g clip-path="url(#cN)">
    <defs>
      <path id="cO" d="M348.1 582l-.1-29.5 20.7-11.9.1 29.5z"/>
    </defs>
    <clipPath id="cP">
      <use xlink:href="#cO" overflow="visible"/>
    </clipPath>
    <g clip-path="url(#cP)">
      <path fill="#FFEBD3" d="M368.7 540.6L348 552.5l.1 24.1c0 1.5 1.1 2.2 2.4 1.4l3-1.7.9-.5c1.2-.7 2.3-.8 3.1-.2l.9.5.9-1.6c.8-1.5 1.9-2.7 3.1-3.4l.9-.5 3-1.7c1.3-.8 2.4-2.7 2.4-4.2v-24.1"/>
    </g>
    <defs>
      <path id="cQ" d="M351.5 574.3v-15.8l13.7-7.9.1 15.8z"/>
    </defs>
    <clipPath id="cR">
      <use xlink:href="#cQ" overflow="visible"/>
    </clipPath>
    <g clip-path="url(#cR)">
      <path fill="#FCBD87" d="M358.4 554.6c-3.8 2.2-6.9 7.5-6.8 11.9 0 4.4 3.1 6.1 6.9 3.9 3.8-2.2 6.9-7.5 6.8-11.9s-3.2-6.1-6.9-3.9"/>
    </g>
    <defs>
      <path id="cS" d="M354.3 569.5v-9.4l8.1-4.7.1 9.4z"/>
    </defs>
    <clipPath id="cT">
      <use xlink:href="#cS" overflow="visible"/>
    </clipPath>
    <g clip-path="url(#cT)">
      <path fill="#F6995E" d="M358.4 557.8c-2.3 1.3-4.1 4.5-4.1 7.1 0 2.6 1.8 3.6 4.1 2.3 2.3-1.3 4.1-4.5 4.1-7 0-2.7-1.9-3.7-4.1-2.4"/>
    </g>
    <defs>
      <path id="cU" d="M348.1 583.8l-.1-13.9 20.7-11.9v13.8z"/>
    </defs>
    <clipPath id="cV">
      <use xlink:href="#cU" overflow="visible"/>
    </clipPath>
    <g clip-path="url(#cV)">
      <path fill="#2D5C6B" d="M367.4 558.7c-4.7 2.7-8 5.8-11.5 9.1 1.8-.7 3.5-1.1 5.1-1.4-1.6.3-3.2.7-5 1.3 4.3-2.5 7.9-3.8 12.6-6.1V558c-.3.2-.7.5-1.2.7"/>
      <path fill="#4696B2" d="M351.8 569.8c-1.3.8-2.6 1.7-3.8 2.8v5.8c0 .4.1.7.2 1-.1-.3-.2-.6-.2-1v-1.3c4.1-2.8 8.4-6.1 13.6-9.4.8-.6 1.6-1.2 2.5-1.8-1 .2-2.1.4-3.1.6-1.6.3-3.3.7-5.1 1.4-1.3.4-2.6 1.1-4.1 1.9"/>
      <path fill="#0D2F49" d="M365.2 565.3s-.1 0 0 0c1.2-.7 2.4-1.2 3.6-1.7-1.3.4-2.5 1-3.6 1.7" opacity="0.502"/>
      <path fill="#1D455A" d="M356.1 567.8c1.7-.6 3.4-1 5-1.3 1-.2 2.1-.4 3.1-.6.3-.2.6-.4 1-.6 1.1-.7 2.4-1.2 3.6-1.7v-1.9c-4.8 2.3-8.5 3.6-12.7 6.1"/>
      <path fill="#29627D" d="M361 566.5c1-.2 2.1-.4 3.1-.6-1 .2-2 .4-3.1.6"/>
      <path fill="#357691" d="M361.6 567.6c-5.2 3.3-9.5 6.6-13.6 9.4v1.3c0 .4.1.7.2 1 1.6-1.3 3-2.6 4.6-3.9 2.9-2.4 5.5-5.3 8.8-7.8"/>
      <path fill="#82D5E8" d="M365.1 565.3c-.3.2-.6.4-1 .6-.9.6-1.7 1.1-2.5 1.8-3.3 2.5-6 5.3-8.8 7.8-1.6 1.3-3 2.6-4.6 3.9.4.8 1.2 1 2.2.4l3-1.7.9-.5c1.2-.7 2.3-.8 3.1-.2l.9.5.9-1.6c.8-1.5 1.9-2.7 3.1-3.4l.9-.5 3-1.7c1.3-.8 2.4-2.7 2.4-4.2v-2.8c-1.1.3-2.3.9-3.5 1.6"/>
    </g>
  </g>
  <path fill="#FFB3A4" d="M366.8 567.3L350 577c-1 .6-1.8.1-1.8-1l-.1-18.9c0-1.1.8-2.5 1.8-3.1l16.8-9.7c1-.6 1.8-.1 1.8 1l.1 18.9c-.1 1.2-.9 2.6-1.8 3.1m-16.9-14.4c-1.5.9-2.8 3-2.7 4.8l.1 18.9c0 1.7 1.2 2.5 2.8 1.6l16.8-9.7c1.5-.9 2.8-3 2.7-4.8l-.1-18.9c0-1.8-1.2-2.5-2.8-1.6l-16.8 9.7"/>
  <ellipse cx="306.7" cy="405.9" fill="#FFF" rx="0.7" ry="0.8"/>
  <path fill="#FFF" d="M306.6 406.6v.3s.4-.1.5.1c0 0 0 .4-.5.4s-.6-.5-.6-.5.3-.1.4 0v-.4l.2.1zm.7.5c.3.3.2 3.2.2 3.2s0 .2-.1.2c-.2 0-.2-.2-.2-.2v-2.1l.1-1.1zm-1.2 4.6l-.1 2.5s0 .2-.2.2-.2-.2-.2-.2l.1-2.6.4.1zm1.2-.1l.1 2.5s0 .2-.1.2c-.2 0-.2-.2-.2-.2l-.2-2.6.4.1zm-1.4-4.6l-.1 3.5s0 .2-.1.2c-.2 0-.1-.1-.1-.2s.1-3 .1-3 0-.4.2-.5z"/>
  <path fill="#F5967F" d="M307.3 410l.1 2.2h-.5l-.1-1.7h-.5v1.7h-.6l.1-2.2"/>
  <path fill="#9BC183" d="M307.1 406.9s.2 0 .2.2l.1 2.9h-1.6l.1-3.1s.1-.1.2-.1c0 0 0 .3.4.3.2.1.6.2.6-.2z"/>
  <path fill="#3F3F3F" d="M306.7 405s.8-.1.9.6c0 .8.6 2.3 0 3.1-.6.8-1.7.5-2.1 0-.3-.4.1-3.1.5-3.5.4-.3.7-.2.7-.2z"/>
  <ellipse cx="159.8" cy="381" fill="#FFF" rx="0.7" ry="0.8"/>
  <path fill="#FFF" d="M159.7 381.7v.3s.4-.1.5.1c0 0 0 .4-.5.4s-.6-.5-.6-.5.3-.1.4 0v-.4l.2.1zm.9 1.8v2.5s0 .2-.1.2c-.2 0-.2-.2-.2-.2v-2.6l.3.1zm-1.6.2v2.5s0 .2-.1.2c-.2 0-.2-.2-.2-.2v-2.6l.3.1z"/>
  <path fill="#FFE29D" d="M160.4 380.5s-.9.4-1.1 0c0 0 0-.4.3-.4.3-.1.8.2.8.4z"/>
  <path fill="#3F3F3F" d="M159.4 385.2l-.2 4.1s0 .3-.2.3c-.3 0-.2-.2-.2-.2l.2-4.1.4-.1zm.8 0v4.1s0 .3-.2.3c-.3 0-.2-.2-.2-.2v-4.1l.4-.1z"/>
  <path fill="#0066AE" d="M160.1 382s.6 0 .6 1.6h-.3v1.7h-1.5v-1.6l-.4-.1s-.1-1.6.7-1.6c0 0-.1.4.4.4 0 0 .5 0 .5-.4z"/>
  <path fill="#FFE29D" d="M159.2 381.3s.5.6 1.2.1c.1-.1.3-.7 0-.9 0-.1-1.1 0-1.1 0s-.4.3-.1.8z"/>
  <defs>
    <path id="cW" d="M350.3 431.5v-1.9l1.6-1v1.9z"/>
  </defs>
  <clipPath id="cX">
    <use xlink:href="#cW" overflow="visible"/>
  </clipPath>
  <g clip-path="url(#cX)">
    <path fill="#4C4C4C" d="M351.1 429.1c-.5.3-.8.9-.8 1.4 0 .5.4.7.8.5.5-.3.8-.9.8-1.4 0-.5-.3-.7-.8-.5"/>
  </g>
  <defs>
    <path id="cY" d="M356.1 428.1v-1.9l1.6-.9v1.9z"/>
  </defs>
  <clipPath id="cZ">
    <use xlink:href="#cY" overflow="visible"/>
  </clipPath>
  <g clip-path="url(#cZ)">
    <path fill="#4C4C4C" d="M356.9 425.7c-.5.3-.8.9-.8 1.4 0 .5.4.7.8.5.5-.3.8-.9.8-1.4 0-.5-.3-.7-.8-.5"/>
  </g>
  <path fill="#F8B9AA" d="M356.4 425l-5.5-3.2 2.7-.8 5.4 3.2"/>
  <defs>
    <path id="da" d="M352 425.4l-5.5-3.2c3-1.7 3.2-1.8 3.2-1.8l5.5 3.2c-.1 0-.2.1-3.2 1.8z"/>
  </defs>
  <use fill="#F8B9AA" xlink:href="#da" overflow="visible"/>
  <clipPath id="db">
    <use xlink:href="#da" overflow="visible"/>
  </clipPath>
  <g fill="#F8B9AA" clip-path="url(#db)">
    <path d="M352 425.4l-5.5-3.2c2-1.1 2.7-1.5 3-1.7l5.5 3.2c-.3.1-1 .5-3 1.7"/>
    <path d="M355 423.7l-5.5-3.2c.1-.1.1-.1.2-.1l5.5 3.2c-.1 0-.1 0-.2.1m.1-.1l-5.4-3.2 5.4 3.2"/>
  </g>
  <defs>
    <path id="dc" d="M350.4 428.5l-5.5-3.2c.7-1.4 1.6-3 1.6-3.1l5.5 3.2s-.9 1.7-1.6 3.1z"/>
  </defs>
  <use fill="#FEF4F2" xlink:href="#dc" overflow="visible"/>
  <clipPath id="dd">
    <use xlink:href="#dc" overflow="visible"/>
  </clipPath>
  <g fill="#FEF4F2" clip-path="url(#dd)">
    <path d="M350.4 428.5l-5.5-3.2c.6-1.3 1.4-2.8 1.5-3l5.5 3.2c-.1.2-.9 1.7-1.5 3m1.6-3.1l-5.5-3.2 5.5 3.2m0 0l-5.5-3.2 5.5 3.2m0 0l-5.5-3.2 5.5 3.2m0 0l-5.5-3.2 5.5 3.2m0 0l-5.5-3.2 5.5 3.2m0 0l-5.5-3.2 5.5 3.2m0 0l-5.5-3.2 5.5 3.2m0 0l-5.5-3.2 5.5 3.2m0 0l-5.5-3.2 5.5 3.2m0 0l-5.5-3.2 5.5 3.2m0 0l-5.5-3.2 5.5 3.2m0 0l-5.5-3.2 5.5 3.2m0 0l-5.5-3.2 5.5 3.2m0 0l-5.5-3.2 5.5 3.2m0 0l-5.5-3.2 5.5 3.2"/>
  </g>
  <path fill="#DD7B6B" d="M352 425.4c3-1.7 3.2-1.8 3.2-1.8l1.2 1.4 2.7-.8v1.3l-10.2 5.9v-1.7l1.6-1.1c.6-1.5 1.5-3.2 1.5-3.2z"/>
  <path fill="#FEF4F2" d="M348.9 431.3l-5.5-3.1v-1.8l5.5 3.2"/>
  <path fill="#F8B9AA" d="M348.9 429.6l-5.5-3.2 1.6-1.1 5.4 3.2"/>
  <defs>
    <path id="de" d="M351 428.1l-1.9-1 4.3-2.2v1.7z"/>
  </defs>
  <clipPath id="df">
    <use xlink:href="#de" overflow="visible"/>
  </clipPath>
  <g clip-path="url(#df)">
    <path fill="#4C4C4C" d="M353.4 424.9l-1.1.6-1.2 2.5 2.3-1.4v-1.7"/>
  </g>
  <defs>
    <path id="dg" d="M353.7 426.5l-.1-1.7 2.1-1.3.5 1.6z"/>
  </defs>
  <clipPath id="dh">
    <use xlink:href="#dg" overflow="visible"/>
  </clipPath>
  <g clip-path="url(#dh)">
    <path fill="#4C4C4C" d="M355 424l-1.4.8.1 1.7 2.3-1.3-1-1.2"/>
  </g>
  <path fill="#4C4C4C" d="M346.7 422.7l-1.3 2.5 4.8 2.8 1.3-2.6"/>
  <defs>
    <path id="di" d="M343.4 427.3v-.6l1.3.7v.6z"/>
  </defs>
  <clipPath id="dj">
    <use xlink:href="#di" overflow="visible"/>
  </clipPath>
  <g clip-path="url(#dj)">
    <path fill="#F5967F" d="M344.7 427.4l-1.3-.7v.6l1.3.7v-.6"/>
  </g>
  <defs>
    <path id="dk" d="M347.6 429.7v-.6l1.3.8v.6z"/>
  </defs>
  <clipPath id="dl">
    <use xlink:href="#dk" overflow="visible"/>
  </clipPath>
  <g clip-path="url(#dl)">
    <path fill="#F5967F" d="M348.9 429.9l-1.3-.8v.6l1.3.8v-.6"/>
  </g>
  <defs>
    <path id="dm" d="M343.4 427.4v-.1l1.3.7v.2z"/>
  </defs>
  <clipPath id="dn">
    <use xlink:href="#dm" overflow="visible"/>
  </clipPath>
  <g clip-path="url(#dn)">
    <path fill="#FFD07D" d="M344.7 428l-1.3-.7v.1l1.3.8v-.2"/>
  </g>
  <defs>
    <path id="do" d="M347.6 429.9v-.2l1.3.8v.1z"/>
  </defs>
  <clipPath id="dp">
    <use xlink:href="#do" overflow="visible"/>
  </clipPath>
  <g clip-path="url(#dp)">
    <path fill="#FFD07D" d="M348.9 430.5l-1.3-.8v.2l1.3.7v-.1"/>
  </g>
  <defs>
    <path id="dq" d="M345.3 445.9V444l1.7-1v1.9z"/>
  </defs>
  <clipPath id="dr">
    <use xlink:href="#dq" overflow="visible"/>
  </clipPath>
  <g clip-path="url(#dr)">
    <path fill="#4C4C4C" d="M346.2 443.5c-.5.3-.8.9-.8 1.4 0 .5.4.7.8.5.5-.3.8-.9.8-1.4 0-.6-.4-.8-.8-.5"/>
  </g>
  <defs>
    <path id="ds" d="M351.1 442.5v-1.9l1.7-1v1.9z"/>
  </defs>
  <clipPath id="dt">
    <use xlink:href="#ds" overflow="visible"/>
  </clipPath>
  <g clip-path="url(#dt)">
    <path fill="#4C4C4C" d="M352 440.1c-.5.3-.8.9-.8 1.4 0 .5.4.7.8.5.5-.3.8-.9.8-1.4 0-.6-.4-.8-.8-.5"/>
  </g>
  <path fill="#C8E5EE" d="M351.4 439.4l-5.4-3.2 2.6-.8 5.5 3.2"/>
  <defs>
    <path id="du" d="M347 439.7l-5.5-3.2c3-1.7 3.2-1.8 3.2-1.8l5.5 3.2c0 .1-.1.1-3.2 1.8z"/>
  </defs>
  <use fill="#C8E5EE" xlink:href="#du" overflow="visible"/>
  <clipPath id="dv">
    <use xlink:href="#du" overflow="visible"/>
  </clipPath>
  <g fill="#C8E5EE" clip-path="url(#dv)">
    <path d="M347 439.7l-5.5-3.2c2-1.1 2.7-1.5 3-1.7l5.5 3.2c-.2.2-1 .6-3 1.7"/>
    <path d="M350 438l-5.5-3.2c.1-.1.1-.1.2-.1l5.5 3.2c0 .1-.1.1-.2.1m.2 0l-5.5-3.2 5.5 3.2"/>
  </g>
  <defs>
    <path id="dw" d="M345.5 442.8l-5.5-3.2c.7-1.4 1.6-3 1.6-3.1l5.5 3.2c-.1.1-1 1.7-1.6 3.1z"/>
  </defs>
  <use fill="#F6FBFC" xlink:href="#dw" overflow="visible"/>
  <clipPath id="dx">
    <use xlink:href="#dw" overflow="visible"/>
  </clipPath>
  <g fill="#F6FBFC" clip-path="url(#dx)">
    <path d="M345.5 442.8l-5.5-3.2c.6-1.3 1.4-2.8 1.5-3l5.5 3.2c-.1.2-.9 1.7-1.5 3m1.5-3l-5.5-3.2 5.5 3.2m0 0l-5.4-3.2 5.4 3.2m0 0l-5.4-3.2 5.4 3.2"/>
    <path d="M347 439.8l-5.4-3.2 5.4 3.1v.1m0-.1l-5.4-3.1 5.4 3.1m0 0l-5.4-3.1 5.4 3.1m0 0l-5.4-3.1 5.4 3.1m0 0l-5.4-3.1 5.4 3.1m0 0l-5.4-3.1 5.4 3.1m0 0l-5.4-3.1 5.4 3.1m0 0l-5.4-3.1 5.4 3.1m0 0l-5.4-3.1 5.4 3.1m0 0l-5.4-3.1 5.4 3.1m0 0l-5.4-3.1 5.4 3.1m0 0l-5.4-3.1 5.4 3.1"/>
  </g>
  <path fill="#8FC5D1" d="M347 439.7c3-1.7 3.2-1.8 3.2-1.8l1.2 1.4 2.7-.8v1.3l-10.2 5.9V444l1.6-1.1c.6-1.5 1.5-3.1 1.5-3.2z"/>
  <path fill="#F6FBFC" d="M343.9 445.7l-5.4-3.2v-1.7l5.4 3.1"/>
  <path fill="#C8E5EE" d="M343.9 443.9l-5.4-3.1 1.5-1.2 5.5 3.2"/>
  <defs>
    <path id="dy" d="M346 442.4l-1.9-.9 4.4-2.3v1.8z"/>
  </defs>
  <clipPath id="dz">
    <use xlink:href="#dy" overflow="visible"/>
  </clipPath>
  <g clip-path="url(#dz)">
    <path fill="#4C4C4C" d="M348.5 439.2l-1.1.7-1.2 2.4 2.3-1.3v-1.8"/>
  </g>
  <defs>
    <path id="dA" d="M348.7 440.9v-1.8l2.1-1.2.5 1.5z"/>
  </defs>
  <clipPath id="dB">
    <use xlink:href="#dA" overflow="visible"/>
  </clipPath>
  <g clip-path="url(#dB)">
    <path fill="#4C4C4C" d="M350.1 438.3l-1.4.8v1.8l2.4-1.4-1-1.2"/>
  </g>
  <path fill="#4C4C4C" d="M341.8 437l-1.3 2.5 4.8 2.8 1.2-2.5"/>
  <defs>
    <path id="dC" d="M338.5 441.6v-.6l1.3.8v.6z"/>
  </defs>
  <clipPath id="dD">
    <use xlink:href="#dC" overflow="visible"/>
  </clipPath>
  <g clip-path="url(#dD)">
    <path fill="#F5967F" d="M339.8 441.8l-1.3-.8v.6l1.3.8v-.6"/>
  </g>
  <defs>
    <path id="dE" d="M342.6 444.1v-.6l1.3.7v.6z"/>
  </defs>
  <clipPath id="dF">
    <use xlink:href="#dE" overflow="visible"/>
  </clipPath>
  <g clip-path="url(#dF)">
    <path fill="#F5967F" d="M343.9 444.2l-1.3-.7v.6l1.3.7v-.6"/>
  </g>
  <defs>
    <path id="dG" d="M338.5 441.8v-.2l1.3.8v.1z"/>
  </defs>
  <clipPath id="dH">
    <use xlink:href="#dG" overflow="visible"/>
  </clipPath>
  <g clip-path="url(#dH)">
    <path fill="#FFD07D" d="M339.8 442.4l-1.3-.8v.2l1.3.7v-.1"/>
  </g>
  <defs>
    <path id="dI" d="M342.6 444.2v-.1l1.3.7v.2z"/>
  </defs>
  <clipPath id="dJ">
    <use xlink:href="#dI" overflow="visible"/>
  </clipPath>
  <g clip-path="url(#dJ)">
    <path fill="#FFD07D" d="M343.9 444.8l-1.3-.7v.1l1.3.8v-.2"/>
  </g>
</svg>
