<svg xmlns="http://www.w3.org/2000/svg" x="0px" y="0px" xmlns:xlink="http://www.w3.org/1999/xlink" viewBox="0 0 1440 875.8">
  <path fill="#43A4C9" d="M884.5 283.4l.1 47.9-70.9 40.9-.1-47.9"/>
  <path fill="#EDF6F9" d="M813.7 372.2l-20.7-12-.1-47.9 20.7 12"/>
  <path fill="#B6DDE8" d="M813.6 324.3l-20.7-12 70.9-41 20.7 12.1"/>
  <path fill="#EDF6F9" d="M803.2 306.5l-10.3 5.8 20.7 12.2"/>
  <path fill="#C1432F" d="M803.2 306.5l70.6-41.1-10.8 5.9-70.6 41.3"/>
  <path fill="#F1526B" d="M813.9 325.1l70.9-41.3-11-18.4-70.6 41.1"/>
  <path fill="#EDF6F9" d="M825 372.4l-5.8-3.3-.1-46.5 5.7 3.3"/>
  <path fill="#B6DDE8" d="M824.8 325.9l-5.7-3.3 9.6-5.5 5.7 3.3"/>
  <path fill="#EDF6F9" d="M874.7 343.7l-5.8-3.3-.1-46.5 5.7 3.3"/>
  <path fill="#B6DDE8" d="M874.5 297.2l-5.7-3.3 9.6-5.5 5.7 3.3"/>
  <path fill="#F4A395" d="M834.8 320.6l-6.1-3.5-4.9-2.5 5.8 3.3"/>
  <path fill="#43A4C9" d="M834.5 366.9l-.1-46.5-.4.2.4-.2-4.8-2.5-4.8 8v.1l.2 46.4"/>
  <path fill="#FFCABE" d="M829.6 317.9l-5.8-3.3-4.9 8.3 5.8 3.3"/>
  <path fill="#F4A395" d="M884.4 291.8l-6-3.4-4.9-2.5 5.9 3.5"/>
  <path fill="#43A4C9" d="M884.3 291.7l-5-2.5-4.8 8.1h.1l.1 46.4 9.6-5.5-.2-46.4"/>
  <path fill="#FFCABE" d="M879.3 289.2l-5.8-3.3-4.9 8.2 5.8 3.4"/>
  <defs>
    <path id="a" d="M831.1 332.9l-.1-2.3-2.8 1.6v2.3z"/>
  </defs>
  <use fill="#FFF" xlink:href="#a" overflow="visible"/>
  <clipPath id="b">
    <use xlink:href="#a" overflow="visible"/>
  </clipPath>
  <g clip-path="url(#b)">
    <path fill="#FFF" d="M828.2 332.2l2.8-1.6.1 2.3-2.9 1.6v-2.3"/>
  </g>
  <defs>
    <path id="c" d="M831.1 330.1l-.1-2.3-2.8 1.7v2.3z"/>
  </defs>
  <use fill="#FFF" xlink:href="#c" overflow="visible"/>
  <clipPath id="d">
    <use xlink:href="#c" overflow="visible"/>
  </clipPath>
  <g clip-path="url(#d)">
    <path fill="#FFF" d="M828.2 329.5l2.8-1.7.1 2.3-2.9 1.7v-2.3"/>
  </g>
  <defs>
    <path id="e" d="M831.1 347.3l-.1-2.3-2.8 1.7v2.3z"/>
  </defs>
  <use fill="#FFF" xlink:href="#e" overflow="visible"/>
  <clipPath id="f">
    <use xlink:href="#e" overflow="visible"/>
  </clipPath>
  <g clip-path="url(#f)">
    <path fill="#FFF" d="M828.2 346.7l2.8-1.7.1 2.3-2.9 1.7v-2.3"/>
  </g>
  <defs>
    <path id="g" d="M831.1 344.6l-.1-2.3-2.8 1.6v2.3z"/>
  </defs>
  <use fill="#FFF" xlink:href="#g" overflow="visible"/>
  <clipPath id="h">
    <use xlink:href="#g" overflow="visible"/>
  </clipPath>
  <g clip-path="url(#h)">
    <path fill="#FFF" d="M828.2 343.9l2.8-1.6.1 2.3-2.9 1.6v-2.3"/>
  </g>
  <defs>
    <path id="i" d="M831.1 360.5l-.1-2.3-2.8 1.7v2.3z"/>
  </defs>
  <clipPath id="j">
    <use xlink:href="#i" overflow="visible"/>
  </clipPath>
  <g clip-path="url(#j)">
    <path fill="#62A1AF" d="M828.2 359.9l2.8-1.7.1 2.3-2.9 1.7v-2.3"/>
  </g>
  <defs>
    <path id="k" d="M831.1 357.7l-.1-2.3-2.8 1.7v2.3z"/>
  </defs>
  <clipPath id="l">
    <use xlink:href="#k" overflow="visible"/>
  </clipPath>
  <g clip-path="url(#l)">
    <path fill="#62A1AF" d="M828.2 357.1l2.8-1.7.1 2.3-2.9 1.7v-2.3"/>
  </g>
  <defs>
    <path id="m" d="M880.8 305.4l-.1-2.3-2.8 1.6v2.3z"/>
  </defs>
  <use fill="#FFF" xlink:href="#m" overflow="visible"/>
  <clipPath id="n">
    <use xlink:href="#m" overflow="visible"/>
  </clipPath>
  <g clip-path="url(#n)">
    <path fill="#FFF" d="M877.9 304.7l2.8-1.6.1 2.3-2.9 1.6v-2.3"/>
  </g>
  <defs>
    <path id="o" d="M880.8 302.6l-.1-2.3-2.8 1.7v2.2z"/>
  </defs>
  <use fill="#FFF" xlink:href="#o" overflow="visible"/>
  <clipPath id="p">
    <use xlink:href="#o" overflow="visible"/>
  </clipPath>
  <g clip-path="url(#p)">
    <path fill="#FFF" d="M877.9 302l2.8-1.7.1 2.3-2.9 1.6V302"/>
  </g>
  <defs>
    <path id="q" d="M880.8 319.8l-.1-2.3-2.8 1.7v2.3z"/>
  </defs>
  <use fill="#FFF" xlink:href="#q" overflow="visible"/>
  <clipPath id="r">
    <use xlink:href="#q" overflow="visible"/>
  </clipPath>
  <g clip-path="url(#r)">
    <path fill="#FFF" d="M877.9 319.2l2.8-1.7.1 2.3-2.9 1.7v-2.3"/>
  </g>
  <defs>
    <path id="s" d="M880.8 317l-.1-2.3-2.8 1.7v2.3z"/>
  </defs>
  <use fill="#FFF" xlink:href="#s" overflow="visible"/>
  <clipPath id="t">
    <use xlink:href="#s" overflow="visible"/>
  </clipPath>
  <g clip-path="url(#t)">
    <path fill="#FFF" d="M877.9 316.4l2.8-1.7.1 2.3-2.9 1.7v-2.3"/>
  </g>
  <defs>
    <path id="u" d="M880.8 333l-.1-2.3-2.8 1.6v2.3z"/>
  </defs>
  <clipPath id="v">
    <use xlink:href="#u" overflow="visible"/>
  </clipPath>
  <g clip-path="url(#v)">
    <path fill="#62A1AF" d="M877.9 332.3l2.8-1.6.1 2.3-2.9 1.6v-2.3"/>
  </g>
  <defs>
    <path id="w" d="M880.8 330.2l-.1-2.3-2.8 1.7v2.3z"/>
  </defs>
  <clipPath id="x">
    <use xlink:href="#w" overflow="visible"/>
  </clipPath>
  <g clip-path="url(#x)">
    <path fill="#62A1AF" d="M877.9 329.6l2.8-1.7.1 2.3-2.9 1.7v-2.3"/>
  </g>
  <defs>
    <path id="y" d="M858.9 312.5v-2.3l-2.9 1.6v2.3z"/>
  </defs>
  <use fill="#FFF" xlink:href="#y" overflow="visible"/>
  <clipPath id="z">
    <use xlink:href="#y" overflow="visible"/>
  </clipPath>
  <g clip-path="url(#z)">
    <path fill="#FFF" d="M856 311.8l2.9-1.6v2.3l-2.9 1.6v-2.3"/>
  </g>
  <defs>
    <path id="A" d="M858.9 309.7v-2.3l-2.9 1.7v2.2z"/>
  </defs>
  <use fill="#FFF" xlink:href="#A" overflow="visible"/>
  <clipPath id="B">
    <use xlink:href="#A" overflow="visible"/>
  </clipPath>
  <g clip-path="url(#B)">
    <path fill="#FFF" d="M856 309.1l2.9-1.7v2.3l-2.9 1.6v-2.2"/>
  </g>
  <defs>
    <path id="C" d="M850.6 324.4v-2.3l-2.8 1.6v2.3z"/>
  </defs>
  <use fill="#FFF" xlink:href="#C" overflow="visible"/>
  <clipPath id="D">
    <use xlink:href="#C" overflow="visible"/>
  </clipPath>
  <g clip-path="url(#D)">
    <path fill="#FFF" d="M847.8 323.7l2.8-1.6v2.3l-2.8 1.6v-2.3"/>
  </g>
  <defs>
    <path id="E" d="M850.6 321.6v-2.3l-2.8 1.7v2.3z"/>
  </defs>
  <use fill="#FFF" xlink:href="#E" overflow="visible"/>
  <clipPath id="F">
    <use xlink:href="#E" overflow="visible"/>
  </clipPath>
  <g clip-path="url(#F)">
    <path fill="#FFF" d="M847.8 321l2.8-1.7v2.3l-2.8 1.7V321"/>
  </g>
  <defs>
    <path id="G" d="M805.5 342.1v-3.8l-4.6-2.7-.1 3.8z"/>
  </defs>
  <clipPath id="H">
    <use xlink:href="#G" overflow="visible"/>
  </clipPath>
  <g clip-path="url(#H)">
    <path fill="#3A7A84" d="M800.9 335.6l4.6 2.7v3.8l-4.7-2.7.1-3.8"/>
  </g>
  <defs>
    <path id="I" d="M805.5 337.5v-3.7l-4.6-2.7v3.7z"/>
  </defs>
  <clipPath id="J">
    <use xlink:href="#I" overflow="visible"/>
  </clipPath>
  <g clip-path="url(#J)">
    <path fill="#3A7A84" d="M800.9 331.1l4.6 2.7v3.7l-4.6-2.7v-3.7"/>
  </g>
  <path fill="#43A4C9" d="M813.8 336l.1 48.5-33 19.7-.2-48.5"/>
  <path fill="#B6DDE8" d="M780.7 355.7l-21-12.2 33.1-19.7 21 12.2"/>
  <path fill="#EDF6F9" d="M780.7 355.7l-.2-.1-10.4-17.9-10.3 5.9-.1-.1.2 48.6 21 12.1"/>
  <path fill="#C1432F" d="M770.1 337.7l32.8-19.9-10.9 6-32.8 20"/>
  <path fill="#F1526B" d="M781.1 356.5l33-20.1-11.2-18.6-32.8 19.9"/>
  <defs>
    <path id="K" d="M787.9 365.4v-2.3l-2.9 1.7v2.3z"/>
  </defs>
  <clipPath id="L">
    <use xlink:href="#K" overflow="visible"/>
  </clipPath>
  <g clip-path="url(#L)">
    <path fill="#62A1AF" d="M785 364.8l2.9-1.7v2.3l-2.9 1.7v-2.3"/>
  </g>
  <defs>
    <path id="M" d="M787.9 362.6v-2.3L785 362v2.3z"/>
  </defs>
  <clipPath id="N">
    <use xlink:href="#M" overflow="visible"/>
  </clipPath>
  <g clip-path="url(#N)">
    <path fill="#62A1AF" d="M785 362l2.9-1.7v2.3l-2.9 1.7V362"/>
  </g>
  <defs>
    <path id="O" d="M772.5 373.7v-3.8l-4.7-2.7v3.8z"/>
  </defs>
  <clipPath id="P">
    <use xlink:href="#O" overflow="visible"/>
  </clipPath>
  <g clip-path="url(#P)">
    <path fill="#3A7A84" d="M767.8 367.2l4.7 2.7v3.8l-4.7-2.7v-3.8"/>
  </g>
  <defs>
    <path id="Q" d="M772.5 369.1v-3.8l-4.7-2.7v3.8z"/>
  </defs>
  <clipPath id="R">
    <use xlink:href="#Q" overflow="visible"/>
  </clipPath>
  <g clip-path="url(#R)">
    <path fill="#3A7A84" d="M767.8 362.6l4.7 2.7v3.8l-4.7-2.7v-3.8"/>
  </g>
  <path fill="#FFF5D4" d="M953.8 351.5l-.2 44.5-65.8-38 .1-44.5"/>
  <path fill="#FFE6AA" d="M887.9 313.5l28.9-16.8 65.8 38-28.8 16.8"/>
  <path fill="#97D2E8" d="M953.8 351.6l-66-38.1 14.9-27 65.5 38"/>
  <path fill="#FFBD6A" d="M982.6 334.7l-14.4-10.2-14.4 27v.1l-.2 44.4 28.9-16.8.1-44.5"/>
  <defs>
    <path id="S" d="M953.8 351.6l-77.4-44.8 14.9-27 76.9 44.7z"/>
  </defs>
  <clipPath id="T">
    <use xlink:href="#S" overflow="visible"/>
  </clipPath>
  <path fill="none" stroke="#348193" stroke-width="0.9681" stroke-miterlimit="10" d="M960 318.5l-16.1 30m7.6-34.9l-16 30m7.5-35.2l-16 30m7.6-35l-16.1 30m7.6-34.9l-16 29.9m7.5-34.9l-16 30m7.6-35l-16.1 30" clip-path="url(#T)"/>
  <defs>
    <path id="U" d="M894.5 336.3v-5.6l3.5 2v5.6z"/>
  </defs>
  <use fill="#F5967F" xlink:href="#U" overflow="visible"/>
  <clipPath id="V">
    <use xlink:href="#U" overflow="visible"/>
  </clipPath>
  <path fill="#F5967F" d="M898 332.7l-3.5-2v5.6l3.5 2v-5.6" clip-path="url(#V)"/>
  <defs>
    <path id="W" d="M894.5 329.8V327l3.5 2v2.8z"/>
  </defs>
  <use fill="#F5967F" xlink:href="#W" overflow="visible"/>
  <clipPath id="X">
    <use xlink:href="#W" overflow="visible"/>
  </clipPath>
  <path fill="#F5967F" d="M898 329l-3.5-2v2.8l3.5 2V329" clip-path="url(#X)"/>
  <defs>
    <path id="Y" d="M903.3 349.9v-5.6l3.5 2-.1 5.6z"/>
  </defs>
  <clipPath id="Z">
    <use xlink:href="#Y" overflow="visible"/>
  </clipPath>
  <path fill="#F59680" d="M906.8 346.3l-3.5-2v5.6l3.4 2 .1-5.6" clip-path="url(#Z)"/>
  <defs>
    <path id="aa" d="M903.3 343.4v-2.8l3.5 2v2.8z"/>
  </defs>
  <clipPath id="ab">
    <use xlink:href="#aa" overflow="visible"/>
  </clipPath>
  <path fill="#F59680" d="M906.8 342.6l-3.5-2v2.8l3.5 2v-2.8" clip-path="url(#ab)"/>
  <defs>
    <path id="ac" d="M937 362.7v-5.6l3.5 2v5.6z"/>
  </defs>
  <use fill="#F5967F" xlink:href="#ac" overflow="visible"/>
  <clipPath id="ad">
    <use xlink:href="#ac" overflow="visible"/>
  </clipPath>
  <path fill="#F5967F" d="M940.5 359.1l-3.5-2v5.6l3.5 2v-5.6" clip-path="url(#ad)"/>
  <defs>
    <path id="ae" d="M937 356.1v-2.7l3.5 2v2.8z"/>
  </defs>
  <use fill="#F5967F" xlink:href="#ae" overflow="visible"/>
  <clipPath id="af">
    <use xlink:href="#ae" overflow="visible"/>
  </clipPath>
  <path fill="#F5967F" d="M940.5 355.4l-3.5-2v2.7l3.5 2.1v-2.8" clip-path="url(#af)"/>
  <defs>
    <path id="ag" d="M959.9 375.9l-.1-5.6 3.5-2v5.6z"/>
  </defs>
  <use fill="#F1526B" xlink:href="#ag" overflow="visible"/>
  <clipPath id="ah">
    <use xlink:href="#ag" overflow="visible"/>
  </clipPath>
  <g clip-path="url(#ah)">
    <path fill="#F1526B" d="M963.3 368.3l-3.5 2 .1 5.6 3.4-2v-5.6"/>
  </g>
  <defs>
    <path id="ai" d="M959.8 369.4v-2.8l3.5-2.1v2.8z"/>
  </defs>
  <use fill="#F1526B" xlink:href="#ai" overflow="visible"/>
  <clipPath id="aj">
    <use xlink:href="#ai" overflow="visible"/>
  </clipPath>
  <g clip-path="url(#aj)">
    <path fill="#F1526B" d="M963.3 364.5l-3.5 2.1v2.8l3.5-2.1v-2.8"/>
  </g>
  <defs>
    <path id="ak" d="M914.1 373.3v-13.5l5.6 3.3-.1 13.4z"/>
  </defs>
  <clipPath id="al">
    <use xlink:href="#ak" overflow="visible"/>
  </clipPath>
  <g clip-path="url(#al)">
    <path fill="#5198A8" d="M919.7 363.1l-5.6-3.3v13.5l5.5 3.2.1-13.4"/>
  </g>
  <path fill="#FFBD6A" d="M998.6 366.1l.1 22.2-14.1 8.2-.1-22.3"/>
  <path fill="#FFF5D4" d="M984.6 396.5l-15.8-9.2-.1-22.3 15.8 9.2"/>
  <path fill="#FFE5A8" d="M984.5 374.2l-15.8-9.2 14.1-8.1 15.8 9.2"/>
  <defs>
    <path id="am" d="M990.4 386.7v-5.6l3.5-2v5.6z"/>
  </defs>
  <use fill="#F1526B" xlink:href="#am" overflow="visible"/>
  <clipPath id="an">
    <use xlink:href="#am" overflow="visible"/>
  </clipPath>
  <g clip-path="url(#an)">
    <path fill="#F1526B" d="M993.9 379.1l-3.5 2v5.6l3.5-2v-5.6"/>
  </g>
  <defs>
    <path id="ao" d="M990.4 380.2v-2.8l3.5-2.1v2.8z"/>
  </defs>
  <use fill="#F1526B" xlink:href="#ao" overflow="visible"/>
  <clipPath id="ap">
    <use xlink:href="#ao" overflow="visible"/>
  </clipPath>
  <g clip-path="url(#ap)">
    <path fill="#F1526B" d="M993.9 375.3l-3.5 2.1v2.8l3.5-2.1v-2.8"/>
  </g>
  <path fill="#FFF5D4" d="M968.8 350.9l15.7 23.4-15.8-9.3"/>
  <path fill="#43A4C9" d="M968.8 350.9l13.8-8.2 16 23.4-14.1 8.2"/>
  <defs>
    <path id="aq" d="M968.8 350.9l13.8-8.2 16 23.4-14.1 8.2z"/>
  </defs>
  <clipPath id="ar">
    <use xlink:href="#aq" overflow="visible"/>
  </clipPath>
  <path fill="none" stroke="#ACD8E5" stroke-width="1.1659" stroke-miterlimit="10" d="M981.3 372l16.5-9.5m-18.2 6.1l16.6-9.5m-19.3 6.1l16.5-9.5m-18.7 6.2l16.6-9.6m-19.3 6.2l16.5-9.6m-19.3 6.2l16.6-9.6" clip-path="url(#ar)"/>
  <defs>
    <path id="as" d="M902.2 432.2l19.9-11.6 262.1 151.3-20 11.5z"/>
  </defs>
  <clipPath id="at">
    <use xlink:href="#as" overflow="visible"/>
  </clipPath>
  <g clip-path="url(#at)">
    <path fill="#0066AE" d="M1184.2 571.9L922.1 420.6l-19.9 11.6 262 151.2 20-11.5"/>
  </g>
  <defs>
    <path id="au" d="M906.6 428.7l1.2-.7 262 151.3-1.2.7z"/>
  </defs>
  <clipPath id="av">
    <use xlink:href="#au" overflow="visible"/>
  </clipPath>
  <g clip-path="url(#av)">
    <path fill="#BCE5EC" d="M1169.8 579.3L907.8 428l-1.2.7 262 151.3 1.2-.7"/>
  </g>
  <defs>
    <path id="aw" d="M915.6 423.7l1.2-.7 262 151.3-1.2.7z"/>
  </defs>
  <clipPath id="ax">
    <use xlink:href="#aw" overflow="visible"/>
  </clipPath>
  <g clip-path="url(#ax)">
    <path fill="#BCE5EC" d="M1178.8 574.3L916.8 423l-1.2.7 262 151.3 1.2-.7"/>
  </g>
  <defs>
    <path id="ay" d="M933.7 413l19.9-11.6 262.8 151.8-19.6 11.6z"/>
  </defs>
  <clipPath id="az">
    <use xlink:href="#ay" overflow="visible"/>
  </clipPath>
  <g clip-path="url(#az)">
    <path fill="#0066AE" d="M1216.6 553.3L953.8 401.6 933.7 413l262.8 151.6 19.9-11.4"/>
  </g>
  <defs>
    <path id="aA" d="M938.6 409.7l1.2-.7 262 151.3-1.2.7z"/>
  </defs>
  <clipPath id="aB">
    <use xlink:href="#aA" overflow="visible"/>
  </clipPath>
  <g clip-path="url(#aB)">
    <path fill="#BCE5EC" d="M1201.8 560.3L939.8 409l-1.2.7 262 151.3 1.2-.7"/>
  </g>
  <defs>
    <path id="aC" d="M947.6 404.7l1.2-.7 262 151.3-1.2.7z"/>
  </defs>
  <clipPath id="aD">
    <use xlink:href="#aC" overflow="visible"/>
  </clipPath>
  <g clip-path="url(#aD)">
    <path fill="#BCE5EC" d="M1210.8 555.3L948.8 404l-1.2.7 262 151.3 1.2-.7"/>
  </g>
  <path fill="#0066AE" d="M1032.5 433.2v4.7l-8.3 4.8V438"/>
  <path fill="#3086BE" d="M1024.2 442.7l-141-81.9v-4.7l141 81.9"/>
  <path fill="#78B7D6" d="M1024.2 438l-141-81.9 8.4-4.8 140.9 81.9"/>
  <path fill="#0066AE" d="M1002.6 489.4v4.7l-12 6.9v-4.6"/>
  <path fill="#4092C3" d="M990.6 501L814.4 398.6V394l176.2 102.4"/>
  <path fill="#7CBAD7" d="M990.6 496.4L814.4 394l12-7 176.2 102.4"/>
  <path fill="#0066AE" d="M1030 465.1v4.7l-12.1 7v-4.7"/>
  <path fill="#3489BF" d="M1017.9 476.8l-141-81.9v-4.7l141 81.9"/>
  <path fill="#83BFD9" d="M1017.9 472.1l-141-81.9 12.1-7 141 81.9"/>
  <defs>
    <path id="aE" d="M878.1 326.8C918 350 958 373.2 997.9 396.5c6.7 3.9 10.8 12.1 10.8 23.8l-119.8-69.6c0-11.8-4.1-20-10.8-23.9z"/>
  </defs>
  <clipPath id="aF">
    <use xlink:href="#aE" overflow="visible"/>
  </clipPath>
  <g clip-path="url(#aF)">
    <path fill="#F58F7D" d="M1008.7 420.2l-119.8-69.6v-1.3l119.8 69.6v1.3"/>
    <path fill="#F4887B" d="M1008.7 418.9l-119.8-69.6c-.1-2.1-.3-4-.6-5.9l119.8 69.6c.4 1.9.6 3.8.6 5.9"/>
    <path fill="#F48279" d="M1008.1 413l-119.8-69.6c-.3-1.5-.6-3-1.1-4.4l119.8 69.6c.5 1.4.9 2.9 1.1 4.4"/>
    <path fill="#F37B77" d="M1007.1 408.6L887.3 339c-.4-1.3-.9-2.5-1.5-3.6l119.8 69.6c.6 1.1 1.1 2.4 1.5 3.6"/>
    <path fill="#F37475" d="M1005.6 405l-119.8-69.6c-.5-1.1-1.2-2.2-1.8-3.1l119.8 69.6c.7 1 1.3 2 1.8 3.1"/>
    <path fill="#F36D73" d="M1003.8 401.9L884 332.3c-.7-1-1.5-1.9-2.3-2.7l119.8 69.6c.8.8 1.6 1.7 2.3 2.7"/>
    <path fill="#F26671" d="M1001.5 399.2l-119.8-69.6c-.9-.9-1.9-1.7-3-2.4l119.8 69.6c1.1.7 2.1 1.5 3 2.4"/>
    <path fill="#F2606F" d="M998.5 396.8l-119.8-69.6c-.2-.1-.4-.2-.6-.4l119.8 69.6c.2.2.4.3.6.4"/>
  </g>
  <defs>
    <path id="aG" d="M878.6 326c39.9 23.2 79.9 46.4 119.8 69.6-6.9-4-16.4-3.4-26.9 2.6l-119.8-69.6c10.5-6.1 20-6.6 26.9-2.6z"/>
  </defs>
  <clipPath id="aH">
    <use xlink:href="#aG" overflow="visible"/>
  </clipPath>
  <g clip-path="url(#aH)">
    <path fill="#F1596D" d="M971.6 398.2l-119.8-69.6c10.5-6.1 20-6.6 26.9-2.6l119.8 69.6c-6.9-4-16.5-3.4-26.9 2.6"/>
  </g>
  <path fill="#F1526B" d="M971.6 398.2c20.8-12 37.8-2.3 37.9 21.6l-.7.4c-.1-23.5-16.7-33-37.2-21.2-20.4 11.8-37 40.5-36.9 64l-.7.4c-.2-23.9 16.7-53.2 37.6-65.2z"/>
  <defs>
    <path id="aI" d="M933.9 463.4l-119.8-69.6c-.1-23.9 16.8-53.2 37.7-65.2l119.8 69.6c-20.9 12-37.8 41.3-37.7 65.2z"/>
  </defs>
  <clipPath id="aJ">
    <use xlink:href="#aI" overflow="visible"/>
  </clipPath>
  <g clip-path="url(#aJ)">
    <path fill="#F58F7D" d="M933.9 463.4l-119.8-69.6c0-3.2.3-6.4.8-9.7l119.8 69.6c-.5 3.3-.8 6.6-.8 9.7"/>
    <path fill="#F5967F" d="M934.7 453.7l-119.8-69.6c.6-3.5 1.5-7.1 2.7-10.7L937.4 443c-1.2 3.6-2.1 7.2-2.7 10.7"/>
    <path fill="#F58F7D" d="M937.4 443l-119.8-69.6c1.3-4 3-8 4.9-11.9l119.8 69.6c-1.9 3.9-3.6 7.9-4.9 11.9"/>
    <path fill="#F4887B" d="M942.3 431.1l-119.8-69.6c1.2-2.3 2.4-4.6 3.8-6.8l119.8 69.6c-1.4 2.2-2.6 4.5-3.8 6.8"/>
    <path fill="#F48279" d="M946.1 424.3l-119.8-69.6c1.1-1.9 2.3-3.7 3.6-5.4l119.8 69.6c-1.3 1.7-2.5 3.6-3.6 5.4"/>
    <path fill="#F37B77" d="M949.7 418.9l-119.8-69.6c1.1-1.6 2.3-3.2 3.6-4.7l119.8 69.6c-1.3 1.5-2.5 3.1-3.6 4.7"/>
    <path fill="#F37475" d="M953.3 414.2l-119.8-69.6c1.2-1.5 2.4-2.9 3.7-4.2L957 410c-1.3 1.3-2.5 2.7-3.7 4.2"/>
    <path fill="#F36D73" d="M957 410l-119.8-69.6c1.3-1.4 2.6-2.7 4-3.9L961 406c-1.4 1.3-2.7 2.6-4 4"/>
    <path fill="#F26671" d="M961 406l-119.8-69.6c1.5-1.3 3-2.6 4.5-3.8l119.8 69.6c-1.5 1.2-3 2.5-4.5 3.8"/>
    <path fill="#F2606F" d="M965.5 402.3l-119.8-69.6c1.9-1.4 3.7-2.7 5.7-3.8l119.8 69.6c-2 1.1-3.9 2.4-5.7 3.8"/>
    <path fill="#F1596D" d="M971.2 398.4l-119.8-69.6c.1-.1.3-.2.4-.2l119.8 69.6c-.2.1-.3.2-.4.2"/>
  </g>
  <path fill="#FFF" d="M961.9 389.7c-24.1 13.9-43.7 47.8-43.6 75.5l.7-.4c-.1-27.3 19.2-60.6 42.9-74.3 17.8-10.3 33.1-6.6 39.7 7.3l1.7 1.8c-6-16.2-22.3-21-41.4-9.9"/>
  <path fill="#FFF" d="M939.9 376.9c-24.1 13.9-43.7 47.8-43.6 75.5l.7-.4c-.1-27.3 19.2-60.6 42.9-74.3 17.6-10.2 32.8-6.7 39.5 6.9l1.2.5c-6.5-14.8-22.3-18.8-40.7-8.2"/>
  <path fill="#FFF" d="M919 364.2c-24.1 13.9-43.7 47.8-43.6 75.5l.7-.4C876 412 895.3 378.7 919 365c17.9-10.3 33.3-6.6 39.9 7.6l1.2.6c-6.3-15.5-22.3-19.9-41.1-9"/>
  <path fill="#FFF" d="M899.3 352.6c-24.1 13.9-43.7 47.8-43.6 75.5l.7-.4c-.1-27.3 19.2-60.6 42.9-74.3 18-10.4 33.5-6.6 39.9 7.8l1.2.7c-6.1-15.7-22.3-20.2-41.1-9.3"/>
  <path fill="#FFF" d="M880.7 342.1c-24.1 13.9-43.7 47.8-43.6 75.5l.7-.4c-.1-27.3 19.2-60.6 42.9-74.3 17.8-10.3 33.1-6.6 39.7 7.3l1.3.7c-6.3-15.3-22.3-19.5-41-8.8"/>
  <path fill="#FFF" d="M862.2 331.7c-24.1 13.9-43.7 47.8-43.6 75.5l.7-.4c-.1-27.3 19.2-60.6 42.9-74.3 17.6-10.2 32.8-6.7 39.5 6.9l1.3.6c-6.5-14.9-22.4-18.9-40.8-8.3"/>
  <ellipse cx="1011.3" cy="376.2" fill="#FFF" rx="0.7" ry="0.8"/>
  <path fill="#FFF" d="M1011.2 376.9v.3s.4-.1.5.1c0 0 0 .4-.5.4s-.6-.5-.6-.5.3-.1.4 0v-.4l.2.1zm.9 1.8v2.5s0 .2-.1.2c-.2 0-.2-.2-.2-.2v-2.6l.3.1zm-1.6.2v2.5s0 .2-.1.2c-.2 0-.2-.2-.2-.2v-2.6l.3.1z"/>
  <path fill="#FFE29D" d="M1011.9 375.7s-.9.4-1.1 0c0 0 0-.4.3-.4.3-.1.8.2.8.4z"/>
  <path fill="#3F3F3F" d="M1010.9 380.4l-.2 4.1s0 .3-.2.3-.2-.2-.2-.2l.2-4.1.4-.1zm.9 0v4.1s0 .3-.2.3c-.3 0-.2-.2-.2-.2v-4.1l.4-.1z"/>
  <path fill="#0066AE" d="M1011.6 377.2s.6 0 .6 1.6h-.3v1.7h-1.5v-1.6l-.4-.1s-.1-1.6.7-1.6c0 0-.1.4.4.4 0 0 .6.1.5-.4z"/>
  <path fill="#FFE29D" d="M1010.7 376.5s.5.6 1.2.1c.1-.1.3-.7 0-.9 0-.1-1.1 0-1.1 0s-.3.3-.1.8z"/>
  <defs>
    <path id="aK" d="M833.3 455.2l26.9-15.7 102.9 59.4-27 15.6z"/>
  </defs>
  <clipPath id="aL">
    <use xlink:href="#aK" overflow="visible"/>
  </clipPath>
  <path fill="#0066AE" d="M963.1 498.9l-102.9-59.4-26.9 15.7 6.3 3.6 10.9-6.4 90.2 52.1-11 6.3 6.4 3.7 27-15.6" clip-path="url(#aL)"/>
  <path fill="#C8E5EE" d="M911.5 446.2l-2.7 1.6-2.1-1.3 2.7-1.5"/>
  <path fill="#B6DDE8" d="M911.5 446.2v24.5l-2.7 1.6v-24.5"/>
  <path fill="#F6FBFC" d="M908.8 447.8v24.5l-2.2-1.3.1-24.5"/>
  <defs>
    <path id="aM" d="M874 404.7c1.4-.8 2.8-1.6 4.2-2.5.5-.3 1.2-.3 2 .2l-4.2 2.5c-.8-.4-1.5-.5-2-.2z"/>
  </defs>
  <clipPath id="aN">
    <use xlink:href="#aM" overflow="visible"/>
  </clipPath>
  <g clip-path="url(#aN)">
    <path fill="#FFD684" d="M874 404.7l4.2-2.5c.2-.1.4-.2.7-.2l-4.2 2.5c-.2 0-.5.1-.7.2"/>
    <path fill="#FFDA91" d="M874.7 404.5l4.2-2.5c.4 0 .8.1 1.3.4l-4.2 2.5c-.5-.3-.9-.4-1.3-.4"/>
  </g>
  <defs>
    <path id="aO" d="M948.1 472.3c-1.4.8-2.8 1.6-4.2 2.5.5-.3.8-.9.8-1.8l4.2-2.5c0 .9-.3 1.5-.8 1.8z"/>
  </defs>
  <clipPath id="aP">
    <use xlink:href="#aO" overflow="visible"/>
  </clipPath>
  <g clip-path="url(#aP)">
    <path fill="#FFD684" d="M944.7 473l4.2-2.5c0 .9-.3 1.5-.8 1.8l-4.2 2.5c.5-.3.8-.9.8-1.8"/>
  </g>
  <path fill="#FFD686" d="M944.7 447.8l4.3-2.5-.1 25.2-4.2 2.5"/>
  <path fill="#FFE0A4" d="M876 404.9l4.2-2.4 66 38.1-4.2 2.4"/>
  <path fill="#FFFAF1" d="M942 443c1.5.9 2.8 3 2.7 4.8l-.1 25.2c0 1.8-1.2 2.5-2.8 1.6l-66-38.1c-1.5-.9-2.8-3-2.7-4.8l.1-25.2c0-1.8 1.2-2.5 2.8-1.6l66 38.1z"/>
  <defs>
    <path id="aQ" d="M942 443l4.2-2.5c1.5.9 2.8 3 2.7 4.8l-4.2 2.5c0-1.8-1.2-3.9-2.7-4.8z"/>
  </defs>
  <clipPath id="aR">
    <use xlink:href="#aQ" overflow="visible"/>
  </clipPath>
  <g clip-path="url(#aR)">
    <path fill="#FFDA91" d="M942 443l4.2-2.5-4.2 2.5"/>
    <path fill="#FFDF9F" d="M942 443l4.2-2.5c.7.4 1.3 1 1.7 1.8l-4.2 2.5c-.4-.7-1-1.4-1.7-1.8"/>
    <path fill="#FFDA91" d="M943.8 444.8l4.2-2.5c.3.5.6 1.1.8 1.7l-4.2 2.5c-.2-.6-.5-1.2-.8-1.7"/>
    <path fill="#FFD684" d="M944.6 446.5l4.2-2.5c.1.4.2.8.2 1.2l-4.2 2.5c-.1-.3-.1-.7-.2-1.2"/>
  </g>
  <defs>
    <path id="aS" d="M941.3 442.9c1.5.9 2.7 2.9 2.7 4.7l-.1 24.6c0 1.7-1.2 2.4-2.7 1.5l-64.4-37.2c-1.5-.9-2.7-2.9-2.7-4.7l.1-24.6c0-1.7 1.2-2.4 2.7-1.5l64.4 37.2z"/>
  </defs>
  <clipPath id="aT">
    <use xlink:href="#aS" overflow="visible"/>
  </clipPath>
  <g clip-path="url(#aT)">
    <defs>
      <path id="aU" d="M870 442.3l.1-44.1 69.6 40.2-.1 44.1z"/>
    </defs>
    <clipPath id="aV">
      <use xlink:href="#aU" overflow="visible"/>
    </clipPath>
    <g clip-path="url(#aV)">
      <path fill="#FFF" d="M921.6 454.7s.5-1 1.2-.6c.3.2.7.7 1.1 1.6 0 0-.4.1-1.1 0 0 .1-.1.2-.2.3-.2.3-.5.5-.9.3-.3-.2-.6-.6-1-1.4-.5-.3-1-.8-1.4-1.3 0 0 .4-.8 1.1-.4.4 0 .8.5 1.2 1.5m4.8-5.3c1.4.8 2.1-.6 2.1-.6h.2c.2.1.1.3.2.4-.1.2-.3.4-.5.6 0 0 0 .1.1.1.3.6.9 1.6.6 1.4-.2-.2-.6-1-.8-1.4-.5.4-1 .4-1.6.2v.2c0 .5.1 1.4 0 1.3l-.1-.1c-.2-.3-.2-1.2-.1-1.5-.5-.3-1.1-.9-1.5-1.4 0 0 0 .1-.1.2-.2.3-.6.7-.7.6 0 0 0-.1-.1-.1-.1-.3.5-.8.7-.9-.5-.7-.9-1.4-.9-1.4 0-.3 0-.3.1-.3.1.1.3.4.3.4.9 1.3 1.6 2 2.1 2.3m1-9.4s0 5.9-7.5 4.2c-.1-.2 5-2.5 4-6.2 0 .1-3.1 6.4-9.9 5.1.7 1.1 1.3 1.8 1.9 2.1 1.4.8 2.1-.6 2.1-.6h.2c.2.1.1.3.2.4-.1.2-.2.3-.3.4 0 0 .1.1.1.2.3.6.9 1.6.6 1.5-.2-.2-.7-1.1-.9-1.5-.5.5-1 .6-1.5.5v.1c.1.5.1 1.4 0 1.3l-.1-.1c-.2-.3-.2-1-.2-1.4-.1 0-.2-.1-.3-.1-.5-.3-.9-.7-1.3-1.2-.2.3-.5.7-.7.7l-.1-.1c0-.3.3-.7.5-.8-.3-.5-.6-.9-.8-1.2-1-.2-2-.6-3.1-1.2 0 .1.8 2.6.6 5 .1 3.7 4.9 11.2 10.2 14.3 2.2 1.3 4.5 1.8 6.6.9.4-.1 8.6-11.2-.3-22.3"/>
      <path fill="#F5967F" d="M871.1 408.2s0 .1.2.2c-.1 0-.1-.1-.2-.2m48.8 36c7.5 1.7 7.5-4.2 7.5-4.2 8.9 11.1.7 22.1.5 22-2.1.9-4.4.4-6.6-.9-5.3-3.1-10.1-10.6-10.2-14.3.2-2.3-.6-4.9-.6-5 1.1.6 2.1.9 3.1 1.2-.1-.2-.2-.3-.2-.3 0-.3 0-.3.1-.3.1.1.3.4.3.4.1.1.1.2.2.3 6.8 1.3 9.9-5 9.9-5.1 1 3.7-4.1 6-4 6.2m-2.1-18.4c-9.5-5.5-15.7 4.7-15.8 4.9-1.6 1.7-5 2.2-6.8 2.2.4 1.2-1.4 5.9-.5 7.3 0 0 6.4 2.2 6.2 6.8 2.4 3.1 3.9 5.7 3.9 5.7 3.4 4.1 2.2 5.5 2.2 5.5-.3.7-1.3.3-2.3-.2-1.1-.7-2.3-1.6-2.3-1.7l-.1-.1c-1.4-.8-3.5-3-4.9-4.5l-2.2-.9-2.3-.9c-1.1-1.6-1.9-3.1-2.5-4.5-.3-.2-.4-.3-.4-.3-1.3-1.1-1.2-1.5-1.3-1.6-.1-.5.5-.4.9-.3-1.7-5.8-.2-9.9-.2-9.9.6-.6.9-1.4 1.1-2.3-4.7-3.4-8.5-9.1-8.5-9.1-3.5-6.9-5.9-8.5-6.3-8.7 3 4.1 1 7.2.9 7.2 0-5.2-4.5-10.5-5.4-11.7 5.4 8.6-1.3 13.5-1.3 13.4-5 28.2 27 36.1 37.2 42 1 .6 2 1.1 2.8 1.4.6.5 1 .8 1 .8 53.4 26.9 16.3-29.7 16.4-29.9-3.3-5.7-6.6-8.9-9.5-10.6"/>
      <path fill="#0066AE" d="M888.1 439.7c.6 1.4 1.4 3 2.5 4.5l2.3.9-.2-1.7c-1.3-1.2-3.6-3-4.6-3.7m2.4-19.6l-2.3-.9c.2.8.6 3.7.1 6.1-.2.9-.6 1.7-1.1 2.3 0 0-1.5 4.1.2 9.9.3.1.5.2.5.2.1.1.3.1.4.2.8.5 1.9 1.2 2.9 1.9-.3-.6-.5-1.2-.7-1.9-1.3-1.1-2.4-1.9-2.4-1.9-.9-.8-.8-1.2-.8-1.3 0-.5 1.1.1 1.3.2 0 0 .1 0 .1.1.4.2.9.5 1.3.9-.1-.6-.2-1.3-.3-1.9-.3-.2-.4-.4-.4-.4-.7-.6-.7-1.1-.7-1.1 0-.6.8-.1.9-.1.1 0 .1.1.2.1 0-2.7.6-4.5 1.6-4.5l-.8-7.9"/>
      <path fill="#0066AE" d="M892.7 443.4l.2 1.7 2.2.9c-.8-.9-1.4-1.6-1.5-1.7l-.9-.9m1.6-2.1c-.1.2-.3.4-.4.6.9.7 1.5 1.1 1.5 1.1.4 0-.5-1.1-.5-1.1-.1-.2-.3-.4-.6-.6m.6-2.5c0 .5-.1 1-.2 1.4 1 1.1 1.7 1.9 1.7 1.9.3.4.5.5.6.6.2.1.3.1.3.1h.1c.2-.7-.7-1.6-.7-1.7-.1-.5-.9-1.4-1.8-2.3m-1.2-17.4l-.5-.2-2.7-1.1.7 7.9c.1 0 .3 0 .4.1 0 0 .1 0 .1.1 1.4.8 2.7 4.3 3.1 8 0 .3 0 .5.1.8 1.4 1.4 2.6 3 3.7 4.4.2-4.6-2.1-9.8-2.1-9.8-.9-1.3-1.5-2.7-1.9-3.9-1.2-3.5-.9-6.3-.9-6.3"/>
      <path fill="#BCE5EC" d="M890.9 417c-.1-.1-.3-.1-.4-.2-1.5-.6-2.5.4-2.3 2.4l2.3.9 2.7 1.1.4.2c-.2-1.8-1.3-3.7-2.7-4.4m-.4 20.9c.2.7.5 1.4.7 1.9 1 .7 1.9 1.4 2.7 2 .2-.1.3-.3.4-.6-.9-.8-2.5-2.2-3.8-3.3m-.8-4c.1.7.2 1.3.3 1.9 1.6 1.2 3.4 3 4.7 4.3.1-.4.1-.9.2-1.4-1.8-1.7-4.2-3.9-5.2-4.8m2.1-5.8s-.1 0-.1-.1c-.1-.1-.3-.1-.4-.1-1 0-1.6 1.8-1.6 4.5 1.8 1.1 3.6 2.7 5.2 4.5 0-.3 0-.5-.1-.8-.3-3.7-1.7-7.2-3-8"/>
      <path fill="#FFF" d="M889.4 432.3c-.1 0-.9-.5-.9.1 0 0 0 .6.7 1.1 0 0 .2.1.4.4 1 .9 3.4 3.1 5.2 4.9 1 1 1.7 1.8 1.9 2.3 0 .1.9 1 .7 1.7h-.1c-.1 0-.2 0-.3-.1-.2-.1-.4-.3-.6-.6 0 0-.7-.8-1.7-1.9-1.3-1.3-3.1-3.1-4.7-4.3-.5-.3-.9-.6-1.3-.9 0 0-.1 0-.1-.1-.2-.1-1.3-.7-1.3-.2.1.1 0 .5.8 1.3 0 0 1.1.9 2.4 1.9 1.3 1.1 2.9 2.5 3.8 3.3.3.2.4.5.6.6 0 0 .9 1.1.5 1.1 0 0-.6-.5-1.5-1.1-.8-.6-1.7-1.3-2.7-2-1-.7-2.1-1.5-2.9-1.9-.2-.1-.3-.2-.4-.2 0 0-.2-.1-.5-.2-.4-.1-1-.2-.9.3.1.1 0 .5 1.3 1.6 0 0 .2.1.4.3.9.7 3.2 2.5 4.6 3.7.4.4.8.7.9 1 .1.1.7.8 1.5 1.7 1.4 1.5 3.5 3.7 4.9 4.5l.1.1s1.1 1 2.3 1.7c1 .6 2 .9 2.3.2 0 0 1.2-1.4-2.2-5.5 0 0-1.6-2.6-3.9-5.7-1.1-1.4-2.4-3-3.7-4.4-1.7-1.8-3.5-3.4-5.2-4.5-.2-.1-.3-.1-.4-.2"/>
      <path fill="#45CDDB" d="M918.2 444.6h-.2s-.7 1.4-2.1.6c-.5-.3-1.2-.9-1.9-2.1-.1-.1-.1-.2-.2-.3 0 0-.2-.3-.3-.4-.1 0-.1 0-.1.3 0 0 .1.1.2.3.2.3.4.8.8 1.2l.1-.1c.1 0 .2.2 0 .4.4.5.8.9 1.3 1.2.1.1.2.1.3.1v-.2h.1c.1 0 .1.1.1.3.5.1 1 0 1.5-.5-.1-.1-.1-.2-.1-.2s0-.1.1-.1l.1.1c.1-.1.2-.3.3-.4.2.2.2-.1 0-.2m10.5 4.3h-.2s-.7 1.4-2.1.6c-.6-.3-1.3-1-2.1-2.4 0 0-.2-.3-.3-.4-.1 0-.1 0-.1.3 0 0 .3.7.9 1.4.1 0 .1.1.1.2.4.5.9 1.1 1.5 1.4v-.1h.1s.1.1.1.2c.5.2 1 .2 1.6-.2-.1-.2-.1-.3-.1-.3s0-.1.1-.1l.2.2c.2-.2.3-.3.5-.6-.1.1 0-.1-.2-.2"/>
      <path fill="#45CDDB" d="M914.6 444.2c0-.1 0-.1 0 0 0 0-.1 0-.2.1-.2.2-.6.6-.5.8 0 .1 0 .1.1.1.1.1.5-.4.7-.7.1-.2 0-.3-.1-.3m1.7 1.5h-.1v.2c0 .4 0 1.1.2 1.4 0 0 0 .1.1.1.2.1.1-.8 0-1.3v-.1c0-.2-.1-.3-.2-.3m1.7-.4c-.1-.1-.1.1-.1.1s0 .1.1.2c.2.4.6 1.3.9 1.5.3.2-.3-.9-.6-1.5 0-.1-.1-.1-.1-.2l-.2-.1m6.9 3.1s-.1 0 0 0c-.1 0-.1 0 0 0-.2.1-.8.6-.7.9 0 .1 0 .1.1.1.1.1.5-.4.7-.6 0-.1.1-.1.1-.2l-.2-.2m1.7 1.5h-.1v.1c0 .3 0 1.2.1 1.5 0 0 0 .1.1.1.2.1.1-.8 0-1.3v-.2c0-.1-.1-.1-.1-.2m1.7-.3c-.1-.1-.1.1-.1.1s0 .1.1.3c.2.4.6 1.3.8 1.4.3.1-.3-.9-.6-1.4 0 0 0-.1-.1-.1 0-.2-.1-.3-.1-.3"/>
      <path fill="#F1526B" d="M922.8 454.2c-.7-.4-1.2.6-1.2.6-.4-1-.8-1.5-1.1-1.7-.7-.4-1.1.4-1.1.4.5.6 1 1 1.4 1.3-.1-.2-.1-.4-.2-.6 0 0 .5.5 1.1.8.4.2.8.3 1.1.2h.2c.1.1.1.2 0 .5.7.1 1.1.1 1.1 0-.6-.9-1-1.4-1.3-1.5"/>
      <path fill="#F1526B" d="M922.8 455.3h-.2c-.3.1-.7 0-1.1-.2-.6-.3-1.1-.8-1.1-.8.1.2.1.4.2.6.3.8.7 1.2 1 1.4.4.2.7 0 .9-.3.1-.1.1-.2.2-.3.2-.2.2-.4.1-.4"/>
    </g>
  </g>
  <defs>
    <path id="aW" d="M873.1 434.9l.1-31.6 71.5 41.3-.1 31.6z"/>
  </defs>
  <clipPath id="aX">
    <use xlink:href="#aW" overflow="visible"/>
  </clipPath>
  <g clip-path="url(#aX)">
    <path fill="#FFB3A4" d="M875.8 434.8c-.7-.4-1.3-1.5-1.3-2.3l.1-25.2c0-.9.6-1.2 1.3-.8l66 38.1c.7.4 1.3 1.5 1.3 2.3l-.1 25.2c0 .9-.6 1.2-1.3.8l-66-38.1m66.1 8.2l-66-38.1c-1.5-.9-2.8-.2-2.8 1.6l-.1 25.2c0 1.8 1.2 3.9 2.7 4.8l66 38.1c1.5.9 2.8.2 2.8-1.6l.1-25.2c.1-1.8-1.2-3.9-2.7-4.8"/>
  </g>
  <path fill="#F1526B" d="M858.1 381.9l-31.3 17.9-47.5-27.4 31.1-18.1"/>
  <path fill="#F1526B" d="M858.1 381.9l-.2 48.9-31.2 17.9.1-48.9"/>
  <path fill="#FFCABE" d="M826.8 399.8l-.1 48.9-47.6-27.4.2-48.9"/>
  <path fill="#97D2E8" d="M858.1 373.9l-31.3 18.2-47.7-27.5 31.3-18.2"/>
  <path fill="#43A4C9" d="M858.1 373.9v4.9L826.8 397v-4.9"/>
  <path fill="#EDF6F9" d="M826.8 392.1v4.9l-47.7-27.5v-4.9"/>
  <path fill="#FFDD8E" d="M826.2 370.2l-6.5 3.8-10.2-5.9 6.4-3.8"/>
  <path fill="#FFBD6A" d="M826.2 370.2l-.1 8.2-6.4 3.7V374"/>
  <path fill="#FFF5D4" d="M819.7 374v8.1l-10.2-5.9v-8.1"/>
  <defs>
    <path id="aY" d="M788.3 417.8l.1-28 13.5 7.8-.1 28z"/>
  </defs>
  <clipPath id="aZ">
    <use xlink:href="#aY" overflow="visible"/>
  </clipPath>
  <path fill="#8BC6CC" d="M801.9 397.6l-13.5-7.8-.1 28 13.5 7.8.1-28" clip-path="url(#aZ)"/>
  <defs>
    <path id="ba" d="M803.8 427.1l.1-28 13.5 7.8-.1 27.9z"/>
  </defs>
  <clipPath id="bb">
    <use xlink:href="#ba" overflow="visible"/>
  </clipPath>
  <path fill="#8BC6CC" d="M817.4 406.9l-13.5-7.8-.1 28 13.5 7.7.1-27.9" clip-path="url(#bb)"/>
  <path fill="#DBE4AF" d="M1064.8 451.5l-8.3 4.8-32-18.5 8.3-4.8"/>
  <path fill="#CEDA91" d="M1064.8 451.5v4.8l-8.3 4.9v-4.9"/>
  <path fill="#F0F4DE" d="M1056.5 456.3v4.9l-32-18.5v-4.9"/>
  <g fill="#F1526B">
    <path d="M1066.3 443.8v16.3c0 .1-.1.3-.3.4-.4.2-1 .2-1.4 0-.2-.1-.3-.3-.3-.4v-16.3c0 .1.1.3.3.4.4.2 1 .2 1.4 0 .2-.1.3-.3.3-.4z"/>
    <path d="M1066 443.4c.4.2.4.6 0 .8-.4.2-1 .2-1.4 0-.4-.2-.4-.6 0-.8.4-.3 1-.3 1.4 0z"/>
  </g>
  <path fill="#9BC183" d="M1065.2 450.9c3.9 0 8.4-2.9 8.4-8.1 0-3.3-.8-6.6-3.3-7.6-2.6-1-1.7-4.3-5.7-4.3-3.2 0-6.6 4.5-6.6 10 0 7 4 10 7.2 10z"/>
  <path fill="#679358" d="M1065.2 450.9c3.9 0 8.4-2.9 8.4-8.1 0-3.3-.8-6.6-3.3-7.6-.4-.1-.6-.3-.9-.5 0 .3-.3.7-.5.9-.7.7-1.5 1.4-2.3 1.9-.6.3-1.2.7-1.5 1.2-.5 1 0 2.2.5 3.2.7 1.5 1.2 3.1 1.1 4.7-.2 1.6-1.1 3.2-2.7 3.7-.2.1-.4.1-.6.2l-.1.1c.7.2 1.3.3 1.9.3z"/>
  <path fill="#DBE4AF" d="M1144.7 497.5l-8.3 4.8-72.9-42.2 8.3-4.8"/>
  <path fill="#CEDA91" d="M1144.7 497.5v4.9l-8.3 4.8v-4.9"/>
  <path fill="#F0F4DE" d="M1136.4 502.3v4.9l-72.9-42.4v-4.9"/>
  <g fill="#F1526B">
    <path d="M1146.3 489.7V506c0 .1-.1.3-.3.4-.4.2-1 .2-1.4 0-.2-.1-.3-.3-.3-.4v-16.3c0 .1.1.3.3.4.4.2 1 .2 1.4 0 .2-.1.3-.2.3-.4z"/>
    <path d="M1146 489.3c.4.2.4.6 0 .8-.4.2-1 .2-1.4 0-.4-.2-.4-.6 0-.8.3-.2 1-.2 1.4 0z"/>
  </g>
  <path fill="#9BC183" d="M1145.1 496.9c3.9 0 8.4-2.9 8.4-8.1 0-3.3-.8-6.6-3.3-7.6-2.6-1-1.7-4.2-5.7-4.2-3.2 0-6.6 4.5-6.6 10 0 6.8 4.1 9.9 7.2 9.9z"/>
  <path fill="#679358" d="M1145.1 496.9c3.9 0 8.4-2.9 8.4-8.1 0-3.3-.8-6.6-3.3-7.6-.4-.1-.6-.3-.9-.5 0 .3-.3.7-.5.9-.7.7-1.5 1.4-2.3 1.9-.6.3-1.2.7-1.5 1.2-.5 1 0 2.2.5 3.2.7 1.5 1.2 3.1 1.1 4.7-.2 1.6-1.1 3.2-2.7 3.7-.2.1-.4.1-.6.2l-.1.1c.7.1 1.3.3 1.9.3z"/>
  <path fill="#DBE4AF" d="M1224.7 543.5l-8.3 4.8-72.2-41.6 8.3-4.8"/>
  <path fill="#CEDA91" d="M1224.7 543.5v4.9l-8.3 4.8v-4.9"/>
  <path fill="#F0F4DE" d="M1216.4 548.3v4.9l-72.2-41.6.1-4.9m-108.8 7.6v4.9l-32.1-18.5v-4.9"/>
  <path fill="#CEDA91" d="M1083.7 532.5v4.9l-8.3 4.8v-4.9"/>
  <g fill="#F1526B">
    <path d="M1085.3 524.7V541c0 .1-.1.3-.3.4-.4.2-1 .2-1.4 0-.2-.1-.3-.3-.3-.4v-16.3c0 .1.1.3.3.4.4.2 1 .2 1.4 0 .2-.1.3-.2.3-.4z"/>
    <path d="M1085 524.3c.4.2.4.6 0 .8-.4.2-1 .2-1.4 0-.4-.2-.4-.6 0-.8.3-.2 1-.2 1.4 0z"/>
  </g>
  <path fill="#9BC183" d="M1084.1 531.9c3.9 0 8.4-2.9 8.4-8.1 0-3.3-.8-6.6-3.3-7.6-2.6-1-1.7-4.2-5.7-4.2-3.2 0-6.6 4.5-6.6 10 0 6.8 4.1 9.9 7.2 9.9z"/>
  <path fill="#679358" d="M1084.1 531.9c3.9 0 8.4-2.9 8.4-8.1 0-3.3-.8-6.6-3.3-7.6-.4-.1-.6-.3-.9-.5 0 .3-.3.7-.5.9-.7.7-1.5 1.4-2.3 1.9-.6.3-1.2.7-1.5 1.2-.5 1 0 2.2.5 3.2.7 1.5 1.2 3.1 1.1 4.7-.2 1.6-1.1 3.2-2.7 3.7-.2.1-.4.1-.6.2l-.1.1c.7.1 1.3.3 1.9.3z"/>
  <path fill="#DBE4AF" d="M1164.1 578.8l-8.3 4.9-72.2-41.7 8.3-4.8"/>
  <path fill="#CEDA91" d="M1164.1 578.8l-.1 4.9-8.2 4.8v-4.8"/>
  <path fill="#F0F4DE" d="M1155.8 583.7v4.8l-72.2-41.6V542"/>
  <path fill="#DBE4AF" d="M1083.4 531.9l-8.3 4.8L1003 495l8.3-4.8"/>
  <path fill="#CEDA91" d="M1083.4 531.9v4.9l-8.3 4.8v-4.9"/>
  <path fill="#F0F4DE" d="M1075.1 536.7v4.9l-72.1-41.7v-4.8"/>
  <path fill="#FFEAB9" d="M966.6 421.4l9.9-5.7 7.8-2.1-9.9 5.8"/>
  <path fill="#FFF5D4" d="M990.9 428.9v10.9l-24.3-14.1v-4.3l7.8-2"/>
  <path fill="#FFBD6A" d="M990.9 428.9l9.9-5.7V434l-9.9 5.8"/>
  <path fill="#FFDD8E" d="M974.4 419.4l9.9-5.8 16.5 9.6-9.9 5.7"/>
  <path fill="#FFF5D4" d="M1017 444.2l-.1 10.8-24.3-14v-10.8"/>
  <path fill="#FFBD6A" d="M1017 444.2l9.8-5.7v10.8l-9.9 5.7"/>
  <path fill="#FFDD8E" d="M992.6 430.2l9.9-5.8 24.3 14.1-9.8 5.7"/>
  <path fill="#FFF5D4" d="M1043 459.3v10.8l-24.3-14v-10.8"/>
  <path fill="#FFBD6A" d="M1043 459.3l9.9-5.7v10.8l-9.9 5.7"/>
  <path fill="#FFDD8E" d="M1018.7 445.3l9.9-5.8 24.3 14.1-9.9 5.7"/>
  <path fill="#FFF5D4" d="M1069.2 474.5v10.8l-24.3-14v-10.8"/>
  <path fill="#FFBD6A" d="M1069.2 474.5l9.9-5.7v10.8l-9.9 5.7"/>
  <path fill="#FFDD8E" d="M1044.9 460.5l9.9-5.8 24.3 14.1-9.9 5.7"/>
  <path fill="#FFF5D4" d="M1095.3 489.6v10.8l-24.4-14 .1-10.8"/>
  <path fill="#FFBD6A" d="M1095.3 489.6l9.9-5.7-.1 10.8-9.8 5.7"/>
  <path fill="#FFDD8E" d="M1071 475.6l9.8-5.8 24.4 14.1-9.9 5.7m1.9.9l9.9-5.7 16.5 9.6-9.9 5.7"/>
  <path fill="#FFF5D4" d="M1113.7 500.1l7.8 11v4.3l-24.3-14v-10.9"/>
  <path fill="#FFDD8E" d="M1113.7 500.1l9.9-5.7 7.8 11-9.9 5.7"/>
  <path fill="#FFBD6A" d="M1121.5 511.1l9.9-5.7v4.3l-9.9 5.7"/>
  <defs>
    <path id="bc" d="M1046 467.3v-3.6l21.7 12.5v3.6z"/>
  </defs>
  <use fill="#3489BF" xlink:href="#bc" overflow="visible"/>
  <clipPath id="bd">
    <use xlink:href="#bc" overflow="visible"/>
  </clipPath>
  <path fill="#3489BF" d="M1067.7 476.2l-21.7-12.5v3.6l21.7 12.5v-3.6" clip-path="url(#bd)"/>
  <defs>
    <path id="be" d="M1019.8 452.3v-3.7l21.6 12.6v3.6z"/>
  </defs>
  <use fill="#3489BF" xlink:href="#be" overflow="visible"/>
  <clipPath id="bf">
    <use xlink:href="#be" overflow="visible"/>
  </clipPath>
  <path fill="#3489BF" d="M1041.4 461.2l-21.6-12.6v3.7l21.6 12.5v-3.6" clip-path="url(#bf)"/>
  <defs>
    <path id="bg" d="M993.9 437.4v-3.6l21.6 12.5v3.6z"/>
  </defs>
  <use fill="#3489BF" xlink:href="#bg" overflow="visible"/>
  <clipPath id="bh">
    <use xlink:href="#bg" overflow="visible"/>
  </clipPath>
  <path fill="#3489BF" d="M1015.5 446.3l-21.6-12.5v3.6l21.6 12.5v-3.6" clip-path="url(#bh)"/>
  <defs>
    <path id="bi" d="M1072.1 482.1v-3.6l21.7 12.5v3.6z"/>
  </defs>
  <use fill="#3489BF" xlink:href="#bi" overflow="visible"/>
  <clipPath id="bj">
    <use xlink:href="#bi" overflow="visible"/>
  </clipPath>
  <path fill="#3489BF" d="M1093.8 491l-21.7-12.5v3.6l21.7 12.5V491" clip-path="url(#bj)"/>
  <defs>
    <path id="bk" d="M1098.6 497.1v-3.6l16 9.2v3.6z"/>
  </defs>
  <clipPath id="bl">
    <use xlink:href="#bk" overflow="visible"/>
  </clipPath>
  <path fill="#F1526B" d="M1110.3 500.2l-11.7-6.7v3.6l16 9.2-4.3-6.1" clip-path="url(#bl)"/>
  <defs>
    <path id="bm" d="M1098.6 499.5v-1.2l16 9.2v1.2z"/>
  </defs>
  <clipPath id="bn">
    <use xlink:href="#bm" overflow="visible"/>
  </clipPath>
  <path fill="#F1526B" d="M1114.6 507.5l-16-9.2v1.2l13.8 8h2.2" clip-path="url(#bn)"/>
  <path fill="#3489BF" d="M1043.7 452l-1.4.8-14.7-8.5 1.4-.9"/>
  <path fill="#0066AE" d="M1043.7 452v1.6l-1.4.8v-1.6"/>
  <path fill="#83BFD9" d="M1042.3 452.8v1.6l-14.7-8.5v-1.6"/>
  <defs>
    <path id="bo" d="M1120.1 507.5l-4.5-6.6 8.2-4.7 4.5 6.6z"/>
  </defs>
  <use fill="#3489BF" xlink:href="#bo" overflow="visible"/>
  <clipPath id="bp">
    <use xlink:href="#bo" overflow="visible"/>
  </clipPath>
  <path fill="#3489BF" d="M1123.8 496.2l-8.2 4.7 4.5 6.6 8.2-4.7-4.5-6.6" clip-path="url(#bp)"/>
  <defs>
    <path id="bq" d="M977.3 415.7l5.3-1.3-7.3 4.6-5.3 1.3z"/>
  </defs>
  <clipPath id="br">
    <use xlink:href="#bq" overflow="visible"/>
  </clipPath>
  <path fill="#5095A0" d="M975.3 419l7.3-4.6-5.3 1.3-7.3 4.6 5.3-1.3" clip-path="url(#br)"/>
  <defs>
    <path id="bs" d="M1122.3 512.7v-1.8l1.5-.9v1.8z"/>
  </defs>
  <clipPath id="bt">
    <use xlink:href="#bs" overflow="visible"/>
  </clipPath>
  <path fill="#F1526B" d="M1123.8 510l-1.5.9v1.8l1.5-.9V510" clip-path="url(#bt)"/>
  <defs>
    <path id="bu" d="M1129.1 508.6v-1.8l1.5-.9v1.8z"/>
  </defs>
  <clipPath id="bv">
    <use xlink:href="#bu" overflow="visible"/>
  </clipPath>
  <path fill="#F1526B" d="M1130.6 505.9l-1.5.9v1.8l1.5-.9v-1.8" clip-path="url(#bv)"/>
  <defs>
    <path id="bw" d="M972.2 424.1l.1-3.7 15.9 9.3v3.6z"/>
  </defs>
  <clipPath id="bx">
    <use xlink:href="#bw" overflow="visible"/>
  </clipPath>
  <path fill="#F1526B" d="M988.2 429.7l-11.7-6.8-4.3 1.2 16 9.2v-3.6" clip-path="url(#bx)"/>
  <defs>
    <path id="by" d="M972.2 426.4v-1.1l16 9.2v1.2z"/>
  </defs>
  <clipPath id="bz">
    <use xlink:href="#by" overflow="visible"/>
  </clipPath>
  <path fill="#F1526B" d="M988.2 434.5l-15.9-9.2 2.1 2.4 13.8 8v-1.2" clip-path="url(#bz)"/>
  <path fill="#FFF" d="M1086.3 508.8l-.1 40.8c0 1.3-.9 2.6-2.6 3.6-3.5 2-9.1 2-12.6 0-1.8-1-2.6-2.3-2.6-3.7l.1-40.8c0 1.3.9 2.7 2.6 3.7 3.5 2 9.1 2 12.6 0 1.7-1 2.6-2.3 2.6-3.6z"/>
  <path fill="#FFF" d="M1083.7 505.1c3.5 2 3.5 5.3 0 7.3s-9.1 2-12.6 0-3.5-5.3 0-7.3c3.4-2 9.1-2 12.6 0z"/>
  <path fill="#F5967F" d="M1078 487.9l-.1 20.4c0 .1-.1.2-.2.2-.2.1-.6.1-.9 0l-.2-.2.1-20.4c0 .1.1.2.2.2.2.1.6.1.9 0 .1 0 .2-.1.2-.2z"/>
  <path fill="#F5967F" d="M1077.8 487.7c.2.1.2.4 0 .5-.2.1-.6.1-.9 0-.2-.1-.2-.4 0-.5.3-.2.7-.2.9 0zm8.5 31.3v12.2c0 1.3-.9 2.6-2.6 3.6-3.5 2-9.1 2-12.6 0-1.8-1-2.6-2.3-2.6-3.7v-12.2c0 1.3.9 2.7 2.6 3.7 3.5 2 9.1 2 12.6 0 1.7-.9 2.6-2.3 2.6-3.6zm-78.3-32l-23.2 13.5-24.9-14.4 23.2-13.5"/>
  <path fill="#F1526B" d="M1008 487l-.1 32.6-23.1 13.5v-32.6"/>
  <path fill="#FFCABE" d="M984.8 500.5v32.6l-25-14.4.1-32.6"/>
  <path fill="#FFDD8E" d="M1042.7 481.6l-23.2 13.4-24.9-14.3 23.2-13.5"/>
  <path fill="#FFBD6A" d="M1042.7 481.6l-.2 57-23.2 13.5.2-57.1"/>
  <path fill="#FFDD8E" d="M1065 531.9l-19.1 11.1-26.5-15.3 19-11.1"/>
  <path fill="#FFBD6A" d="M1065 531.9l-.1 24.5-19.1 11 .1-24.4"/>
  <path fill="#FFF5D4" d="M1019.4 527.7l.1-32.7-24.9-14.3-.2 57 24.9 14.4v-.4.4l26.5 15.3.1-24.4"/>
  <defs>
    <path id="bA" d="M1000.3 503.2l.1-6.6 3.1 1.8v6.6z"/>
  </defs>
  <clipPath id="bB">
    <use xlink:href="#bA" overflow="visible"/>
  </clipPath>
  <path fill="#5095A0" d="M1003.5 498.4l-3.1-1.8-.1 6.6 3.2 1.8v-6.6" clip-path="url(#bB)"/>
  <defs>
    <path id="bC" d="M1009.6 510.6V504l3.1 1.8v6.6z"/>
  </defs>
  <clipPath id="bD">
    <use xlink:href="#bC" overflow="visible"/>
  </clipPath>
  <path fill="#5095A0" d="M1012.7 505.8l-3.1-1.8v6.6l3.1 1.8v-6.6" clip-path="url(#bD)"/>
  <defs>
    <path id="bE" d="M1003.7 529.2l.1-6.5 3.1 1.8v6.5z"/>
  </defs>
  <clipPath id="bF">
    <use xlink:href="#bE" overflow="visible"/>
  </clipPath>
  <path fill="#5095A0" d="M1006.9 524.5l-3.1-1.8-.1 6.5 3.2 1.8v-6.5" clip-path="url(#bF)"/>
  <defs>
    <path id="bG" d="M1028.4 513.6V507l3.1-1.8.1 6.6z"/>
  </defs>
  <clipPath id="bH">
    <use xlink:href="#bG" overflow="visible"/>
  </clipPath>
  <path fill="#5095A0" d="M1031.5 505.2l-3.1 1.8v6.6l3.2-1.8-.1-6.6" clip-path="url(#bH)"/>
  <defs>
    <path id="bI" d="M1034.4 501.6V495l3.2-1.8v6.6z"/>
  </defs>
  <clipPath id="bJ">
    <use xlink:href="#bI" overflow="visible"/>
  </clipPath>
  <path fill="#5095A0" d="M1037.6 493.2l-3.2 1.8v6.6l3.2-1.8v-6.6" clip-path="url(#bJ)"/>
  <defs>
    <path id="bK" d="M1023.5 554.6V548l2.7 1.6v6.6z"/>
  </defs>
  <clipPath id="bL">
    <use xlink:href="#bK" overflow="visible"/>
  </clipPath>
  <path fill="#F59680" d="M1026.2 549.6l-2.7-1.6v6.6l2.7 1.6v-6.6" clip-path="url(#bL)"/>
  <path fill="#F5967F" d="M1070.4 570.2l-6.7 3.9-12.7-7.3 6.8-3.9"/>
  <path fill="#F1526B" d="M1070.4 570.2v3.2l-6.7 4v-3.3"/>
  <path fill="#FFCABE" d="M1063.7 574.1v3.3L1051 570v-3.2"/>
  <defs>
    <path id="bM" d="M1053.8 566.7l4-2.3 9.8 5.7-3.9 2.3z"/>
  </defs>
  <clipPath id="bN">
    <use xlink:href="#bM" overflow="visible"/>
  </clipPath>
  <path fill="#CEDA91" d="M1067.6 570.1l-9.8-5.7-4 2.3 9.9 5.7 3.9-2.3" clip-path="url(#bN)"/>
  <path fill="#C8E5EE" d="M1086.9 571.4l-5.2 3-6-3.4 5.2-3"/>
  <path fill="#43A4C9" d="M1086.9 571.4v11.4l-5.3 3 .1-11.4"/>
  <path fill="#EDF6F9" d="M1081.7 574.4l-.1 11.4-5.9-3.4V571"/>
  <defs>
    <path id="bO" d="M1068 543.9l9.9-5.7c.5-.3 1.2-.3 2 .2l-9.9 5.7c-.8-.4-1.5-.5-2-.2z"/>
  </defs>
  <use fill="#FFDD8E" xlink:href="#bO" overflow="visible"/>
  <clipPath id="bP">
    <use xlink:href="#bO" overflow="visible"/>
  </clipPath>
  <path fill="#FFDD8E" d="M1068 543.9l9.9-5.7c.2-.1.4-.2.7-.2l-9.9 5.7c-.2 0-.5.1-.7.2m.7-.2l9.9-5.7c.4 0 .8.1 1.3.4l-9.9 5.7c-.5-.3-.9-.4-1.3-.4" clip-path="url(#bP)"/>
  <defs>
    <path id="bQ" d="M1098.5 573.5l-9.9 5.7c.5-.3.8-.9.8-1.8l9.9-5.7c0 .9-.3 1.5-.8 1.8z"/>
  </defs>
  <use fill="#FFBD6A" xlink:href="#bQ" overflow="visible"/>
  <clipPath id="bR">
    <use xlink:href="#bQ" overflow="visible"/>
  </clipPath>
  <path fill="#FFBD6A" d="M1089.5 577.4l9.9-5.7c0 .9-.3 1.5-.8 1.8l-9.9 5.7c.4-.3.8-.9.8-1.8" clip-path="url(#bR)"/>
  <path fill="#FFBD6A" d="M1089.5 558.5l9.9-5.7-.1 18.9-9.8 5.7"/>
  <path fill="#FFDD8E" d="M1070 544.1l9.9-5.7 16.7 9.6-9.8 5.8"/>
  <path fill="#FFFAF1" d="M1086.8 553.8c1.5.9 2.8 3 2.7 4.8l-.1 18.9c0 1.8-1.2 2.5-2.8 1.6l-16.8-9.7c-1.5-.9-2.8-3-2.8-4.8l.1-18.9c0-1.8 1.2-2.5 2.8-1.6l16.9 9.7z"/>
  <defs>
    <path id="bS" d="M1086.8 553.8l9.9-5.7c1.5.9 2.8 3 2.7 4.8l-9.9 5.7c0-1.8-1.2-3.9-2.7-4.8z"/>
  </defs>
  <use fill="#FFDD8E" xlink:href="#bS" overflow="visible"/>
  <clipPath id="bT">
    <use xlink:href="#bS" overflow="visible"/>
  </clipPath>
  <path fill="#FFDD8E" d="M1086.8 553.8l9.9-5.7-9.9 5.7m0 0l9.9-5.7c.7.4 1.3 1 1.7 1.8l-9.9 5.7c-.4-.8-1-1.4-1.7-1.8m1.7 1.8l9.9-5.7c.3.5.6 1.1.8 1.7l-9.9 5.7c-.1-.6-.4-1.2-.8-1.7m.8 1.7l9.9-5.7c.1.4.2.8.2 1.2l-9.9 5.7c0-.4 0-.8-.2-1.2" clip-path="url(#bT)"/>
  <defs>
    <path id="bU" d="M1070.3 565.7l.1-18.1 15.7 9.1v18.1z"/>
  </defs>
  <clipPath id="bV">
    <use xlink:href="#bU" overflow="visible"/>
  </clipPath>
  <path fill="#BCE5EC" d="M1082 561.9c.1.5.2 1.1.2 1.6 0 2.5-1.8 3.5-4 2.3-1.4-.8-2.6-2.4-3.3-4 .7 1.7 1.9 3.2 3.3 4 2.2 1.3 4 .2 4-2.3 0-.5-.1-1.1-.2-1.6m-.9-5.5c.1.3.3.6.5.9-.2-.3-.4-.6-.5-.9m-2.9-4.3c-4.4-2.5-7.9-.5-7.9 4.5s3.5 11.1 7.9 13.6 7.9.5 7.9-4.5c0-1.2-.2-2.5-.6-3.7-.2 0-.4-.1-.6-.2-.5-.3-.9-.8-1.2-1.4-.2 0-.5-.1-.7-.2-.3-.2-.6-.4-.8-.8-.2-.3-.3-.6-.4-.9.1.3.2.6.4.9.2.4.5.6.8.8.2.1.5.2.7.2.1.1.1.2.2.4.1.7.7 1.7 1 2.3.5 1.2.3 1.7.1 2.5-.3 1-.3 2-.3 3.1 0 .8-.4 1.2-1.1 1.2-.7 0-1.5-.3-2.1-.4-.8 0-1.2 0-2 .1-.3 0-.8-.1-1.2-.4-1.2-.7-2.6-2.2-3.3-3.3-.4-.7-.9-1.4-1.2-2.2-.2-.7-.3-1.3-.6-1.9-.3-.7-.8-1.3-1.1-2-.3-.6-.6-1.4-.6-2-.2-1.3.7-1.8.6-3.1 0-.8-.1-1.6.4-2 .6-.5 1.3-.4 2.2-.2.6.2 1.2.2 1.9.4.4.1.9.2 1.3.2.3 0 .6.1.9.3.1.1.3.2.4.2.4.3.7.7 1.1 1 .3.3.6.6.7 1v-.5c0-.4.1-.7.3-.9-1-.7-2-1.5-3.1-2.1" clip-path="url(#bV)"/>
  <path fill="#F1526B" d="M1076.6 566.6l-.1-.2h.5l.1.2h-.5m-.9-.9l-.5-.8.1-.1.5.8-.1.1m3.2 1.7l-.6-.7.1-.1.6.7-.1.1m1.6.8l-.7-.8.1-.2.7.8-.1.2m-5.6-4.5l-.1-.2.7.1.1.2-.7-.1m7.4 3.2l-.1-.2.7.1.1.2-.7-.1m-9.7-7.6l-.1-.2.6.1.1.2-.6-.1m10.7 6l-.4-.7.1-.1.4.7-.1.1m.1-1.6l-.1-.2.4-.4.1.2-.4.4M1073 556v-.2l.9.5v.2l-.9-.5m1.1-.6l-.1-.2.4-.4.1.2-.4.4m.8 6.3c-.4-.9-.6-1.9-.6-2.8 0-2.5 1.8-3.5 4-2.3 1.7 1 3.2 3.2 3.8 5.3.1.5.2 1.1.2 1.6 0 2.5-1.8 3.5-4 2.3-1.5-.8-2.7-2.4-3.4-4.1m.8-7l-.7-.7.1-.2.7.7-.1.2m4.9 3l-.3-.8h.2l.3.8h-.2m-3.9-2.7l-.2-.2.2-.6.2.2-.2.6m2-1.5c-.3-.2-.6-.3-.9-.3-.4 0-.9-.1-1.3-.2-.6-.1-1.2-.2-1.9-.4-.9-.2-1.6-.3-2.2.2-.4.4-.4 1.2-.4 2 0 1.3-.8 1.7-.6 3.1.1.6.4 1.4.6 2 .3.7.8 1.3 1.1 2 .3.7.4 1.3.6 1.9.2.8.7 1.5 1.2 2.2.7 1.1 2.1 2.6 3.3 3.3.4.3.9.4 1.2.4.8-.1 1.1-.1 2-.1.7 0 1.5.4 2.1.4.6 0 1-.4 1.1-1.2 0-1.1 0-2.1.3-3.1.2-.8.4-1.4-.1-2.5-.3-.7-.9-1.6-1-2.3-.1-.1-.1-.2-.2-.4-.2 0-.5-.1-.7-.2-.3-.2-.6-.5-.8-.8-.2-.3-.3-.6-.4-.9-.1-.4-.1-.8-.1-1.2-.2-.3-.4-.6-.5-.9-.1-.2-.1-.4-.2-.6-.2-.4-.5-.7-.7-1-.3-.4-.7-.8-1.1-1-.1-.2-.2-.3-.4-.4" clip-path="url(#bV)"/>
  <path fill="#FFE29D" d="M1074.4 554.8l-.4.4.1.2.5-.4-.2-.2m.7-.9l-.1.1.7.7.1-.2-.7-.6m8.6 9.1l-.4.5.1.2.4-.5-.1-.2m-3.2-6.1h-.2l.3.8h.1l-.2-.8m-3.5 9.5h-.4v.2h.5l-.1-.2m1.4.1l-.1.2.6.7.1-.1-.6-.8m-5.3-7.3l-.5-.1v.2l.6.1-.1-.2m9.8 7.6l-.7-.1.1.2.7.1-.1-.2" clip-path="url(#bV)"/>
  <path fill="#0066AE" d="M1074 556.3l-1-.6v.3l1 .5v-.2m2.8-2l-.3.6.2.1.2-.5-.1-.2m6.2 10.3h-.1l.4.7h.1l-.4-.7m-3.1 2.6l-.1.2.7.8.1-.2-.7-.8m-4.4-3.7l-.7-.1.1.3.7.1-.1-.3m-.2 1.2l-.2.1.6.9.1-.1-.5-.9" clip-path="url(#bV)"/>
  <defs>
    <path id="bW" d="M1067.2 567.8l.1-25.2 22.3 12.8-.1 25.2z"/>
  </defs>
  <clipPath id="bX">
    <use xlink:href="#bW" overflow="visible"/>
  </clipPath>
  <path fill="#FFCABE" d="M1070 568.2c-1-.6-1.8-1.9-1.8-3l.1-18.9c0-1.1.8-1.6 1.8-1l16.8 9.7c1 .6 1.8 1.9 1.8 3.1l-.1 18.9c0 1.1-.8 1.6-1.8 1l-16.8-9.8m16.8-14.4l-16.8-9.7c-1.5-.9-2.8-.2-2.8 1.6l-.1 18.9c0 1.7 1.2 3.9 2.7 4.8l16.8 9.7c1.5.9 2.8.2 2.8-1.6l.1-18.9c0-1.8-1.2-3.9-2.7-4.8" clip-path="url(#bX)"/>
  <defs>
    <path id="bY" d="M962.2 504.8l.1-11.1 14.3 8.3v11.1z"/>
  </defs>
  <clipPath id="bZ">
    <use xlink:href="#bY" overflow="visible"/>
  </clipPath>
  <path fill="#5095A0" d="M976.6 502l-14.3-8.3-.1 11.1 14.4 8.3V502" clip-path="url(#bZ)"/>
  <defs>
    <path id="ca" d="M977.8 513.5v-11.1l4.3 2.4-.1 11.1z"/>
  </defs>
  <clipPath id="cb">
    <use xlink:href="#ca" overflow="visible"/>
  </clipPath>
  <path fill="#5095A0" d="M982.1 504.8l-4.3-2.4v11.1l4.2 2.4.1-11.1" clip-path="url(#cb)"/>
  <defs>
    <path id="cc" d="M975.3 527.7v-6.6l2.8 1.6v6.5z"/>
  </defs>
  <clipPath id="cd">
    <use xlink:href="#cc" overflow="visible"/>
  </clipPath>
  <path fill="#F59680" d="M978.1 522.7l-2.8-1.6v6.6l2.8 1.5v-6.5" clip-path="url(#cd)"/>
</svg>
