<svg xmlns="http://www.w3.org/2000/svg" x="0px" y="0px" xmlns:xlink="http://www.w3.org/1999/xlink" viewBox="0 0 1440 875.8">
  <defs>
    <path id="a" d="M750.7 355l-.3 90.6c-6.5-3.8-17.1-3.8-23.6 0l.3-90.6c6.5-3.8 17-3.8 23.6 0z"/>
  </defs>
  <clipPath id="b">
    <use xlink:href="#a" overflow="visible"/>
  </clipPath>
  <path fill="#FFF9EC" d="M750.7 355l-.3 90.6c-.4-.2-.9-.5-1.3-.7l.3-90.6c.4.3.8.5 1.3.7" clip-path="url(#b)"/>
  <path fill="#FFF6E2" d="M749.3 354.3l-.3 90.6c-.5-.2-1-.5-1.6-.7l.3-90.6c.6.3 1.1.5 1.6.7" clip-path="url(#b)"/>
  <path fill="#FFF3D8" d="M747.8 353.7l-.3 90.6c-.5-.2-1-.4-1.6-.5l.3-90.6c.5.1 1.1.3 1.6.5" clip-path="url(#b)"/>
  <path fill="#FFF1CF" d="M746.2 353.2l-.3 90.6c-.5-.2-1.1-.3-1.6-.4l.3-90.6c.5.1 1.1.2 1.6.4" clip-path="url(#b)"/>
  <path fill="#FFEEC5" d="M744.6 352.8l-.3 90.6-1.8-.3.3-90.6 1.8.3" clip-path="url(#b)"/>
  <path fill="#FFEBBB" d="M742.8 352.5l-.3 90.6c-.7-.1-1.3-.2-2-.2l.3-90.6c.7 0 1.3.1 2 .2" clip-path="url(#b)"/>
  <path fill="#FFE8B1" d="M740.8 352.3l-.3 90.6c-.8-.1-1.7-.1-2.5-.1l.3-90.6c.9 0 1.7 0 2.5.1" clip-path="url(#b)"/>
  <path fill="#FFE5A8" d="M738.3 352.2l-.3 90.6c-4.1.1-8.2 1-11.3 2.8l.3-90.6c3.2-1.8 7.2-2.7 11.3-2.8" clip-path="url(#b)"/>
  <defs>
    <path id="c" d="M726.8 445.6c-1.7 1-3 2.2-3.8 3.4.1-26.7.2-53.3.2-80v-10.6c.8-1.2 2.1-2.4 3.8-3.4 0 27.2-.1 63.4-.2 90.6z"/>
  </defs>
  <clipPath id="d">
    <use xlink:href="#c" overflow="visible"/>
  </clipPath>
  <path fill="#FFE5A8" d="M727.1 355l-.3 90.6c-1.7 1-3 2.2-3.8 3.4l.3-90.6c.8-1.2 2-2.4 3.8-3.4" clip-path="url(#d)"/>
  <path fill="#FFF7E4" d="M723.3 358.4L723 449l-1-.6.2-90.6"/>
  <path fill="#FFE5A7" d="M723.3 358.4l-1-.6 4.8-2.8c-1.8 1-3 2.2-3.8 3.4z"/>
  <defs>
    <path id="e" d="M722 452.4l.3-90.6c0 2.5 1.6 5 4.9 6.9l-.3 90.6c-3.3-1.9-5-4.4-4.9-6.9z"/>
  </defs>
  <clipPath id="f">
    <use xlink:href="#e" overflow="visible"/>
  </clipPath>
  <path fill="#FFF9EC" d="M727.1 368.7l-.3 90.6c-.1-.1-.2-.1-.3-.2l.3-90.6c.1.1.2.1.3.2" clip-path="url(#f)"/>
  <path fill="#FFFCF5" d="M726.8 368.5l-.3 90.6c-.7-.5-1.4-.9-1.9-1.4l.3-90.6c.5.5 1.2 1 1.9 1.4" clip-path="url(#f)"/>
  <path fill="#FFF" d="M724.9 367.1l-.3 90.6c-1.3-1.2-2.1-2.4-2.4-3.7l.3-90.6c.3 1.2 1.1 2.5 2.4 3.7" clip-path="url(#f)"/>
  <path fill="#FFFCF5" d="M722.4 363.3l-.3 90.6c-.1-.5-.2-1-.2-1.5l.3-90.6c0 .5.1 1 .2 1.5" clip-path="url(#f)"/>
  <path fill="#FFF7E4" d="M780.3 372.1l-.3 90.6-29.6-17.1.3-90.6"/>
  <defs>
    <path id="g" d="M784.7 468c-.6-1.9-2.1-3.8-4.7-5.3l.3-90.6c2.6 1.5 4.1 3.3 4.7 5.3l-.3 90.6z"/>
  </defs>
  <clipPath id="h">
    <use xlink:href="#g" overflow="visible"/>
  </clipPath>
  <path fill="#FFF" d="M785 377.5l-.3 90.6c-.4-1.3-1.2-2.6-2.4-3.7l.3-90.6c1.3 1.1 2.1 2.4 2.4 3.7" clip-path="url(#h)"/>
  <path fill="#FFFCF5" d="M782.6 373.8l-.3 90.6c-.6-.5-1.2-1-2-1.4l.3-90.6c.8.4 1.4.9 2 1.4" clip-path="url(#h)"/>
  <path fill="#FFF9EC" d="M780.6 372.3l-.3 90.6c-.1-.1-.2-.1-.3-.2l.3-90.6c.1.1.2.2.3.2" clip-path="url(#h)"/>
  <defs>
    <path id="i" d="M784.7 468c-4.2-30.2.2-60.4.3-90.6.2.5.2 1.1.2 1.6l-.3 90.6c.1-.6 0-1.1-.2-1.6z"/>
  </defs>
  <clipPath id="j">
    <use xlink:href="#i" overflow="visible"/>
  </clipPath>
  <path fill="#FFFCF5" d="M785.2 379l-.3 90.6c0-.5-.1-1-.2-1.5l.3-90.6c.2.5.2 1 .2 1.5" clip-path="url(#j)"/>
  <path fill="#FFF" d="M785 377.5l-.3 90.6c-.4-1.3-1.2-2.6-2.4-3.7l.3-90.6c1.3 1.1 2.1 2.4 2.4 3.7" clip-path="url(#j)"/>
  <defs>
    <path id="k" d="M785.2 379l-.3 90.6c0 2.5-1.6 4.9-4.9 6.8l.3-90.6c3.3-1.9 4.9-4.3 4.9-6.8z"/>
  </defs>
  <clipPath id="l">
    <use xlink:href="#k" overflow="visible"/>
  </clipPath>
  <path fill="#FFE5A8" d="M785.2 379l-.3 90.6c0 2.5-1.6 4.9-4.9 6.8l.3-90.6c3.3-1.9 4.9-4.3 4.9-6.8" clip-path="url(#l)"/>
  <path fill="#FFDD8E" d="M745.8 344.2L727.1 355c-1.7 1-3 2.2-3.8 3.4-2.2 3.4-.9 7.5 3.9 10.3l29.6 17.1c4.8 2.8 11.8 3.5 17.7 2.2 2.1-.5 4.1-1.2 5.9-2.2l18.7-10.9-53.3-30.7z"/>
  <path fill="#FFF7E4" d="M756.8 385.8l-.3 90.6-29.6-17.1.2-90.6"/>
  <defs>
    <path id="m" d="M780.4 385.8l-.3 90.6c-1.7 1-3.7 1.7-5.9 2.2-5.9 1.3-12.9.6-17.7-2.2l.3-90.6c4.8 2.8 11.8 3.5 17.7 2.2 2.1-.5 4.1-1.2 5.9-2.2z"/>
  </defs>
  <clipPath id="n">
    <use xlink:href="#m" overflow="visible"/>
  </clipPath>
  <path fill="#FFE5A8" d="M780.4 385.8l-.3 90.6c-1.7 1-3.7 1.7-5.9 2.2-1.7.4-3.6.6-5.4.6l.3-90.6c1.8 0 3.7-.2 5.4-.6 2.1-.5 4.1-1.2 5.9-2.2" clip-path="url(#n)"/>
  <path fill="#FFE8B1" d="M769.1 388.6l-.3 90.6c-.8 0-1.6 0-2.5-.1l.3-90.6c.8.1 1.7.1 2.5.1" clip-path="url(#n)"/>
  <path fill="#FFEBBB" d="M766.6 388.6l-.3 90.6c-.7 0-1.3-.1-2-.2l.3-90.6c.7.1 1.3.1 2 .2" clip-path="url(#n)"/>
  <path fill="#FFEEC5" d="M764.6 388.4l-.3 90.6-1.8-.3.3-90.6 1.8.3" clip-path="url(#n)"/>
  <path fill="#FFF1CF" d="M762.9 388.1l-.3 90.6c-.6-.1-1.1-.2-1.6-.4l.3-90.6c.5.1 1 .2 1.6.4" clip-path="url(#n)"/>
  <path fill="#FFF3D8" d="M761.2 387.7l-.3 90.6c-.5-.2-1.1-.3-1.6-.5l.3-90.6c.6.1 1.1.3 1.6.5" clip-path="url(#n)"/>
  <path fill="#FFF6E2" d="M759.7 387.1l-.3 90.6c-.5-.2-1.1-.4-1.6-.6l.3-90.6c.5.2 1 .4 1.6.6" clip-path="url(#n)"/>
  <path fill="#FFF9EC" d="M758.1 386.5l-.3 90.6c-.5-.2-.9-.4-1.3-.7l.3-90.6c.4.3.8.5 1.3.7" clip-path="url(#n)"/>
  <path fill="#FFBD6A" d="M775.5 388.6l-.2 90.6 23.5-13.7.3-90.6"/>
  <path fill="#FFF7E4" d="M775.5 388.6l-.2 90.6-1.1-.6.3-90.6"/>
  <path fill="#FFE5A7" d="M775.5 388.6l-1-.6c2.1-.5 4.1-1.2 5.9-2.2l-4.9 2.8z"/>
  <defs>
    <path id="o" d="M738.3 366.4l18.3-10.7 19.2 11.1-18.3 10.6z"/>
  </defs>
  <clipPath id="p">
    <use xlink:href="#o" overflow="visible"/>
  </clipPath>
  <path fill="#FFF" d="M775.8 366.8l-19.2-11.1-18.3 10.7 19.2 11 18.3-10.6" clip-path="url(#p)"/>
  <defs>
    <path id="q" d="M744.8 367l13.3-7.7 11 6.4-13.2 7.7z"/>
  </defs>
  <clipPath id="r">
    <use xlink:href="#q" overflow="visible"/>
  </clipPath>
  <path fill="#F69E89" d="M769.1 365.7l-3-1.7-5.1 2.9-5-2.9 5.1-2.9-3-1.8-13.3 7.7 3.1 1.8 5.5-3.2 5 2.8-5.6 3.3 3.1 1.7 13.2-7.7" clip-path="url(#r)"/>
  <path fill="#F5967F" d="M798.8 384.8l-23.4 13.6-1-.6h-.1c-6.1 1.3-13 .5-17.6-2.2l-29.6-17.1c-2.6-1.5-4.2-3.3-4.7-5.4-.1-.3-.1-.7-.1-1v-2.3c-.4 1.1-.5 2.3-.2 3.4.5 2.2 2.2 4.1 4.9 5.7l29.6 17.1c4.7 2.7 11.7 3.6 17.8 2.2l1.1.6 23.6-13.7-.3-.3z"/>
  <path fill="#F5967F" d="M798.8 392.8l-23.4 13.6-1-.6h-.1c-6.1 1.3-13 .5-17.6-2.2l-29.6-17.1c-2.6-1.5-4.2-3.3-4.7-5.4-.1-.3-.1-.7-.1-1v-2.3c-.4 1.1-.5 2.3-.2 3.4.5 2.2 2.2 4.1 4.9 5.7l29.6 17.1c4.7 2.7 11.7 3.6 17.8 2.2l1.1.6 23.6-13.7-.3-.3z"/>
  <path fill="#F5967F" d="M798.8 400.8l-23.4 13.6-1-.6h-.1c-6.1 1.3-13 .5-17.6-2.2l-29.6-17.1c-2.6-1.5-4.2-3.3-4.7-5.4-.1-.3-.1-.7-.1-1v-2.3c-.4 1.1-.5 2.3-.2 3.4.5 2.2 2.2 4.1 4.9 5.7l29.6 17.1c4.7 2.7 11.7 3.6 17.8 2.2l1.1.6 23.6-13.7-.3-.3z"/>
  <path fill="#F5967F" d="M798.8 408.8l-23.4 13.6-1-.6h-.1c-6.1 1.3-13 .5-17.6-2.2l-29.6-17.1c-2.6-1.5-4.2-3.3-4.7-5.4-.1-.3-.1-.7-.1-1v-2.3c-.4 1.1-.5 2.3-.2 3.4.5 2.2 2.2 4.1 4.9 5.7l29.6 17.1c4.7 2.7 11.7 3.6 17.8 2.2l1.1.6 23.6-13.7-.3-.3z"/>
  <path fill="#F5967F" d="M798.8 416.8l-23.4 13.6-1-.6h-.1c-6.1 1.3-13 .5-17.6-2.2l-29.6-17.1c-2.6-1.5-4.2-3.3-4.7-5.4-.1-.3-.1-.7-.1-1v-2.3c-.4 1.1-.5 2.3-.2 3.4.5 2.2 2.2 4.1 4.9 5.7l29.6 17.1c4.7 2.7 11.7 3.6 17.8 2.2l1.1.6 23.6-13.7-.3-.3z"/>
  <path fill="#F5967F" d="M798.8 424.8l-23.4 13.6-1-.6h-.1c-6.1 1.3-13 .5-17.6-2.2l-29.6-17.1c-2.6-1.5-4.2-3.3-4.7-5.4-.1-.3-.1-.7-.1-1v-2.3c-.4 1.1-.5 2.3-.2 3.4.5 2.2 2.2 4.1 4.9 5.7l29.6 17.1c4.7 2.7 11.7 3.6 17.8 2.2l1.1.6 23.6-13.7-.3-.3z"/>
  <path fill="#F5967F" d="M798.8 432.8l-23.4 13.6-1-.6h-.1c-6.1 1.3-13 .5-17.6-2.2l-29.6-17.1c-2.6-1.5-4.2-3.3-4.7-5.4-.1-.3-.1-.7-.1-1v-2.3c-.4 1.1-.5 2.3-.2 3.4.5 2.2 2.2 4.1 4.9 5.7l29.6 17.1c4.7 2.7 11.7 3.6 17.8 2.2l1.1.6 23.6-13.7-.3-.3z"/>
  <path fill="#F5967F" d="M798.8 440.8l-23.4 13.6-1-.6h-.1c-6.1 1.3-13 .5-17.6-2.2l-29.6-17.1c-2.6-1.5-4.2-3.3-4.7-5.4-.1-.3-.1-.7-.1-1v-2.3c-.4 1.1-.5 2.3-.2 3.4.5 2.2 2.2 4.1 4.9 5.7l29.6 17.1c4.7 2.7 11.7 3.6 17.8 2.2l1.1.6 23.6-13.7-.3-.3z"/>
  <path fill="#F5967F" d="M798.8 448.8l-23.4 13.6-1-.6h-.1c-6.1 1.3-13 .5-17.6-2.2l-29.6-17.1c-2.6-1.5-4.2-3.3-4.7-5.4-.1-.3-.1-.7-.1-1v-2.3c-.4 1.1-.5 2.3-.2 3.4.5 2.2 2.2 4.1 4.9 5.7l29.6 17.1c4.7 2.7 11.7 3.6 17.8 2.2l1.1.6 23.6-13.7-.3-.3z"/>
  <path fill="#F5967F" d="M798.8 456.8l-23.4 13.6-1-.6h-.1c-6.1 1.3-13 .5-17.6-2.2l-29.6-17.1c-2.6-1.5-4.2-3.3-4.7-5.4-.1-.3-.1-.7-.1-1v-2.3c-.4 1.1-.5 2.3-.2 3.4.5 2.2 2.2 4.1 4.9 5.7l29.6 17.1c4.7 2.7 11.7 3.6 17.8 2.2l1.1.6 23.6-13.7-.3-.3z"/>
  <path fill="#FFDD8E" d="M762.1 440.5L722.4 464l-60.9-34.6 39.7-23.4"/>
  <path fill="#FFBD6A" d="M762.1 440.5l-.2 44.8-39.7 23.5.2-44.8"/>
  <path fill="#FFF5D4" d="M722.4 464l-.2 44.8-60.8-34.5.1-44.9"/>
  <path fill="#97D2E8" d="M726.7 425l-16.2 9.4-17.4-10.1 16.2-9.4"/>
  <path fill="#43A4C9" d="M726.7 425v11.4l-16.2 9.4v-11.4"/>
  <path fill="#EDF6F9" d="M710.5 434.4v11.4l-17.4-10.1v-11.4"/>
  <path fill="#F1526B" d="M684.7 426.9v4.4l-3.8 2.2"/>
  <path fill="#FFF2D3" d="M680.9 433.5l-6.5-3.8 3.8-6.6 6.5 3.8"/>
  <path fill="#F59680" d="M680.4 431.7l-4.3-2.5 2.5-4.3 4.3 2.5"/>
  <path fill="#F1526B" d="M746.8 436.2v4.9l-4.3 2.5"/>
  <path fill="#FFF2D3" d="M742.5 443.6l-6.5-3.8 4.3-7.4 6.5 3.8"/>
  <path fill="#F59680" d="M742.2 441.9l-4.6-2.6 3-5.2 4.6 2.6"/>
  <defs>
    <path id="s" d="M720.9 439.8v-5l-2.4 1.4v5z"/>
  </defs>
  <use fill="#FFF" xlink:href="#s" overflow="visible"/>
  <defs>
    <path id="t" d="M661.4 437.8l40-23.3 60.9 35.2-40 23.2z"/>
  </defs>
  <clipPath id="u">
    <use xlink:href="#t" overflow="visible"/>
  </clipPath>
  <path fill="#F5967F" d="M762.3 449.7l-.3-.2-39.6 22.5-60.6-34.4-.4.2 60.9 34.5.1.1 39.9-22.7" clip-path="url(#u)"/>
  <defs>
    <path id="v" d="M661.4 445.3l40-23.3 60.9 35.2-40 23.2z"/>
  </defs>
  <clipPath id="w">
    <use xlink:href="#v" overflow="visible"/>
  </clipPath>
  <path fill="#F5967F" d="M762.3 457.2l-.3-.2-39.6 22.5-60.7-34.4-.3.2 60.9 34.5.1.1 39.9-22.7" clip-path="url(#w)"/>
  <defs>
    <path id="x" d="M661.4 452.8l40-23.3 60.9 35.2-40 23.2z"/>
  </defs>
  <clipPath id="y">
    <use xlink:href="#x" overflow="visible"/>
  </clipPath>
  <path fill="#F5967F" d="M762 464.4L722.4 487l-60.7-34.4-.3.2 60.8 34.5.2.1 39.9-22.7-.3-.3" clip-path="url(#y)"/>
  <defs>
    <path id="z" d="M661.4 460.3l40-23.3 60.9 35.2-40 23.2z"/>
  </defs>
  <clipPath id="A">
    <use xlink:href="#z" overflow="visible"/>
  </clipPath>
  <path fill="#F5967F" d="M762.3 472.2l-.3-.2-39.6 22.5-60.6-34.4-.4.2 60.9 34.5.1.1 39.9-22.7" clip-path="url(#A)"/>
  <defs>
    <path id="B" d="M661.4 467.8l40-23.3 60.9 35.2-40 23.2z"/>
  </defs>
  <clipPath id="C">
    <use xlink:href="#B" overflow="visible"/>
  </clipPath>
  <path fill="#F5967F" d="M762.3 479.7l-.3-.2-39.6 22.5-60.7-34.4-.3.2 60.9 34.5.1.1 39.9-22.7" clip-path="url(#C)"/>
  <path fill="#FFCABE" d="M657.9 461.9v4.9l-15.4-8.9V453"/>
  <path fill="#F1526B" d="M642.5 453v4.9l-33.2 19.4v-4.9"/>
  <path fill="#F5967F" d="M642.5 452.2l16.8 9.7-34.6 20.1-16.8-9.7 34.6-20.1zm-17.9 29l33.2-19.3-15.4-8.9-33.2 19.3 15.4 8.9"/>
  <path fill="#F1526B" d="M659.3 461.9v4.9l-34.7 20.1.1-4.9"/>
  <path fill="#FFCABE" d="M624.7 482l-.1 4.9-16.7-9.6v-4.9"/>
  <path fill="#BCE5EC" d="M611 473.4l13.6 7.9 31.6-18.3-13.7-7.9"/>
  <path fill="#FFDD8E" d="M697.4 458.5L667 476.2l-31.9-18.4 30.4-17.7"/>
  <path fill="#FFBD6A" d="M697.4 458.5l-.1 36.7-30.5 17.7.2-36.7"/>
  <path fill="#FFF5D4" d="M667 476.2l-.2 36.7-31.8-18.4.1-36.7"/>
  <path fill="#F5967F" d="M680 461.8l-5.1 3-5.8-3.3 5.2-3"/>
  <path fill="#F1526B" d="M680 461.8v3.3l-5.1 3v-3.3"/>
  <path fill="#FFCABE" d="M674.9 464.8v3.3l-5.8-3.3v-3.3"/>
  <path fill="#F5967F" d="M670 456.8l-5.1 3-5.8-3.3 5.2-3"/>
  <path fill="#F1526B" d="M670 456.8v3.3l-5.1 3v-3.3"/>
  <path fill="#FFCABE" d="M664.9 459.8v3.3l-5.8-3.3v-3.3"/>
  <defs>
    <path id="D" d="M634.5 467.8l30.8-17.9 32.4 18.7-30.9 17.9z"/>
  </defs>
  <clipPath id="E">
    <use xlink:href="#D" overflow="visible"/>
  </clipPath>
  <path fill="#F5967F" d="M697.3 468.4l-30.4 17.2-32.1-18-.3.2 32.4 18.2 30.8-17.4-.4-.2" clip-path="url(#E)"/>
  <defs>
    <path id="F" d="M634.5 475.8l30.8-17.9 32.4 18.7-30.9 17.9z"/>
  </defs>
  <clipPath id="G">
    <use xlink:href="#F" overflow="visible"/>
  </clipPath>
  <path fill="#F5967F" d="M697.7 476.6l-.4-.2-30.4 17.2-32.1-18-.3.2 32.4 18.2 30.8-17.4" clip-path="url(#G)"/>
  <defs>
    <path id="H" d="M634.5 483.8l30.8-17.9 32.4 18.7-30.9 17.9z"/>
  </defs>
  <clipPath id="I">
    <use xlink:href="#H" overflow="visible"/>
  </clipPath>
  <path fill="#F5967F" d="M697.7 484.6l-.4-.2-30.4 17.2-32.1-18-.3.2 32.4 18.2 30.8-17.4" clip-path="url(#I)"/>
  <defs>
    <path id="J" d="M644.5 500l.1-13.2 7.5 4.4v13.1z"/>
  </defs>
  <clipPath id="K">
    <use xlink:href="#J" overflow="visible"/>
  </clipPath>
  <g clip-path="url(#K)">
    <path fill="#FFF" d="M652.1 491.2l-7.5-4.4-.1 13.2 7.6 4.3v-13.1"/>
  </g>
  <path fill="#E2F1F6" d="M637.3 500l-.8.5-.8-.5.8-.4"/>
  <path fill="#43A4C9" d="M637.3 500l-.1 16.3-.8.5.1-16.3"/>
  <path fill="#EDF6F9" d="M636.5 500.5l-.1 16.3-.7-.4V500"/>
  <path fill="#E2F1F6" d="M626.3 494l-.8.5-.8-.5.8-.4"/>
  <path fill="#43A4C9" d="M626.3 494l-.1 16.3-.8.5.1-16.3"/>
  <path fill="#EDF6F9" d="M625.5 494.5l-.1 16.3-.7-.5V494"/>
  <path fill="#97D2E8" d="M656.3 490.2l-23.6 13.7-14-8.1 23.5-13.7"/>
  <path fill="#43A4C9" d="M656.3 490.2v2.4l-23.6 13.7v-2.4"/>
  <path fill="#EDF6F9" d="M632.7 503.9v2.4l-14-8.1v-2.4"/>
  <defs>
    <path id="L" d="M643.2 478.1v-11.3l9.8 5.7v11.2z"/>
  </defs>
  <clipPath id="M">
    <use xlink:href="#L" overflow="visible"/>
  </clipPath>
  <path fill="#F1526B" d="M649.6 470.5l-2.9-1.7v4l-3.5-2v3.3l3.5 2-.1 3.9 2.9 1.7v-3.9l3.5 1.9v-3.3l-3.4-2v-3.9" clip-path="url(#M)"/>
  <path fill="#F1526B" d="M600.2 501.3l-.1 4.9-18.9 11v-4.9"/>
  <path fill="#FFCABE" d="M648.1 529v4.9l-48-27.7.1-4.9"/>
  <path fill="#F5967F" d="M600.2 500.5l49.4 28.5-20.3 11.8-49.4-28.5 20.3-11.8zm29 39.5l18.9-11-48-27.7-18.9 11 48 27.7"/>
  <path fill="#F1526B" d="M649.5 529v4.9l-20.3 11.8v-4.8"/>
  <path fill="#FFCABE" d="M629.2 540.9v4.8l-49.4-28.5v-4.9"/>
  <path fill="#BCE5EC" d="M583 513.4l46.2 26.6 17.2-9.9-46.2-26.7"/>
  <path fill="#D8CFBF" d="M651.8 547.1l164.7-95.7-.1 16.3-164.6 95.7"/>
  <path fill="#F8F6F3" d="M816.5 451.4l217.3 125.5-.1 16.3-217.3-125.5"/>
  <path fill="#A88" d="M806.9 488.7l-20.5 11.9-12-6.8 20.6-12"/>
  <path fill="#FEF4F2" d="M786.4 500.6l-.1 12.3-11.9-6.9v-12.2"/>
  <path fill="#A88" d="M794 488.4l-20.6 11.9-18-10.4L776 478"/>
  <path fill="#5B4343" d="M806.9 488.7l-13 7.5.1-8.1-20.6 12v20.3l20.5-11.9 13-7.6"/>
  <path fill="#E5E5E5" d="M773.4 500.3v20.4l-18-10.4v-20.4"/>
  <path fill="#A88" d="M764.3 503.7L726 525.9l-8.9-5.1 38.3-22.3"/>
  <path fill="#5B4343" d="M764.3 503.7v12.2l-38.4 22.3.1-12.3"/>
  <path fill="#FEF4F2" d="M726 525.9l-.1 12.3-8.9-5.2.1-12.2"/>
  <path fill="#86969B" d="M880.7 507.5l-15.1 8.8-24.9-14.4 15.1-8.7"/>
  <path fill="#FFD686" d="M880.7 507.5v12.3l-15.1 8.7v-12.2"/>
  <path fill="#D3DDDB" d="M865.6 516.3v12.2l-24.9-14.3v-12.3"/>
  <defs>
    <path id="N" d="M735.8 552.1l86.5-50.3 164.6 95.1-86.5 50.2z"/>
  </defs>
  <clipPath id="O">
    <use xlink:href="#N" overflow="visible"/>
  </clipPath>
  <path fill="#86969B" d="M835 509.2l-12.7-7.4-30.5 17.7 35.5 20.5-39.8 23.1 41.3 23.9-15.8 9.7 87.4 50.4 12.7-7.4-75-43.2 15.9-9.7-41.1-23.7 39.9-23.1-35.5-20.5 17.7-10.3" clip-path="url(#O)"/>
  <defs>
    <path id="P" d="M771 605.6l50.3-29.2 25.7 14.8-50.3 29.2z"/>
  </defs>
  <use fill="#86969B" xlink:href="#P" overflow="visible"/>
  <clipPath id="Q">
    <use xlink:href="#P" overflow="visible"/>
  </clipPath>
  <path fill="#86969B" d="M847 591.2l-25.7-14.8-50.3 29.2 25.7 14.8 50.3-29.2" clip-path="url(#Q)"/>
  <path fill="#B2DBE7" d="M784.5 484.6l-.2 53.8c0 1-.6 1.9-1.9 2.6-2.5 1.5-6.6 1.5-9.1 0-1.3-.7-1.9-1.7-1.9-2.7l.2-53.8c0 1 .6 1.9 1.9 2.7 2.5 1.5 6.6 1.5 9.1 0 1.2-.7 1.8-1.6 1.9-2.6z"/>
  <path fill="#B2DBE7" d="M782.5 481.9c2.5 1.5 2.6 3.8 0 5.3-2.5 1.5-6.6 1.5-9.1 0s-2.5-3.8 0-5.3c2.5-1.4 6.6-1.4 9.1 0z"/>
  <path fill="#0066AE" d="M782.5 486.4c-.9.5-2 .8-3.1 1v54.5c1.1-.2 2.2-.5 3.1-1 1.3-.7 1.9-1.7 1.9-2.6l.1-54.5c-.1.9-.8 1.9-2 2.6z"/>
  <path fill="#D3DDDB" d="M784.5 484.6l-.2 53.8c0 1-.6 1.9-1.9 2.6-2.5 1.5-6.6 1.5-9.1 0-1.3-.7-1.9-1.7-1.9-2.7l.2-53.8c0 1 .6 1.9 1.9 2.7 2.5 1.5 6.6 1.5 9.1 0 1.2-.7 1.8-1.6 1.9-2.6z"/>
  <path fill="#D3DDDB" d="M782.5 481.9c2.5 1.5 2.6 3.8 0 5.3-2.5 1.5-6.6 1.5-9.1 0s-2.5-3.8 0-5.3c2.5-1.4 6.6-1.4 9.1 0z"/>
  <path fill="#393A3A" d="M781 482.6c1.7 1 1.7 2.6 0 3.5-1.7 1-4.4 1-6.1 0-1.7-1-1.7-2.6 0-3.5 1.6-1 4.4-1 6.1 0z"/>
  <path fill="#86969B" d="M782.5 487.2c-.9.5-2 .8-3.1 1v53.7c1.1-.2 2.2-.5 3.1-1 1.3-.7 1.9-1.7 1.9-2.6l.1-54.5c-.1.9-.8 2.7-2 3.4z"/>
  <path fill="#86969B" d="M780 555.3l-70.4-41 14.3-13.8 70.5 41"/>
  <path fill="#2A3838" d="M794.4 541.5l.1 44.4L765 603l-.1-39 15.1-14.2v5.5"/>
  <path fill="#D3DDDB" d="M765 603l-70.5-41-.1-38.9 70.5 40.9"/>
  <path fill="#86969B" d="M764.9 564l-70.5-40.9 15.1-14.2 70.5 40.9"/>
  <defs>
    <path id="R" d="M773.2 577.5v-4.3l16.7-9.6v4.3z"/>
  </defs>
  <use fill="#F8F6F3" xlink:href="#R" overflow="visible"/>
  <clipPath id="S">
    <use xlink:href="#R" overflow="visible"/>
  </clipPath>
  <path fill="#F8F6F3" d="M789.9 563.6l-16.7 9.6v4.3l16.7-9.6v-4.3" clip-path="url(#S)"/>
  <defs>
    <path id="T" d="M773.2 582.5v-4.3l16.7-9.6v4.3z"/>
  </defs>
  <use fill="#F8F6F3" xlink:href="#T" overflow="visible"/>
  <clipPath id="U">
    <use xlink:href="#T" overflow="visible"/>
  </clipPath>
  <path fill="#F8F6F3" d="M789.9 568.6l-16.7 9.6v4.3l16.7-9.6v-4.3" clip-path="url(#U)"/>
  <defs>
    <path id="V" d="M773.2 587.5v-4.3l16.7-9.6v4.3z"/>
  </defs>
  <use fill="#F8F6F3" xlink:href="#V" overflow="visible"/>
  <clipPath id="W">
    <use xlink:href="#V" overflow="visible"/>
  </clipPath>
  <path fill="#F8F6F3" d="M789.9 573.6l-16.7 9.6v4.3l16.7-9.6v-4.3" clip-path="url(#W)"/>
  <defs>
    <path id="X" d="M773.2 592.5v-4.3l16.7-9.6v4.3z"/>
  </defs>
  <use fill="#F8F6F3" xlink:href="#X" overflow="visible"/>
  <clipPath id="Y">
    <use xlink:href="#X" overflow="visible"/>
  </clipPath>
  <path fill="#F8F6F3" d="M789.9 578.6l-16.7 9.6v4.3l16.7-9.6v-4.3" clip-path="url(#Y)"/>
  <defs>
    <path id="Z" d="M773.2 597.5v-4.3l16.7-9.6v4.3z"/>
  </defs>
  <use fill="#F8F6F3" xlink:href="#Z" overflow="visible"/>
  <clipPath id="aa">
    <use xlink:href="#Z" overflow="visible"/>
  </clipPath>
  <path fill="#F8F6F3" d="M789.9 583.6l-16.7 9.6v4.3l16.7-9.6v-4.3" clip-path="url(#aa)"/>
  <path fill="#9B9B9B" d="M729 550.6l-.1 37.5c0 1-.6 1.9-1.9 2.6-2.5 1.5-6.6 1.5-9.1 0-1.3-.7-1.9-1.7-1.9-2.7l.1-37.5c0 1 .6 1.9 1.9 2.7 2.5 1.5 6.6 1.5 9.1 0 1.3-.7 1.9-1.7 1.9-2.6z"/>
  <path fill="#9B9B9B" d="M727.1 547.9c2.5 1.5 2.5 3.8 0 5.3s-6.6 1.5-9.1 0-2.5-3.8 0-5.3 6.5-1.5 9.1 0z"/>
  <path fill="#393A3A" d="M727 553.2c-.9.5-2 .8-3.1 1v37.5c1.1-.2 2.2-.5 3.1-1 1.3-.7 1.9-1.7 1.9-2.6l.1-37.5c-.1.9-.7 1.9-2 2.6z"/>
  <path fill="#393A3A" d="M728.9 557.4c0 1-.6 1.9-1.9 2.6-2.5 1.5-6.6 1.5-9.1 0-1.3-.7-1.9-1.7-1.9-2.6v1.3c.3.5.9 1.1 1.6 1.5 2.7 1.5 7 1.5 9.7 0 .7-.4 1.3-.9 1.6-1.5v-1.3zm0 6c0 1-.6 1.9-1.9 2.6-2.5 1.5-6.6 1.5-9.1 0-1.3-.7-1.9-1.7-1.9-2.6v1.3c.3.5.9 1.1 1.6 1.5 2.7 1.5 7 1.5 9.7 0 .7-.4 1.3-.9 1.6-1.5v-1.3zm0 6c0 1-.6 1.9-1.9 2.6-2.5 1.5-6.6 1.5-9.1 0-1.3-.7-1.9-1.7-1.9-2.6v1.3c.3.5.9 1.1 1.6 1.5 2.7 1.5 7 1.5 9.7 0 .7-.4 1.3-.9 1.6-1.5v-1.3zm0 6c0 1-.6 1.9-1.9 2.6-2.5 1.5-6.6 1.5-9.1 0-1.3-.7-1.9-1.7-1.9-2.6v1.3c.3.5.9 1.1 1.6 1.5 2.7 1.5 7 1.5 9.7 0 .7-.4 1.3-.9 1.6-1.5v-1.3zm0 6c0 1-.6 1.9-1.9 2.6-2.5 1.5-6.6 1.5-9.1 0-1.3-.7-1.9-1.7-1.9-2.6v1.3c.3.5.9 1.1 1.6 1.5 2.7 1.5 7 1.5 9.7 0 .7-.4 1.3-.9 1.6-1.5v-1.3z"/>
  <path fill="#9B9B9B" d="M740 556.6l-.1 37.5c0 1-.6 1.9-1.9 2.6-2.5 1.5-6.6 1.5-9.1 0-1.3-.7-1.9-1.7-1.9-2.7l.1-37.5c0 1 .6 1.9 1.9 2.7 2.5 1.5 6.6 1.5 9.1 0 1.3-.7 1.9-1.7 1.9-2.6z"/>
  <path fill="#9B9B9B" d="M738.1 553.9c2.5 1.5 2.5 3.8 0 5.3s-6.6 1.5-9.1 0-2.5-3.8 0-5.3c2.4-1.5 6.5-1.5 9.1 0z"/>
  <path fill="#393A3A" d="M738 559.2c-.9.5-2 .8-3.1 1v37.5c1.1-.2 2.2-.5 3.1-1 1.3-.7 1.9-1.7 1.9-2.6l.1-37.5c-.1.9-.7 1.9-2 2.6z"/>
  <path fill="#393A3A" d="M739.9 563.4c0 1-.6 1.9-1.9 2.6-2.5 1.5-6.6 1.5-9.1 0-1.3-.7-1.9-1.7-1.9-2.6v1.3c.3.5.9 1.1 1.6 1.5 2.7 1.5 7 1.5 9.7 0 .7-.4 1.3-.9 1.6-1.5v-1.3zm0 6c0 1-.6 1.9-1.9 2.6-2.5 1.5-6.6 1.5-9.1 0-1.3-.7-1.9-1.7-1.9-2.6v1.3c.3.5.9 1.1 1.6 1.5 2.7 1.5 7 1.5 9.7 0 .7-.4 1.3-.9 1.6-1.5v-1.3zm0 6c0 1-.6 1.9-1.9 2.6-2.5 1.5-6.6 1.5-9.1 0-1.3-.7-1.9-1.7-1.9-2.6v1.3c.3.5.9 1.1 1.6 1.5 2.7 1.5 7 1.5 9.7 0 .7-.4 1.3-.9 1.6-1.5v-1.3zm0 6c0 1-.6 1.9-1.9 2.6-2.5 1.5-6.6 1.5-9.1 0-1.3-.7-1.9-1.7-1.9-2.6v1.3c.3.5.9 1.1 1.6 1.5 2.7 1.5 7 1.5 9.7 0 .7-.4 1.3-.9 1.6-1.5v-1.3zm0 6c0 1-.6 1.9-1.9 2.6-2.5 1.5-6.6 1.5-9.1 0-1.3-.7-1.9-1.7-1.9-2.6v1.3c.3.5.9 1.1 1.6 1.5 2.7 1.5 7 1.5 9.7 0 .7-.4 1.3-.9 1.6-1.5v-1.3z"/>
  <path fill="#9B9B9B" d="M752 562.6l-.1 37.5c0 1-.6 1.9-1.9 2.6-2.5 1.5-6.6 1.5-9.1 0-1.3-.7-1.9-1.7-1.9-2.7l.1-37.5c0 1 .6 1.9 1.9 2.7 2.5 1.5 6.6 1.5 9.1 0 1.3-.7 1.9-1.7 1.9-2.6z"/>
  <path fill="#9B9B9B" d="M750.1 559.9c2.5 1.5 2.5 3.8 0 5.3s-6.6 1.5-9.1 0-2.5-3.8 0-5.3c2.4-1.5 6.5-1.5 9.1 0z"/>
  <path fill="#393A3A" d="M750 565.2c-.9.5-2 .8-3.1 1v37.5c1.1-.2 2.2-.5 3.1-1 1.3-.7 1.9-1.7 1.9-2.6l.1-37.5c-.1.9-.7 1.9-2 2.6z"/>
  <path fill="#212121" d="M751.9 569.3c0 1-.6 1.9-1.9 2.6-2.5 1.5-6.6 1.5-9.1 0-1.3-.7-1.9-1.7-1.9-2.6v1.3c.3.5.9 1.1 1.6 1.5 2.7 1.5 7 1.5 9.7 0 .7-.4 1.3-.9 1.6-1.5v-1.3zm0 6c0 1-.6 1.9-1.9 2.6-2.5 1.5-6.6 1.5-9.1 0-1.3-.7-1.9-1.7-1.9-2.6v1.3c.3.5.9 1.1 1.6 1.5 2.7 1.5 7 1.5 9.7 0 .7-.4 1.3-.9 1.6-1.5v-1.3zm0 6c0 1-.6 1.9-1.9 2.6-2.5 1.5-6.6 1.5-9.1 0-1.3-.7-1.9-1.7-1.9-2.6v1.3c.3.5.9 1.1 1.6 1.5 2.7 1.5 7 1.5 9.7 0 .7-.4 1.3-.9 1.6-1.5v-1.3zm0 6c0 1-.6 1.9-1.9 2.6-2.5 1.5-6.6 1.5-9.1 0-1.3-.7-1.9-1.7-1.9-2.6v1.3c.3.5.9 1.1 1.6 1.5 2.7 1.5 7 1.5 9.7 0 .7-.4 1.3-.9 1.6-1.5v-1.3zm0 6c0 1-.6 1.9-1.9 2.6-2.5 1.5-6.6 1.5-9.1 0-1.3-.7-1.9-1.7-1.9-2.6v1.3c.3.5.9 1.1 1.6 1.5 2.7 1.5 7 1.5 9.7 0 .7-.4 1.3-.9 1.6-1.5v-1.3z"/>
  <path fill="#C8E5EE" d="M832.1 618l-17 9.9-4.3-2.5 17-9.9"/>
  <path fill="#2A3838" d="M832.1 618v5.7l-17 9.9v-5.7"/>
  <path fill="#A9C4C2" d="M815.1 627.9v5.7l-4.3-2.5v-5.7"/>
  <path fill="#ADADAD" d="M832.1 612.3l-17 9.9-4.3-2.5 17-9.9"/>
  <path fill="#848484" d="M832.1 612.3v5.7l-17 9.9v-5.7"/>
  <path fill="#D3DDDB" d="M815.1 622.2v5.7l-4.3-2.5v-5.7"/>
  <path fill="#FFE0A4" d="M839 622l-16.9 9.9-4.3-2.5 16.9-9.9"/>
  <path fill="#848484" d="M839 622v5.7l-16.9 9.9v-5.7"/>
  <path fill="#CECECE" d="M822.1 631.9v5.7l-4.3-2.5v-5.7"/>
  <path fill="#F8B9AA" d="M839.1 616.5l-17 9.9-4.3-2.5 16.9-9.9"/>
  <path fill="#5B4343" d="M839.1 616.5v5.7l-17 9.9v-5.7"/>
  <path fill="#CEB2B2" d="M822.1 626.4v5.7l-4.3-2.5v-5.7"/>
  <path fill="#ADADAD" d="M839.1 610.8l-17 9.9-4.3-2.5 16.9-9.9"/>
  <path fill="#848484" d="M839.1 610.8v5.7l-17 9.9v-5.7"/>
  <path fill="#D3DDDB" d="M822.1 620.7v5.7l-4.3-2.5v-5.7"/>
  <path fill="#FFE0A4" d="M855.4 631.9l-16.9 9.9-4.4-2.5 17-9.9"/>
  <path fill="#848484" d="M855.4 631.9v5.7l-17 9.9.1-5.7"/>
  <path fill="#D3D1D1" d="M838.5 641.8l-.1 5.7-4.3-2.5v-5.7"/>
  <path fill="#A88" d="M855.4 626.7l-16.9 9.9-4.3-2.5 16.9-9.9"/>
  <path fill="#5B4343" d="M855.4 626.7v5.7l-16.9 9.9v-5.7"/>
  <path fill="#CEB2B2" d="M838.5 636.6v5.7l-4.4-2.5.1-5.7"/>
  <path fill="#C8E5EE" d="M864.2 637.2l-17 9.8-4.3-2.5 17-9.8"/>
  <path fill="#2A3838" d="M864.2 637.2v5.7l-17 9.8V647"/>
  <path fill="#A9C4C2" d="M847.2 647v5.7l-4.3-2.5v-5.7"/>
  <path fill="#ADADAD" d="M864.2 631.5l-16.9 9.8-4.3-2.5 16.9-9.8"/>
  <path fill="#848484" d="M864.2 631.5v5.7l-16.9 9.8v-5.7"/>
  <path fill="#D3DDDB" d="M847.3 641.3v5.7l-4.4-2.4.1-5.8"/>
  <defs>
    <path id="ab" d="M807.4 477.8l11.3-6.6c-.4.2-.7.8-.7 1.5 0 1.5 1 3.2 2.3 4l-11.3 6.6c-1.3-.7-2.3-2.5-2.3-4 0-.7.3-1.2.7-1.5z"/>
  </defs>
  <clipPath id="ac">
    <use xlink:href="#ab" overflow="visible"/>
  </clipPath>
  <path fill="#B4DCE8" d="M807.4 477.8l11.3-6.6c-.4.2-.7.8-.7 1.5 0 .9.4 1.9 1 2.8l-11.3 6.6c-.6-.8-1-1.9-1-2.8 0-.7.3-1.2.7-1.5" clip-path="url(#ac)"/>
  <path fill="#BDE0EA" d="M807.7 482.1l11.3-6.6c.3.4.7.8 1 1l-11.3 6.6c-.3-.3-.7-.6-1-1" clip-path="url(#ac)"/>
  <path fill="#C5E4ED" d="M808.7 483.1l11.3-6.6c.1.1.2.1.3.2l-11.3 6.6c-.1-.1-.2-.1-.3-.2" clip-path="url(#ac)"/>
  <defs>
    <path id="ad" d="M821.9 476.9l-11.3 6.6c-.4.2-1 .2-1.6-.2l11.3-6.6c.6.4 1.2.4 1.6.2z"/>
  </defs>
  <clipPath id="ae">
    <use xlink:href="#ad" overflow="visible"/>
  </clipPath>
  <path fill="#C5E4ED" d="M809 483.3l11.3-6.6c.5.3.9.4 1.3.3l-11.3 6.6c-.3.1-.8 0-1.3-.3" clip-path="url(#ae)"/>
  <path fill="#BDE0EA" d="M810.3 483.6l11.3-6.6c.1 0 .2-.1.3-.1l-11.3 6.6s-.1 0-.3.1" clip-path="url(#ae)"/>
  <defs>
    <path id="af" d="M807.1 477.4l11.3-6.6c.5-.3 1.2-.2 1.9.2l-11.3 6.6c-.7-.4-1.4-.5-1.9-.2z"/>
  </defs>
  <clipPath id="ag">
    <use xlink:href="#af" overflow="visible"/>
  </clipPath>
  <path fill="#BDE0EA" d="M807.1 477.4l11.3-6.6c.1-.1.2-.1.4-.1l-11.3 6.6c-.1 0-.2 0-.4.1" clip-path="url(#ag)"/>
  <path fill="#C5E4ED" d="M807.5 477.3l11.3-6.6c.4-.1 1 0 1.5.3l-11.3 6.6c-.5-.3-1.1-.4-1.5-.3" clip-path="url(#ag)"/>
  <defs>
    <path id="ah" d="M822.2 477.3l-11.3 6.6c.5-.3.8-.9.8-1.7 0-1.7-1.2-3.7-2.7-4.6l11.3-6.6c1.5.8 2.7 2.9 2.7 4.6 0 .9-.3 1.5-.8 1.7z"/>
  </defs>
  <clipPath id="ai">
    <use xlink:href="#ah" overflow="visible"/>
  </clipPath>
  <path fill="#C5E4ED" d="M809 477.6l11.3-6.6c.1.1.2.1.3.2l-11.3 6.6c-.1-.1-.2-.1-.3-.2" clip-path="url(#ai)"/>
  <path fill="#BDE0EA" d="M809.4 477.8l11.3-6.6c.4.3.8.7 1.2 1.2l-11.3 6.6c-.4-.5-.8-.9-1.2-1.2" clip-path="url(#ai)"/>
  <path fill="#B4DCE8" d="M810.5 479l11.3-6.6c.7 1 1.1 2.1 1.1 3.2 0 .8-.3 1.4-.8 1.7l-11.3 6.6c.5-.3.8-.9.8-1.7.1-1.1-.4-2.2-1.1-3.2" clip-path="url(#ai)"/>
  <path fill="#F1F8FA" d="M809 477.6c1.5.8 2.7 2.9 2.7 4.6 0 1.7-1.2 2.4-2.7 1.5-1.5-.8-2.7-2.9-2.6-4.6 0-1.7 1.2-2.4 2.6-1.5zm0 5.7c1.3.7 2.3.1 2.3-1.3 0-1.5-1-3.2-2.3-4-1.3-.7-2.3-.1-2.3 1.3 0 1.5 1 3.3 2.3 4"/>
  <defs>
    <path id="aj" d="M812.9 481.3l11.3-6.6c-.4.2-.7.8-.7 1.5 0 1.5 1 3.2 2.3 4l-11.3 6.6c-1.3-.7-2.3-2.5-2.3-4 0-.7.3-1.2.7-1.5z"/>
  </defs>
  <clipPath id="ak">
    <use xlink:href="#aj" overflow="visible"/>
  </clipPath>
  <path fill="#B4DCE8" d="M812.9 481.3l11.3-6.6c-.4.2-.7.8-.7 1.5 0 .9.4 1.9 1 2.8l-11.3 6.6c-.6-.8-1-1.9-1-2.8 0-.7.3-1.2.7-1.5" clip-path="url(#ak)"/>
  <path fill="#BDE0EA" d="M813.2 485.6l11.3-6.6c.3.4.7.8 1 1l-11.3 6.6c-.3-.3-.7-.6-1-1" clip-path="url(#ak)"/>
  <path fill="#C5E4ED" d="M814.2 486.6l11.3-6.6c.1.1.2.1.3.2l-11.3 6.6c-.1-.1-.2-.1-.3-.2" clip-path="url(#ak)"/>
  <defs>
    <path id="al" d="M827.4 480.4l-11.3 6.6c-.4.2-1 .2-1.6-.2l11.3-6.6c.6.4 1.2.4 1.6.2z"/>
  </defs>
  <clipPath id="am">
    <use xlink:href="#al" overflow="visible"/>
  </clipPath>
  <path fill="#C5E4ED" d="M814.5 486.8l11.3-6.6c.5.3.9.4 1.3.3l-11.3 6.6c-.4.1-.8 0-1.3-.3" clip-path="url(#am)"/>
  <path fill="#BDE0EA" d="M815.8 487.1l11.3-6.6c.1 0 .2-.1.3-.1l-11.3 6.6c-.1 0-.2.1-.3.1" clip-path="url(#am)"/>
  <defs>
    <path id="an" d="M812.6 480.9l11.3-6.6c.5-.3 1.2-.2 1.9.2l-11.3 6.6c-.7-.4-1.4-.5-1.9-.2z"/>
  </defs>
  <clipPath id="ao">
    <use xlink:href="#an" overflow="visible"/>
  </clipPath>
  <path fill="#BDE0EA" d="M812.6 480.9l11.3-6.6c.1-.1.2-.1.4-.1l-11.3 6.6c-.1 0-.3 0-.4.1" clip-path="url(#ao)"/>
  <path fill="#C5E4ED" d="M813 480.8l11.3-6.6c.4-.1 1 0 1.5.3l-11.3 6.6c-.5-.3-1.1-.4-1.5-.3" clip-path="url(#ao)"/>
  <defs>
    <path id="ap" d="M827.7 480.8l-11.3 6.6c.5-.3.8-.9.8-1.7 0-1.7-1.2-3.7-2.7-4.6l11.3-6.6c1.5.8 2.7 2.9 2.7 4.6 0 .9-.3 1.5-.8 1.7z"/>
  </defs>
  <clipPath id="aq">
    <use xlink:href="#ap" overflow="visible"/>
  </clipPath>
  <path fill="#C5E4ED" d="M814.5 481.1l11.3-6.6c.1.1.2.1.3.2l-11.3 6.6c-.1-.1-.2-.2-.3-.2" clip-path="url(#aq)"/>
  <path fill="#BDE0EA" d="M814.8 481.3l11.3-6.6c.4.3.8.7 1.2 1.2l-11.3 6.6c-.3-.5-.7-.9-1.2-1.2" clip-path="url(#aq)"/>
  <path fill="#B4DCE8" d="M816 482.5l11.3-6.6c.7 1 1.1 2.1 1.1 3.2 0 .8-.3 1.4-.8 1.7l-11.3 6.6c.5-.3.8-.9.8-1.7.1-1.1-.4-2.2-1.1-3.2" clip-path="url(#aq)"/>
  <path fill="#F1F8FA" d="M814.5 481.1c1.5.8 2.7 2.9 2.7 4.6 0 1.7-1.2 2.4-2.7 1.5-1.5-.8-2.7-2.9-2.7-4.6.1-1.7 1.3-2.4 2.7-1.5zm0 5.7c1.3.7 2.3.1 2.3-1.3 0-1.5-1-3.2-2.3-4s-2.3-.1-2.3 1.3c0 1.5 1 3.3 2.3 4"/>
  <defs>
    <path id="ar" d="M818.5 485.2l11.3-6.6c-.4.2-.7.8-.7 1.5 0 1.5 1 3.2 2.3 4l-11.3 6.6c-1.3-.7-2.3-2.5-2.3-4 0-.7.3-1.2.7-1.5z"/>
  </defs>
  <clipPath id="as">
    <use xlink:href="#ar" overflow="visible"/>
  </clipPath>
  <path fill="#B4DCE8" d="M818.5 485.2l11.3-6.6c-.4.2-.7.8-.7 1.5 0 .9.4 1.9 1 2.8l-11.3 6.6c-.6-.8-1-1.9-1-2.8 0-.7.3-1.2.7-1.5" clip-path="url(#as)"/>
  <path fill="#BDE0EA" d="M818.8 489.5l11.3-6.6c.3.4.7.8 1 1l-11.3 6.6c-.3-.3-.7-.6-1-1" clip-path="url(#as)"/>
  <path fill="#C5E4ED" d="M819.8 490.5l11.3-6.6c.1.1.2.1.3.2l-11.3 6.6c-.1-.1-.2-.1-.3-.2" clip-path="url(#as)"/>
  <defs>
    <path id="at" d="M833 484.3l-11.3 6.6c-.4.2-1 .2-1.6-.2l11.3-6.6c.6.4 1.2.4 1.6.2z"/>
  </defs>
  <clipPath id="au">
    <use xlink:href="#at" overflow="visible"/>
  </clipPath>
  <path fill="#C5E4ED" d="M820.1 490.7l11.3-6.6c.5.3.9.4 1.3.3l-11.3 6.6c-.3.1-.8 0-1.3-.3" clip-path="url(#au)"/>
  <path fill="#BDE0EA" d="M821.4 491l11.3-6.6c.1 0 .2-.1.3-.1l-11.3 6.6s-.2 0-.3.1" clip-path="url(#au)"/>
  <defs>
    <path id="av" d="M818.2 484.8l11.3-6.6c.5-.3 1.2-.2 1.9.2l-11.3 6.6c-.7-.4-1.4-.5-1.9-.2z"/>
  </defs>
  <clipPath id="aw">
    <use xlink:href="#av" overflow="visible"/>
  </clipPath>
  <path fill="#BDE0EA" d="M818.2 484.8l11.3-6.6c.1-.1.2-.1.4-.1l-11.3 6.6c-.1 0-.3 0-.4.1" clip-path="url(#aw)"/>
  <path fill="#C5E4ED" d="M818.6 484.7l11.3-6.6c.4-.1 1 0 1.5.3l-11.3 6.6c-.5-.3-1.1-.4-1.5-.3" clip-path="url(#aw)"/>
  <defs>
    <path id="ax" d="M833.3 484.7l-11.3 6.6c.5-.3.8-.9.8-1.7 0-1.7-1.2-3.7-2.7-4.6l11.3-6.6c1.5.8 2.7 2.9 2.7 4.6 0 .9-.3 1.5-.8 1.7z"/>
  </defs>
  <clipPath id="ay">
    <use xlink:href="#ax" overflow="visible"/>
  </clipPath>
  <path fill="#C5E4ED" d="M820.1 485l11.3-6.6c.1.1.2.1.3.2l-11.3 6.6c-.1-.1-.2-.1-.3-.2" clip-path="url(#ay)"/>
  <path fill="#BDE0EA" d="M820.4 485.2l11.3-6.6c.4.3.8.7 1.2 1.2l-11.3 6.6c-.3-.5-.7-.9-1.2-1.2" clip-path="url(#ay)"/>
  <path fill="#B4DCE8" d="M821.6 486.4l11.3-6.6c.7 1 1.1 2.1 1.1 3.2 0 .8-.3 1.4-.8 1.7l-11.3 6.6c.5-.3.8-.9.8-1.7.1-1.1-.4-2.2-1.1-3.2" clip-path="url(#ay)"/>
  <path fill="#F1F8FA" d="M820.1 485c1.5.8 2.7 2.9 2.7 4.6 0 1.7-1.2 2.4-2.7 1.5-1.5-.8-2.7-2.9-2.7-4.6.1-1.7 1.3-2.4 2.7-1.5zm0 5.7c1.3.7 2.3.1 2.3-1.3 0-1.5-1-3.2-2.3-4s-2.3-.1-2.3 1.3c0 1.5 1 3.3 2.3 4"/>
  <defs>
    <path id="az" d="M830.7 477.2l-11.1 6.9c-.4.3-1 .2-1.6-.1l11.1-6.9c.6.3 1.2.4 1.6.1z"/>
  </defs>
  <clipPath id="aA">
    <use xlink:href="#az" overflow="visible"/>
  </clipPath>
  <path fill="#C5E4ED" d="M818 484l11.1-6.9c.5.3 1 .3 1.3.2l-11.1 6.9c-.3.1-.8.1-1.3-.2" clip-path="url(#aA)"/>
  <path fill="#BDE0EA" d="M819.4 484.2l11.1-6.9c.1 0 .2-.1.3-.1l-11.1 6.9c-.1.1-.2.1-.3.1" clip-path="url(#aA)"/>
  <defs>
    <path id="aB" d="M816.2 478.6l11.1-6.9c-.4.3-.6.8-.6 1.5 0 1.5 1.1 3.2 2.4 3.9L818 484c-1.3-.7-2.4-2.4-2.4-3.9 0-.7.2-1.2.6-1.5z"/>
  </defs>
  <clipPath id="aC">
    <use xlink:href="#aB" overflow="visible"/>
  </clipPath>
  <path fill="#B4DCE8" d="M816.2 478.6l11.1-6.9c-.4.3-.6.8-.6 1.5 0 .9.5 1.9 1.1 2.7l-11.1 6.9c-.6-.8-1.1-1.8-1.1-2.7 0-.7.2-1.2.6-1.5" clip-path="url(#aC)"/>
  <path fill="#BDE0EA" d="M816.7 482.8l11.1-6.9c.3.4.7.8 1.1 1l-11.1 6.9c-.4-.2-.8-.6-1.1-1" clip-path="url(#aC)"/>
  <path fill="#C5E4ED" d="M817.7 483.8l11.1-6.9c.1.1.2.1.3.2L818 484c-.1-.1-.2-.1-.3-.2" clip-path="url(#aC)"/>
  <defs>
    <path id="aD" d="M816 478.2l11.1-6.9c.5-.3 1.1-.3 1.9.1l-11.1 6.9c-.8-.4-1.5-.4-1.9-.1z"/>
  </defs>
  <clipPath id="aE">
    <use xlink:href="#aD" overflow="visible"/>
  </clipPath>
  <path fill="#BDE0EA" d="M816 478.2l11.1-6.9c.1-.1.2-.1.4-.2l-11.1 6.9c-.2 0-.3.1-.4.2" clip-path="url(#aE)"/>
  <path fill="#C5E4ED" d="M816.3 478l11.1-6.9c.4-.1 1 0 1.5.3l-11.1 6.9c-.5-.3-1-.4-1.5-.3" clip-path="url(#aE)"/>
  <defs>
    <path id="aF" d="M831 477.6l-11.1 6.9c.5-.3.7-.9.7-1.7 0-1.7-1.3-3.7-2.8-4.5l11.1-6.9c1.5.8 2.7 2.8 2.8 4.5 0 .8-.2 1.4-.7 1.7z"/>
  </defs>
  <clipPath id="aG">
    <use xlink:href="#aF" overflow="visible"/>
  </clipPath>
  <path fill="#C5E4ED" d="M817.9 478.3l11.1-6.9c.1.1.2.1.3.2l-11.1 6.9c-.1-.1-.2-.1-.3-.2" clip-path="url(#aG)"/>
  <path fill="#BDE0EA" d="M818.2 478.5l11.1-6.9c.4.3.9.7 1.2 1.2l-11.1 6.9c-.4-.5-.8-.9-1.2-1.2" clip-path="url(#aG)"/>
  <path fill="#B4DCE8" d="M819.4 479.7l11.1-6.9c.7.9 1.2 2.1 1.2 3.1 0 .8-.3 1.4-.7 1.7l-11.1 6.9c.5-.3.7-.9.7-1.7 0-1-.5-2.2-1.2-3.1" clip-path="url(#aG)"/>
  <path fill="#F1F8FA" d="M817.9 478.3c1.5.8 2.7 2.8 2.8 4.5 0 1.7-1.1 2.4-2.6 1.6-1.5-.8-2.8-2.8-2.8-4.5-.1-1.7 1.1-2.4 2.6-1.6zm.1 5.7c1.3.7 2.3.1 2.3-1.4s-1.1-3.2-2.4-3.9c-1.3-.7-2.3-.1-2.3 1.4s1.1 3.2 2.4 3.9"/>
  <path fill="#F6A28F" d="M887.6 538.4l-.1 32.6-23.1 13.4.1-32.6"/>
  <path fill="#E5E5E5" d="M864.5 551.8l-.1 32.6-22.1-12.8V539"/>
  <path fill="#A88" d="M976.9 558.8L950 574.4l-62.4-36-23.1 13.4-22.2-12.8 50-29 22.1 12.8"/>
  <path fill="#5B4343" d="M976.9 558.8l-.1 32.6-26.9 15.6.1-32.6"/>
  <path fill="#E5E5E5" d="M950 574.4l-.1 32.6-62.4-36 .1-32.6"/>
  <defs>
    <path id="aH" d="M845.8 553.4v-5.8l2.9 1.6-.1 5.9z"/>
  </defs>
  <use fill="#848484" xlink:href="#aH" overflow="visible"/>
  <clipPath id="aI">
    <use xlink:href="#aH" overflow="visible"/>
  </clipPath>
  <path fill="#848484" d="M848.7 549.2l-2.9-1.6v5.8l2.8 1.7.1-5.9" clip-path="url(#aI)"/>
  <defs>
    <path id="aJ" d="M849.2 555.4v-5.9l2.8 1.7v5.8z"/>
  </defs>
  <use fill="#848484" xlink:href="#aJ" overflow="visible"/>
  <clipPath id="aK">
    <use xlink:href="#aJ" overflow="visible"/>
  </clipPath>
  <path fill="#848484" d="M852 551.2l-2.8-1.7v5.9l2.8 1.6v-5.8" clip-path="url(#aK)"/>
  <defs>
    <path id="aL" d="M852.6 557.3v-5.8l2.8 1.6v5.9z"/>
  </defs>
  <use fill="#848484" xlink:href="#aL" overflow="visible"/>
  <clipPath id="aM">
    <use xlink:href="#aL" overflow="visible"/>
  </clipPath>
  <path fill="#848484" d="M855.4 553.1l-2.8-1.6v5.8l2.8 1.7v-5.9" clip-path="url(#aM)"/>
  <defs>
    <path id="aN" d="M855.9 559.3v-5.9l2.8 1.7v5.8z"/>
  </defs>
  <use fill="#848484" xlink:href="#aN" overflow="visible"/>
  <clipPath id="aO">
    <use xlink:href="#aN" overflow="visible"/>
  </clipPath>
  <path fill="#848484" d="M858.7 555.1l-2.8-1.7v5.9l2.8 1.6v-5.8" clip-path="url(#aO)"/>
  <defs>
    <path id="aP" d="M845.8 561v-5.8l2.9 1.6-.1 5.9z"/>
  </defs>
  <use fill="#848484" xlink:href="#aP" overflow="visible"/>
  <clipPath id="aQ">
    <use xlink:href="#aP" overflow="visible"/>
  </clipPath>
  <path fill="#848484" d="M848.7 556.8l-2.9-1.6v5.8l2.8 1.7.1-5.9" clip-path="url(#aQ)"/>
  <defs>
    <path id="aR" d="M849.2 563v-5.9l2.8 1.6v5.9z"/>
  </defs>
  <use fill="#848484" xlink:href="#aR" overflow="visible"/>
  <clipPath id="aS">
    <use xlink:href="#aR" overflow="visible"/>
  </clipPath>
  <path fill="#848484" d="M852 558.7l-2.8-1.6v5.9l2.8 1.6v-5.9" clip-path="url(#aS)"/>
  <defs>
    <path id="aT" d="M852.6 564.9v-5.8l2.8 1.6v5.9z"/>
  </defs>
  <use fill="#848484" xlink:href="#aT" overflow="visible"/>
  <clipPath id="aU">
    <use xlink:href="#aT" overflow="visible"/>
  </clipPath>
  <path fill="#848484" d="M855.4 560.7l-2.8-1.6v5.8l2.8 1.7v-5.9" clip-path="url(#aU)"/>
  <defs>
    <path id="aV" d="M855.9 566.9V561l2.8 1.6v5.9z"/>
  </defs>
  <use fill="#848484" xlink:href="#aV" overflow="visible"/>
  <clipPath id="aW">
    <use xlink:href="#aV" overflow="visible"/>
  </clipPath>
  <path fill="#848484" d="M858.7 562.6l-2.8-1.6v5.9l2.8 1.6v-5.9" clip-path="url(#aW)"/>
  <defs>
    <path id="aX" d="M930.3 576.8V571l2.8 1.6v5.8z"/>
  </defs>
  <use fill="#848484" xlink:href="#aX" overflow="visible"/>
  <clipPath id="aY">
    <use xlink:href="#aX" overflow="visible"/>
  </clipPath>
  <path fill="#848484" d="M933.1 572.6l-2.8-1.6v5.8l2.8 1.6v-5.8" clip-path="url(#aY)"/>
  <defs>
    <path id="aZ" d="M933.7 578.7v-5.8l2.8 1.6v5.9z"/>
  </defs>
  <use fill="#848484" xlink:href="#aZ" overflow="visible"/>
  <clipPath id="ba">
    <use xlink:href="#aZ" overflow="visible"/>
  </clipPath>
  <path fill="#848484" d="M936.5 574.5l-2.8-1.6v5.8l2.8 1.7v-5.9" clip-path="url(#ba)"/>
  <defs>
    <path id="bb" d="M937.1 580.7v-5.8l2.8 1.6v5.8z"/>
  </defs>
  <use fill="#848484" xlink:href="#bb" overflow="visible"/>
  <clipPath id="bc">
    <use xlink:href="#bb" overflow="visible"/>
  </clipPath>
  <path fill="#848484" d="M939.9 576.5l-2.8-1.6v5.8l2.8 1.6v-5.8" clip-path="url(#bc)"/>
  <defs>
    <path id="bd" d="M940.4 582.6v-5.8l2.8 1.6v5.9z"/>
  </defs>
  <use fill="#848484" xlink:href="#bd" overflow="visible"/>
  <clipPath id="be">
    <use xlink:href="#bd" overflow="visible"/>
  </clipPath>
  <path fill="#848484" d="M943.2 578.4l-2.8-1.6v5.8l2.8 1.7v-5.9" clip-path="url(#be)"/>
  <defs>
    <path id="bf" d="M943.7 584.6v-5.9l2.8 1.7v5.8z"/>
  </defs>
  <use fill="#848484" xlink:href="#bf" overflow="visible"/>
  <clipPath id="bg">
    <use xlink:href="#bf" overflow="visible"/>
  </clipPath>
  <path fill="#848484" d="M946.5 580.4l-2.8-1.7v5.9l2.8 1.6v-5.8" clip-path="url(#bg)"/>
  <defs>
    <path id="bh" d="M930.3 584.4v-5.8l2.8 1.6v5.8z"/>
  </defs>
  <use fill="#848484" xlink:href="#bh" overflow="visible"/>
  <clipPath id="bi">
    <use xlink:href="#bh" overflow="visible"/>
  </clipPath>
  <path fill="#848484" d="M933.1 580.2l-2.8-1.6v5.8l2.8 1.6v-5.8" clip-path="url(#bi)"/>
  <defs>
    <path id="bj" d="M933.7 586.3v-5.8l2.8 1.6v5.8z"/>
  </defs>
  <use fill="#848484" xlink:href="#bj" overflow="visible"/>
  <clipPath id="bk">
    <use xlink:href="#bj" overflow="visible"/>
  </clipPath>
  <path fill="#848484" d="M936.5 582.1l-2.8-1.6v5.8l2.8 1.6v-5.8" clip-path="url(#bk)"/>
  <defs>
    <path id="bl" d="M937.1 588.3v-5.8l2.8 1.6v5.8z"/>
  </defs>
  <use fill="#848484" xlink:href="#bl" overflow="visible"/>
  <clipPath id="bm">
    <use xlink:href="#bl" overflow="visible"/>
  </clipPath>
  <path fill="#848484" d="M939.9 584.1l-2.8-1.6v5.8l2.8 1.6v-5.8" clip-path="url(#bm)"/>
  <defs>
    <path id="bn" d="M940.4 590.2v-5.8l2.8 1.6v5.8z"/>
  </defs>
  <use fill="#848484" xlink:href="#bn" overflow="visible"/>
  <clipPath id="bo">
    <use xlink:href="#bn" overflow="visible"/>
  </clipPath>
  <path fill="#848484" d="M943.2 586l-2.8-1.6v5.8l2.8 1.6V586" clip-path="url(#bo)"/>
  <defs>
    <path id="bp" d="M943.7 592.2v-5.9l2.8 1.6v5.9z"/>
  </defs>
  <use fill="#848484" xlink:href="#bp" overflow="visible"/>
  <clipPath id="bq">
    <use xlink:href="#bp" overflow="visible"/>
  </clipPath>
  <path fill="#848484" d="M946.5 587.9l-2.8-1.6v5.9l2.8 1.6v-5.9" clip-path="url(#bq)"/>
  <defs>
    <path id="br" d="M968.6 577.1v-5.8l-2.8 1.6v5.8z"/>
  </defs>
  <use fill="#EAEAEA" xlink:href="#br" overflow="visible"/>
  <clipPath id="bs">
    <use xlink:href="#br" overflow="visible"/>
  </clipPath>
  <path fill="#EAEAEA" d="M965.8 572.9l2.8-1.6v5.8l-2.8 1.6v-5.8" clip-path="url(#bs)"/>
  <defs>
    <path id="bt" d="M965.3 579v-5.8l-2.8 1.6v5.9z"/>
  </defs>
  <use fill="#EAEAEA" xlink:href="#bt" overflow="visible"/>
  <clipPath id="bu">
    <use xlink:href="#bt" overflow="visible"/>
  </clipPath>
  <path fill="#EAEAEA" d="M962.5 574.8l2.8-1.6v5.8l-2.8 1.7v-5.9" clip-path="url(#bu)"/>
  <defs>
    <path id="bv" d="M961.9 581v-5.8l-2.8 1.6v5.8z"/>
  </defs>
  <use fill="#EAEAEA" xlink:href="#bv" overflow="visible"/>
  <clipPath id="bw">
    <use xlink:href="#bv" overflow="visible"/>
  </clipPath>
  <path fill="#EAEAEA" d="M959.1 576.8l2.8-1.6v5.8l-2.8 1.6v-5.8" clip-path="url(#bw)"/>
  <defs>
    <path id="bx" d="M968.6 584.7v-5.9l-2.8 1.7v5.8z"/>
  </defs>
  <use fill="#EAEAEA" xlink:href="#bx" overflow="visible"/>
  <clipPath id="by">
    <use xlink:href="#bx" overflow="visible"/>
  </clipPath>
  <path fill="#EAEAEA" d="M965.8 580.5l2.8-1.7v5.9l-2.8 1.6v-5.8" clip-path="url(#by)"/>
  <defs>
    <path id="bz" d="M965.3 586.6v-5.8l-2.8 1.6v5.8z"/>
  </defs>
  <use fill="#EAEAEA" xlink:href="#bz" overflow="visible"/>
  <clipPath id="bA">
    <use xlink:href="#bz" overflow="visible"/>
  </clipPath>
  <path fill="#EAEAEA" d="M962.5 582.4l2.8-1.6v5.8l-2.8 1.6v-5.8" clip-path="url(#bA)"/>
  <defs>
    <path id="bB" d="M961.9 588.6v-5.8l-2.8 1.6v5.8z"/>
  </defs>
  <use fill="#EAEAEA" xlink:href="#bB" overflow="visible"/>
  <clipPath id="bC">
    <use xlink:href="#bB" overflow="visible"/>
  </clipPath>
  <path fill="#EAEAEA" d="M959.1 584.4l2.8-1.6v5.8l-2.8 1.6v-5.8" clip-path="url(#bC)"/>
  <path fill="#9B9B9B" d="M952.9 557.5l-5 2.9-8.8-5.1 5-2.9"/>
  <path fill="#393A3A" d="M952.9 557.5v8.1l-5 2.9v-8.1"/>
  <path fill="#CECECE" d="M947.9 560.4v8.1l-8.8-5v-8.2"/>
  <defs>
    <path id="bD" d="M941.6 562.2V560l3.1 1.8v2.2z"/>
  </defs>
  <use fill="#EAEAEA" xlink:href="#bD" overflow="visible"/>
  <clipPath id="bE">
    <use xlink:href="#bD" overflow="visible"/>
  </clipPath>
  <path fill="#EAEAEA" d="M944.7 561.8l-3.1-1.8v2.2l3.1 1.8v-2.2" clip-path="url(#bE)"/>
  <path fill="#A88" d="M925.5 503.2L894 521.5l-31-17.9 31.6-18.3"/>
  <path fill="#5B4343" d="M925.5 503.2l-.2 96.9-31.6 18.3.3-96.9"/>
  <path fill="#CEB2B2" d="M894 521.5l-.3 96.9-30.9-17.9.2-96.9"/>
  <path fill="#9B9B9B" d="M902.5 500.1l-8.4 4.8-13.3-7.7 8.3-4.8"/>
  <path fill="#393A3A" d="M902.5 500.1l-.1 12.2-8.3 4.9v-12.3"/>
  <path fill="#CECECE" d="M894.1 504.9v12.3l-13.3-7.7v-12.3"/>
  <defs>
    <path id="bF" d="M873.7 606.7l.1-11.1 4.4 2.6v11z"/>
  </defs>
  <use fill="#393A3A" xlink:href="#bF" overflow="visible"/>
  <clipPath id="bG">
    <use xlink:href="#bF" overflow="visible"/>
  </clipPath>
  <path fill="#393A3A" d="M878.2 598.2l-4.4-2.6-.1 11.1 4.5 2.5v-11" clip-path="url(#bG)"/>
  <defs>
    <path id="bH" d="M873.1 534.1v-5.3l2.6 1.4v5.4z"/>
  </defs>
  <use fill="#EAEAEA" xlink:href="#bH" overflow="visible"/>
  <clipPath id="bI">
    <use xlink:href="#bH" overflow="visible"/>
  </clipPath>
  <path fill="#EAEAEA" d="M875.7 530.2l-2.6-1.4v5.3l2.6 1.5v-5.4" clip-path="url(#bI)"/>
  <defs>
    <path id="bJ" d="M876.2 535.9v-5.3l2.6 1.4v5.3z"/>
  </defs>
  <use fill="#EAEAEA" xlink:href="#bJ" overflow="visible"/>
  <clipPath id="bK">
    <use xlink:href="#bJ" overflow="visible"/>
  </clipPath>
  <path fill="#EAEAEA" d="M878.8 532l-2.6-1.4v5.3l2.6 1.4V532" clip-path="url(#bK)"/>
  <defs>
    <path id="bL" d="M873.1 540.4v-5.3l2.6 1.5v5.3z"/>
  </defs>
  <use fill="#EAEAEA" xlink:href="#bL" overflow="visible"/>
  <clipPath id="bM">
    <use xlink:href="#bL" overflow="visible"/>
  </clipPath>
  <path fill="#EAEAEA" d="M875.7 536.6l-2.6-1.5v5.3l2.6 1.5v-5.3" clip-path="url(#bM)"/>
  <defs>
    <path id="bN" d="M876.2 542.2v-5.3l2.6 1.5v5.3z"/>
  </defs>
  <use fill="#EAEAEA" xlink:href="#bN" overflow="visible"/>
  <clipPath id="bO">
    <use xlink:href="#bN" overflow="visible"/>
  </clipPath>
  <path fill="#EAEAEA" d="M878.8 538.4l-2.6-1.5v5.3l2.6 1.5v-5.3" clip-path="url(#bO)"/>
  <defs>
    <path id="bP" d="M873.1 546.6v-5.3l2.6 1.5v5.3z"/>
  </defs>
  <use fill="#EAEAEA" xlink:href="#bP" overflow="visible"/>
  <clipPath id="bQ">
    <use xlink:href="#bP" overflow="visible"/>
  </clipPath>
  <path fill="#EAEAEA" d="M875.7 542.8l-2.6-1.5v5.3l2.6 1.5v-5.3" clip-path="url(#bQ)"/>
  <defs>
    <path id="bR" d="M876.2 548.4v-5.3l2.6 1.5v5.3z"/>
  </defs>
  <use fill="#EAEAEA" xlink:href="#bR" overflow="visible"/>
  <clipPath id="bS">
    <use xlink:href="#bR" overflow="visible"/>
  </clipPath>
  <path fill="#EAEAEA" d="M878.8 544.6l-2.6-1.5v5.3l2.6 1.5v-5.3" clip-path="url(#bS)"/>
  <defs>
    <path id="bT" d="M873.1 552.8v-5.3l2.6 1.5v5.3z"/>
  </defs>
  <use fill="#EAEAEA" xlink:href="#bT" overflow="visible"/>
  <clipPath id="bU">
    <use xlink:href="#bT" overflow="visible"/>
  </clipPath>
  <path fill="#EAEAEA" d="M875.7 549l-2.6-1.5v5.3l2.6 1.5V549" clip-path="url(#bU)"/>
  <defs>
    <path id="bV" d="M876.2 554.6v-5.3l2.6 1.5v5.3z"/>
  </defs>
  <use fill="#EAEAEA" xlink:href="#bV" overflow="visible"/>
  <clipPath id="bW">
    <use xlink:href="#bV" overflow="visible"/>
  </clipPath>
  <path fill="#EAEAEA" d="M878.8 550.8l-2.6-1.5v5.3l2.6 1.5v-5.3" clip-path="url(#bW)"/>
  <defs>
    <path id="bX" d="M873.1 559.1v-5.3l2.6 1.5v5.3z"/>
  </defs>
  <use fill="#EAEAEA" xlink:href="#bX" overflow="visible"/>
  <clipPath id="bY">
    <use xlink:href="#bX" overflow="visible"/>
  </clipPath>
  <path fill="#EAEAEA" d="M875.7 555.3l-2.6-1.5v5.3l2.6 1.5v-5.3" clip-path="url(#bY)"/>
  <defs>
    <path id="bZ" d="M876.2 560.9v-5.3l2.6 1.5v5.3z"/>
  </defs>
  <use fill="#EAEAEA" xlink:href="#bZ" overflow="visible"/>
  <clipPath id="ca">
    <use xlink:href="#bZ" overflow="visible"/>
  </clipPath>
  <path fill="#EAEAEA" d="M878.8 557.1l-2.6-1.5v5.3l2.6 1.5v-5.3" clip-path="url(#ca)"/>
  <defs>
    <path id="cb" d="M873.1 576.3V571l2.6 1.5v5.3z"/>
  </defs>
  <use fill="#EAEAEA" xlink:href="#cb" overflow="visible"/>
  <clipPath id="cc">
    <use xlink:href="#cb" overflow="visible"/>
  </clipPath>
  <path fill="#EAEAEA" d="M875.7 572.5l-2.6-1.5v5.3l2.6 1.5v-5.3" clip-path="url(#cc)"/>
  <defs>
    <path id="cd" d="M876.2 578.1v-5.3l2.6 1.5v5.3z"/>
  </defs>
  <use fill="#EAEAEA" xlink:href="#cd" overflow="visible"/>
  <clipPath id="ce">
    <use xlink:href="#cd" overflow="visible"/>
  </clipPath>
  <path fill="#EAEAEA" d="M878.8 574.3l-2.6-1.5v5.3l2.6 1.5v-5.3" clip-path="url(#ce)"/>
  <defs>
    <path id="cf" d="M873.1 582.5v-5.3l2.6 1.5v5.3z"/>
  </defs>
  <use fill="#EAEAEA" xlink:href="#cf" overflow="visible"/>
  <clipPath id="cg">
    <use xlink:href="#cf" overflow="visible"/>
  </clipPath>
  <path fill="#EAEAEA" d="M875.7 578.7l-2.6-1.5v5.3l2.6 1.5v-5.3" clip-path="url(#cg)"/>
  <defs>
    <path id="ch" d="M876.2 584.3V579l2.6 1.5v5.3z"/>
  </defs>
  <use fill="#EAEAEA" xlink:href="#ch" overflow="visible"/>
  <clipPath id="ci">
    <use xlink:href="#ch" overflow="visible"/>
  </clipPath>
  <path fill="#EAEAEA" d="M878.8 580.5l-2.6-1.5v5.3l2.6 1.5v-5.3" clip-path="url(#ci)"/>
  <defs>
    <path id="cj" d="M873.1 527.9v-5.3l2.6 1.5v5.3z"/>
  </defs>
  <use fill="#EAEAEA" xlink:href="#cj" overflow="visible"/>
  <clipPath id="ck">
    <use xlink:href="#cj" overflow="visible"/>
  </clipPath>
  <path fill="#EAEAEA" d="M875.7 524.1l-2.6-1.5v5.3l2.6 1.5v-5.3" clip-path="url(#ck)"/>
  <defs>
    <path id="cl" d="M876.2 529.7v-5.3l2.6 1.5v5.3z"/>
  </defs>
  <use fill="#EAEAEA" xlink:href="#cl" overflow="visible"/>
  <clipPath id="cm">
    <use xlink:href="#cl" overflow="visible"/>
  </clipPath>
  <path fill="#EAEAEA" d="M878.8 525.9l-2.6-1.5v5.3l2.6 1.5v-5.3" clip-path="url(#cm)"/>
  <defs>
    <path id="cn" d="M915.7 521.9l-.1-5.3-2.5 1.4v5.3z"/>
  </defs>
  <use fill="#EAEAEA" xlink:href="#cn" overflow="visible"/>
  <clipPath id="co">
    <use xlink:href="#cn" overflow="visible"/>
  </clipPath>
  <path fill="#EAEAEA" d="M913.1 518l2.5-1.4.1 5.3-2.6 1.4V518" clip-path="url(#co)"/>
  <defs>
    <path id="cp" d="M911.7 524.1v-5.3l-2.6 1.5v5.3z"/>
  </defs>
  <use fill="#EAEAEA" xlink:href="#cp" overflow="visible"/>
  <clipPath id="cq">
    <use xlink:href="#cp" overflow="visible"/>
  </clipPath>
  <path fill="#EAEAEA" d="M909.1 520.3l2.6-1.5v5.3l-2.6 1.5v-5.3" clip-path="url(#cq)"/>
  <defs>
    <path id="cr" d="M891 510.9v-2.7l1.3.8v2.6z"/>
  </defs>
  <use fill="#EAEAEA" xlink:href="#cr" overflow="visible"/>
  <clipPath id="cs">
    <use xlink:href="#cr" overflow="visible"/>
  </clipPath>
  <g clip-path="url(#cs)">
    <path fill="#EAEAEA" d="M892.3 509l-1.3-.8v2.7l1.3.7V509"/>
  </g>
  <defs>
    <path id="ct" d="M889.1 509.9v-2.6l1.3.7v2.7z"/>
  </defs>
  <use fill="#EAEAEA" xlink:href="#ct" overflow="visible"/>
  <clipPath id="cu">
    <use xlink:href="#ct" overflow="visible"/>
  </clipPath>
  <g clip-path="url(#cu)">
    <path fill="#EAEAEA" d="M890.4 508l-1.3-.7v2.6l1.3.8V508"/>
  </g>
  <path fill="#848484" d="M915.9 598.7l14.1-8.2-.1 21.4-14.1 8.2"/>
  <path fill="#F8B9AA" d="M904.1 591.9l14.1-8.2 11.8 6.8-14.1 8.2"/>
  <path fill="#CECECE" d="M915.8 598.6l-11.7-20.1-.1 13.4h.1l-.1 21.2 11.8 7 .1-21.4"/>
  <path fill="#ADADAD" d="M929.98394 590.63458l-14.09298 8.18912-11.75616-20.23164 14.09298-8.18912z"/>
  <defs>
    <path id="cv" d="M908.4 589.4v-13.8l12.2 7v13.9z"/>
  </defs>
  <clipPath id="cw">
    <use xlink:href="#cv" overflow="visible"/>
  </clipPath>
  <path fill="#393A3A" d="M908.8 575.8l-.4.2 11.8 20.3.4-.3-11.8-20.2" clip-path="url(#cw)"/>
  <defs>
    <path id="cx" d="M913.4 586.5l.1-13.8 12.1 7v13.9z"/>
  </defs>
  <clipPath id="cy">
    <use xlink:href="#cx" overflow="visible"/>
  </clipPath>
  <path fill="#393A3A" d="M913.8 572.9l-.3.2 11.7 20.3.4-.3-11.8-20.2" clip-path="url(#cy)"/>
  <defs>
    <path id="cz" d="M907.7 615.3v-11.1l4.5 2.6v11z"/>
  </defs>
  <use fill="#393A3A" xlink:href="#cz" overflow="visible"/>
  <clipPath id="cA">
    <use xlink:href="#cz" overflow="visible"/>
  </clipPath>
  <path fill="#393A3A" d="M912.2 606.8l-4.5-2.6v11.1l4.5 2.5v-11" clip-path="url(#cA)"/>
  <defs>
    <path id="cB" d="M923 606.2v-5.8l-2.8 1.6v5.8z"/>
  </defs>
  <use fill="#EAEAEA" xlink:href="#cB" overflow="visible"/>
  <clipPath id="cC">
    <use xlink:href="#cB" overflow="visible"/>
  </clipPath>
  <path fill="#EAEAEA" d="M920.2 602l2.8-1.6v5.8l-2.8 1.6V602" clip-path="url(#cC)"/>
  <defs>
    <path id="cD" d="M927.1 603.7l-.1-5.9-2.8 1.6v5.9z"/>
  </defs>
  <use fill="#EAEAEA" xlink:href="#cD" overflow="visible"/>
  <clipPath id="cE">
    <use xlink:href="#cD" overflow="visible"/>
  </clipPath>
  <path fill="#EAEAEA" d="M924.2 599.4l2.8-1.6.1 5.9-2.9 1.6v-5.9" clip-path="url(#cE)"/>
  <path fill="#D8CFBF" d="M1033.8 576.9l-.1 16.3-94.4 55.2v-16.3m-17 9.6V658l-53.2 30.9v-16.3"/>
  <path fill="#F8F6F3" d="M869.1 672.6v16.3L651.8 563.4v-16.3"/>
  <path fill="#D8CFBF" d="M900.3 628.1l-.1 32.6c0 .2-.1.3-.3.4-.4.2-1.1.2-1.5 0-.2-.1-.3-.3-.3-.4l.1-32.6c0 .2.1.3.3.4.4.2 1.1.2 1.5 0 .2-.1.3-.3.3-.4z"/>
  <path fill="#D8CFBF" d="M900 627.6c.4.2.4.6 0 .9-.4.2-1.1.2-1.5 0-.4-.2-.4-.6 0-.9.4-.2 1.1-.2 1.5 0zm-8.4 5.2c.4.2.4.6 0 .9-.4.2-1.1.2-1.6 0-.4-.2-.4-.6 0-.9.5-.3 1.2-.3 1.6 0z"/>
  <path fill="#D8CFBF" d="M891.9 633.2l-.1 32.6c0 .2-.1.3-.3.4-.4.2-1.1.2-1.6 0-.2-.1-.3-.3-.3-.4l.1-32.6c0 .2.1.3.3.4.4.2 1.1.2 1.6 0 .2-.1.3-.2.3-.4z"/>
  <defs>
    <path id="cF" d="M882.4 646.9l-.1-26.5 25.9-14.9.1 26.5z"/>
  </defs>
  <clipPath id="cG">
    <use xlink:href="#cF" overflow="visible"/>
  </clipPath>
  <path fill="#FFF" d="M908.2 605.5l-25.9 14.9.1 26.5 25.9-14.9-.1-26.5" clip-path="url(#cG)"/>
  <defs>
    <path id="cH" d="M888.7 638.7l-.1-16.7 15.1-8.7V630z"/>
  </defs>
  <clipPath id="cI">
    <use xlink:href="#cH" overflow="visible"/>
  </clipPath>
  <path fill="#393A3A" d="M903.4 622l-14.5 8.3s1.3 4.2 1.4 4.6c.1.5.2.6.4.6.1-.9.7-1.9 1.5-2.3.8-.5 1.4-.1 1.5.7 1.5-.8 3.3-1.9 4.8-2.7.1-.9.7-2 1.5-2.4.7-.4 1.4-.2 1.5.5.3-.4.4-1 .4-1l1.5-6.3" clip-path="url(#cI)"/>
  <path fill="#393A3A" d="M892.3 633.6c-.7.4-1.3 1.4-1.3 2.2 0 .8.6 1.2 1.3.7.7-.4 1.3-1.4 1.3-2.2 0-.8-.6-1.1-1.3-.7m7.8-4.5c-.7.4-1.3 1.4-1.3 2.3 0 .8.6 1.2 1.3.7.7-.4 1.3-1.4 1.3-2.2 0-.9-.6-1.2-1.3-.8m-2.4-12.3c-.5.3-1.2.9-2 2.1 0 0-.6-.1-1.3.3-.6.3-1.2 1-1.6 2.3 0 0-.1.1-.3.2-1 .6-4 2.6-2.9 5.8 0 0-.1 0-.1.1-.3.2-1.1.8-.8 1.9l15.1-8.7s.6-1.9-.8-1c0 0-.1 0-.1.1 0 0 .8-4.3-2.2-2.6-.3.2-.6.4-1 .7-.2-.1-.5-2.1-2-1.2" clip-path="url(#cI)"/>
  <path fill="#CECECE" d="M987.5 554.3c3.3 1.9 3.3 4.9 0 6.8-3.2 1.9-8.5 1.9-11.7 0-3.3-1.9-3.3-4.9 0-6.8 3.2-1.9 8.4-1.9 11.7 0z"/>
  <path fill="#CECECE" d="M989.9 557.7l-.1 37.5c0 1.2-.8 2.4-2.4 3.4-3.2 1.9-8.5 1.9-11.7 0-1.6-.9-2.5-2.2-2.5-3.4l.1-37.5c0 1.2.8 2.5 2.5 3.4 3.3 1.9 8.5 1.9 11.7 0 1.6-1 2.4-2.2 2.4-3.4z"/>
  <path fill="#9B9B9B" d="M987.5 561.2c-1.1.7-2.5 1.1-4 1.3l-.1 11.1v26.3c1.4-.2 2.8-.6 3.9-1.3 1.6-.9 2.4-2.2 2.4-3.4l.1-37.5c.1 1.3-.7 2.5-2.3 3.5z"/>
  <g fill="#CEB2B2">
    <path d="M1048.4 620.2v16.3c0 1.5-1 3-3 4.2-4 2.3-10.5 2.3-14.6 0-2-1.2-3-2.7-3-4.3v-16.3c0 1.5 1 3.1 3 4.3 4 2.3 10.6 2.3 14.6 0 2-1.2 3-2.7 3-4.2z"/>
    <path d="M1045.4 615.9c4 2.3 4.1 6.1 0 8.4-4 2.3-10.5 2.3-14.6 0-4-2.3-4.1-6.1 0-8.4 4-2.3 10.5-2.3 14.6 0z"/>
  </g>
  <path fill="#826A6A" d="M1045.4 624.4c-1.2.7-2.7 1.2-4.3 1.5v16.3c1.6-.3 3.1-.8 4.3-1.5 2-1.2 3-2.7 3-4.2v-16.3c0 1.5-1 3-3 4.2z"/>
  <g fill="#CEB2B2">
    <path d="M1025.2 626.8c4 2.3 4.1 6.1 0 8.4-4 2.3-10.5 2.3-14.6 0-4-2.3-4.1-6.1-.1-8.4 4.2-2.3 10.7-2.3 14.7 0z"/>
    <path d="M1028.3 631.1v16.3c0 1.5-1 3-3 4.2-4 2.3-10.5 2.3-14.6 0-2-1.2-3-2.7-3-4.3V631c0 1.5 1 3.1 3 4.3 4 2.3 10.6 2.3 14.6 0 2-1.2 3-2.7 3-4.2z"/>
  </g>
  <path fill="#826A6A" d="M1025.3 635.3c-1.2.7-2.7 1.2-4.3 1.5v16.3c1.6-.3 3.1-.8 4.3-1.5 2-1.2 3-2.7 3-4.2v-16.3c-.1 1.5-1.1 3-3 4.2z"/>
  <g fill="#CEB2B2">
    <path d="M1012 647.7v8.2c0 1.5-1 3-3 4.2-4 2.3-10.5 2.3-14.6 0-2-1.2-3-2.7-3-4.3v-8.2c0 1.5 1 3.1 3 4.3 4 2.3 10.6 2.3 14.6 0 2-1.2 3-2.7 3-4.2z"/>
    <path d="M1009 643.4c4 2.3 4.1 6.1 0 8.4-4 2.3-10.5 2.3-14.6 0-4-2.3-4.1-6.1 0-8.4 4-2.3 10.5-2.3 14.6 0z"/>
  </g>
  <path fill="#826A6A" d="M1009 651.8c-1.3.7-2.7 1.2-4.3 1.5v8.3c1.6-.3 3.1-.8 4.3-1.5 2-1.2 3-2.7 3-4.2v-8.3c0 1.5-1 3.1-3 4.2z"/>
  <defs>
    <path id="cJ" d="M1018.2 632.1l-.1-4.7 20.1-11.5v4.7z"/>
  </defs>
  <clipPath id="cK">
    <use xlink:href="#cJ" overflow="visible"/>
  </clipPath>
  <path fill="#393A3A" d="M1035.7 617.3l-15 8.7c-1.4.8-2.5 2.7-2.5 4.3v1.8l.7-.4v-1.8c0-1.1.8-2.5 1.8-3.1l15-8.7c1-.6 1.8-.1 1.8 1v1.8l.7-.4v-1.8c0-1.5-1.2-2.2-2.5-1.4" clip-path="url(#cK)"/>
  <path fill="#86969B" d="M987.7 655.1l-19 11-24.9-14.3 19.1-11.1"/>
  <path fill="#A9C4C2" d="M968.7 666.1l-.1 16.3-24.8-14.3v-16.3"/>
  <path fill="#FFE0A4" d="M968.8 672.7l-23.4 13.5-13.9-8.1 23.3-13.5"/>
  <path fill="#2A3838" d="M987.7 655.1l-19 11v6.6l-23.3 13.5v9.8l23.4-13.6 18.9-11"/>
  <path fill="#FFFAF1" d="M945.4 686.2v9.8l-14-8.1.1-9.8"/>
  <path fill="#FDECE8" d="M934.4 674.8l9.1 12.6-18.3-10.6"/>
  <path fill="#5B4343" d="M947.2 688l-29.8 17.3-25.3-14.6 29.8-17.3"/>
  <path fill="#2A3838" d="M947.2 688v9.8l-29.8 17.3v-9.8"/>
  <path fill="#A9C4C2" d="M917.4 705.3v9.8l-25.3-14.6v-9.8"/>
  <path fill="#CEB2B2" d="M959.7 660.1l-9.1 2-19.5 11.4h-9.4l-29.6 17.2h12.6l25.8-15 3.9-.9"/>
  <path fill="#A9C4C2" d="M904.7 690.7l12.6 14.5-25.2-14.5"/>
  <path fill="#5B4343" d="M968.8 672.6l-9.1-12.5-24.6 14.3-.8-.9-29.6 17.2 12.6 14.5 29.6-17.2-1.5-1.8"/>
</svg>
