<?xml version="1.0" encoding="utf-8"?>
<!-- Generator: Adobe Illustrator 18.1.0, SVG Export Plug-In . SVG Version: 6.00 Build 0)  -->
<svg version="1.1" id="Calque_1" xmlns="http://www.w3.org/2000/svg" xmlns:xlink="http://www.w3.org/1999/xlink" x="0px" y="0px"
	 viewBox="0 0 1440 875.8" enable-background="new 0 0 1440 875.8" xml:space="preserve">
<g enable-background="new    ">
	<defs>
		<path id="SVGID_1_" enable-background="new    " d="M750.7,355l-0.3,90.6c-6.5-3.8-17.1-3.8-23.6,0l0.3-90.6
			C733.6,351.2,744.1,351.2,750.7,355z"/>
	</defs>
	<clipPath id="SVGID_3_">
		<use xlink:href="#SVGID_1_"  overflow="visible"/>
	</clipPath>
	<path clip-path="url(#SVGID_3_)" fill="#FFF9EC" d="M750.7,355l-0.3,90.6c-0.4-0.2-0.9-0.5-1.3-0.7l0.3-90.6
		C749.8,354.6,750.2,354.8,750.7,355"/>
	<path clip-path="url(#SVGID_3_)" fill="#FFF6E2" d="M749.3,354.3l-0.3,90.6c-0.5-0.2-1-0.5-1.6-0.7l0.3-90.6
		C748.3,353.9,748.8,354.1,749.3,354.3"/>
	<path clip-path="url(#SVGID_3_)" fill="#FFF3D8" d="M747.8,353.7l-0.3,90.6c-0.5-0.2-1-0.4-1.6-0.5l0.3-90.6
		C746.7,353.3,747.3,353.5,747.8,353.7"/>
	<path clip-path="url(#SVGID_3_)" fill="#FFF1CF" d="M746.2,353.2l-0.3,90.6c-0.5-0.2-1.1-0.3-1.6-0.4l0.3-90.6
		C745.1,352.9,745.7,353,746.2,353.2"/>
	<path clip-path="url(#SVGID_3_)" fill="#FFEEC5" d="M744.6,352.8l-0.3,90.6c-0.6-0.1-1.2-0.2-1.8-0.3l0.3-90.6
		C743.4,352.6,744,352.7,744.6,352.8"/>
	<path clip-path="url(#SVGID_3_)" fill="#FFEBBB" d="M742.8,352.5l-0.3,90.6c-0.7-0.1-1.3-0.2-2-0.2l0.3-90.6
		C741.5,352.3,742.1,352.4,742.8,352.5"/>
	<path clip-path="url(#SVGID_3_)" fill="#FFE8B1" d="M740.8,352.3l-0.3,90.6c-0.8-0.1-1.7-0.1-2.5-0.1l0.3-90.6
		C739.2,352.2,740,352.2,740.8,352.3"/>
	<path clip-path="url(#SVGID_3_)" fill="#FFE5A8" d="M738.3,352.2l-0.3,90.6c-4.1,0.1-8.2,1-11.3,2.8l0.3-90.6
		C730.2,353.2,734.2,352.3,738.3,352.2"/>
</g>
<g enable-background="new    ">
	<defs>
		<path id="SVGID_5_" enable-background="new    " d="M726.8,445.6c-1.7,1-3,2.2-3.8,3.4c0.1-26.7,0.2-53.3,0.2-80l0-10.6
			c0.8-1.2,2.1-2.4,3.8-3.4C727,382.2,726.9,418.4,726.8,445.6z"/>
	</defs>
	<clipPath id="SVGID_7_">
		<use xlink:href="#SVGID_5_"  overflow="visible"/>
	</clipPath>
	<path clip-path="url(#SVGID_7_)" fill="#FFE5A8" d="M727.1,355l-0.3,90.6c-1.7,1-3,2.2-3.8,3.4l0.3-90.6
		C724.1,357.2,725.3,356,727.1,355"/>
</g>
<polygon fill="#FFF7E4" points="723.3,358.4 723,449 722,448.4 722.2,357.8 "/>
<path fill="#FFE5A7" d="M723.3,358.4l-1-0.6l4.8-2.8C725.3,356,724.1,357.2,723.3,358.4z"/>
<g enable-background="new    ">
	<defs>
		<path id="SVGID_9_" enable-background="new    " d="M722,452.4l0.3-90.6c0,2.5,1.6,5,4.9,6.9l-0.3,90.6
			C723.6,457.4,721.9,454.9,722,452.4z"/>
	</defs>
	<clipPath id="SVGID_11_">
		<use xlink:href="#SVGID_9_"  overflow="visible"/>
	</clipPath>
	<path clip-path="url(#SVGID_11_)" fill="#FFF9EC" d="M727.1,368.7l-0.3,90.6c-0.1-0.1-0.2-0.1-0.3-0.2l0.3-90.6
		C726.9,368.6,727,368.6,727.1,368.7"/>
	<path clip-path="url(#SVGID_11_)" fill="#FFFCF5" d="M726.8,368.5l-0.3,90.6c-0.7-0.5-1.4-0.9-1.9-1.4l0.3-90.6
		C725.4,367.6,726.1,368.1,726.8,368.5"/>
	<path clip-path="url(#SVGID_11_)" fill="#FFFFFF" d="M724.9,367.1l-0.3,90.6c-1.3-1.2-2.1-2.4-2.4-3.7l0.3-90.6
		C722.8,364.6,723.6,365.9,724.9,367.1"/>
	<path clip-path="url(#SVGID_11_)" fill="#FFFCF5" d="M722.4,363.3l-0.3,90.6c-0.1-0.5-0.2-1-0.2-1.5l0.3-90.6
		C722.2,362.3,722.3,362.8,722.4,363.3"/>
</g>
<polygon fill="#FFF7E4" points="780.3,372.1 780,462.7 750.4,445.6 750.7,355 "/>
<g enable-background="new    ">
	<defs>
		<path id="SVGID_13_" enable-background="new    " d="M784.7,468c-0.6-1.9-2.1-3.8-4.7-5.3l0.3-90.6c2.6,1.5,4.1,3.3,4.7,5.3
			C784.9,407.6,784.8,437.8,784.7,468z"/>
	</defs>
	<clipPath id="SVGID_15_">
		<use xlink:href="#SVGID_13_"  overflow="visible"/>
	</clipPath>
	<path clip-path="url(#SVGID_15_)" fill="#FFFFFF" d="M785,377.5l-0.3,90.6c-0.4-1.3-1.2-2.6-2.4-3.7l0.3-90.6
		C783.9,374.9,784.7,376.2,785,377.5"/>
	<path clip-path="url(#SVGID_15_)" fill="#FFFCF5" d="M782.6,373.8l-0.3,90.6c-0.6-0.5-1.2-1-2-1.4l0.3-90.6
		C781.4,372.8,782,373.3,782.6,373.8"/>
	<path clip-path="url(#SVGID_15_)" fill="#FFF9EC" d="M780.6,372.3l-0.3,90.6c-0.1-0.1-0.2-0.1-0.3-0.2l0.3-90.6
		C780.4,372.2,780.5,372.3,780.6,372.3"/>
</g>
<g enable-background="new    ">
	<defs>
		<path id="SVGID_25_" enable-background="new    " d="M784.7,468c-4.2-30.2,0.2-60.4,0.3-90.6c0.2,0.5,0.2,1.1,0.2,1.6l-0.3,90.6
			C785,469,784.9,468.5,784.7,468z"/>
	</defs>
	<clipPath id="SVGID_27_">
		<use xlink:href="#SVGID_25_"  overflow="visible"/>
	</clipPath>
	<path clip-path="url(#SVGID_27_)" fill="#FFFCF5" d="M785.2,379l-0.3,90.6c0-0.5-0.1-1-0.2-1.5l0.3-90.6
		C785.2,378,785.2,378.5,785.2,379"/>
	<path clip-path="url(#SVGID_27_)" fill="#FFFFFF" d="M785,377.5l-0.3,90.6c-0.4-1.3-1.2-2.6-2.4-3.7l0.3-90.6
		C783.9,374.9,784.7,376.2,785,377.5"/>
</g>
<g enable-background="new    ">
	<defs>
		<path id="SVGID_29_" enable-background="new    " d="M785.2,379l-0.3,90.6c0,2.5-1.6,4.9-4.9,6.8l0.3-90.6
			C783.6,383.9,785.2,381.5,785.2,379z"/>
	</defs>
	<clipPath id="SVGID_31_">
		<use xlink:href="#SVGID_29_"  overflow="visible"/>
	</clipPath>
	<path clip-path="url(#SVGID_31_)" fill="#FFE5A8" d="M785.2,379l-0.3,90.6c0,2.5-1.6,4.9-4.9,6.8l0.3-90.6
		C783.6,383.9,785.2,381.5,785.2,379"/>
</g>
<path fill="#FFDD8E" d="M745.8,344.2L727.1,355c-1.7,1-3,2.2-3.8,3.4c-2.2,3.4-0.9,7.5,3.9,10.3l29.6,17.1
	c4.8,2.8,11.8,3.5,17.7,2.2c2.1-0.5,4.1-1.2,5.9-2.2l18.7-10.9L745.8,344.2z"/>
<polygon fill="#FFF7E4" points="756.8,385.8 756.5,476.4 726.9,459.3 727.1,368.7 "/>
<g enable-background="new    ">
	<defs>
		<path id="SVGID_33_" enable-background="new    " d="M780.4,385.8l-0.3,90.6c-1.7,1-3.7,1.7-5.9,2.2c-5.9,1.3-12.9,0.6-17.7-2.2
			l0.3-90.6c4.8,2.8,11.8,3.5,17.7,2.2C776.6,387.5,778.6,386.8,780.4,385.8z"/>
	</defs>
	<clipPath id="SVGID_35_">
		<use xlink:href="#SVGID_33_"  overflow="visible"/>
	</clipPath>
	<path clip-path="url(#SVGID_35_)" fill="#FFE5A8" d="M780.4,385.8l-0.3,90.6c-1.7,1-3.7,1.7-5.9,2.2c-1.7,0.4-3.6,0.6-5.4,0.6
		l0.3-90.6c1.8,0,3.7-0.2,5.4-0.6C776.6,387.5,778.6,386.8,780.4,385.8"/>
	<path clip-path="url(#SVGID_35_)" fill="#FFE8B1" d="M769.1,388.6l-0.3,90.6c-0.8,0-1.6,0-2.5-0.1l0.3-90.6
		C767.4,388.6,768.3,388.6,769.1,388.6"/>
	<path clip-path="url(#SVGID_35_)" fill="#FFEBBB" d="M766.6,388.6l-0.3,90.6c-0.7,0-1.3-0.1-2-0.2l0.3-90.6
		C765.3,388.5,765.9,388.5,766.6,388.6"/>
	<path clip-path="url(#SVGID_35_)" fill="#FFEEC5" d="M764.6,388.4l-0.3,90.6c-0.6-0.1-1.2-0.2-1.8-0.3l0.3-90.6
		C763.4,388.2,764,388.3,764.6,388.4"/>
	<path clip-path="url(#SVGID_35_)" fill="#FFF1CF" d="M762.9,388.1l-0.3,90.6c-0.6-0.1-1.1-0.2-1.6-0.4l0.3-90.6
		C761.8,387.8,762.3,387.9,762.9,388.1"/>
	<path clip-path="url(#SVGID_35_)" fill="#FFF3D8" d="M761.2,387.7l-0.3,90.6c-0.5-0.2-1.1-0.3-1.6-0.5l0.3-90.6
		C760.2,387.3,760.7,387.5,761.2,387.7"/>
	<path clip-path="url(#SVGID_35_)" fill="#FFF6E2" d="M759.7,387.1l-0.3,90.6c-0.5-0.2-1.1-0.4-1.6-0.6l0.3-90.6
		C758.6,386.7,759.1,386.9,759.7,387.1"/>
	<path clip-path="url(#SVGID_35_)" fill="#FFF9EC" d="M758.1,386.5l-0.3,90.6c-0.5-0.2-0.9-0.4-1.3-0.7l0.3-90.6
		C757.2,386.1,757.6,386.3,758.1,386.5"/>
</g>
<polygon fill="#FFBD6A" points="775.5,388.6 775.3,479.2 798.8,465.5 799.1,374.9 "/>
<polygon fill="#FFF7E4" points="775.5,388.6 775.3,479.2 774.2,478.6 774.5,388 "/>
<path fill="#FFE5A7" d="M775.5,388.6l-1-0.6c2.1-0.5,4.1-1.2,5.9-2.2L775.5,388.6z"/>
<g enable-background="new    ">
	<defs>
		<polygon id="SVGID_42_" enable-background="new    " points="738.3,366.4 756.6,355.7 775.8,366.8 757.5,377.4 		"/>
	</defs>
	<clipPath id="SVGID_43_">
		<use xlink:href="#SVGID_42_"  overflow="visible"/>
	</clipPath>
	<polyline clip-path="url(#SVGID_43_)" fill="#FFFFFF" points="775.8,366.8 756.6,355.7 738.3,366.4 757.5,377.4 775.8,366.8 	"/>
</g>
<g enable-background="new    ">
	<defs>
		<polygon id="SVGID_44_" enable-background="new    " points="744.8,367 758.1,359.3 769.1,365.7 755.9,373.4 		"/>
	</defs>
	<clipPath id="SVGID_45_">
		<use xlink:href="#SVGID_44_"  overflow="visible"/>
	</clipPath>
	<polyline clip-path="url(#SVGID_45_)" fill="#F69E89" points="769.1,365.7 766.1,364 761,366.9 756,364 761.1,361.1 758.1,359.3 
		744.8,367 747.9,368.8 753.4,365.6 758.4,368.4 752.8,371.7 755.9,373.4 769.1,365.7 	"/>
</g>
<path fill="#F5967F" d="M798.8,384.8l-23.4,13.6l-1-0.6l-0.1,0c-6.1,1.3-13,0.5-17.6-2.2l-29.6-17.1c-2.6-1.5-4.2-3.3-4.7-5.4
	c-0.1-0.3-0.1-0.7-0.1-1h0v-2.3c-0.4,1.1-0.5,2.3-0.2,3.4c0.5,2.2,2.2,4.1,4.9,5.7l29.6,17.1c4.7,2.7,11.7,3.6,17.8,2.2l1.1,0.6
	l23.6-13.7L798.8,384.8z"/>
<path fill="#F5967F" d="M798.8,392.8l-23.4,13.6l-1-0.6l-0.1,0c-6.1,1.3-13,0.5-17.6-2.2l-29.6-17.1c-2.6-1.5-4.2-3.3-4.7-5.4
	c-0.1-0.3-0.1-0.7-0.1-1h0v-2.3c-0.4,1.1-0.5,2.3-0.2,3.4c0.5,2.2,2.2,4.1,4.9,5.7l29.6,17.1c4.7,2.7,11.7,3.6,17.8,2.2l1.1,0.6
	l23.6-13.7L798.8,392.8z"/>
<path fill="#F5967F" d="M798.8,400.8l-23.4,13.6l-1-0.6l-0.1,0c-6.1,1.3-13,0.5-17.6-2.2l-29.6-17.1c-2.6-1.5-4.2-3.3-4.7-5.4
	c-0.1-0.3-0.1-0.7-0.1-1h0v-2.3c-0.4,1.1-0.5,2.3-0.2,3.4c0.5,2.2,2.2,4.1,4.9,5.7l29.6,17.1c4.7,2.7,11.7,3.6,17.8,2.2l1.1,0.6
	l23.6-13.7L798.8,400.8z"/>
<path fill="#F5967F" d="M798.8,408.8l-23.4,13.6l-1-0.6l-0.1,0c-6.1,1.3-13,0.5-17.6-2.2l-29.6-17.1c-2.6-1.5-4.2-3.3-4.7-5.4
	c-0.1-0.3-0.1-0.7-0.1-1h0v-2.3c-0.4,1.1-0.5,2.3-0.2,3.4c0.5,2.2,2.2,4.1,4.9,5.7l29.6,17.1c4.7,2.7,11.7,3.6,17.8,2.2l1.1,0.6
	l23.6-13.7L798.8,408.8z"/>
<path fill="#F5967F" d="M798.8,416.8l-23.4,13.6l-1-0.6l-0.1,0c-6.1,1.3-13,0.5-17.6-2.2l-29.6-17.1c-2.6-1.5-4.2-3.3-4.7-5.4
	c-0.1-0.3-0.1-0.7-0.1-1h0v-2.3c-0.4,1.1-0.5,2.3-0.2,3.4c0.5,2.2,2.2,4.1,4.9,5.7l29.6,17.1c4.7,2.7,11.7,3.6,17.8,2.2l1.1,0.6
	l23.6-13.7L798.8,416.8z"/>
<path fill="#F5967F" d="M798.8,424.8l-23.4,13.6l-1-0.6l-0.1,0c-6.1,1.3-13,0.5-17.6-2.2l-29.6-17.1c-2.6-1.5-4.2-3.3-4.7-5.4
	c-0.1-0.3-0.1-0.7-0.1-1h0v-2.3c-0.4,1.1-0.5,2.3-0.2,3.4c0.5,2.2,2.2,4.1,4.9,5.7l29.6,17.1c4.7,2.7,11.7,3.6,17.8,2.2l1.1,0.6
	l23.6-13.7L798.8,424.8z"/>
<path fill="#F5967F" d="M798.8,432.8l-23.4,13.6l-1-0.6l-0.1,0c-6.1,1.3-13,0.5-17.6-2.2l-29.6-17.1c-2.6-1.5-4.2-3.3-4.7-5.4
	c-0.1-0.3-0.1-0.7-0.1-1h0v-2.3c-0.4,1.1-0.5,2.3-0.2,3.4c0.5,2.2,2.2,4.1,4.9,5.7l29.6,17.1c4.7,2.7,11.7,3.6,17.8,2.2l1.1,0.6
	l23.6-13.7L798.8,432.8z"/>
<path fill="#F5967F" d="M798.8,440.8l-23.4,13.6l-1-0.6l-0.1,0c-6.1,1.3-13,0.5-17.6-2.2l-29.6-17.1c-2.6-1.5-4.2-3.3-4.7-5.4
	c-0.1-0.3-0.1-0.7-0.1-1h0v-2.3c-0.4,1.1-0.5,2.3-0.2,3.4c0.5,2.2,2.2,4.1,4.9,5.7l29.6,17.1c4.7,2.7,11.7,3.6,17.8,2.2l1.1,0.6
	l23.6-13.7L798.8,440.8z"/>
<path fill="#F5967F" d="M798.8,448.8l-23.4,13.6l-1-0.6l-0.1,0c-6.1,1.3-13,0.5-17.6-2.2l-29.6-17.1c-2.6-1.5-4.2-3.3-4.7-5.4
	c-0.1-0.3-0.1-0.7-0.1-1h0v-2.3c-0.4,1.1-0.5,2.3-0.2,3.4c0.5,2.2,2.2,4.1,4.9,5.7l29.6,17.1c4.7,2.7,11.7,3.6,17.8,2.2l1.1,0.6
	l23.6-13.7L798.8,448.8z"/>
<path fill="#F5967F" d="M798.8,456.8l-23.4,13.6l-1-0.6l-0.1,0c-6.1,1.3-13,0.5-17.6-2.2l-29.6-17.1c-2.6-1.5-4.2-3.3-4.7-5.4
	c-0.1-0.3-0.1-0.7-0.1-1h0v-2.3c-0.4,1.1-0.5,2.3-0.2,3.4c0.5,2.2,2.2,4.1,4.9,5.7l29.6,17.1c4.7,2.7,11.7,3.6,17.8,2.2l1.1,0.6
	l23.6-13.7L798.8,456.8z"/>
<polygon fill="#FFDD8E" points="762.1,440.5 722.4,464 661.5,429.4 701.2,406 "/>
<polygon fill="#FFBD6A" points="762.1,440.5 761.9,485.3 722.2,508.8 722.4,464 "/>
<polygon fill="#FFF5D4" points="722.4,464 722.2,508.8 661.4,474.3 661.5,429.4 "/>
<polygon fill="#97D2E8" points="726.7,425 710.5,434.4 693.1,424.3 709.3,414.9 "/>
<polygon fill="#43A4C9" points="726.7,425 726.7,436.4 710.5,445.8 710.5,434.4 "/>
<polygon fill="#EDF6F9" points="710.5,434.4 710.5,445.8 693.1,435.7 693.1,424.3 "/>
<g enable-background="new    ">
	<g>
		<polygon fill="#F1526B" points="684.7,426.9 684.7,431.3 680.9,433.5 		"/>
	</g>
	<g>
		<polygon fill="#FFF2D3" points="680.9,433.5 674.4,429.7 678.2,423.1 684.7,426.9 		"/>
	</g>
	<g>
		<polygon fill="#F59680" points="680.4,431.7 676.1,429.2 678.6,424.9 682.9,427.4 		"/>
	</g>
</g>
<polygon fill="#F1526B" points="746.8,436.2 746.8,441.1 742.5,443.6 "/>
<polygon fill="#FFF2D3" points="742.5,443.6 736,439.8 740.3,432.4 746.8,436.2 "/>
<polygon fill="#F59680" points="742.2,441.9 737.6,439.3 740.6,434.1 745.2,436.7 "/>
<g enable-background="new    ">
	<defs>
		<polygon id="SVGID_46_" enable-background="new    " points="720.9,439.8 720.9,434.8 718.5,436.2 718.5,441.2 		"/>
	</defs>
	<use xlink:href="#SVGID_46_"  overflow="visible" fill="#FFFFFF"/>
	<clipPath id="SVGID_47_">
		<use xlink:href="#SVGID_46_"  overflow="visible"/>
	</clipPath>
</g>
<g enable-background="new    ">
	<defs>
		<polygon id="SVGID_151_" enable-background="new    " points="661.4,437.8 701.4,414.5 762.3,449.7 722.3,472.9 		"/>
	</defs>
	<clipPath id="SVGID_48_">
		<use xlink:href="#SVGID_151_"  overflow="visible"/>
	</clipPath>
	<polyline clip-path="url(#SVGID_48_)" fill="#F5967F" points="762.3,449.7 762,449.5 722.4,472 661.8,437.6 661.4,437.8 
		722.3,472.3 722.4,472.4 762.3,449.7 	"/>
</g>
<g enable-background="new    ">
	<defs>
		<polygon id="SVGID_150_" enable-background="new    " points="661.4,445.3 701.4,422 762.3,457.2 722.3,480.4 		"/>
	</defs>
	<clipPath id="SVGID_49_">
		<use xlink:href="#SVGID_150_"  overflow="visible"/>
	</clipPath>
	<polyline clip-path="url(#SVGID_49_)" fill="#F5967F" points="762.3,457.2 762,457 722.4,479.5 661.7,445.1 661.4,445.3 
		722.3,479.8 722.4,479.9 762.3,457.2 	"/>
</g>
<g enable-background="new    ">
	<defs>
		<polygon id="SVGID_149_" enable-background="new    " points="661.4,452.8 701.4,429.5 762.3,464.7 722.3,487.9 		"/>
	</defs>
	<clipPath id="SVGID_50_">
		<use xlink:href="#SVGID_149_"  overflow="visible"/>
	</clipPath>
	<polyline clip-path="url(#SVGID_50_)" fill="#F5967F" points="762,464.4 722.4,487 661.7,452.6 661.4,452.8 722.2,487.3 
		722.4,487.4 762.3,464.7 762,464.4 	"/>
</g>
<g enable-background="new    ">
	<defs>
		<polygon id="SVGID_148_" enable-background="new    " points="661.4,460.3 701.4,437 762.3,472.2 722.3,495.4 		"/>
	</defs>
	<clipPath id="SVGID_51_">
		<use xlink:href="#SVGID_148_"  overflow="visible"/>
	</clipPath>
	<polyline clip-path="url(#SVGID_51_)" fill="#F5967F" points="762.3,472.2 762,472 722.4,494.5 661.8,460.1 661.4,460.3 
		722.3,494.8 722.4,494.9 762.3,472.2 	"/>
</g>
<g enable-background="new    ">
	<defs>
		<polygon id="SVGID_147_" enable-background="new    " points="661.4,467.8 701.4,444.5 762.3,479.7 722.3,502.9 		"/>
	</defs>
	<clipPath id="SVGID_52_">
		<use xlink:href="#SVGID_147_"  overflow="visible"/>
	</clipPath>
	<polyline clip-path="url(#SVGID_52_)" fill="#F5967F" points="762.3,479.7 762,479.5 722.4,502 661.7,467.6 661.4,467.8 
		722.3,502.3 722.4,502.4 762.3,479.7 	"/>
</g>
<g enable-background="new    ">
	<g>
		<polygon fill="#FFCABE" points="657.9,461.9 657.9,466.8 642.5,457.9 642.5,453 		"/>
	</g>
	<g>
		<polygon fill="#F1526B" points="642.5,453 642.5,457.9 609.3,477.3 609.3,472.4 		"/>
	</g>
	<g>
		<path fill="#F5967F" d="M642.5,452.2l16.8,9.7L624.7,482l-16.8-9.7L642.5,452.2z M624.6,481.2l33.2-19.3l-15.4-8.9l-33.2,19.3
			L624.6,481.2"/>
	</g>
	<g>
		<polygon fill="#F1526B" points="659.3,461.9 659.3,466.8 624.6,486.9 624.7,482 		"/>
	</g>
	<g>
		<polygon fill="#FFCABE" points="624.7,482 624.6,486.9 607.9,477.3 607.9,472.4 		"/>
	</g>
</g>
<polygon fill="#BCE5EC" points="611,473.4 624.6,481.3 656.2,463 642.5,455.1 "/>
<polygon fill="#FFDD8E" points="697.4,458.5 667,476.2 635.1,457.8 665.5,440.1 "/>
<polygon fill="#FFBD6A" points="697.4,458.5 697.3,495.2 666.8,512.9 667,476.2 "/>
<polygon fill="#FFF5D4" points="667,476.2 666.8,512.9 635,494.5 635.1,457.8 "/>
<g enable-background="new    ">
	<g>
		<polygon fill="#F5967F" points="680,461.8 674.9,464.8 669.1,461.5 674.3,458.5 		"/>
	</g>
	<g>
		<polygon fill="#F1526B" points="680,461.8 680,465.1 674.9,468.1 674.9,464.8 		"/>
	</g>
	<g>
		<polygon fill="#FFCABE" points="674.9,464.8 674.9,468.1 669.1,464.8 669.1,461.5 		"/>
	</g>
</g>
<g enable-background="new    ">
	<g>
		<polygon fill="#F5967F" points="670,456.8 664.9,459.8 659.1,456.5 664.3,453.5 		"/>
	</g>
	<g>
		<polygon fill="#F1526B" points="670,456.8 670,460.1 664.9,463.1 664.9,459.8 		"/>
	</g>
	<g>
		<polygon fill="#FFCABE" points="664.9,459.8 664.9,463.1 659.1,459.8 659.1,456.5 		"/>
	</g>
</g>
<g enable-background="new    ">
	<defs>
		<polygon id="SVGID_146_" enable-background="new    " points="634.5,467.8 665.3,449.9 697.7,468.6 666.8,486.5 		"/>
	</defs>
	<clipPath id="SVGID_53_">
		<use xlink:href="#SVGID_146_"  overflow="visible"/>
	</clipPath>
	<polyline clip-path="url(#SVGID_53_)" fill="#F5967F" points="697.3,468.4 666.9,485.6 634.8,467.6 634.5,467.8 666.9,486 
		697.7,468.6 697.3,468.4 	"/>
</g>
<g enable-background="new    ">
	<defs>
		<polygon id="SVGID_145_" enable-background="new    " points="634.5,475.8 665.3,457.9 697.7,476.6 666.8,494.5 		"/>
	</defs>
	<clipPath id="SVGID_54_">
		<use xlink:href="#SVGID_145_"  overflow="visible"/>
	</clipPath>
	<polyline clip-path="url(#SVGID_54_)" fill="#F5967F" points="697.7,476.6 697.3,476.4 666.9,493.6 634.8,475.6 634.5,475.8 
		666.9,494 697.7,476.6 	"/>
</g>
<g enable-background="new    ">
	<defs>
		<polygon id="SVGID_144_" enable-background="new    " points="634.5,483.8 665.3,465.9 697.7,484.6 666.8,502.5 		"/>
	</defs>
	<clipPath id="SVGID_55_">
		<use xlink:href="#SVGID_144_"  overflow="visible"/>
	</clipPath>
	<polyline clip-path="url(#SVGID_55_)" fill="#F5967F" points="697.7,484.6 697.3,484.4 666.9,501.6 634.8,483.6 634.5,483.8 
		666.9,502 697.7,484.6 	"/>
</g>
<g enable-background="new    ">
	<defs>
		<polygon id="SVGID_143_" enable-background="new    " points="644.5,500 644.6,486.8 652.1,491.2 652.1,504.3 		"/>
	</defs>
	<clipPath id="SVGID_56_">
		<use xlink:href="#SVGID_143_"  overflow="visible"/>
	</clipPath>
	<g clip-path="url(#SVGID_56_)">
		<polyline fill="#FFFFFF" points="652.1,491.2 644.6,486.8 644.5,500 652.1,504.3 652.1,491.2 		"/>
	</g>
</g>
<g enable-background="new    ">
	<g>
		<polygon fill="#E2F1F6" points="637.3,500 636.5,500.5 635.7,500 636.5,499.6 		"/>
	</g>
	<g>
		<polygon fill="#43A4C9" points="637.3,500 637.2,516.3 636.4,516.8 636.5,500.5 		"/>
	</g>
	<g>
		<polygon fill="#EDF6F9" points="636.5,500.5 636.4,516.8 635.7,516.4 635.7,500 		"/>
	</g>
</g>
<g enable-background="new    ">
	<g>
		<polygon fill="#E2F1F6" points="626.3,494 625.5,494.5 624.7,494 625.5,493.6 		"/>
	</g>
	<g>
		<polygon fill="#43A4C9" points="626.3,494 626.2,510.3 625.4,510.8 625.5,494.5 		"/>
	</g>
	<g>
		<polygon fill="#EDF6F9" points="625.5,494.5 625.4,510.8 624.7,510.3 624.7,494 		"/>
	</g>
</g>
<g enable-background="new    ">
	<g>
		<polygon fill="#97D2E8" points="656.3,490.2 632.7,503.9 618.7,495.8 642.2,482.1 		"/>
	</g>
	<g>
		<polygon fill="#43A4C9" points="656.3,490.2 656.3,492.6 632.7,506.3 632.7,503.9 		"/>
	</g>
	<g>
		<polygon fill="#EDF6F9" points="632.7,503.9 632.7,506.3 618.7,498.2 618.7,495.8 		"/>
	</g>
</g>
<g enable-background="new    ">
	<defs>
		<polygon id="SVGID_142_" enable-background="new    " points="643.2,478.1 643.2,466.8 653,472.5 653,483.7 		"/>
	</defs>
	<clipPath id="SVGID_57_">
		<use xlink:href="#SVGID_142_"  overflow="visible"/>
	</clipPath>
	<polyline clip-path="url(#SVGID_57_)" fill="#F1526B" points="649.6,470.5 646.7,468.8 646.7,472.8 643.2,470.8 643.2,474.1 
		646.7,476.1 646.6,480 649.5,481.7 649.5,477.8 653,479.7 653,476.4 649.6,474.4 649.6,470.5 	"/>
</g>
<g enable-background="new    ">
	<g>
		<polygon fill="#F1526B" points="600.2,501.3 600.1,506.2 581.2,517.2 581.2,512.3 		"/>
	</g>
	<g>
		<polygon fill="#FFCABE" points="648.1,529 648.1,533.9 600.1,506.2 600.2,501.3 		"/>
	</g>
	<g>
		<path fill="#F5967F" d="M600.2,500.5l49.4,28.5l-20.3,11.8l-49.4-28.5L600.2,500.5z M629.2,540l18.9-11l-48-27.7l-18.9,11
			L629.2,540"/>
	</g>
	<g>
		<polygon fill="#F1526B" points="649.5,529 649.5,533.9 629.2,545.7 629.2,540.9 		"/>
	</g>
	<g>
		<polygon fill="#FFCABE" points="629.2,540.9 629.2,545.7 579.8,517.2 579.8,512.3 		"/>
	</g>
</g>
<polygon fill="#BCE5EC" points="583,513.4 629.2,540 646.4,530.1 600.2,503.4 "/>
<polygon fill="#D8CFBF" points="651.8,547.1 816.5,451.4 816.4,467.7 651.8,563.4 "/>
<polygon fill="#F8F6F3" points="816.5,451.4 1033.8,576.9 1033.7,593.2 816.4,467.7 "/>
<polygon fill="#AA8888" points="806.9,488.7 786.4,500.6 774.4,493.8 795,481.8 "/>
<polygon fill="#FEF4F2" points="786.4,500.6 786.3,512.9 774.4,506 774.4,493.8 "/>
<polygon fill="#AA8888" points="794,488.4 773.4,500.3 755.4,489.9 776,478 "/>
<polygon fill="#5B4343" points="806.9,488.7 793.9,496.2 794,488.1 773.4,500.1 773.4,520.4 793.9,508.5 793.9,508.5 806.9,500.9 
	"/>
<polygon fill="#E5E5E5" points="773.4,500.3 773.4,520.7 755.4,510.3 755.4,489.9 "/>
<polygon fill="#AA8888" points="764.3,503.7 726,525.9 717.1,520.8 755.4,498.5 "/>
<polygon fill="#5B4343" points="764.3,503.7 764.3,515.9 725.9,538.2 726,525.9 "/>
<polygon fill="#FEF4F2" points="726,525.9 725.9,538.2 717,533 717.1,520.8 "/>
<polygon fill="#86969B" points="880.7,507.5 865.6,516.3 840.7,501.9 855.8,493.2 "/>
<polygon fill="#FFD686" points="880.7,507.5 880.7,519.8 865.6,528.5 865.6,516.3 "/>
<polygon fill="#D3DDDB" points="865.6,516.3 865.6,528.5 840.7,514.2 840.7,501.9 "/>
<g enable-background="new    ">
	<defs>
		<polygon id="SVGID_41_" enable-background="new    " points="735.8,552.1 822.3,501.8 986.9,596.9 900.4,647.1 		"/>
	</defs>
	<clipPath id="SVGID_58_">
		<use xlink:href="#SVGID_41_"  overflow="visible"/>
	</clipPath>
	<polyline clip-path="url(#SVGID_58_)" fill="#86969B" points="835,509.2 822.3,501.8 791.8,519.5 827.3,540 787.5,563.1 828.8,587 
		813,596.7 900.4,647.1 913.1,639.7 838.1,596.5 854,586.8 812.9,563.1 852.8,540 817.3,519.5 835,509.2 	"/>
</g>
<g enable-background="new    ">
	<defs>
		<polygon id="SVGID_40_" enable-background="new    " points="771,605.6 821.3,576.4 847,591.2 796.7,620.4 		"/>
	</defs>
	<use xlink:href="#SVGID_40_"  overflow="visible" fill="#86969B"/>
	<clipPath id="SVGID_59_">
		<use xlink:href="#SVGID_40_"  overflow="visible"/>
	</clipPath>
	<polyline clip-path="url(#SVGID_59_)" fill="#86969B" points="847,591.2 821.3,576.4 771,605.6 796.7,620.4 847,591.2 	"/>
</g>
<path fill="#B2DBE7" d="M784.5,484.6l-0.2,53.8c0,1-0.6,1.9-1.9,2.6c-2.5,1.5-6.6,1.5-9.1,0c-1.3-0.7-1.9-1.7-1.9-2.7l0.2-53.8
	c0,1,0.6,1.9,1.9,2.7c2.5,1.5,6.6,1.5,9.1,0C783.8,486.5,784.4,485.6,784.5,484.6z"/>
<path fill="#B2DBE7" d="M782.5,481.9c2.5,1.5,2.6,3.8,0,5.3c-2.5,1.5-6.6,1.5-9.1,0c-2.5-1.5-2.5-3.8,0-5.3
	C775.9,480.5,780,480.5,782.5,481.9z"/>
<path fill="#0066AE" d="M782.5,486.4c-0.9,0.5-2,0.8-3.1,1l0,34l0,0v20.5c1.1-0.2,2.2-0.5,3.1-1c1.3-0.7,1.9-1.7,1.9-2.6l0.1-54.5
	C784.4,484.7,783.7,485.7,782.5,486.4z"/>
<path fill="#D3DDDB" d="M784.5,484.6l-0.2,53.8c0,1-0.6,1.9-1.9,2.6c-2.5,1.5-6.6,1.5-9.1,0c-1.3-0.7-1.9-1.7-1.9-2.7l0.2-53.8
	c0,1,0.6,1.9,1.9,2.7c2.5,1.5,6.6,1.5,9.1,0C783.8,486.5,784.4,485.6,784.5,484.6z"/>
<path fill="#D3DDDB" d="M782.5,481.9c2.5,1.5,2.6,3.8,0,5.3c-2.5,1.5-6.6,1.5-9.1,0c-2.5-1.5-2.5-3.8,0-5.3
	C775.9,480.5,780,480.5,782.5,481.9z"/>
<path fill="#393A3A" d="M781,482.6c1.7,1,1.7,2.6,0,3.5c-1.7,1-4.4,1-6.1,0c-1.7-1-1.7-2.6,0-3.5C776.5,481.6,779.3,481.6,781,482.6
	z"/>
<path fill="#86969B" d="M782.5,487.2c-0.9,0.5-2,0.8-3.1,1l0,33.2l0,0v20.5c1.1-0.2,2.2-0.5,3.1-1c1.3-0.7,1.9-1.7,1.9-2.6l0.1-54.5
	C784.4,484.7,783.7,486.5,782.5,487.2z"/>
<polygon fill="#86969B" points="780,555.3 709.6,514.3 723.9,500.5 794.4,541.5 "/>
<polygon fill="#2A3838" points="794.4,541.5 794.5,585.9 765,603 764.9,564 780,549.8 780,555.3 "/>
<polygon fill="#D3DDDB" points="765,603 694.5,562 694.4,523.1 764.9,564 "/>
<polygon fill="#86969B" points="764.9,564 694.4,523.1 709.5,508.9 780,549.8 "/>
<g enable-background="new    ">
	<defs>
		<polygon id="SVGID_39_" enable-background="new    " points="773.2,577.5 773.2,573.2 789.9,563.6 789.9,567.9 		"/>
	</defs>
	<use xlink:href="#SVGID_39_"  overflow="visible" fill="#F8F6F3"/>
	<clipPath id="SVGID_60_">
		<use xlink:href="#SVGID_39_"  overflow="visible"/>
	</clipPath>
	<polyline clip-path="url(#SVGID_60_)" fill="#F8F6F3" points="789.9,563.6 773.2,573.2 773.2,577.5 789.9,567.9 789.9,563.6 	"/>
</g>
<g enable-background="new    ">
	<defs>
		<polygon id="SVGID_38_" enable-background="new    " points="773.2,582.5 773.2,578.2 789.9,568.6 789.9,572.9 		"/>
	</defs>
	<use xlink:href="#SVGID_38_"  overflow="visible" fill="#F8F6F3"/>
	<clipPath id="SVGID_61_">
		<use xlink:href="#SVGID_38_"  overflow="visible"/>
	</clipPath>
	<polyline clip-path="url(#SVGID_61_)" fill="#F8F6F3" points="789.9,568.6 773.2,578.2 773.2,582.5 789.9,572.9 789.9,568.6 	"/>
</g>
<g enable-background="new    ">
	<defs>
		<polygon id="SVGID_37_" enable-background="new    " points="773.2,587.5 773.2,583.2 789.9,573.6 789.9,577.9 		"/>
	</defs>
	<use xlink:href="#SVGID_37_"  overflow="visible" fill="#F8F6F3"/>
	<clipPath id="SVGID_62_">
		<use xlink:href="#SVGID_37_"  overflow="visible"/>
	</clipPath>
	<polyline clip-path="url(#SVGID_62_)" fill="#F8F6F3" points="789.9,573.6 773.2,583.2 773.2,587.5 789.9,577.9 789.9,573.6 	"/>
</g>
<g enable-background="new    ">
	<defs>
		<polygon id="SVGID_36_" enable-background="new    " points="773.2,592.5 773.2,588.2 789.9,578.6 789.9,582.9 		"/>
	</defs>
	<use xlink:href="#SVGID_36_"  overflow="visible" fill="#F8F6F3"/>
	<clipPath id="SVGID_63_">
		<use xlink:href="#SVGID_36_"  overflow="visible"/>
	</clipPath>
	<polyline clip-path="url(#SVGID_63_)" fill="#F8F6F3" points="789.9,578.6 773.2,588.2 773.2,592.5 789.9,582.9 789.9,578.6 	"/>
</g>
<g enable-background="new    ">
	<defs>
		<polygon id="SVGID_34_" enable-background="new    " points="773.2,597.5 773.2,593.2 789.9,583.6 789.9,587.9 		"/>
	</defs>
	<use xlink:href="#SVGID_34_"  overflow="visible" fill="#F8F6F3"/>
	<clipPath id="SVGID_64_">
		<use xlink:href="#SVGID_34_"  overflow="visible"/>
	</clipPath>
	<polyline clip-path="url(#SVGID_64_)" fill="#F8F6F3" points="789.9,583.6 773.2,593.2 773.2,597.5 789.9,587.9 789.9,583.6 	"/>
</g>
<path fill="#9B9B9B" d="M729,550.6l-0.1,37.5c0,1-0.6,1.9-1.9,2.6c-2.5,1.5-6.6,1.5-9.1,0c-1.3-0.7-1.9-1.7-1.9-2.7l0.1-37.5
	c0,1,0.6,1.9,1.9,2.7c2.5,1.5,6.6,1.5,9.1,0C728.4,552.5,729,551.5,729,550.6z"/>
<path fill="#9B9B9B" d="M727.1,547.9c2.5,1.5,2.5,3.8,0,5.3c-2.5,1.5-6.6,1.5-9.1,0c-2.5-1.5-2.5-3.8,0-5.3
	C720.5,546.4,724.5,546.4,727.1,547.9z"/>
<path fill="#393A3A" d="M727,553.2c-0.9,0.5-2,0.8-3.1,1l0,17l0,0v20.5c1.1-0.2,2.2-0.5,3.1-1c1.3-0.7,1.9-1.7,1.9-2.6l0.1-37.5
	C728.9,551.5,728.3,552.5,727,553.2z"/>
<path fill="#393A3A" d="M728.9,557.4L728.9,557.4c0,1-0.6,1.9-1.9,2.6c-2.5,1.5-6.6,1.5-9.1,0c-1.3-0.7-1.9-1.7-1.9-2.6v1.3
	c0.3,0.5,0.9,1.1,1.6,1.5c2.7,1.5,7,1.5,9.7,0c0.7-0.4,1.3-0.9,1.6-1.5V557.4z"/>
<path fill="#393A3A" d="M728.9,563.4L728.9,563.4c0,1-0.6,1.9-1.9,2.6c-2.5,1.5-6.6,1.5-9.1,0c-1.3-0.7-1.9-1.7-1.9-2.6v1.3
	c0.3,0.5,0.9,1.1,1.6,1.5c2.7,1.5,7,1.5,9.7,0c0.7-0.4,1.3-0.9,1.6-1.5V563.4z"/>
<path fill="#393A3A" d="M728.9,569.4L728.9,569.4c0,1-0.6,1.9-1.9,2.6c-2.5,1.5-6.6,1.5-9.1,0c-1.3-0.7-1.9-1.7-1.9-2.6v1.3
	c0.3,0.5,0.9,1.1,1.6,1.5c2.7,1.5,7,1.5,9.7,0c0.7-0.4,1.3-0.9,1.6-1.5V569.4z"/>
<path fill="#393A3A" d="M728.9,575.4L728.9,575.4c0,1-0.6,1.9-1.9,2.6c-2.5,1.5-6.6,1.5-9.1,0c-1.3-0.7-1.9-1.7-1.9-2.6v1.3
	c0.3,0.5,0.9,1.1,1.6,1.5c2.7,1.5,7,1.5,9.7,0c0.7-0.4,1.3-0.9,1.6-1.5V575.4z"/>
<path fill="#393A3A" d="M728.9,581.4L728.9,581.4c0,1-0.6,1.9-1.9,2.6c-2.5,1.5-6.6,1.5-9.1,0c-1.3-0.7-1.9-1.7-1.9-2.6v1.3
	c0.3,0.5,0.9,1.1,1.6,1.5c2.7,1.5,7,1.5,9.7,0c0.7-0.4,1.3-0.9,1.6-1.5V581.4z"/>
<path fill="#9B9B9B" d="M740,556.6l-0.1,37.5c0,1-0.6,1.9-1.9,2.6c-2.5,1.5-6.6,1.5-9.1,0c-1.3-0.7-1.9-1.7-1.9-2.7l0.1-37.5
	c0,1,0.6,1.9,1.9,2.7c2.5,1.5,6.6,1.5,9.1,0C739.4,558.5,740,557.5,740,556.6z"/>
<path fill="#9B9B9B" d="M738.1,553.9c2.5,1.5,2.5,3.8,0,5.3c-2.5,1.5-6.6,1.5-9.1,0c-2.5-1.5-2.5-3.8,0-5.3
	C731.4,552.4,735.5,552.4,738.1,553.9z"/>
<path fill="#393A3A" d="M738,559.2c-0.9,0.5-2,0.8-3.1,1l0,17l0,0v20.5c1.1-0.2,2.2-0.5,3.1-1c1.3-0.7,1.9-1.7,1.9-2.6l0.1-37.5
	C739.9,557.5,739.3,558.5,738,559.2z"/>
<path fill="#393A3A" d="M739.9,563.4L739.9,563.4c0,1-0.6,1.9-1.9,2.6c-2.5,1.5-6.6,1.5-9.1,0c-1.3-0.7-1.9-1.7-1.9-2.6v1.3
	c0.3,0.5,0.9,1.1,1.6,1.5c2.7,1.5,7,1.5,9.7,0c0.7-0.4,1.3-0.9,1.6-1.5V563.4z"/>
<path fill="#393A3A" d="M739.9,569.4L739.9,569.4c0,1-0.6,1.9-1.9,2.6c-2.5,1.5-6.6,1.5-9.1,0c-1.3-0.7-1.9-1.7-1.9-2.6v1.3
	c0.3,0.5,0.9,1.1,1.6,1.5c2.7,1.5,7,1.5,9.7,0c0.7-0.4,1.3-0.9,1.6-1.5V569.4z"/>
<path fill="#393A3A" d="M739.9,575.4L739.9,575.4c0,1-0.6,1.9-1.9,2.6c-2.5,1.5-6.6,1.5-9.1,0c-1.3-0.7-1.9-1.7-1.9-2.6v1.3
	c0.3,0.5,0.9,1.1,1.6,1.5c2.7,1.5,7,1.5,9.7,0c0.7-0.4,1.3-0.9,1.6-1.5V575.4z"/>
<path fill="#393A3A" d="M739.9,581.4L739.9,581.4c0,1-0.6,1.9-1.9,2.6c-2.5,1.5-6.6,1.5-9.1,0c-1.3-0.7-1.9-1.7-1.9-2.6v1.3
	c0.3,0.5,0.9,1.1,1.6,1.5c2.7,1.5,7,1.5,9.7,0c0.7-0.4,1.3-0.9,1.6-1.5V581.4z"/>
<path fill="#393A3A" d="M739.9,587.4L739.9,587.4c0,1-0.6,1.9-1.9,2.6c-2.5,1.5-6.6,1.5-9.1,0c-1.3-0.7-1.9-1.7-1.9-2.6v1.3
	c0.3,0.5,0.9,1.1,1.6,1.5c2.7,1.5,7,1.5,9.7,0c0.7-0.4,1.3-0.9,1.6-1.5V587.4z"/>
<path fill="#9B9B9B" d="M752,562.6l-0.1,37.5c0,1-0.6,1.9-1.9,2.6c-2.5,1.5-6.6,1.5-9.1,0c-1.3-0.7-1.9-1.7-1.9-2.7l0.1-37.5
	c0,1,0.6,1.9,1.9,2.7c2.5,1.5,6.6,1.5,9.1,0C751.4,564.5,752,563.5,752,562.6z"/>
<path fill="#9B9B9B" d="M750.1,559.9c2.5,1.5,2.5,3.8,0,5.3c-2.5,1.5-6.6,1.5-9.1,0c-2.5-1.5-2.5-3.8,0-5.3
	C743.4,558.4,747.5,558.4,750.1,559.9z"/>
<path fill="#393A3A" d="M750,565.2c-0.9,0.5-2,0.8-3.1,1l0,17l0,0v20.5c1.1-0.2,2.2-0.5,3.1-1c1.3-0.7,1.9-1.7,1.9-2.6l0.1-37.5
	C751.9,563.5,751.3,564.5,750,565.2z"/>
<path fill="#212121" d="M751.9,569.3L751.9,569.3c0,1-0.6,1.9-1.9,2.6c-2.5,1.5-6.6,1.5-9.1,0c-1.3-0.7-1.9-1.7-1.9-2.6v1.3
	c0.3,0.5,0.9,1.1,1.6,1.5c2.7,1.5,7,1.5,9.7,0c0.7-0.4,1.3-0.9,1.6-1.5V569.3z"/>
<path fill="#212121" d="M751.9,575.3L751.9,575.3c0,1-0.6,1.9-1.9,2.6c-2.5,1.5-6.6,1.5-9.1,0c-1.3-0.7-1.9-1.7-1.9-2.6v1.3
	c0.3,0.5,0.9,1.1,1.6,1.5c2.7,1.5,7,1.5,9.7,0c0.7-0.4,1.3-0.9,1.6-1.5V575.3z"/>
<path fill="#212121" d="M751.9,581.3L751.9,581.3c0,1-0.6,1.9-1.9,2.6c-2.5,1.5-6.6,1.5-9.1,0c-1.3-0.7-1.9-1.7-1.9-2.6v1.3
	c0.3,0.5,0.9,1.1,1.6,1.5c2.7,1.5,7,1.5,9.7,0c0.7-0.4,1.3-0.9,1.6-1.5V581.3z"/>
<path fill="#212121" d="M751.9,587.3L751.9,587.3c0,1-0.6,1.9-1.9,2.6c-2.5,1.5-6.6,1.5-9.1,0c-1.3-0.7-1.9-1.7-1.9-2.6v1.3
	c0.3,0.5,0.9,1.1,1.6,1.5c2.7,1.5,7,1.5,9.7,0c0.7-0.4,1.3-0.9,1.6-1.5V587.3z"/>
<path fill="#212121" d="M751.9,593.3L751.9,593.3c0,1-0.6,1.9-1.9,2.6c-2.5,1.5-6.6,1.5-9.1,0c-1.3-0.7-1.9-1.7-1.9-2.6v1.3
	c0.3,0.5,0.9,1.1,1.6,1.5c2.7,1.5,7,1.5,9.7,0c0.7-0.4,1.3-0.9,1.6-1.5V593.3z"/>
<polygon fill="#C8E5EE" points="832.1,618 815.1,627.9 810.8,625.4 827.8,615.5 "/>
<polygon fill="#2A3838" points="832.1,618 832.1,623.7 815.1,633.6 815.1,627.9 "/>
<polygon fill="#A9C4C2" points="815.1,627.9 815.1,633.6 810.8,631.1 810.8,625.4 "/>
<polygon fill="#ADADAD" points="832.1,612.3 815.1,622.2 810.8,619.7 827.8,609.8 "/>
<polygon fill="#848484" points="832.1,612.3 832.1,618 815.1,627.9 815.1,622.2 "/>
<polygon fill="#D3DDDB" points="815.1,622.2 815.1,627.9 810.8,625.4 810.8,619.7 "/>
<polygon fill="#FFE0A4" points="839,622 822.1,631.9 817.8,629.4 834.7,619.5 "/>
<polygon fill="#848484" points="839,622 839,627.7 822.1,637.6 822.1,631.9 "/>
<polygon fill="#CECECE" points="822.1,631.9 822.1,637.6 817.8,635.1 817.8,629.4 "/>
<polygon fill="#F8B9AA" points="839.1,616.5 822.1,626.4 817.8,623.9 834.7,614 "/>
<polygon fill="#5B4343" points="839.1,616.5 839.1,622.2 822.1,632.1 822.1,626.4 "/>
<polygon fill="#CEB2B2" points="822.1,626.4 822.1,632.1 817.8,629.6 817.8,623.9 "/>
<polygon fill="#ADADAD" points="839.1,610.8 822.1,620.7 817.8,618.2 834.7,608.3 "/>
<polygon fill="#848484" points="839.1,610.8 839.1,616.5 822.1,626.4 822.1,620.7 "/>
<polygon fill="#D3DDDB" points="822.1,620.7 822.1,626.4 817.8,623.9 817.8,618.2 "/>
<polygon fill="#FFE0A4" points="855.4,631.9 838.5,641.8 834.1,639.3 851.1,629.4 "/>
<polygon fill="#848484" points="855.4,631.9 855.4,637.6 838.4,647.5 838.5,641.8 "/>
<polygon fill="#D3D1D1" points="838.5,641.8 838.4,647.5 834.1,645 834.1,639.3 "/>
<polygon fill="#AA8888" points="855.4,626.7 838.5,636.6 834.2,634.1 851.1,624.2 "/>
<polygon fill="#5B4343" points="855.4,626.7 855.4,632.4 838.5,642.3 838.5,636.6 "/>
<polygon fill="#CEB2B2" points="838.5,636.6 838.5,642.3 834.1,639.8 834.2,634.1 "/>
<polygon fill="#C8E5EE" points="864.2,637.2 847.2,647 842.9,644.5 859.9,634.7 "/>
<polygon fill="#2A3838" points="864.2,637.2 864.2,642.9 847.2,652.7 847.2,647 "/>
<g>
	<polygon fill="#A9C4C2" points="847.2,647 847.2,652.7 842.9,650.2 842.9,644.5 	"/>
</g>
<polygon fill="#ADADAD" points="864.2,631.5 847.3,641.3 843,638.8 859.9,629 "/>
<polygon fill="#848484" points="864.2,631.5 864.2,637.2 847.3,647 847.3,641.3 "/>
<polygon fill="#D3DDDB" points="847.3,641.3 847.3,647 842.9,644.6 843,638.8 "/>
<g enable-background="new    ">
	<defs>
		<path id="SVGID_32_" enable-background="new    " d="M807.4,477.8l11.3-6.6c-0.4,0.2-0.7,0.8-0.7,1.5c0,1.5,1,3.2,2.3,4l-11.3,6.6
			c-1.3-0.7-2.3-2.5-2.3-4C806.7,478.6,807,478.1,807.4,477.8z"/>
	</defs>
	<clipPath id="SVGID_65_">
		<use xlink:href="#SVGID_32_"  overflow="visible"/>
	</clipPath>
	<path clip-path="url(#SVGID_65_)" fill="#B4DCE8" d="M807.4,477.8l11.3-6.6c-0.4,0.2-0.7,0.8-0.7,1.5c0,0.9,0.4,1.9,1,2.8
		l-11.3,6.6c-0.6-0.8-1-1.9-1-2.8C806.7,478.6,807,478.1,807.4,477.8"/>
	<path clip-path="url(#SVGID_65_)" fill="#BDE0EA" d="M807.7,482.1l11.3-6.6c0.3,0.4,0.7,0.8,1,1l-11.3,6.6
		C808.4,482.8,808,482.5,807.7,482.1"/>
	<path clip-path="url(#SVGID_65_)" fill="#C5E4ED" d="M808.7,483.1l11.3-6.6c0.1,0.1,0.2,0.1,0.3,0.2l-11.3,6.6
		C808.9,483.2,808.8,483.2,808.7,483.1"/>
</g>
<g enable-background="new    ">
	<defs>
		<path id="SVGID_30_" enable-background="new    " d="M821.9,476.9l-11.3,6.6c-0.4,0.2-1,0.2-1.6-0.2l11.3-6.6
			C820.9,477.1,821.5,477.1,821.9,476.9z"/>
	</defs>
	<clipPath id="SVGID_66_">
		<use xlink:href="#SVGID_30_"  overflow="visible"/>
	</clipPath>
	<path clip-path="url(#SVGID_66_)" fill="#C5E4ED" d="M809,483.3l11.3-6.6c0.5,0.3,0.9,0.4,1.3,0.3l-11.3,6.6
		C810,483.7,809.5,483.6,809,483.3"/>
	<path clip-path="url(#SVGID_66_)" fill="#BDE0EA" d="M810.3,483.6l11.3-6.6c0.1,0,0.2-0.1,0.3-0.1l-11.3,6.6
		C810.6,483.5,810.5,483.5,810.3,483.6"/>
</g>
<g enable-background="new    ">
	<defs>
		<path id="SVGID_28_" enable-background="new    " d="M807.1,477.4l11.3-6.6c0.5-0.3,1.2-0.2,1.9,0.2l-11.3,6.6
			C808.3,477.2,807.6,477.1,807.1,477.4z"/>
	</defs>
	<clipPath id="SVGID_67_">
		<use xlink:href="#SVGID_28_"  overflow="visible"/>
	</clipPath>
	<path clip-path="url(#SVGID_67_)" fill="#BDE0EA" d="M807.1,477.4l11.3-6.6c0.1-0.1,0.2-0.1,0.4-0.1l-11.3,6.6
		C807.4,477.3,807.3,477.3,807.1,477.4"/>
	<path clip-path="url(#SVGID_67_)" fill="#C5E4ED" d="M807.5,477.3l11.3-6.6c0.4-0.1,1,0,1.5,0.3l-11.3,6.6
		C808.5,477.3,807.9,477.2,807.5,477.3"/>
</g>
<g enable-background="new    ">
	<defs>
		<path id="SVGID_26_" enable-background="new    " d="M822.2,477.3l-11.3,6.6c0.5-0.3,0.8-0.9,0.8-1.7c0-1.7-1.2-3.7-2.7-4.6
			l11.3-6.6c1.5,0.8,2.7,2.9,2.7,4.6C823,476.5,822.7,477.1,822.2,477.3z"/>
	</defs>
	<clipPath id="SVGID_68_">
		<use xlink:href="#SVGID_26_"  overflow="visible"/>
	</clipPath>
	<path clip-path="url(#SVGID_68_)" fill="#C5E4ED" d="M809,477.6l11.3-6.6c0.1,0.1,0.2,0.1,0.3,0.2l-11.3,6.6
		C809.2,477.7,809.1,477.7,809,477.6"/>
	<path clip-path="url(#SVGID_68_)" fill="#BDE0EA" d="M809.4,477.8l11.3-6.6c0.4,0.3,0.8,0.7,1.2,1.2l-11.3,6.6
		C810.2,478.5,809.8,478.1,809.4,477.8"/>
	<path clip-path="url(#SVGID_68_)" fill="#B4DCE8" d="M810.5,479l11.3-6.6c0.7,1,1.1,2.1,1.1,3.2c0,0.8-0.3,1.4-0.8,1.7l-11.3,6.6
		c0.5-0.3,0.8-0.9,0.8-1.7C811.7,481.1,811.2,480,810.5,479"/>
</g>
<path fill="#F1F8FA" d="M809,477.6c1.5,0.8,2.7,2.9,2.7,4.6c0,1.7-1.2,2.4-2.7,1.5c-1.5-0.8-2.7-2.9-2.6-4.6
	C806.4,477.4,807.6,476.7,809,477.6z M809,483.3c1.3,0.7,2.3,0.1,2.3-1.3c0-1.5-1-3.2-2.3-4c-1.3-0.7-2.3-0.1-2.3,1.3
	C806.7,480.8,807.7,482.6,809,483.3"/>
<g enable-background="new    ">
	<defs>
		<path id="SVGID_24_" enable-background="new    " d="M812.9,481.3l11.3-6.6c-0.4,0.2-0.7,0.8-0.7,1.5c0,1.5,1,3.2,2.3,4l-11.3,6.6
			c-1.3-0.7-2.3-2.5-2.3-4C812.2,482.1,812.5,481.6,812.9,481.3z"/>
	</defs>
	<clipPath id="SVGID_69_">
		<use xlink:href="#SVGID_24_"  overflow="visible"/>
	</clipPath>
	<path clip-path="url(#SVGID_69_)" fill="#B4DCE8" d="M812.9,481.3l11.3-6.6c-0.4,0.2-0.7,0.8-0.7,1.5c0,0.9,0.4,1.9,1,2.8
		l-11.3,6.6c-0.6-0.8-1-1.9-1-2.8C812.2,482.1,812.5,481.6,812.9,481.3"/>
	<path clip-path="url(#SVGID_69_)" fill="#BDE0EA" d="M813.2,485.6l11.3-6.6c0.3,0.4,0.7,0.8,1,1l-11.3,6.6
		C813.9,486.3,813.5,486,813.2,485.6"/>
	<path clip-path="url(#SVGID_69_)" fill="#C5E4ED" d="M814.2,486.6l11.3-6.6c0.1,0.1,0.2,0.1,0.3,0.2l-11.3,6.6
		C814.4,486.7,814.3,486.7,814.2,486.6"/>
</g>
<g enable-background="new    ">
	<defs>
		<path id="SVGID_23_" enable-background="new    " d="M827.4,480.4l-11.3,6.6c-0.4,0.2-1,0.2-1.6-0.2l11.3-6.6
			C826.4,480.6,827,480.6,827.4,480.4z"/>
	</defs>
	<clipPath id="SVGID_70_">
		<use xlink:href="#SVGID_23_"  overflow="visible"/>
	</clipPath>
	<path clip-path="url(#SVGID_70_)" fill="#C5E4ED" d="M814.5,486.8l11.3-6.6c0.5,0.3,0.9,0.4,1.3,0.3l-11.3,6.6
		C815.4,487.2,815,487.1,814.5,486.8"/>
	<path clip-path="url(#SVGID_70_)" fill="#BDE0EA" d="M815.8,487.1l11.3-6.6c0.1,0,0.2-0.1,0.3-0.1l-11.3,6.6
		C816,487,815.9,487.1,815.8,487.1"/>
</g>
<g enable-background="new    ">
	<defs>
		<path id="SVGID_22_" enable-background="new    " d="M812.6,480.9l11.3-6.6c0.5-0.3,1.2-0.2,1.9,0.2l-11.3,6.6
			C813.8,480.7,813.1,480.6,812.6,480.9z"/>
	</defs>
	<clipPath id="SVGID_71_">
		<use xlink:href="#SVGID_22_"  overflow="visible"/>
	</clipPath>
	<path clip-path="url(#SVGID_71_)" fill="#BDE0EA" d="M812.6,480.9l11.3-6.6c0.1-0.1,0.2-0.1,0.4-0.1l-11.3,6.6
		C812.9,480.8,812.7,480.8,812.6,480.9"/>
	<path clip-path="url(#SVGID_71_)" fill="#C5E4ED" d="M813,480.8l11.3-6.6c0.4-0.1,1,0,1.5,0.3l-11.3,6.6
		C814,480.8,813.4,480.7,813,480.8"/>
</g>
<g enable-background="new    ">
	<defs>
		<path id="SVGID_21_" enable-background="new    " d="M827.7,480.8l-11.3,6.6c0.5-0.3,0.8-0.9,0.8-1.7c0-1.7-1.2-3.7-2.7-4.6
			l11.3-6.6c1.5,0.8,2.7,2.9,2.7,4.6C828.5,480,828.2,480.6,827.7,480.8z"/>
	</defs>
	<clipPath id="SVGID_72_">
		<use xlink:href="#SVGID_21_"  overflow="visible"/>
	</clipPath>
	<path clip-path="url(#SVGID_72_)" fill="#C5E4ED" d="M814.5,481.1l11.3-6.6c0.1,0.1,0.2,0.1,0.3,0.2l-11.3,6.6
		C814.7,481.2,814.6,481.1,814.5,481.1"/>
	<path clip-path="url(#SVGID_72_)" fill="#BDE0EA" d="M814.8,481.3l11.3-6.6c0.4,0.3,0.8,0.7,1.2,1.2l-11.3,6.6
		C815.7,482,815.3,481.6,814.8,481.3"/>
	<path clip-path="url(#SVGID_72_)" fill="#B4DCE8" d="M816,482.5l11.3-6.6c0.7,1,1.1,2.1,1.1,3.2c0,0.8-0.3,1.4-0.8,1.7l-11.3,6.6
		c0.5-0.3,0.8-0.9,0.8-1.7C817.2,484.6,816.7,483.5,816,482.5"/>
</g>
<path fill="#F1F8FA" d="M814.5,481.1c1.5,0.8,2.7,2.9,2.7,4.6c0,1.7-1.2,2.4-2.7,1.5c-1.5-0.8-2.7-2.9-2.7-4.6
	C811.9,480.9,813.1,480.2,814.5,481.1z M814.5,486.8c1.3,0.7,2.3,0.1,2.3-1.3c0-1.5-1-3.2-2.3-4s-2.3-0.1-2.3,1.3
	C812.2,484.3,813.2,486.1,814.5,486.8"/>
<g enable-background="new    ">
	<defs>
		<path id="SVGID_20_" enable-background="new    " d="M818.5,485.2l11.3-6.6c-0.4,0.2-0.7,0.8-0.7,1.5c0,1.5,1,3.2,2.3,4l-11.3,6.6
			c-1.3-0.7-2.3-2.5-2.3-4C817.8,486,818.1,485.5,818.5,485.2z"/>
	</defs>
	<clipPath id="SVGID_73_">
		<use xlink:href="#SVGID_20_"  overflow="visible"/>
	</clipPath>
	<path clip-path="url(#SVGID_73_)" fill="#B4DCE8" d="M818.5,485.2l11.3-6.6c-0.4,0.2-0.7,0.8-0.7,1.5c0,0.9,0.4,1.9,1,2.8
		l-11.3,6.6c-0.6-0.8-1-1.9-1-2.8C817.8,486,818.1,485.5,818.5,485.2"/>
	<path clip-path="url(#SVGID_73_)" fill="#BDE0EA" d="M818.8,489.5l11.3-6.6c0.3,0.4,0.7,0.8,1,1l-11.3,6.6
		C819.5,490.2,819.1,489.9,818.8,489.5"/>
	<path clip-path="url(#SVGID_73_)" fill="#C5E4ED" d="M819.8,490.5l11.3-6.6c0.1,0.1,0.2,0.1,0.3,0.2l-11.3,6.6
		C820,490.6,819.9,490.6,819.8,490.5"/>
</g>
<g enable-background="new    ">
	<defs>
		<path id="SVGID_19_" enable-background="new    " d="M833,484.3l-11.3,6.6c-0.4,0.2-1,0.2-1.6-0.2l11.3-6.6
			C832,484.5,832.6,484.5,833,484.3z"/>
	</defs>
	<clipPath id="SVGID_74_">
		<use xlink:href="#SVGID_19_"  overflow="visible"/>
	</clipPath>
	<path clip-path="url(#SVGID_74_)" fill="#C5E4ED" d="M820.1,490.7l11.3-6.6c0.5,0.3,0.9,0.4,1.3,0.3l-11.3,6.6
		C821.1,491.1,820.6,491,820.1,490.7"/>
	<path clip-path="url(#SVGID_74_)" fill="#BDE0EA" d="M821.4,491l11.3-6.6c0.1,0,0.2-0.1,0.3-0.1l-11.3,6.6
		C821.7,490.9,821.5,490.9,821.4,491"/>
</g>
<g enable-background="new    ">
	<defs>
		<path id="SVGID_18_" enable-background="new    " d="M818.2,484.8l11.3-6.6c0.5-0.3,1.2-0.2,1.9,0.2l-11.3,6.6
			C819.4,484.6,818.7,484.5,818.2,484.8z"/>
	</defs>
	<clipPath id="SVGID_75_">
		<use xlink:href="#SVGID_18_"  overflow="visible"/>
	</clipPath>
	<path clip-path="url(#SVGID_75_)" fill="#BDE0EA" d="M818.2,484.8l11.3-6.6c0.1-0.1,0.2-0.1,0.4-0.1l-11.3,6.6
		C818.5,484.7,818.3,484.7,818.2,484.8"/>
	<path clip-path="url(#SVGID_75_)" fill="#C5E4ED" d="M818.6,484.7l11.3-6.6c0.4-0.1,1,0,1.5,0.3l-11.3,6.6
		C819.6,484.7,819,484.6,818.6,484.7"/>
</g>
<g enable-background="new    ">
	<defs>
		<path id="SVGID_17_" enable-background="new    " d="M833.3,484.7l-11.3,6.6c0.5-0.3,0.8-0.9,0.8-1.7c0-1.7-1.2-3.7-2.7-4.6
			l11.3-6.6c1.5,0.8,2.7,2.9,2.7,4.6C834.1,483.9,833.8,484.5,833.3,484.7z"/>
	</defs>
	<clipPath id="SVGID_76_">
		<use xlink:href="#SVGID_17_"  overflow="visible"/>
	</clipPath>
	<path clip-path="url(#SVGID_76_)" fill="#C5E4ED" d="M820.1,485l11.3-6.6c0.1,0.1,0.2,0.1,0.3,0.2l-11.3,6.6
		C820.3,485.1,820.2,485.1,820.1,485"/>
	<path clip-path="url(#SVGID_76_)" fill="#BDE0EA" d="M820.4,485.2l11.3-6.6c0.4,0.3,0.8,0.7,1.2,1.2l-11.3,6.6
		C821.3,485.9,820.9,485.5,820.4,485.2"/>
	<path clip-path="url(#SVGID_76_)" fill="#B4DCE8" d="M821.6,486.4l11.3-6.6c0.7,1,1.1,2.1,1.1,3.2c0,0.8-0.3,1.4-0.8,1.7l-11.3,6.6
		c0.5-0.3,0.8-0.9,0.8-1.7C822.8,488.5,822.3,487.4,821.6,486.4"/>
</g>
<path fill="#F1F8FA" d="M820.1,485c1.5,0.8,2.7,2.9,2.7,4.6c0,1.7-1.2,2.4-2.7,1.5c-1.5-0.8-2.7-2.9-2.7-4.6
	C817.5,484.8,818.7,484.1,820.1,485z M820.1,490.7c1.3,0.7,2.3,0.1,2.3-1.3c0-1.5-1-3.2-2.3-4s-2.3-0.1-2.3,1.3
	C817.8,488.2,818.8,490,820.1,490.7"/>
<g enable-background="new    ">
	<defs>
		<path id="SVGID_16_" enable-background="new    " d="M830.7,477.2l-11.1,6.9c-0.4,0.3-1,0.2-1.6-0.1l11.1-6.9
			C829.7,477.4,830.3,477.5,830.7,477.2z"/>
	</defs>
	<clipPath id="SVGID_77_">
		<use xlink:href="#SVGID_16_"  overflow="visible"/>
	</clipPath>
	<path clip-path="url(#SVGID_77_)" fill="#C5E4ED" d="M818,484l11.1-6.9c0.5,0.3,1,0.3,1.3,0.2l-11.1,6.9
		C819,484.3,818.5,484.3,818,484"/>
	<path clip-path="url(#SVGID_77_)" fill="#BDE0EA" d="M819.4,484.2l11.1-6.9c0.1,0,0.2-0.1,0.3-0.1l-11.1,6.9
		C819.6,484.2,819.5,484.2,819.4,484.2"/>
</g>
<g enable-background="new    ">
	<defs>
		<path id="SVGID_14_" enable-background="new    " d="M816.2,478.6l11.1-6.9c-0.4,0.3-0.6,0.8-0.6,1.5c0,1.5,1.1,3.2,2.4,3.9
			L818,484c-1.3-0.7-2.4-2.4-2.4-3.9C815.6,479.4,815.8,478.9,816.2,478.6z"/>
	</defs>
	<clipPath id="SVGID_78_">
		<use xlink:href="#SVGID_14_"  overflow="visible"/>
	</clipPath>
	<path clip-path="url(#SVGID_78_)" fill="#B4DCE8" d="M816.2,478.6l11.1-6.9c-0.4,0.3-0.6,0.8-0.6,1.5c0,0.9,0.5,1.9,1.1,2.7
		l-11.1,6.9c-0.6-0.8-1.1-1.8-1.1-2.7C815.6,479.4,815.8,478.9,816.2,478.6"/>
	<path clip-path="url(#SVGID_78_)" fill="#BDE0EA" d="M816.7,482.8l11.1-6.9c0.3,0.4,0.7,0.8,1.1,1l-11.1,6.9
		C817.4,483.6,817,483.2,816.7,482.8"/>
	<path clip-path="url(#SVGID_78_)" fill="#C5E4ED" d="M817.7,483.8l11.1-6.9c0.1,0.1,0.2,0.1,0.3,0.2L818,484
		C817.9,483.9,817.8,483.9,817.7,483.8"/>
</g>
<g enable-background="new    ">
	<defs>
		<path id="SVGID_12_" enable-background="new    " d="M816,478.2l11.1-6.9c0.5-0.3,1.1-0.3,1.9,0.1l-11.1,6.9
			C817.1,477.9,816.4,477.9,816,478.2z"/>
	</defs>
	<clipPath id="SVGID_79_">
		<use xlink:href="#SVGID_12_"  overflow="visible"/>
	</clipPath>
	<path clip-path="url(#SVGID_79_)" fill="#BDE0EA" d="M816,478.2l11.1-6.9c0.1-0.1,0.2-0.1,0.4-0.2l-11.1,6.9
		C816.2,478,816.1,478.1,816,478.2"/>
	<path clip-path="url(#SVGID_79_)" fill="#C5E4ED" d="M816.3,478l11.1-6.9c0.4-0.1,1,0,1.5,0.3l-11.1,6.9
		C817.3,478,816.8,477.9,816.3,478"/>
</g>
<g enable-background="new    ">
	<defs>
		<path id="SVGID_10_" enable-background="new    " d="M831,477.6l-11.1,6.9c0.5-0.3,0.7-0.9,0.7-1.7c0-1.7-1.3-3.7-2.8-4.5
			l11.1-6.9c1.5,0.8,2.7,2.8,2.8,4.5C831.7,476.7,831.5,477.3,831,477.6z"/>
	</defs>
	<clipPath id="SVGID_80_">
		<use xlink:href="#SVGID_10_"  overflow="visible"/>
	</clipPath>
	<path clip-path="url(#SVGID_80_)" fill="#C5E4ED" d="M817.9,478.3l11.1-6.9c0.1,0.1,0.2,0.1,0.3,0.2l-11.1,6.9
		C818.1,478.4,818,478.4,817.9,478.3"/>
	<path clip-path="url(#SVGID_80_)" fill="#BDE0EA" d="M818.2,478.5l11.1-6.9c0.4,0.3,0.9,0.7,1.2,1.2l-11.1,6.9
		C819,479.2,818.6,478.8,818.2,478.5"/>
	<path clip-path="url(#SVGID_80_)" fill="#B4DCE8" d="M819.4,479.7l11.1-6.9c0.7,0.9,1.2,2.1,1.2,3.1c0,0.8-0.3,1.4-0.7,1.7
		l-11.1,6.9c0.5-0.3,0.7-0.9,0.7-1.7C820.6,481.8,820.1,480.6,819.4,479.7"/>
</g>
<path fill="#F1F8FA" d="M817.9,478.3c1.5,0.8,2.7,2.8,2.8,4.5c0,1.7-1.1,2.4-2.6,1.6c-1.5-0.8-2.8-2.8-2.8-4.5
	C815.2,478.2,816.4,477.5,817.9,478.3z M818,484c1.3,0.7,2.3,0.1,2.3-1.4c0-1.5-1.1-3.2-2.4-3.9c-1.3-0.7-2.3-0.1-2.3,1.4
	C815.6,481.6,816.7,483.3,818,484"/>
<polygon fill="#F6A28F" points="887.6,538.4 887.5,571 864.4,584.4 864.5,551.8 "/>
<polygon fill="#E5E5E5" points="864.5,551.8 864.4,584.4 842.3,571.6 842.3,539 "/>
<polygon fill="#AA8888" points="976.9,558.8 950,574.4 887.6,538.4 864.5,551.8 842.3,539 892.3,510 914.4,522.8 "/>
<polygon fill="#5B4343" points="976.9,558.8 976.8,591.4 949.9,607 950,574.4 "/>
<polygon fill="#E5E5E5" points="950,574.4 949.9,607 887.5,571 887.6,538.4 "/>
<g enable-background="new    ">
	<defs>
		<polygon id="SVGID_81_" enable-background="new    " points="845.8,553.4 845.8,547.6 848.7,549.2 848.6,555.1 		"/>
	</defs>
	<use xlink:href="#SVGID_81_"  overflow="visible" fill="#848484"/>
	<clipPath id="SVGID_82_">
		<use xlink:href="#SVGID_81_"  overflow="visible"/>
	</clipPath>
	<polyline clip-path="url(#SVGID_82_)" fill="#848484" points="848.7,549.2 845.8,547.6 845.8,553.4 848.6,555.1 848.7,549.2 	"/>
</g>
<g enable-background="new    ">
	<defs>
		<polygon id="SVGID_83_" enable-background="new    " points="849.2,555.4 849.2,549.5 852,551.2 852,557 		"/>
	</defs>
	<use xlink:href="#SVGID_83_"  overflow="visible" fill="#848484"/>
	<clipPath id="SVGID_84_">
		<use xlink:href="#SVGID_83_"  overflow="visible"/>
	</clipPath>
	<polyline clip-path="url(#SVGID_84_)" fill="#848484" points="852,551.2 849.2,549.5 849.2,555.4 852,557 852,551.2 	"/>
</g>
<g enable-background="new    ">
	<defs>
		<polygon id="SVGID_85_" enable-background="new    " points="852.6,557.3 852.6,551.5 855.4,553.1 855.4,559 		"/>
	</defs>
	<use xlink:href="#SVGID_85_"  overflow="visible" fill="#848484"/>
	<clipPath id="SVGID_86_">
		<use xlink:href="#SVGID_85_"  overflow="visible"/>
	</clipPath>
	<polyline clip-path="url(#SVGID_86_)" fill="#848484" points="855.4,553.1 852.6,551.5 852.6,557.3 855.4,559 855.4,553.1 	"/>
</g>
<g enable-background="new    ">
	<defs>
		<polygon id="SVGID_87_" enable-background="new    " points="855.9,559.3 855.9,553.4 858.7,555.1 858.7,560.9 		"/>
	</defs>
	<use xlink:href="#SVGID_87_"  overflow="visible" fill="#848484"/>
	<clipPath id="SVGID_88_">
		<use xlink:href="#SVGID_87_"  overflow="visible"/>
	</clipPath>
	<polyline clip-path="url(#SVGID_88_)" fill="#848484" points="858.7,555.1 855.9,553.4 855.9,559.3 858.7,560.9 858.7,555.1 	"/>
</g>
<g enable-background="new    ">
	<defs>
		<polygon id="SVGID_89_" enable-background="new    " points="845.8,561 845.8,555.2 848.7,556.8 848.6,562.7 		"/>
	</defs>
	<use xlink:href="#SVGID_89_"  overflow="visible" fill="#848484"/>
	<clipPath id="SVGID_90_">
		<use xlink:href="#SVGID_89_"  overflow="visible"/>
	</clipPath>
	<polyline clip-path="url(#SVGID_90_)" fill="#848484" points="848.7,556.8 845.8,555.2 845.8,561 848.6,562.7 848.7,556.8 	"/>
</g>
<g enable-background="new    ">
	<defs>
		<polygon id="SVGID_91_" enable-background="new    " points="849.2,563 849.2,557.1 852,558.7 852,564.6 		"/>
	</defs>
	<use xlink:href="#SVGID_91_"  overflow="visible" fill="#848484"/>
	<clipPath id="SVGID_92_">
		<use xlink:href="#SVGID_91_"  overflow="visible"/>
	</clipPath>
	<polyline clip-path="url(#SVGID_92_)" fill="#848484" points="852,558.7 849.2,557.1 849.2,563 852,564.6 852,558.7 	"/>
</g>
<g enable-background="new    ">
	<defs>
		<polygon id="SVGID_93_" enable-background="new    " points="852.6,564.9 852.6,559.1 855.4,560.7 855.4,566.6 		"/>
	</defs>
	<use xlink:href="#SVGID_93_"  overflow="visible" fill="#848484"/>
	<clipPath id="SVGID_94_">
		<use xlink:href="#SVGID_93_"  overflow="visible"/>
	</clipPath>
	<polyline clip-path="url(#SVGID_94_)" fill="#848484" points="855.4,560.7 852.6,559.1 852.6,564.9 855.4,566.6 855.4,560.7 	"/>
</g>
<g enable-background="new    ">
	<defs>
		<polygon id="SVGID_95_" enable-background="new    " points="855.9,566.9 855.9,561 858.7,562.6 858.7,568.5 		"/>
	</defs>
	<use xlink:href="#SVGID_95_"  overflow="visible" fill="#848484"/>
	<clipPath id="SVGID_96_">
		<use xlink:href="#SVGID_95_"  overflow="visible"/>
	</clipPath>
	<polyline clip-path="url(#SVGID_96_)" fill="#848484" points="858.7,562.6 855.9,561 855.9,566.9 858.7,568.5 858.7,562.6 	"/>
</g>
<g enable-background="new    ">
	<defs>
		<polygon id="SVGID_97_" enable-background="new    " points="930.3,576.8 930.3,571 933.1,572.6 933.1,578.4 		"/>
	</defs>
	<use xlink:href="#SVGID_97_"  overflow="visible" fill="#848484"/>
	<clipPath id="SVGID_98_">
		<use xlink:href="#SVGID_97_"  overflow="visible"/>
	</clipPath>
	<polyline clip-path="url(#SVGID_98_)" fill="#848484" points="933.1,572.6 930.3,571 930.3,576.8 933.1,578.4 933.1,572.6 	"/>
</g>
<g enable-background="new    ">
	<defs>
		<polygon id="SVGID_99_" enable-background="new    " points="933.7,578.7 933.7,572.9 936.5,574.5 936.5,580.4 		"/>
	</defs>
	<use xlink:href="#SVGID_99_"  overflow="visible" fill="#848484"/>
	<clipPath id="SVGID_100_">
		<use xlink:href="#SVGID_99_"  overflow="visible"/>
	</clipPath>
	<polyline clip-path="url(#SVGID_100_)" fill="#848484" points="936.5,574.5 933.7,572.9 933.7,578.7 936.5,580.4 936.5,574.5 	"/>
</g>
<g enable-background="new    ">
	<defs>
		<polygon id="SVGID_101_" enable-background="new    " points="937.1,580.7 937.1,574.9 939.9,576.5 939.9,582.3 		"/>
	</defs>
	<use xlink:href="#SVGID_101_"  overflow="visible" fill="#848484"/>
	<clipPath id="SVGID_102_">
		<use xlink:href="#SVGID_101_"  overflow="visible"/>
	</clipPath>
	<polyline clip-path="url(#SVGID_102_)" fill="#848484" points="939.9,576.5 937.1,574.9 937.1,580.7 939.9,582.3 939.9,576.5 	"/>
</g>
<g enable-background="new    ">
	<defs>
		<polygon id="SVGID_103_" enable-background="new    " points="940.4,582.6 940.4,576.8 943.2,578.4 943.2,584.3 		"/>
	</defs>
	<use xlink:href="#SVGID_103_"  overflow="visible" fill="#848484"/>
	<clipPath id="SVGID_104_">
		<use xlink:href="#SVGID_103_"  overflow="visible"/>
	</clipPath>
	<polyline clip-path="url(#SVGID_104_)" fill="#848484" points="943.2,578.4 940.4,576.8 940.4,582.6 943.2,584.3 943.2,578.4 	"/>
</g>
<g enable-background="new    ">
	<defs>
		<polygon id="SVGID_105_" enable-background="new    " points="943.7,584.6 943.7,578.7 946.5,580.4 946.5,586.2 		"/>
	</defs>
	<use xlink:href="#SVGID_105_"  overflow="visible" fill="#848484"/>
	<clipPath id="SVGID_106_">
		<use xlink:href="#SVGID_105_"  overflow="visible"/>
	</clipPath>
	<polyline clip-path="url(#SVGID_106_)" fill="#848484" points="946.5,580.4 943.7,578.7 943.7,584.6 946.5,586.2 946.5,580.4 	"/>
</g>
<g enable-background="new    ">
	<defs>
		<polygon id="SVGID_107_" enable-background="new    " points="930.3,584.4 930.3,578.6 933.1,580.2 933.1,586 		"/>
	</defs>
	<use xlink:href="#SVGID_107_"  overflow="visible" fill="#848484"/>
	<clipPath id="SVGID_108_">
		<use xlink:href="#SVGID_107_"  overflow="visible"/>
	</clipPath>
	<polyline clip-path="url(#SVGID_108_)" fill="#848484" points="933.1,580.2 930.3,578.6 930.3,584.4 933.1,586 933.1,580.2 	"/>
</g>
<g enable-background="new    ">
	<defs>
		<polygon id="SVGID_109_" enable-background="new    " points="933.7,586.3 933.7,580.5 936.5,582.1 936.5,587.9 		"/>
	</defs>
	<use xlink:href="#SVGID_109_"  overflow="visible" fill="#848484"/>
	<clipPath id="SVGID_110_">
		<use xlink:href="#SVGID_109_"  overflow="visible"/>
	</clipPath>
	<polyline clip-path="url(#SVGID_110_)" fill="#848484" points="936.5,582.1 933.7,580.5 933.7,586.3 936.5,587.9 936.5,582.1 	"/>
</g>
<g enable-background="new    ">
	<defs>
		<polygon id="SVGID_111_" enable-background="new    " points="937.1,588.3 937.1,582.5 939.9,584.1 939.9,589.9 		"/>
	</defs>
	<use xlink:href="#SVGID_111_"  overflow="visible" fill="#848484"/>
	<clipPath id="SVGID_112_">
		<use xlink:href="#SVGID_111_"  overflow="visible"/>
	</clipPath>
	<polyline clip-path="url(#SVGID_112_)" fill="#848484" points="939.9,584.1 937.1,582.5 937.1,588.3 939.9,589.9 939.9,584.1 	"/>
</g>
<g enable-background="new    ">
	<defs>
		<polygon id="SVGID_113_" enable-background="new    " points="940.4,590.2 940.4,584.4 943.2,586 943.2,591.8 		"/>
	</defs>
	<use xlink:href="#SVGID_113_"  overflow="visible" fill="#848484"/>
	<clipPath id="SVGID_114_">
		<use xlink:href="#SVGID_113_"  overflow="visible"/>
	</clipPath>
	<polyline clip-path="url(#SVGID_114_)" fill="#848484" points="943.2,586 940.4,584.4 940.4,590.2 943.2,591.8 943.2,586 	"/>
</g>
<g enable-background="new    ">
	<defs>
		<polygon id="SVGID_115_" enable-background="new    " points="943.7,592.2 943.7,586.3 946.5,587.9 946.5,593.8 		"/>
	</defs>
	<use xlink:href="#SVGID_115_"  overflow="visible" fill="#848484"/>
	<clipPath id="SVGID_116_">
		<use xlink:href="#SVGID_115_"  overflow="visible"/>
	</clipPath>
	<polyline clip-path="url(#SVGID_116_)" fill="#848484" points="946.5,587.9 943.7,586.3 943.7,592.2 946.5,593.8 946.5,587.9 	"/>
</g>
<g enable-background="new    ">
	<defs>
		<polygon id="SVGID_117_" enable-background="new    " points="968.6,577.1 968.6,571.3 965.8,572.9 965.8,578.7 		"/>
	</defs>
	<use xlink:href="#SVGID_117_"  overflow="visible" fill="#EAEAEA"/>
	<clipPath id="SVGID_118_">
		<use xlink:href="#SVGID_117_"  overflow="visible"/>
	</clipPath>
	<polyline clip-path="url(#SVGID_118_)" fill="#EAEAEA" points="965.8,572.9 968.6,571.3 968.6,577.1 965.8,578.7 965.8,572.9 	"/>
</g>
<g enable-background="new    ">
	<defs>
		<polygon id="SVGID_119_" enable-background="new    " points="965.3,579 965.3,573.2 962.5,574.8 962.5,580.7 		"/>
	</defs>
	<use xlink:href="#SVGID_119_"  overflow="visible" fill="#EAEAEA"/>
	<clipPath id="SVGID_120_">
		<use xlink:href="#SVGID_119_"  overflow="visible"/>
	</clipPath>
	<polyline clip-path="url(#SVGID_120_)" fill="#EAEAEA" points="962.5,574.8 965.3,573.2 965.3,579 962.5,580.7 962.5,574.8 	"/>
</g>
<g enable-background="new    ">
	<defs>
		<polygon id="SVGID_121_" enable-background="new    " points="961.9,581 961.9,575.2 959.1,576.8 959.1,582.6 		"/>
	</defs>
	<use xlink:href="#SVGID_121_"  overflow="visible" fill="#EAEAEA"/>
	<clipPath id="SVGID_122_">
		<use xlink:href="#SVGID_121_"  overflow="visible"/>
	</clipPath>
	<polyline clip-path="url(#SVGID_122_)" fill="#EAEAEA" points="959.1,576.8 961.9,575.2 961.9,581 959.1,582.6 959.1,576.8 	"/>
</g>
<g enable-background="new    ">
	<defs>
		<polygon id="SVGID_123_" enable-background="new    " points="968.6,584.7 968.6,578.8 965.8,580.5 965.8,586.3 		"/>
	</defs>
	<use xlink:href="#SVGID_123_"  overflow="visible" fill="#EAEAEA"/>
	<clipPath id="SVGID_124_">
		<use xlink:href="#SVGID_123_"  overflow="visible"/>
	</clipPath>
	<polyline clip-path="url(#SVGID_124_)" fill="#EAEAEA" points="965.8,580.5 968.6,578.8 968.6,584.7 965.8,586.3 965.8,580.5 	"/>
</g>
<g enable-background="new    ">
	<defs>
		<polygon id="SVGID_125_" enable-background="new    " points="965.3,586.6 965.3,580.8 962.5,582.4 962.5,588.2 		"/>
	</defs>
	<use xlink:href="#SVGID_125_"  overflow="visible" fill="#EAEAEA"/>
	<clipPath id="SVGID_126_">
		<use xlink:href="#SVGID_125_"  overflow="visible"/>
	</clipPath>
	<polyline clip-path="url(#SVGID_126_)" fill="#EAEAEA" points="962.5,582.4 965.3,580.8 965.3,586.6 962.5,588.2 962.5,582.4 	"/>
</g>
<g enable-background="new    ">
	<defs>
		<polygon id="SVGID_127_" enable-background="new    " points="961.9,588.6 961.9,582.8 959.1,584.4 959.1,590.2 		"/>
	</defs>
	<use xlink:href="#SVGID_127_"  overflow="visible" fill="#EAEAEA"/>
	<clipPath id="SVGID_128_">
		<use xlink:href="#SVGID_127_"  overflow="visible"/>
	</clipPath>
	<polyline clip-path="url(#SVGID_128_)" fill="#EAEAEA" points="959.1,584.4 961.9,582.8 961.9,588.6 959.1,590.2 959.1,584.4 	"/>
</g>
<polygon fill="#9B9B9B" points="952.9,557.5 947.9,560.4 939.1,555.3 944.1,552.4 "/>
<polygon fill="#393A3A" points="952.9,557.5 952.9,565.6 947.9,568.5 947.9,560.4 "/>
<polygon fill="#CECECE" points="947.9,560.4 947.9,568.5 939.1,563.5 939.1,555.3 "/>
<g enable-background="new    ">
	<defs>
		<polygon id="SVGID_129_" enable-background="new    " points="941.6,562.2 941.6,560 944.7,561.8 944.7,564 		"/>
	</defs>
	<use xlink:href="#SVGID_129_"  overflow="visible" fill="#EAEAEA"/>
	<clipPath id="SVGID_130_">
		<use xlink:href="#SVGID_129_"  overflow="visible"/>
	</clipPath>
	<polyline clip-path="url(#SVGID_130_)" fill="#EAEAEA" points="944.7,561.8 941.6,560 941.6,562.2 944.7,564 944.7,561.8 	"/>
</g>
<polygon fill="#AA8888" points="925.5,503.2 894,521.5 863,503.6 894.6,485.3 "/>
<polygon fill="#5B4343" points="925.5,503.2 925.3,600.1 893.7,618.4 894,521.5 "/>
<polygon fill="#CEB2B2" points="894,521.5 893.7,618.4 862.8,600.5 863,503.6 "/>
<polygon fill="#9B9B9B" points="902.5,500.1 894.1,504.9 880.8,497.2 889.1,492.4 "/>
<polygon fill="#393A3A" points="902.5,500.1 902.4,512.3 894.1,517.2 894.1,504.9 "/>
<polygon fill="#CECECE" points="894.1,504.9 894.1,517.2 880.8,509.5 880.8,497.2 "/>
<g enable-background="new    ">
	<defs>
		<polygon id="SVGID_131_" enable-background="new    " points="873.7,606.7 873.8,595.6 878.2,598.2 878.2,609.2 		"/>
	</defs>
	<use xlink:href="#SVGID_131_"  overflow="visible" fill="#393A3A"/>
	<clipPath id="SVGID_132_">
		<use xlink:href="#SVGID_131_"  overflow="visible"/>
	</clipPath>
	<polyline clip-path="url(#SVGID_132_)" fill="#393A3A" points="878.2,598.2 873.8,595.6 873.7,606.7 878.2,609.2 878.2,598.2 	"/>
</g>
<g enable-background="new    ">
	<defs>
		<polygon id="SVGID_133_" enable-background="new    " points="873.1,534.1 873.1,528.8 875.7,530.2 875.7,535.6 		"/>
	</defs>
	<use xlink:href="#SVGID_133_"  overflow="visible" fill="#EAEAEA"/>
	<clipPath id="SVGID_134_">
		<use xlink:href="#SVGID_133_"  overflow="visible"/>
	</clipPath>
	<polyline clip-path="url(#SVGID_134_)" fill="#EAEAEA" points="875.7,530.2 873.1,528.8 873.1,534.1 875.7,535.6 875.7,530.2 	"/>
</g>
<g enable-background="new    ">
	<defs>
		<polygon id="SVGID_135_" enable-background="new    " points="876.2,535.9 876.2,530.6 878.8,532 878.8,537.3 		"/>
	</defs>
	<use xlink:href="#SVGID_135_"  overflow="visible" fill="#EAEAEA"/>
	<clipPath id="SVGID_136_">
		<use xlink:href="#SVGID_135_"  overflow="visible"/>
	</clipPath>
	<polyline clip-path="url(#SVGID_136_)" fill="#EAEAEA" points="878.8,532 876.2,530.6 876.2,535.9 878.8,537.3 878.8,532 	"/>
</g>
<g enable-background="new    ">
	<defs>
		<polygon id="SVGID_137_" enable-background="new    " points="873.1,540.4 873.1,535.1 875.7,536.6 875.7,541.9 		"/>
	</defs>
	<use xlink:href="#SVGID_137_"  overflow="visible" fill="#EAEAEA"/>
	<clipPath id="SVGID_138_">
		<use xlink:href="#SVGID_137_"  overflow="visible"/>
	</clipPath>
	<polyline clip-path="url(#SVGID_138_)" fill="#EAEAEA" points="875.7,536.6 873.1,535.1 873.1,540.4 875.7,541.9 875.7,536.6 	"/>
</g>
<g enable-background="new    ">
	<defs>
		<polygon id="SVGID_139_" enable-background="new    " points="876.2,542.2 876.2,536.9 878.8,538.4 878.8,543.7 		"/>
	</defs>
	<use xlink:href="#SVGID_139_"  overflow="visible" fill="#EAEAEA"/>
	<clipPath id="SVGID_140_">
		<use xlink:href="#SVGID_139_"  overflow="visible"/>
	</clipPath>
	<polyline clip-path="url(#SVGID_140_)" fill="#EAEAEA" points="878.8,538.4 876.2,536.9 876.2,542.2 878.8,543.7 878.8,538.4 	"/>
</g>
<g enable-background="new    ">
	<defs>
		<polygon id="SVGID_152_" enable-background="new    " points="873.1,546.6 873.1,541.3 875.7,542.8 875.7,548.1 		"/>
	</defs>
	<use xlink:href="#SVGID_152_"  overflow="visible" fill="#EAEAEA"/>
	<clipPath id="SVGID_153_">
		<use xlink:href="#SVGID_152_"  overflow="visible"/>
	</clipPath>
	<polyline clip-path="url(#SVGID_153_)" fill="#EAEAEA" points="875.7,542.8 873.1,541.3 873.1,546.6 875.7,548.1 875.7,542.8 	"/>
</g>
<g enable-background="new    ">
	<defs>
		<polygon id="SVGID_154_" enable-background="new    " points="876.2,548.4 876.2,543.1 878.8,544.6 878.8,549.9 		"/>
	</defs>
	<use xlink:href="#SVGID_154_"  overflow="visible" fill="#EAEAEA"/>
	<clipPath id="SVGID_155_">
		<use xlink:href="#SVGID_154_"  overflow="visible"/>
	</clipPath>
	<polyline clip-path="url(#SVGID_155_)" fill="#EAEAEA" points="878.8,544.6 876.2,543.1 876.2,548.4 878.8,549.9 878.8,544.6 	"/>
</g>
<g enable-background="new    ">
	<defs>
		<polygon id="SVGID_156_" enable-background="new    " points="873.1,552.8 873.1,547.5 875.7,549 875.7,554.3 		"/>
	</defs>
	<use xlink:href="#SVGID_156_"  overflow="visible" fill="#EAEAEA"/>
	<clipPath id="SVGID_157_">
		<use xlink:href="#SVGID_156_"  overflow="visible"/>
	</clipPath>
	<polyline clip-path="url(#SVGID_157_)" fill="#EAEAEA" points="875.7,549 873.1,547.5 873.1,552.8 875.7,554.3 875.7,549 	"/>
</g>
<g enable-background="new    ">
	<defs>
		<polygon id="SVGID_158_" enable-background="new    " points="876.2,554.6 876.2,549.3 878.8,550.8 878.8,556.1 		"/>
	</defs>
	<use xlink:href="#SVGID_158_"  overflow="visible" fill="#EAEAEA"/>
	<clipPath id="SVGID_159_">
		<use xlink:href="#SVGID_158_"  overflow="visible"/>
	</clipPath>
	<polyline clip-path="url(#SVGID_159_)" fill="#EAEAEA" points="878.8,550.8 876.2,549.3 876.2,554.6 878.8,556.1 878.8,550.8 	"/>
</g>
<g enable-background="new    ">
	<defs>
		<polygon id="SVGID_160_" enable-background="new    " points="873.1,559.1 873.1,553.8 875.7,555.3 875.7,560.6 		"/>
	</defs>
	<use xlink:href="#SVGID_160_"  overflow="visible" fill="#EAEAEA"/>
	<clipPath id="SVGID_161_">
		<use xlink:href="#SVGID_160_"  overflow="visible"/>
	</clipPath>
	<polyline clip-path="url(#SVGID_161_)" fill="#EAEAEA" points="875.7,555.3 873.1,553.8 873.1,559.1 875.7,560.6 875.7,555.3 	"/>
</g>
<g enable-background="new    ">
	<defs>
		<polygon id="SVGID_162_" enable-background="new    " points="876.2,560.9 876.2,555.6 878.8,557.1 878.8,562.4 		"/>
	</defs>
	<use xlink:href="#SVGID_162_"  overflow="visible" fill="#EAEAEA"/>
	<clipPath id="SVGID_163_">
		<use xlink:href="#SVGID_162_"  overflow="visible"/>
	</clipPath>
	<polyline clip-path="url(#SVGID_163_)" fill="#EAEAEA" points="878.8,557.1 876.2,555.6 876.2,560.9 878.8,562.4 878.8,557.1 	"/>
</g>
<g enable-background="new    ">
	<defs>
		<polygon id="SVGID_164_" enable-background="new    " points="873.1,576.3 873.1,571 875.7,572.5 875.7,577.8 		"/>
	</defs>
	<use xlink:href="#SVGID_164_"  overflow="visible" fill="#EAEAEA"/>
	<clipPath id="SVGID_165_">
		<use xlink:href="#SVGID_164_"  overflow="visible"/>
	</clipPath>
	<polyline clip-path="url(#SVGID_165_)" fill="#EAEAEA" points="875.7,572.5 873.1,571 873.1,576.3 875.7,577.8 875.7,572.5 	"/>
</g>
<g enable-background="new    ">
	<defs>
		<polygon id="SVGID_166_" enable-background="new    " points="876.2,578.1 876.2,572.8 878.8,574.3 878.8,579.6 		"/>
	</defs>
	<use xlink:href="#SVGID_166_"  overflow="visible" fill="#EAEAEA"/>
	<clipPath id="SVGID_167_">
		<use xlink:href="#SVGID_166_"  overflow="visible"/>
	</clipPath>
	<polyline clip-path="url(#SVGID_167_)" fill="#EAEAEA" points="878.8,574.3 876.2,572.8 876.2,578.1 878.8,579.6 878.8,574.3 	"/>
</g>
<g enable-background="new    ">
	<defs>
		<polygon id="SVGID_168_" enable-background="new    " points="873.1,582.5 873.1,577.2 875.7,578.7 875.7,584 		"/>
	</defs>
	<use xlink:href="#SVGID_168_"  overflow="visible" fill="#EAEAEA"/>
	<clipPath id="SVGID_169_">
		<use xlink:href="#SVGID_168_"  overflow="visible"/>
	</clipPath>
	<polyline clip-path="url(#SVGID_169_)" fill="#EAEAEA" points="875.7,578.7 873.1,577.2 873.1,582.5 875.7,584 875.7,578.7 	"/>
</g>
<g enable-background="new    ">
	<defs>
		<polygon id="SVGID_170_" enable-background="new    " points="876.2,584.3 876.2,579 878.8,580.5 878.8,585.8 		"/>
	</defs>
	<use xlink:href="#SVGID_170_"  overflow="visible" fill="#EAEAEA"/>
	<clipPath id="SVGID_171_">
		<use xlink:href="#SVGID_170_"  overflow="visible"/>
	</clipPath>
	<polyline clip-path="url(#SVGID_171_)" fill="#EAEAEA" points="878.8,580.5 876.2,579 876.2,584.3 878.8,585.8 878.8,580.5 	"/>
</g>
<g enable-background="new    ">
	<defs>
		<polygon id="SVGID_172_" enable-background="new    " points="873.1,527.9 873.1,522.6 875.7,524.1 875.7,529.4 		"/>
	</defs>
	<use xlink:href="#SVGID_172_"  overflow="visible" fill="#EAEAEA"/>
	<clipPath id="SVGID_173_">
		<use xlink:href="#SVGID_172_"  overflow="visible"/>
	</clipPath>
	<polyline clip-path="url(#SVGID_173_)" fill="#EAEAEA" points="875.7,524.1 873.1,522.6 873.1,527.9 875.7,529.4 875.7,524.1 	"/>
</g>
<g enable-background="new    ">
	<defs>
		<polygon id="SVGID_174_" enable-background="new    " points="876.2,529.7 876.2,524.4 878.8,525.9 878.8,531.2 		"/>
	</defs>
	<use xlink:href="#SVGID_174_"  overflow="visible" fill="#EAEAEA"/>
	<clipPath id="SVGID_175_">
		<use xlink:href="#SVGID_174_"  overflow="visible"/>
	</clipPath>
	<polyline clip-path="url(#SVGID_175_)" fill="#EAEAEA" points="878.8,525.9 876.2,524.4 876.2,529.7 878.8,531.2 878.8,525.9 	"/>
</g>
<g enable-background="new    ">
	<defs>
		<polygon id="SVGID_176_" enable-background="new    " points="915.7,521.9 915.6,516.6 913.1,518 913.1,523.3 		"/>
	</defs>
	<use xlink:href="#SVGID_176_"  overflow="visible" fill="#EAEAEA"/>
	<clipPath id="SVGID_177_">
		<use xlink:href="#SVGID_176_"  overflow="visible"/>
	</clipPath>
	<polyline clip-path="url(#SVGID_177_)" fill="#EAEAEA" points="913.1,518 915.6,516.6 915.7,521.9 913.1,523.3 913.1,518 	"/>
</g>
<g enable-background="new    ">
	<defs>
		<polygon id="SVGID_178_" enable-background="new    " points="911.7,524.1 911.7,518.8 909.1,520.3 909.1,525.6 		"/>
	</defs>
	<use xlink:href="#SVGID_178_"  overflow="visible" fill="#EAEAEA"/>
	<clipPath id="SVGID_179_">
		<use xlink:href="#SVGID_178_"  overflow="visible"/>
	</clipPath>
	<polyline clip-path="url(#SVGID_179_)" fill="#EAEAEA" points="909.1,520.3 911.7,518.8 911.7,524.1 909.1,525.6 909.1,520.3 	"/>
</g>
<g>
	<g enable-background="new    ">
		<defs>
			<polygon id="SVGID_180_" enable-background="new    " points="891,510.9 891,508.2 892.3,509 892.3,511.6 			"/>
		</defs>
		<use xlink:href="#SVGID_180_"  overflow="visible" fill="#EAEAEA"/>
		<clipPath id="SVGID_181_">
			<use xlink:href="#SVGID_180_"  overflow="visible"/>
		</clipPath>
		<g clip-path="url(#SVGID_181_)">
			<polyline fill="#EAEAEA" points="892.3,509 891,508.2 891,510.9 892.3,511.6 892.3,509 			"/>
		</g>
	</g>
</g>
<g>
	<g enable-background="new    ">
		<defs>
			<polygon id="SVGID_182_" enable-background="new    " points="889.1,509.9 889.1,507.3 890.4,508 890.4,510.7 			"/>
		</defs>
		<use xlink:href="#SVGID_182_"  overflow="visible" fill="#EAEAEA"/>
		<clipPath id="SVGID_183_">
			<use xlink:href="#SVGID_182_"  overflow="visible"/>
		</clipPath>
		<g clip-path="url(#SVGID_183_)">
			<polyline fill="#EAEAEA" points="890.4,508 889.1,507.3 889.1,509.9 890.4,510.7 890.4,508 			"/>
		</g>
	</g>
</g>
<polygon fill="#848484" points="915.9,598.7 930,590.5 929.9,611.9 915.8,620.1 "/>
<polygon fill="#F8B9AA" points="904.1,591.9 918.2,583.7 930,590.5 915.9,598.7 "/>
<polygon fill="#CECECE" points="915.8,598.6 904.1,578.5 904,591.9 904.1,591.9 904,613.1 915.8,620.1 915.9,598.7 "/>
<rect x="908.9" y="572.8" transform="matrix(-0.8646 0.5024 -0.5024 -0.8646 2003.5936 629.2461)" fill="#ADADAD" width="16.3" height="23.4"/>
<g enable-background="new    ">
	<defs>
		<polygon id="SVGID_8_" enable-background="new    " points="908.4,589.4 908.4,575.6 920.6,582.6 920.6,596.5 		"/>
	</defs>
	<clipPath id="SVGID_184_">
		<use xlink:href="#SVGID_8_"  overflow="visible"/>
	</clipPath>
	<polyline clip-path="url(#SVGID_184_)" fill="#393A3A" points="908.8,575.8 908.4,576 920.2,596.3 920.6,596 908.8,575.8 	"/>
</g>
<g enable-background="new    ">
	<defs>
		<polygon id="SVGID_6_" enable-background="new    " points="913.4,586.5 913.5,572.7 925.6,579.7 925.6,593.6 		"/>
	</defs>
	<clipPath id="SVGID_185_">
		<use xlink:href="#SVGID_6_"  overflow="visible"/>
	</clipPath>
	<polyline clip-path="url(#SVGID_185_)" fill="#393A3A" points="913.8,572.9 913.5,573.1 925.2,593.4 925.6,593.1 913.8,572.9 	"/>
</g>
<g enable-background="new    ">
	<defs>
		<polygon id="SVGID_186_" enable-background="new    " points="907.7,615.3 907.7,604.2 912.2,606.8 912.2,617.8 		"/>
	</defs>
	<use xlink:href="#SVGID_186_"  overflow="visible" fill="#393A3A"/>
	<clipPath id="SVGID_187_">
		<use xlink:href="#SVGID_186_"  overflow="visible"/>
	</clipPath>
	<polyline clip-path="url(#SVGID_187_)" fill="#393A3A" points="912.2,606.8 907.7,604.2 907.7,615.3 912.2,617.8 912.2,606.8 	"/>
</g>
<g enable-background="new    ">
	<defs>
		<polygon id="SVGID_188_" enable-background="new    " points="923,606.2 923,600.4 920.2,602 920.2,607.8 		"/>
	</defs>
	<use xlink:href="#SVGID_188_"  overflow="visible" fill="#EAEAEA"/>
	<clipPath id="SVGID_189_">
		<use xlink:href="#SVGID_188_"  overflow="visible"/>
	</clipPath>
	<polyline clip-path="url(#SVGID_189_)" fill="#EAEAEA" points="920.2,602 923,600.4 923,606.2 920.2,607.8 920.2,602 	"/>
</g>
<g enable-background="new    ">
	<defs>
		<polygon id="SVGID_190_" enable-background="new    " points="927.1,603.7 927,597.8 924.2,599.4 924.2,605.3 		"/>
	</defs>
	<use xlink:href="#SVGID_190_"  overflow="visible" fill="#EAEAEA"/>
	<clipPath id="SVGID_191_">
		<use xlink:href="#SVGID_190_"  overflow="visible"/>
	</clipPath>
	<polyline clip-path="url(#SVGID_191_)" fill="#EAEAEA" points="924.2,599.4 927,597.8 927.1,603.7 924.2,605.3 924.2,599.4 	"/>
</g>
<polygon fill="#D8CFBF" points="1033.8,576.9 1033.7,593.2 939.3,648.4 939.3,632.1 "/>
<polygon fill="#D8CFBF" points="922.3,641.7 922.3,658 869.1,688.9 869.1,672.6 "/>
<polygon fill="#F8F6F3" points="869.1,672.6 869.1,688.9 651.8,563.4 651.8,547.1 "/>
<path fill="#D8CFBF" d="M900.3,628.1l-0.1,32.6c0,0.2-0.1,0.3-0.3,0.4c-0.4,0.2-1.1,0.2-1.5,0c-0.2-0.1-0.3-0.3-0.3-0.4l0.1-32.6
	c0,0.2,0.1,0.3,0.3,0.4c0.4,0.2,1.1,0.2,1.5,0C900.2,628.4,900.3,628.2,900.3,628.1z"/>
<path fill="#D8CFBF" d="M900,627.6c0.4,0.2,0.4,0.6,0,0.9c-0.4,0.2-1.1,0.2-1.5,0c-0.4-0.2-0.4-0.6,0-0.9
	C898.9,627.4,899.6,627.4,900,627.6z"/>
<path fill="#D8CFBF" d="M891.6,632.8c0.4,0.2,0.4,0.6,0,0.9c-0.4,0.2-1.1,0.2-1.6,0c-0.4-0.2-0.4-0.6,0-0.9
	C890.5,632.5,891.2,632.5,891.6,632.8z"/>
<path fill="#D8CFBF" d="M891.9,633.2l-0.1,32.6c0,0.2-0.1,0.3-0.3,0.4c-0.4,0.2-1.1,0.2-1.6,0c-0.2-0.1-0.3-0.3-0.3-0.4l0.1-32.6
	c0,0.2,0.1,0.3,0.3,0.4c0.4,0.2,1.1,0.2,1.6,0C891.8,633.5,891.9,633.4,891.9,633.2z"/>
<g enable-background="new    ">
	<defs>
		<polygon id="SVGID_4_" enable-background="new    " points="882.4,646.9 882.3,620.4 908.2,605.5 908.3,632 		"/>
	</defs>
	<clipPath id="SVGID_192_">
		<use xlink:href="#SVGID_4_"  overflow="visible"/>
	</clipPath>
	<polyline clip-path="url(#SVGID_192_)" fill="#FFFFFF" points="908.2,605.5 882.3,620.4 882.4,646.9 908.3,632 908.2,605.5 	"/>
</g>
<g enable-background="new    ">
	<defs>
		<polygon id="SVGID_2_" enable-background="new    " points="888.7,638.7 888.6,622 903.7,613.3 903.7,630 		"/>
	</defs>
	<clipPath id="SVGID_193_">
		<use xlink:href="#SVGID_2_"  overflow="visible"/>
	</clipPath>
	<path clip-path="url(#SVGID_193_)" fill="#393A3A" d="M903.4,622l-14.5,8.3c0,0,1.3,4.2,1.4,4.6c0.1,0.5,0.2,0.6,0.4,0.6
		c0.1-0.9,0.7-1.9,1.5-2.3c0.8-0.5,1.4-0.1,1.5,0.7c1.5-0.8,3.3-1.9,4.8-2.7c0.1-0.9,0.7-2,1.5-2.4c0.7-0.4,1.4-0.2,1.5,0.5
		c0.3-0.4,0.4-1,0.4-1L903.4,622"/>
	<path clip-path="url(#SVGID_193_)" fill="#393A3A" d="M892.3,633.6c-0.7,0.4-1.3,1.4-1.3,2.2c0,0.8,0.6,1.2,1.3,0.7
		c0.7-0.4,1.3-1.4,1.3-2.2C893.6,633.5,893,633.2,892.3,633.6"/>
	<path clip-path="url(#SVGID_193_)" fill="#393A3A" d="M900.1,629.1c-0.7,0.4-1.3,1.4-1.3,2.3c0,0.8,0.6,1.2,1.3,0.7
		c0.7-0.4,1.3-1.4,1.3-2.2C901.4,629,900.8,628.7,900.1,629.1"/>
	<path clip-path="url(#SVGID_193_)" fill="#393A3A" d="M897.7,616.8c-0.5,0.3-1.2,0.9-2,2.1c0,0-0.6-0.1-1.3,0.3
		c-0.6,0.3-1.2,1-1.6,2.3c0,0-0.1,0.1-0.3,0.2c-1,0.6-4,2.6-2.9,5.8c0,0-0.1,0-0.1,0.1c-0.3,0.2-1.1,0.8-0.8,1.9l15.1-8.7
		c0,0,0.6-1.9-0.8-1c0,0-0.1,0-0.1,0.1c0,0,0.8-4.3-2.2-2.6c-0.3,0.2-0.6,0.4-1,0.7C899.5,617.9,899.2,615.9,897.7,616.8"/>
</g>
<path fill="#CECECE" d="M987.5,554.3c3.3,1.9,3.3,4.9,0,6.8c-3.2,1.9-8.5,1.9-11.7,0c-3.3-1.9-3.3-4.9,0-6.8
	C979,552.4,984.2,552.4,987.5,554.3z"/>
<path fill="#CECECE" d="M989.9,557.7l-0.1,37.5c0,1.2-0.8,2.4-2.4,3.4c-3.2,1.9-8.5,1.9-11.7,0c-1.6-0.9-2.5-2.2-2.5-3.4l0.1-37.5
	c0,1.2,0.8,2.5,2.5,3.4c3.3,1.9,8.5,1.9,11.7,0C989.1,560.1,989.9,558.9,989.9,557.7z"/>
<path fill="#9B9B9B" d="M987.5,561.2c-1.1,0.7-2.5,1.1-4,1.3l-0.1,11.1l0,0v26.3c1.4-0.2,2.8-0.6,3.9-1.3c1.6-0.9,2.4-2.2,2.4-3.4
	l0.1-37.5C989.9,559,989.1,560.2,987.5,561.2z"/>
<circle fill="#393A3A" cx="780.5" cy="475.1" r="2.5"/>
<circle fill="#393A3A" cx="775.8" cy="466.4" r="3.6"/>
<circle fill="#393A3A" cx="784.3" cy="456.2" r="5.9"/>
<circle fill="#393A3A" cx="772" cy="437.9" r="14"/>
<circle fill="#393A3A" cx="783.2" cy="430" r="7.8"/>
<g>
	<g>
		<path fill="#CEB2B2" d="M1048.4,620.2l0,16.3c0,1.5-1,3-3,4.2c-4,2.3-10.5,2.3-14.6,0c-2-1.2-3-2.7-3-4.3l0-16.3
			c0,1.5,1,3.1,3,4.3c4,2.3,10.6,2.3,14.6,0C1047.4,623.2,1048.4,621.7,1048.4,620.2z"/>
	</g>
	<g>
		<path fill="#CEB2B2" d="M1045.4,615.9c4,2.3,4.1,6.1,0,8.4c-4,2.3-10.5,2.3-14.6,0c-4-2.3-4.1-6.1,0-8.4
			C1034.8,613.6,1041.3,613.6,1045.4,615.9z"/>
	</g>
</g>
<path fill="#826A6A" d="M1045.4,624.4c-1.2,0.7-2.7,1.2-4.3,1.5v16.3c1.6-0.3,3.1-0.8,4.3-1.5c2-1.2,3-2.7,3-4.2l0-16.3
	C1048.4,621.7,1047.4,623.2,1045.4,624.4z"/>
<g>
	<g>
		<path fill="#CEB2B2" d="M1025.2,626.8c4,2.3,4.1,6.1,0,8.4c-4,2.3-10.5,2.3-14.6,0c-4-2.3-4.1-6.1-0.1-8.4
			C1014.7,624.5,1021.2,624.5,1025.2,626.8z"/>
	</g>
	<g>
		<path fill="#CEB2B2" d="M1028.3,631.1l0,16.3c0,1.5-1,3-3,4.2c-4,2.3-10.5,2.3-14.6,0c-2-1.2-3-2.7-3-4.3l0-16.3
			c0,1.5,1,3.1,3,4.3c4,2.3,10.6,2.3,14.6,0C1027.3,634.1,1028.3,632.6,1028.3,631.1z"/>
	</g>
</g>
<path fill="#826A6A" d="M1025.3,635.3c-1.2,0.7-2.7,1.2-4.3,1.5v16.3c1.6-0.3,3.1-0.8,4.3-1.5c2-1.2,3-2.7,3-4.2l0-16.3
	C1028.2,632.6,1027.2,634.1,1025.3,635.3z"/>
<g>
	<g>
		<path fill="#CEB2B2" d="M1012,647.7l0,8.2c0,1.5-1,3-3,4.2c-4,2.3-10.5,2.3-14.6,0c-2-1.2-3-2.7-3-4.3l0-8.2c0,1.5,1,3.1,3,4.3
			c4,2.3,10.6,2.3,14.6,0C1011,650.7,1012,649.2,1012,647.7z"/>
	</g>
	<g>
		<path fill="#CEB2B2" d="M1009,643.4c4,2.3,4.1,6.1,0,8.4c-4,2.3-10.5,2.3-14.6,0c-4-2.3-4.1-6.1,0-8.4
			C998.4,641.1,1004.9,641.1,1009,643.4z"/>
	</g>
</g>
<path fill="#826A6A" d="M1009,651.8c-1.3,0.7-2.7,1.2-4.3,1.5v8.3c1.6-0.3,3.1-0.8,4.3-1.5c2-1.2,3-2.7,3-4.2l0-8.3
	C1012,649.1,1011,650.7,1009,651.8z"/>
<g enable-background="new    ">
	<defs>
		<polygon id="SVGID_141_" enable-background="new    " points="1018.2,632.1 1018.1,627.4 1038.2,615.9 1038.2,620.6 		"/>
	</defs>
	<clipPath id="SVGID_194_">
		<use xlink:href="#SVGID_141_"  overflow="visible"/>
	</clipPath>
	<path clip-path="url(#SVGID_194_)" fill="#393A3A" d="M1035.7,617.3l-15,8.7c-1.4,0.8-2.5,2.7-2.5,4.3l0,1.8l0.7-0.4l0-1.8
		c0-1.1,0.8-2.5,1.8-3.1l15-8.7c1-0.6,1.8-0.1,1.8,1l0,1.8l0.7-0.4l0-1.8C1038.2,617.2,1037,616.5,1035.7,617.3"/>
</g>
<g>
	<polygon fill="#86969B" points="987.7,655.1 968.7,666.1 943.8,651.8 962.9,640.7 	"/>
</g>
<g>
	<polygon fill="#A9C4C2" points="968.7,666.1 968.6,682.4 943.8,668.1 943.8,651.8 	"/>
</g>
<g>
	<polygon fill="#FFE0A4" points="968.8,672.7 945.4,686.2 931.5,678.1 954.8,664.6 	"/>
</g>
<polygon fill="#2A3838" points="987.7,655.1 968.7,666.1 968.7,672.7 945.4,686.2 945.4,696 968.8,682.4 968.8,682.4 987.7,671.4 
	"/>
<g>
	<polygon fill="#FFFAF1" points="945.4,686.2 945.4,696 931.4,687.9 931.5,678.1 	"/>
</g>
<g>
	<polygon fill="#FDECE8" points="934.4,674.8 943.5,687.4 925.2,676.8 	"/>
</g>
<g>
	<polygon fill="#5B4343" points="947.2,688 917.4,705.3 892.1,690.7 921.9,673.4 	"/>
</g>
<g>
	<polygon fill="#2A3838" points="947.2,688 947.2,697.8 917.4,715.1 917.4,705.3 	"/>
</g>
<g>
	<polygon fill="#A9C4C2" points="917.4,705.3 917.4,715.1 892.1,700.5 892.1,690.7 	"/>
</g>
<polygon fill="#CEB2B2" points="959.7,660.1 950.6,662.1 931.1,673.5 921.7,673.5 892.1,690.7 904.7,690.7 930.5,675.7 934.4,674.8 
	"/>
<g>
	<polygon fill="#A9C4C2" points="904.7,690.7 917.3,705.2 892.1,690.7 	"/>
</g>
<polygon fill="#5B4343" points="968.8,672.6 959.7,660.1 935.1,674.4 934.3,673.5 904.7,690.7 917.3,705.2 946.9,688 945.4,686.2 
	"/>
</svg>
