<?xml version="1.0" encoding="utf-8"?>
<!-- Generator: Adobe Illustrator 18.1.0, SVG Export Plug-In . SVG Version: 6.00 Build 0)  -->
<svg version="1.1" id="Calque_1" xmlns="http://www.w3.org/2000/svg" xmlns:xlink="http://www.w3.org/1999/xlink" x="0px" y="0px"
	 viewBox="0 0 1440 875.8" enable-background="new 0 0 1440 875.8" xml:space="preserve">
<g>
	<g enable-background="new    ">
		<defs>
			<polygon id="SVGID_481_" enable-background="new    " points="501.4,712.4 674.5,611.9 895.5,739.4 722.4,840 			"/>
		</defs>
		<clipPath id="SVGID_1_">
			<use xlink:href="#SVGID_481_"  overflow="visible"/>
		</clipPath>
		<g clip-path="url(#SVGID_1_)">
			<polyline fill="#CEDA91" points="895.4,739.4 674.5,611.9 501.4,712.4 722.4,840 895.5,739.4 			"/>
		</g>
	</g>
</g>
<g>
	<g>
		<g enable-background="new    ">
			<defs>
				<polygon id="SVGID_2_" enable-background="new    " points="350.2,624.9 522.9,524.5 669.6,609.2 496.9,709.6 				"/>
			</defs>
			<clipPath id="SVGID_3_">
				<use xlink:href="#SVGID_2_"  overflow="visible"/>
			</clipPath>
			<g clip-path="url(#SVGID_3_)">
				<g>
					<g>
						<g>
							<polyline fill="#CEDA91" points="669.6,609.2 522.9,524.5 350.2,624.9 496.9,709.6 669.6,609.2 							"/>
						</g>
					</g>
				</g>
			</g>
		</g>
	</g>
</g>
<g>
	<g>
		<g enable-background="new    ">
			<defs>
				<polygon id="SVGID_4_" enable-background="new    " points="349.5,619.9 522.9,519.1 670.3,604.2 496.9,705 				"/>
			</defs>
			<clipPath id="SVGID_5_">
				<use xlink:href="#SVGID_4_"  overflow="visible"/>
			</clipPath>
			<g clip-path="url(#SVGID_5_)">
				<g>
					<g>
						<g>
							<path fill="#F1526B" d="M350.9,619.9l172-100l146,84.3l-172,100L350.9,619.9 M670.3,604.2l-147.4-85.1L349.5,619.9L496.9,705
								L670.3,604.2"/>
						</g>
					</g>
				</g>
			</g>
		</g>
	</g>
</g>
<g>
	<g>
		<g>
			<g enable-background="new    ">
				<defs>
					<polygon id="SVGID_6_" enable-background="new    " points="678.2,578.7 678.3,544.6 727.8,573.1 727.7,607.3 					"/>
				</defs>
				<clipPath id="SVGID_7_">
					<use xlink:href="#SVGID_6_"  overflow="visible"/>
				</clipPath>
				<g clip-path="url(#SVGID_7_)">
					<g>
						<g>
							<g>
								<polyline fill="#F1526B" points="727.8,573.1 678.3,544.6 678.2,578.7 727.7,607.3 727.8,573.1 								"/>
							</g>
						</g>
					</g>
				</g>
			</g>
		</g>
	</g>
	<g>
		<g>
			<g enable-background="new    ">
				<g>
					<path fill="#F5967F" d="M687.3,565.3l-0.2,66.5c0,0.2-0.1,0.3-0.3,0.4c-0.4,0.2-1.1,0.2-1.5,0c-0.2-0.1-0.3-0.3-0.3-0.4
						l0.2-66.5c0,0.2,0.1,0.3,0.3,0.4c0.4,0.2,1.1,0.2,1.5,0C687.2,565.6,687.3,565.4,687.3,565.3z"/>
				</g>
				<g>
					<path fill="#F5967F" d="M687,564.8c0.4,0.2,0.4,0.6,0,0.9c-0.4,0.2-1.1,0.2-1.5,0c-0.4-0.2-0.4-0.6,0-0.9
						C685.9,564.6,686.6,564.6,687,564.8z"/>
				</g>
			</g>
		</g>
	</g>
	<g>
		<g>
			<g enable-background="new    ">
				<g>
					<path fill="#F5967F" d="M717.3,581.3l-0.2,66.5c0,0.2-0.1,0.3-0.3,0.4c-0.4,0.2-1.1,0.2-1.5,0c-0.2-0.1-0.3-0.3-0.3-0.4
						l0.2-66.5c0,0.2,0.1,0.3,0.3,0.4c0.4,0.2,1.1,0.3,1.5,0C717.2,581.6,717.3,581.5,717.3,581.3z"/>
				</g>
				<g>
					<path fill="#F5967F" d="M717,580.8c0.4,0.2,0.4,0.7,0,0.9c-0.4,0.2-1.1,0.2-1.5,0c-0.4-0.2-0.4-0.6,0-0.9
						S716.6,580.6,717,580.8z"/>
				</g>
			</g>
		</g>
	</g>
</g>
<g>
	<g>
		<g>
			<g enable-background="new    ">
				<defs>
					<polygon id="SVGID_8_" enable-background="new    " points="510.7,712.6 663.9,623.6 744.2,670 591,759 					"/>
				</defs>
				<clipPath id="SVGID_9_">
					<use xlink:href="#SVGID_8_"  overflow="visible"/>
				</clipPath>
				<g clip-path="url(#SVGID_9_)">
					<g>
						<g>
							<g>
								<polyline fill="#A4AD60" points="667.8,625.8 663.9,623.6 510.7,712.6 514.6,714.8 667.8,625.8 								"/>
								<polyline fill="#A4AD60" points="675.4,630.2 671.6,628 518.4,717 522.2,719.3 675.4,630.2 								"/>
								<polyline fill="#A4AD60" points="683.1,634.6 679.2,632.4 526,721.5 529.9,723.7 683.1,634.6 								"/>
								<polyline fill="#A4AD60" points="690.7,639.1 686.9,636.8 533.7,725.9 537.5,728.1 690.7,639.1 								"/>
								<polyline fill="#A4AD60" points="698.3,643.5 694.5,641.3 541.3,730.3 545.1,732.5 698.3,643.5 								"/>
								<polyline fill="#A4AD60" points="706,647.9 702.2,645.7 549,734.7 552.8,736.9 706,647.9 								"/>
								<polyline fill="#A4AD60" points="713.6,652.3 709.8,650.1 556.6,739.1 560.4,741.3 713.6,652.3 								"/>
								<polyline fill="#A4AD60" points="721.3,656.7 717.5,654.5 564.3,743.5 568.1,745.7 721.3,656.7 								"/>
								<polyline fill="#A4AD60" points="728.9,661.1 725.1,658.9 571.9,747.9 575.7,750.2 728.9,661.1 								"/>
								<polyline fill="#A4AD60" points="736.6,665.5 732.7,663.3 579.5,752.4 583.4,754.6 736.6,665.5 								"/>
								<polyline fill="#A4AD60" points="744.2,670 740.4,667.7 587.2,756.8 591,759 744.2,670 								"/>
							</g>
						</g>
					</g>
				</g>
			</g>
		</g>
	</g>
	<g>
		<g>
			<g enable-background="new    ">
				<defs>
					<polygon id="SVGID_10_" enable-background="new    " points="688.8,706.5 748,672 798,700.9 738.7,735.3 					"/>
				</defs>
				<clipPath id="SVGID_11_">
					<use xlink:href="#SVGID_10_"  overflow="visible"/>
				</clipPath>
				<g clip-path="url(#SVGID_11_)">
					<g>
						<g>
							<g>
								<polyline fill="#A4AD60" points="767.4,683.2 763.6,681 704.3,715.5 708.2,717.7 767.4,683.2 								"/>
								<polyline fill="#A4AD60" points="759.6,678.7 755.8,676.5 696.6,711 700.4,713.2 759.6,678.7 								"/>
								<polyline fill="#A4AD60" points="751.9,674.2 748,672 688.8,706.5 692.6,708.7 751.9,674.2 								"/>
								<polyline fill="#A4AD60" points="775.1,687.6 771.2,685.4 712,719.9 715.8,722.1 775.1,687.6 								"/>
								<polyline fill="#A4AD60" points="782.7,692.1 778.9,689.8 719.6,724.3 723.5,726.5 782.7,692.1 								"/>
								<polyline fill="#A4AD60" points="790.4,696.5 786.5,694.3 727.3,728.7 731.1,730.9 790.4,696.5 								"/>
								<polyline fill="#A4AD60" points="798,700.9 794.2,698.7 734.9,733.1 738.7,735.3 798,700.9 								"/>
							</g>
						</g>
					</g>
				</g>
			</g>
		</g>
	</g>
	<g>
		<g>
			<g enable-background="new    ">
				<defs>
					<polygon id="SVGID_12_" enable-background="new    " points="653.5,795.7 710.4,762.6 783.1,804.6 726.1,837.7 					"/>
				</defs>
				<clipPath id="SVGID_13_">
					<use xlink:href="#SVGID_12_"  overflow="visible"/>
				</clipPath>
				<g clip-path="url(#SVGID_13_)">
					<g>
						<g>
							<g>
								<polyline fill="#A4AD60" points="783.1,804.6 710.4,762.6 706.6,764.8 779.3,806.8 783.1,804.6 								"/>
								<polyline fill="#A4AD60" points="775.5,809 702.8,767.1 699,769.3 771.7,811.2 775.5,809 								"/>
								<polyline fill="#A4AD60" points="767.9,813.4 695.2,771.5 691.4,773.7 764.1,815.6 767.9,813.4 								"/>
								<polyline fill="#A4AD60" points="760.3,817.8 687.6,775.9 683.8,778.1 756.5,820 760.3,817.8 								"/>
								<polyline fill="#A4AD60" points="752.7,822.2 680,780.3 676.2,782.5 748.9,824.4 752.7,822.2 								"/>
								<polyline fill="#A4AD60" points="745.1,826.6 672.4,784.7 668.6,786.9 741.3,828.8 745.1,826.6 								"/>
								<polyline fill="#A4AD60" points="737.5,831 664.9,789.1 661.1,791.3 733.7,833.3 737.5,831 								"/>
								<polyline fill="#A4AD60" points="729.9,835.5 657.3,793.5 653.5,795.7 726.1,837.7 729.9,835.5 								"/>
							</g>
						</g>
					</g>
				</g>
			</g>
		</g>
	</g>
	<g>
		<g>
			<g enable-background="new    ">
				<defs>
					<polygon id="SVGID_14_" enable-background="new    " points="633.6,702.5 667.8,682.6 704.7,704 670.6,723.8 					"/>
				</defs>
				<clipPath id="SVGID_15_">
					<use xlink:href="#SVGID_14_"  overflow="visible"/>
				</clipPath>
				<g clip-path="url(#SVGID_15_)">
					<g>
						<g>
							<g>
								<polyline fill="#676B2F" points="704.7,704 667.8,682.6 633.6,702.5 670.6,723.8 704.7,704 								"/>
							</g>
						</g>
					</g>
				</g>
			</g>
		</g>
	</g>
	<g>
		<g>
			<g enable-background="new    ">
				<defs>
					<polygon id="SVGID_16_" enable-background="new    " points="591.1,763.1 685.2,708.4 745.4,743.2 651.3,797.9 					"/>
				</defs>
				<clipPath id="SVGID_17_">
					<use xlink:href="#SVGID_16_"  overflow="visible"/>
				</clipPath>
				<g clip-path="url(#SVGID_17_)">
					<g>
						<g>
							<g>
								<polyline fill="#FFE5A8" points="745.4,743.2 685.2,708.4 591.1,763.1 651.3,797.9 745.4,743.2 								"/>
							</g>
						</g>
					</g>
				</g>
			</g>
		</g>
	</g>
	<g>
		<g>
			<g enable-background="new    ">
				<defs>
					<polygon id="SVGID_18_" enable-background="new    " points="710.8,756.3 800.5,704.2 874,746.7 784.3,798.8 					"/>
				</defs>
				<clipPath id="SVGID_19_">
					<use xlink:href="#SVGID_18_"  overflow="visible"/>
				</clipPath>
				<g clip-path="url(#SVGID_19_)">
					<g>
						<g>
							<g>
								<polyline fill="#676B2F" points="874,746.7 800.5,704.2 710.8,756.3 784.3,798.8 874,746.7 								"/>
							</g>
						</g>
					</g>
				</g>
			</g>
		</g>
	</g>
</g>
<g id="moutons">
	<g>
		<rect x="488.7" y="620.5" width="0.2" height="1.4"/>
		<rect x="489.4" y="620.5" width="0.4" height="1.4"/>
		<rect x="491.3" y="620.5" width="0.2" height="1.4"/>
		<rect x="491.9" y="620.5" width="0.2" height="1.4"/>
		<path fill="#FFFFFF" d="M488,618.1c0,0,0-1,0.7-1.3c0,0,0.9-0.5,1.5,0c0.1,0,0.3-0.5,1.1-0.3c0.2,0.1,0.6,0.2,0.5,0.9
			c0,0,0.5-0.3,0.9,0.2c0.3,0.3,0.4,0.5,0.1,1c0,0,0.4,0.1,0.3,0.7c0,0,0.1,0.3-0.5,0.4c0,0,0.3,0.7-0.3,1.2c0,0-0.8,0.4-1.3-0.1
			c0,0,0,0.5-0.5,0.6c-0.2,0-0.3,0-0.7-0.4c0,0-0.1,0.4-0.8,0.3c-0.3-0.1-0.6-0.2-0.6-0.8c0,0-0.9-0.2-1-1
			C487.5,619.1,487.5,618.5,488,618.1z"/>
		<ellipse cx="488.1" cy="618.5" rx="1.3" ry="1.5"/>
		<path d="M487.1,617.5c0,0-0.8,0.1-1.1,1c0,0,0.2,0.3,0.9,0C486.9,618.5,487.1,617.5,487.1,617.5z"/>
		<path d="M489.1,617.5c0,0,0.8,0.1,1.1,1c0,0-0.2,0.3-0.9,0C489.3,618.5,489.1,617.5,489.1,617.5z"/>
		<circle fill="#FCFCFC" cx="487.5" cy="618.3" r="0.1"/>
		<circle fill="#FCFCFC" cx="488.6" cy="618.3" r="0.1"/>
	</g>
	<g>
		<rect x="493.7" y="622.5" width="0.2" height="1.4"/>
		<rect x="494.4" y="622.5" width="0.4" height="1.4"/>
		<rect x="496.3" y="622.5" width="0.2" height="1.4"/>
		<rect x="496.9" y="622.5" width="0.2" height="1.4"/>
		<path fill="#FFFFFF" d="M493,620.1c0,0,0-1,0.7-1.3c0,0,0.9-0.5,1.5,0c0.1,0,0.3-0.5,1.1-0.3c0.2,0.1,0.6,0.2,0.5,0.9
			c0,0,0.5-0.3,0.9,0.2c0.3,0.3,0.4,0.5,0.1,1c0,0,0.4,0.1,0.3,0.7c0,0,0.1,0.3-0.5,0.4c0,0,0.3,0.7-0.3,1.2c0,0-0.8,0.4-1.3-0.1
			c0,0,0,0.5-0.5,0.6c-0.2,0-0.3,0-0.7-0.4c0,0-0.1,0.4-0.8,0.3c-0.3-0.1-0.6-0.2-0.6-0.8c0,0-0.9-0.2-1-1
			C492.5,621.1,492.5,620.5,493,620.1z"/>
		<ellipse cx="493.1" cy="620.5" rx="1.3" ry="1.5"/>
		<path d="M492.1,619.5c0,0-0.8,0.1-1.1,1c0,0,0.2,0.3,0.9,0C491.9,620.5,492.1,619.5,492.1,619.5z"/>
		<path d="M494.1,619.5c0,0,0.8,0.1,1.1,1c0,0-0.2,0.3-0.9,0C494.3,620.5,494.1,619.5,494.1,619.5z"/>
		<circle fill="#FCFCFC" cx="492.5" cy="620.3" r="0.1"/>
		<circle fill="#FCFCFC" cx="493.6" cy="620.3" r="0.1"/>
	</g>
	<g>
		<rect x="509.7" y="569.5" width="0.2" height="1.4"/>
		<rect x="510.4" y="569.5" width="0.4" height="1.4"/>
		<rect x="512.3" y="569.5" width="0.2" height="1.4"/>
		<rect x="512.9" y="569.5" width="0.2" height="1.4"/>
		<path fill="#FFFFFF" d="M509,567.1c0,0,0-1,0.7-1.3c0,0,0.9-0.5,1.5,0c0.1,0,0.3-0.5,1.1-0.3c0.2,0.1,0.6,0.2,0.5,0.9
			c0,0,0.5-0.3,0.9,0.2c0.3,0.3,0.4,0.5,0.1,1c0,0,0.4,0.1,0.3,0.7c0,0,0.1,0.3-0.5,0.4c0,0,0.3,0.7-0.3,1.2c0,0-0.8,0.4-1.3-0.1
			c0,0,0,0.5-0.5,0.6c-0.2,0-0.3,0-0.7-0.4c0,0-0.1,0.4-0.8,0.3c-0.3-0.1-0.6-0.2-0.6-0.8c0,0-0.9-0.2-1-1
			C508.5,568.1,508.5,567.5,509,567.1z"/>
		<ellipse cx="509.1" cy="567.5" rx="1.3" ry="1.5"/>
		<path d="M508.1,566.5c0,0-0.8,0.1-1.1,1c0,0,0.2,0.3,0.9,0C507.9,567.5,508.1,566.5,508.1,566.5z"/>
		<path d="M510.1,566.5c0,0,0.8,0.1,1.1,1c0,0-0.2,0.3-0.9,0C510.3,567.5,510.1,566.5,510.1,566.5z"/>
		<circle fill="#FCFCFC" cx="508.5" cy="567.3" r="0.1"/>
		<circle fill="#FCFCFC" cx="509.6" cy="567.3" r="0.1"/>
	</g>
	<g>
		<rect x="531.2" y="581.5" width="0.2" height="1.4"/>
		<rect x="530.4" y="581.5" width="0.4" height="1.4"/>
		<rect x="528.6" y="581.5" width="0.2" height="1.4"/>
		<rect x="528" y="581.5" width="0.2" height="1.4"/>
		<path fill="#FFFFFF" d="M532.2,579.1c0,0,0-1-0.7-1.3c0,0-0.9-0.5-1.5,0c-0.1,0-0.3-0.5-1.1-0.3c-0.2,0.1-0.6,0.2-0.5,0.9
			c0,0-0.5-0.3-0.9,0.2c-0.3,0.3-0.4,0.5-0.1,1c0,0-0.4,0.1-0.3,0.7c0,0-0.1,0.3,0.5,0.4c0,0-0.3,0.7,0.3,1.2c0,0,0.8,0.4,1.3-0.1
			c0,0,0,0.5,0.5,0.6c0.2,0,0.3,0,0.7-0.4c0,0,0.1,0.4,0.8,0.3c0.3-0.1,0.6-0.2,0.6-0.8c0,0,0.9-0.2,1-1
			C532.6,580.1,532.6,579.5,532.2,579.1z"/>
		<ellipse cx="532.1" cy="579.5" rx="1.3" ry="1.5"/>
		<path d="M533,578.5c0,0,0.8,0.1,1.1,1c0,0-0.2,0.3-0.9,0C533.3,579.5,533,578.5,533,578.5z"/>
		<path d="M531.1,578.5c0,0-0.8,0.1-1.1,1c0,0,0.2,0.3,0.9,0C530.8,579.5,531.1,578.5,531.1,578.5z"/>
		<circle fill="#FCFCFC" cx="532.7" cy="579.3" r="0.1"/>
		<circle fill="#FCFCFC" cx="531.5" cy="579.3" r="0.1"/>
	</g>
	<g>
		<rect x="540.2" y="542.5" width="0.2" height="1.4"/>
		<rect x="539.4" y="542.5" width="0.4" height="1.4"/>
		<rect x="537.6" y="542.5" width="0.2" height="1.4"/>
		<rect x="537" y="542.5" width="0.2" height="1.4"/>
		<path fill="#FFFFFF" d="M541.2,540.1c0,0,0-1-0.7-1.3c0,0-0.9-0.5-1.5,0c-0.1,0-0.3-0.5-1.1-0.3c-0.2,0.1-0.6,0.2-0.5,0.9
			c0,0-0.5-0.3-0.9,0.2c-0.3,0.3-0.4,0.5-0.1,1c0,0-0.4,0.1-0.3,0.7c0,0-0.1,0.3,0.5,0.4c0,0-0.3,0.7,0.3,1.2c0,0,0.8,0.4,1.3-0.1
			c0,0,0,0.5,0.5,0.6c0.2,0,0.3,0,0.7-0.4c0,0,0.1,0.4,0.8,0.3c0.3-0.1,0.6-0.2,0.6-0.8c0,0,0.9-0.2,1-1
			C541.6,541.1,541.6,540.5,541.2,540.1z"/>
		<ellipse cx="541.1" cy="540.5" rx="1.3" ry="1.5"/>
		<path d="M542,539.5c0,0,0.8,0.1,1.1,1c0,0-0.2,0.3-0.9,0C542.3,540.5,542,539.5,542,539.5z"/>
		<path d="M540.1,539.5c0,0-0.8,0.1-1.1,1c0,0,0.2,0.3,0.9,0C539.8,540.5,540.1,539.5,540.1,539.5z"/>
		<circle fill="#FCFCFC" cx="541.7" cy="540.3" r="0.1"/>
		<circle fill="#FCFCFC" cx="540.5" cy="540.3" r="0.1"/>
	</g>
	<g>
		<rect x="603.7" y="617.5" width="0.2" height="1.4"/>
		<rect x="604.4" y="617.5" width="0.4" height="1.4"/>
		<rect x="606.3" y="617.5" width="0.2" height="1.4"/>
		<rect x="606.9" y="617.5" width="0.2" height="1.4"/>
		<path fill="#FFFFFF" d="M603,615.1c0,0,0-1,0.7-1.3c0,0,0.9-0.5,1.5,0c0.1,0,0.3-0.5,1.1-0.3c0.2,0.1,0.6,0.2,0.5,0.9
			c0,0,0.5-0.3,0.9,0.2c0.3,0.3,0.4,0.5,0.1,1c0,0,0.4,0.1,0.3,0.7c0,0,0.1,0.3-0.5,0.4c0,0,0.3,0.7-0.3,1.2c0,0-0.8,0.4-1.3-0.1
			c0,0,0,0.5-0.5,0.6c-0.2,0-0.3,0-0.7-0.4c0,0-0.1,0.4-0.8,0.3c-0.3-0.1-0.6-0.2-0.6-0.8c0,0-0.9-0.2-1-1
			C602.5,616.1,602.5,615.5,603,615.1z"/>
		<ellipse cx="603.1" cy="615.5" rx="1.3" ry="1.5"/>
		<path d="M602.1,614.5c0,0-0.8,0.1-1.1,1c0,0,0.2,0.3,0.9,0C601.9,615.5,602.1,614.5,602.1,614.5z"/>
		<path d="M604.1,614.5c0,0,0.8,0.1,1.1,1c0,0-0.2,0.3-0.9,0C604.3,615.5,604.1,614.5,604.1,614.5z"/>
		<circle fill="#FCFCFC" cx="602.5" cy="615.3" r="0.1"/>
		<circle fill="#FCFCFC" cx="603.6" cy="615.3" r="0.1"/>
	</g>
	<g>
		<rect x="599.2" y="614.5" width="0.2" height="1.4"/>
		<rect x="598.4" y="614.5" width="0.4" height="1.4"/>
		<rect x="596.6" y="614.5" width="0.2" height="1.4"/>
		<rect x="596" y="614.5" width="0.2" height="1.4"/>
		<path fill="#FFFFFF" d="M600.2,612.1c0,0,0-1-0.7-1.3c0,0-0.9-0.5-1.5,0c-0.1,0-0.3-0.5-1.1-0.3c-0.2,0.1-0.6,0.2-0.5,0.9
			c0,0-0.5-0.3-0.9,0.2c-0.3,0.3-0.4,0.5-0.1,1c0,0-0.4,0.1-0.3,0.7c0,0-0.1,0.3,0.5,0.4c0,0-0.3,0.7,0.3,1.2c0,0,0.8,0.4,1.3-0.1
			c0,0,0,0.5,0.5,0.6c0.2,0,0.3,0,0.7-0.4c0,0,0.1,0.4,0.8,0.3c0.3-0.1,0.6-0.2,0.6-0.8c0,0,0.9-0.2,1-1
			C600.6,613.1,600.6,612.5,600.2,612.1z"/>
		<ellipse cx="600.1" cy="612.5" rx="1.3" ry="1.5"/>
		<path d="M601,611.5c0,0,0.8,0.1,1.1,1c0,0-0.2,0.3-0.9,0C601.3,612.5,601,611.5,601,611.5z"/>
		<path d="M599.1,611.5c0,0-0.8,0.1-1.1,1c0,0,0.2,0.3,0.9,0C598.8,612.5,599.1,611.5,599.1,611.5z"/>
		<circle fill="#FCFCFC" cx="600.7" cy="612.3" r="0.1"/>
		<circle fill="#FCFCFC" cx="599.5" cy="612.3" r="0.1"/>
	</g>
	<g>
		<rect x="486.7" y="635.5" width="0.2" height="1.4"/>
		<rect x="487.4" y="635.5" width="0.4" height="1.4"/>
		<rect x="489.3" y="635.5" width="0.2" height="1.4"/>
		<rect x="489.9" y="635.5" width="0.2" height="1.4"/>
		<path fill="#FFFFFF" d="M486,633.1c0,0,0-1,0.7-1.3c0,0,0.9-0.5,1.5,0c0.1,0,0.3-0.5,1.1-0.3c0.2,0.1,0.6,0.2,0.5,0.9
			c0,0,0.5-0.3,0.9,0.2c0.3,0.3,0.4,0.5,0.1,1c0,0,0.4,0.1,0.3,0.7c0,0,0.1,0.3-0.5,0.4c0,0,0.3,0.7-0.3,1.2c0,0-0.8,0.4-1.3-0.1
			c0,0,0,0.5-0.5,0.6c-0.2,0-0.3,0-0.7-0.4c0,0-0.1,0.4-0.8,0.3c-0.3-0.1-0.6-0.2-0.6-0.8c0,0-0.9-0.2-1-1
			C485.5,634.1,485.5,633.5,486,633.1z"/>
		<ellipse cx="486.1" cy="633.5" rx="1.3" ry="1.5"/>
		<path d="M485.1,632.5c0,0-0.8,0.1-1.1,1c0,0,0.2,0.3,0.9,0C484.9,633.5,485.1,632.5,485.1,632.5z"/>
		<path d="M487.1,632.5c0,0,0.8,0.1,1.1,1c0,0-0.2,0.3-0.9,0C487.3,633.5,487.1,632.5,487.1,632.5z"/>
		<circle fill="#FCFCFC" cx="485.5" cy="633.3" r="0.1"/>
		<circle fill="#FCFCFC" cx="486.6" cy="633.3" r="0.1"/>
	</g>
	<g>
		<rect x="483.2" y="628.5" width="0.2" height="1.4"/>
		<rect x="482.4" y="628.5" width="0.4" height="1.4"/>
		<rect x="480.6" y="628.5" width="0.2" height="1.4"/>
		<rect x="480" y="628.5" width="0.2" height="1.4"/>
		<path fill="#FFFFFF" d="M484.2,626.1c0,0,0-1-0.7-1.3c0,0-0.9-0.5-1.5,0c-0.1,0-0.3-0.5-1.1-0.3c-0.2,0.1-0.6,0.2-0.5,0.9
			c0,0-0.5-0.3-0.9,0.2c-0.3,0.3-0.4,0.5-0.1,1c0,0-0.4,0.1-0.3,0.7c0,0-0.1,0.3,0.5,0.4c0,0-0.3,0.7,0.3,1.2c0,0,0.8,0.4,1.3-0.1
			c0,0,0,0.5,0.5,0.6c0.2,0,0.3,0,0.7-0.4c0,0,0.1,0.4,0.8,0.3c0.3-0.1,0.6-0.2,0.6-0.8c0,0,0.9-0.2,1-1
			C484.6,627.1,484.6,626.5,484.2,626.1z"/>
		<ellipse cx="484.1" cy="626.5" rx="1.3" ry="1.5"/>
		<path d="M485,625.5c0,0,0.8,0.1,1.1,1c0,0-0.2,0.3-0.9,0C485.3,626.5,485,625.5,485,625.5z"/>
		<path d="M483.1,625.5c0,0-0.8,0.1-1.1,1c0,0,0.2,0.3,0.9,0C482.8,626.5,483.1,625.5,483.1,625.5z"/>
		<circle fill="#FCFCFC" cx="484.7" cy="626.3" r="0.1"/>
		<circle fill="#FCFCFC" cx="483.5" cy="626.3" r="0.1"/>
	</g>
	<g>
		<rect x="477.2" y="623.5" width="0.2" height="1.4"/>
		<rect x="476.4" y="623.5" width="0.4" height="1.4"/>
		<rect x="474.6" y="623.5" width="0.2" height="1.4"/>
		<rect x="474" y="623.5" width="0.2" height="1.4"/>
		<path fill="#FFFFFF" d="M478.2,621.1c0,0,0-1-0.7-1.3c0,0-0.9-0.5-1.5,0c-0.1,0-0.3-0.5-1.1-0.3c-0.2,0.1-0.6,0.2-0.5,0.9
			c0,0-0.5-0.3-0.9,0.2c-0.3,0.3-0.4,0.5-0.1,1c0,0-0.4,0.1-0.3,0.7c0,0-0.1,0.3,0.5,0.4c0,0-0.3,0.7,0.3,1.2c0,0,0.8,0.4,1.3-0.1
			c0,0,0,0.5,0.5,0.6c0.2,0,0.3,0,0.7-0.4c0,0,0.1,0.4,0.8,0.3c0.3-0.1,0.6-0.2,0.6-0.8c0,0,0.9-0.2,1-1
			C478.6,622.1,478.6,621.5,478.2,621.1z"/>
		<ellipse cx="478.1" cy="621.5" rx="1.3" ry="1.5"/>
		<path d="M479,620.5c0,0,0.8,0.1,1.1,1c0,0-0.2,0.3-0.9,0C479.3,621.5,479,620.5,479,620.5z"/>
		<path d="M477.1,620.5c0,0-0.8,0.1-1.1,1c0,0,0.2,0.3,0.9,0C476.8,621.5,477.1,620.5,477.1,620.5z"/>
		<circle fill="#FCFCFC" cx="478.7" cy="621.3" r="0.1"/>
		<circle fill="#FCFCFC" cx="477.5" cy="621.3" r="0.1"/>
	</g>
	<g>
		<rect x="470.2" y="628.5" width="0.2" height="1.4"/>
		<rect x="469.4" y="628.5" width="0.4" height="1.4"/>
		<rect x="467.6" y="628.5" width="0.2" height="1.4"/>
		<rect x="467" y="628.5" width="0.2" height="1.4"/>
		<path fill="#FFFFFF" d="M471.2,626.1c0,0,0-1-0.7-1.3c0,0-0.9-0.5-1.5,0c-0.1,0-0.3-0.5-1.1-0.3c-0.2,0.1-0.6,0.2-0.5,0.9
			c0,0-0.5-0.3-0.9,0.2c-0.3,0.3-0.4,0.5-0.1,1c0,0-0.4,0.1-0.3,0.7c0,0-0.1,0.3,0.5,0.4c0,0-0.3,0.7,0.3,1.2c0,0,0.8,0.4,1.3-0.1
			c0,0,0,0.5,0.5,0.6c0.2,0,0.3,0,0.7-0.4c0,0,0.1,0.4,0.8,0.3c0.3-0.1,0.6-0.2,0.6-0.8c0,0,0.9-0.2,1-1
			C471.6,627.1,471.6,626.5,471.2,626.1z"/>
		<ellipse cx="471.1" cy="626.5" rx="1.3" ry="1.5"/>
		<path d="M472,625.5c0,0,0.8,0.1,1.1,1c0,0-0.2,0.3-0.9,0C472.3,626.5,472,625.5,472,625.5z"/>
		<path d="M470.1,625.5c0,0-0.8,0.1-1.1,1c0,0,0.2,0.3,0.9,0C469.8,626.5,470.1,625.5,470.1,625.5z"/>
		<circle fill="#FCFCFC" cx="471.7" cy="626.3" r="0.1"/>
		<circle fill="#FCFCFC" cx="470.5" cy="626.3" r="0.1"/>
	</g>
	<g>
		<rect x="497.7" y="639.5" width="0.2" height="1.4"/>
		<rect x="498.4" y="639.5" width="0.4" height="1.4"/>
		<rect x="500.3" y="639.5" width="0.2" height="1.4"/>
		<rect x="500.9" y="639.5" width="0.2" height="1.4"/>
		<path fill="#FFFFFF" d="M497,637.1c0,0,0-1,0.7-1.3c0,0,0.9-0.5,1.5,0c0.1,0,0.3-0.5,1.1-0.3c0.2,0.1,0.6,0.2,0.5,0.9
			c0,0,0.5-0.3,0.9,0.2c0.3,0.3,0.4,0.5,0.1,1c0,0,0.4,0.1,0.3,0.7c0,0,0.1,0.3-0.5,0.4c0,0,0.3,0.7-0.3,1.2c0,0-0.8,0.4-1.3-0.1
			c0,0,0,0.5-0.5,0.6c-0.2,0-0.3,0-0.7-0.4c0,0-0.1,0.4-0.8,0.3c-0.3-0.1-0.6-0.2-0.6-0.8c0,0-0.9-0.2-1-1
			C496.5,638.1,496.5,637.5,497,637.1z"/>
		<ellipse cx="497.1" cy="637.5" rx="1.3" ry="1.5"/>
		<path d="M496.1,636.5c0,0-0.8,0.1-1.1,1c0,0,0.2,0.3,0.9,0C495.9,637.5,496.1,636.5,496.1,636.5z"/>
		<path d="M498.1,636.5c0,0,0.8,0.1,1.1,1c0,0-0.2,0.3-0.9,0C498.3,637.5,498.1,636.5,498.1,636.5z"/>
		<circle fill="#FCFCFC" cx="496.5" cy="637.3" r="0.1"/>
		<circle fill="#FCFCFC" cx="497.6" cy="637.3" r="0.1"/>
	</g>
	<g>
		<rect x="501.2" y="631.5" width="0.2" height="1.4"/>
		<rect x="500.4" y="631.5" width="0.4" height="1.4"/>
		<rect x="498.6" y="631.5" width="0.2" height="1.4"/>
		<rect x="498" y="631.5" width="0.2" height="1.4"/>
		<path fill="#FFFFFF" d="M502.2,629.1c0,0,0-1-0.7-1.3c0,0-0.9-0.5-1.5,0c-0.1,0-0.3-0.5-1.1-0.3c-0.2,0.1-0.6,0.2-0.5,0.9
			c0,0-0.5-0.3-0.9,0.2c-0.3,0.3-0.4,0.5-0.1,1c0,0-0.4,0.1-0.3,0.7c0,0-0.1,0.3,0.5,0.4c0,0-0.3,0.7,0.3,1.2c0,0,0.8,0.4,1.3-0.1
			c0,0,0,0.5,0.5,0.6c0.2,0,0.3,0,0.7-0.4c0,0,0.1,0.4,0.8,0.3c0.3-0.1,0.6-0.2,0.6-0.8c0,0,0.9-0.2,1-1
			C502.6,630.1,502.6,629.5,502.2,629.1z"/>
		<ellipse cx="502.1" cy="629.5" rx="1.3" ry="1.5"/>
		<path d="M503,628.5c0,0,0.8,0.1,1.1,1c0,0-0.2,0.3-0.9,0C503.3,629.5,503,628.5,503,628.5z"/>
		<path d="M501.1,628.5c0,0-0.8,0.1-1.1,1c0,0,0.2,0.3,0.9,0C500.8,629.5,501.1,628.5,501.1,628.5z"/>
		<circle fill="#FCFCFC" cx="502.7" cy="629.3" r="0.1"/>
		<circle fill="#FCFCFC" cx="501.5" cy="629.3" r="0.1"/>
	</g>
	<g>
		<rect x="493.7" y="656.5" width="0.2" height="1.4"/>
		<rect x="494.4" y="656.5" width="0.4" height="1.4"/>
		<rect x="496.3" y="656.5" width="0.2" height="1.4"/>
		<rect x="496.9" y="656.5" width="0.2" height="1.4"/>
		<path fill="#FFFFFF" d="M493,654.1c0,0,0-1,0.7-1.3c0,0,0.9-0.5,1.5,0c0.1,0,0.3-0.5,1.1-0.3c0.2,0.1,0.6,0.2,0.5,0.9
			c0,0,0.5-0.3,0.9,0.2c0.3,0.3,0.4,0.5,0.1,1c0,0,0.4,0.1,0.3,0.7c0,0,0.1,0.3-0.5,0.4c0,0,0.3,0.7-0.3,1.2c0,0-0.8,0.4-1.3-0.1
			c0,0,0,0.5-0.5,0.6c-0.2,0-0.3,0-0.7-0.4c0,0-0.1,0.4-0.8,0.3c-0.3-0.1-0.6-0.2-0.6-0.8c0,0-0.9-0.2-1-1
			C492.5,655.1,492.5,654.5,493,654.1z"/>
		<ellipse cx="493.1" cy="654.5" rx="1.3" ry="1.5"/>
		<path d="M492.1,653.5c0,0-0.8,0.1-1.1,1c0,0,0.2,0.3,0.9,0C491.9,654.5,492.1,653.5,492.1,653.5z"/>
		<path d="M494.1,653.5c0,0,0.8,0.1,1.1,1c0,0-0.2,0.3-0.9,0C494.3,654.5,494.1,653.5,494.1,653.5z"/>
		<circle fill="#FCFCFC" cx="492.5" cy="654.3" r="0.1"/>
		<circle fill="#FCFCFC" cx="493.6" cy="654.3" r="0.1"/>
	</g>
	<g>
		<rect x="402.2" y="616.5" width="0.2" height="1.4"/>
		<rect x="401.4" y="616.5" width="0.4" height="1.4"/>
		<rect x="399.6" y="616.5" width="0.2" height="1.4"/>
		<rect x="399" y="616.5" width="0.2" height="1.4"/>
		<path fill="#FFFFFF" d="M403.2,614.1c0,0,0-1-0.7-1.3c0,0-0.9-0.5-1.5,0c-0.1,0-0.3-0.5-1.1-0.3c-0.2,0.1-0.6,0.2-0.5,0.9
			c0,0-0.5-0.3-0.9,0.2c-0.3,0.3-0.4,0.5-0.1,1c0,0-0.4,0.1-0.3,0.7c0,0-0.1,0.3,0.5,0.4c0,0-0.3,0.7,0.3,1.2c0,0,0.8,0.4,1.3-0.1
			c0,0,0,0.5,0.5,0.6c0.2,0,0.3,0,0.7-0.4c0,0,0.1,0.4,0.8,0.3c0.3-0.1,0.6-0.2,0.6-0.8c0,0,0.9-0.2,1-1
			C403.6,615.1,403.6,614.5,403.2,614.1z"/>
		<ellipse cx="403.1" cy="614.5" rx="1.3" ry="1.5"/>
		<path d="M404,613.5c0,0,0.8,0.1,1.1,1c0,0-0.2,0.3-0.9,0C404.3,614.5,404,613.5,404,613.5z"/>
		<path d="M402.1,613.5c0,0-0.8,0.1-1.1,1c0,0,0.2,0.3,0.9,0C401.8,614.5,402.1,613.5,402.1,613.5z"/>
		<circle fill="#FCFCFC" cx="403.7" cy="614.3" r="0.1"/>
		<circle fill="#FCFCFC" cx="402.5" cy="614.3" r="0.1"/>
	</g>
	<g>
		<rect x="484.2" y="644.5" width="0.2" height="1.4"/>
		<rect x="483.4" y="644.5" width="0.4" height="1.4"/>
		<rect x="481.6" y="644.5" width="0.2" height="1.4"/>
		<rect x="481" y="644.5" width="0.2" height="1.4"/>
		<path fill="#FFFFFF" d="M485.2,642.1c0,0,0-1-0.7-1.3c0,0-0.9-0.5-1.5,0c-0.1,0-0.3-0.5-1.1-0.3c-0.2,0.1-0.6,0.2-0.5,0.9
			c0,0-0.5-0.3-0.9,0.2c-0.3,0.3-0.4,0.5-0.1,1c0,0-0.4,0.1-0.3,0.7c0,0-0.1,0.3,0.5,0.4c0,0-0.3,0.7,0.3,1.2c0,0,0.8,0.4,1.3-0.1
			c0,0,0,0.5,0.5,0.6c0.2,0,0.3,0,0.7-0.4c0,0,0.1,0.4,0.8,0.3c0.3-0.1,0.6-0.2,0.6-0.8c0,0,0.9-0.2,1-1
			C485.6,643.1,485.6,642.5,485.2,642.1z"/>
		<ellipse cx="485.1" cy="642.5" rx="1.3" ry="1.5"/>
		<path d="M486,641.5c0,0,0.8,0.1,1.1,1c0,0-0.2,0.3-0.9,0C486.3,642.5,486,641.5,486,641.5z"/>
		<path d="M484.1,641.5c0,0-0.8,0.1-1.1,1c0,0,0.2,0.3,0.9,0C483.8,642.5,484.1,641.5,484.1,641.5z"/>
		<circle fill="#FCFCFC" cx="485.7" cy="642.3" r="0.1"/>
		<circle fill="#FCFCFC" cx="484.5" cy="642.3" r="0.1"/>
	</g>
	<g>
		<rect x="477.2" y="649.5" width="0.2" height="1.4"/>
		<rect x="476.4" y="649.5" width="0.4" height="1.4"/>
		<rect x="474.6" y="649.5" width="0.2" height="1.4"/>
		<rect x="474" y="649.5" width="0.2" height="1.4"/>
		<path fill="#FFFFFF" d="M478.2,647.1c0,0,0-1-0.7-1.3c0,0-0.9-0.5-1.5,0c-0.1,0-0.3-0.5-1.1-0.3c-0.2,0.1-0.6,0.2-0.5,0.9
			c0,0-0.5-0.3-0.9,0.2c-0.3,0.3-0.4,0.5-0.1,1c0,0-0.4,0.1-0.3,0.7c0,0-0.1,0.3,0.5,0.4c0,0-0.3,0.7,0.3,1.2c0,0,0.8,0.4,1.3-0.1
			c0,0,0,0.5,0.5,0.6c0.2,0,0.3,0,0.7-0.4c0,0,0.1,0.4,0.8,0.3c0.3-0.1,0.6-0.2,0.6-0.8c0,0,0.9-0.2,1-1
			C478.6,648.1,478.6,647.5,478.2,647.1z"/>
		<ellipse cx="478.1" cy="647.5" rx="1.3" ry="1.5"/>
		<path d="M479,646.5c0,0,0.8,0.1,1.1,1c0,0-0.2,0.3-0.9,0C479.3,647.5,479,646.5,479,646.5z"/>
		<path d="M477.1,646.5c0,0-0.8,0.1-1.1,1c0,0,0.2,0.3,0.9,0C476.8,647.5,477.1,646.5,477.1,646.5z"/>
		<circle fill="#FCFCFC" cx="478.7" cy="647.3" r="0.1"/>
		<circle fill="#FCFCFC" cx="477.5" cy="647.3" r="0.1"/>
	</g>
	<g>
		<rect x="504.7" y="660.5" width="0.2" height="1.4"/>
		<rect x="505.4" y="660.5" width="0.4" height="1.4"/>
		<rect x="507.3" y="660.5" width="0.2" height="1.4"/>
		<rect x="507.9" y="660.5" width="0.2" height="1.4"/>
		<path fill="#FFFFFF" d="M504,658.1c0,0,0-1,0.7-1.3c0,0,0.9-0.5,1.5,0c0.1,0,0.3-0.5,1.1-0.3c0.2,0.1,0.6,0.2,0.5,0.9
			c0,0,0.5-0.3,0.9,0.2c0.3,0.3,0.4,0.5,0.1,1c0,0,0.4,0.1,0.3,0.7c0,0,0.1,0.3-0.5,0.4c0,0,0.3,0.7-0.3,1.2c0,0-0.8,0.4-1.3-0.1
			c0,0,0,0.5-0.5,0.6c-0.2,0-0.3,0-0.7-0.4c0,0-0.1,0.4-0.8,0.3c-0.3-0.1-0.6-0.2-0.6-0.8c0,0-0.9-0.2-1-1
			C503.5,659.1,503.5,658.5,504,658.1z"/>
		<ellipse cx="504.1" cy="658.5" rx="1.3" ry="1.5"/>
		<path d="M503.1,657.5c0,0-0.8,0.1-1.1,1c0,0,0.2,0.3,0.9,0C502.9,658.5,503.1,657.5,503.1,657.5z"/>
		<path d="M505.1,657.5c0,0,0.8,0.1,1.1,1c0,0-0.2,0.3-0.9,0C505.3,658.5,505.1,657.5,505.1,657.5z"/>
		<circle fill="#FCFCFC" cx="503.5" cy="658.3" r="0.1"/>
		<circle fill="#FCFCFC" cx="504.6" cy="658.3" r="0.1"/>
	</g>
	<g>
		<rect x="508.2" y="652.5" width="0.2" height="1.4"/>
		<rect x="507.4" y="652.5" width="0.4" height="1.4"/>
		<rect x="505.6" y="652.5" width="0.2" height="1.4"/>
		<rect x="505" y="652.5" width="0.2" height="1.4"/>
		<path fill="#FFFFFF" d="M509.2,650.1c0,0,0-1-0.7-1.3c0,0-0.9-0.5-1.5,0c-0.1,0-0.3-0.5-1.1-0.3c-0.2,0.1-0.6,0.2-0.5,0.9
			c0,0-0.5-0.3-0.9,0.2c-0.3,0.3-0.4,0.5-0.1,1c0,0-0.4,0.1-0.3,0.7c0,0-0.1,0.3,0.5,0.4c0,0-0.3,0.7,0.3,1.2c0,0,0.8,0.4,1.3-0.1
			c0,0,0,0.5,0.5,0.6c0.2,0,0.3,0,0.7-0.4c0,0,0.1,0.4,0.8,0.3c0.3-0.1,0.6-0.2,0.6-0.8c0,0,0.9-0.2,1-1
			C509.6,651.1,509.6,650.5,509.2,650.1z"/>
		<ellipse cx="509.1" cy="650.5" rx="1.3" ry="1.5"/>
		<path d="M510,649.5c0,0,0.8,0.1,1.1,1c0,0-0.2,0.3-0.9,0C510.3,650.5,510,649.5,510,649.5z"/>
		<path d="M508.1,649.5c0,0-0.8,0.1-1.1,1c0,0,0.2,0.3,0.9,0C507.8,650.5,508.1,649.5,508.1,649.5z"/>
		<circle fill="#FCFCFC" cx="509.7" cy="650.3" r="0.1"/>
		<circle fill="#FCFCFC" cx="508.5" cy="650.3" r="0.1"/>
	</g>
</g>
</svg>
