<?xml version="1.0" encoding="utf-8"?>
<!-- Generator: Adobe Illustrator 19.0.1, SVG Export Plug-In . SVG Version: 6.00 Build 0)  -->
<svg version="1.1" id="Calque_1" xmlns="http://www.w3.org/2000/svg" xmlns:xlink="http://www.w3.org/1999/xlink" x="0px" y="0px"
	 viewBox="0 0 1440 875.8" style="enable-background:new 0 0 1440 875.8;" xml:space="preserve">
<style type="text/css">
	.st0{enable-background:new    ;}
	.st1{fill:#0066AE;}
	.st2{fill:#3F3F3F;}
	.st3{fill:#FFFFFF;}
	.st4{fill:#F5967F;}
	.st5{fill:#43A4C9;}
	.st6{fill:#CEDA91;}
	.st7{fill:#F1526B;}
	.st8{fill:#F4A798;}
	.st9{fill:#FCDBD4;}
	.st10{fill:#A7B986;}
	.st11{fill:#859E58;}
	.st12{fill:#789345;}
	.st13{fill:#9EB179;}
	.st14{fill:#7E984D;}
	.st15{fill:#D5DEC6;}
	.st16{fill:#7D974D;}
	.st17{clip-path:url(#SVGID_2_);fill:#FFFFFF;}
	.st18{clip-path:url(#SVGID_2_);fill:#7E984D;}
	.st19{clip-path:url(#SVGID_4_);fill:#F1526B;}
	.st20{fill:#CCCCCC;}
	.st21{fill:#D9D9D9;}
	.st22{clip-path:url(#SVGID_6_);}
	.st23{fill:#FFBD6A;}
	.st24{fill:#FFDD8E;}
	.st25{fill:#FFF5D4;}
	.st26{fill:#E8E8E8;}
	.st27{fill:#97D2E8;}
	.st28{fill:#EDF6F9;}
	.st29{fill:#FFCABE;}
	.st30{fill:#FFE29D;}
	.st31{fill:#9BC183;}
	.st32{fill:#89774C;}
	.st33{clip-path:url(#SVGID_8_);}
	.st34{fill:#C9D8A3;}
	.st35{fill:#E5E5E5;}
	.st36{clip-path:url(#SVGID_10_);fill:#F1526B;}
	.st37{clip-path:url(#SVGID_12_);enable-background:new    ;}
	.st38{fill:#C2C2C2;}
	.st39{fill:#C4C4C4;}
	.st40{fill:#C7C7C7;}
	.st41{fill:#C9C9C9;}
	.st42{fill:#CFCFCF;}
	.st43{fill:#D1D1D1;}
	.st44{fill:#D4D4D4;}
	.st45{fill:#D6D6D6;}
	.st46{fill:#DBDBDB;}
	.st47{fill:#DEDEDE;}
	.st48{fill:#E0E0E0;}
	.st49{fill:#E3E3E3;}
	.st50{fill:#E6E6E6;}
	.st51{fill:#EBEBEB;}
	.st52{fill:#EDEDED;}
	.st53{fill:#F0F0F0;}
	.st54{fill:#F2F2F2;}
	.st55{fill:#F5F5F5;}
	.st56{fill:#D3D3D3;}
	.st57{fill:none;stroke:#444444;stroke-width:0.2;stroke-miterlimit:10;}
	.st58{clip-path:url(#SVGID_14_);enable-background:new    ;}
	.st59{clip-path:url(#SVGID_16_);fill:none;stroke:#444444;stroke-width:0.25;stroke-miterlimit:10;}
	.st60{clip-path:url(#SVGID_18_);}
	.st61{clip-path:url(#SVGID_20_);}
	.st62{clip-path:url(#SVGID_22_);}
	.st63{clip-path:url(#SVGID_24_);}
	.st64{fill:#C4576C;}
	.st65{clip-path:url(#SVGID_26_);}
	.st66{clip-path:url(#SVGID_28_);}
	.st67{clip-path:url(#SVGID_30_);}
	.st68{clip-path:url(#SVGID_32_);}
	.st69{clip-path:url(#SVGID_34_);}
	.st70{clip-path:url(#SVGID_36_);}
	.st71{clip-path:url(#SVGID_38_);}
	.st72{clip-path:url(#SVGID_40_);}
	.st73{clip-path:url(#SVGID_42_);}
	.st74{clip-path:url(#SVGID_44_);}
	.st75{clip-path:url(#SVGID_46_);}
	.st76{clip-path:url(#SVGID_48_);}
	.st77{clip-path:url(#SVGID_50_);}
	.st78{clip-path:url(#SVGID_52_);}
	.st79{clip-path:url(#SVGID_54_);}
	.st80{clip-path:url(#SVGID_56_);}
	.st81{fill:#BCE5EC;}
	.st82{clip-path:url(#SVGID_57_);fill:#4C4C4C;}
	.st83{clip-path:url(#SVGID_58_);fill:#4C4C4C;}
	.st84{fill:#FEE2AA;}
	.st85{clip-path:url(#SVGID_60_);enable-background:new    ;}
	.st86{fill:#FEE6B8;}
	.st87{fill:#FEE5B3;}
	.st88{fill:#FEE4AE;}
	.st89{clip-path:url(#SVGID_62_);enable-background:new    ;}
	.st90{fill:#FDFDFD;}
	.st91{fill:#FCFCFC;}
	.st92{fill:#FCFBF7;}
	.st93{fill:#FCF9F3;}
	.st94{fill:#FCF8EE;}
	.st95{fill:#FCF6EA;}
	.st96{fill:#FDF5E5;}
	.st97{fill:#FDF3E1;}
	.st98{fill:#FDF2DC;}
	.st99{fill:#FDF0D8;}
	.st100{fill:#FDEFD3;}
	.st101{fill:#FFD07D;}
	.st102{fill:#FDEFD2;}
	.st103{clip-path:url(#SVGID_64_);fill:#4C4C4C;}
	.st104{clip-path:url(#SVGID_66_);fill:#4C4C4C;}
	.st105{fill:#4C4C4C;}
	.st106{clip-path:url(#SVGID_67_);fill:#F5967F;}
	.st107{clip-path:url(#SVGID_68_);fill:#F5967F;}
	.st108{clip-path:url(#SVGID_69_);fill:#FFD07D;}
	.st109{clip-path:url(#SVGID_70_);fill:#FFD07D;}
	.st110{clip-path:url(#SVGID_71_);}
	.st111{clip-path:url(#SVGID_72_);}
	.st112{fill:#F8B9AA;}
	.st113{clip-path:url(#SVGID_74_);enable-background:new    ;}
	.st114{clip-path:url(#SVGID_76_);enable-background:new    ;}
	.st115{fill:#FEF4F2;}
	.st116{fill:#DD7B6B;}
	.st117{clip-path:url(#SVGID_78_);}
	.st118{clip-path:url(#SVGID_80_);}
	.st119{clip-path:url(#SVGID_81_);}
	.st120{clip-path:url(#SVGID_82_);}
	.st121{clip-path:url(#SVGID_83_);}
	.st122{clip-path:url(#SVGID_84_);}
	.st123{clip-path:url(#SVGID_85_);}
	.st124{clip-path:url(#SVGID_86_);}
	.st125{fill:#C8E5EE;}
	.st126{clip-path:url(#SVGID_88_);enable-background:new    ;}
	.st127{clip-path:url(#SVGID_90_);enable-background:new    ;}
	.st128{fill:#F6FBFC;}
	.st129{fill:#8FC5D1;}
	.st130{clip-path:url(#SVGID_92_);}
	.st131{clip-path:url(#SVGID_94_);}
	.st132{clip-path:url(#SVGID_95_);}
	.st133{clip-path:url(#SVGID_96_);}
	.st134{clip-path:url(#SVGID_97_);}
	.st135{clip-path:url(#SVGID_98_);}
	.st136{clip-path:url(#SVGID_100_);fill:none;stroke:#FFFFFF;stroke-width:0.75;stroke-miterlimit:10;}
</style>
<g>
	<g class="st0">
		<g>
			<polyline class="st1" points="647.9,424.6 634.4,416.9 578.9,449.1 592.5,456.8 647.9,424.6 			"/>
		</g>
	</g>
</g>
<g>
	<path class="st2" d="M523.3,440.4c0,0-0.3-1.4,0.9-1.7c0,0,1.1-0.2,1.1,1.2c0,0,0.1,1.1-0.7,1.2C524.6,441,523.6,441.2,523.3,440.4
		z"/>
	<ellipse class="st3" cx="524.2" cy="439.7" rx="0.7" ry="0.8"/>
	<path class="st2" d="M524.5,438.9c0,0-0.1,0.8-1,0.7C523.5,439.6,523.5,438.6,524.5,438.9z"/>
	<path class="st3" d="M524.3,440.4c0,0,0,0.3,0,0.3l-0.4,0.2c0,0-0.1,0.7,0.4,0.6c0,0,0.7,0,0.6-0.6c0,0-0.3-0.2-0.3-0.2l0-0.4
		L524.3,440.4z"/>
	<path class="st3" d="M523.8,445l0.1,2.7c0,0,0,0.1,0.1,0.2c0.1,0,0.2-0.1,0.2-0.1s0-2.7,0-2.7H523.8z"/>
	<path class="st3" d="M524.5,445l0.1,2.7c0,0,0,0.1,0.1,0.2c0.1,0,0.2-0.1,0.2-0.1c0-0.1,0-2.7,0-2.7H524.5z"/>
	<path class="st4" d="M523.9,440.9c0,0-0.2,0-0.2,0.2c0,0-0.1,3.9-0.1,3.9l1.7,0l-0.1-4.1c0,0-0.1-0.1-0.2-0.1c0,0,0,0.4-0.4,0.4
		C524.3,441.3,523.9,441.4,523.9,440.9z"/>
	<path class="st3" d="M523.7,441.1c0,0-0.4,1.8-0.4,2.9c0,0,0,0.2,0.1,0.2c0,0,0.2,0,0.2-0.2C523.5,444.1,523.7,441.1,523.7,441.1z"
		/>
	<path class="st3" d="M525,440.9l0.1,3.3c0,0,0,0.2,0.2,0.2s0.1-0.1,0.1-0.2c0-0.1-0.1-2.8-0.1-2.8S525.3,441,525,440.9z"/>
	<circle class="st2" cx="524.5" cy="439.6" r="0"/>
	<circle class="st2" cx="524.1" cy="439.6" r="0"/>
</g>
<g>
	<ellipse class="st3" cx="519.4" cy="463.2" rx="0.7" ry="0.7"/>
	<path class="st2" d="M518.3,462.6c0,0,0,0.5,0.7,0.4c0.7,0,0.8-0.4,0.8-0.4l0.1,0.2c0,0,0.2-0.2-0.1-0.6c0,0-0.6-0.5-0.9,0.1
		C518.8,462.7,518.3,462.6,518.3,462.6z"/>
	<path class="st3" d="M519.5,463.8v0.3c0,0-0.3-0.1-0.5,0.1c0,0,0,0.4,0.5,0.4c0.5,0,0.6-0.4,0.6-0.4s-0.3-0.1-0.4,0
		c0,0,0-0.4,0-0.4L519.5,463.8z"/>
	<path class="st3" d="M518.6,465.6c0,0,0,2.4,0,2.4s0,0.2,0.1,0.2c0.2,0,0.2-0.2,0.2-0.2l0-2.5L518.6,465.6z"/>
	<path class="st3" d="M520,468.7c0,0,0.1,2.4,0.1,2.4s0,0.2,0.1,0.2c0.2,0,0.2-0.2,0.2-0.2l-0.1-2.5L520,468.7z"/>
	<path class="st3" d="M518.9,468.7c0,0-0.1,2.4-0.1,2.4s0,0.2,0.1,0.2c0.2,0,0.2-0.2,0.2-0.2l0.1-2.5L518.9,468.7z"/>
	<polygon class="st5" points="518.9,467.1 518.8,469.2 519.2,469.2 519.3,467.6 519.8,467.6 519.8,469.2 520.4,469.2 520.4,467.2 	
		"/>
	<path class="st6" d="M519.1,464.1c0,0-0.5,0-0.6,1.6c0,0,0.3,0,0.3,0v1.6l1.4,0v-1.5l0.3-0.1c0,0,0.1-1.5-0.6-1.6
		c0,0,0.1,0.4-0.4,0.4C519.5,464.6,519.1,464.6,519.1,464.1z"/>
	<path class="st3" d="M520.2,465.8c0,0,0,2.4,0,2.4s0,0.2,0.1,0.2c0.2,0,0.2-0.2,0.2-0.2l0-2.5L520.2,465.8z"/>
	<circle class="st2" cx="519.7" cy="463.1" r="0.1"/>
	<circle class="st2" cx="519.1" cy="463.1" r="0.1"/>
</g>
<polygon class="st7" points="514.5,400.9 620.2,339.4 620.1,365.8 514.4,427.3 "/>
<polygon class="st8" points="513.8,399.9 619.5,338.5 644.7,336.5 539,397.9 "/>
<polygon class="st9" points="539.1,397.9 564.2,429 564.1,455.8 563.4,455.4 563.5,429.1 539.1,398.9 514.6,400.8 514.5,427.2 
	513.8,426.8 513.8,399.9 "/>
<polygon class="st4" points="539,397.9 644.7,336.5 669.9,367.6 564.2,429 "/>
<polygon class="st7" points="564.2,429 669.9,367.6 669.8,394.4 564.1,455.9 "/>
<polygon class="st10" points="513.7,398.2 515.1,397.4 540,395.4 538.6,396.2 "/>
<polygon class="st11" points="538.6,396.2 540,395.4 564.8,426 563.4,426.9 "/>
<polygon class="st12" points="563.4,426.9 564.8,426 564.8,436.4 563.4,437.2 "/>
<polygon class="st13" points="534.5,387.1 535.2,386.7 561,384.3 560.3,384.7 "/>
<polygon class="st14" points="560.3,384.7 561,384.3 561.2,384.5 560.5,384.9 "/>
<polygon class="st15" points="560.3,384.7 560.5,384.9 586.1,417 586.1,444.2 585.3,443.8 585.4,417.1 560.3,385.7 534.9,388 
	534.5,387.1 "/>
<polygon class="st14" points="560.5,384.9 561.2,384.5 586.8,416.6 586.1,417 "/>
<polygon class="st12" points="586.1,417 586.8,416.6 586.8,443.8 586.1,444.2 "/>
<polygon class="st13" points="551.5,377.1 552.2,376.7 578,374.3 577.3,374.7 "/>
<polygon class="st14" points="577.3,374.7 578,374.3 578.2,374.5 577.5,374.9 "/>
<polygon class="st15" points="577.3,374.7 577.5,374.9 603.1,407 603.1,434.2 602.3,433.8 602.4,407.1 577.3,375.7 551.9,378 
	551.5,377.1 "/>
<polygon class="st14" points="577.5,374.9 578.2,374.5 603.8,406.6 603.1,407 "/>
<polygon class="st12" points="603.1,407 603.8,406.6 603.8,433.8 603.1,434.2 "/>
<polygon class="st13" points="568.5,367.1 569.2,366.7 595,364.3 594.3,364.7 "/>
<polygon class="st16" points="594.3,364.7 595,364.3 595.2,364.5 594.5,364.9 "/>
<polygon class="st15" points="594.3,364.7 594.5,364.9 620.1,397 620.1,424.2 619.3,423.8 619.4,397.1 594.3,365.7 568.9,368 
	568.5,367.1 "/>
<polygon class="st14" points="594.5,364.9 595.2,364.5 620.8,396.6 620.1,397 "/>
<polygon class="st12" points="620.1,397 620.8,396.6 620.8,423.8 620.1,424.2 "/>
<polygon class="st13" points="585.5,357.1 586.2,356.7 612,354.3 611.3,354.7 "/>
<polygon class="st16" points="611.3,354.7 612,354.3 612.2,354.5 611.5,354.9 "/>
<polygon class="st15" points="611.3,354.7 611.5,354.9 637.1,387 637.1,414.2 636.3,413.8 636.4,387.1 611.3,355.7 585.9,358 
	585.5,357.1 "/>
<polygon class="st14" points="611.5,354.9 612.2,354.5 637.8,386.6 637.1,387 "/>
<polygon class="st12" points="637.1,387 637.8,386.6 637.8,413.8 637.1,414.2 "/>
<polygon class="st13" points="602.5,347.1 603.2,346.7 629,344.3 628.3,344.7 "/>
<polygon class="st16" points="628.3,344.7 629,344.3 629.2,344.5 628.5,344.9 "/>
<polygon class="st15" points="628.3,344.7 628.5,344.9 654.1,377 654.1,404.2 653.3,403.8 653.4,377.1 628.3,345.7 602.9,348 
	602.5,347.1 "/>
<polygon class="st14" points="628.5,344.9 629.2,344.5 654.8,376.6 654.1,377 "/>
<polygon class="st12" points="654.1,377 654.8,376.6 654.8,403.8 654.1,404.2 "/>
<path class="st6" d="M664.7,349.3l-0.2,57.1c0,0.2-0.1,0.3-0.3,0.4c-0.4,0.2-1.1,0.3-1.5,0c-0.2-0.1-0.3-0.3-0.3-0.5l0.2-57.1
	c0,0.2,0.1,0.3,0.3,0.5c0.4,0.2,1.1,0.2,1.5,0C664.6,349.7,664.7,349.5,664.7,349.3z"/>
<path class="st4" d="M664.4,348.9c0.4,0.2,0.4,0.6,0,0.9c-0.4,0.2-1.1,0.3-1.5,0c-0.4-0.2-0.4-0.7,0-0.9S664,348.6,664.4,348.9z"/>
<path class="st6" d="M648.2,358.7l-0.2,57.1c0,0.2-0.1,0.3-0.3,0.4c-0.4,0.2-1.1,0.2-1.5,0c-0.2-0.1-0.3-0.3-0.3-0.5l0.2-57.1
	c0,0.2,0.1,0.3,0.3,0.5c0.4,0.2,1.1,0.2,1.5,0C648.1,359,648.2,358.9,648.2,358.7z"/>
<path class="st4" d="M647.9,358.3c0.4,0.2,0.4,0.6,0,0.9s-1.1,0.2-1.5,0s-0.4-0.6,0-0.9S647.4,358,647.9,358.3z"/>
<g class="st0">
	<defs>
		<polygon id="SVGID_1_" class="st0" points="632.3,399.7 632.2,362.3 678.5,335.6 678.6,372.9 		"/>
	</defs>
	<clipPath id="SVGID_2_">
		<use xlink:href="#SVGID_1_"  style="overflow:visible;"/>
	</clipPath>
	<polyline class="st17" points="677.1,338 633.7,363.1 633.7,397.2 677.2,372.1 677.1,338 	"/>
	<path class="st18" d="M633.7,397.2l-0.1-34.1l43.5-25.1l0.1,34.1L633.7,397.2 M678.5,335.6l-46.3,26.7l0.1,37.4l46.3-26.7
		L678.5,335.6"/>
</g>
<g class="st0">
	<defs>
		<polygon id="SVGID_3_" class="st0" points="640.3,387 640.3,368.9 671.8,350.8 671.8,368.8 		"/>
	</defs>
	<clipPath id="SVGID_4_">
		<use xlink:href="#SVGID_3_"  style="overflow:visible;"/>
	</clipPath>
	<path class="st19" d="M643.4,367.1c-1.4,0.8-2.3,2.3-2.3,3.5c0,1.2,0.7,1.4,1.9,1.2c1-0.1,1.3,0.1,1.3,0.9c0,0.8-0.5,1.7-1.5,2.3
		c-0.6,0.4-1.2,0.5-1.6,0.4l-0.2,1c0.4,0.1,1.1-0.1,1.8-0.5c1.7-1,2.5-2.5,2.5-3.8c0-1.2-0.6-1.5-1.8-1.4c-1,0.1-1.4,0-1.4-0.8
		c0-0.6,0.4-1.4,1.3-2c0.6-0.4,1.1-0.4,1.4-0.4l0.2-1C644.7,366.6,644.2,366.7,643.4,367.1"/>
	<path class="st19" d="M647.9,369.5l0.7-2.8c0.1-0.6,0.3-1.1,0.4-1.7l0,0c0.1,0.4,0.2,0.8,0.4,1.3l0.7,2L647.9,369.5 M649.5,363.7
		l-1.1,0.6L646,374l1-0.5l0.7-3l2.5-1.5l0.8,2.1l1-0.6L649.5,363.7"/>
	<polyline class="st19" points="653.9,361.2 653,361.7 653,369.9 657,367.6 657,366.7 653.9,368.5 653.9,361.2 	"/>
	<path class="st19" d="M660.4,364.9c-1.4,0.8-2.3-0.3-2.3-2c0-1.8,0.8-3.8,2.3-4.7c1.5-0.9,2.3,0.4,2.3,2
		C662.7,362.1,661.9,364.1,660.4,364.9 M660.4,357.3c-1.9,1.1-3.3,3.6-3.3,6.2c0,2.5,1.3,3.4,3.2,2.3c1.8-1,3.3-3.4,3.3-6.2
		C663.6,357.2,662.4,356.2,660.4,357.3"/>
	<path class="st19" d="M670.2,351.8l-0.9,0.5l0,3.4c0,1.3,0,2.3,0.1,3.3l0,0c-0.3-0.6-0.8-1.3-1.3-1.9l-2.3-2.8l-1,0.6l0,8.2
		l0.9-0.5l0-3.5c0-1.4,0-2.3-0.1-3.3l0,0c0.4,0.7,0.8,1.3,1.3,2l2.3,2.8l0.9-0.5L670.2,351.8"/>
	<path class="st19" d="M641.6,385.6c-0.3,0.1-0.5,0.3-0.7,0.3l0-4.5c0.2-0.1,0.4-0.3,0.8-0.5c1.4-0.8,2-0.3,2,1.1
		C643.8,383.5,643,384.8,641.6,385.6 M641.7,380.3c-0.5,0.3-1,0.6-1.4,0.9l0,5.7c0.3-0.2,0.7-0.3,1.2-0.6c1-0.6,1.7-1.3,2.2-2.1
		c0.5-0.8,0.7-1.7,0.7-2.7c0-0.9-0.3-1.4-0.7-1.7C643.3,379.6,642.6,379.8,641.7,380.3"/>
	<path class="st19" d="M649,376.1l-0.7,0.4l0,3.4c0,1.3-0.5,2.1-1.2,2.5c-0.7,0.4-1.2,0.1-1.2-1.2l0-3.4l-0.7,0.4l0,3.4
		c0,1.8,0.8,2,1.8,1.4c1.1-0.6,1.9-1.8,1.9-3.6L649,376.1"/>
	<path class="st19" d="M655.4,372.4l-0.6,0.4l0,2.4c0,0.9,0,1.6,0.1,2.3l0,0c-0.2-0.5-0.5-0.9-0.9-1.4l-1.6-2l-0.7,0.4l0,5.8
		l0.6-0.4l0-2.5c0-1,0-1.6-0.1-2.3l0,0c0.3,0.5,0.6,0.9,0.9,1.4l1.6,2l0.7-0.4L655.4,372.4"/>
	<path class="st19" d="M657.5,374.6l0.5-1.9c0.1-0.4,0.2-0.8,0.2-1.2l0,0c0.1,0.3,0.1,0.6,0.3,0.9l0.5,1.4L657.5,374.6 M658.7,370.5
		l-0.8,0.5l-1.7,6.8l0.7-0.4l0.5-2.1l1.8-1l0.5,1.5l0.7-0.4L658.7,370.5"/>
	<path class="st19" d="M664.4,367.3l-0.7,0.4l-0.8,3.3c-0.2,0.9-0.4,1.7-0.6,2.5l0,0c-0.1-0.6-0.3-1.2-0.5-1.8l-0.8-2.4l-0.7,0.4
		l1.7,4.8l0.7-0.4L664.4,367.3"/>
	<polyline class="st19" points="667.6,365.4 664.9,366.9 664.9,372.7 667.7,371.1 667.7,370.5 665.6,371.7 665.6,369.6 667.5,368.5 
		667.5,367.9 665.6,369 665.5,367.2 667.6,366 667.6,365.4 	"/>
	<polyline class="st19" points="671.8,362.9 668.1,365.1 668.1,365.7 669.6,364.8 669.6,370 670.3,369.6 670.3,364.5 671.8,363.6 
		671.8,362.9 	"/>
</g>
<polygon class="st20" points="514.4,423 514.4,427.3 474.9,450.1 474.9,445.8 "/>
<polygon class="st21" points="474.2,446.2 473.5,445.8 513.7,422.6 514.4,423 "/>
<g>
	<g>
		<g class="st0">
			<defs>
				<polygon id="SVGID_5_" class="st0" points="643.2,359.6 643.2,345.3 667.9,331 668,345.3 				"/>
			</defs>
			<clipPath id="SVGID_6_">
				<use xlink:href="#SVGID_5_"  style="overflow:visible;"/>
			</clipPath>
			<g class="st22">
				<g>
					<g>
						<g>
							<path class="st14" d="M655.5,338.1c-6.8,3.9-12.4,13.5-12.3,21.4l1.2-0.7c0-7.1,5-15.7,11.2-19.3c6.2-3.6,11.2-0.7,11.3,6.3
								l1-0.6C667.9,337.3,662.4,334.2,655.5,338.1"/>
							<path class="st3" d="M655.7,339.5c-6.2,3.6-11.2,12.2-11.2,19.3c0,0,0,0.1,0,0.1l22.5-13c0,0,0-0.1,0-0.1
								C666.9,338.7,661.8,335.9,655.7,339.5"/>
						</g>
					</g>
				</g>
			</g>
		</g>
	</g>
</g>
<path class="st3" d="M640.3,359.3l29.2-16.9l1,3.3c0,0-30.1,16.1-30.2,16.1S640.3,359.3,640.3,359.3z"/>
<polygon class="st23" points="507.8,436.3 507.8,440.4 490.7,450.3 490.7,446.2 "/>
<polygon class="st24" points="507.8,436.3 490.7,446.2 502.3,452.9 496.9,456 485.3,449.4 479.6,446.1 502.1,433 "/>
<polygon class="st23" points="502.3,452.9 502.3,457 496.9,460.1 496.9,456 "/>
<polygon class="st25" points="485.3,449.4 479.6,446.1 479.6,450.2 485.3,453.4 496.9,460.1 496.9,456 "/>
<polygon class="st23" points="546.2,458.5 546.2,462.6 523.7,475.7 523.7,471.6 "/>
<polygon class="st24" points="546.2,458.5 529.1,468.4 523.7,471.6 518,468.3 540.5,455.3 "/>
<polygon class="st25" points="523.7,471.6 518,468.3 518,472.4 523.7,475.7 "/>
<polygon class="st20" points="552,458.6 552,462.9 523.9,479.2 523.9,474.9 "/>
<polygon class="st21" points="523.9,474.9 523.2,474.5 551.3,458.2 552,458.6 "/>
<polygon class="st26" points="473.5,445.8 473.4,450.1 523.9,479.2 523.9,474.9 "/>
<polygon class="st21" points="523.9,474.9 524.6,474.5 474.2,445.4 473.5,445.8 "/>
<path class="st5" d="M518.7,461.4l0,6.9c0,0,0,0,0,0.1c-0.1,0-0.2,0-0.2,0c0,0,0,0,0-0.1l0-6.9c0,0,0,0,0,0.1
	C518.5,461.5,518.6,461.5,518.7,461.4C518.7,461.4,518.7,461.4,518.7,461.4z"/>
<path class="st5" d="M545.8,451.6l0,7c0,0,0,0,0,0.1c-0.1,0-0.2,0-0.2,0c0,0,0,0,0-0.1l0-7c0,0,0,0,0,0.1
	C545.6,451.7,545.7,451.7,545.8,451.6C545.8,451.6,545.8,451.6,545.8,451.6z"/>
<path class="st5" d="M540.6,448.8l0,6.9c0,0,0,0,0,0.1c-0.1,0-0.2,0-0.2,0c0,0,0,0,0-0.1l0-6.9c0,0,0,0,0,0.1
	C540.4,448.9,540.5,448.9,540.6,448.8C540.6,448.8,540.6,448.8,540.6,448.8z"/>
<path class="st7" d="M507.1,429.4l0,7c0,0,0,0,0,0.1c-0.1,0-0.2,0-0.2,0c0,0,0,0,0-0.1l0-7c0,0,0,0,0,0.1
	C506.8,429.5,506.9,429.5,507.1,429.4C507,429.5,507.1,429.5,507.1,429.4z"/>
<path class="st7" d="M501.8,446.2l0,6.7c0,0,0,0,0,0.1c-0.1,0-0.2,0-0.2,0c0,0,0,0,0-0.1l0-6.7c0,0,0,0,0,0.1
	C501.5,446.3,501.7,446.3,501.8,446.2C501.7,446.3,501.8,446.3,501.8,446.2z"/>
<path class="st7" d="M480.5,439.3l0,6.7c0,0,0,0,0,0.1c-0.1,0-0.2,0-0.2,0c0,0,0,0,0-0.1l0-6.7c0,0,0,0,0,0.1
	C480.3,439.4,480.4,439.4,480.5,439.3C480.5,439.4,480.5,439.3,480.5,439.3z"/>
<polygon class="st27" points="524.8,441.1 519.4,444.2 513.9,441.1 519.3,438 "/>
<polygon class="st5" points="524.8,441.1 524.7,449.2 519.4,452.4 519.4,444.2 "/>
<polygon class="st28" points="519.4,444.2 519.4,452.4 513.9,449.2 513.9,441.1 "/>
<polygon class="st27" points="523.2,439.6 519.4,441.8 515.5,439.6 519.3,437.4 "/>
<polygon class="st5" points="523.2,439.6 523.2,441.3 519.4,443.5 519.4,441.8 "/>
<polygon class="st28" points="519.4,441.8 519.4,443.5 515.5,441.3 515.5,439.6 "/>
<polygon class="st4" points="558.9,429.8 550.4,434.7 541.8,429.8 550.3,424.9 "/>
<polygon class="st7" points="558.9,429.8 558.9,433.9 550.4,438.8 550.4,434.7 "/>
<polygon class="st29" points="550.4,434.7 550.4,438.8 541.8,433.9 541.8,429.8 "/>
<polygon class="st4" points="560.5,439.1 554.6,442.5 548.6,439.1 554.5,435.6 "/>
<polygon class="st29" points="554.6,442.5 554.5,446.6 548.6,443.1 548.6,439.1 "/>
<ellipse class="st3" cx="521.8" cy="419.4" rx="0.7" ry="0.8"/>
<path class="st30" d="M522.9,418.8c0,0,0,0.5-0.8,0.5c-0.8,0-0.8-0.4-0.8-0.4l-0.2,0.2c0,0-0.2-0.2,0.1-0.6c0,0,0.6-0.5,0.9,0.1
	C522.4,419,522.9,418.8,522.9,418.8z"/>
<path class="st3" d="M521.7,420.1v0.3c0,0,0.4-0.1,0.6,0.1c0,0,0,0.5-0.6,0.4s-0.6-0.5-0.6-0.5s0.3-0.1,0.4,0c0,0,0-0.4,0-0.4
	L521.7,420.1z"/>
<path class="st3" d="M522.6,422c0,0,0,2.6,0,2.6s0,0.3-0.2,0.2c-0.2,0-0.2-0.2-0.2-0.2l0-2.7L522.6,422z"/>
<path class="st3" d="M521.1,425.4c0,0-0.1,2.6-0.1,2.6s0,0.3-0.2,0.2c-0.2,0-0.2-0.2-0.2-0.2l0.1-2.7L521.1,425.4z"/>
<path class="st3" d="M522.3,425.3c0,0,0.2,2.6,0.2,2.6s0,0.3-0.1,0.3c-0.2,0-0.2-0.2-0.2-0.2l-0.2-2.7L522.3,425.3z"/>
<polygon class="st1" points="522.3,423.7 522.4,425.9 521.9,426 521.8,424.2 521.3,424.2 521.3,426 520.7,426 520.7,423.7 "/>
<path class="st11" d="M522.1,420.5c0,0,0.6,0,0.6,1.7c0,0-0.4,0-0.4,0v1.7l-1.5,0v-1.6l-0.4-0.1c0,0-0.2-1.6,0.7-1.7
	c0,0-0.1,0.4,0.4,0.4C521.6,420.9,522.1,420.9,522.1,420.5z"/>
<path class="st3" d="M520.9,422.2c0,0,0,2.6,0,2.6s0,0.3-0.2,0.2c-0.2,0-0.2-0.2-0.2-0.2l0-2.7L520.9,422.2z"/>
<circle class="st2" cx="521.5" cy="419.4" r="0.1"/>
<circle class="st2" cx="522.1" cy="419.4" r="0.1"/>
<g>
	<ellipse class="st3" cx="533.8" cy="437.2" rx="0.7" ry="0.8"/>
	<path class="st3" d="M533.7,437.9v0.3c0,0,0.4-0.1,0.5,0.1c0,0,0,0.4-0.5,0.4c-0.5,0-0.6-0.5-0.6-0.5s0.3-0.1,0.4,0
		c0,0,0-0.4,0-0.4L533.7,437.9z"/>
	<path class="st3" d="M534.6,439.7c0,0,0,2.5,0,2.5s0,0.2-0.1,0.2c-0.2,0-0.2-0.2-0.2-0.2l0-2.6L534.6,439.7z"/>
	<path class="st3" d="M533,439.9c0,0,0,2.5,0,2.5s0,0.2-0.1,0.2c-0.2,0-0.2-0.2-0.2-0.2l0-2.6L533,439.9z"/>
	<path class="st30" d="M534.4,436.7c0,0-0.9,0.4-1.1,0c0,0,0-0.4,0.3-0.4C533.9,436.2,534.4,436.5,534.4,436.7z"/>
	<path class="st2" d="M533.4,441.4c0,0-0.2,4.1-0.2,4.1s0,0.3-0.2,0.3c-0.3,0-0.2-0.2-0.2-0.2l0.2-4.1L533.4,441.4z"/>
	<path class="st2" d="M534.3,441.4c0,0,0,4.1,0,4.1s0,0.3-0.2,0.3c-0.3,0-0.2-0.2-0.2-0.2l0-4.1L534.3,441.4z"/>
	<path class="st1" d="M534.1,438.2c0,0,0.6,0,0.6,1.6c0,0-0.3,0-0.3,0v1.7l-1.5,0v-1.6l-0.4-0.1c0,0-0.1-1.6,0.7-1.6
		c0,0-0.1,0.4,0.4,0.4C533.6,438.6,534.2,438.6,534.1,438.2z"/>
	<path class="st30" d="M533.2,437.5c0,0,0.5,0.6,1.2,0.1c0,0,0,0,0,0c0.1-0.1,0.3-0.7,0-0.9c0-0.1-1.1,0-1.1,0S533,437,533.2,437.5z
		"/>
</g>
<g>
	<ellipse class="st3" cx="502.5" cy="451.8" rx="0.7" ry="0.8"/>
	<path class="st3" d="M502.4,452.5v0.3c0,0,0.4-0.1,0.5,0.1c0,0,0,0.4-0.5,0.4s-0.6-0.5-0.6-0.5s0.3-0.1,0.4,0c0,0,0-0.4,0-0.4
		L502.4,452.5z"/>
	<path class="st3" d="M503,453c0.3,0.3,0.2,3.2,0.2,3.2s0,0.2-0.1,0.2c-0.2,0-0.2-0.2-0.2-0.2l0-2.1L503,453z"/>
	<path class="st3" d="M501.8,457.6c0,0-0.1,2.5-0.1,2.5s0,0.2-0.2,0.2c-0.2,0-0.2-0.2-0.2-0.2l0.1-2.6L501.8,457.6z"/>
	<path class="st3" d="M503,457.5c0,0,0.1,2.5,0.1,2.5s0,0.2-0.1,0.2c-0.2,0-0.2-0.2-0.2-0.2l-0.2-2.6L503,457.5z"/>
	<path class="st3" d="M501.6,452.9l-0.1,3.5c0,0,0,0.2-0.1,0.2c-0.2,0-0.1-0.1-0.1-0.2c0-0.1,0.1-3,0.1-3S501.4,453,501.6,452.9z"/>
	<polygon class="st6" points="503,455.9 503.1,458.1 502.6,458.1 502.5,456.4 502,456.4 502,458.1 501.4,458.1 501.5,455.9 	"/>
	<path class="st7" d="M502.8,452.8c0,0,0.2,0,0.2,0.2c0,0,0.1,2.9,0.1,2.9l-1.6,0l0.1-3.1c0,0,0.1-0.1,0.2-0.1c0,0,0,0.3,0.4,0.3
		C502.4,453.1,502.8,453.2,502.8,452.8z"/>
	<path class="st30" d="M502.5,450.9c0,0,0.8-0.1,0.9,0.6c0,0.8,0.6,2.3,0,3.1c-0.6,0.8-1.7,0.5-2.1,0c-0.3-0.4,0.1-3.1,0.5-3.5
		S502.5,450.9,502.5,450.9z"/>
</g>
<path class="st3" d="M513.8,450.4c0,0,0,2.5,0,2.5s0,0.2-0.1,0.2c-0.2,0-0.2-0.2-0.2-0.2l0-2.6L513.8,450.4z"/>
<g>
	<ellipse class="st3" cx="514.6" cy="447.7" rx="0.7" ry="0.8"/>
	<path class="st3" d="M514.5,448.4v0.3c0,0,0.4-0.1,0.5,0.1c0,0,0,0.4-0.5,0.4c-0.5,0-0.6-0.5-0.6-0.5s0.3-0.1,0.4,0
		c0,0,0-0.4,0-0.4L514.5,448.4z"/>
	<path class="st3" d="M515.4,450.2c0,0,0,2.5,0,2.5s0,0.2-0.1,0.2c-0.2,0-0.2-0.2-0.2-0.2l0-2.6L515.4,450.2z"/>
	<path class="st2" d="M515.2,447.2c0,0-0.9,0.4-1.1,0c0,0,0-0.4,0.3-0.4C514.7,446.7,515.2,447,515.2,447.2z"/>
	<path class="st1" d="M514.2,451.9c0,0-0.2,4.1-0.2,4.1s0,0.3-0.2,0.3c-0.3,0-0.2-0.2-0.2-0.2l0.2-4.1L514.2,451.9z"/>
	<path class="st1" d="M515.1,451.9c0,0,0,4.1,0,4.1s0,0.3-0.2,0.3c-0.3,0-0.2-0.2-0.2-0.2l0-4.1L515.1,451.9z"/>
	<path class="st30" d="M514.9,448.7c0,0,0.6,0,0.6,1.6c0,0-0.3,0-0.3,0v1.7l-1.5,0v-1.6l-0.4-0.1c0,0-0.1-1.6,0.7-1.6
		c0,0-0.1,0.4,0.4,0.4C514.4,449.1,514.9,449.1,514.9,448.7z"/>
	<path class="st2" d="M514,448c0,0,0.5,0.6,1.2,0.1c0,0,0,0,0,0c0.1-0.1,0.3-0.7,0-0.9c0-0.1-1.1,0-1.1,0S513.7,447.5,514,448z"/>
</g>
<g>
	
		<ellipse transform="matrix(0.9991 4.288627e-02 -4.288627e-02 0.9991 18.8105 -21.4561)" class="st3" cx="509.5" cy="427.7" rx="0.7" ry="0.7"/>
	<path class="st3" d="M509.5,428.4l0,0.3c0,0-0.3-0.1-0.5,0c0,0,0,0.4,0.5,0.4c0.5,0,0.6-0.4,0.6-0.4s-0.3-0.1-0.4,0
		c0,0,0-0.4,0-0.4L509.5,428.4z"/>
	<path class="st3" d="M508.6,430.1c0,0-0.1,2.4-0.1,2.4s0,0.2,0.1,0.2c0.2,0,0.2-0.2,0.2-0.2l0.1-2.5L508.6,430.1z"/>
	<path class="st1" d="M509.7,431.8c0,0,0,3.9,0,3.9s0,0.3,0.2,0.3c0.3,0,0.2-0.2,0.2-0.2l0-4L509.7,431.8z"/>
	<path class="st1" d="M508.9,431.8c0,0-0.2,3.9-0.2,3.9s-0.1,0.3,0.2,0.3s0.2-0.2,0.2-0.2l0.2-4L508.9,431.8z"/>
	<path class="st30" d="M509.1,428.7c0,0-0.5,0-0.6,1.5c0,0,0.3,0,0.3,0l-0.1,1.6l1.4,0l0.1-1.5l0.3,0c0,0,0.2-1.5-0.6-1.6
		c0,0,0.1,0.4-0.4,0.4C509.6,429.1,509.1,429.1,509.1,428.7z"/>
	<path class="st3" d="M510.2,430.3c0,0-0.1,2.4-0.1,2.4s0,0.2,0.1,0.2c0.2,0,0.2-0.2,0.2-0.2l0.1-2.5L510.2,430.3z"/>
	<circle class="st2" cx="509.8" cy="427.7" r="0.1"/>
	<circle class="st2" cx="509.2" cy="427.6" r="0.1"/>
	<path class="st2" d="M509,427.2c0,0,0.8,0.5,1,0c0,0,0-0.3-0.3-0.4C509.5,426.8,509,427,509,427.2z"/>
</g>
<ellipse class="st3" cx="557.6" cy="455.8" rx="0.7" ry="0.8"/>
<path class="st30" d="M558.7,455.2c0,0,0,0.5-0.8,0.5c-0.7,0-0.8-0.4-0.8-0.4l-0.2,0.2c0,0-0.2-0.2,0.1-0.6c0,0,0.6-0.5,0.9,0.1
	C558.2,455.4,558.7,455.2,558.7,455.2z"/>
<path class="st3" d="M557.5,456.5v0.3c0,0,0.4-0.1,0.5,0.1c0,0,0,0.4-0.5,0.4c-0.5,0-0.6-0.5-0.6-0.5s0.3-0.1,0.4,0c0,0,0-0.4,0-0.4
	L557.5,456.5z"/>
<path class="st3" d="M558.4,458.3c0,0,0,2.5,0,2.5s0,0.2-0.1,0.2c-0.2,0-0.2-0.2-0.2-0.2l0-2.6L558.4,458.3z"/>
<path class="st3" d="M557,461.6c0,0-0.1,2.5-0.1,2.5s0,0.2-0.2,0.2c-0.2,0-0.2-0.2-0.2-0.2l0.1-2.6L557,461.6z"/>
<path class="st3" d="M558.1,461.6c0,0,0.1,2.5,0.1,2.5s0,0.2-0.1,0.2c-0.2,0-0.2-0.2-0.2-0.2l-0.2-2.6L558.1,461.6z"/>
<path class="st3" d="M556.8,458.5c0,0,0,2.5,0,2.5s0,0.2-0.1,0.2c-0.2,0-0.2-0.2-0.2-0.2l0-2.6L556.8,458.5z"/>
<path class="st30" d="M556.9,456c0,0,0.6,0.6,1.3,0.1c0,0,0,0,0,0c0.1-0.1,0.3-0.7-0.1-1c0-0.1-1.1,0-1.1,0S556.7,455.5,556.9,456z"
	/>
<polygon class="st1" points="558.1,460 558.2,462.1 557.7,462.2 557.6,460.5 557.1,460.5 557.1,462.2 556.5,462.2 556.7,460 "/>
<path class="st7" d="M557.9,456.9c0,0,0.6,0,0.6,1.6c0,0-0.3,0-0.3,0v1.7l-1.5,0v-1.6l-0.4-0.1c0,0-0.1-1.6,0.7-1.6
	c0,0-0.1,0.4,0.4,0.4C557.4,457.3,557.9,457.3,557.9,456.9z"/>
<polygon class="st23" points="544,419.7 544,423.8 521.5,436.9 521.6,432.8 "/>
<polygon class="st24" points="544,419.7 527,429.6 521.6,432.8 515.9,429.5 538.4,416.4 "/>
<polygon class="st25" points="521.6,432.8 515.9,429.5 515.9,433.6 521.5,436.9 "/>
<g>
	<path class="st30" d="M515.2,427.8c0,0-0.8-0.1-0.8,0.6c0,0.7-0.6,2.3,0,3c0.6,0.8,1.7,0.5,2,0c0.1-0.2-0.2-3-0.5-3.4
		C515.6,427.7,515.2,427.8,515.2,427.8z"/>
	<ellipse class="st3" cx="515.2" cy="428.6" rx="0.7" ry="0.7"/>
	<path class="st3" d="M515.3,429.3l0,0.3c0,0-0.3-0.1-0.5,0.1c0,0,0,0.4,0.5,0.4c0.5,0,0.6-0.4,0.6-0.4s-0.3-0.1-0.4,0
		c0,0,0-0.4,0-0.4L515.3,429.3z"/>
	<path class="st3" d="M514.7,429.8c-0.3,0.3-0.2,3.1-0.2,3.1s0,0.2,0.1,0.2c0.2,0,0.2-0.2,0.2-0.2l0-2.1L514.7,429.8z"/>
	<path class="st3" d="M515.8,434.2c0,0,0.1,2.4,0.1,2.4s0,0.2,0.1,0.2c0.2,0,0.2-0.2,0.2-0.2l-0.1-2.5L515.8,434.2z"/>
	<path class="st3" d="M514.7,434.2c0,0-0.1,2.4-0.1,2.4s0,0.2,0.1,0.2c0.2,0,0.2-0.2,0.2-0.2l0.1-2.5L514.7,434.2z"/>
	<polygon class="st6" points="514.7,432.6 514.6,434.7 515.1,434.7 515.2,433.1 515.7,433.1 515.7,434.7 516.2,434.7 516.2,432.7 	
		"/>
	<circle class="st2" cx="515.5" cy="428.6" r="0.1"/>
	<circle class="st2" cx="514.9" cy="428.6" r="0.1"/>
	<path class="st7" d="M514.9,429.6c0,0-0.2,0-0.2,0.2c0,0-0.1,2.8-0.1,2.8l1.6,0l-0.1-3c0,0-0.1-0.1-0.2-0.1c0,0,0,0.3-0.4,0.3
		C515.2,429.9,514.9,430,514.9,429.6z"/>
	<path class="st30" d="M514.5,428.5h1.4c0,0-0.1-0.6-0.6-0.6C515.3,427.9,514.5,427.9,514.5,428.5"/>
	<path class="st3" d="M516,429.7l0.1,3.3c0,0,0,0.2,0.1,0.2s0.1-0.1,0.1-0.2s-0.1-2.9-0.1-2.9S516.2,429.8,516,429.7z"/>
</g>
<polygon class="st7" points="554.7,435.8 554.7,437.6 550.6,439.9 549.1,439.1 "/>
<polygon class="st29" points="559.9,439.1 559.3,439.5 554.5,436.7 554.5,436 "/>
<path class="st4" d="M554.5,435.6l5.9,3.4l-5.9,3.4l-5.9-3.4L554.5,435.6z M554.8,442.4l5.4-3.1l-5.7-3.3l-5.4,3.1L554.8,442.4"/>
<polygon class="st24" points="549.7,439.4 554.5,442.2 559.3,439.5 554.5,436.7 "/>
<polygon class="st7" points="560.5,439.1 560.5,443.1 554.5,446.6 554.6,442.5 "/>
<polygon class="st4" points="558.9,429.8 550.4,434.7 541.8,429.8 550.3,424.9 "/>
<polygon class="st7" points="550.6,425.1 550.6,427.6 544.6,431 542.6,429.8 "/>
<polygon class="st29" points="558,429.9 557.1,430.4 550.3,426.4 550.3,425.3 "/>
<path class="st4" d="M550.3,424.9l8.5,4.9l-8.5,4.9l-8.5-4.9L550.3,424.9z M550.7,434.5l7.7-4.5l-8.2-4.7l-7.7,4.5L550.7,434.5"/>
<polygon class="st24" points="543.5,430.3 550.4,434.3 557.1,430.4 550.3,426.4 "/>
<g>
	<ellipse class="st3" cx="546.2" cy="430.5" rx="0.7" ry="0.8"/>
	<path class="st3" d="M546.1,431.2v0.3c0,0,0.4-0.1,0.5,0.1c0,0,0,0.4-0.5,0.4c-0.5,0-0.6-0.5-0.6-0.5s0.3-0.1,0.4,0
		c0,0,0-0.4,0-0.4L546.1,431.2z"/>
	<path class="st3" d="M546.7,431.6c0.3,0.3,0.2,3.2,0.2,3.2s0,0.2-0.1,0.2c-0.2,0-0.2-0.2-0.2-0.2l0-2.1L546.7,431.6z"/>
	<path class="st3" d="M545.6,436.3c0,0-0.1,2.5-0.1,2.5s0,0.2-0.2,0.2c-0.2,0-0.2-0.2-0.2-0.2l0.1-2.6L545.6,436.3z"/>
	<path class="st3" d="M546.7,436.2c0,0,0.1,2.5,0.1,2.5s0,0.2-0.1,0.2c-0.2,0-0.2-0.2-0.2-0.2l-0.2-2.6L546.7,436.2z"/>
	<path class="st3" d="M545.4,431.6l-0.1,3.5c0,0,0,0.2-0.1,0.2c-0.2,0-0.1-0.1-0.1-0.2s0.1-3,0.1-3S545.2,431.7,545.4,431.6z"/>
	<polygon class="st4" points="546.7,434.6 546.8,436.8 546.3,436.8 546.2,435.1 545.7,435.1 545.7,436.8 545.1,436.8 545.3,434.6 	
		"/>
	<path class="st31" d="M546.5,431.5c0,0,0.2,0,0.2,0.2c0,0,0.1,2.9,0.1,2.9l-1.6,0l0.1-3.1c0,0,0.1-0.1,0.2-0.1c0,0,0,0.3,0.4,0.3
		C546.2,431.8,546.5,431.9,546.5,431.5z"/>
	<path class="st2" d="M546.2,429.6c0,0,0.8-0.1,0.9,0.6s0.6,2.3,0,3.1c-0.6,0.8-1.7,0.5-2.1,0c-0.3-0.4,0.1-3.1,0.5-3.5
		S546.2,429.6,546.2,429.6z"/>
</g>
<polygon class="st28" points="522.7,425.9 526.1,427.9 526.1,428.7 522.7,426.8 "/>
<polygon class="st20" points="517.9,428.7 522.7,425.9 522.7,426.8 517.9,429.5 "/>
<polygon class="st28" points="528.3,422.6 531.7,424.5 531.7,425.3 528.3,423.4 "/>
<polygon class="st20" points="523.5,425.4 528.3,422.6 528.3,423.4 523.5,426.2 "/>
<polygon class="st32" points="533.8,419.2 537.2,421.2 537.2,422 533.8,420 "/>
<polygon class="st20" points="529,422 533.8,419.2 533.8,420 529,422.8 "/>
<path class="st4" d="M525.6,428.4l-0.4-0.2c-0.1-0.7-0.5-1.2-1.1-1.2c-0.1,0-0.3,0-0.4,0.1c-0.2-0.5-0.5-0.9-1-0.9
	c-0.5,0-0.9,0.4-1,1c-0.1-0.1-0.3-0.1-0.4-0.1c-0.4,0-0.8,0.4-1,0.9c-0.1-0.1-0.2-0.1-0.4-0.1c-0.4,0-0.8,0.3-1,0.8c0,0-0.1,0-0.1,0
	c-0.3,0-0.6,0.3-0.7,0.7l0,0l0,0c0,0.1,0,0.1,0,0.2h0.5l2.8,1.4L525.6,428.4z"/>
<polygon class="st20" points="526.1,427.9 526.1,428.7 521.3,431.5 521.3,430.7 "/>
<polygon class="st28" points="521.3,430.7 521.3,431.5 517.9,429.5 517.9,428.7 "/>
<path class="st7" d="M521,428.7c0,0-0.1-0.2-0.2-0.2c-0.1,0-0.3,0.1-0.3,0.1c0-0.1,0.2-0.2,0.3-0.2C521,428.4,521.1,428.6,521,428.7
	z"/>
<path class="st7" d="M520.9,429.3c0,0-0.3-0.2-0.6-0.2c-0.3,0-0.6,0.2-0.6,0.2c0-0.3,0.3-0.6,0.6-0.6
	C520.7,428.7,520.9,429,520.9,429.3z"/>
<path class="st7" d="M523.3,426.9c0,0-0.2-0.2-0.4-0.3c-0.3-0.1-0.5,0-0.5,0c0.1-0.2,0.3-0.3,0.6-0.2
	C523.2,426.5,523.4,426.7,523.3,426.9z"/>
<path class="st4" d="M531.3,425l-0.4-0.2c-0.1-0.7-0.5-1.2-1.1-1.2c-0.1,0-0.3,0-0.4,0.1c-0.2-0.5-0.5-0.9-1-0.9c-0.5,0-0.9,0.4-1,1
	c-0.1-0.1-0.3-0.1-0.4-0.1c-0.4,0-0.8,0.4-1,0.9c-0.1-0.1-0.2-0.1-0.4-0.1c-0.4,0-0.8,0.3-1,0.8c0,0-0.1,0-0.1,0
	c-0.3,0-0.6,0.3-0.7,0.7l0,0l0,0c0,0.1,0,0.1,0,0.2h0.5l2.8,1.4L531.3,425z"/>
<path class="st7" d="M527.6,424.6c0,0-0.1-0.2-0.2-0.2c-0.1,0-0.3,0.1-0.3,0.1c0-0.1,0.2-0.2,0.3-0.2
	C527.5,424.3,527.6,424.5,527.6,424.6z"/>
<path class="st7" d="M530.6,424.8c0,0-0.2-0.2-0.5-0.3c-0.3-0.1-0.6,0-0.6,0c0.1-0.3,0.4-0.5,0.7-0.4
	C530.5,424.2,530.6,424.5,530.6,424.8z"/>
<path class="st7" d="M527.3,424.1c0,0-0.3,0-0.5,0.1s-0.4,0.4-0.4,0.4c-0.1-0.2,0-0.4,0.2-0.6C526.9,423.9,527.2,423.9,527.3,424.1z
	"/>
<polygon class="st20" points="531.7,424.5 531.7,425.3 526.9,428.1 526.9,427.3 "/>
<polygon class="st28" points="526.9,427.3 526.9,428.1 523.5,426.2 523.5,425.4 "/>
<path class="st4" d="M536.9,421.6l-0.4-0.2c-0.1-0.7-0.5-1.2-1.1-1.2c-0.1,0-0.3,0-0.4,0.1c-0.2-0.5-0.5-0.9-1-0.9
	c-0.5,0-0.9,0.4-1,1c-0.1-0.1-0.3-0.1-0.4-0.1c-0.4,0-0.8,0.4-1,0.9c-0.1-0.1-0.2-0.1-0.4-0.1c-0.4,0-0.8,0.3-1,0.8c0,0-0.1,0-0.1,0
	c-0.3,0-0.6,0.3-0.7,0.7l0,0l0,0c0,0.1,0,0.1,0,0.2h0.5l2.8,1.4L536.9,421.6z"/>
<polygon class="st20" points="537.2,421.2 537.2,422 532.4,424.8 532.4,424 "/>
<polygon class="st28" points="532.4,424 532.4,424.8 529,422.8 529,422 "/>
<path class="st7" d="M531.7,422.2c0,0-0.2-0.2-0.5-0.3s-0.6,0-0.6,0c0.1-0.3,0.4-0.5,0.7-0.4C531.6,421.6,531.8,421.9,531.7,422.2z"
	/>
<path class="st7" d="M534.3,420c0,0-0.3,0-0.5,0.1s-0.4,0.4-0.4,0.4c-0.1-0.2,0-0.4,0.2-0.6C533.9,419.8,534.2,419.8,534.3,420z"/>
<polygon class="st20" points="523,465.8 520.1,467.5 520.1,468.2 523,466.5 "/>
<polygon class="st28" points="527.2,468.2 523,465.8 523,466.5 527.2,469 "/>
<path class="st4" d="M520.5,468l0.3-0.2c0.1-0.6,0.5-1.1,1-1.1c0.1,0,0.2,0,0.4,0.1c0.1-0.4,0.5-0.7,0.9-0.7c0.4,0,0.8,0.4,0.9,0.9
	c0.1-0.1,0.2-0.1,0.4-0.1c0.4,0,0.7,0.3,0.9,0.8c0.1-0.1,0.2-0.1,0.3-0.1c0.4,0,0.7,0.3,0.8,0.7c0,0,0,0,0.1,0
	c0.3,0,0.5,0.3,0.6,0.6l0,0l0,0c0,0.1,0,0.1,0,0.2h-0.4l-2.5,1.2L520.5,468z"/>
<polygon class="st28" points="520.1,467.5 520.1,468.2 524.3,470.7 524.3,469.9 "/>
<polygon class="st20" points="524.3,469.9 524.3,470.7 527.2,469 527.2,468.2 "/>
<path class="st7" d="M525.3,468.7c0,0,0.1-0.2,0.2-0.2s0.2,0.1,0.2,0.1c0-0.1-0.1-0.2-0.3-0.2S525.3,468.6,525.3,468.7z"/>
<path class="st7" d="M525.3,468c0,0,0.2,0,0.4,0.1c0.2,0.1,0.3,0.3,0.3,0.3c0.1-0.2,0-0.4-0.2-0.5
	C525.6,467.8,525.4,467.8,525.3,468z"/>
<polygon class="st20" points="526.8,463.6 523.8,465.3 523.8,466 526.8,464.3 "/>
<polygon class="st28" points="531,466 526.8,463.6 526.8,464.3 531,466.7 "/>
<path class="st4" d="M524.3,465.7l0.3-0.2c0.1-0.6,0.5-1.1,1-1.1c0.1,0,0.2,0,0.4,0.1c0.1-0.4,0.5-0.7,0.9-0.7
	c0.4,0,0.8,0.4,0.9,0.9c0.1-0.1,0.2-0.1,0.4-0.1c0.4,0,0.7,0.3,0.9,0.8c0.1-0.1,0.2-0.1,0.3-0.1c0.4,0,0.7,0.3,0.8,0.7
	c0,0,0,0,0.1,0c0.3,0,0.5,0.3,0.6,0.6l0,0l0,0c0,0.1,0,0.1,0,0.2h-0.4l-2.5,1.2L524.3,465.7z"/>
<polygon class="st28" points="523.8,465.3 523.8,466 528,468.4 528,467.7 "/>
<polygon class="st20" points="528,467.7 528,468.4 531,466.7 531,466 "/>
<path class="st7" d="M529,465.6c0,0,0.1-0.1,0.3-0.1s0.2,0.2,0.2,0.2c0-0.1,0-0.2-0.1-0.3S529,465.4,529,465.6z"/>
<path class="st7" d="M525,465.3c0,0,0.2-0.2,0.5-0.2s0.5,0.2,0.5,0.2c0-0.3-0.2-0.5-0.5-0.5S525,465,525,465.3z"/>
<path class="st7" d="M527.6,465.1c0,0,0.2-0.1,0.4,0s0.4,0.2,0.4,0.2c0-0.2-0.1-0.4-0.3-0.4C527.8,464.8,527.6,464.9,527.6,465.1z"
	/>
<polygon class="st20" points="530.5,461.4 527.5,463.1 527.5,463.8 530.5,462.1 "/>
<polygon class="st28" points="534.7,463.8 530.5,461.4 530.5,462.1 534.7,464.6 "/>
<path class="st4" d="M528,463.6l0.3-0.2c0.1-0.6,0.5-1.1,1-1.1c0.1,0,0.2,0,0.4,0.1c0.1-0.4,0.5-0.7,0.9-0.7c0.4,0,0.8,0.4,0.9,0.9
	c0.1-0.1,0.2-0.1,0.4-0.1c0.4,0,0.7,0.3,0.9,0.8c0.1-0.1,0.2-0.1,0.3-0.1c0.4,0,0.7,0.3,0.8,0.7c0,0,0,0,0.1,0
	c0.3,0,0.5,0.3,0.6,0.6l0,0l0,0c0,0.1,0,0.1,0,0.2h-0.4l-2.5,1.2L528,463.6z"/>
<polygon class="st28" points="527.5,463.1 527.5,463.8 531.7,466.3 531.7,465.5 "/>
<polygon class="st20" points="531.7,465.5 531.7,466.3 534.7,464.6 534.7,463.8 "/>
<path class="st7" d="M531.9,463.8c0,0,0.1-0.2,0.2-0.2s0.2,0.1,0.2,0.1c0-0.1-0.1-0.2-0.3-0.2S531.9,463.7,531.9,463.8z"/>
<path class="st7" d="M532,464.3c0,0,0.2-0.2,0.5-0.2c0.3,0,0.5,0.2,0.5,0.2c0-0.3-0.2-0.5-0.5-0.5C532.3,463.8,532,464,532,464.3z"
	/>
<path class="st7" d="M529.9,462.4c0,0,0.2-0.2,0.4-0.2c0.2-0.1,0.4,0,0.4,0c-0.1-0.2-0.3-0.3-0.5-0.2
	C530,462,529.9,462.2,529.9,462.4z"/>
<path class="st5" d="M523.9,462.7l0,8.4c0,0,0,0,0,0.1c-0.1,0-0.2,0-0.2,0c0,0,0,0,0-0.1l0-8.4c0,0,0,0,0,0.1
	C523.7,462.8,523.8,462.8,523.9,462.7C523.9,462.7,523.9,462.7,523.9,462.7z"/>
<g>
	<g class="st0">
		<defs>
			<polygon id="SVGID_7_" class="st0" points="518,461.5 540.5,448.4 546.2,451.7 523.7,464.8 			"/>
		</defs>
		<use xlink:href="#SVGID_7_"  style="overflow:visible;fill:#43A4C9;"/>
		<clipPath id="SVGID_8_">
			<use xlink:href="#SVGID_7_"  style="overflow:visible;"/>
		</clipPath>
		<g class="st33">
			<polyline class="st5" points="546.2,451.7 540.5,448.4 518,461.5 523.7,464.8 529.1,461.6 546.2,451.7 			"/>
		</g>
	</g>
</g>
<polygon class="st34" points="540.5,448.4 546.2,451.7 542.8,453.7 537.2,450.4 "/>
<polygon class="st34" points="533.8,452.4 539.4,455.6 536.1,457.6 530.4,454.3 "/>
<polygon class="st34" points="526.9,456.4 532.5,459.7 529.2,461.6 523.5,458.3 "/>
<polygon class="st34" points="519.7,460.5 525.4,463.8 523.7,464.8 518,461.5 "/>
<g>
	<polygon class="st28" points="501.6,433.8 505,435.8 505,436.6 501.6,434.6 	"/>
	<polygon class="st20" points="487.8,441.9 501.6,433.8 501.6,434.6 487.8,442.7 	"/>
	<path class="st4" d="M504.5,436.3l-0.4-0.2c-0.1-0.7-0.5-1.2-1.1-1.2c-0.1,0-0.3,0-0.4,0.1c-0.2-0.5-0.5-0.9-1-0.9
		c-0.5,0-0.9,0.4-1,1c-0.1-0.1-0.3-0.1-0.4-0.1c-0.4,0-0.8,0.4-1,0.9c-0.1-0.1-0.2-0.1-0.4-0.1c-0.4,0-0.8,0.3-1,0.8
		c0,0-0.1,0-0.1,0c-0.3,0-0.6,0.3-0.7,0.7l0,0l0,0c0,0.1,0,0.1,0,0.2h0.5l2.8,1.4L504.5,436.3z"/>
	<path class="st7" d="M500,436.6c0,0-0.1-0.2-0.2-0.2c-0.1,0-0.3,0.1-0.3,0.1c0-0.1,0.2-0.2,0.3-0.2
		C499.9,436.3,500,436.4,500,436.6z"/>
	<path class="st7" d="M499.9,437.1c0,0-0.3-0.2-0.6-0.2s-0.6,0.2-0.6,0.2c0-0.3,0.3-0.6,0.6-0.6S499.9,436.8,499.9,437.1z"/>
	<path class="st4" d="M500.3,438.6l-0.4-0.2c-0.1-0.7-0.5-1.2-1.1-1.2c-0.1,0-0.3,0-0.4,0.1c-0.2-0.5-0.5-0.9-1-0.9
		c-0.5,0-0.9,0.4-1,1c-0.1-0.1-0.3-0.1-0.4-0.1c-0.4,0-0.8,0.4-1,0.9c-0.1-0.1-0.2-0.1-0.4-0.1c-0.4,0-0.8,0.3-1,0.8
		c0,0-0.1,0-0.1,0c-0.3,0-0.6,0.3-0.7,0.7l0,0l0,0c0,0.1,0,0.1,0,0.2h0.5l2.8,1.4L500.3,438.6z"/>
	<path class="st4" d="M496.6,441l-0.2-0.9c-0.1-0.7-1.9,0.1-2.5,0.1c-0.1,0-0.2-0.2-0.3-0.2c-0.2-0.5-0.7-0.6-1.1-0.6
		c-0.5,0-0.9,0.4-1,1c-0.1-0.1-0.3-0.1-0.4-0.1c-0.4,0-0.8,0.4-1,0.9c-0.1-0.1-0.2-0.1-0.4-0.1c-0.4,0-0.8,0.3-1,0.8
		c0,0-0.1,0-0.1,0c-0.3,0-0.6,0.3-0.7,0.7l0,0l0,0c0,0.1,0.3-0.2,0.3,0.1l0.2,0.2l2.8,1.4L496.6,441z"/>
	<polygon class="st20" points="505,435.8 505,436.6 491.2,444.6 491.2,443.8 	"/>
	<polygon class="st28" points="491.2,443.8 491.2,444.6 487.8,442.7 487.8,441.9 	"/>
	<path class="st7" d="M490.4,442c0,0-0.1-0.2-0.2-0.2c-0.1,0-0.3,0.1-0.3,0.1c0-0.1,0.2-0.2,0.3-0.2
		C490.4,441.7,490.5,441.8,490.4,442z"/>
	<path class="st7" d="M493.4,442.2c0,0-0.2-0.2-0.5-0.3c-0.3-0.1-0.6,0-0.6,0c0.1-0.3,0.4-0.5,0.7-0.4
		C493.3,441.5,493.5,441.9,493.4,442.2z"/>
	<path class="st7" d="M490.1,441.5c0,0-0.3,0-0.5,0.1s-0.4,0.4-0.4,0.4c-0.1-0.2,0-0.4,0.2-0.6C489.7,441.3,490,441.3,490.1,441.5z"
		/>
	<path class="st7" d="M495.3,439.1c0,0-0.2-0.2-0.5-0.3c-0.3-0.1-0.6,0-0.6,0c0.1-0.3,0.4-0.5,0.7-0.4
		C495.2,438.5,495.3,438.8,495.3,439.1z"/>
	<path class="st7" d="M501.8,434.5c0,0-0.3,0-0.5,0.1S501,435,501,435c-0.1-0.2,0-0.4,0.2-0.6C501.5,434.3,501.7,434.3,501.8,434.5z
		"/>
</g>
<g>
	<ellipse class="st3" cx="506.6" cy="437.3" rx="0.7" ry="0.8"/>
	<path class="st2" d="M505.5,436.7c0,0,0,0.5,0.8,0.5c0.7,0,0.8-0.4,0.8-0.4l0.2,0.2c0,0,0.2-0.2-0.1-0.6c0,0-0.6-0.5-0.9,0.1
		C506,436.9,505.5,436.7,505.5,436.7z"/>
	<path class="st3" d="M506.7,438v0.3c0,0-0.4-0.1-0.5,0.1c0,0,0,0.4,0.5,0.4s0.6-0.5,0.6-0.5s-0.3-0.1-0.4,0c0,0,0-0.4,0-0.4
		L506.7,438z"/>
	<path class="st3" d="M505.9,439.8c0,0,0,2.5,0,2.5s0,0.2,0.1,0.2c0.2,0,0.2-0.2,0.2-0.2l0-2.6L505.9,439.8z"/>
	<path class="st3" d="M507.3,443.2c0,0,0.1,2.5,0.1,2.5s0,0.2,0.2,0.2c0.2,0,0.2-0.2,0.2-0.2l-0.1-2.6L507.3,443.2z"/>
	<path class="st3" d="M506.1,443.1c0,0-0.1,2.5-0.1,2.5s0,0.2,0.1,0.2c0.2,0,0.2-0.2,0.2-0.2l0.2-2.6L506.1,443.1z"/>
	<path class="st3" d="M507.5,440.1c0,0,0,2.5,0,2.5s0,0.2,0.1,0.2c0.2,0,0.2-0.2,0.2-0.2l0-2.6L507.5,440.1z"/>
	<path class="st2" d="M507.3,437.6c0,0-0.6,0.6-1.3,0.1c0,0,0,0,0,0c-0.1-0.1-0.3-0.7,0.1-1c0-0.1,1.1,0,1.1,0
		S507.5,437.1,507.3,437.6z"/>
	<polygon class="st7" points="506.1,441.5 506,443.6 506.5,443.7 506.6,442 507.1,442 507.1,443.7 507.7,443.7 507.6,441.5 	"/>
	<path class="st6" d="M506.3,438.4c0,0-0.6,0-0.6,1.6c0,0,0.3,0,0.3,0v1.7l1.5,0v-1.6l0.4-0.1c0,0,0.1-1.6-0.7-1.6
		c0,0,0.1,0.4-0.4,0.4C506.8,438.8,506.3,438.8,506.3,438.4z"/>
</g>
<g>
	<ellipse class="st3" cx="502.7" cy="437.2" rx="0.6" ry="0.8"/>
	<path class="st3" d="M502.8,438c0,0,0,0.3,0,0.3l-0.4,0.2c0,0-0.1,0.6,0.4,0.6c0,0,0.7,0,0.6-0.6c0,0-0.3-0.2-0.3-0.2l0-0.4
		L502.8,438z"/>
	<path class="st3" d="M502.2,442.4l0.1,2.6c0,0,0,0.1,0.1,0.2c0.1,0,0.2-0.1,0.2-0.1c0-0.1,0-2.6,0-2.6H502.2z"/>
	<path class="st3" d="M503,442.4l0.1,2.6c0,0,0,0.1,0.1,0.2c0.1,0,0.2-0.1,0.2-0.1c0-0.1,0-2.6,0-2.6H503z"/>
	<path class="st3" d="M502.1,438.7c0,0-0.4,2.1-0.4,3.4c0,0,0,0.2,0.1,0.2c0,0,0.1,0,0.1-0.2C502,442.1,502.1,438.7,502.1,438.7z"/>
	<path class="st3" d="M503.5,438.5l0.1,3.5c0,0,0,0.2,0.1,0.2c0.2,0,0.1-0.1,0.1-0.2c0-0.1-0.1-3-0.1-3S503.7,438.6,503.5,438.5z"/>
	<path class="st5" d="M502.4,438.4c0,0-0.2,0-0.2,0.2c0,0-0.1,3.8-0.1,3.8l1.6,0l-0.1-4c0,0-0.1-0.1-0.2-0.1c0,0,0,0.4-0.4,0.4
		C502.7,438.9,502.4,438.9,502.4,438.4z"/>
	<path class="st2" d="M501.8,438c0,0-0.3-1.4,0.8-1.7c0,0,1-0.2,1.1,1.1c0,0,0.1,1.1-0.6,1.1C503.1,438.5,502.1,438.7,501.8,438z"/>
</g>
<g>
	<polygon class="st35" points="541.5,456.4 540.8,456.8 540.1,456.4 540.8,456 	"/>
	<polygon class="st20" points="541.5,456.4 541.5,457.3 540.8,457.7 540.8,456.8 	"/>
	<polygon class="st28" points="540.8,456.8 540.8,457.7 540.1,457.3 540.1,456.4 	"/>
</g>
<g>
	<polygon class="st35" points="543.1,457.2 542,457.8 541,457.2 542,456.6 	"/>
	<polygon class="st20" points="543.1,457.2 543.1,458.5 542,459.1 542,457.8 	"/>
	<polygon class="st28" points="542,457.8 542,459.1 541,458.5 541,457.2 	"/>
</g>
<g>
	<polygon class="st35" points="544.3,458.1 543.6,458.5 542.9,458.1 543.6,457.7 	"/>
	<polygon class="st20" points="544.3,458.1 544.3,459 543.6,459.4 543.6,458.5 	"/>
	<polygon class="st28" points="543.6,458.5 543.6,459.4 542.9,459 542.9,458.1 	"/>
</g>
<g>
	<polygon class="st35" points="540.4,458.4 539.5,458.9 538.5,458.4 539.4,457.8 	"/>
	<polygon class="st20" points="540.4,458.4 540.4,459.6 539.5,460.2 539.5,458.9 	"/>
	<polygon class="st28" points="539.5,458.9 539.5,460.2 538.5,459.6 538.5,458.4 	"/>
</g>
<g>
	<polygon class="st35" points="541,459.5 540.5,459.8 540,459.5 540.5,459.2 	"/>
	<polygon class="st20" points="541,459.5 541,460.2 540.5,460.5 540.5,459.8 	"/>
	<polygon class="st28" points="540.5,459.8 540.5,460.5 540,460.2 540,459.5 	"/>
</g>
<g>
	<polygon class="st35" points="542.2,458.9 541.7,459.2 541.2,458.9 541.7,458.6 	"/>
	<polygon class="st20" points="542.2,458.9 542.2,459.5 541.7,459.8 541.7,459.2 	"/>
	<polygon class="st28" points="541.7,459.2 541.7,459.8 541.2,459.5 541.2,458.9 	"/>
</g>
<g>
	<polygon class="st35" points="536.1,459.7 535.1,460.3 534,459.7 535.1,459.1 	"/>
	<polygon class="st20" points="536.1,459.7 536.1,461 535.1,461.6 535.1,460.3 	"/>
	<polygon class="st28" points="535.1,460.3 535.1,461.6 534,461 534,459.7 	"/>
</g>
<g>
	<polygon class="st35" points="538.1,460.6 537.4,461.1 536.6,460.6 537.3,460.2 	"/>
	<polygon class="st20" points="538.1,460.6 538,461.6 537.3,462 537.4,461.1 	"/>
	<polygon class="st28" points="537.4,461.1 537.3,462 536.6,461.6 536.6,460.6 	"/>
</g>
<g>
	<polygon class="st35" points="535.5,461.6 534.9,461.9 534.4,461.6 534.9,461.3 	"/>
	<polygon class="st20" points="535.5,461.6 535.5,462.2 534.9,462.5 534.9,461.9 	"/>
	<polygon class="st28" points="534.9,461.9 534.9,462.5 534.4,462.2 534.4,461.6 	"/>
</g>
<g>
	<polygon class="st35" points="485.7,443.7 485,444.1 484.3,443.7 485,443.2 	"/>
	<polygon class="st20" points="485.7,443.7 485.7,444.6 485,445 485,444.1 	"/>
	<polygon class="st28" points="485,444.1 485,445 484.3,444.6 484.3,443.7 	"/>
</g>
<g>
	<polygon class="st35" points="487.3,444.5 486.2,445.1 485.2,444.5 486.2,443.9 	"/>
	<polygon class="st20" points="487.3,444.5 487.3,445.8 486.2,446.4 486.2,445.1 	"/>
	<polygon class="st28" points="486.2,445.1 486.2,446.4 485.2,445.8 485.2,444.5 	"/>
</g>
<g>
	<polygon class="st35" points="492.6,450.4 491.9,450.8 491.2,450.4 491.9,450 	"/>
	<polygon class="st20" points="492.6,450.4 492.6,451.3 491.9,451.8 491.9,450.8 	"/>
	<polygon class="st28" points="491.9,450.8 491.9,451.8 491.2,451.3 491.2,450.4 	"/>
</g>
<g>
	<polygon class="st35" points="484.7,445.6 483.7,446.2 482.7,445.6 483.7,445.1 	"/>
	<polygon class="st20" points="484.7,445.6 484.7,446.9 483.7,447.5 483.7,446.2 	"/>
	<polygon class="st28" points="483.7,446.2 483.7,447.5 482.7,446.9 482.7,445.6 	"/>
</g>
<g>
	<polygon class="st35" points="495.2,450.2 494.6,450.5 494.1,450.2 494.6,449.9 	"/>
	<polygon class="st20" points="495.2,450.2 495.2,450.9 494.6,451.2 494.6,450.5 	"/>
	<polygon class="st28" points="494.6,450.5 494.6,451.2 494.1,450.9 494.1,450.2 	"/>
</g>
<g>
	<polygon class="st35" points="490.7,448.7 490.2,449 489.7,448.7 490.2,448.4 	"/>
	<polygon class="st20" points="490.7,448.7 490.7,449.4 490.2,449.7 490.2,449 	"/>
	<polygon class="st28" points="490.2,449 490.2,449.7 489.7,449.4 489.7,448.7 	"/>
</g>
<g>
	<polygon class="st35" points="489.5,447.2 488.5,447.8 487.5,447.2 488.5,446.6 	"/>
	<polygon class="st20" points="489.5,447.2 489.5,448.5 488.5,449.1 488.5,447.8 	"/>
	<polygon class="st28" points="488.5,447.8 488.5,449.1 487.5,448.5 487.5,447.2 	"/>
</g>
<g>
	<polygon class="st35" points="491.9,447.5 491.2,447.9 490.5,447.5 491.2,447.1 	"/>
	<polygon class="st20" points="491.9,447.5 491.9,448.4 491.2,448.8 491.2,447.9 	"/>
	<polygon class="st28" points="491.2,447.9 491.2,448.8 490.5,448.4 490.5,447.5 	"/>
</g>
<g>
	<polygon class="st35" points="489.3,449.5 488.8,449.8 488.3,449.5 488.8,449.2 	"/>
	<polygon class="st20" points="489.3,449.5 489.3,450.2 488.8,450.5 488.8,449.8 	"/>
	<polygon class="st28" points="488.8,449.8 488.8,450.5 488.3,450.2 488.3,449.5 	"/>
</g>
<g>
	<polygon class="st35" points="497.8,450.9 497.1,451.3 496.4,450.9 497.1,450.5 	"/>
	<polygon class="st20" points="497.8,450.9 497.8,451.8 497.1,452.2 497.1,451.3 	"/>
	<polygon class="st28" points="497.1,451.3 497.1,452.2 496.4,451.8 496.4,450.9 	"/>
</g>
<g>
	<polygon class="st35" points="499.3,451.8 498.3,452.4 497.3,451.8 498.3,451.2 	"/>
	<polygon class="st20" points="499.3,451.8 499.3,453.1 498.3,453.7 498.3,452.4 	"/>
	<polygon class="st28" points="498.3,452.4 498.3,453.7 497.3,453.1 497.3,451.8 	"/>
</g>
<g>
	<polygon class="st35" points="495,452.7 494.4,453 493.9,452.7 494.4,452.4 	"/>
	<polygon class="st20" points="495,452.7 495,453.4 494.4,453.7 494.4,453 	"/>
	<polygon class="st28" points="494.4,453 494.4,453.7 493.9,453.4 493.9,452.7 	"/>
</g>
<g>
	<polygon class="st35" points="496.1,451.5 495.4,451.9 494.7,451.5 495.4,451 	"/>
	<polygon class="st20" points="496.1,451.5 496.1,452.4 495.4,452.8 495.4,451.9 	"/>
	<polygon class="st28" points="495.4,451.9 495.4,452.8 494.7,452.4 494.7,451.5 	"/>
</g>
<path class="st7" d="M497,448.6l0,7c0,0,0,0,0,0.1c-0.1,0-0.2,0-0.2,0c0,0,0,0,0-0.1l0-7c0,0,0,0,0,0.1
	C496.8,448.7,496.9,448.7,497,448.6C497,448.6,497,448.6,497,448.6z"/>
<g class="st0">
	<defs>
		<polygon id="SVGID_9_" class="st0" points="479.6,439.6 502.1,426.5 519.3,436.4 496.8,449.5 		"/>
	</defs>
	<clipPath id="SVGID_10_">
		<use xlink:href="#SVGID_9_"  style="overflow:visible;"/>
	</clipPath>
	<polyline class="st36" points="507.8,429.8 502.1,426.5 479.6,439.6 485.3,442.8 496.8,449.5 502.3,446.4 490.7,439.7 507.8,429.8 
			"/>
</g>
<polygon class="st5" points="502.1,426.5 507.8,429.8 504.4,431.7 498.8,428.4 "/>
<polygon class="st5" points="495.2,430.5 500.9,433.8 497.6,435.7 491.9,432.4 "/>
<polygon class="st5" points="488.4,434.5 494.1,437.7 490.7,439.7 485,436.4 "/>
<polygon class="st5" points="481.6,438.4 499,448.2 496.8,449.5 479.6,439.6 "/>
<g>
	<g>
		<g class="st0">
			<g class="st0">
				<defs>
					<path id="SVGID_11_" class="st0" d="M493.3,404.8l-0.1,24.5c0,0.1,0,0.1-0.1,0.2c-0.2,0.1-0.5,0.1-0.7,0
						c-0.1-0.1-0.1-0.1-0.1-0.2l0.1-24.5c0,0.1,0,0.1,0.1,0.2c0.2,0.1,0.5,0.1,0.7,0C493.3,404.9,493.3,404.9,493.3,404.8z"/>
				</defs>
				<clipPath id="SVGID_12_">
					<use xlink:href="#SVGID_11_"  style="overflow:visible;"/>
				</clipPath>
				<g class="st37">
					<path class="st38" d="M493.3,404.8l-0.1,24.5c0,0.1,0,0.1-0.1,0.2c0,0,0,0,0,0l0.1-24.5c0,0,0,0,0,0
						C493.3,404.9,493.3,404.9,493.3,404.8"/>
					<path class="st39" d="M493.2,405l-0.1,24.5c0,0,0,0,0,0L493.2,405C493.2,405,493.2,405,493.2,405"/>
					<path class="st40" d="M493.1,405l-0.1,24.5c0,0,0,0,0,0L493.1,405C493.1,405,493.1,405,493.1,405"/>
					<path class="st41" d="M493.1,405l-0.1,24.5c0,0,0,0,0,0L493.1,405C493.1,405,493.1,405,493.1,405"/>
					<path class="st20" d="M493.1,405l-0.1,24.5c0,0,0,0,0,0L493.1,405C493.1,405,493.1,405,493.1,405"/>
					<path class="st42" d="M493.1,405l-0.1,24.5c0,0,0,0,0,0L493.1,405C493,405,493.1,405,493.1,405"/>
					<path class="st43" d="M493,405.1l-0.1,24.5c0,0,0,0,0,0L493,405.1C493,405.1,493,405.1,493,405.1"/>
					<path class="st44" d="M493,405.1l-0.1,24.5c0,0,0,0,0,0L493,405.1C493,405.1,493,405.1,493,405.1"/>
					<path class="st45" d="M493,405.1l-0.1,24.5c0,0,0,0,0,0L493,405.1C493,405.1,493,405.1,493,405.1"/>
					<path class="st21" d="M493,405.1l-0.1,24.5c0,0,0,0,0,0L493,405.1C493,405.1,493,405.1,493,405.1"/>
					<path class="st46" d="M492.9,405.1l-0.1,24.5c0,0,0,0,0,0L492.9,405.1C492.9,405.1,492.9,405.1,492.9,405.1"/>
					<path class="st47" d="M492.9,405.1l-0.1,24.5c0,0,0,0,0,0L492.9,405.1C492.9,405.1,492.9,405.1,492.9,405.1"/>
					<path class="st48" d="M492.9,405.1l-0.1,24.5c0,0,0,0,0,0L492.9,405.1C492.9,405.1,492.9,405.1,492.9,405.1"/>
					<path class="st49" d="M492.9,405.1l-0.1,24.5c0,0,0,0,0,0L492.9,405.1C492.9,405.1,492.9,405.1,492.9,405.1"/>
					<path class="st50" d="M492.9,405.1l-0.1,24.5c0,0,0,0,0,0L492.9,405.1C492.8,405.1,492.8,405.1,492.9,405.1"/>
					<path class="st26" d="M492.8,405.1l-0.1,24.5c0,0,0,0,0,0L492.8,405.1C492.8,405.1,492.8,405.1,492.8,405.1"/>
					<path class="st51" d="M492.8,405.1l-0.1,24.5c0,0,0,0,0,0L492.8,405.1C492.8,405.1,492.8,405.1,492.8,405.1"/>
					<path class="st52" d="M492.8,405.1l-0.1,24.5c0,0,0,0,0,0L492.8,405.1C492.7,405.1,492.8,405.1,492.8,405.1"/>
					<path class="st53" d="M492.7,405.1l-0.1,24.5c0,0,0,0,0,0L492.7,405.1C492.7,405.1,492.7,405.1,492.7,405.1"/>
					<path class="st54" d="M492.7,405l-0.1,24.5c0,0,0,0-0.1,0L492.7,405C492.7,405,492.7,405,492.7,405"/>
					<path class="st55" d="M492.6,405l-0.1,24.5c0,0-0.1,0-0.1,0L492.6,405C492.6,405,492.6,405,492.6,405"/>
					<path class="st54" d="M492.5,405l-0.1,24.5c0,0,0,0,0,0c0,0,0,0,0,0L492.5,405C492.5,405,492.5,405,492.5,405
						C492.5,405,492.5,405,492.5,405"/>
					<path class="st53" d="M492.5,405l-0.1,24.5c0,0,0,0,0,0L492.5,405C492.5,405,492.5,405,492.5,405"/>
					<path class="st52" d="M492.5,404.9l-0.1,24.5c0,0,0,0,0,0L492.5,404.9C492.5,404.9,492.5,404.9,492.5,404.9"/>
					<polyline class="st51" points="492.5,404.9 492.4,429.4 492.4,429.4 492.5,404.9 492.5,404.9 					"/>
					<polyline class="st26" points="492.5,404.9 492.4,429.4 492.4,429.4 492.4,404.9 492.5,404.9 					"/>
					<polyline class="st50" points="492.4,404.9 492.4,429.4 492.4,429.3 492.4,404.9 492.4,404.9 					"/>
					<polyline class="st49" points="492.4,404.9 492.4,429.3 492.4,429.3 492.4,404.9 492.4,404.9 					"/>
					<polyline class="st48" points="492.4,404.9 492.4,429.3 492.4,429.3 492.4,404.9 492.4,404.9 					"/>
					<polyline class="st47" points="492.4,404.9 492.4,429.3 492.3,429.3 492.4,404.9 492.4,404.9 					"/>
					<polyline class="st46" points="492.4,404.9 492.3,429.3 492.3,429.3 492.4,404.8 492.4,404.9 					"/>
					<polyline class="st21" points="492.4,404.8 492.3,429.3 492.3,429.3 492.4,404.8 492.4,404.8 					"/>
					<polyline class="st45" points="492.4,404.8 492.3,429.3 492.3,429.3 492.4,404.8 492.4,404.8 					"/>
					<polyline class="st44" points="492.4,404.8 492.3,429.3 492.3,429.3 492.4,404.8 492.4,404.8 					"/>
				</g>
			</g>
			<g>
				<path class="st56" d="M493.2,404.6c0.2,0.1,0.2,0.3,0,0.4c-0.2,0.1-0.5,0.1-0.7,0c-0.2-0.1-0.2-0.3,0-0.4
					C492.7,404.5,493,404.5,493.2,404.6z"/>
			</g>
		</g>
	</g>
</g>
<path class="st57" d="M466.9,436.1c2.8,0.3,5.4-0.9,7.8-2.3c8.6-5.1,15.2-13.5,18.2-23.1"/>
<g>
	<g>
		<g class="st0">
			<g class="st0">
				<defs>
					<path id="SVGID_13_" class="st0" d="M467.6,430.3l-0.1,24.5c0,0.1,0,0.1-0.1,0.2c-0.2,0.1-0.5,0.1-0.7,0
						c-0.1-0.1-0.1-0.1-0.1-0.2l0.1-24.5c0,0.1,0,0.1,0.1,0.2c0.2,0.1,0.5,0.1,0.7,0C467.6,430.4,467.6,430.3,467.6,430.3z"/>
				</defs>
				<clipPath id="SVGID_14_">
					<use xlink:href="#SVGID_13_"  style="overflow:visible;"/>
				</clipPath>
				<g class="st58">
					<path class="st38" d="M467.6,430.3l-0.1,24.5c0,0.1,0,0.1-0.1,0.2c0,0,0,0,0,0l0.1-24.5c0,0,0,0,0,0
						C467.6,430.4,467.6,430.3,467.6,430.3"/>
					<path class="st39" d="M467.5,430.5l-0.1,24.5c0,0,0,0,0,0L467.5,430.5C467.4,430.5,467.5,430.5,467.5,430.5"/>
					<path class="st40" d="M467.4,430.5l-0.1,24.5c0,0,0,0,0,0L467.4,430.5C467.4,430.5,467.4,430.5,467.4,430.5"/>
					<path class="st41" d="M467.4,430.5l-0.1,24.5c0,0,0,0,0,0L467.4,430.5C467.4,430.5,467.4,430.5,467.4,430.5"/>
					<path class="st20" d="M467.4,430.5l-0.1,24.5c0,0,0,0,0,0L467.4,430.5C467.4,430.5,467.4,430.5,467.4,430.5"/>
					<path class="st42" d="M467.3,430.5l-0.1,24.5c0,0,0,0,0,0L467.3,430.5C467.3,430.5,467.3,430.5,467.3,430.5"/>
					<path class="st43" d="M467.3,430.5l-0.1,24.5c0,0,0,0,0,0L467.3,430.5C467.3,430.5,467.3,430.5,467.3,430.5"/>
					<path class="st44" d="M467.3,430.5l-0.1,24.5c0,0,0,0,0,0L467.3,430.5C467.3,430.5,467.3,430.5,467.3,430.5"/>
					<path class="st45" d="M467.3,430.5l-0.1,24.5c0,0,0,0,0,0L467.3,430.5C467.3,430.5,467.3,430.5,467.3,430.5"/>
					<path class="st21" d="M467.3,430.5l-0.1,24.5c0,0,0,0,0,0L467.3,430.5C467.2,430.5,467.2,430.5,467.3,430.5"/>
					<path class="st46" d="M467.2,430.5l-0.1,24.5c0,0,0,0,0,0L467.2,430.5C467.2,430.5,467.2,430.5,467.2,430.5"/>
					<path class="st47" d="M467.2,430.5l-0.1,24.5c0,0,0,0,0,0L467.2,430.5C467.2,430.5,467.2,430.5,467.2,430.5"/>
					<path class="st48" d="M467.2,430.5l-0.1,24.5c0,0,0,0,0,0L467.2,430.5C467.2,430.5,467.2,430.5,467.2,430.5"/>
					<path class="st49" d="M467.2,430.5l-0.1,24.5c0,0,0,0,0,0L467.2,430.5C467.1,430.5,467.2,430.5,467.2,430.5"/>
					<path class="st50" d="M467.1,430.5l-0.1,24.5c0,0,0,0,0,0L467.1,430.5C467.1,430.5,467.1,430.5,467.1,430.5"/>
					<path class="st26" d="M467.1,430.5L467,455c0,0,0,0,0,0L467.1,430.5C467.1,430.5,467.1,430.5,467.1,430.5"/>
					<path class="st51" d="M467.1,430.5L467,455c0,0,0,0,0,0L467.1,430.5C467.1,430.5,467.1,430.5,467.1,430.5"/>
					<path class="st52" d="M467.1,430.5L467,455c0,0,0,0,0,0L467.1,430.5C467,430.5,467,430.5,467.1,430.5"/>
					<path class="st53" d="M467,430.5L467,455c0,0,0,0,0,0L467,430.5C467,430.5,467,430.5,467,430.5"/>
					<path class="st54" d="M467,430.5l-0.1,24.5c0,0,0,0-0.1,0L467,430.5C466.9,430.5,467,430.5,467,430.5"/>
					<path class="st55" d="M466.9,430.5l-0.1,24.5c0,0-0.1,0-0.1,0L466.9,430.5C466.9,430.5,466.9,430.5,466.9,430.5"/>
					<path class="st54" d="M466.8,430.5l-0.1,24.5c0,0,0,0,0,0c0,0,0,0,0,0L466.8,430.5C466.8,430.4,466.8,430.4,466.8,430.5
						C466.8,430.4,466.8,430.4,466.8,430.5"/>
					<path class="st53" d="M466.8,430.4l-0.1,24.5c0,0,0,0,0,0L466.8,430.4C466.8,430.4,466.8,430.4,466.8,430.4"/>
					<path class="st52" d="M466.8,430.4l-0.1,24.5c0,0,0,0,0,0L466.8,430.4C466.8,430.4,466.8,430.4,466.8,430.4"/>
					<path class="st51" d="M466.8,430.4l-0.1,24.5c0,0,0,0,0,0L466.8,430.4C466.7,430.4,466.8,430.4,466.8,430.4"/>
					<polyline class="st26" points="466.7,430.4 466.7,454.8 466.7,454.8 466.7,430.4 466.7,430.4 					"/>
					<polyline class="st50" points="466.7,430.4 466.7,454.8 466.7,454.8 466.7,430.3 466.7,430.4 					"/>
					<polyline class="st49" points="466.7,430.3 466.7,454.8 466.6,454.8 466.7,430.3 466.7,430.3 					"/>
					<polyline class="st48" points="466.7,430.3 466.6,454.8 466.6,454.8 466.7,430.3 466.7,430.3 					"/>
					<polyline class="st47" points="466.7,430.3 466.6,454.8 466.6,454.8 466.7,430.3 466.7,430.3 					"/>
					<polyline class="st46" points="466.7,430.3 466.6,454.8 466.6,454.7 466.7,430.3 466.7,430.3 					"/>
					<polyline class="st21" points="466.7,430.3 466.6,454.7 466.6,454.7 466.7,430.3 466.7,430.3 					"/>
					<polyline class="st45" points="466.7,430.3 466.6,454.7 466.6,454.7 466.7,430.3 466.7,430.3 					"/>
					<polyline class="st44" points="466.7,430.3 466.6,454.7 466.6,454.7 466.7,430.3 466.7,430.3 					"/>
				</g>
			</g>
			<g>
				<path class="st56" d="M467.5,430.1c0.2,0.1,0.2,0.3,0,0.4c-0.2,0.1-0.5,0.1-0.7,0c-0.2-0.1-0.2-0.3,0-0.4
					C467,430,467.3,430,467.5,430.1z"/>
			</g>
		</g>
	</g>
</g>
<path class="st57" d="M492.8,410.6c0.2,1.4,1.7,2.5,2.8,3.3c1.2,0.8,2.6,1.1,3.9,1.4c2.2,0.5,4.5,0.3,6.7,0.4
	c2.5,0.1,5.1-0.1,7.6-0.8c2.5-0.7,4.8-1.8,6.7-3.6"/>
<g>
	<defs>
		<rect id="SVGID_15_" x="492.4" y="410" width="0.9" height="1.5"/>
	</defs>
	<clipPath id="SVGID_16_">
		<use xlink:href="#SVGID_15_"  style="overflow:visible;"/>
	</clipPath>
	<path class="st59" d="M492.2,410.5c0.3,0.2,1,0.2,1.3,0"/>
</g>
<polygon class="st34" points="538.6,396.2 563.4,426.9 563.4,437.2 513.7,408.5 513.7,398.2 "/>
<g>
	<g>
		<g>
			<g class="st0">
				<defs>
					<polygon id="SVGID_17_" class="st0" points="656.2,350.9 656.2,344.4 657.2,343.8 657.2,350.3 					"/>
				</defs>
				<clipPath id="SVGID_18_">
					<use xlink:href="#SVGID_17_"  style="overflow:visible;"/>
				</clipPath>
				<g class="st60">
					<g>
						<g>
							<g>
								<path class="st11" d="M657.2,345.9C657.2,345.9,657.2,345.9,657.2,345.9C657.2,345.9,657.2,345.9,657.2,345.9 M656.3,344.3
									l-0.1,0.1c0,0.3,0,0.5,0.1,0.7c0.2,0.7,0.3,1.5,0.5,2.2c-0.1-0.2-0.2-0.3-0.3-0.4l-0.1,0l-0.1,0.1l0,0.2
									c0.2,0.6,0.6,1.1,0.7,1.8c0-0.2-0.2-0.2-0.3-0.1c0,0,0,0,0,0c-0.2,0.1,0.4,0.8,0.5,1.3l0-0.1l0-3.3c0,0,0,0,0,0
									c0,0,0-0.3,0-0.5c0-0.3,0-0.5,0-0.5c0-0.3-0.2-1-0.3-1.2C656.8,344.4,656.6,344.4,656.3,344.3L656.3,344.3"/>
							</g>
						</g>
					</g>
				</g>
			</g>
		</g>
	</g>
	<g>
		<g>
			<g class="st0">
				<defs>
					<polygon id="SVGID_19_" class="st0" points="656.9,350.4 656.9,342.6 658.5,341.7 658.6,349.4 					"/>
				</defs>
				<clipPath id="SVGID_20_">
					<use xlink:href="#SVGID_19_"  style="overflow:visible;"/>
				</clipPath>
				<g class="st61">
					<g>
						<g>
							<g>
								<path class="st34" d="M658.5,341.7l-0.1,0.1c-0.3,0.4-0.5,0.9-0.6,1.3c-0.1,0.4-0.1,0.8-0.2,1.2c0-0.3,0-0.5,0-0.8
									c0-0.1,0-0.2-0.1-0.2c-0.1,0-0.1,0.4-0.1,0.6c-0.2,1.2-0.2,2.4-0.2,3.5c0-0.2-0.1-0.5-0.2-0.5c0,0,0,0,0,0
									c-0.4,0.2,0.2,2.1,0.2,3.2l0,0l0,0.1c0.1-0.7,0.8-2.3,0.6-2.2c0,0,0,0,0,0c-0.2,0.1-0.4,0.4-0.4,0.6c0.2-1,0.7-2.1,0.9-3.2
									c0-0.1,0-0.2,0-0.3l-0.1,0l-0.1,0.1c-0.2,0.3-0.3,0.6-0.4,0.8c0.2-1.1,0.4-2.2,0.7-3.4C658.5,342.4,658.6,342,658.5,341.7
									C658.5,341.7,658.5,341.7,658.5,341.7"/>
							</g>
						</g>
					</g>
				</g>
			</g>
		</g>
	</g>
	<g>
		<g>
			<g class="st0">
				<defs>
					<polygon id="SVGID_21_" class="st0" points="657.1,356.1 657.1,354.3 657.8,353.9 657.8,355.8 					"/>
				</defs>
				<clipPath id="SVGID_22_">
					<use xlink:href="#SVGID_21_"  style="overflow:visible;"/>
				</clipPath>
				<g class="st62">
					<g>
						<g>
							<g>
								<path class="st52" d="M657.5,354.1C657.5,354.1,657.4,354.1,657.5,354.1c0,0.1,0,0.3-0.1,0.4c-0.1,0.2-0.1,0.3-0.2,0.5
									c-0.1,0.4-0.2,0.7,0.2,0.7c0.1,0,0.2,0,0.4,0c-0.4,0-0.5-0.2-0.5-0.5c0.1-0.4,0.4-0.9,0.3-1.2l0,0
									C657.6,354,657.5,354,657.5,354.1 M657.4,354.1L657.4,354.1C657.4,354.1,657.4,354.1,657.4,354.1
									C657.4,354.1,657.4,354.1,657.4,354.1"/>
							</g>
						</g>
					</g>
				</g>
			</g>
		</g>
	</g>
	<g>
		<g>
			<g class="st0">
				<defs>
					<polygon id="SVGID_23_" class="st0" points="654.5,355.6 654.5,351.5 659.8,348.5 659.8,352.6 					"/>
				</defs>
				<clipPath id="SVGID_24_">
					<use xlink:href="#SVGID_23_"  style="overflow:visible;"/>
				</clipPath>
				<g class="st63">
					<g>
						<g>
							<g>
								<path class="st64" d="M657.1,350c-1.4,0.8-2.6,2.4-2.6,3.6c0,1.1,1.2,1.4,2.6,0.6c1.4-0.8,2.6-2.4,2.6-3.6
									S658.6,349.1,657.1,350"/>
							</g>
						</g>
					</g>
				</g>
			</g>
		</g>
	</g>
	<g>
		<g>
			<g class="st0">
				<defs>
					<polygon id="SVGID_25_" class="st0" points="654.5,355.9 654.5,353.8 659.8,350.8 659.8,352.8 					"/>
				</defs>
				<clipPath id="SVGID_26_">
					<use xlink:href="#SVGID_25_"  style="overflow:visible;"/>
				</clipPath>
				<g class="st65">
					<g>
						<g>
							<g>
								<path class="st52" d="M659.8,350.8c0,0-0.2,1.6-2.5,2.9c0,0,0,0-0.1,0c-2.4,1.4-2.6,0.1-2.6,0.1c0,1.1,1.2,1.4,2.6,0.6
									C658.6,353.5,659.8,351.9,659.8,350.8"/>
							</g>
						</g>
					</g>
				</g>
			</g>
		</g>
	</g>
</g>
<g>
	<g>
		<g class="st0">
			<defs>
				<polygon id="SVGID_27_" class="st0" points="529.4,406.8 529.4,402.8 530.1,403.1 530,407.1 				"/>
			</defs>
			<clipPath id="SVGID_28_">
				<use xlink:href="#SVGID_27_"  style="overflow:visible;"/>
			</clipPath>
			<g class="st66">
				<path class="st11" d="M530.1,404.4C530.1,404.4,530.1,404.4,530.1,404.4C530.1,404.4,530.1,404.4,530.1,404.4 M529.5,402.8
					L529.5,402.8c-0.1,0.2,0,0.3,0,0.5c0.1,0.6,0.2,1.2,0.3,1.7c0-0.1-0.1-0.3-0.2-0.4l-0.1-0.1l0,0l0,0.1c0.1,0.5,0.4,1.1,0.4,1.6
					c0-0.1-0.1-0.2-0.2-0.3c0,0,0,0,0,0c-0.1,0,0.2,0.8,0.3,1.1l0-0.1l0-2c0,0,0,0,0,0c0,0,0-0.2,0-0.3c0-0.2,0-0.3,0-0.3
					c0,0,0,0,0,0c0-0.2-0.1-0.7-0.2-0.9C529.8,403.2,529.7,403.1,529.5,402.8L529.5,402.8"/>
			</g>
		</g>
	</g>
	<g>
		<g class="st0">
			<defs>
				<polygon id="SVGID_29_" class="st0" points="529.8,407.1 529.8,402.4 530.9,403 530.8,407.7 				"/>
			</defs>
			<clipPath id="SVGID_30_">
				<use xlink:href="#SVGID_29_"  style="overflow:visible;"/>
			</clipPath>
			<g class="st67">
				<path class="st10" d="M530.8,402.9L530.8,402.9c-0.2,0-0.4,0.2-0.4,0.4c-0.1,0.2-0.1,0.4-0.1,0.6c0-0.2,0-0.3,0-0.5
					c0-0.1,0-0.2-0.1-0.2c0,0-0.1,0.2-0.1,0.2c-0.1,0.6-0.2,1.3-0.1,2c0-0.1-0.1-0.4-0.1-0.5c0,0,0,0,0,0c-0.2-0.1,0.1,1.4,0.1,2.1
					l0,0l0,0.1c0.1-0.3,0.5-0.8,0.4-0.9c0,0,0,0,0,0c-0.1-0.1-0.2,0-0.2,0.1c0.1-0.5,0.4-0.8,0.6-1.3l0-0.1l0-0.1l-0.1,0
					c-0.1,0-0.2,0.1-0.2,0.3c0.1-0.5,0.3-1.1,0.4-1.6c0-0.1,0.1-0.3,0.1-0.5L530.8,402.9"/>
			</g>
		</g>
	</g>
	<g>
		<g class="st0">
			<defs>
				<polygon id="SVGID_31_" class="st0" points="529.2,410.2 529.2,409 529.6,409.2 529.6,410.4 				"/>
			</defs>
			<clipPath id="SVGID_32_">
				<use xlink:href="#SVGID_31_"  style="overflow:visible;"/>
			</clipPath>
			<g class="st68">
				<path class="st52" d="M529.4,409.1C529.4,409.1,529.4,409.1,529.4,409.1c0,0.1,0,0.2,0,0.2c0,0.1-0.1,0.1-0.1,0.2
					c-0.1,0.1-0.1,0.3,0.1,0.6c0.1,0.1,0.2,0.2,0.2,0.3c-0.2-0.3-0.3-0.5-0.3-0.6C529.3,409.5,529.5,409.4,529.4,409.1L529.4,409.1
					C529.5,409.2,529.4,409.1,529.4,409.1 M529.3,409.1L529.3,409.1C529.3,409.1,529.3,409.1,529.3,409.1
					C529.4,409.1,529.4,409.1,529.3,409.1"/>
			</g>
		</g>
	</g>
	<g>
		<g class="st0">
			<defs>
				<polygon id="SVGID_33_" class="st0" points="528.1,408.3 528.1,405.7 531.3,407.6 531.3,410.2 				"/>
			</defs>
			<clipPath id="SVGID_34_">
				<use xlink:href="#SVGID_33_"  style="overflow:visible;"/>
			</clipPath>
			<g class="st69">
				<path class="st64" d="M529.7,406.7c-0.9-0.5-1.6-0.4-1.6,0.3s0.7,1.7,1.6,2.2c0.9,0.5,1.6,0.4,1.6-0.3S530.6,407.2,529.7,406.7"
					/>
			</g>
		</g>
	</g>
	<g>
		<g class="st0">
			<defs>
				<polygon id="SVGID_35_" class="st0" points="528.1,408.4 528.1,407.2 531.3,409 531.3,410.3 				"/>
			</defs>
			<clipPath id="SVGID_36_">
				<use xlink:href="#SVGID_35_"  style="overflow:visible;"/>
			</clipPath>
			<g class="st70">
				<path class="st52" d="M531.3,409c0,0-0.1,0.8-1.6,0c0,0,0,0,0,0c-1.5-0.9-1.6-1.8-1.6-1.8c0,0.7,0.7,1.7,1.6,2.2
					C530.6,409.9,531.3,409.7,531.3,409"/>
			</g>
		</g>
	</g>
</g>
<g>
	<g>
		<g class="st0">
			<defs>
				<polygon id="SVGID_37_" class="st0" points="534.9,409.1 534.9,402 536,402.7 536,409.7 				"/>
			</defs>
			<clipPath id="SVGID_38_">
				<use xlink:href="#SVGID_37_"  style="overflow:visible;"/>
			</clipPath>
			<g class="st71">
				<path class="st11" d="M536,404.9C536,404.9,536,404.9,536,404.9C536,404.9,536,404.9,536,404.9 M535,402.1L535,402.1
					c-0.1,0.3-0.1,0.6,0,0.9c0.2,1,0.4,2,0.5,3c-0.1-0.3-0.2-0.5-0.3-0.8l-0.1-0.1l-0.1,0l0,0.2c0.2,0.9,0.6,1.9,0.8,2.8
					c0-0.2-0.2-0.4-0.4-0.5c0,0,0,0,0,0c-0.2-0.1,0.4,1.4,0.5,2l0-0.1l0-3.6c0,0,0,0,0,0c0,0,0-0.3,0-0.6c0-0.3,0-0.6,0-0.6
					c0,0,0,0,0,0c0-0.4-0.2-1.2-0.3-1.6c-0.2-0.5-0.3-0.7-0.6-1.1L535,402.1"/>
			</g>
		</g>
	</g>
	<g>
		<g class="st0">
			<defs>
				<polygon id="SVGID_39_" class="st0" points="535.5,409.7 535.5,401.3 537.4,402.4 537.3,410.8 				"/>
			</defs>
			<clipPath id="SVGID_40_">
				<use xlink:href="#SVGID_39_"  style="overflow:visible;"/>
			</clipPath>
			<g class="st72">
				<path class="st10" d="M537.3,402.4l-0.1,0c-0.3,0.1-0.5,0.4-0.6,0.7c-0.1,0.3-0.2,0.7-0.2,1.1c0-0.3,0-0.5,0-0.8
					c0-0.1,0-0.3-0.1-0.4c-0.1,0-0.1,0.3-0.1,0.4c-0.2,1.1-0.3,2.3-0.2,3.5c0-0.2-0.1-0.7-0.2-0.8c0,0,0,0,0,0
					c-0.4-0.2,0.2,2.5,0.2,3.7l0,0l0,0.1c0.2-0.6,0.9-1.5,0.7-1.6c0,0,0,0,0,0c-0.2-0.1-0.4-0.1-0.4,0.1c0.2-0.9,0.7-1.5,1-2.3
					l0-0.2l-0.1-0.1l-0.2,0c-0.2,0.1-0.3,0.2-0.4,0.5c0.2-1,0.5-1.9,0.7-2.8c0.1-0.3,0.1-0.5,0.1-0.9L537.3,402.4"/>
			</g>
		</g>
	</g>
	<g>
		<g class="st0">
			<defs>
				<polygon id="SVGID_41_" class="st0" points="534.5,415 534.5,413 535.1,413.3 535.1,415.3 				"/>
			</defs>
			<clipPath id="SVGID_42_">
				<use xlink:href="#SVGID_41_"  style="overflow:visible;"/>
			</clipPath>
			<g class="st73">
				<path class="st52" d="M534.8,413.2C534.8,413.2,534.8,413.2,534.8,413.2c0,0.1,0,0.3-0.1,0.4c-0.1,0.1-0.2,0.2-0.2,0.3
					c-0.2,0.2-0.2,0.5,0.2,1c0.1,0.1,0.3,0.3,0.4,0.5c-0.4-0.5-0.6-0.9-0.5-1.1c0.1-0.3,0.5-0.5,0.4-0.9l0,0
					C534.9,413.2,534.9,413.2,534.8,413.2 M534.7,413.1L534.7,413.1C534.7,413.1,534.7,413.1,534.7,413.1
					C534.7,413.1,534.7,413.1,534.7,413.1"/>
			</g>
		</g>
	</g>
	<g>
		<g class="st0">
			<defs>
				<polygon id="SVGID_43_" class="st0" points="532.5,411.7 532.5,407.3 538.2,410.5 538.1,415 				"/>
			</defs>
			<clipPath id="SVGID_44_">
				<use xlink:href="#SVGID_43_"  style="overflow:visible;"/>
			</clipPath>
			<g class="st74">
				<path class="st64" d="M535.3,408.9c-1.6-0.9-2.8-0.6-2.8,0.6s1.3,3,2.8,3.9c1.6,0.9,2.8,0.6,2.8-0.6
					C538.2,411.5,536.9,409.8,535.3,408.9"/>
			</g>
		</g>
	</g>
	<g>
		<g class="st0">
			<defs>
				<polygon id="SVGID_45_" class="st0" points="532.5,412 532.5,409.7 538.2,413 538.2,415.2 				"/>
			</defs>
			<clipPath id="SVGID_46_">
				<use xlink:href="#SVGID_45_"  style="overflow:visible;"/>
			</clipPath>
			<g class="st75">
				<path class="st52" d="M538.2,413c0,0-0.2,1.4-2.7,0c0,0-0.1,0-0.1,0c-2.6-1.5-2.8-3.2-2.8-3.2c0,1.2,1.3,3,2.8,3.9
					C536.9,414.5,538.2,414.2,538.2,413"/>
			</g>
		</g>
	</g>
</g>
<g>
	<g>
		<g class="st0">
			<defs>
				<polygon id="SVGID_47_" class="st0" points="540.9,413.7 540.9,409.6 541.5,410 541.5,414 				"/>
			</defs>
			<clipPath id="SVGID_48_">
				<use xlink:href="#SVGID_47_"  style="overflow:visible;"/>
			</clipPath>
			<g class="st76">
				<path class="st11" d="M541.5,411.3C541.5,411.3,541.5,411.3,541.5,411.3C541.5,411.3,541.5,411.3,541.5,411.3 M541,409.7
					L541,409.7c-0.1,0.2,0,0.3,0,0.5c0.1,0.6,0.2,1.2,0.3,1.7c0-0.1-0.1-0.3-0.2-0.4l-0.1-0.1l0,0l0,0.1c0.1,0.5,0.4,1.1,0.4,1.6
					c0-0.1-0.1-0.2-0.2-0.3c0,0,0,0,0,0c-0.1,0,0.2,0.8,0.3,1.1l0-0.1l0-2c0,0,0,0,0,0c0,0,0-0.2,0-0.3c0-0.2,0-0.3,0-0.3
					c0,0,0,0,0,0c0-0.2-0.1-0.7-0.2-0.9C541.3,410.1,541.2,409.9,541,409.7L541,409.7"/>
			</g>
		</g>
	</g>
	<g>
		<g class="st0">
			<defs>
				<polygon id="SVGID_49_" class="st0" points="541.3,414 541.3,409.2 542.3,409.9 542.3,414.6 				"/>
			</defs>
			<clipPath id="SVGID_50_">
				<use xlink:href="#SVGID_49_"  style="overflow:visible;"/>
			</clipPath>
			<g class="st77">
				<path class="st10" d="M542.3,409.8L542.3,409.8c-0.2,0-0.4,0.2-0.4,0.4c-0.1,0.2-0.1,0.4-0.1,0.6c0-0.2,0-0.3,0-0.5
					c0-0.1,0-0.2-0.1-0.2c0,0-0.1,0.2-0.1,0.2c-0.1,0.6-0.2,1.3-0.1,2c0-0.1-0.1-0.4-0.1-0.5c0,0,0,0,0,0c-0.2-0.1,0.1,1.4,0.1,2.1
					l0,0l0,0.1c0.1-0.3,0.5-0.8,0.4-0.9c0,0,0,0,0,0c-0.1-0.1-0.2,0-0.2,0.1c0.1-0.5,0.4-0.8,0.6-1.3l0-0.1l0-0.1l-0.1,0
					c-0.1,0-0.2,0.1-0.2,0.3c0.1-0.5,0.3-1.1,0.4-1.6c0-0.1,0.1-0.3,0.1-0.5L542.3,409.8"/>
			</g>
		</g>
	</g>
	<g>
		<g class="st0">
			<defs>
				<polygon id="SVGID_51_" class="st0" points="540.7,417 540.7,415.9 541,416.1 541,417.2 				"/>
			</defs>
			<clipPath id="SVGID_52_">
				<use xlink:href="#SVGID_51_"  style="overflow:visible;"/>
			</clipPath>
			<g class="st78">
				<path class="st52" d="M540.9,416C540.9,416,540.8,416,540.9,416c0,0.1,0,0.2,0,0.2c0,0.1-0.1,0.1-0.1,0.2
					c-0.1,0.1-0.1,0.3,0.1,0.6c0.1,0.1,0.2,0.2,0.2,0.3c-0.2-0.3-0.3-0.5-0.3-0.6C540.8,416.4,541,416.3,540.9,416L540.9,416
					C540.9,416,540.9,416,540.9,416 M540.8,416L540.8,416C540.8,416,540.8,416,540.8,416C540.8,416,540.8,416,540.8,416"/>
			</g>
		</g>
	</g>
	<g>
		<g class="st0">
			<defs>
				<polygon id="SVGID_53_" class="st0" points="539.5,415.2 539.6,412.6 542.8,414.5 542.8,417 				"/>
			</defs>
			<clipPath id="SVGID_54_">
				<use xlink:href="#SVGID_53_"  style="overflow:visible;"/>
			</clipPath>
			<g class="st79">
				<path class="st64" d="M541.2,413.6c-0.9-0.5-1.6-0.4-1.6,0.3s0.7,1.7,1.6,2.2c0.9,0.5,1.6,0.4,1.6-0.3
					C542.8,415.1,542.1,414.1,541.2,413.6"/>
			</g>
		</g>
	</g>
	<g>
		<g class="st0">
			<defs>
				<polygon id="SVGID_55_" class="st0" points="539.5,415.3 539.5,414 542.8,415.9 542.8,417.2 				"/>
			</defs>
			<clipPath id="SVGID_56_">
				<use xlink:href="#SVGID_55_"  style="overflow:visible;"/>
			</clipPath>
			<g class="st80">
				<path class="st52" d="M542.8,415.9c0,0-0.1,0.8-1.6,0c0,0,0,0,0,0c-1.5-0.9-1.6-1.8-1.6-1.8c0,0.7,0.7,1.7,1.6,2.2
					C542.1,416.8,542.8,416.6,542.8,415.9"/>
			</g>
		</g>
	</g>
</g>
<circle class="st27" cx="494.8" cy="413" r="0.2"/>
<circle class="st7" cx="496" cy="414.5" r="0.2"/>
<circle class="st23" cx="498.5" cy="414.8" r="0.2"/>
<circle class="st7" cx="500.3" cy="415.8" r="0.2"/>
<circle class="st24" cx="501.9" cy="415.4" r="0.2"/>
<circle class="st23" cx="504.3" cy="416" r="0.2"/>
<circle class="st25" cx="506.6" cy="415.5" r="0.2"/>
<circle class="st27" cx="507.8" cy="416" r="0.2"/>
<circle class="st7" cx="509.6" cy="415.4" r="0.2"/>
<circle class="st23" cx="511.8" cy="415.6" r="0.2"/>
<circle class="st1" cx="514.3" cy="415.2" r="0.2"/>
<circle class="st81" cx="516.1" cy="413.9" r="0.2"/>
<circle class="st23" cx="517.1" cy="414" r="0.2"/>
<circle class="st25" cx="518.9" cy="412.5" r="0.2"/>
<circle class="st27" cx="469.5" cy="435.7" r="0.2"/>
<circle class="st7" cx="471.7" cy="435.5" r="0.2"/>
<circle class="st23" cx="472.9" cy="434.4" r="0.2"/>
<circle class="st7" cx="473.9" cy="434.4" r="0.2"/>
<circle class="st24" cx="476.7" cy="432.7" r="0.2"/>
<circle class="st23" cx="486.5" cy="423.7" r="0.2"/>
<circle class="st25" cx="483.9" cy="425.7" r="0.2"/>
<circle class="st27" cx="485.3" cy="424.9" r="0.2"/>
<circle class="st7" cx="478.6" cy="431.4" r="0.2"/>
<circle class="st23" cx="479.1" cy="430.3" r="0.2"/>
<circle class="st1" cx="476.8" cy="421.1" r="0.2"/>
<circle class="st81" cx="480.2" cy="430.1" r="0.2"/>
<circle class="st23" cx="482.7" cy="427.9" r="0.2"/>
<circle class="st25" cx="481.4" cy="428.4" r="0.2"/>
<circle class="st23" cx="489.7" cy="418.5" r="0.2"/>
<circle class="st7" cx="489.7" cy="417.5" r="0.2"/>
<circle class="st24" cx="487.8" cy="421.6" r="0.2"/>
<circle class="st81" cx="488" cy="420.5" r="0.2"/>
<circle class="st81" cx="491" cy="416.3" r="0.2"/>
<circle class="st25" cx="491.4" cy="414" r="0.2"/>
<ellipse class="st3" cx="519.4" cy="439.1" rx="1.7" ry="1.2"/>
<path class="st25" d="M521.1,439.1c0,0.7-0.8,1.2-1.7,1.2c0,0,0.1-0.5,0.1-1.2c0-0.7-0.1-1.2-0.1-1.2
	C520.3,437.9,521.1,438.5,521.1,439.1z"/>
<path class="st23" d="M519.4,436.3c0,0.1,0-0.7,0-0.6c0-0.2-0.1-0.6-0.2-0.8c-0.1-0.2-0.2-0.3-0.4-0.4c0,0,0,0-0.1,0
	c0,0,0,0-0.1,0.1c0,0.1,0,0.3,0,0.4c0.1,0.5,0.2,1,0.3,1.5c0-0.1-0.1-0.2-0.2-0.3c0,0,0,0-0.1,0c0,0,0,0,0,0c0,0,0,0.1,0,0.1
	c0.1,0.4,0.4,0.8,0.5,1.3c0-0.1-0.1-0.2-0.2-0.2c-0.1,0,0.3,0.6,0.3,0.9c0,0,0,0,0-0.1"/>
<path class="st24" d="M519.4,438.2c0-0.6-0.4-1.9-0.1-1.9c0.1,0,0.1,0.2,0.1,0.4c-0.1-0.6,0-1.3,0.1-1.9c0-0.1,0-0.3,0.1-0.3
	c0,0,0.1,0.1,0.1,0.2c0,0.2,0,0.3,0,0.4c0-0.2,0-0.4,0.1-0.7c0.1-0.2,0.2-0.4,0.4-0.6c0,0,0,0,0.1,0c0,0,0.1,0,0.1,0.1
	c0,0.2,0,0.3-0.1,0.5c-0.2,0.6-0.3,1.1-0.4,1.7c0-0.1,0.1-0.3,0.2-0.4c0,0,0.1,0,0.1,0c0,0,0,0,0,0c0,0,0,0.1,0,0.1
	c-0.2,0.5-0.5,1-0.6,1.5c0-0.1,0.2-0.2,0.3-0.2C520,437.2,519.5,437.9,519.4,438.2C519.4,438.3,519.4,438.2,519.4,438.2"/>
<g>
	<g class="st0">
		<defs>
			<polygon id="SVGID_885_" class="st0" points="614,440.9 614,439 615.6,438 615.6,439.9 			"/>
		</defs>
		<clipPath id="SVGID_57_">
			<use xlink:href="#SVGID_885_"  style="overflow:visible;"/>
		</clipPath>
		<path class="st82" d="M614.8,438.5c-0.5,0.3-0.8,0.9-0.8,1.4c0,0.5,0.4,0.7,0.8,0.5c0.5-0.3,0.8-0.9,0.8-1.4
			C615.6,438.4,615.3,438.2,614.8,438.5"/>
	</g>
	<g class="st0">
		<defs>
			<polygon id="SVGID_884_" class="st0" points="619.8,437.5 619.8,435.6 621.4,434.6 621.5,436.5 			"/>
		</defs>
		<clipPath id="SVGID_58_">
			<use xlink:href="#SVGID_884_"  style="overflow:visible;"/>
		</clipPath>
		<path class="st83" d="M620.6,435.1c-0.5,0.3-0.8,0.9-0.8,1.4c0,0.5,0.4,0.7,0.8,0.5c0.5-0.3,0.8-0.9,0.8-1.4
			C621.5,435,621.1,434.8,620.6,435.1"/>
	</g>
	<g>
		<polygon class="st84" points="620.1,434.3 614.6,431.2 617.3,430.4 622.7,433.6 		"/>
	</g>
	<g class="st0">
		<defs>
			<path id="SVGID_59_" class="st0" d="M615.7,434.7l-5.5-3.2c3-1.7,3.2-1.8,3.2-1.8l5.5,3.2C618.8,433,618.7,433,615.7,434.7z"/>
		</defs>
		<clipPath id="SVGID_60_">
			<use xlink:href="#SVGID_59_"  style="overflow:visible;"/>
		</clipPath>
		<g class="st85">
			<path class="st86" d="M615.7,434.7l-5.5-3.2c2-1.1,2.7-1.5,3-1.7l5.5,3.2C618.4,433.2,617.7,433.6,615.7,434.7"/>
			<path class="st87" d="M618.7,433l-5.5-3.2c0.1-0.1,0.1-0.1,0.2-0.1l5.5,3.2C618.8,433,618.8,433,618.7,433"/>
			<polyline class="st88" points="618.9,433 613.4,429.8 613.4,429.8 618.9,432.9 618.9,433 			"/>
		</g>
	</g>
	<g class="st0">
		<defs>
			<path id="SVGID_61_" class="st0" d="M614.1,437.8l-5.5-3.2c0.7-1.4,1.6-3,1.6-3.1l5.5,3.2C615.7,434.8,614.8,436.4,614.1,437.8z"
				/>
		</defs>
		<clipPath id="SVGID_62_">
			<use xlink:href="#SVGID_61_"  style="overflow:visible;"/>
		</clipPath>
		<g class="st89">
			<path class="st90" d="M614.1,437.8l-5.5-3.2c0.6-1.3,1.4-2.8,1.5-3l5.5,3.2C615.5,435,614.7,436.5,614.1,437.8"/>
			<path class="st90" d="M615.7,434.8l-5.5-3.2c0,0,0,0,0,0L615.7,434.8C615.7,434.8,615.7,434.8,615.7,434.8"/>
			<polyline class="st90" points="615.7,434.8 610.2,431.6 610.2,431.6 615.7,434.7 615.7,434.8 			"/>
			<polyline class="st90" points="615.7,434.7 610.2,431.6 610.2,431.6 615.7,434.7 615.7,434.7 			"/>
			<polyline class="st90" points="615.7,434.7 610.2,431.6 610.2,431.6 615.7,434.7 615.7,434.7 			"/>
			<polyline class="st91" points="615.7,434.7 610.2,431.6 610.2,431.6 615.7,434.7 615.7,434.7 			"/>
			<polyline class="st91" points="615.7,434.7 610.2,431.6 610.2,431.6 615.7,434.7 615.7,434.7 			"/>
			<polyline class="st92" points="615.7,434.7 610.2,431.6 610.2,431.6 615.7,434.7 615.7,434.7 			"/>
			<polyline class="st93" points="615.7,434.7 610.2,431.6 610.2,431.6 615.7,434.7 615.7,434.7 			"/>
			<polyline class="st94" points="615.7,434.7 610.2,431.6 610.2,431.6 615.7,434.7 615.7,434.7 			"/>
			<polyline class="st95" points="615.7,434.7 610.2,431.6 610.2,431.6 615.7,434.7 615.7,434.7 			"/>
			<polyline class="st96" points="615.7,434.7 610.2,431.6 610.2,431.6 615.7,434.7 615.7,434.7 			"/>
			<polyline class="st97" points="615.7,434.7 610.2,431.6 610.2,431.6 615.7,434.7 615.7,434.7 			"/>
			<polyline class="st98" points="615.7,434.7 610.2,431.6 610.2,431.6 615.7,434.7 615.7,434.7 			"/>
			<polyline class="st99" points="615.7,434.7 610.2,431.6 610.2,431.6 615.7,434.7 615.7,434.7 			"/>
			<polyline class="st100" points="615.7,434.7 610.2,431.6 610.2,431.6 615.7,434.7 615.7,434.7 			"/>
		</g>
	</g>
	<g>
		<path class="st101" d="M615.7,434.7c3-1.7,3.2-1.8,3.2-1.8l1.2,1.4l2.7-0.8l0,1.3l-10.2,5.9l0-1.7l1.6-1.1
			C614.8,436.4,615.7,434.8,615.7,434.7z"/>
	</g>
	<g>
		<polygon class="st90" points="612.6,440.7 607.1,437.5 607.1,435.8 612.6,438.9 		"/>
	</g>
	<g>
		<polygon class="st102" points="612.6,438.9 607.1,435.8 608.7,434.6 614.1,437.8 		"/>
	</g>
	<g class="st0">
		<defs>
			<polygon id="SVGID_63_" class="st0" points="614.7,437.4 612.8,436.5 617.2,434.2 617.2,436 			"/>
		</defs>
		<clipPath id="SVGID_64_">
			<use xlink:href="#SVGID_63_"  style="overflow:visible;"/>
		</clipPath>
		<polyline class="st103" points="617.2,434.2 616,434.9 614.8,437.3 617.2,436 617.2,434.2 		"/>
	</g>
	<g class="st0">
		<defs>
			<polygon id="SVGID_65_" class="st0" points="617.4,435.9 617.4,434.1 619.4,432.9 619.9,434.4 			"/>
		</defs>
		<clipPath id="SVGID_66_">
			<use xlink:href="#SVGID_65_"  style="overflow:visible;"/>
		</clipPath>
		<polyline class="st104" points="618.8,433.3 617.4,434.1 617.4,435.9 619.7,434.5 618.8,433.3 		"/>
	</g>
	<polygon class="st105" points="610.4,432 609.1,434.5 613.9,437.3 615.2,434.8 	"/>
	<g class="st0">
		<defs>
			<polygon id="SVGID_883_" class="st0" points="607.1,436.6 607.1,436 608.4,436.8 608.4,437.4 			"/>
		</defs>
		<clipPath id="SVGID_67_">
			<use xlink:href="#SVGID_883_"  style="overflow:visible;"/>
		</clipPath>
		<polyline class="st106" points="608.4,436.8 607.1,436 607.1,436.6 608.4,437.4 608.4,436.8 		"/>
	</g>
	<g class="st0">
		<defs>
			<polygon id="SVGID_882_" class="st0" points="611.3,439.1 611.3,438.5 612.6,439.2 612.6,439.8 			"/>
		</defs>
		<clipPath id="SVGID_68_">
			<use xlink:href="#SVGID_882_"  style="overflow:visible;"/>
		</clipPath>
		<polyline class="st107" points="612.6,439.2 611.3,438.5 611.3,439.1 612.6,439.8 612.6,439.2 		"/>
	</g>
	<g class="st0">
		<defs>
			<polygon id="SVGID_881_" class="st0" points="607.1,436.8 607.1,436.6 608.4,437.4 608.4,437.5 			"/>
		</defs>
		<clipPath id="SVGID_69_">
			<use xlink:href="#SVGID_881_"  style="overflow:visible;"/>
		</clipPath>
		<polyline class="st108" points="608.4,437.4 607.1,436.6 607.1,436.8 608.4,437.5 608.4,437.4 		"/>
	</g>
	<g class="st0">
		<defs>
			<polygon id="SVGID_880_" class="st0" points="611.3,439.2 611.3,439.1 612.6,439.8 612.6,440 			"/>
		</defs>
		<clipPath id="SVGID_70_">
			<use xlink:href="#SVGID_880_"  style="overflow:visible;"/>
		</clipPath>
		<polyline class="st109" points="612.6,439.8 611.3,439.1 611.3,439.2 612.6,440 612.6,439.8 		"/>
	</g>
</g>
<g>
	<g class="st0">
		<defs>
			<polygon id="SVGID_891_" class="st0" points="630.5,430.5 630.5,428.6 632.2,427.7 632.2,429.6 			"/>
		</defs>
		<clipPath id="SVGID_71_">
			<use xlink:href="#SVGID_891_"  style="overflow:visible;"/>
		</clipPath>
		<g class="st110">
			<path class="st105" d="M631.3,428.1c-0.5,0.3-0.8,0.9-0.8,1.4c0,0.5,0.4,0.7,0.8,0.5c0.5-0.3,0.8-0.9,0.8-1.4
				C632.2,428.1,631.8,427.9,631.3,428.1"/>
		</g>
	</g>
	<g class="st0">
		<defs>
			<polygon id="SVGID_890_" class="st0" points="636.3,427.1 636.3,425.2 638,424.3 638,426.2 			"/>
		</defs>
		<clipPath id="SVGID_72_">
			<use xlink:href="#SVGID_890_"  style="overflow:visible;"/>
		</clipPath>
		<g class="st111">
			<path class="st105" d="M637.1,424.7c-0.5,0.3-0.8,0.9-0.8,1.4c0,0.5,0.4,0.7,0.8,0.5c0.5-0.3,0.8-0.9,0.8-1.4
				C638,424.7,637.6,424.5,637.1,424.7"/>
		</g>
	</g>
	<g class="st0">
		<g>
			<polygon class="st112" points="636.6,424 631.1,420.8 633.8,420 639.2,423.2 			"/>
		</g>
		<g>
			<defs>
				<path id="SVGID_73_" d="M632.2,424.4l-5.5-3.2c3-1.7,3.2-1.8,3.2-1.8l5.5,3.2C635.4,422.6,635.2,422.7,632.2,424.4z"/>
			</defs>
			<use xlink:href="#SVGID_73_"  style="overflow:visible;fill:#F8B9AA;"/>
			<clipPath id="SVGID_74_">
				<use xlink:href="#SVGID_73_"  style="overflow:visible;"/>
			</clipPath>
			<g class="st113">
				<path class="st112" d="M632.2,424.4l-5.5-3.2c2-1.1,2.7-1.5,3-1.7l5.5,3.2C634.9,422.8,634.2,423.2,632.2,424.4"/>
				<path class="st112" d="M635.2,422.7l-5.5-3.2c0.1-0.1,0.1-0.1,0.2-0.1l5.5,3.2C635.4,422.6,635.3,422.6,635.2,422.7"/>
				<polyline class="st112" points="635.4,422.6 629.9,419.4 629.9,419.4 635.4,422.6 635.4,422.6 				"/>
			</g>
		</g>
		<g>
			<defs>
				<path id="SVGID_75_" d="M630.6,427.5l-5.5-3.2c0.7-1.4,1.6-3,1.6-3.1l5.5,3.2C632.2,424.4,631.3,426.1,630.6,427.5z"/>
			</defs>
			<use xlink:href="#SVGID_75_"  style="overflow:visible;fill:#FEF4F2;"/>
			<clipPath id="SVGID_76_">
				<use xlink:href="#SVGID_75_"  style="overflow:visible;"/>
			</clipPath>
			<g class="st114">
				<path class="st115" d="M630.6,427.5l-5.5-3.2c0.6-1.3,1.4-2.8,1.5-3l5.5,3.2C632.1,424.7,631.2,426.2,630.6,427.5"/>
				<path class="st115" d="M632.2,424.4l-5.5-3.2c0,0,0,0,0,0L632.2,424.4C632.2,424.4,632.2,424.4,632.2,424.4"/>
				<polyline class="st115" points="632.2,424.4 626.7,421.2 626.7,421.2 632.2,424.4 632.2,424.4 				"/>
				<polyline class="st115" points="632.2,424.4 626.7,421.2 626.7,421.2 632.2,424.4 632.2,424.4 				"/>
				<polyline class="st115" points="632.2,424.4 626.7,421.2 626.8,421.2 632.2,424.4 632.2,424.4 				"/>
				<polyline class="st115" points="632.2,424.4 626.8,421.2 626.8,421.2 632.2,424.4 632.2,424.4 				"/>
				<polyline class="st115" points="632.2,424.4 626.8,421.2 626.8,421.2 632.2,424.4 632.2,424.4 				"/>
				<polyline class="st115" points="632.2,424.4 626.8,421.2 626.8,421.2 632.2,424.4 632.2,424.4 				"/>
				<polyline class="st115" points="632.2,424.4 626.8,421.2 626.8,421.2 632.2,424.4 632.2,424.4 				"/>
				<polyline class="st115" points="632.2,424.4 626.8,421.2 626.8,421.2 632.2,424.4 632.2,424.4 				"/>
				<polyline class="st115" points="632.2,424.4 626.8,421.2 626.8,421.2 632.2,424.4 632.2,424.4 				"/>
				<polyline class="st115" points="632.2,424.4 626.8,421.2 626.8,421.2 632.2,424.4 632.2,424.4 				"/>
				<polyline class="st115" points="632.2,424.4 626.8,421.2 626.8,421.2 632.2,424.4 632.2,424.4 				"/>
				<polyline class="st115" points="632.2,424.4 626.8,421.2 626.8,421.2 632.2,424.4 632.2,424.4 				"/>
				<polyline class="st115" points="632.2,424.4 626.8,421.2 626.8,421.2 632.2,424.4 632.2,424.4 				"/>
				<polyline class="st115" points="632.2,424.4 626.8,421.2 626.8,421.2 632.2,424.4 632.2,424.4 				"/>
			</g>
		</g>
		<g>
			<path class="st116" d="M632.2,424.4c3-1.7,3.2-1.8,3.2-1.8l1.2,1.4l2.7-0.8l0,1.3l-10.2,5.9l0-1.7l1.6-1.1
				C631.3,426.1,632.2,424.4,632.2,424.4z"/>
		</g>
		<g>
			<polygon class="st115" points="629.1,430.3 623.6,427.2 623.6,425.4 629.1,428.6 			"/>
		</g>
		<g>
			<polygon class="st112" points="629.1,428.6 623.6,425.4 625.2,424.3 630.6,427.5 			"/>
		</g>
	</g>
	<g class="st0">
		<defs>
			<polygon id="SVGID_77_" class="st0" points="631.2,427.1 629.3,426.1 633.7,423.9 633.7,425.6 			"/>
		</defs>
		<clipPath id="SVGID_78_">
			<use xlink:href="#SVGID_77_"  style="overflow:visible;"/>
		</clipPath>
		<g class="st117">
			<polyline class="st105" points="633.7,423.9 632.5,424.5 631.3,427 633.7,425.6 633.7,423.9 			"/>
		</g>
	</g>
	<g class="st0">
		<defs>
			<polygon id="SVGID_79_" class="st0" points="633.9,425.5 633.9,423.8 636,422.5 636.4,424.1 			"/>
		</defs>
		<clipPath id="SVGID_80_">
			<use xlink:href="#SVGID_79_"  style="overflow:visible;"/>
		</clipPath>
		<g class="st118">
			<polyline class="st105" points="635.3,423 633.9,423.8 633.9,425.5 636.2,424.2 635.3,423 			"/>
		</g>
	</g>
	<polygon class="st105" points="626.9,421.7 625.6,424.2 630.4,427 631.7,424.5 	"/>
	<g class="st0">
		<defs>
			<polygon id="SVGID_889_" class="st0" points="623.6,426.3 623.6,425.7 624.9,426.4 624.9,427 			"/>
		</defs>
		<clipPath id="SVGID_81_">
			<use xlink:href="#SVGID_889_"  style="overflow:visible;"/>
		</clipPath>
		<g class="st119">
			<polyline class="st4" points="624.9,426.4 623.6,425.7 623.6,426.3 624.9,427 624.9,426.4 			"/>
		</g>
	</g>
	<g class="st0">
		<defs>
			<polygon id="SVGID_888_" class="st0" points="627.8,428.7 627.8,428.1 629.1,428.9 629.1,429.5 			"/>
		</defs>
		<clipPath id="SVGID_82_">
			<use xlink:href="#SVGID_888_"  style="overflow:visible;"/>
		</clipPath>
		<g class="st120">
			<polyline class="st4" points="629.1,428.9 627.8,428.1 627.8,428.7 629.1,429.5 629.1,428.9 			"/>
		</g>
	</g>
	<g class="st0">
		<defs>
			<polygon id="SVGID_887_" class="st0" points="623.6,426.4 623.6,426.3 624.9,427 624.9,427.2 			"/>
		</defs>
		<clipPath id="SVGID_83_">
			<use xlink:href="#SVGID_887_"  style="overflow:visible;"/>
		</clipPath>
		<g class="st121">
			<polyline class="st101" points="624.9,427 623.6,426.3 623.6,426.4 624.9,427.2 624.9,427 			"/>
		</g>
	</g>
	<g class="st0">
		<defs>
			<polygon id="SVGID_886_" class="st0" points="627.8,428.9 627.8,428.7 629.1,429.5 629.1,429.6 			"/>
		</defs>
		<clipPath id="SVGID_84_">
			<use xlink:href="#SVGID_886_"  style="overflow:visible;"/>
		</clipPath>
		<g class="st122">
			<polyline class="st101" points="629.1,429.5 627.8,428.7 627.8,428.9 629.1,429.6 629.1,429.5 			"/>
		</g>
	</g>
</g>
<g>
	<g class="st0">
		<defs>
			<polygon id="SVGID_897_" class="st0" points="595.7,451.2 595.7,449.3 597.4,448.3 597.4,450.2 			"/>
		</defs>
		<clipPath id="SVGID_85_">
			<use xlink:href="#SVGID_897_"  style="overflow:visible;"/>
		</clipPath>
		<g class="st123">
			<path class="st105" d="M596.5,448.8c-0.5,0.3-0.8,0.9-0.8,1.4c0,0.5,0.4,0.7,0.8,0.5c0.5-0.3,0.8-0.9,0.8-1.4
				C597.4,448.8,597,448.5,596.5,448.8"/>
		</g>
	</g>
	<g class="st0">
		<defs>
			<polygon id="SVGID_896_" class="st0" points="601.5,447.8 601.5,445.9 603.2,444.9 603.2,446.8 			"/>
		</defs>
		<clipPath id="SVGID_86_">
			<use xlink:href="#SVGID_896_"  style="overflow:visible;"/>
		</clipPath>
		<g class="st124">
			<path class="st105" d="M602.4,445.4c-0.5,0.3-0.8,0.9-0.8,1.4c0,0.5,0.4,0.7,0.8,0.5c0.5-0.3,0.8-0.9,0.8-1.4
				C603.2,445.4,602.8,445.2,602.4,445.4"/>
		</g>
	</g>
	<g class="st0">
		<g>
			<polygon class="st125" points="601.8,444.7 596.3,441.5 599,440.7 604.5,443.9 			"/>
		</g>
		<g>
			<defs>
				<path id="SVGID_87_" d="M597.4,445.1l-5.5-3.2c3-1.7,3.2-1.8,3.2-1.8l5.5,3.2C600.6,443.3,600.4,443.3,597.4,445.1z"/>
			</defs>
			<use xlink:href="#SVGID_87_"  style="overflow:visible;fill:#C8E5EE;"/>
			<clipPath id="SVGID_88_">
				<use xlink:href="#SVGID_87_"  style="overflow:visible;"/>
			</clipPath>
			<g class="st126">
				<path class="st125" d="M597.4,445.1l-5.5-3.2c2-1.1,2.7-1.5,3-1.7l5.5,3.2C600.2,443.5,599.4,443.9,597.4,445.1"/>
				<path class="st125" d="M600.4,443.4l-5.5-3.2c0.1-0.1,0.1-0.1,0.2-0.1l5.5,3.2C600.6,443.3,600.5,443.3,600.4,443.4"/>
				<polyline class="st125" points="600.6,443.3 595.1,440.1 595.1,440.1 600.6,443.3 600.6,443.3 				"/>
			</g>
		</g>
		<g>
			<defs>
				<path id="SVGID_89_" d="M595.9,448.1l-5.5-3.2c0.7-1.4,1.6-3,1.6-3.1l5.5,3.2C597.4,445.1,596.5,446.8,595.9,448.1z"/>
			</defs>
			<use xlink:href="#SVGID_89_"  style="overflow:visible;fill:#F6FBFC;"/>
			<clipPath id="SVGID_90_">
				<use xlink:href="#SVGID_89_"  style="overflow:visible;"/>
			</clipPath>
			<g class="st127">
				<path class="st128" d="M595.9,448.1l-5.5-3.2c0.6-1.3,1.4-2.8,1.5-3l5.5,3.2C597.3,445.4,596.5,446.9,595.9,448.1"/>
				<path class="st128" d="M597.4,445.1l-5.5-3.2c0,0,0,0,0,0L597.4,445.1C597.4,445.1,597.4,445.1,597.4,445.1"/>
				<polyline class="st128" points="597.4,445.1 592,441.9 592,441.9 597.4,445.1 597.4,445.1 				"/>
				<polyline class="st128" points="597.4,445.1 592,441.9 592,441.9 597.4,445.1 597.4,445.1 				"/>
				<polyline class="st128" points="597.4,445.1 592,441.9 592,441.9 597.4,445.1 597.4,445.1 				"/>
				<polyline class="st128" points="597.4,445.1 592,441.9 592,441.9 597.4,445.1 597.4,445.1 				"/>
				<polyline class="st128" points="597.4,445.1 592,441.9 592,441.9 597.4,445.1 597.4,445.1 				"/>
				<polyline class="st128" points="597.4,445.1 592,441.9 592,441.9 597.4,445.1 597.4,445.1 				"/>
				<polyline class="st128" points="597.4,445.1 592,441.9 592,441.9 597.4,445.1 597.4,445.1 				"/>
				<polyline class="st128" points="597.4,445.1 592,441.9 592,441.9 597.4,445.1 597.4,445.1 				"/>
				<polyline class="st128" points="597.4,445.1 592,441.9 592,441.9 597.4,445.1 597.4,445.1 				"/>
				<polyline class="st128" points="597.4,445.1 592,441.9 592,441.9 597.4,445.1 597.4,445.1 				"/>
				<polyline class="st128" points="597.4,445.1 592,441.9 592,441.9 597.4,445.1 597.4,445.1 				"/>
				<polyline class="st128" points="597.4,445.1 592,441.9 592,441.9 597.4,445.1 597.4,445.1 				"/>
				<polyline class="st128" points="597.4,445.1 592,441.9 592,441.9 597.4,445.1 597.4,445.1 				"/>
				<polyline class="st128" points="597.4,445.1 592,441.9 592,441.9 597.4,445.1 597.4,445.1 				"/>
			</g>
		</g>
		<g>
			<path class="st129" d="M597.4,445.1c3-1.7,3.2-1.8,3.2-1.8l1.2,1.4l2.7-0.8l0,1.3l-10.2,5.9l0-1.7l1.6-1.1
				C596.5,446.8,597.4,445.1,597.4,445.1z"/>
		</g>
		<g>
			<polygon class="st128" points="594.3,451 588.9,447.8 588.9,446.1 594.3,449.3 			"/>
		</g>
		<g>
			<polygon class="st125" points="594.3,449.3 588.9,446.1 590.4,445 595.9,448.1 			"/>
		</g>
	</g>
	<g class="st0">
		<defs>
			<polygon id="SVGID_91_" class="st0" points="596.4,447.7 594.5,446.8 598.9,444.6 598.9,446.3 			"/>
		</defs>
		<clipPath id="SVGID_92_">
			<use xlink:href="#SVGID_91_"  style="overflow:visible;"/>
		</clipPath>
		<g class="st130">
			<polyline class="st105" points="598.9,444.6 597.7,445.2 596.5,447.7 598.9,446.3 598.9,444.6 			"/>
		</g>
	</g>
	<g class="st0">
		<defs>
			<polygon id="SVGID_93_" class="st0" points="599.1,446.2 599.1,444.5 601.2,443.2 601.7,444.7 			"/>
		</defs>
		<clipPath id="SVGID_94_">
			<use xlink:href="#SVGID_93_"  style="overflow:visible;"/>
		</clipPath>
		<g class="st131">
			<polyline class="st105" points="600.5,443.7 599.1,444.5 599.1,446.2 601.5,444.8 600.5,443.7 			"/>
		</g>
	</g>
	<polygon class="st105" points="592.1,442.4 590.9,444.8 595.7,447.6 596.9,445.1 	"/>
	<g class="st0">
		<defs>
			<polygon id="SVGID_895_" class="st0" points="588.8,447 588.9,446.4 590.1,447.1 590.1,447.7 			"/>
		</defs>
		<clipPath id="SVGID_95_">
			<use xlink:href="#SVGID_895_"  style="overflow:visible;"/>
		</clipPath>
		<g class="st132">
			<polyline class="st4" points="590.1,447.1 588.9,446.4 588.8,447 590.1,447.7 590.1,447.1 			"/>
		</g>
	</g>
	<g class="st0">
		<defs>
			<polygon id="SVGID_894_" class="st0" points="593,449.4 593,448.8 594.3,449.5 594.3,450.1 			"/>
		</defs>
		<clipPath id="SVGID_96_">
			<use xlink:href="#SVGID_894_"  style="overflow:visible;"/>
		</clipPath>
		<g class="st133">
			<polyline class="st4" points="594.3,449.5 593,448.8 593,449.4 594.3,450.1 594.3,449.5 			"/>
		</g>
	</g>
	<g class="st0">
		<defs>
			<polygon id="SVGID_893_" class="st0" points="588.8,447.1 588.9,447 590.1,447.7 590.1,447.9 			"/>
		</defs>
		<clipPath id="SVGID_97_">
			<use xlink:href="#SVGID_893_"  style="overflow:visible;"/>
		</clipPath>
		<g class="st134">
			<polyline class="st101" points="590.1,447.7 588.9,447 588.8,447.1 590.1,447.9 590.1,447.7 			"/>
		</g>
	</g>
	<g class="st0">
		<defs>
			<polygon id="SVGID_892_" class="st0" points="593,449.5 593,449.4 594.3,450.1 594.3,450.3 			"/>
		</defs>
		<clipPath id="SVGID_98_">
			<use xlink:href="#SVGID_892_"  style="overflow:visible;"/>
		</clipPath>
		<g class="st135">
			<polyline class="st101" points="594.3,450.1 593,449.4 593,449.5 594.3,450.3 594.3,450.1 			"/>
		</g>
	</g>
</g>
<g>
	<defs>
		<polygon id="SVGID_99_" points="592.5,456.8 578.9,449.1 621.3,424.5 634.5,432.6 		"/>
	</defs>
	<clipPath id="SVGID_100_">
		<use xlink:href="#SVGID_99_"  style="overflow:visible;"/>
	</clipPath>
	<line class="st136" x1="599.4" y1="436.6" x2="617.8" y2="447.1"/>
	<line class="st136" x1="616.9" y1="426.5" x2="633.6" y2="436"/>
</g>
</svg>
