<svg xmlns="http://www.w3.org/2000/svg" id="Calque_1" x="0px" y="0px" xmlns:xlink="http://www.w3.org/1999/xlink" viewBox="0 0 1440 875.8">
  <style>
    .st0{enable-background:new ;} .st1{fill:#0066AE;} .st2{fill:#3F3F3F;} .st3{fill:#FFFFFF;} .st4{fill:#F5967F;} .st5{fill:#43A4C9;} .st6{fill:#CEDA91;} .st7{fill:#F1526B;} .st8{fill:#F4A798;} .st9{fill:#FCDBD4;} .st10{fill:#A7B986;} .st11{fill:#859E58;} .st12{fill:#789345;} .st13{fill:#9EB179;} .st14{fill:#7E984D;} .st15{fill:#D5DEC6;} .st16{fill:#7D974D;} .st17{clip-path:url(#SVGID_2_);fill:#FFFFFF;} .st18{clip-path:url(#SVGID_2_);fill:#7E984D;} .st19{clip-path:url(#SVGID_4_);fill:#F1526B;} .st20{fill:#CCCCCC;} .st21{fill:#D9D9D9;} .st22{clip-path:url(#SVGID_6_);} .st23{fill:#FFBD6A;} .st24{fill:#FFDD8E;} .st25{fill:#FFF5D4;} .st26{fill:#E8E8E8;} .st27{fill:#97D2E8;} .st28{fill:#EDF6F9;} .st29{fill:#FFCABE;} .st30{fill:#FFE29D;} .st31{fill:#9BC183;} .st32{fill:#89774C;} .st33{clip-path:url(#SVGID_8_);} .st34{fill:#C9D8A3;} .st35{fill:#E5E5E5;} .st36{clip-path:url(#SVGID_10_);fill:#F1526B;} .st37{clip-path:url(#SVGID_12_);enable-background:new ;} .st38{fill:#C2C2C2;} .st39{fill:#C4C4C4;} .st40{fill:#C7C7C7;} .st41{fill:#C9C9C9;} .st42{fill:#CFCFCF;} .st43{fill:#D1D1D1;} .st44{fill:#D4D4D4;} .st45{fill:#D6D6D6;} .st46{fill:#DBDBDB;} .st47{fill:#DEDEDE;} .st48{fill:#E0E0E0;} .st49{fill:#E3E3E3;} .st50{fill:#E6E6E6;} .st51{fill:#EBEBEB;} .st52{fill:#EDEDED;} .st53{fill:#F0F0F0;} .st54{fill:#F2F2F2;} .st55{fill:#F5F5F5;} .st56{fill:#D3D3D3;} .st57{fill:none;stroke:#444444;stroke-width:0.2;stroke-miterlimit:10;} .st58{clip-path:url(#SVGID_14_);enable-background:new ;} .st59{clip-path:url(#SVGID_16_);fill:none;stroke:#444444;stroke-width:0.25;stroke-miterlimit:10;} .st60{clip-path:url(#SVGID_18_);} .st61{clip-path:url(#SVGID_20_);} .st62{clip-path:url(#SVGID_22_);} .st63{clip-path:url(#SVGID_24_);} .st64{fill:#C4576C;} .st65{clip-path:url(#SVGID_26_);} .st66{clip-path:url(#SVGID_28_);} .st67{clip-path:url(#SVGID_30_);} .st68{clip-path:url(#SVGID_32_);} .st69{clip-path:url(#SVGID_34_);} .st70{clip-path:url(#SVGID_36_);} .st71{clip-path:url(#SVGID_38_);} .st72{clip-path:url(#SVGID_40_);} .st73{clip-path:url(#SVGID_42_);} .st74{clip-path:url(#SVGID_44_);} .st75{clip-path:url(#SVGID_46_);} .st76{clip-path:url(#SVGID_48_);} .st77{clip-path:url(#SVGID_50_);} .st78{clip-path:url(#SVGID_52_);} .st79{clip-path:url(#SVGID_54_);} .st80{clip-path:url(#SVGID_56_);} .st81{fill:#BCE5EC;} .st82{clip-path:url(#SVGID_57_);fill:#4C4C4C;} .st83{clip-path:url(#SVGID_58_);fill:#4C4C4C;} .st84{fill:#FEE2AA;} .st85{clip-path:url(#SVGID_60_);enable-background:new ;} .st86{fill:#FEE6B8;} .st87{fill:#FEE5B3;} .st88{fill:#FEE4AE;} .st89{clip-path:url(#SVGID_62_);enable-background:new ;} .st90{fill:#FDFDFD;} .st91{fill:#FCFCFC;} .st92{fill:#FCFBF7;} .st93{fill:#FCF9F3;} .st94{fill:#FCF8EE;} .st95{fill:#FCF6EA;} .st96{fill:#FDF5E5;} .st97{fill:#FDF3E1;} .st98{fill:#FDF2DC;} .st99{fill:#FDF0D8;} .st100{fill:#FDEFD3;} .st101{fill:#FFD07D;} .st102{fill:#FDEFD2;} .st103{clip-path:url(#SVGID_64_);fill:#4C4C4C;} .st104{clip-path:url(#SVGID_66_);fill:#4C4C4C;} .st105{fill:#4C4C4C;} .st106{clip-path:url(#SVGID_67_);fill:#F5967F;} .st107{clip-path:url(#SVGID_68_);fill:#F5967F;} .st108{clip-path:url(#SVGID_69_);fill:#FFD07D;} .st109{clip-path:url(#SVGID_70_);fill:#FFD07D;} .st110{clip-path:url(#SVGID_71_);} .st111{clip-path:url(#SVGID_72_);} .st112{fill:#F8B9AA;} .st113{clip-path:url(#SVGID_74_);enable-background:new ;} .st114{clip-path:url(#SVGID_76_);enable-background:new ;} .st115{fill:#FEF4F2;} .st116{fill:#DD7B6B;} .st117{clip-path:url(#SVGID_78_);} .st118{clip-path:url(#SVGID_80_);} .st119{clip-path:url(#SVGID_81_);} .st120{clip-path:url(#SVGID_82_);} .st121{clip-path:url(#SVGID_83_);} .st122{clip-path:url(#SVGID_84_);} .st123{clip-path:url(#SVGID_85_);} .st124{clip-path:url(#SVGID_86_);} .st125{fill:#C8E5EE;} .st126{clip-path:url(#SVGID_88_);enable-background:new ;} .st127{clip-path:url(#SVGID_90_);enable-background:new ;} .st128{fill:#F6FBFC;} .st129{fill:#8FC5D1;} .st130{clip-path:url(#SVGID_92_);} .st131{clip-path:url(#SVGID_94_);} .st132{clip-path:url(#SVGID_95_);} .st133{clip-path:url(#SVGID_96_);} .st134{clip-path:url(#SVGID_97_);} .st135{clip-path:url(#SVGID_98_);} .st136{clip-path:url(#SVGID_100_);fill:none;stroke:#FFFFFF;stroke-width:0.75;stroke-miterlimit:10;}
  </style>
  <path d="M647.9 424.6l-13.5-7.7-55.5 32.2 13.6 7.7 55.4-32.2" class="st0 st1"/>
  <path d="M523.3 440.4s-.3-1.4.9-1.7c0 0 1.1-.2 1.1 1.2 0 0 .1 1.1-.7 1.2 0-.1-1 .1-1.3-.7z" class="st2"/>
  <ellipse cx="524.2" cy="439.7" class="st3" rx="0.7" ry="0.8"/>
  <path d="M524.5 438.9s-.1.8-1 .7c0 0 0-1 1-.7z" class="st2"/>
  <path d="M524.3 440.4v.3l-.4.2s-.1.7.4.6c0 0 .7 0 .6-.6l-.3-.2v-.4l-.3.1zm-.5 4.6l.1 2.7s0 .1.1.2c.1 0 .2-.1.2-.1v-2.7h-.4zm.7 0l.1 2.7s0 .1.1.2c.1 0 .2-.1.2-.1v-2.7h-.4z" class="st3"/>
  <path d="M523.9 440.9s-.2 0-.2.2l-.1 3.9h1.7l-.1-4.1s-.1-.1-.2-.1c0 0 0 .4-.4.4-.3.1-.7.2-.7-.3z" class="st4"/>
  <path d="M523.7 441.1s-.4 1.8-.4 2.9c0 0 0 .2.1.2 0 0 .2 0 .2-.2-.1.1.1-2.9.1-2.9zm1.3-.2l.1 3.3s0 .2.2.2.1-.1.1-.2-.1-2.8-.1-2.8 0-.4-.3-.5z" class="st3"/>
  <ellipse cx="519.4" cy="463.2" class="st3" rx="0.7" ry="0.7"/>
  <path d="M518.3 462.6s0 .5.7.4c.7 0 .8-.4.8-.4l.1.2s.2-.2-.1-.6c0 0-.6-.5-.9.1-.1.4-.6.3-.6.3z" class="st2"/>
  <path d="M519.5 463.8v.3s-.3-.1-.5.1c0 0 0 .4.5.4s.6-.4.6-.4-.3-.1-.4 0v-.4h-.2zm-.9 1.8v2.4s0 .2.1.2c.2 0 .2-.2.2-.2v-2.5l-.3.1zm1.4 3.1l.1 2.4s0 .2.1.2c.2 0 .2-.2.2-.2l-.1-2.5-.3.1zm-1.1 0l-.1 2.4s0 .2.1.2c.2 0 .2-.2.2-.2l.1-2.5-.3.1z" class="st3"/>
  <path d="M518.9 467.1l-.1 2.1h.4l.1-1.6h.5v1.6h.6v-2z" class="st5"/>
  <path d="M519.1 464.1s-.5 0-.6 1.6h.3v1.6h1.4v-1.5l.3-.1s.1-1.5-.6-1.6c0 0 .1.4-.4.4 0 .1-.4.1-.4-.4z" class="st6"/>
  <path d="M520.2 465.8v2.4s0 .2.1.2c.2 0 .2-.2.2-.2v-2.5l-.3.1z" class="st3"/>
  <circle cx="519.7" cy="463.1" r="0.1" class="st2"/>
  <circle cx="519.1" cy="463.1" r="0.1" class="st2"/>
  <path d="M514.5 400.9l105.7-61.5-.1 26.4-105.7 61.5z" class="st7"/>
  <path d="M513.8 399.9l105.7-61.4 25.2-2L539 397.9z" class="st8"/>
  <path d="M539.1 397.9l25.1 31.1-.1 26.8-.7-.4.1-26.3-24.4-30.2-24.5 1.9-.1 26.4-.7-.4v-26.9z" class="st9"/>
  <path d="M539 397.9l105.7-61.4 25.2 31.1L564.2 429z" class="st4"/>
  <path d="M564.2 429l105.7-61.4-.1 26.8-105.7 61.5z" class="st7"/>
  <path d="M513.7 398.2l1.4-.8 24.9-2-1.4.8z" class="st10"/>
  <path d="M538.6 396.2l1.4-.8 24.8 30.6-1.4.9z" class="st11"/>
  <path d="M563.4 426.9l1.4-.9v10.4l-1.4.8z" class="st12"/>
  <path d="M534.5 387.1l.7-.4 25.8-2.4-.7.4z" class="st13"/>
  <path d="M560.3 384.7l.7-.4.2.2-.7.4z" class="st14"/>
  <path d="M560.3 384.7l.2.2 25.6 32.1v27.2l-.8-.4.1-26.7-25.1-31.4-25.4 2.3-.4-.9z" class="st15"/>
  <path d="M560.5 384.9l.7-.4 25.6 32.1-.7.4z" class="st14"/>
  <path d="M586.1 417l.7-.4v27.2l-.7.4z" class="st12"/>
  <path d="M551.5 377.1l.7-.4 25.8-2.4-.7.4z" class="st13"/>
  <path d="M577.3 374.7l.7-.4.2.2-.7.4z" class="st14"/>
  <path d="M577.3 374.7l.2.2 25.6 32.1v27.2l-.8-.4.1-26.7-25.1-31.4-25.4 2.3-.4-.9z" class="st15"/>
  <path d="M577.5 374.9l.7-.4 25.6 32.1-.7.4z" class="st14"/>
  <path d="M603.1 407l.7-.4v27.2l-.7.4z" class="st12"/>
  <path d="M568.5 367.1l.7-.4 25.8-2.4-.7.4z" class="st13"/>
  <path d="M594.3 364.7l.7-.4.2.2-.7.4z" class="st16"/>
  <path d="M594.3 364.7l.2.2 25.6 32.1v27.2l-.8-.4.1-26.7-25.1-31.4-25.4 2.3-.4-.9z" class="st15"/>
  <path d="M594.5 364.9l.7-.4 25.6 32.1-.7.4z" class="st14"/>
  <path d="M620.1 397l.7-.4v27.2l-.7.4z" class="st12"/>
  <path d="M585.5 357.1l.7-.4 25.8-2.4-.7.4z" class="st13"/>
  <path d="M611.3 354.7l.7-.4.2.2-.7.4z" class="st16"/>
  <path d="M611.3 354.7l.2.2 25.6 32.1v27.2l-.8-.4.1-26.7-25.1-31.4-25.4 2.3-.4-.9z" class="st15"/>
  <path d="M611.5 354.9l.7-.4 25.6 32.1-.7.4z" class="st14"/>
  <path d="M637.1 387l.7-.4v27.2l-.7.4z" class="st12"/>
  <path d="M602.5 347.1l.7-.4 25.8-2.4-.7.4z" class="st13"/>
  <path d="M628.3 344.7l.7-.4.2.2-.7.4z" class="st16"/>
  <path d="M628.3 344.7l.2.2 25.6 32.1v27.2l-.8-.4.1-26.7-25.1-31.4-25.4 2.3-.4-.9z" class="st15"/>
  <path d="M628.5 344.9l.7-.4 25.6 32.1-.7.4z" class="st14"/>
  <path d="M654.1 377l.7-.4v27.2l-.7.4z" class="st12"/>
  <path d="M664.7 349.3l-.2 57.1c0 .2-.1.3-.3.4-.4.2-1.1.3-1.5 0-.2-.1-.3-.3-.3-.5l.2-57.1c0 .2.1.3.3.5.4.2 1.1.2 1.5 0 .2 0 .3-.2.3-.4z" class="st6"/>
  <path d="M664.4 348.9c.4.2.4.6 0 .9-.4.2-1.1.3-1.5 0-.4-.2-.4-.7 0-.9s1.1-.3 1.5 0z" class="st4"/>
  <path d="M648.2 358.7l-.2 57.1c0 .2-.1.3-.3.4-.4.2-1.1.2-1.5 0-.2-.1-.3-.3-.3-.5l.2-57.1c0 .2.1.3.3.5.4.2 1.1.2 1.5 0 .2-.1.3-.2.3-.4z" class="st6"/>
  <path d="M647.9 358.3c.4.2.4.6 0 .9s-1.1.2-1.5 0-.4-.6 0-.9 1-.3 1.5 0z" class="st4"/>
  <g class="st0">
    <defs>
      <path id="SVGID_1_" d="M632.3 399.7l-.1-37.4 46.3-26.7.1 37.3z" class="st0"/>
    </defs>
    <clipPath id="SVGID_2_">
      <use xlink:href="#SVGID_1_" overflow="visible"/>
    </clipPath>
    <path d="M677.1 338l-43.4 25.1v34.1l43.5-25.1-.1-34.1" class="st17"/>
    <path d="M633.7 397.2l-.1-34.1 43.5-25.1.1 34.1-43.5 25.1m44.8-61.6l-46.3 26.7.1 37.4 46.3-26.7-.1-37.4" class="st18"/>
  </g>
  <g class="st0">
    <defs>
      <path id="SVGID_3_" d="M640.3 387v-18.1l31.5-18.1v18z" class="st0"/>
    </defs>
    <clipPath id="SVGID_4_">
      <use xlink:href="#SVGID_3_" overflow="visible"/>
    </clipPath>
    <path d="M643.4 367.1c-1.4.8-2.3 2.3-2.3 3.5 0 1.2.7 1.4 1.9 1.2 1-.1 1.3.1 1.3.9s-.5 1.7-1.5 2.3c-.6.4-1.2.5-1.6.4l-.2 1c.4.1 1.1-.1 1.8-.5 1.7-1 2.5-2.5 2.5-3.8 0-1.2-.6-1.5-1.8-1.4-1 .1-1.4 0-1.4-.8 0-.6.4-1.4 1.3-2 .6-.4 1.1-.4 1.4-.4l.2-1c-.3.1-.8.2-1.6.6m4.5 2.4l.7-2.8c.1-.6.3-1.1.4-1.7.1.4.2.8.4 1.3l.7 2-2.2 1.2m1.6-5.8l-1.1.6-2.4 9.7 1-.5.7-3 2.5-1.5.8 2.1 1-.6-2.5-6.8m4.4-2.5l-.9.5v8.2l4-2.3v-.9l-3.1 1.8v-7.3m6.5 3.7c-1.4.8-2.3-.3-2.3-2 0-1.8.8-3.8 2.3-4.7 1.5-.9 2.3.4 2.3 2 0 1.9-.8 3.9-2.3 4.7m0-7.6c-1.9 1.1-3.3 3.6-3.3 6.2 0 2.5 1.3 3.4 3.2 2.3 1.8-1 3.3-3.4 3.3-6.2 0-2.4-1.2-3.4-3.2-2.3m9.8-5.5l-.9.5v3.4c0 1.3 0 2.3.1 3.3-.3-.6-.8-1.3-1.3-1.9l-2.3-2.8-1 .6v8.2l.9-.5v-3.5c0-1.4 0-2.3-.1-3.3.4.7.8 1.3 1.3 2l2.3 2.8.9-.5.1-8.3m-28.6 33.8c-.3.1-.5.3-.7.3v-4.5c.2-.1.4-.3.8-.5 1.4-.8 2-.3 2 1.1.1 1.5-.7 2.8-2.1 3.6m.1-5.3c-.5.3-1 .6-1.4.9v5.7c.3-.2.7-.3 1.2-.6 1-.6 1.7-1.3 2.2-2.1.5-.8.7-1.7.7-2.7 0-.9-.3-1.4-.7-1.7-.4-.2-1.1 0-2 .5m7.3-4.2l-.7.4v3.4c0 1.3-.5 2.1-1.2 2.5-.7.4-1.2.1-1.2-1.2v-3.4l-.7.4v3.4c0 1.8.8 2 1.8 1.4 1.1-.6 1.9-1.8 1.9-3.6l.1-3.3m6.4-3.7l-.6.4v2.4c0 .9 0 1.6.1 2.3-.2-.5-.5-.9-.9-1.4l-1.6-2-.7.4v5.8l.6-.4v-2.5c0-1 0-1.6-.1-2.3.3.5.6.9.9 1.4l1.6 2 .7-.4v-5.7m2.1 2.2l.5-1.9c.1-.4.2-.8.2-1.2.1.3.1.6.3.9l.5 1.4-1.5.8m1.2-4.1l-.8.5-1.7 6.8.7-.4.5-2.1 1.8-1 .5 1.5.7-.4-1.7-4.9m5.7-3.2l-.7.4-.8 3.3c-.2.9-.4 1.7-.6 2.5-.1-.6-.3-1.2-.5-1.8l-.8-2.4-.7.4 1.7 4.8.7-.4 1.7-6.8m3.2-1.9l-2.7 1.5v5.8l2.8-1.6v-.6l-2.1 1.2v-2.1l1.9-1.1v-.6l-1.9 1.1-.1-1.8 2.1-1.2v-.6m4.2-2.5l-3.7 2.2v.6l1.5-.9v5.2l.7-.4v-5.1l1.5-.9v-.7" class="st19"/>
  </g>
  <path d="M514.4 423v4.3l-39.5 22.8v-4.3z" class="st20"/>
  <path d="M474.2 446.2l-.7-.4 40.2-23.2.7.4z" class="st21"/>
  <g class="st0">
    <defs>
      <path id="SVGID_5_" d="M643.2 359.6v-14.3l24.7-14.3.1 14.3z" class="st0"/>
    </defs>
    <clipPath id="SVGID_6_">
      <use xlink:href="#SVGID_5_" overflow="visible"/>
    </clipPath>
    <g class="st22">
      <path d="M655.5 338.1c-6.8 3.9-12.4 13.5-12.3 21.4l1.2-.7c0-7.1 5-15.7 11.2-19.3 6.2-3.6 11.2-.7 11.3 6.3l1-.6c0-7.9-5.5-11-12.4-7.1" class="st14"/>
      <path d="M655.7 339.5c-6.2 3.6-11.2 12.2-11.2 19.3v.1l22.5-13v-.1c-.1-7.1-5.2-9.9-11.3-6.3" class="st3"/>
    </g>
  </g>
  <path d="M640.3 359.3l29.2-16.9 1 3.3s-30.1 16.1-30.2 16.1 0-2.5 0-2.5z" class="st3"/>
  <path d="M507.8 436.3v4.1l-17.1 9.9v-4.1z" class="st23"/>
  <path d="M507.8 436.3l-17.1 9.9 11.6 6.7-5.4 3.1-11.6-6.6-5.7-3.3 22.5-13.1z" class="st24"/>
  <path d="M502.3 452.9v4.1l-5.4 3.1V456z" class="st23"/>
  <path d="M485.3 449.4l-5.7-3.3v4.1l5.7 3.2 11.6 6.7V456z" class="st25"/>
  <path d="M546.2 458.5v4.1l-22.5 13.1v-4.1z" class="st23"/>
  <path d="M546.2 458.5l-17.1 9.9-5.4 3.2-5.7-3.3 22.5-13z" class="st24"/>
  <path d="M523.7 471.6l-5.7-3.3v4.1l5.7 3.3z" class="st25"/>
  <path d="M552 458.6v4.3l-28.1 16.3v-4.3z" class="st20"/>
  <path d="M523.9 474.9l-.7-.4 28.1-16.3.7.4z" class="st21"/>
  <path d="M473.5 445.8l-.1 4.3 50.5 29.1v-4.3z" class="st26"/>
  <path d="M523.9 474.9l.7-.4-50.4-29.1-.7.4z" class="st21"/>
  <path d="M518.7 461.4v7h-.2v-7 .1s.1 0 .2-.1zm27.1-9.8v7.1h-.2v-7.1.1s.1 0 .2-.1zm-5.2-2.8v7h-.2v-7 .1s.1 0 .2-.1z" class="st5"/>
  <path d="M507.1 429.4v7.1h-.2v-7.1.1c-.1 0 0 0 .2-.1-.1.1 0 .1 0 0zm-5.3 16.8v6.8h-.2v-6.8.1c-.1 0 .1 0 .2-.1-.1.1 0 .1 0 0zm-21.3-6.9v6.8h-.2v-6.8.1s.1 0 .2-.1c0 .1 0 0 0 0z" class="st7"/>
  <path d="M524.8 441.1l-5.4 3.1-5.5-3.1 5.4-3.1z" class="st27"/>
  <path d="M524.8 441.1l-.1 8.1-5.3 3.2v-8.2z" class="st5"/>
  <path d="M519.4 444.2v8.2l-5.5-3.2v-8.1z" class="st28"/>
  <path d="M523.2 439.6l-3.8 2.2-3.9-2.2 3.8-2.2z" class="st27"/>
  <path d="M523.2 439.6v1.7l-3.8 2.2v-1.7z" class="st5"/>
  <path d="M519.4 441.8v1.7l-3.9-2.2v-1.7z" class="st28"/>
  <path d="M558.9 429.8l-8.5 4.9-8.6-4.9 8.5-4.9z" class="st4"/>
  <path d="M558.9 429.8v4.1l-8.5 4.9v-4.1z" class="st7"/>
  <path d="M550.4 434.7v4.1l-8.6-4.9v-4.1z" class="st29"/>
  <path d="M560.5 439.1l-5.9 3.4-6-3.4 5.9-3.5z" class="st4"/>
  <path d="M554.6 442.5l-.1 4.1-5.9-3.5v-4z" class="st29"/>
  <ellipse cx="521.8" cy="419.4" class="st3" rx="0.7" ry="0.8"/>
  <path d="M522.9 418.8s0 .5-.8.5-.8-.4-.8-.4l-.2.2s-.2-.2.1-.6c0 0 .6-.5.9.1.3.4.8.2.8.2z" class="st30"/>
  <path d="M521.7 420.1v.3s.4-.1.6.1c0 0 0 .5-.6.4s-.6-.5-.6-.5.3-.1.4 0v-.4l.2.1zm.9 1.9v2.6s0 .3-.2.2c-.2 0-.2-.2-.2-.2v-2.7l.4.1zm-1.5 3.4l-.1 2.6s0 .3-.2.2c-.2 0-.2-.2-.2-.2l.1-2.7.4.1zm1.2-.1l.2 2.6s0 .3-.1.3c-.2 0-.2-.2-.2-.2l-.2-2.7h.3z" class="st3"/>
  <path d="M522.3 423.7l.1 2.2-.5.1-.1-1.8h-.5v1.8h-.6v-2.3z" class="st1"/>
  <path d="M522.1 420.5s.6 0 .6 1.7h-.4v1.7h-1.5v-1.6l-.4-.1s-.2-1.6.7-1.7c0 0-.1.4.4.4.1 0 .6 0 .6-.4z" class="st11"/>
  <path d="M520.9 422.2v2.6s0 .3-.2.2c-.2 0-.2-.2-.2-.2v-2.7l.4.1z" class="st3"/>
  <circle cx="521.5" cy="419.4" r="0.1" class="st2"/>
  <circle cx="522.1" cy="419.4" r="0.1" class="st2"/>
  <ellipse cx="533.8" cy="437.2" class="st3" rx="0.7" ry="0.8"/>
  <path d="M533.7 437.9v.3s.4-.1.5.1c0 0 0 .4-.5.4s-.6-.5-.6-.5.3-.1.4 0v-.4l.2.1zm.9 1.8v2.5s0 .2-.1.2c-.2 0-.2-.2-.2-.2v-2.6l.3.1zm-1.6.2v2.5s0 .2-.1.2c-.2 0-.2-.2-.2-.2v-2.6l.3.1z" class="st3"/>
  <path d="M534.4 436.7s-.9.4-1.1 0c0 0 0-.4.3-.4.3-.1.8.2.8.4z" class="st30"/>
  <path d="M533.4 441.4l-.2 4.1s0 .3-.2.3c-.3 0-.2-.2-.2-.2l.2-4.1.4-.1zm.9 0v4.1s0 .3-.2.3c-.3 0-.2-.2-.2-.2v-4.1l.4-.1z" class="st2"/>
  <path d="M534.1 438.2s.6 0 .6 1.6h-.3v1.7h-1.5v-1.6l-.4-.1s-.1-1.6.7-1.6c0 0-.1.4.4.4 0 0 .6 0 .5-.4z" class="st1"/>
  <path d="M533.2 437.5s.5.6 1.2.1c.1-.1.3-.7 0-.9 0-.1-1.1 0-1.1 0s-.3.3-.1.8z" class="st30"/>
  <ellipse cx="502.5" cy="451.8" class="st3" rx="0.7" ry="0.8"/>
  <path d="M502.4 452.5v.3s.4-.1.5.1c0 0 0 .4-.5.4s-.6-.5-.6-.5.3-.1.4 0v-.4l.2.1zm.6.5c.3.3.2 3.2.2 3.2s0 .2-.1.2c-.2 0-.2-.2-.2-.2v-2.1l.1-1.1zm-1.2 4.6l-.1 2.5s0 .2-.2.2-.2-.2-.2-.2l.1-2.6.4.1zm1.2-.1l.1 2.5s0 .2-.1.2c-.2 0-.2-.2-.2-.2l-.2-2.6.4.1zm-1.4-4.6l-.1 3.5s0 .2-.1.2c-.2 0-.1-.1-.1-.2s.1-3 .1-3 0-.4.2-.5z" class="st3"/>
  <path d="M503 455.9l.1 2.2h-.5l-.1-1.7h-.5v1.7h-.6l.1-2.2z" class="st6"/>
  <path d="M502.8 452.8s.2 0 .2.2l.1 2.9h-1.6l.1-3.1s.1-.1.2-.1c0 0 0 .3.4.3.2.1.6.2.6-.2z" class="st7"/>
  <path d="M502.5 450.9s.8-.1.9.6c0 .8.6 2.3 0 3.1-.6.8-1.7.5-2.1 0-.3-.4.1-3.1.5-3.5s.7-.2.7-.2z" class="st30"/>
  <path d="M513.8 450.4v2.5s0 .2-.1.2c-.2 0-.2-.2-.2-.2v-2.6l.3.1z" class="st3"/>
  <ellipse cx="514.6" cy="447.7" class="st3" rx="0.7" ry="0.8"/>
  <path d="M514.5 448.4v.3s.4-.1.5.1c0 0 0 .4-.5.4s-.6-.5-.6-.5.3-.1.4 0v-.4l.2.1zm.9 1.8v2.5s0 .2-.1.2c-.2 0-.2-.2-.2-.2v-2.6l.3.1z" class="st3"/>
  <path d="M515.2 447.2s-.9.4-1.1 0c0 0 0-.4.3-.4.3-.1.8.2.8.4z" class="st2"/>
  <path d="M514.2 451.9l-.2 4.1s0 .3-.2.3c-.3 0-.2-.2-.2-.2l.2-4.1.4-.1zm.9 0v4.1s0 .3-.2.3c-.3 0-.2-.2-.2-.2V452l.4-.1z" class="st1"/>
  <path d="M514.9 448.7s.6 0 .6 1.6h-.3v1.7h-1.5v-1.6l-.4-.1s-.1-1.6.7-1.6c0 0-.1.4.4.4 0 0 .5 0 .5-.4z" class="st30"/>
  <path d="M514 448s.5.6 1.2.1c.1-.1.3-.7 0-.9 0-.1-1.1 0-1.1 0s-.4.3-.1.8z" class="st2"/>
  <ellipse cx="509.5" cy="427.7" transform="rotate(2.43 509.283 427.926)" class="st3" rx="0.7" ry="0.7"/>
  <path d="M509.5 428.4v.3s-.3-.1-.5 0c0 0 0 .4.5.4s.6-.4.6-.4-.3-.1-.4 0v-.4l-.2.1zm-.9 1.7l-.1 2.4s0 .2.1.2c.2 0 .2-.2.2-.2l.1-2.5-.3.1z" class="st3"/>
  <path d="M509.7 431.8v3.9s0 .3.2.3c.3 0 .2-.2.2-.2v-4h-.4zm-.8 0l-.2 3.9s-.1.3.2.3.2-.2.2-.2l.2-4h-.4z" class="st1"/>
  <path d="M509.1 428.7s-.5 0-.6 1.5h.3l-.1 1.6h1.4l.1-1.5h.3s.2-1.5-.6-1.6c0 0 .1.4-.4.4.1 0-.4 0-.4-.4z" class="st30"/>
  <path d="M510.2 430.3l-.1 2.4s0 .2.1.2c.2 0 .2-.2.2-.2l.1-2.5-.3.1z" class="st3"/>
  <circle cx="509.8" cy="427.7" r="0.1" class="st2"/>
  <circle cx="509.2" cy="427.6" r="0.1" class="st2"/>
  <path d="M509 427.2s.8.5 1 0c0 0 0-.3-.3-.4-.2 0-.7.2-.7.4z" class="st2"/>
  <ellipse cx="557.6" cy="455.8" class="st3" rx="0.7" ry="0.8"/>
  <path d="M558.7 455.2s0 .5-.8.5c-.7 0-.8-.4-.8-.4l-.2.2s-.2-.2.1-.6c0 0 .6-.5.9.1.3.4.8.2.8.2z" class="st30"/>
  <path d="M557.5 456.5v.3s.4-.1.5.1c0 0 0 .4-.5.4s-.6-.5-.6-.5.3-.1.4 0v-.4l.2.1zm.9 1.8v2.5s0 .2-.1.2c-.2 0-.2-.2-.2-.2v-2.6l.3.1zm-1.4 3.3l-.1 2.5s0 .2-.2.2-.2-.2-.2-.2l.1-2.6.4.1zm1.1 0l.1 2.5s0 .2-.1.2c-.2 0-.2-.2-.2-.2l-.2-2.6.4.1zm-1.3-3.1v2.5s0 .2-.1.2c-.2 0-.2-.2-.2-.2v-2.6l.3.1z" class="st3"/>
  <path d="M556.9 456s.6.6 1.3.1c.1-.1.3-.7-.1-1 0-.1-1.1 0-1.1 0s-.3.4-.1.9z" class="st30"/>
  <path d="M558.1 460l.1 2.1-.5.1-.1-1.7h-.5v1.7h-.6l.2-2.2z" class="st1"/>
  <path d="M557.9 456.9s.6 0 .6 1.6h-.3v1.7h-1.5v-1.6l-.4-.1s-.1-1.6.7-1.6c0 0-.1.4.4.4 0 0 .5 0 .5-.4z" class="st7"/>
  <path d="M544 419.7v4.1l-22.5 13.1.1-4.1z" class="st23"/>
  <path d="M544 419.7l-17 9.9-5.4 3.2-5.7-3.3 22.5-13.1z" class="st24"/>
  <path d="M521.6 432.8l-5.7-3.3v4.1l5.6 3.3z" class="st25"/>
  <path d="M515.2 427.8s-.8-.1-.8.6-.6 2.3 0 3c.6.8 1.7.5 2 0 .1-.2-.2-3-.5-3.4-.3-.3-.7-.2-.7-.2z" class="st30"/>
  <ellipse cx="515.2" cy="428.6" class="st3" rx="0.7" ry="0.7"/>
  <path d="M515.3 429.3v.3s-.3-.1-.5.1c0 0 0 .4.5.4s.6-.4.6-.4-.3-.1-.4 0v-.4h-.2zm-.6.5c-.3.3-.2 3.1-.2 3.1s0 .2.1.2c.2 0 .2-.2.2-.2v-2.1l-.1-1zm1.1 4.4l.1 2.4s0 .2.1.2c.2 0 .2-.2.2-.2l-.1-2.5-.3.1zm-1.1 0l-.1 2.4s0 .2.1.2c.2 0 .2-.2.2-.2l.1-2.5-.3.1z" class="st3"/>
  <path d="M514.7 432.6l-.1 2.1h.5l.1-1.6h.5v1.6h.5v-2z" class="st6"/>
  <circle cx="515.5" cy="428.6" r="0.1" class="st2"/>
  <circle cx="514.9" cy="428.6" r="0.1" class="st2"/>
  <path d="M514.9 429.6s-.2 0-.2.2l-.1 2.8h1.6l-.1-3s-.1-.1-.2-.1c0 0 0 .3-.4.3-.3.1-.6.2-.6-.2z" class="st7"/>
  <path d="M514.5 428.5h1.4s-.1-.6-.6-.6c0 0-.8 0-.8.6" class="st30"/>
  <path d="M516 429.7l.1 3.3s0 .2.1.2.1-.1.1-.2-.1-2.9-.1-2.9 0-.3-.2-.4z" class="st3"/>
  <path d="M554.7 435.8v1.8l-4.1 2.3-1.5-.8z" class="st7"/>
  <path d="M559.9 439.1l-.6.4-4.8-2.8v-.7z" class="st29"/>
  <path d="M554.5 435.6l5.9 3.4-5.9 3.4-5.9-3.4 5.9-3.4zm.3 6.8l5.4-3.1-5.7-3.3-5.4 3.1 5.7 3.3" class="st4"/>
  <path d="M549.7 439.4l4.8 2.8 4.8-2.7-4.8-2.8z" class="st24"/>
  <path d="M560.5 439.1v4l-6 3.5.1-4.1z" class="st7"/>
  <path d="M558.9 429.8l-8.5 4.9-8.6-4.9 8.5-4.9z" class="st4"/>
  <path d="M550.6 425.1v2.5l-6 3.4-2-1.2z" class="st7"/>
  <path d="M558 429.9l-.9.5-6.8-4v-1.1z" class="st29"/>
  <path d="M550.3 424.9l8.5 4.9-8.5 4.9-8.5-4.9 8.5-4.9zm.4 9.6l7.7-4.5-8.2-4.7-7.7 4.5 8.2 4.7" class="st4"/>
  <path d="M543.5 430.3l6.9 4 6.7-3.9-6.8-4z" class="st24"/>
  <ellipse cx="546.2" cy="430.5" class="st3" rx="0.7" ry="0.8"/>
  <path d="M546.1 431.2v.3s.4-.1.5.1c0 0 0 .4-.5.4s-.6-.5-.6-.5.3-.1.4 0v-.4l.2.1zm.6.4c.3.3.2 3.2.2 3.2s0 .2-.1.2c-.2 0-.2-.2-.2-.2v-2.1l.1-1.1zm-1.1 4.7l-.1 2.5s0 .2-.2.2-.2-.2-.2-.2l.1-2.6.4.1zm1.1-.1l.1 2.5s0 .2-.1.2c-.2 0-.2-.2-.2-.2l-.2-2.6.4.1zm-1.3-4.6l-.1 3.5s0 .2-.1.2c-.2 0-.1-.1-.1-.2s.1-3 .1-3 0-.4.2-.5z" class="st3"/>
  <path d="M546.7 434.6l.1 2.2h-.5l-.1-1.7h-.5v1.7h-.6l.2-2.2z" class="st4"/>
  <path d="M546.5 431.5s.2 0 .2.2l.1 2.9h-1.6l.1-3.1s.1-.1.2-.1c0 0 0 .3.4.3.3.1.6.2.6-.2z" class="st31"/>
  <path d="M546.2 429.6s.8-.1.9.6.6 2.3 0 3.1c-.6.8-1.7.5-2.1 0-.3-.4.1-3.1.5-3.5s.7-.2.7-.2z" class="st2"/>
  <path d="M522.7 425.9l3.4 2v.8l-3.4-1.9z" class="st28"/>
  <path d="M517.9 428.7l4.8-2.8v.9l-4.8 2.7z" class="st20"/>
  <path d="M528.3 422.6l3.4 1.9v.8l-3.4-1.9z" class="st28"/>
  <path d="M523.5 425.4l4.8-2.8v.8l-4.8 2.8z" class="st20"/>
  <path d="M533.8 419.2l3.4 2v.8l-3.4-2z" class="st32"/>
  <path d="M529 422l4.8-2.8v.8l-4.8 2.8z" class="st20"/>
  <path d="M525.6 428.4l-.4-.2c-.1-.7-.5-1.2-1.1-1.2-.1 0-.3 0-.4.1-.2-.5-.5-.9-1-.9s-.9.4-1 1c-.1-.1-.3-.1-.4-.1-.4 0-.8.4-1 .9-.1-.1-.2-.1-.4-.1-.4 0-.8.3-1 .8h-.1c-.3 0-.6.3-.7.7v.2h.5l2.8 1.4 4.2-2.6z" class="st4"/>
  <path d="M526.1 427.9v.8l-4.8 2.8v-.8z" class="st20"/>
  <path d="M521.3 430.7v.8l-3.4-2v-.8z" class="st28"/>
  <path d="M521 428.7s-.1-.2-.2-.2-.3.1-.3.1c0-.1.2-.2.3-.2.2 0 .3.2.2.3zm-.1.6s-.3-.2-.6-.2-.6.2-.6.2c0-.3.3-.6.6-.6.4 0 .6.3.6.6zm2.4-2.4s-.2-.2-.4-.3c-.3-.1-.5 0-.5 0 .1-.2.3-.3.6-.2.2.1.4.3.3.5z" class="st7"/>
  <path d="M531.3 425l-.4-.2c-.1-.7-.5-1.2-1.1-1.2-.1 0-.3 0-.4.1-.2-.5-.5-.9-1-.9s-.9.4-1 1c-.1-.1-.3-.1-.4-.1-.4 0-.8.4-1 .9-.1-.1-.2-.1-.4-.1-.4 0-.8.3-1 .8h-.1c-.3 0-.6.3-.7.7v.2h.5l2.8 1.4 4.2-2.6z" class="st4"/>
  <path d="M527.6 424.6s-.1-.2-.2-.2-.3.1-.3.1c0-.1.2-.2.3-.2.1 0 .2.2.2.3zm3 .2s-.2-.2-.5-.3c-.3-.1-.6 0-.6 0 .1-.3.4-.5.7-.4.3.1.4.4.4.7zm-3.3-.7s-.3 0-.5.1-.4.4-.4.4c-.1-.2 0-.4.2-.6.3-.1.6-.1.7.1z" class="st7"/>
  <path d="M531.7 424.5v.8l-4.8 2.8v-.8z" class="st20"/>
  <path d="M526.9 427.3v.8l-3.4-1.9v-.8z" class="st28"/>
  <path d="M536.9 421.6l-.4-.2c-.1-.7-.5-1.2-1.1-1.2-.1 0-.3 0-.4.1-.2-.5-.5-.9-1-.9s-.9.4-1 1c-.1-.1-.3-.1-.4-.1-.4 0-.8.4-1 .9-.1-.1-.2-.1-.4-.1-.4 0-.8.3-1 .8h-.1c-.3 0-.6.3-.7.7v.2h.5l2.8 1.4 4.2-2.6z" class="st4"/>
  <path d="M537.2 421.2v.8l-4.8 2.8v-.8z" class="st20"/>
  <path d="M532.4 424v.8l-3.4-2v-.8z" class="st28"/>
  <path d="M531.7 422.2s-.2-.2-.5-.3-.6 0-.6 0c.1-.3.4-.5.7-.4.3.1.5.4.4.7zm2.6-2.2s-.3 0-.5.1-.4.4-.4.4c-.1-.2 0-.4.2-.6.3-.1.6-.1.7.1z" class="st7"/>
  <path d="M523 465.8l-2.9 1.7v.7l2.9-1.7z" class="st20"/>
  <path d="M527.2 468.2l-4.2-2.4v.7l4.2 2.5z" class="st28"/>
  <path d="M520.5 468l.3-.2c.1-.6.5-1.1 1-1.1.1 0 .2 0 .4.1.1-.4.5-.7.9-.7s.8.4.9.9c.1-.1.2-.1.4-.1.4 0 .7.3.9.8.1-.1.2-.1.3-.1.4 0 .7.3.8.7h.1c.3 0 .5.3.6.6v.2h-.4l-2.5 1.2-3.7-2.3z" class="st4"/>
  <path d="M520.1 467.5v.7l4.2 2.5v-.8z" class="st28"/>
  <path d="M524.3 469.9v.8l2.9-1.7v-.8z" class="st20"/>
  <path d="M525.3 468.7s.1-.2.2-.2.2.1.2.1c0-.1-.1-.2-.3-.2s-.1.2-.1.3zm0-.7s.2 0 .4.1.3.3.3.3c.1-.2 0-.4-.2-.5-.2-.1-.4-.1-.5.1z" class="st7"/>
  <path d="M526.8 463.6l-3 1.7v.7l3-1.7z" class="st20"/>
  <path d="M531 466l-4.2-2.4v.7l4.2 2.4z" class="st28"/>
  <path d="M524.3 465.7l.3-.2c.1-.6.5-1.1 1-1.1.1 0 .2 0 .4.1.1-.4.5-.7.9-.7s.8.4.9.9c.1-.1.2-.1.4-.1.4 0 .7.3.9.8.1-.1.2-.1.3-.1.4 0 .7.3.8.7h.1c.3 0 .5.3.6.6v.2h-.4L528 468l-3.7-2.3z" class="st4"/>
  <path d="M523.8 465.3v.7l4.2 2.4v-.7z" class="st28"/>
  <path d="M528 467.7v.7l3-1.7v-.7z" class="st20"/>
  <path d="M529 465.6s.1-.1.3-.1.2.2.2.2c0-.1 0-.2-.1-.3s-.4 0-.4.2zm-4-.3s.2-.2.5-.2.5.2.5.2c0-.3-.2-.5-.5-.5s-.5.2-.5.5zm2.6-.2s.2-.1.4 0l.4.2c0-.2-.1-.4-.3-.4-.3-.1-.5 0-.5.2z" class="st7"/>
  <path d="M530.5 461.4l-3 1.7v.7l3-1.7z" class="st20"/>
  <path d="M534.7 463.8l-4.2-2.4v.7l4.2 2.5z" class="st28"/>
  <path d="M528 463.6l.3-.2c.1-.6.5-1.1 1-1.1.1 0 .2 0 .4.1.1-.4.5-.7.9-.7s.8.4.9.9c.1-.1.2-.1.4-.1.4 0 .7.3.9.8.1-.1.2-.1.3-.1.4 0 .7.3.8.7h.1c.3 0 .5.3.6.6v.2h-.4l-2.5 1.2-3.7-2.3z" class="st4"/>
  <path d="M527.5 463.1v.7l4.2 2.5v-.8z" class="st28"/>
  <path d="M531.7 465.5v.8l3-1.7v-.8z" class="st20"/>
  <path d="M531.9 463.8s.1-.2.2-.2.2.1.2.1c0-.1-.1-.2-.3-.2s-.1.2-.1.3zm.1.5s.2-.2.5-.2.5.2.5.2c0-.3-.2-.5-.5-.5-.2 0-.5.2-.5.5zm-2.1-1.9s.2-.2.4-.2c.2-.1.4 0 .4 0-.1-.2-.3-.3-.5-.2-.2 0-.3.2-.3.4z" class="st7"/>
  <path d="M523.9 462.7v8.5h-.2v-8.5.1s.1 0 .2-.1z" class="st5"/>
  <g class="st0">
    <defs>
      <path id="SVGID_7_" d="M518 461.5l22.5-13.1 5.7 3.3-22.5 13.1z" class="st0"/>
    </defs>
    <use fill="#43A4C9" xlink:href="#SVGID_7_" overflow="visible"/>
    <clipPath id="SVGID_8_">
      <use xlink:href="#SVGID_7_" overflow="visible"/>
    </clipPath>
    <path d="M546.2 451.7l-5.7-3.3-22.5 13.1 5.7 3.3 5.4-3.2 17.1-9.9" class="st33 st5"/>
  </g>
  <path d="M540.5 448.4l5.7 3.3-3.4 2-5.6-3.3zm-6.7 4l5.6 3.2-3.3 2-5.7-3.3zm-6.9 4l5.6 3.3-3.3 1.9-5.7-3.3zm-7.2 4.1l5.7 3.3-1.7 1-5.7-3.3z" class="st34"/>
  <path d="M501.6 433.8l3.4 2v.8l-3.4-2z" class="st28"/>
  <path d="M487.8 441.9l13.8-8.1v.8l-13.8 8.1z" class="st20"/>
  <path d="M504.5 436.3l-.4-.2c-.1-.7-.5-1.2-1.1-1.2-.1 0-.3 0-.4.1-.2-.5-.5-.9-1-.9s-.9.4-1 1c-.1-.1-.3-.1-.4-.1-.4 0-.8.4-1 .9-.1-.1-.2-.1-.4-.1-.4 0-.8.3-1 .8h-.1c-.3 0-.6.3-.7.7v.2h.5l2.8 1.4 4.2-2.6z" class="st4"/>
  <path d="M500 436.6s-.1-.2-.2-.2-.3.1-.3.1c0-.1.2-.2.3-.2.1 0 .2.1.2.3zm-.1.5s-.3-.2-.6-.2-.6.2-.6.2c0-.3.3-.6.6-.6s.6.3.6.6z" class="st7"/>
  <path d="M500.3 438.6l-.4-.2c-.1-.7-.5-1.2-1.1-1.2-.1 0-.3 0-.4.1-.2-.5-.5-.9-1-.9s-.9.4-1 1c-.1-.1-.3-.1-.4-.1-.4 0-.8.4-1 .9-.1-.1-.2-.1-.4-.1-.4 0-.8.3-1 .8h-.1c-.3 0-.6.3-.7.7v.2h.5l2.8 1.4 4.2-2.6z" class="st4"/>
  <path d="M496.6 441l-.2-.9c-.1-.7-1.9.1-2.5.1-.1 0-.2-.2-.3-.2-.2-.5-.7-.6-1.1-.6-.5 0-.9.4-1 1-.1-.1-.3-.1-.4-.1-.4 0-.8.4-1 .9-.1-.1-.2-.1-.4-.1-.4 0-.8.3-1 .8h-.1c-.3 0-.6.3-.7.7 0 .1.3-.2.3.1l.2.2 2.8 1.4 5.4-3.3z" class="st4"/>
  <path d="M505 435.8v.8l-13.8 8v-.8z" class="st20"/>
  <path d="M491.2 443.8v.8l-3.4-1.9v-.8z" class="st28"/>
  <path d="M490.4 442s-.1-.2-.2-.2-.3.1-.3.1c0-.1.2-.2.3-.2.2 0 .3.1.2.3zm3 .2s-.2-.2-.5-.3c-.3-.1-.6 0-.6 0 .1-.3.4-.5.7-.4.3 0 .5.4.4.7zm-3.3-.7s-.3 0-.5.1-.4.4-.4.4c-.1-.2 0-.4.2-.6.3-.1.6-.1.7.1zm5.2-2.4s-.2-.2-.5-.3c-.3-.1-.6 0-.6 0 .1-.3.4-.5.7-.4.3.1.4.4.4.7zm6.5-4.6s-.3 0-.5.1-.3.4-.3.4c-.1-.2 0-.4.2-.6.3-.1.5-.1.6.1z" class="st7"/>
  <ellipse cx="506.6" cy="437.3" class="st3" rx="0.7" ry="0.8"/>
  <path d="M505.5 436.7s0 .5.8.5c.7 0 .8-.4.8-.4l.2.2s.2-.2-.1-.6c0 0-.6-.5-.9.1-.3.4-.8.2-.8.2z" class="st2"/>
  <path d="M506.7 438v.3s-.4-.1-.5.1c0 0 0 .4.5.4s.6-.5.6-.5-.3-.1-.4 0v-.4l-.2.1zm-.8 1.8v2.5s0 .2.1.2c.2 0 .2-.2.2-.2v-2.6l-.3.1zm1.4 3.4l.1 2.5s0 .2.2.2.2-.2.2-.2l-.1-2.6-.4.1zm-1.2-.1l-.1 2.5s0 .2.1.2c.2 0 .2-.2.2-.2l.2-2.6-.4.1zm1.4-3v2.5s0 .2.1.2c.2 0 .2-.2.2-.2V440l-.3.1z" class="st3"/>
  <path d="M507.3 437.6s-.6.6-1.3.1c-.1-.1-.3-.7.1-1 0-.1 1.1 0 1.1 0s.3.4.1.9z" class="st2"/>
  <path d="M506.1 441.5l-.1 2.1.5.1.1-1.7h.5v1.7h.6l-.1-2.2z" class="st7"/>
  <path d="M506.3 438.4s-.6 0-.6 1.6h.3v1.7h1.5v-1.6l.4-.1s.1-1.6-.7-1.6c0 0 .1.4-.4.4 0 0-.5 0-.5-.4z" class="st6"/>
  <ellipse cx="502.7" cy="437.2" class="st3" rx="0.6" ry="0.8"/>
  <path d="M502.8 438v.3l-.4.2s-.1.6.4.6c0 0 .7 0 .6-.6l-.3-.2v-.4l-.3.1zm-.6 4.4l.1 2.6s0 .1.1.2c.1 0 .2-.1.2-.1v-2.6h-.4zm.8 0l.1 2.6s0 .1.1.2c.1 0 .2-.1.2-.1v-2.6h-.4zm-.9-3.7s-.4 2.1-.4 3.4c0 0 0 .2.1.2 0 0 .1 0 .1-.2.1 0 .2-3.4.2-3.4zm1.4-.2l.1 3.5s0 .2.1.2c.2 0 .1-.1.1-.2s-.1-3-.1-3 0-.4-.2-.5z" class="st3"/>
  <path d="M502.4 438.4s-.2 0-.2.2l-.1 3.8h1.6l-.1-4s-.1-.1-.2-.1c0 0 0 .4-.4.4-.3.2-.6.2-.6-.3z" class="st5"/>
  <path d="M501.8 438s-.3-1.4.8-1.7c0 0 1-.2 1.1 1.1 0 0 .1 1.1-.6 1.1 0 0-1 .2-1.3-.5z" class="st2"/>
  <path d="M541.5 456.4l-.7.4-.7-.4.7-.4z" class="st35"/>
  <path d="M541.5 456.4v.9l-.7.4v-.9z" class="st20"/>
  <path d="M540.8 456.8v.9l-.7-.4v-.9z" class="st28"/>
  <path d="M543.1 457.2l-1.1.6-1-.6 1-.6z" class="st35"/>
  <path d="M543.1 457.2v1.3l-1.1.6v-1.3z" class="st20"/>
  <path d="M542 457.8v1.3l-1-.6v-1.3z" class="st28"/>
  <path d="M544.3 458.1l-.7.4-.7-.4.7-.4z" class="st35"/>
  <path d="M544.3 458.1v.9l-.7.4v-.9z" class="st20"/>
  <path d="M543.6 458.5v.9l-.7-.4v-.9z" class="st28"/>
  <path d="M540.4 458.4l-.9.5-1-.5.9-.6z" class="st35"/>
  <path d="M540.4 458.4v1.2l-.9.6v-1.3z" class="st20"/>
  <path d="M539.5 458.9v1.3l-1-.6v-1.2z" class="st28"/>
  <path d="M541 459.5l-.5.3-.5-.3.5-.3z" class="st35"/>
  <path d="M541 459.5v.7l-.5.3v-.7z" class="st20"/>
  <path d="M540.5 459.8v.7l-.5-.3v-.7z" class="st28"/>
  <path d="M542.2 458.9l-.5.3-.5-.3.5-.3z" class="st35"/>
  <path d="M542.2 458.9v.6l-.5.3v-.6z" class="st20"/>
  <path d="M541.7 459.2v.6l-.5-.3v-.6z" class="st28"/>
  <path d="M536.1 459.7l-1 .6-1.1-.6 1.1-.6z" class="st35"/>
  <path d="M536.1 459.7v1.3l-1 .6v-1.3z" class="st20"/>
  <path d="M535.1 460.3v1.3l-1.1-.6v-1.3z" class="st28"/>
  <path d="M538.1 460.6l-.7.5-.8-.5.7-.4z" class="st35"/>
  <path d="M538.1 460.6l-.1 1-.7.4.1-.9z" class="st20"/>
  <path d="M537.4 461.1l-.1.9-.7-.4v-1z" class="st28"/>
  <path d="M535.5 461.6l-.6.3-.5-.3.5-.3z" class="st35"/>
  <path d="M535.5 461.6v.6l-.6.3v-.6z" class="st20"/>
  <path d="M534.9 461.9v.6l-.5-.3v-.6z" class="st28"/>
  <path d="M485.7 443.7l-.7.4-.7-.4.7-.5z" class="st35"/>
  <path d="M485.7 443.7v.9l-.7.4v-.9z" class="st20"/>
  <path d="M485 444.1v.9l-.7-.4v-.9z" class="st28"/>
  <path d="M487.3 444.5l-1.1.6-1-.6 1-.6z" class="st35"/>
  <path d="M487.3 444.5v1.3l-1.1.6v-1.3z" class="st20"/>
  <path d="M486.2 445.1v1.3l-1-.6v-1.3z" class="st28"/>
  <path d="M492.6 450.4l-.7.4-.7-.4.7-.4z" class="st35"/>
  <path d="M492.6 450.4v.9l-.7.5v-1z" class="st20"/>
  <path d="M491.9 450.8v1l-.7-.5v-.9z" class="st28"/>
  <path d="M484.7 445.6l-1 .6-1-.6 1-.5z" class="st35"/>
  <path d="M484.7 445.6v1.3l-1 .6v-1.3z" class="st20"/>
  <path d="M483.7 446.2v1.3l-1-.6v-1.3z" class="st28"/>
  <path d="M495.2 450.2l-.6.3-.5-.3.5-.3z" class="st35"/>
  <path d="M495.2 450.2v.7l-.6.3v-.7z" class="st20"/>
  <path d="M494.6 450.5v.7l-.5-.3v-.7z" class="st28"/>
  <path d="M490.7 448.7l-.5.3-.5-.3.5-.3z" class="st35"/>
  <path d="M490.7 448.7v.7l-.5.3v-.7z" class="st20"/>
  <path d="M490.2 449v.7l-.5-.3v-.7z" class="st28"/>
  <path d="M489.5 447.2l-1 .6-1-.6 1-.6z" class="st35"/>
  <path d="M489.5 447.2v1.3l-1 .6v-1.3z" class="st20"/>
  <path d="M488.5 447.8v1.3l-1-.6v-1.3z" class="st28"/>
  <path d="M491.9 447.5l-.7.4-.7-.4.7-.4z" class="st35"/>
  <path d="M491.9 447.5v.9l-.7.4v-.9z" class="st20"/>
  <path d="M491.2 447.9v.9l-.7-.4v-.9z" class="st28"/>
  <path d="M489.3 449.5l-.5.3-.5-.3.5-.3z" class="st35"/>
  <path d="M489.3 449.5v.7l-.5.3v-.7z" class="st20"/>
  <path d="M488.8 449.8v.7l-.5-.3v-.7z" class="st28"/>
  <path d="M497.8 450.9l-.7.4-.7-.4.7-.4z" class="st35"/>
  <path d="M497.8 450.9v.9l-.7.4v-.9z" class="st20"/>
  <path d="M497.1 451.3v.9l-.7-.4v-.9z" class="st28"/>
  <path d="M499.3 451.8l-1 .6-1-.6 1-.6z" class="st35"/>
  <path d="M499.3 451.8v1.3l-1 .6v-1.3z" class="st20"/>
  <path d="M498.3 452.4v1.3l-1-.6v-1.3z" class="st28"/>
  <path d="M495 452.7l-.6.3-.5-.3.5-.3z" class="st35"/>
  <path d="M495 452.7v.7l-.6.3v-.7z" class="st20"/>
  <path d="M494.4 453v.7l-.5-.3v-.7z" class="st28"/>
  <path d="M496.1 451.5l-.7.4-.7-.4.7-.5z" class="st35"/>
  <path d="M496.1 451.5v.9l-.7.4v-.9z" class="st20"/>
  <path d="M495.4 451.9v.9l-.7-.4v-.9z" class="st28"/>
  <path d="M497 448.6v7.1h-.2v-7.1.1s.1 0 .2-.1z" class="st7"/>
  <g class="st0">
    <defs>
      <path id="SVGID_9_" d="M479.6 439.6l22.5-13.1 17.2 9.9-22.5 13.1z" class="st0"/>
    </defs>
    <clipPath id="SVGID_10_">
      <use xlink:href="#SVGID_9_" overflow="visible"/>
    </clipPath>
    <path d="M507.8 429.8l-5.7-3.3-22.5 13.1 5.7 3.2 11.5 6.7 5.5-3.1-11.6-6.7 17.1-9.9" class="st36"/>
  </g>
  <path d="M502.1 426.5l5.7 3.3-3.4 1.9-5.6-3.3zm-6.9 4l5.7 3.3-3.3 1.9-5.7-3.3zm-6.8 4l5.7 3.2-3.4 2-5.7-3.3zm-6.8 3.9l17.4 9.8-2.2 1.3-17.2-9.9z" class="st5"/>
  <g class="st0">
    <g class="st0">
      <defs>
        <path id="SVGID_11_" d="M493.3 404.8l-.1 24.5c0 .1 0 .1-.1.2-.2.1-.5.1-.7 0-.1-.1-.1-.1-.1-.2l.1-24.5c0 .1 0 .1.1.2.2.1.5.1.7 0 .1-.1.1-.1.1-.2z" class="st0"/>
      </defs>
      <clipPath id="SVGID_12_">
        <use xlink:href="#SVGID_11_" overflow="visible"/>
      </clipPath>
      <g class="st37">
        <path d="M493.3 404.8l-.1 24.5c0 .1 0 .1-.1.2l.1-24.5c.1-.1.1-.1.1-.2" class="st38"/>
        <path d="M493.2 405l-.1 24.5.1-24.5" class="st39"/>
        <path d="M493.1 405l-.1 24.5.1-24.5" class="st40"/>
        <path d="M493.1 405l-.1 24.5.1-24.5" class="st41"/>
        <path d="M493.1 405l-.1 24.5.1-24.5" class="st20"/>
        <path d="M493.1 405l-.1 24.5.1-24.5c-.1 0 0 0 0 0" class="st42"/>
        <path d="M493 405.1l-.1 24.5.1-24.5" class="st43"/>
        <path d="M493 405.1l-.1 24.5.1-24.5" class="st44"/>
        <path d="M493 405.1l-.1 24.5.1-24.5" class="st45"/>
        <path d="M493 405.1l-.1 24.5.1-24.5" class="st21"/>
        <path d="M492.9 405.1l-.1 24.5.1-24.5" class="st46"/>
        <path d="M492.9 405.1l-.1 24.5.1-24.5" class="st47"/>
        <path d="M492.9 405.1l-.1 24.5.1-24.5" class="st48"/>
        <path d="M492.9 405.1l-.1 24.5.1-24.5" class="st49"/>
        <path d="M492.9 405.1l-.1 24.5.1-24.5c-.1 0-.1 0 0 0" class="st50"/>
        <path d="M492.8 405.1l-.1 24.5.1-24.5" class="st26"/>
        <path d="M492.8 405.1l-.1 24.5.1-24.5" class="st51"/>
        <path d="M492.8 405.1l-.1 24.5.1-24.5c-.1 0 0 0 0 0" class="st52"/>
        <path d="M492.7 405.1l-.1 24.5.1-24.5" class="st53"/>
        <path d="M492.7 405l-.1 24.5h-.1l.2-24.5" class="st54"/>
        <path d="M492.6 405l-.1 24.5h-.1l.2-24.5" class="st55"/>
        <path d="M492.5 405l-.1 24.5.1-24.5" class="st54"/>
        <path d="M492.5 405l-.1 24.5.1-24.5" class="st53"/>
        <path d="M492.5 404.9l-.1 24.5.1-24.5" class="st52"/>
        <path d="M492.5 404.9l-.1 24.5.1-24.5" class="st51"/>
        <path d="M492.5 404.9l-.1 24.5v-24.5h.1" class="st26"/>
        <path d="M492.4 404.9v24.5-24.5" class="st50"/>
        <path d="M492.4 404.9v24.4-24.4" class="st49"/>
        <path d="M492.4 404.9v24.4-24.4" class="st48"/>
        <path d="M492.4 404.9v24.4h-.1l.1-24.4" class="st47"/>
        <path d="M492.4 404.9l-.1 24.4.1-24.5v.1" class="st46"/>
        <path d="M492.4 404.8l-.1 24.5.1-24.5" class="st21"/>
        <path d="M492.4 404.8l-.1 24.5.1-24.5" class="st45"/>
        <path d="M492.4 404.8l-.1 24.5.1-24.5" class="st44"/>
      </g>
    </g>
    <path d="M493.2 404.6c.2.1.2.3 0 .4-.2.1-.5.1-.7 0-.2-.1-.2-.3 0-.4.2-.1.5-.1.7 0z" class="st56"/>
  </g>
  <path d="M466.9 436.1c2.8.3 5.4-.9 7.8-2.3 8.6-5.1 15.2-13.5 18.2-23.1" class="st57"/>
  <g class="st0">
    <g class="st0">
      <defs>
        <path id="SVGID_13_" d="M467.6 430.3l-.1 24.5c0 .1 0 .1-.1.2-.2.1-.5.1-.7 0-.1-.1-.1-.1-.1-.2l.1-24.5c0 .1 0 .1.1.2.2.1.5.1.7 0 .1-.1.1-.2.1-.2z" class="st0"/>
      </defs>
      <clipPath id="SVGID_14_">
        <use xlink:href="#SVGID_13_" overflow="visible"/>
      </clipPath>
      <g class="st58">
        <path d="M467.6 430.3l-.1 24.5c0 .1 0 .1-.1.2l.1-24.5c.1-.1.1-.2.1-.2" class="st38"/>
        <path d="M467.5 430.5l-.1 24.5.1-24.5c-.1 0 0 0 0 0" class="st39"/>
        <path d="M467.4 430.5l-.1 24.5.1-24.5" class="st40"/>
        <path d="M467.4 430.5l-.1 24.5.1-24.5" class="st41"/>
        <path d="M467.4 430.5l-.1 24.5.1-24.5" class="st20"/>
        <path d="M467.3 430.5l-.1 24.5.1-24.5" class="st42"/>
        <path d="M467.3 430.5l-.1 24.5.1-24.5" class="st43"/>
        <path d="M467.3 430.5l-.1 24.5.1-24.5" class="st44"/>
        <path d="M467.3 430.5l-.1 24.5.1-24.5" class="st45"/>
        <path d="M467.3 430.5l-.1 24.5.1-24.5c-.1 0-.1 0 0 0" class="st21"/>
        <path d="M467.2 430.5l-.1 24.5.1-24.5" class="st46"/>
        <path d="M467.2 430.5l-.1 24.5.1-24.5" class="st47"/>
        <path d="M467.2 430.5l-.1 24.5.1-24.5" class="st48"/>
        <path d="M467.2 430.5l-.1 24.5.1-24.5c-.1 0 0 0 0 0" class="st49"/>
        <path d="M467.1 430.5L467 455l.1-24.5" class="st50"/>
        <path d="M467.1 430.5L467 455l.1-24.5" class="st26"/>
        <path d="M467.1 430.5L467 455l.1-24.5" class="st51"/>
        <path d="M467.1 430.5L467 455l.1-24.5c-.1 0-.1 0 0 0" class="st52"/>
        <path d="M467 430.5V455v-24.5" class="st53"/>
        <path d="M467 430.5l-.1 24.5h-.1l.2-24.5c-.1 0 0 0 0 0" class="st54"/>
        <path d="M466.9 430.5l-.1 24.5h-.1l.2-24.5" class="st55"/>
        <path d="M466.8 430.5l-.1 24.5.1-24.5c0-.1 0-.1 0 0 0-.1 0-.1 0 0" class="st54"/>
        <path d="M466.8 430.4l-.1 24.5.1-24.5" class="st53"/>
        <path d="M466.8 430.4l-.1 24.5.1-24.5" class="st52"/>
        <path d="M466.8 430.4l-.1 24.5.1-24.5c-.1 0 0 0 0 0" class="st51"/>
        <path d="M466.7 430.4v24.4-24.4" class="st26"/>
        <path d="M466.7 430.4v24.4-24.5.1" class="st50"/>
        <path d="M466.7 430.3v24.5h-.1l.1-24.5" class="st49"/>
        <path d="M466.7 430.3l-.1 24.5.1-24.5" class="st48"/>
        <path d="M466.7 430.3l-.1 24.5.1-24.5" class="st47"/>
        <path d="M466.7 430.3l-.1 24.5v-.1l.1-24.4" class="st46"/>
        <path d="M466.7 430.3l-.1 24.4.1-24.4" class="st21"/>
        <path d="M466.7 430.3l-.1 24.4.1-24.4" class="st45"/>
        <path d="M466.7 430.3l-.1 24.4.1-24.4" class="st44"/>
      </g>
    </g>
    <path d="M467.5 430.1c.2.1.2.3 0 .4-.2.1-.5.1-.7 0-.2-.1-.2-.3 0-.4.2-.1.5-.1.7 0z" class="st56"/>
  </g>
  <path d="M492.8 410.6c.2 1.4 1.7 2.5 2.8 3.3 1.2.8 2.6 1.1 3.9 1.4 2.2.5 4.5.3 6.7.4 2.5.1 5.1-.1 7.6-.8 2.5-.7 4.8-1.8 6.7-3.6" class="st57"/>
  <defs>
    <path id="SVGID_15_" d="M492.4 410h.9v1.5h-.9z"/>
  </defs>
  <clipPath id="SVGID_16_">
    <use xlink:href="#SVGID_15_" overflow="visible"/>
  </clipPath>
  <path d="M492.2 410.5c.3.2 1 .2 1.3 0" class="st59"/>
  <path d="M538.6 396.2l24.8 30.7v10.3l-49.7-28.7v-10.3z" class="st34"/>
  <g class="st0">
    <defs>
      <path id="SVGID_17_" d="M656.2 350.9v-6.5l1-.6v6.5z" class="st0"/>
    </defs>
    <clipPath id="SVGID_18_">
      <use xlink:href="#SVGID_17_" overflow="visible"/>
    </clipPath>
    <path d="M656.3 344.3l-.1.1c0 .3 0 .5.1.7.2.7.3 1.5.5 2.2-.1-.2-.2-.3-.3-.4h-.1l-.1.1v.2c.2.6.6 1.1.7 1.8 0-.2-.2-.2-.3-.1-.2.1.4.8.5 1.3v-4.4c0-.3-.2-1-.3-1.2-.1-.2-.3-.2-.6-.3" class="st60 st11"/>
  </g>
  <g class="st0">
    <defs>
      <path id="SVGID_19_" d="M656.9 350.4v-7.8l1.6-.9.1 7.7z" class="st0"/>
    </defs>
    <clipPath id="SVGID_20_">
      <use xlink:href="#SVGID_19_" overflow="visible"/>
    </clipPath>
    <path d="M658.5 341.7l-.1.1c-.3.4-.5.9-.6 1.3-.1.4-.1.8-.2 1.2v-.8c0-.1 0-.2-.1-.2s-.1.4-.1.6c-.2 1.2-.2 2.4-.2 3.5 0-.2-.1-.5-.2-.5-.4.2.2 2.1.2 3.2v.1c.1-.7.8-2.3.6-2.2-.2.1-.4.4-.4.6.2-1 .7-2.1.9-3.2v-.3h-.1l-.1.1c-.2.3-.3.6-.4.8.2-1.1.4-2.2.7-3.4.1-.2.2-.6.1-.9" class="st61 st34"/>
  </g>
  <g class="st0">
    <defs>
      <path id="SVGID_21_" d="M657.1 356.1v-1.8l.7-.4v1.9z" class="st0"/>
    </defs>
    <clipPath id="SVGID_22_">
      <use xlink:href="#SVGID_21_" overflow="visible"/>
    </clipPath>
    <path d="M657.5 354.1s-.1 0 0 0c0 .1 0 .3-.1.4-.1.2-.1.3-.2.5-.1.4-.2.7.2.7h.4c-.4 0-.5-.2-.5-.5.1-.4.4-.9.3-1.2 0 0-.1 0-.1.1m-.1 0" class="st62 st52"/>
  </g>
  <g class="st0">
    <defs>
      <path id="SVGID_23_" d="M654.5 355.6v-4.1l5.3-3v4.1z" class="st0"/>
    </defs>
    <clipPath id="SVGID_24_">
      <use xlink:href="#SVGID_23_" overflow="visible"/>
    </clipPath>
    <path d="M657.1 350c-1.4.8-2.6 2.4-2.6 3.6 0 1.1 1.2 1.4 2.6.6 1.4-.8 2.6-2.4 2.6-3.6s-1.1-1.5-2.6-.6" class="st63 st64"/>
  </g>
  <g class="st0">
    <defs>
      <path id="SVGID_25_" d="M654.5 355.9v-2.1l5.3-3v2z" class="st0"/>
    </defs>
    <clipPath id="SVGID_26_">
      <use xlink:href="#SVGID_25_" overflow="visible"/>
    </clipPath>
    <path d="M659.8 350.8s-.2 1.6-2.5 2.9h-.1c-2.4 1.4-2.6.1-2.6.1 0 1.1 1.2 1.4 2.6.6 1.4-.9 2.6-2.5 2.6-3.6" class="st65 st52"/>
  </g>
  <g class="st0">
    <defs>
      <path id="SVGID_27_" d="M529.4 406.8v-4l.7.3-.1 4z" class="st0"/>
    </defs>
    <clipPath id="SVGID_28_">
      <use xlink:href="#SVGID_27_" overflow="visible"/>
    </clipPath>
    <path d="M529.5 402.8c-.1.2 0 .3 0 .5.1.6.2 1.2.3 1.7 0-.1-.1-.3-.2-.4l-.1-.1v.1c.1.5.4 1.1.4 1.6 0-.1-.1-.2-.2-.3-.1 0 .2.8.3 1.1v-2.7c0-.2-.1-.7-.2-.9 0-.2-.1-.3-.3-.6" class="st66 st11"/>
  </g>
  <g class="st0">
    <defs>
      <path id="SVGID_29_" d="M529.8 407.1v-4.7l1.1.6-.1 4.7z" class="st0"/>
    </defs>
    <clipPath id="SVGID_30_">
      <use xlink:href="#SVGID_29_" overflow="visible"/>
    </clipPath>
    <path d="M530.8 402.9c-.2 0-.4.2-.4.4-.1.2-.1.4-.1.6v-.5c0-.1 0-.2-.1-.2l-.1.2c-.1.6-.2 1.3-.1 2 0-.1-.1-.4-.1-.5-.2-.1.1 1.4.1 2.1v.1c.1-.3.5-.8.4-.9-.1-.1-.2 0-.2.1.1-.5.4-.8.6-1.3v-.2h-.1c-.1 0-.2.1-.2.3.1-.5.3-1.1.4-1.6 0-.1.1-.3.1-.5l-.2-.1" class="st67 st10"/>
  </g>
  <g class="st0">
    <defs>
      <path id="SVGID_31_" d="M529.2 410.2V409l.4.2v1.2z" class="st0"/>
    </defs>
    <clipPath id="SVGID_32_">
      <use xlink:href="#SVGID_31_" overflow="visible"/>
    </clipPath>
    <path d="M529.4 409.1v.2c0 .1-.1.1-.1.2-.1.1-.1.3.1.6.1.1.2.2.2.3-.2-.3-.3-.5-.3-.6 0-.3.2-.4.1-.7.1.1 0 0 0 0m-.1 0c.1 0 .1 0 0 0" class="st68 st52"/>
  </g>
  <g class="st0">
    <defs>
      <path id="SVGID_33_" d="M528.1 408.3v-2.6l3.2 1.9v2.6z" class="st0"/>
    </defs>
    <clipPath id="SVGID_34_">
      <use xlink:href="#SVGID_33_" overflow="visible"/>
    </clipPath>
    <path d="M529.7 406.7c-.9-.5-1.6-.4-1.6.3s.7 1.7 1.6 2.2c.9.5 1.6.4 1.6-.3s-.7-1.7-1.6-2.2" class="st69 st64"/>
  </g>
  <g class="st0">
    <defs>
      <path id="SVGID_35_" d="M528.1 408.4v-1.2l3.2 1.8v1.3z" class="st0"/>
    </defs>
    <clipPath id="SVGID_36_">
      <use xlink:href="#SVGID_35_" overflow="visible"/>
    </clipPath>
    <path d="M531.3 409s-.1.8-1.6 0c-1.5-.9-1.6-1.8-1.6-1.8 0 .7.7 1.7 1.6 2.2.9.5 1.6.3 1.6-.4" class="st70 st52"/>
  </g>
  <g class="st0">
    <defs>
      <path id="SVGID_37_" d="M534.9 409.1V402l1.1.7v7z" class="st0"/>
    </defs>
    <clipPath id="SVGID_38_">
      <use xlink:href="#SVGID_37_" overflow="visible"/>
    </clipPath>
    <path d="M535 402.1c-.1.3-.1.6 0 .9.2 1 .4 2 .5 3-.1-.3-.2-.5-.3-.8l-.1-.1h-.1v.2c.2.9.6 1.9.8 2.8 0-.2-.2-.4-.4-.5-.2-.1.4 1.4.5 2v-4.9c0-.4-.2-1.2-.3-1.6-.2-.5-.3-.7-.6-1.1v.1" class="st71 st11"/>
  </g>
  <g class="st0">
    <defs>
      <path id="SVGID_39_" d="M535.5 409.7v-8.4l1.9 1.1-.1 8.4z" class="st0"/>
    </defs>
    <clipPath id="SVGID_40_">
      <use xlink:href="#SVGID_39_" overflow="visible"/>
    </clipPath>
    <path d="M537.3 402.4h-.1c-.3.1-.5.4-.6.7-.1.3-.2.7-.2 1.1v-.8c0-.1 0-.3-.1-.4-.1 0-.1.3-.1.4-.2 1.1-.3 2.3-.2 3.5 0-.2-.1-.7-.2-.8-.4-.2.2 2.5.2 3.7v.1c.2-.6.9-1.5.7-1.6-.2-.1-.4-.1-.4.1.2-.9.7-1.5 1-2.3v-.2l-.1-.1h-.2c-.2.1-.3.2-.4.5.2-1 .5-1.9.7-2.8.1-.3.1-.5.1-.9l-.1-.2" class="st72 st10"/>
  </g>
  <g class="st0">
    <defs>
      <path id="SVGID_41_" d="M534.5 415v-2l.6.3v2z" class="st0"/>
    </defs>
    <clipPath id="SVGID_42_">
      <use xlink:href="#SVGID_41_" overflow="visible"/>
    </clipPath>
    <path d="M534.8 413.2c0 .1 0 .3-.1.4-.1.1-.2.2-.2.3-.2.2-.2.5.2 1 .1.1.3.3.4.5-.4-.5-.6-.9-.5-1.1.1-.3.5-.5.4-.9-.1-.2-.1-.2-.2-.2m-.1-.1" class="st73 st52"/>
  </g>
  <g class="st0">
    <defs>
      <path id="SVGID_43_" d="M532.5 411.7v-4.4l5.7 3.2-.1 4.5z" class="st0"/>
    </defs>
    <clipPath id="SVGID_44_">
      <use xlink:href="#SVGID_43_" overflow="visible"/>
    </clipPath>
    <path d="M535.3 408.9c-1.6-.9-2.8-.6-2.8.6s1.3 3 2.8 3.9c1.6.9 2.8.6 2.8-.6.1-1.3-1.2-3-2.8-3.9" class="st74 st64"/>
  </g>
  <g class="st0">
    <defs>
      <path id="SVGID_45_" d="M532.5 412v-2.3l5.7 3.3v2.2z" class="st0"/>
    </defs>
    <clipPath id="SVGID_46_">
      <use xlink:href="#SVGID_45_" overflow="visible"/>
    </clipPath>
    <path d="M538.2 413s-.2 1.4-2.7 0h-.1c-2.6-1.5-2.8-3.2-2.8-3.2 0 1.2 1.3 3 2.8 3.9 1.5.8 2.8.5 2.8-.7" class="st75 st52"/>
  </g>
  <g class="st0">
    <defs>
      <path id="SVGID_47_" d="M540.9 413.7v-4.1l.6.4v4z" class="st0"/>
    </defs>
    <clipPath id="SVGID_48_">
      <use xlink:href="#SVGID_47_" overflow="visible"/>
    </clipPath>
    <path d="M541 409.7c-.1.2 0 .3 0 .5.1.6.2 1.2.3 1.7 0-.1-.1-.3-.2-.4l-.1-.1v.1c.1.5.4 1.1.4 1.6 0-.1-.1-.2-.2-.3-.1 0 .2.8.3 1.1v-2.7c0-.2-.1-.7-.2-.9 0-.2-.1-.4-.3-.6" class="st76 st11"/>
  </g>
  <g class="st0">
    <defs>
      <path id="SVGID_49_" d="M541.3 414v-4.8l1 .7v4.7z" class="st0"/>
    </defs>
    <clipPath id="SVGID_50_">
      <use xlink:href="#SVGID_49_" overflow="visible"/>
    </clipPath>
    <path d="M542.3 409.8c-.2 0-.4.2-.4.4-.1.2-.1.4-.1.6v-.5c0-.1 0-.2-.1-.2l-.1.2c-.1.6-.2 1.3-.1 2 0-.1-.1-.4-.1-.5-.2-.1.1 1.4.1 2.1v.1c.1-.3.5-.8.4-.9-.1-.1-.2 0-.2.1.1-.5.4-.8.6-1.3v-.2h-.1c-.1 0-.2.1-.2.3.1-.5.3-1.1.4-1.6 0-.1.1-.3.1-.5l-.2-.1" class="st77 st10"/>
  </g>
  <g class="st0">
    <defs>
      <path id="SVGID_51_" d="M540.7 417v-1.1l.3.2v1.1z" class="st0"/>
    </defs>
    <clipPath id="SVGID_52_">
      <use xlink:href="#SVGID_51_" overflow="visible"/>
    </clipPath>
    <path d="M540.9 416s-.1 0 0 0v.2c0 .1-.1.1-.1.2-.1.1-.1.3.1.6.1.1.2.2.2.3-.2-.3-.3-.5-.3-.6 0-.3.2-.4.1-.7m-.1 0" class="st78 st52"/>
  </g>
  <g class="st0">
    <defs>
      <path id="SVGID_53_" d="M539.5 415.2l.1-2.6 3.2 1.9v2.5z" class="st0"/>
    </defs>
    <clipPath id="SVGID_54_">
      <use xlink:href="#SVGID_53_" overflow="visible"/>
    </clipPath>
    <path d="M541.2 413.6c-.9-.5-1.6-.4-1.6.3s.7 1.7 1.6 2.2c.9.5 1.6.4 1.6-.3s-.7-1.7-1.6-2.2" class="st79 st64"/>
  </g>
  <g class="st0">
    <defs>
      <path id="SVGID_55_" d="M539.5 415.3V414l3.3 1.9v1.3z" class="st0"/>
    </defs>
    <clipPath id="SVGID_56_">
      <use xlink:href="#SVGID_55_" overflow="visible"/>
    </clipPath>
    <path d="M542.8 415.9s-.1.8-1.6 0c-1.5-.9-1.6-1.8-1.6-1.8 0 .7.7 1.7 1.6 2.2.9.5 1.6.3 1.6-.4" class="st80 st52"/>
  </g>
  <circle cx="494.8" cy="413" r="0.2" class="st27"/>
  <circle cx="496" cy="414.5" r="0.2" class="st7"/>
  <circle cx="498.5" cy="414.8" r="0.2" class="st23"/>
  <circle cx="500.3" cy="415.8" r="0.2" class="st7"/>
  <circle cx="501.9" cy="415.4" r="0.2" class="st24"/>
  <circle cx="504.3" cy="416" r="0.2" class="st23"/>
  <circle cx="506.6" cy="415.5" r="0.2" class="st25"/>
  <circle cx="507.8" cy="416" r="0.2" class="st27"/>
  <circle cx="509.6" cy="415.4" r="0.2" class="st7"/>
  <circle cx="511.8" cy="415.6" r="0.2" class="st23"/>
  <circle cx="514.3" cy="415.2" r="0.2" class="st1"/>
  <circle cx="516.1" cy="413.9" r="0.2" class="st81"/>
  <circle cx="517.1" cy="414" r="0.2" class="st23"/>
  <circle cx="518.9" cy="412.5" r="0.2" class="st25"/>
  <circle cx="469.5" cy="435.7" r="0.2" class="st27"/>
  <circle cx="471.7" cy="435.5" r="0.2" class="st7"/>
  <circle cx="472.9" cy="434.4" r="0.2" class="st23"/>
  <circle cx="473.9" cy="434.4" r="0.2" class="st7"/>
  <circle cx="476.7" cy="432.7" r="0.2" class="st24"/>
  <circle cx="486.5" cy="423.7" r="0.2" class="st23"/>
  <circle cx="483.9" cy="425.7" r="0.2" class="st25"/>
  <circle cx="485.3" cy="424.9" r="0.2" class="st27"/>
  <circle cx="478.6" cy="431.4" r="0.2" class="st7"/>
  <circle cx="479.1" cy="430.3" r="0.2" class="st23"/>
  <circle cx="476.8" cy="421.1" r="0.2" class="st1"/>
  <circle cx="480.2" cy="430.1" r="0.2" class="st81"/>
  <circle cx="482.7" cy="427.9" r="0.2" class="st23"/>
  <circle cx="481.4" cy="428.4" r="0.2" class="st25"/>
  <circle cx="489.7" cy="418.5" r="0.2" class="st23"/>
  <circle cx="489.7" cy="417.5" r="0.2" class="st7"/>
  <circle cx="487.8" cy="421.6" r="0.2" class="st24"/>
  <circle cx="488" cy="420.5" r="0.2" class="st81"/>
  <circle cx="491" cy="416.3" r="0.2" class="st81"/>
  <circle cx="491.4" cy="414" r="0.2" class="st25"/>
  <ellipse cx="519.4" cy="439.1" class="st3" rx="1.7" ry="1.2"/>
  <path d="M521.1 439.1c0 .7-.8 1.2-1.7 1.2 0 0 .1-.5.1-1.2s-.1-1.2-.1-1.2c.9 0 1.7.6 1.7 1.2z" class="st25"/>
  <path d="M519.4 436.3v-.6c0-.2-.1-.6-.2-.8-.1-.2-.2-.3-.4-.4h-.1l-.1.1v.4l.3 1.5c0-.1-.1-.2-.2-.3h-.1v.1c.1.4.4.8.5 1.3 0-.1-.1-.2-.2-.2s.3.6.3.9v-.1" class="st23"/>
  <path d="M519.4 438.2c0-.6-.4-1.9-.1-1.9.1 0 .1.2.1.4-.1-.6 0-1.3.1-1.9 0-.1 0-.3.1-.3 0 0 .1.1.1.2v.4c0-.2 0-.4.1-.7.1-.2.2-.4.4-.6h.1s.1 0 .1.1c0 .2 0 .3-.1.5-.2.6-.3 1.1-.4 1.7 0-.1.1-.3.2-.4h.1v.1c-.2.5-.5 1-.6 1.5 0-.1.2-.2.3-.2.1.1-.4.8-.5 1.1 0 .1 0 0 0 0" class="st24"/>
  <g class="st0">
    <defs>
      <path id="SVGID_885_" d="M614 440.9V439l1.6-1v1.9z" class="st0"/>
    </defs>
    <clipPath id="SVGID_57_">
      <use xlink:href="#SVGID_885_" overflow="visible"/>
    </clipPath>
    <path d="M614.8 438.5c-.5.3-.8.9-.8 1.4 0 .5.4.7.8.5.5-.3.8-.9.8-1.4 0-.6-.3-.8-.8-.5" class="st82"/>
  </g>
  <g class="st0">
    <defs>
      <path id="SVGID_884_" d="M619.8 437.5v-1.9l1.6-1 .1 1.9z" class="st0"/>
    </defs>
    <clipPath id="SVGID_58_">
      <use xlink:href="#SVGID_884_" overflow="visible"/>
    </clipPath>
    <path d="M620.6 435.1c-.5.3-.8.9-.8 1.4 0 .5.4.7.8.5.5-.3.8-.9.8-1.4.1-.6-.3-.8-.8-.5" class="st83"/>
  </g>
  <path d="M620.1 434.3l-5.5-3.1 2.7-.8 5.4 3.2z" class="st84"/>
  <g class="st0">
    <defs>
      <path id="SVGID_59_" d="M615.7 434.7l-5.5-3.2c3-1.7 3.2-1.8 3.2-1.8l5.5 3.2c-.1.1-.2.1-3.2 1.8z" class="st0"/>
    </defs>
    <clipPath id="SVGID_60_">
      <use xlink:href="#SVGID_59_" overflow="visible"/>
    </clipPath>
    <g class="st85">
      <path d="M615.7 434.7l-5.5-3.2c2-1.1 2.7-1.5 3-1.7l5.5 3.2c-.3.2-1 .6-3 1.7" class="st86"/>
      <path d="M618.7 433l-5.5-3.2c.1-.1.1-.1.2-.1l5.5 3.2c-.1.1-.1.1-.2.1" class="st87"/>
      <path d="M618.9 433l-5.5-3.2 5.5 3.1v.1" class="st88"/>
    </g>
  </g>
  <g class="st0">
    <defs>
      <path id="SVGID_61_" d="M614.1 437.8l-5.5-3.2c.7-1.4 1.6-3 1.6-3.1l5.5 3.2c0 .1-.9 1.7-1.6 3.1z" class="st0"/>
    </defs>
    <clipPath id="SVGID_62_">
      <use xlink:href="#SVGID_61_" overflow="visible"/>
    </clipPath>
    <g class="st89">
      <path d="M614.1 437.8l-5.5-3.2c.6-1.3 1.4-2.8 1.5-3l5.5 3.2c-.1.2-.9 1.7-1.5 3m1.6-3l-5.5-3.2 5.5 3.2m0 0l-5.5-3.2 5.5 3.1v.1m0-.1l-5.5-3.1 5.5 3.1m0 0l-5.5-3.1 5.5 3.1" class="st90"/>
      <path d="M615.7 434.7l-5.5-3.1 5.5 3.1m0 0l-5.5-3.1 5.5 3.1" class="st91"/>
      <path d="M615.7 434.7l-5.5-3.1 5.5 3.1" class="st92"/>
      <path d="M615.7 434.7l-5.5-3.1 5.5 3.1" class="st93"/>
      <path d="M615.7 434.7l-5.5-3.1 5.5 3.1" class="st94"/>
      <path d="M615.7 434.7l-5.5-3.1 5.5 3.1" class="st95"/>
      <path d="M615.7 434.7l-5.5-3.1 5.5 3.1" class="st96"/>
      <path d="M615.7 434.7l-5.5-3.1 5.5 3.1" class="st97"/>
      <path d="M615.7 434.7l-5.5-3.1 5.5 3.1" class="st98"/>
      <path d="M615.7 434.7l-5.5-3.1 5.5 3.1" class="st99"/>
      <path d="M615.7 434.7l-5.5-3.1 5.5 3.1" class="st100"/>
    </g>
  </g>
  <path d="M615.7 434.7c3-1.7 3.2-1.8 3.2-1.8l1.2 1.4 2.7-.8v1.3l-10.2 5.9V439l1.6-1.1c.6-1.5 1.5-3.1 1.5-3.2z" class="st101"/>
  <path d="M612.6 440.7l-5.5-3.2v-1.7l5.5 3.1z" class="st90"/>
  <path d="M612.6 438.9l-5.5-3.1 1.6-1.2 5.4 3.2z" class="st102"/>
  <g class="st0">
    <defs>
      <path id="SVGID_63_" d="M614.7 437.4l-1.9-.9 4.4-2.3v1.8z" class="st0"/>
    </defs>
    <clipPath id="SVGID_64_">
      <use xlink:href="#SVGID_63_" overflow="visible"/>
    </clipPath>
    <path d="M617.2 434.2l-1.2.7-1.2 2.4 2.4-1.3v-1.8" class="st103"/>
  </g>
  <g class="st0">
    <defs>
      <path id="SVGID_65_" d="M617.4 435.9v-1.8l2-1.2.5 1.5z" class="st0"/>
    </defs>
    <clipPath id="SVGID_66_">
      <use xlink:href="#SVGID_65_" overflow="visible"/>
    </clipPath>
    <path d="M618.8 433.3l-1.4.8v1.8l2.3-1.4-.9-1.2" class="st104"/>
  </g>
  <path d="M610.4 432l-1.3 2.5 4.8 2.8 1.3-2.5z" class="st105"/>
  <g class="st0">
    <defs>
      <path id="SVGID_883_" d="M607.1 436.6v-.6l1.3.8v.6z" class="st0"/>
    </defs>
    <clipPath id="SVGID_67_">
      <use xlink:href="#SVGID_883_" overflow="visible"/>
    </clipPath>
    <path d="M608.4 436.8l-1.3-.8v.6l1.3.8v-.6" class="st106"/>
  </g>
  <g class="st0">
    <defs>
      <path id="SVGID_882_" d="M611.3 439.1v-.6l1.3.7v.6z" class="st0"/>
    </defs>
    <clipPath id="SVGID_68_">
      <use xlink:href="#SVGID_882_" overflow="visible"/>
    </clipPath>
    <path d="M612.6 439.2l-1.3-.7v.6l1.3.7v-.6" class="st107"/>
  </g>
  <g class="st0">
    <defs>
      <path id="SVGID_881_" d="M607.1 436.8v-.2l1.3.8v.1z" class="st0"/>
    </defs>
    <clipPath id="SVGID_69_">
      <use xlink:href="#SVGID_881_" overflow="visible"/>
    </clipPath>
    <path d="M608.4 437.4l-1.3-.8v.2l1.3.7v-.1" class="st108"/>
  </g>
  <g class="st0">
    <defs>
      <path id="SVGID_880_" d="M611.3 439.2v-.1l1.3.7v.2z" class="st0"/>
    </defs>
    <clipPath id="SVGID_70_">
      <use xlink:href="#SVGID_880_" overflow="visible"/>
    </clipPath>
    <path d="M612.6 439.8l-1.3-.7v.1l1.3.8v-.2" class="st109"/>
  </g>
  <g class="st0">
    <defs>
      <path id="SVGID_891_" d="M630.5 430.5v-1.9l1.7-.9v1.9z" class="st0"/>
    </defs>
    <clipPath id="SVGID_71_">
      <use xlink:href="#SVGID_891_" overflow="visible"/>
    </clipPath>
    <path d="M631.3 428.1c-.5.3-.8.9-.8 1.4 0 .5.4.7.8.5.5-.3.8-.9.8-1.4.1-.5-.3-.7-.8-.5" class="st110 st105"/>
  </g>
  <g class="st0">
    <defs>
      <path id="SVGID_890_" d="M636.3 427.1v-1.9l1.7-.9v1.9z" class="st0"/>
    </defs>
    <clipPath id="SVGID_72_">
      <use xlink:href="#SVGID_890_" overflow="visible"/>
    </clipPath>
    <path d="M637.1 424.7c-.5.3-.8.9-.8 1.4 0 .5.4.7.8.5.5-.3.8-.9.8-1.4.1-.5-.3-.7-.8-.5" class="st111 st105"/>
  </g>
  <g class="st0">
    <path d="M636.6 424l-5.5-3.2 2.7-.8 5.4 3.2z" class="st112"/>
    <defs>
      <path id="SVGID_73_" d="M632.2 424.4l-5.5-3.2c3-1.7 3.2-1.8 3.2-1.8l5.5 3.2s-.2.1-3.2 1.8z"/>
    </defs>
    <use fill="#F8B9AA" xlink:href="#SVGID_73_" overflow="visible"/>
    <clipPath id="SVGID_74_">
      <use xlink:href="#SVGID_73_" overflow="visible"/>
    </clipPath>
    <g class="st113">
      <path d="M632.2 424.4l-5.5-3.2c2-1.1 2.7-1.5 3-1.7l5.5 3.2c-.3.1-1 .5-3 1.7" class="st112"/>
      <path d="M635.2 422.7l-5.5-3.2c.1-.1.1-.1.2-.1l5.5 3.2s-.1 0-.2.1m.2-.1l-5.5-3.2 5.5 3.2" class="st112"/>
    </g>
    <defs>
      <path id="SVGID_75_" d="M630.6 427.5l-5.5-3.2c.7-1.4 1.6-3 1.6-3.1l5.5 3.2s-.9 1.7-1.6 3.1z"/>
    </defs>
    <use fill="#FEF4F2" xlink:href="#SVGID_75_" overflow="visible"/>
    <clipPath id="SVGID_76_">
      <use xlink:href="#SVGID_75_" overflow="visible"/>
    </clipPath>
    <path d="M630.6 427.5l-5.5-3.2c.6-1.3 1.4-2.8 1.5-3l5.5 3.2c0 .2-.9 1.7-1.5 3m1.6-3.1l-5.5-3.2 5.5 3.2m0 0l-5.5-3.2 5.5 3.2m0 0l-5.5-3.2 5.5 3.2m0 0l-5.5-3.2h.1l5.4 3.2m0 0l-5.4-3.2 5.4 3.2m0 0l-5.4-3.2 5.4 3.2m0 0l-5.4-3.2 5.4 3.2m0 0l-5.4-3.2 5.4 3.2m0 0l-5.4-3.2 5.4 3.2m0 0l-5.4-3.2 5.4 3.2m0 0l-5.4-3.2 5.4 3.2m0 0l-5.4-3.2 5.4 3.2m0 0l-5.4-3.2 5.4 3.2m0 0l-5.4-3.2 5.4 3.2m0 0l-5.4-3.2 5.4 3.2" class="st114 st115"/>
    <path d="M632.2 424.4c3-1.7 3.2-1.8 3.2-1.8l1.2 1.4 2.7-.8v1.3l-10.2 5.9v-1.7l1.6-1.1c.6-1.5 1.5-3.2 1.5-3.2z" class="st116"/>
    <path d="M629.1 430.3l-5.5-3.1v-1.8l5.5 3.2z" class="st115"/>
    <path d="M629.1 428.6l-5.5-3.2 1.6-1.1 5.4 3.2z" class="st112"/>
  </g>
  <g class="st0">
    <defs>
      <path id="SVGID_77_" d="M631.2 427.1l-1.9-1 4.4-2.2v1.7z" class="st0"/>
    </defs>
    <clipPath id="SVGID_78_">
      <use xlink:href="#SVGID_77_" overflow="visible"/>
    </clipPath>
    <path d="M633.7 423.9l-1.2.6-1.2 2.5 2.4-1.4v-1.7" class="st117 st105"/>
  </g>
  <g class="st0">
    <defs>
      <path id="SVGID_79_" d="M633.9 425.5v-1.7l2.1-1.3.4 1.6z" class="st0"/>
    </defs>
    <clipPath id="SVGID_80_">
      <use xlink:href="#SVGID_79_" overflow="visible"/>
    </clipPath>
    <path d="M635.3 423l-1.4.8v1.7l2.3-1.3-.9-1.2" class="st118 st105"/>
  </g>
  <path d="M626.9 421.7l-1.3 2.5 4.8 2.8 1.3-2.5z" class="st105"/>
  <g class="st0">
    <defs>
      <path id="SVGID_889_" d="M623.6 426.3v-.6l1.3.7v.6z" class="st0"/>
    </defs>
    <clipPath id="SVGID_81_">
      <use xlink:href="#SVGID_889_" overflow="visible"/>
    </clipPath>
    <path d="M624.9 426.4l-1.3-.7v.6l1.3.7v-.6" class="st119 st4"/>
  </g>
  <g class="st0">
    <defs>
      <path id="SVGID_888_" d="M627.8 428.7v-.6l1.3.8v.6z" class="st0"/>
    </defs>
    <clipPath id="SVGID_82_">
      <use xlink:href="#SVGID_888_" overflow="visible"/>
    </clipPath>
    <path d="M629.1 428.9l-1.3-.8v.6l1.3.8v-.6" class="st120 st4"/>
  </g>
  <g class="st0">
    <defs>
      <path id="SVGID_887_" d="M623.6 426.4v-.1l1.3.7v.2z" class="st0"/>
    </defs>
    <clipPath id="SVGID_83_">
      <use xlink:href="#SVGID_887_" overflow="visible"/>
    </clipPath>
    <path d="M624.9 427l-1.3-.7v.1l1.3.8v-.2" class="st121 st101"/>
  </g>
  <g class="st0">
    <defs>
      <path id="SVGID_886_" d="M627.8 428.9v-.2l1.3.8v.1z" class="st0"/>
    </defs>
    <clipPath id="SVGID_84_">
      <use xlink:href="#SVGID_886_" overflow="visible"/>
    </clipPath>
    <path d="M629.1 429.5l-1.3-.8v.2l1.3.7v-.1" class="st122 st101"/>
  </g>
  <g class="st0">
    <defs>
      <path id="SVGID_897_" d="M595.7 451.2v-1.9l1.7-1v1.9z" class="st0"/>
    </defs>
    <clipPath id="SVGID_85_">
      <use xlink:href="#SVGID_897_" overflow="visible"/>
    </clipPath>
    <path d="M596.5 448.8c-.5.3-.8.9-.8 1.4 0 .5.4.7.8.5.5-.3.8-.9.8-1.4.1-.5-.3-.8-.8-.5" class="st123 st105"/>
  </g>
  <g class="st0">
    <defs>
      <path id="SVGID_896_" d="M601.5 447.8v-1.9l1.7-1v1.9z" class="st0"/>
    </defs>
    <clipPath id="SVGID_86_">
      <use xlink:href="#SVGID_896_" overflow="visible"/>
    </clipPath>
    <path d="M602.4 445.4c-.5.3-.8.9-.8 1.4 0 .5.4.7.8.5.5-.3.8-.9.8-1.4 0-.5-.4-.7-.8-.5" class="st124 st105"/>
  </g>
  <g class="st0">
    <path d="M601.8 444.7l-5.5-3.2 2.7-.8 5.5 3.2z" class="st125"/>
    <defs>
      <path id="SVGID_87_" d="M597.4 445.1l-5.5-3.2c3-1.7 3.2-1.8 3.2-1.8l5.5 3.2s-.2 0-3.2 1.8z"/>
    </defs>
    <use fill="#C8E5EE" xlink:href="#SVGID_87_" overflow="visible"/>
    <clipPath id="SVGID_88_">
      <use xlink:href="#SVGID_87_" overflow="visible"/>
    </clipPath>
    <path d="M597.4 445.1l-5.5-3.2c2-1.1 2.7-1.5 3-1.7l5.5 3.2c-.2.1-1 .5-3 1.7m3-1.7l-5.5-3.2c.1-.1.1-.1.2-.1l5.5 3.2s-.1 0-.2.1m.2-.1l-5.5-3.2 5.5 3.2" class="st126 st125"/>
    <defs>
      <path id="SVGID_89_" d="M595.9 448.1l-5.5-3.2c.7-1.4 1.6-3 1.6-3.1l5.5 3.2c-.1.1-1 1.8-1.6 3.1z"/>
    </defs>
    <use fill="#F6FBFC" xlink:href="#SVGID_89_" overflow="visible"/>
    <clipPath id="SVGID_90_">
      <use xlink:href="#SVGID_89_" overflow="visible"/>
    </clipPath>
    <path d="M595.9 448.1l-5.5-3.2c.6-1.3 1.4-2.8 1.5-3l5.5 3.2c-.1.3-.9 1.8-1.5 3m1.5-3l-5.5-3.2 5.5 3.2m0 0l-5.4-3.2 5.4 3.2m0 0l-5.4-3.2 5.4 3.2m0 0l-5.4-3.2 5.4 3.2m0 0l-5.4-3.2 5.4 3.2m0 0l-5.4-3.2 5.4 3.2m0 0l-5.4-3.2 5.4 3.2m0 0l-5.4-3.2 5.4 3.2m0 0l-5.4-3.2 5.4 3.2m0 0l-5.4-3.2 5.4 3.2m0 0l-5.4-3.2 5.4 3.2m0 0l-5.4-3.2 5.4 3.2m0 0l-5.4-3.2 5.4 3.2m0 0l-5.4-3.2 5.4 3.2m0 0l-5.4-3.2 5.4 3.2" class="st127 st128"/>
    <path d="M597.4 445.1c3-1.7 3.2-1.8 3.2-1.8l1.2 1.4 2.7-.8v1.3l-10.2 5.9v-1.7l1.6-1.1c.6-1.5 1.5-3.2 1.5-3.2z" class="st129"/>
    <path d="M594.3 451l-5.4-3.2v-1.7l5.4 3.2z" class="st128"/>
    <path d="M594.3 449.3l-5.4-3.2 1.5-1.1 5.5 3.1z" class="st125"/>
  </g>
  <g class="st0">
    <defs>
      <path id="SVGID_91_" d="M596.4 447.7l-1.9-.9 4.4-2.2v1.7z" class="st0"/>
    </defs>
    <clipPath id="SVGID_92_">
      <use xlink:href="#SVGID_91_" overflow="visible"/>
    </clipPath>
    <path d="M598.9 444.6l-1.2.6-1.2 2.5 2.4-1.4v-1.7" class="st130 st105"/>
  </g>
  <g class="st0">
    <defs>
      <path id="SVGID_93_" d="M599.1 446.2v-1.7l2.1-1.3.5 1.5z" class="st0"/>
    </defs>
    <clipPath id="SVGID_94_">
      <use xlink:href="#SVGID_93_" overflow="visible"/>
    </clipPath>
    <path d="M600.5 443.7l-1.4.8v1.7l2.4-1.4-1-1.1" class="st131 st105"/>
  </g>
  <path d="M592.1 442.4l-1.2 2.4 4.8 2.8 1.2-2.5z" class="st105"/>
  <g class="st0">
    <defs>
      <path id="SVGID_895_" d="M588.8 447l.1-.6 1.2.7v.6z" class="st0"/>
    </defs>
    <clipPath id="SVGID_95_">
      <use xlink:href="#SVGID_895_" overflow="visible"/>
    </clipPath>
    <path d="M590.1 447.1l-1.2-.7-.1.6 1.3.7v-.6" class="st132 st4"/>
  </g>
  <g class="st0">
    <defs>
      <path id="SVGID_894_" d="M593 449.4v-.6l1.3.7v.6z" class="st0"/>
    </defs>
    <clipPath id="SVGID_96_">
      <use xlink:href="#SVGID_894_" overflow="visible"/>
    </clipPath>
    <path d="M594.3 449.5l-1.3-.7v.6l1.3.7v-.6" class="st133 st4"/>
  </g>
  <g class="st0">
    <defs>
      <path id="SVGID_893_" d="M588.8 447.1l.1-.1 1.2.7v.2z" class="st0"/>
    </defs>
    <clipPath id="SVGID_97_">
      <use xlink:href="#SVGID_893_" overflow="visible"/>
    </clipPath>
    <path d="M590.1 447.7l-1.2-.7-.1.1 1.3.8v-.2" class="st134 st101"/>
  </g>
  <g class="st0">
    <defs>
      <path id="SVGID_892_" d="M593 449.5v-.1l1.3.7v.2z" class="st0"/>
    </defs>
    <clipPath id="SVGID_98_">
      <use xlink:href="#SVGID_892_" overflow="visible"/>
    </clipPath>
    <path d="M594.3 450.1l-1.3-.7v.1l1.3.8v-.2" class="st135 st101"/>
  </g>
  <defs>
    <path id="SVGID_99_" d="M592.5 456.8l-13.6-7.7 42.4-24.6 13.2 8.1z"/>
  </defs>
  <clipPath id="SVGID_100_">
    <use xlink:href="#SVGID_99_" overflow="visible"/>
  </clipPath>
  <path d="M599.4 436.6l18.4 10.5m-.9-20.6l16.7 9.5" class="st136"/>
</svg>
