<svg xmlns="http://www.w3.org/2000/svg" x="0px" y="0px" xmlns:xlink="http://www.w3.org/1999/xlink" viewBox="0 0 1440 875.8">
  <path fill="#F5967F" d="M888.2 144.6l-16.8 9.8-14.3-8.2 16.8-9.8"/>
  <path fill="#F6A28F" d="M888.2 144.6l-.1 32.4-16.8 9.7.1-32.3"/>
  <path fill="#FEF4F2" d="M871.4 154.4l-.1 32.3-14.3-8.2.1-32.3"/>
  <path fill="#F5967F" d="M921.6 148.9l-23.2 13.5-24.9-14.4 23.2-13.4"/>
  <path fill="#F6A28F" d="M921.6 148.9l-.1 52.2-23.2 13.5.1-52.2"/>
  <path fill="#FEF4F2" d="M898.4 162.4l-.1 52.2-24.9-14.4.1-52.2"/>
  <path fill="#97D2E8" d="M963.1 140l-36.8 21.4-33.3-19.2 36.8-21.4"/>
  <path fill="#43A4C9" d="M963.1 140l-.1 32.6-36.8 21.4.1-32.6"/>
  <path fill="#EDF6F9" d="M926.3 161.4l-.1 32.6-33.3-19.2.1-32.6"/>
  <defs>
    <path id="a" d="M892 149.3l37.9-22.1 34.4 19.9-37.9 22z"/>
  </defs>
  <clipPath id="b">
    <use xlink:href="#a" overflow="visible"/>
  </clipPath>
  <path fill="#0066AE" d="M964.3 147.1l-.8-.4-37.2 21.6-33.6-19.4-.7.4 34.4 19.8 37.9-22" clip-path="url(#b)"/>
  <defs>
    <path id="c" d="M892 159.3l37.9-22.1 34.4 19.9-37.9 22z"/>
  </defs>
  <clipPath id="d">
    <use xlink:href="#c" overflow="visible"/>
  </clipPath>
  <path fill="#0066AE" d="M964.3 157.1l-.8-.4-37.2 21.6-33.6-19.5-.7.5 34.4 19.8 37.9-22" clip-path="url(#d)"/>
  <path fill="#F5967F" d="M989 184.5l-16.8 9.8-14.3-8.2 16.8-9.8"/>
  <path fill="#FEF4F2" d="M972.2 194.3l-.1 32.3-14.3-8.2.1-32.3"/>
  <path fill="#F5967F" d="M972.7 174.2l-23.2 13.5-24.9-14.4 23.2-13.5"/>
  <path fill="#F1526B" d="M989 184.5l-16.3 9.5v-19.8l-23.2 13.5-.1 52.1 23.2-13.4 16.3-9.5"/>
  <path fill="#FEF4F2" d="M949.5 187.7l-.1 52.1-24.9-14.4.1-52.1"/>
  <path fill="#FFE5A7" d="M946 166.4l-1.9 1.2-1.9-1.1 2-1.1"/>
  <path fill="#FFE29E" d="M946 166.4v9.8l-2 1.2.1-9.8"/>
  <path fill="#FFF9EA" d="M944.1 167.6l-.1 9.8-1.9-1.1.1-9.8"/>
  <defs>
    <path id="e" d="M956.3 200.5V194l3.1-1.8v6.5z"/>
  </defs>
  <clipPath id="f">
    <use xlink:href="#e" overflow="visible"/>
  </clipPath>
  <path fill="#FFF" d="M959.4 192.2l-3.1 1.8v6.5l3.1-1.8v-6.5" clip-path="url(#f)"/>
  <defs>
    <path id="g" d="M965.6 202.9l-.1-6.5 3.2-1.8v6.5z"/>
  </defs>
  <clipPath id="h">
    <use xlink:href="#g" overflow="visible"/>
  </clipPath>
  <path fill="#FFF" d="M968.7 194.6l-3.2 1.8.1 6.5 3.1-1.8v-6.5" clip-path="url(#h)"/>
  <defs>
    <path id="i" d="M959.7 216.6v-6.5l3.1-1.9.1 6.6z"/>
  </defs>
  <clipPath id="j">
    <use xlink:href="#i" overflow="visible"/>
  </clipPath>
  <path fill="#FFF" d="M962.8 208.2l-3.1 1.9v6.5l3.2-1.8-.1-6.6" clip-path="url(#j)"/>
  <defs>
    <path id="k" d="M981.4 203.1v-6.5l3.1-1.8v6.5z"/>
  </defs>
  <clipPath id="l">
    <use xlink:href="#k" overflow="visible"/>
  </clipPath>
  <path fill="#FFF" d="M984.5 194.8l-3.1 1.8v6.5l3.1-1.8v-6.5" clip-path="url(#l)"/>
  <defs>
    <path id="m" d="M976.4 216.1v-6.5l3.1-1.8v6.5z"/>
  </defs>
  <clipPath id="n">
    <use xlink:href="#m" overflow="visible"/>
  </clipPath>
  <path fill="#FFF" d="M979.5 207.8l-3.1 1.8v6.5l3.1-1.8v-6.5" clip-path="url(#n)"/>
  <path fill="#EDF6F9" d="M912.3 207.5l-.2 54-80-46.2.2-54"/>
  <path fill="#B6DCE8" d="M832.3 161.3l37.4-21.8 80 46.2-37.4 21.8"/>
  <path fill="#43A4C9" d="M949.7 185.7l-18-10.3-19.4 32.1-.2 54 37.4-21.7.2-54.1"/>
  <path fill="#C1432F" d="M931.7 175.4L851.6 129l19 10.4 80.1 46.8"/>
  <path fill="#FFCABE" d="M912.7 208.2l-80.4-46.9 19.3-32.3 80.1 46.4"/>
  <path fill="#43A4C9" d="M900 209.2l6.5-3.7-.1 52.4-6.5 3.8"/>
  <path fill="#B6DCE8" d="M889.2 203l6.5-3.8 10.8 6.3-6.5 3.7"/>
  <path fill="#43A4C9" d="M843.9 176.8l6.5-3.7-.1 52.4-6.5 3.8"/>
  <path fill="#B6DCE8" d="M833.1 170.6l6.5-3.8 10.8 6.3-6.5 3.7"/>
  <path fill="#F4A395" d="M888.7 203.2l7-4 5.4-2.8-6.5 3.8"/>
  <path fill="#EDF6F9" d="M900 209.3v-.1l-5.4-9-5.4 2.8-.2 52.4 10.9 6.3.1-52.5"/>
  <path fill="#F1526B" d="M894.6 200.2l6.5-3.8 5.6 9.3-6.5 3.8"/>
  <path fill="#F4A395" d="M832.8 170.7l6.8-3.9 5.5-2.8-6.7 4"/>
  <path fill="#EDF6F9" d="M838.5 167.8l-5.4 2.8-.2 52.4 10.9 6.3.1-52.5"/>
  <path fill="#F1526B" d="M838.5 167.8l6.6-3.8 5.5 9.3-6.5 3.8"/>
  <defs>
    <path id="o" d="M862.8 233v-19.2l5.8 3.3-.1 19.2z"/>
  </defs>
  <use fill="#F1526B" xlink:href="#o" overflow="visible"/>
  <clipPath id="p">
    <use xlink:href="#o" overflow="visible"/>
  </clipPath>
  <path fill="#F1526B" d="M868.6 217.1l-5.8-3.3V233l5.7 3.3.1-19.2" clip-path="url(#p)"/>
  <defs>
    <path id="q" d="M868.9 236.6v-19.2l5.8 3.3-.1 19.2z"/>
  </defs>
  <use fill="#F1526B" xlink:href="#q" overflow="visible"/>
  <clipPath id="r">
    <use xlink:href="#q" overflow="visible"/>
  </clipPath>
  <path fill="#F1526B" d="M874.7 220.7l-5.8-3.3v19.2l5.7 3.3.1-19.2" clip-path="url(#r)"/>
  <path fill="#6FB1C1" d="M857.6 231.4l.1-24.2 1.1-.7v24.2m21-10.7l1.2-.7-.1 24.2-1.2.7"/>
  <path fill="#B0DAE6" d="M857.7 207.2l1.1-.7 22.2 12.8-1.2.7"/>
  <defs>
    <path id="s" d="M893.2 221.5l.1-6.5 2.7 1.5-.1 6.5z"/>
  </defs>
  <clipPath id="t">
    <use xlink:href="#s" overflow="visible"/>
  </clipPath>
  <path fill="#62A1AF" d="M896 216.5l-2.7-1.5-.1 6.5 2.7 1.5.1-6.5" clip-path="url(#t)"/>
  <defs>
    <path id="u" d="M893.2 233.7l.1-6.5 2.7 1.5-.1 6.5z"/>
  </defs>
  <clipPath id="v">
    <use xlink:href="#u" overflow="visible"/>
  </clipPath>
  <path fill="#62A1AF" d="M896 228.7l-2.7-1.5-.1 6.5 2.7 1.5.1-6.5" clip-path="url(#v)"/>
  <defs>
    <path id="w" d="M893.2 245.9l.1-6.5 2.7 1.5-.1 6.5z"/>
  </defs>
  <clipPath id="x">
    <use xlink:href="#w" overflow="visible"/>
  </clipPath>
  <path fill="#62A1AF" d="M896 240.9l-2.7-1.5-.1 6.5 2.7 1.5.1-6.5" clip-path="url(#x)"/>
  <defs>
    <path id="y" d="M836.5 188.5v-6.4l2.7 1.5v6.5z"/>
  </defs>
  <clipPath id="z">
    <use xlink:href="#y" overflow="visible"/>
  </clipPath>
  <path fill="#62A1AF" d="M839.2 183.6l-2.7-1.5v6.4l2.7 1.6v-6.5" clip-path="url(#z)"/>
  <defs>
    <path id="A" d="M836.5 200.7v-6.5l2.7 1.6v6.5z"/>
  </defs>
  <clipPath id="B">
    <use xlink:href="#A" overflow="visible"/>
  </clipPath>
  <path fill="#62A1AF" d="M839.2 195.8l-2.7-1.6v6.5l2.7 1.6v-6.5" clip-path="url(#B)"/>
  <defs>
    <path id="C" d="M836.5 212.9v-6.4l2.7 1.5v6.5z"/>
  </defs>
  <clipPath id="D">
    <use xlink:href="#C" overflow="visible"/>
  </clipPath>
  <path fill="#62A1AF" d="M839.2 208l-2.7-1.5v6.4l2.7 1.6V208" clip-path="url(#D)"/>
  <defs>
    <path id="E" d="M867.8 203.6l.1-12.3 5.1 3v12.3z"/>
  </defs>
  <clipPath id="F">
    <use xlink:href="#E" overflow="visible"/>
  </clipPath>
  <path fill="#62A1AF" d="M873 194.3l-5.1-3-.1 12.3 5.2 3v-12.3" clip-path="url(#F)"/>
  <defs>
    <path id="G" d="M876.4 208.6v-12.3l5.2 3v12.3z"/>
  </defs>
  <clipPath id="H">
    <use xlink:href="#G" overflow="visible"/>
  </clipPath>
  <path fill="#62A1AF" d="M881.6 199.3l-5.2-3v12.3l5.2 3v-12.3" clip-path="url(#H)"/>
  <defs>
    <path id="I" d="M859.3 199v-12.3l5.2 3-.1 12.3z"/>
  </defs>
  <clipPath id="J">
    <use xlink:href="#I" overflow="visible"/>
  </clipPath>
  <path fill="#62A1AF" d="M864.5 189.7l-5.2-3V199l5.1 3 .1-12.3" clip-path="url(#J)"/>
  <defs>
    <path id="K" d="M926.9 225.6l-.1-12.3 5.2-3v12.3z"/>
  </defs>
  <clipPath id="L">
    <use xlink:href="#K" overflow="visible"/>
  </clipPath>
  <path fill="#FFF" d="M932 210.3l-5.2 3 .1 12.3 5.1-3v-12.3" clip-path="url(#L)"/>
  <defs>
    <path id="M" d="M934.9 221.6l-.1-12.3 5.2-3v12.3z"/>
  </defs>
  <clipPath id="N">
    <use xlink:href="#M" overflow="visible"/>
  </clipPath>
  <path fill="#FFF" d="M940 206.3l-5.2 3 .1 12.3 5.1-3v-12.3" clip-path="url(#N)"/>
  <defs>
    <path id="O" d="M930.1 202.3v-8.2l7.1-4.1v8.2z"/>
  </defs>
  <clipPath id="P">
    <use xlink:href="#O" overflow="visible"/>
  </clipPath>
  <path fill="#FFF" d="M933.7 192.1c-2 1.1-3.5 3.9-3.5 6.1 0 2.3 1.6 3.2 3.6 2 2-1.1 3.5-3.9 3.5-6.1-.1-2.3-1.7-3.2-3.6-2" clip-path="url(#P)"/>
  <path fill="#FFF9EA" d="M873.1 215l-.1 40.8c0 .1-.1.2-.2.3-.3.2-.7.2-1 0-.1-.1-.2-.2-.2-.3l.1-40.8c0 .1.1.2.2.3.3.2.7.2 1 0 .1 0 .2-.1.2-.3z"/>
  <path fill="#FFF9EA" d="M872.9 214.8c.3.2.3.4 0 .6-.3.2-.7.2-1 0-.3-.2-.3-.4 0-.6.3-.2.7-.2 1 0z"/>
  <defs>
    <path id="Q" d="M872.5 228.3v-11.4l11.7 6.8-.1 11.4z"/>
  </defs>
  <clipPath id="R">
    <use xlink:href="#Q" overflow="visible"/>
  </clipPath>
  <path fill="#FFD176" d="M881.7 222.2c-1.1-.6-2.2-.9-3.4-1.1-1.1-.2-2.2-.4-3.4-1.1-.8-.5-1.6-1.2-2.5-2.3v9.7c.8 1.1 1.6 1.8 2.5 2.3 1.1.6 2.2.9 3.4 1.1 1.1.2 2.2.5 3.4 1.1.8.5 1.6 1.2 2.5 2.3v-9.7c-.9-1.1-1.7-1.8-2.5-2.3" clip-path="url(#R)"/>
  <path fill="#FFF9EA" d="M842.1 197l-.1 40.8c0 .1-.1.2-.2.3-.3.2-.7.2-1 0-.1-.1-.2-.2-.2-.3l.1-40.8c0 .1.1.2.2.3.3.2.7.2 1 0 .1 0 .2-.1.2-.3z"/>
  <path fill="#FFF9EA" d="M841.9 196.8c.3.2.3.4 0 .6-.3.2-.7.2-1 0-.3-.2-.3-.4 0-.6.3-.2.7-.2 1 0z"/>
  <defs>
    <path id="S" d="M841.5 210.3v-11.4l11.7 6.8-.1 11.4z"/>
  </defs>
  <clipPath id="T">
    <use xlink:href="#S" overflow="visible"/>
  </clipPath>
  <path fill="#FFD176" d="M850.7 204.2c-1.1-.6-2.2-.9-3.4-1.1-1.1-.2-2.2-.5-3.4-1.1-.8-.5-1.6-1.2-2.5-2.3v9.7c.8 1.1 1.6 1.8 2.5 2.3 1.1.6 2.2.9 3.4 1.1 1.1.2 2.2.5 3.4 1.1.8.5 1.6 1.2 2.5 2.3v-9.7c-.9-1.1-1.7-1.8-2.5-2.3" clip-path="url(#T)"/>
  <path fill="#F5967F" d="M896.1 260.7l-6.7 3.9-12.7-7.3 6.8-3.9"/>
  <path fill="#F1526B" d="M896.1 260.7v3.3l-6.7 3.9v-3.3"/>
  <path fill="#FFCABE" d="M889.4 264.6v3.3l-12.7-7.3v-3.3"/>
  <defs>
    <path id="U" d="M879.5 257.2l4-2.2 9.8 5.6-3.9 2.3z"/>
  </defs>
  <clipPath id="V">
    <use xlink:href="#U" overflow="visible"/>
  </clipPath>
  <path fill="#CEDA91" d="M893.3 260.6l-9.8-5.6-4 2.2 9.9 5.7 3.9-2.3" clip-path="url(#V)"/>
  <path fill="#F5967F" d="M839.8 228.8l-6.8 3.9-12.7-7.3 6.8-4"/>
  <path fill="#F1526B" d="M839.8 228.8v3.2l-6.8 3.9v-3.2"/>
  <path fill="#FFCABE" d="M833 232.7v3.2l-12.7-7.3v-3.2"/>
  <defs>
    <path id="W" d="M823.2 225.3l3.9-2.3 9.8 5.7-3.9 2.3z"/>
  </defs>
  <clipPath id="X">
    <use xlink:href="#W" overflow="visible"/>
  </clipPath>
  <path fill="#CEDA91" d="M836.9 228.7l-9.8-5.7-3.9 2.3 9.8 5.7 3.9-2.3" clip-path="url(#X)"/>
  <ellipse cx="955.7" cy="232.3" fill="#FFF" rx="0.7" ry="0.8"/>
  <path fill="#3F3F3F" d="M956.9 231.7s0 .5-.8.5c-.7 0-.8-.4-.8-.4l-.2.2s-.2-.2.1-.6c0 0 .6-.5.9.1.3.4.8.2.8.2z"/>
  <path fill="#FFF" d="M955.6 233v.3s.4-.1.5.1c0 0 0 .4-.5.4s-.6-.5-.6-.5.3-.1.4 0v-.4l.2.1zm.9 1.8v2.5s0 .2-.1.2c-.2 0-.2-.2-.2-.2v-2.6l.3.1zm-1.4 3.3l-.1 2.5s0 .2-.2.2-.2-.2-.2-.2l.1-2.6.4.1zm1.2-.1l.1 2.5s0 .2-.1.2c-.2 0-.2-.2-.2-.2l-.2-2.6.4.1zm-1.4-3v2.5s0 .2-.1.2c-.2 0-.2-.2-.2-.2v-2.6l.3.1z"/>
  <path fill="#3F3F3F" d="M955.1 232.5s.6.6 1.3.1c.1-.1.3-.7-.1-1 0-.1-1.1 0-1.1 0s-.3.4-.1.9z"/>
  <path fill="#BCE5EC" d="M956.3 236.4l.1 2.2h-.5l-.1-1.7-.5.1v1.6h-.6l.1-2.1"/>
  <path fill="#CEDA91" d="M956.1 233.3s.6 0 .6 1.6h-.3v1.7h-1.5V235l-.4-.1s-.1-1.6.7-1.6c0 0-.1.4.4.4 0 .1.5.1.5-.4z"/>
</svg>
