<svg xmlns="http://www.w3.org/2000/svg" x="0px" y="0px" xmlns:xlink="http://www.w3.org/1999/xlink" viewBox="0 0 1440 875.8">
  <defs>
    <path id="a" d="M943.9 288.4l26.1-15.2 38.9 22.5-26 15.2z"/>
  </defs>
  <clipPath id="b">
    <use xlink:href="#a" overflow="visible"/>
  </clipPath>
  <path fill="#FFF" d="M1008.9 295.7L970 273.2l-26.1 15.2 39 22.5 26-15.2" clip-path="url(#b)"/>
  <path fill="#F5967F" d="M1031.8 258.6l-15.3 8.9-46.4-26.8 15.2-8.9"/>
  <path fill="#F59A84" d="M1031.8 258.6l-.1 32.6-15.2 8.9v-32.6"/>
  <path fill="#FFCABE" d="M1016.5 267.5v32.6L970 273.3l.1-32.6"/>
  <path fill="#F8F6F3" d="M1145.8 297.4l-.1 16.3-39.3-22.7.1-16.3"/>
  <path fill="#E0D9CD" d="M1148.6 297.4l-17 9.9-1.5-.9 15.7-9-39.3-22.7 1.4-.9"/>
  <path fill="#D8CFBF" d="M1148.6 297.4v16.3l-17.1 9.9.1-16.3"/>
  <path fill="#F8F6F3" d="M1131.6 307.3l-.1 16.3-1.4-.8v-16.4"/>
  <path fill="#D8CFBF" d="M1060.9 259.5l-.1 16.3-15.6 9.1v-16.3"/>
  <path fill="#F8F6F3" d="M1045.2 268.6v16.3l-1.4-.8v-16.4"/>
  <path fill="#E0D9CD" d="M1101.6 281.4l-1.4.8-39.3-22.7-15.7 9.1-1.4-.9 17.1-9.9"/>
  <path fill="#D8CFBF" d="M1101.6 281.4v16.3l-1.4.8v-16.3"/>
  <path fill="#F8F6F3" d="M1100.2 282.2v16.3l-39.4-22.7.1-16.3"/>
  <path fill="#FFD176" d="M1076 243.9v4.9l-6.3 3.6v-4.9"/>
  <path fill="#FFF7E6" d="M1069.7 247.5v4.9l-8.5-4.9v-4.9"/>
  <path fill="#FFDD8E" d="M1076 243.9l-6.3 3.6-8.5-4.9-9.5 5.5-6.5-3.7 15.8-9.2"/>
  <path fill="#FFBD6A" d="M1061.2 242.6v4.9l-9.5 5.5v-4.9"/>
  <path fill="#FFF7E6" d="M1051.7 248.1v4.9l-6.5-3.7v-4.9"/>
  <path fill="#FFDD8E" d="M1054.1 218.3l-39.8 23.1-16.4-9.5 39.8-23.1"/>
  <path fill="#FFBD6A" d="M1054.1 218.3l-.2 89.7-39.8 23.1.2-89.7"/>
  <path fill="#FFF5D4" d="M1014.3 241.4l-.2 89.7-16.5-9.5.3-89.7"/>
  <path fill="#FFDD8E" d="M1010.6 245.5l-4.5 2.6-8.7-5.1 4.4-2.6"/>
  <path fill="#FFBD6A" d="M1010.6 245.5l-.2 73.4-4.5 2.6.2-73.4"/>
  <path fill="#FFF5D4" d="M1006.1 248.1l-.2 73.4-8.7-5.1.2-73.4"/>
  <path fill="#F59680" d="M1029.9 216.7v5l4.3 2.5"/>
  <path fill="#FFF2D3" d="M1034.2 224.2l6.6-3.8-4.4-7.5-6.5 3.8"/>
  <path fill="#F1526B" d="M1034.6 222.4l4.5-2.6-3-5.2-4.5 2.6"/>
  <defs>
    <path id="c" d="M1023.6 308.3l-.2-64.5 22.9-13.2.2 64.5z"/>
  </defs>
  <clipPath id="d">
    <use xlink:href="#c" overflow="visible"/>
  </clipPath>
  <path fill="#FFF" d="M1033.9 237.7l-10.5 6.1v7.7l10.5-6.1v-7.7m12.4-7.1l-10.6 6.1.1 7.6 10.5-6.1v-7.6m-12.4 16.6l-10.5 6.1v7.7l10.6-6.1-.1-7.7m12.4-7.1l-10.5 6.1v7.6l10.5-6.1v-7.6m-12.3 16.6l-10.6 6.1v7.6l10.6-6.1v-7.6m12.3-7.2l-10.5 6.1v7.7l10.6-6.1-.1-7.7m-12.3 16.7l-10.6 6.1.1 7.6 10.5-6.1v-7.6m12.4-7.2l-10.6 6.1v7.7l10.6-6.1V259m-12.4 16.6l-10.5 6.1v7.7l10.6-6.1-.1-7.7m12.4-7.1l-10.6 6.1.1 7.6 10.5-6.1v-7.6m-12.3 16.6l-10.6 6.1v7.7l10.6-6.1v-7.7m12.3-7.1l-10.5 6.1v7.6l10.6-6.1-.1-7.6m-12.3 16.6l-10.6 6.1.1 7.6 10.5-6.1v-7.6m12.4-7.2l-10.6 6.1v7.7l10.6-6.1v-7.7" clip-path="url(#d)"/>
  <path fill="#FFDD8E" d="M1125.5 227.9l-16.4 9.5-40-23.1 16.3-9.5"/>
  <path fill="#FFBD6A" d="M1125.5 227.9l-.3 89.7-16.3 9.5.2-89.7"/>
  <path fill="#FFF5D4" d="M1109.1 237.4l-.2 89.7-40.1-23.1.3-89.7"/>
  <path fill="#F5967F" d="M1117 219.8l-3.9 2.3-3.7-2.2 3.8-2.2"/>
  <path fill="#F1526B" d="M1117 219.8l-.1 8.2-3.8 2.2v-8.1"/>
  <path fill="#FDECE8" d="M1113.1 222.1v8.1l-3.8-2.1.1-8.2"/>
  <path fill="#F1526B" d="M1097 210v5l-4.3 2.5"/>
  <path fill="#FFF2D3" d="M1092.7 217.5l-6.6-3.8 4.4-7.5 6.5 3.8"/>
  <path fill="#F59680" d="M1092.3 215.8l-4.5-2.6 3-5.2 4.5 2.6"/>
  <defs>
    <path id="e" d="M1077.1 291.1l.2-64.5 22.9 13.2-.1 64.5z"/>
  </defs>
  <clipPath id="f">
    <use xlink:href="#e" overflow="visible"/>
  </clipPath>
  <path fill="#FFF" d="M1100.2 239.8l-10.5-6.1v7.7l10.5 6.1v-7.7m-12.3-7.1l-10.6-6.1v7.6l10.6 6.1v-7.6m12.3 16.6l-10.5-6.1-.1 7.7 10.6 6.1v-7.7m-12.3-7.1l-10.6-6.1v7.6l10.5 6.1.1-7.6m12.3 16.6l-10.6-6.1v7.6l10.6 6.1v-7.6m-12.4-7.2l-10.5-6.1-.1 7.7 10.6 6.1v-7.7m12.4 16.7l-10.6-6.1v7.6l10.5 6.1.1-7.6m-12.4-7.2l-10.6-6.1v7.7l10.6 6.1v-7.7m12.3 16.6l-10.5-6.1v7.7l10.5 6.1v-7.7m-12.3-7.1l-10.6-6.1v7.6l10.6 6.1v-7.6m12.3 16.6l-10.5-6.1-.1 7.7 10.6 6.1v-7.7m-12.4-7.1l-10.5-6.1v7.6l10.5 6.1v-7.6m12.4 16.6l-10.6-6.1v7.6l10.6 6.1v-7.6m-12.4-7.2l-10.5-6.1-.1 7.7 10.6 6.1v-7.7" clip-path="url(#f)"/>
  <path fill="#F5967F" d="M1097.8 323.2l-41.1 23.9-33.3-19.3 41.1-23.9"/>
  <path fill="#F1526B" d="M1097.8 323.2v9.7l-41.2 24 .1-9.8"/>
  <path fill="#FFCABE" d="M1056.7 347.1l-.1 9.8-33.3-19.3.1-9.8"/>
  <path fill="#97D2E8" d="M1097.8 317.4l-41.1 23.9-33.3-19.2 41.1-23.9"/>
  <path fill="#43A4C9" d="M1097.8 317.4v3.3l-41.1 23.9v-3.3"/>
  <path fill="#EDF6F9" d="M1056.6 341.4v3.3l-33.2-19.4v-3.2"/>
  <path fill="#97D2E8" d="M996.2 235.3l-7.6 4.4-8.1-4.7 7.6-4.4"/>
  <path fill="#43A4C9" d="M996.2 235.3v6.5l-7.6 4.4v-6.5"/>
  <path fill="#EDF6F9" d="M988.6 239.7v6.5l-8.1-4.7V235"/>
  <defs>
    <path id="g" d="M983.7 241.6l.1-2.4 1.1.7v2.3z"/>
  </defs>
  <use fill="#5095A0" xlink:href="#g" overflow="visible"/>
  <clipPath id="h">
    <use xlink:href="#g" overflow="visible"/>
  </clipPath>
  <path fill="#5095A0" d="M984.9 239.9l-1.1-.7-.1 2.4 1.2.6v-2.3" clip-path="url(#h)"/>
  <defs>
    <path id="i" d="M960.1 259.4H998v28.4h-37.9z"/>
  </defs>
  <clipPath id="j">
    <use xlink:href="#i" overflow="visible"/>
  </clipPath>
  <g clip-path="url(#j)">
    <defs>
      <path id="k" d="M983.8 264.7h10.9v14.8h-10.9z"/>
    </defs>
    <clipPath id="l">
      <use xlink:href="#k" overflow="visible"/>
    </clipPath>
    <path fill="#FFF" d="M983.8 273.2l10.8 6.3V271l-10.8-6.3" clip-path="url(#l)"/>
  </g>
  <path fill="#FFE29D" d="M988.7 273.5l3.4 1.9 2.5-1.5V271l-.8-.5m-10 .5v2.2l2.4 1.4 7.3-4.3-4.3-2.5" opacity="0.5" clip-path="url(#j)"/>
  <defs>
    <path id="m" d="M982.2 264.6l11.5 6.7 1.9-2.6-11.5-6.7z"/>
  </defs>
  <clipPath id="n">
    <use xlink:href="#m" overflow="visible"/>
  </clipPath>
  <path fill="#FFE29D" d="M995.6 268.7l-11.5-6.7-1.9 2.6 11.5 6.7" clip-path="url(#n)"/>
  <defs>
    <path id="o" d="M960.1 259.4H998v28.4h-37.9z"/>
  </defs>
  <clipPath id="p">
    <use xlink:href="#o" overflow="visible"/>
  </clipPath>
  <path fill="#CE3653" d="M982.2 265.4v-.8l11.5 6.7v.8" clip-path="url(#p)"/>
  <path fill="#F1526B" d="M983.6 265.4l1.9-2.6 1.3.8-2 2.6m1.2.6l1.9-2.6 1.3.8-1.9 2.6m1.2.7l1.9-2.6 1.3.7-1.9 2.6m1.2.7l1.9-2.6 1.3.8-1.9 2.6" clip-path="url(#p)"/>
  <path fill="#FFD580" d="M982.2 264.6l1.4.8v.9l-1.4-.9m2.6.8l1.2.6v.9l-1.2-.7m2.5.6l1.2.7v.8l-1.2-.7m2.5.6l1.2.7v.9l-1.2-.8m2.5.7l1.4.8v.8l-1.4-.8" clip-path="url(#p)"/>
  <defs>
    <path id="q" d="M983.8 273.5l10.8 6.3v-.3l-10.8-6.3z"/>
  </defs>
  <clipPath id="r">
    <use xlink:href="#q" overflow="visible"/>
  </clipPath>
  <path fill="#F27D66" d="M994.6 279.5l-10.8-6.3v.3l10.8 6.3" clip-path="url(#r)"/>
  <defs>
    <path id="s" d="M983 273.9l12.4 7.2v-.9L983 273z"/>
  </defs>
  <use fill="#FFBD6A" xlink:href="#s" overflow="visible"/>
  <clipPath id="t">
    <use xlink:href="#s" overflow="visible"/>
  </clipPath>
  <path fill="#FFBD6A" d="M995.4 280.2L983 273v.9l12.4 7.2" clip-path="url(#t)"/>
  <defs>
    <path id="u" d="M974.5 275.9v-8l3.3 1.9-.1 8z"/>
  </defs>
  <use fill="#F1526B" xlink:href="#u" overflow="visible"/>
  <clipPath id="v">
    <use xlink:href="#u" overflow="visible"/>
  </clipPath>
  <path fill="#F1526B" d="M977.8 269.8l-3.3-1.9v8l3.2 1.9.1-8" clip-path="url(#v)"/>
  <path fill="#F1526B" d="M971.4 251.4l.1 5-4.7 3.3v-5"/>
  <path fill="#F7E3DF" d="M966.8 259.7l-.2-.2v-4.9l.2.1"/>
  <path fill="#F5967F" d="M966.8 254.7l-.2-.1 4.6-3.3.2.1"/>
  <path fill="none" stroke="#BCE5EC" stroke-width="0.25" stroke-miterlimit="10" d="M971 247.4v4.2m-4.1-1.3v4.2"/>
  <defs>
    <path id="w" d="M940 242.2h57.2v53.2H940z"/>
  </defs>
  <clipPath id="x">
    <use xlink:href="#w" overflow="visible"/>
  </clipPath>
  <path fill="#F7BEB2" d="M964.9 251.6l6.3-4.5h.1l-6.4 4.5c.1 0 0 0 0 0" clip-path="url(#x)"/>
  <path fill="#F7E3DF" d="M965 251.6c.1.1.1.2.1.3 0 .1-.1.1-.1.1-.1-.1-.1-.2-.1-.3 0-.1 0-.1.1-.1" clip-path="url(#x)"/>
  <path fill="#F1526B" d="M971.4 247.5l-6.3 4.5v-.1c0-.1-.1-.2-.1-.3l6.3-4.5c.1.1.1.2.1.3v.1" clip-path="url(#x)"/>
  <path fill="#FFE29D" d="M969.4 254.3c-.3.2-.6.5-.7.6-.1.2-.1.3-.1.3l.5 1.3h.2c.1-.1.2-.3.2-.3.1-.3.6-2 .6-2 0-.1-.1-.1-.1-.1-.2-.1-.4.1-.6.2m.9-.2s-.5 1.7-.6 1.9l.4-.2c.1 0 .1-.1.1-.1s.2-.7.6-1.4c-.1.1-.1-.5-.5-.2m.5.4s-.4.7-.5 1.2h.1c.1 0 .2-.1.3-.1l.3-.3s.1-.1.1-.3c0-.1-.1-.3-.3-.5m-2.3 1s-.3.3-.4.7c0 0-.1.2 0 .3l.4.7s0 .1.1 0l.4-.3-.5-1.4m-.5 1s-.2.5-.3.8c0 0-.1.4.2.4 0 0 .1 0 .2-.1l.3-.3c0-.2-.4-.8-.4-.8" clip-path="url(#x)"/>
  <defs>
    <path id="y" d="M969.4 254.3c-.3.2-.6.5-.7.6-.1.2-.1.3-.1.3l.5 1.3h.2c.1-.1.2-.3.2-.3.1-.3.6-2 .6-2 0-.1-.1-.1-.1-.1h-.1c-.1 0-.3.1-.5.2"/>
  </defs>
  <clipPath id="z">
    <use xlink:href="#y" overflow="visible"/>
  </clipPath>
  <path fill="#FFD788" d="M967.3 257.6c.5-.8 1-1.5 1.7-1.9.7-.5 1.5-.7 2.2-.5 0-.3 0-.7-.2-1-.2-.3-.4-.5-.7-.5-.3-.1-.6 0-.8.1-.3.1-.5.3-.7.6-.3.3-.6.6-.9 1.1-.2.4-.4.9-.4 1.4 0 .3 0 .6-.1.8" clip-path="url(#z)"/>
  <defs>
    <path id="A" d="M970.3 254.1s-.5 1.7-.6 1.9l.4-.2c.1 0 .1-.1.1-.1s.2-.7.6-1.4c0 0 0-.4-.2-.4-.2.1-.2.2-.3.2"/>
  </defs>
  <clipPath id="B">
    <use xlink:href="#A" overflow="visible"/>
  </clipPath>
  <path fill="#FFD788" d="M967.3 257.6c.5-.8 1-1.5 1.7-1.9.7-.5 1.5-.7 2.2-.5 0-.3 0-.7-.2-1-.2-.3-.4-.5-.7-.5-.3-.1-.6 0-.8.1-.3.1-.5.3-.7.6-.3.3-.6.6-.9 1.1-.2.4-.4.9-.4 1.4 0 .3 0 .6-.1.8" clip-path="url(#B)"/>
  <defs>
    <path id="C" d="M970.3 255.7h.1c.1 0 .2-.1.3-.1l.3-.3s.1-.1.1-.3c0 0 0-.2-.2-.4-.1-.1-.5.6-.6 1.1"/>
  </defs>
  <clipPath id="D">
    <use xlink:href="#C" overflow="visible"/>
  </clipPath>
  <path fill="#FFD788" d="M967.3 257.6c.5-.8 1-1.5 1.7-1.9.7-.5 1.5-.7 2.2-.5 0-.3 0-.7-.2-1-.2-.3-.4-.5-.7-.5-.3-.1-.6 0-.8.1-.3.1-.5.3-.7.6-.3.3-.6.6-.9 1.1-.2.4-.4.9-.4 1.4 0 .3 0 .6-.1.8" clip-path="url(#D)"/>
  <defs>
    <path id="E" d="M968.1 256.1s-.1.2 0 .3l.4.7s0 .1.1 0l.4-.3-.5-1.2c0-.1-.3.2-.4.5"/>
  </defs>
  <clipPath id="F">
    <use xlink:href="#E" overflow="visible"/>
  </clipPath>
  <path fill="#FFD788" d="M967.3 257.6c.5-.8 1-1.5 1.7-1.9.7-.5 1.5-.7 2.2-.5 0-.3 0-.7-.2-1-.2-.3-.4-.5-.7-.5-.3-.1-.6 0-.8.1-.3.1-.5.3-.7.6-.3.3-.6.6-.9 1.1-.2.4-.4.9-.4 1.4 0 .3 0 .6-.1.8" clip-path="url(#F)"/>
  <defs>
    <path id="G" d="M967.7 257.3s-.1.4.2.4c0 0 .1 0 .2-.1l.3-.3-.4-.7s-.2.4-.3.7"/>
  </defs>
  <clipPath id="H">
    <use xlink:href="#G" overflow="visible"/>
  </clipPath>
  <path fill="#FFD788" d="M967.3 257.6c.5-.8 1-1.5 1.7-1.9.7-.5 1.5-.7 2.2-.5 0-.3 0-.7-.2-1-.2-.3-.4-.5-.7-.5-.3-.1-.6 0-.8.1-.3.1-.5.3-.7.6-.3.3-.6.6-.9 1.1-.2.4-.4.9-.4 1.4 0 .3 0 .6-.1.8" clip-path="url(#H)"/>
  <defs>
    <path id="I" d="M954.4 243.4h80.4v60.3h-80.4z"/>
  </defs>
  <clipPath id="J">
    <use xlink:href="#I" overflow="visible"/>
  </clipPath>
  <g clip-path="url(#J)">
    <defs>
      <path id="K" d="M954.4 243.4h80.4v60.3h-80.4z"/>
    </defs>
    <clipPath id="L">
      <use xlink:href="#K" overflow="visible"/>
    </clipPath>
    <path fill="none" stroke="#5FA7AA" stroke-width="0.25" stroke-miterlimit="10" d="M978.7 283v2.9m2.3-1.6v3.1m2.4-4.3v3.2" clip-path="url(#L)"/>
  </g>
  <g clip-path="url(#J)">
    <defs>
      <path id="M" d="M980.9 284.6l2.5 1.4v-2.8l-2.5-1.4z"/>
    </defs>
    <clipPath id="N">
      <use xlink:href="#M" overflow="visible"/>
    </clipPath>
    <path fill="#5FA7AA" d="M980.8 283.9h2.8v.1h-2.8z" transform="rotate(-29.677 982.246 283.956)" clip-path="url(#N)"/>
  </g>
  <g clip-path="url(#J)">
    <defs>
      <path id="O" d="M954.4 243.4h80.4v60.3h-80.4z"/>
    </defs>
    <clipPath id="P">
      <use xlink:href="#O" overflow="visible"/>
    </clipPath>
    <path fill="none" stroke="#5FA7AA" stroke-width="0.25" stroke-miterlimit="10" d="M978.9 280v3.2m1.8-4.2v3.2" clip-path="url(#P)"/>
    <path fill="#83C5CC" d="M981.1 278.1v.9l-2.5 1.5v-.9" clip-path="url(#P)"/>
    <path fill="#EBF6F7" d="M978.6 280.5l-.2-.1v-.9l.2.1" clip-path="url(#P)"/>
    <path fill="#BCE5EC" d="M978.6 279.6l-.2-.1 2.5-1.5.2.1" clip-path="url(#P)"/>
    <path fill="#83C5CC" d="M981.1 279.3v.9l-2.5 1.5v-.9" clip-path="url(#P)"/>
    <path fill="#EBF6F7" d="M978.6 281.7l-.2-.1v-.9l.2.1" clip-path="url(#P)"/>
    <path fill="#BCE5EC" d="M978.6 280.8l-.2-.1 2.5-1.5.2.1m2.5 3.8l-2.5 1.5-2.6-1.5 2.5-1.4" clip-path="url(#P)"/>
    <path fill="#83C5CC" d="M983.6 283.1v.2l-2.5 1.5v-.2" clip-path="url(#P)"/>
    <path fill="#EBF6F7" d="M981.1 284.6v.2l-2.6-1.5v-.2" clip-path="url(#P)"/>
  </g>
  <g clip-path="url(#J)">
    <defs>
      <path id="Q" d="M980.1 287.9l4 2.3.1-4.7-4.1-2.3z"/>
    </defs>
    <clipPath id="R">
      <use xlink:href="#Q" overflow="visible"/>
    </clipPath>
    <path fill="#FFD580" d="M982.1 282.7h.1v8h-.1z" transform="rotate(-29.896 982.12 286.698)" clip-path="url(#R)"/>
  </g>
  <g clip-path="url(#J)">
    <defs>
      <path id="S" d="M980.1 287.8l4 2.4.1-4.7-4.1-2.3z"/>
    </defs>
    <clipPath id="T">
      <use xlink:href="#S" overflow="visible"/>
    </clipPath>
    <path fill="#FFD580" d="M979.8 286.6h4.6v.2h-4.6z" transform="rotate(-29.677 982.202 286.687)" clip-path="url(#T)"/>
  </g>
  <g clip-path="url(#J)">
    <defs>
      <path id="U" d="M985 285.3l4.1 2.4V283l-4.1-2.4z"/>
    </defs>
    <clipPath id="V">
      <use xlink:href="#U" overflow="visible"/>
    </clipPath>
    <path fill="#FFD580" d="M987 280.1h.1v8h-.1z" transform="rotate(-29.618 987.07 284.16)" clip-path="url(#V)"/>
  </g>
  <g clip-path="url(#J)">
    <defs>
      <path id="W" d="M985 285.3l4.1 2.4V283l-4.1-2.4z"/>
    </defs>
    <clipPath id="X">
      <use xlink:href="#W" overflow="visible"/>
    </clipPath>
    <path fill="#FFD580" d="M984.7 284.1h4.6v.2h-4.6z" transform="rotate(-29.68 987.045 284.102)" clip-path="url(#X)"/>
  </g>
  <g clip-path="url(#J)">
    <defs>
      <path id="Y" d="M954.4 243.4h80.4v60.3h-80.4z"/>
    </defs>
    <clipPath id="Z">
      <use xlink:href="#Y" overflow="visible"/>
    </clipPath>
    <path fill="#FFDD8E" d="M989.4 282.9l-5 2.9-5-2.9 5-2.9" clip-path="url(#Z)"/>
    <path fill="#FFBD6A" d="M989.4 282.9v.4l-5 2.9v-.4" clip-path="url(#Z)"/>
    <path fill="#FFF5D4" d="M984.4 285.8v.4l-5-2.9v-.4" clip-path="url(#Z)"/>
    <path fill="none" stroke="#5FA7AA" stroke-width="0.25" stroke-miterlimit="10" d="M984.6 286.6v2.9m2.3-1.6v3.1m2.4-4.3v3.2" clip-path="url(#Z)"/>
  </g>
  <g clip-path="url(#J)">
    <defs>
      <path id="aa" d="M986.8 288.2l2.5 1.4v-2.8l-2.5-1.4z"/>
    </defs>
    <clipPath id="ab">
      <use xlink:href="#aa" overflow="visible"/>
    </clipPath>
    <path fill="#5FA7AA" d="M986.7 287.5h2.8v.1h-2.8z" transform="rotate(-29.68 988.05 287.498)" clip-path="url(#ab)"/>
  </g>
  <g clip-path="url(#J)">
    <defs>
      <path id="ac" d="M954.4 243.4h80.4v60.3h-80.4z"/>
    </defs>
    <clipPath id="ad">
      <use xlink:href="#ac" overflow="visible"/>
    </clipPath>
    <path fill="#BCE5EC" d="M989.5 286.7l-2.5 1.5-2.6-1.5 2.5-1.5" clip-path="url(#ad)"/>
    <path fill="#83C5CC" d="M989.5 286.7v.2l-2.5 1.5v-.2" clip-path="url(#ad)"/>
    <path fill="#EBF6F7" d="M987 288.2v.2l-2.6-1.5v-.2" clip-path="url(#ad)"/>
    <path fill="#83C5CC" d="M989.4 283v.9l-2.5 1.4v-.8" clip-path="url(#ad)"/>
    <path fill="#EBF6F7" d="M986.9 285.3l-.1-.1v-.8l.1.1" clip-path="url(#ad)"/>
    <path fill="#BCE5EC" d="M986.9 284.5l-.1-.1 2.5-1.5.1.1" clip-path="url(#ad)"/>
    <path fill="#83C5CC" d="M989.4 284.2v.9l-2.5 1.4v-.8" clip-path="url(#ad)"/>
    <path fill="#EBF6F7" d="M986.9 286.5l-.1-.1v-.8l.1.1" clip-path="url(#ad)"/>
    <path fill="#BCE5EC" d="M986.9 285.7l-.1-.1 2.5-1.5.1.1" clip-path="url(#ad)"/>
    <path fill="none" stroke="#5FA7AA" stroke-width="0.25" stroke-miterlimit="10" d="M987.2 284.9v3.2m1.8-4.2v3.2" clip-path="url(#ad)"/>
  </g>
  <defs>
    <path id="ae" d="M950.7 257.1h80.4v60.3h-80.4z"/>
  </defs>
  <clipPath id="af">
    <use xlink:href="#ae" overflow="visible"/>
  </clipPath>
  <g clip-path="url(#af)">
    <defs>
      <path id="ag" d="M950.7 257.1h80.4v60.3h-80.4z"/>
    </defs>
    <clipPath id="ah">
      <use xlink:href="#ag" overflow="visible"/>
    </clipPath>
    <path fill="none" stroke="#5FA7AA" stroke-width="0.25" stroke-miterlimit="10" d="M975 296.7v2.9m2.3-1.6v3.1m2.3-4.3v3.2" clip-path="url(#ah)"/>
  </g>
  <g clip-path="url(#af)">
    <defs>
      <path id="ai" d="M977.2 298.3l2.4 1.4v-2.8l-2.4-1.4z"/>
    </defs>
    <clipPath id="aj">
      <use xlink:href="#ai" overflow="visible"/>
    </clipPath>
    <path fill="#5FA7AA" d="M977 297.6h2.8v.1H977z" transform="rotate(-29.68 978.345 297.588)" clip-path="url(#aj)"/>
  </g>
  <g clip-path="url(#af)">
    <defs>
      <path id="ak" d="M950.7 257.1h80.4v60.3h-80.4z"/>
    </defs>
    <clipPath id="al">
      <use xlink:href="#ak" overflow="visible"/>
    </clipPath>
    <path fill="none" stroke="#5FA7AA" stroke-width="0.25" stroke-miterlimit="10" d="M975.1 293.7v3.1m1.8-4.1v3.2" clip-path="url(#al)"/>
    <path fill="#83C5CC" d="M977.3 291.8v.9l-2.5 1.4v-.8" clip-path="url(#al)"/>
    <path fill="#EBF6F7" d="M974.8 294.1l-.2-.1v-.8l.2.1" clip-path="url(#al)"/>
    <path fill="#BCE5EC" d="M974.8 293.3l-.2-.1 2.5-1.5.2.1" clip-path="url(#al)"/>
    <path fill="#83C5CC" d="M977.3 293v.9l-2.5 1.4v-.8" clip-path="url(#al)"/>
    <path fill="#EBF6F7" d="M974.8 295.3l-.2-.1v-.8l.2.1" clip-path="url(#al)"/>
    <path fill="#BCE5EC" d="M974.8 294.5l-.2-.1 2.5-1.5.2.1m2.5 3.8l-2.5 1.5-2.5-1.5 2.5-1.5" clip-path="url(#al)"/>
    <path fill="#83C5CC" d="M979.8 296.8v.2l-2.5 1.5v-.2" clip-path="url(#al)"/>
    <path fill="#EBF6F7" d="M977.3 298.3v.2l-2.5-1.5v-.2" clip-path="url(#al)"/>
  </g>
  <g clip-path="url(#af)">
    <defs>
      <path id="am" d="M976.3 301.5l4.1 2.4v-4.7l-4.1-2.4z"/>
    </defs>
    <clipPath id="an">
      <use xlink:href="#am" overflow="visible"/>
    </clipPath>
    <path fill="#FFD580" d="M978.3 296.4h.1v8h-.1z" transform="rotate(-29.862 978.416 300.377)" clip-path="url(#an)"/>
  </g>
  <g clip-path="url(#af)">
    <defs>
      <path id="ao" d="M976.3 301.5l4.1 2.4v-4.7l-4.1-2.4z"/>
    </defs>
    <clipPath id="ap">
      <use xlink:href="#ao" overflow="visible"/>
    </clipPath>
    <path fill="#FFD580" d="M976.1 300.3h4.6v.2h-4.6z" transform="rotate(-29.677 978.45 300.37)" clip-path="url(#ap)"/>
  </g>
  <g clip-path="url(#af)">
    <defs>
      <path id="aq" d="M981.2 299l4.1 2.4v-4.7l-4.1-2.4z"/>
    </defs>
    <clipPath id="ar">
      <use xlink:href="#aq" overflow="visible"/>
    </clipPath>
    <path fill="#FFD580" d="M983.2 293.8h.1v8h-.1z" transform="rotate(-29.618 983.32 297.84)" clip-path="url(#ar)"/>
  </g>
  <g clip-path="url(#af)">
    <defs>
      <path id="as" d="M981.2 299l4.1 2.3v-4.6l-4-2.4z"/>
    </defs>
    <clipPath id="at">
      <use xlink:href="#as" overflow="visible"/>
    </clipPath>
    <path fill="#FFD580" d="M981 297.7h4.6v.2H981z" transform="rotate(-29.68 983.293 297.783)" clip-path="url(#at)"/>
  </g>
  <g clip-path="url(#af)">
    <defs>
      <path id="au" d="M950.7 257.1h80.4v60.3h-80.4z"/>
    </defs>
    <clipPath id="av">
      <use xlink:href="#au" overflow="visible"/>
    </clipPath>
    <path fill="#FFDD8E" d="M985.7 296.6l-5 2.9-5.1-2.9 5-2.9" clip-path="url(#av)"/>
    <path fill="#FFBD6A" d="M985.7 296.6v.4l-5 2.9v-.4" clip-path="url(#av)"/>
    <path fill="#FFF5D4" d="M980.7 299.5v.4l-5.1-2.9v-.4" clip-path="url(#av)"/>
    <path fill="none" stroke="#5FA7AA" stroke-width="0.25" stroke-miterlimit="10" d="M980.9 300.3v2.8m2.3-1.5v3.1m2.3-4.3v3.1" clip-path="url(#av)"/>
  </g>
  <g clip-path="url(#af)">
    <defs>
      <path id="aw" d="M983.1 301.9l2.4 1.4v-2.8l-2.4-1.4z"/>
    </defs>
    <clipPath id="ax">
      <use xlink:href="#aw" overflow="visible"/>
    </clipPath>
    <path fill="#5FA7AA" d="M982.9 301.2h2.8v.1h-2.8z" transform="rotate(-29.677 984.403 301.227)" clip-path="url(#ax)"/>
  </g>
  <g clip-path="url(#af)">
    <defs>
      <path id="ay" d="M950.7 257.1h80.4v60.3h-80.4z"/>
    </defs>
    <clipPath id="az">
      <use xlink:href="#ay" overflow="visible"/>
    </clipPath>
    <path fill="#BCE5EC" d="M985.7 300.4l-2.5 1.5-2.5-1.5 2.5-1.5" clip-path="url(#az)"/>
    <path fill="#83C5CC" d="M985.7 300.4v.2l-2.5 1.4v-.1" clip-path="url(#az)"/>
    <path fill="#EBF6F7" d="M983.2 301.9v.1l-2.5-1.4v-.2" clip-path="url(#az)"/>
    <path fill="#83C5CC" d="M985.7 296.7v.9l-2.5 1.4v-.9" clip-path="url(#az)"/>
    <path fill="#EBF6F7" d="M983.2 299l-.2-.1v-.9l.2.1" clip-path="url(#az)"/>
    <path fill="#BCE5EC" d="M983.2 298.1l-.2-.1 2.5-1.4.2.1" clip-path="url(#az)"/>
    <path fill="#83C5CC" d="M985.7 297.9v.9l-2.5 1.4v-.9" clip-path="url(#az)"/>
    <path fill="#EBF6F7" d="M983.2 300.2l-.2-.1v-.9l.2.1" clip-path="url(#az)"/>
    <path fill="#BCE5EC" d="M983.2 299.3l-.2-.1 2.5-1.4.2.1" clip-path="url(#az)"/>
    <path fill="none" stroke="#5FA7AA" stroke-width="0.25" stroke-miterlimit="10" d="M983.5 298.6v3.2m1.8-4.2v3.1" clip-path="url(#az)"/>
  </g>
  <defs>
    <path id="aA" d="M933.6 245.3h80.4v60.3h-80.4z"/>
  </defs>
  <clipPath id="aB">
    <use xlink:href="#aA" overflow="visible"/>
  </clipPath>
  <g clip-path="url(#aB)">
    <defs>
      <path id="aC" d="M933.6 245.3h80.4v60.3h-80.4z"/>
    </defs>
    <clipPath id="aD">
      <use xlink:href="#aC" overflow="visible"/>
    </clipPath>
    <path fill="none" stroke="#5FA7AA" stroke-width="0.25" stroke-miterlimit="10" d="M957.9 284.9v2.8m2.3-1.5v3.1m2.4-4.3v3.1" clip-path="url(#aD)"/>
  </g>
  <g clip-path="url(#aB)">
    <defs>
      <path id="aE" d="M960.1 286.5l2.5 1.4v-2.8l-2.5-1.4z"/>
    </defs>
    <clipPath id="aF">
      <use xlink:href="#aE" overflow="visible"/>
    </clipPath>
    <path fill="#5FA7AA" d="M960 285.8h2.8v.1H960z" transform="rotate(-29.677 961.436 285.814)" clip-path="url(#aF)"/>
  </g>
  <g clip-path="url(#aB)">
    <defs>
      <path id="aG" d="M933.6 245.3h80.4v60.3h-80.4z"/>
    </defs>
    <clipPath id="aH">
      <use xlink:href="#aG" overflow="visible"/>
    </clipPath>
    <path fill="none" stroke="#5FA7AA" stroke-width="0.25" stroke-miterlimit="10" d="M958 281.9v3.1m1.8-4.1v3.1" clip-path="url(#aH)"/>
    <path fill="#83C5CC" d="M960.2 280v.9l-2.5 1.4v-.9" clip-path="url(#aH)"/>
    <path fill="#EBF6F7" d="M957.7 282.3l-.1-.1v-.9l.1.1" clip-path="url(#aH)"/>
    <path fill="#BCE5EC" d="M957.7 281.4l-.1-.1 2.5-1.4.1.1" clip-path="url(#aH)"/>
    <path fill="#83C5CC" d="M960.2 281.2v.9l-2.5 1.4v-.9" clip-path="url(#aH)"/>
    <path fill="#EBF6F7" d="M957.7 283.5l-.1-.1v-.9l.1.1" clip-path="url(#aH)"/>
    <path fill="#BCE5EC" d="M957.7 282.6l-.1-.1 2.5-1.4.1.1m2.6 3.8l-2.6 1.4-2.5-1.4 2.5-1.5" clip-path="url(#aH)"/>
    <path fill="#83C5CC" d="M962.8 285v.2l-2.6 1.4v-.2" clip-path="url(#aH)"/>
    <path fill="#EBF6F7" d="M960.2 286.4v.2l-2.5-1.4v-.2" clip-path="url(#aH)"/>
  </g>
  <g clip-path="url(#aB)">
    <defs>
      <path id="aI" d="M959.2 289.7l4.1 2.4v-4.7l-4-2.4z"/>
    </defs>
    <clipPath id="aJ">
      <use xlink:href="#aI" overflow="visible"/>
    </clipPath>
    <path fill="#FFD580" d="M961.2 284.5h.1v8h-.1z" transform="rotate(-29.957 961.226 288.494)" clip-path="url(#aJ)"/>
  </g>
  <g clip-path="url(#aB)">
    <defs>
      <path id="aK" d="M959.3 289.7l4 2.4v-4.7l-4-2.4z"/>
    </defs>
    <clipPath id="aL">
      <use xlink:href="#aK" overflow="visible"/>
    </clipPath>
    <path fill="#FFD580" d="M959 288.5h4.6v.2H959z" transform="rotate(-29.677 961.368 288.544)" clip-path="url(#aL)"/>
  </g>
  <g clip-path="url(#aB)">
    <defs>
      <path id="aM" d="M964.2 287.2l4.1 2.3v-4.7l-4.1-2.3z"/>
    </defs>
    <clipPath id="aN">
      <use xlink:href="#aM" overflow="visible"/>
    </clipPath>
    <path fill="#FFD580" d="M966.2 282h.1v8h-.1z" transform="rotate(-29.675 966.135 285.99)" clip-path="url(#aN)"/>
  </g>
  <g clip-path="url(#aB)">
    <defs>
      <path id="aO" d="M964.2 287.2l4.1 2.3v-4.7l-4.1-2.3z"/>
    </defs>
    <clipPath id="aP">
      <use xlink:href="#aO" overflow="visible"/>
    </clipPath>
    <path fill="#FFD580" d="M963.9 285.9h4.6v.2h-4.6z" transform="rotate(-29.68 966.228 285.96)" clip-path="url(#aP)"/>
  </g>
  <g clip-path="url(#aB)">
    <defs>
      <path id="aQ" d="M933.6 245.3h80.4v60.3h-80.4z"/>
    </defs>
    <clipPath id="aR">
      <use xlink:href="#aQ" overflow="visible"/>
    </clipPath>
    <path fill="#FFDD8E" d="M968.6 284.8l-5 2.9-5-2.9 5-2.9" clip-path="url(#aR)"/>
    <path fill="#FFBD6A" d="M968.6 284.8v.4l-5 2.9v-.4" clip-path="url(#aR)"/>
    <path fill="#FFF5D4" d="M963.6 287.7v.4l-5-2.9v-.4" clip-path="url(#aR)"/>
    <path fill="none" stroke="#5FA7AA" stroke-width="0.25" stroke-miterlimit="10" d="M963.8 288.5v2.8m2.3-1.6v3.2m2.4-4.4v3.2" clip-path="url(#aR)"/>
  </g>
  <g clip-path="url(#aB)">
    <defs>
      <path id="aS" d="M966 290.1l2.5 1.4v-2.8l-2.5-1.4z"/>
    </defs>
    <clipPath id="aT">
      <use xlink:href="#aS" overflow="visible"/>
    </clipPath>
    <path fill="#5FA7AA" d="M965.9 289.3h2.8v.1h-2.8z" transform="rotate(-29.68 967.172 289.354)" clip-path="url(#aT)"/>
  </g>
  <g clip-path="url(#aB)">
    <defs>
      <path id="aU" d="M933.6 245.3h80.4v60.3h-80.4z"/>
    </defs>
    <clipPath id="aV">
      <use xlink:href="#aU" overflow="visible"/>
    </clipPath>
    <path fill="#BCE5EC" d="M968.7 288.6l-2.6 1.4-2.5-1.4 2.5-1.5" clip-path="url(#aV)"/>
    <path fill="#83C5CC" d="M968.7 288.6v.2l-2.6 1.4v-.2" clip-path="url(#aV)"/>
    <path fill="#EBF6F7" d="M966.1 290v.2l-2.5-1.4v-.2" clip-path="url(#aV)"/>
    <path fill="#83C5CC" d="M968.6 284.9v.8l-2.5 1.5v-.9" clip-path="url(#aV)"/>
    <path fill="#EBF6F7" d="M966.1 287.2l-.1-.1v-.9l.1.1" clip-path="url(#aV)"/>
    <path fill="#BCE5EC" d="M966.1 286.3l-.1-.1 2.5-1.4.1.1" clip-path="url(#aV)"/>
    <path fill="#83C5CC" d="M968.6 286.1v.8l-2.5 1.5v-.9" clip-path="url(#aV)"/>
    <path fill="#EBF6F7" d="M966.1 288.4l-.1-.1v-.9l.1.1" clip-path="url(#aV)"/>
    <path fill="#BCE5EC" d="M966.1 287.5l-.1-.1 2.5-1.4.1.1" clip-path="url(#aV)"/>
    <path fill="none" stroke="#5FA7AA" stroke-width="0.25" stroke-miterlimit="10" d="M966.4 286.7v3.3m1.8-4.3v3.2" clip-path="url(#aV)"/>
  </g>
  <defs>
    <path id="aW" d="M1035.4 394.8l169.5-98.6 226.5 131.7-168.5 98.2z"/>
  </defs>
  <clipPath id="aX">
    <use xlink:href="#aW" overflow="visible"/>
  </clipPath>
  <path fill="#CEDA91" d="M1431.4 427.9l-227.1-131.3-134.4 78.1.2 40.1 192.8 111.4 168.5-98.3" clip-path="url(#aX)"/>
  <g fill="#F1526B">
    <path d="M1145.9 387.5c.7.4.7 1.1 0 1.5-.7.4-1.8.4-2.5 0s-.7-1.1 0-1.5c.6-.4 1.8-.4 2.5 0z"/>
    <path d="M1146.4 388.3l-.1 40.8c0 .3-.2.5-.5.7-.7.4-1.8.4-2.5 0-.4-.2-.5-.5-.5-.7l.1-40.8c0 .3.2.5.5.7.7.4 1.8.4 2.5 0 .3-.2.5-.5.5-.7z"/>
  </g>
  <g fill="#F1526B">
    <path d="M1171.1 397.9l-.1 40.8c0 .3-.2.5-.5.7-.7.4-1.8.4-2.5 0-.4-.2-.5-.5-.5-.7l.1-40.8c0 .3.2.5.5.7.7.4 1.8.4 2.5 0 .3-.2.5-.5.5-.7z"/>
    <path d="M1170.6 397.1c.7.4.7 1.1 0 1.5-.7.4-1.8.4-2.5 0s-.7-1.1 0-1.5c.6-.4 1.8-.4 2.5 0z"/>
  </g>
  <g fill="#F1526B">
    <path d="M1201 409.4l-.1 40.8c0 .3-.2.5-.5.7-.7.4-1.8.4-2.5 0-.3-.2-.5-.5-.5-.7l.1-40.8c0 .3.2.5.5.7.7.4 1.8.4 2.5 0 .3-.2.5-.4.5-.7z"/>
    <path d="M1200.4 408.7c.7.4.7 1.1 0 1.5-.7.4-1.8.4-2.5 0s-.7-1.1 0-1.5c.7-.4 1.8-.4 2.5 0z"/>
  </g>
  <g fill="#F1526B">
    <path d="M1212.5 423.4l-.1 40.8c0 .3-.2.5-.5.7-.7.4-1.8.4-2.5 0-.3-.2-.5-.5-.5-.7l.1-40.8c0 .3.2.5.5.7.7.4 1.8.4 2.5 0 .3-.2.5-.4.5-.7z"/>
    <path d="M1211.9 422.7c.7.4.7 1.1 0 1.5-.7.4-1.8.4-2.5 0s-.7-1.1 0-1.5c.7-.4 1.9-.4 2.5 0z"/>
  </g>
  <g fill="#F1526B">
    <path d="M1257 442.6c.7.4.7 1.1 0 1.5-.7.4-1.8.4-2.5 0s-.7-1.1 0-1.5c.7-.5 1.8-.5 2.5 0z"/>
    <path d="M1257.6 443.3l-.1 40.8c0 .3-.2.5-.5.7-.7.4-1.8.4-2.5 0-.4-.2-.5-.5-.5-.7l.1-40.8c0 .3.2.5.5.7.7.4 1.8.4 2.5 0 .3-.2.5-.4.5-.7z"/>
  </g>
  <g fill="#F1526B">
    <path d="M1313.8 429.8l-.1 40.8c0 .3-.2.5-.5.7-.7.4-1.8.4-2.5 0-.4-.2-.5-.5-.5-.7l.1-40.8c0 .3.2.5.5.7.7.4 1.8.4 2.5 0 .3-.2.5-.5.5-.7z"/>
    <path d="M1313.3 429c.7.4.7 1.1 0 1.5-.7.4-1.8.4-2.5 0s-.7-1.1 0-1.5c.7-.4 1.8-.4 2.5 0z"/>
  </g>
  <g fill="#F1526B">
    <path d="M1273.3 448c.7.4.7 1.1 0 1.5-.7.4-1.8.4-2.5 0s-.7-1.1 0-1.5c.7-.4 1.8-.4 2.5 0z"/>
    <path d="M1273.8 448.8l-.1 40.8c0 .3-.2.5-.5.7-.7.4-1.8.4-2.5 0-.4-.2-.5-.5-.5-.7l.1-40.8c0 .3.2.5.5.7.7.4 1.8.4 2.5 0 .3-.2.5-.5.5-.7z"/>
  </g>
  <g fill="#F1526B">
    <path d="M1351.3 391c.7.4.7 1.1 0 1.5-.7.4-1.8.4-2.5 0s-.7-1.1 0-1.5c.7-.4 1.8-.4 2.5 0z"/>
    <path d="M1351.8 391.8l-.1 40.8c0 .3-.2.5-.5.7-.7.4-1.8.4-2.5 0-.4-.2-.5-.5-.5-.7l.1-40.8c0 .3.2.5.5.7.7.4 1.8.4 2.5 0 .3-.2.5-.5.5-.7z"/>
  </g>
  <g fill="#F1526B">
    <path d="M1393.8 380.8l-.1 40.8c0 .3-.2.5-.5.7-.7.4-1.8.4-2.5 0-.4-.2-.5-.5-.5-.7l.1-40.8c0 .3.2.5.5.7.7.4 1.8.4 2.5 0 .3-.2.5-.5.5-.7z"/>
    <path d="M1393.3 380c.7.4.7 1.1 0 1.5-.7.4-1.8.4-2.5 0s-.7-1.1 0-1.5c.7-.4 1.8-.4 2.5 0z"/>
  </g>
  <g fill="#F1526B">
    <path d="M1378.3 374c.7.4.7 1.1 0 1.5-.7.4-1.8.4-2.5 0s-.7-1.1 0-1.5c.7-.4 1.8-.4 2.5 0z"/>
    <path d="M1378.8 374.8l-.1 40.8c0 .3-.2.5-.5.7-.7.4-1.8.4-2.5 0-.4-.2-.5-.5-.5-.7l.1-40.8c0 .3.2.5.5.7.7.4 1.8.4 2.5 0 .3-.2.5-.5.5-.7z"/>
  </g>
  <g fill="#F1526B">
    <path d="M1373.8 384.8l-.1 40.8c0 .3-.2.5-.5.7-.7.4-1.8.4-2.5 0-.3-.2-.5-.5-.5-.7l.1-40.8c0 .3.2.5.5.7.7.4 1.8.4 2.5 0 .3-.2.5-.5.5-.7z"/>
    <path d="M1373.3 384c.7.4.7 1.1 0 1.5-.7.4-1.8.4-2.5 0s-.7-1.1 0-1.5c.7-.4 1.8-.4 2.5 0z"/>
  </g>
  <g fill="#F1526B">
    <path d="M1297.7 450.6l-.1 40.8c0 .3-.2.5-.5.7-.7.4-1.8.4-2.5 0-.4-.2-.5-.5-.5-.7l.1-40.8c0 .3.2.5.5.7.7.4 1.8.4 2.5 0 .3-.2.5-.4.5-.7z"/>
    <path d="M1297.1 449.9c.7.4.7 1.1 0 1.5-.7.4-1.8.4-2.5 0s-.7-1.1 0-1.5c.7-.4 1.8-.4 2.5 0z"/>
  </g>
  <g fill="#F1526B">
    <path d="M1137.4 378l-.1 40.8c0 .3-.2.5-.5.7-.7.4-1.8.4-2.5 0-.4-.2-.5-.5-.5-.7l.1-40.8c0 .3.2.5.5.7.7.4 1.8.4 2.5 0 .4-.2.5-.5.5-.7z"/>
    <path d="M1136.9 377.2c.7.4.7 1.1 0 1.5-.7.4-1.8.4-2.5 0s-.7-1.1 0-1.5c.7-.4 1.8-.4 2.5 0z"/>
  </g>
  <g fill="#F1526B">
    <path d="M1185.3 410c.7.4.7 1.1 0 1.5-.7.4-1.8.4-2.5 0s-.7-1.1 0-1.5c.7-.4 1.8-.4 2.5 0z"/>
    <path d="M1185.8 410.8l-.1 40.8c0 .3-.2.5-.5.7-.7.4-1.8.4-2.5 0-.3-.2-.5-.5-.5-.7l.1-40.8c0 .3.2.5.5.7.7.4 1.8.4 2.5 0 .3-.2.5-.5.5-.7z"/>
  </g>
  <g fill="#F1526B">
    <path d="M1225.3 439c.7.4.7 1.1 0 1.5-.7.4-1.8.4-2.5 0s-.7-1.1 0-1.5c.7-.4 1.8-.4 2.5 0z"/>
    <path d="M1225.8 439.8l-.1 40.8c0 .3-.2.5-.5.7-.7.4-1.8.4-2.5 0-.4-.2-.5-.5-.5-.7l.1-40.8c0 .3.2.5.5.7.7.4 1.8.4 2.5 0 .3-.2.5-.5.5-.7z"/>
  </g>
  <g fill="#F1526B">
    <path d="M1330.8 412.8l-.1 40.8c0 .3-.2.5-.5.7-.7.4-1.8.4-2.5 0-.4-.2-.5-.5-.5-.7l.1-40.8c0 .3.2.5.5.7.7.4 1.8.4 2.5 0 .3-.2.5-.5.5-.7z"/>
    <path d="M1330.3 412c.7.4.7 1.1 0 1.5-.7.4-1.8.4-2.5 0s-.7-1.1 0-1.5c.7-.4 1.8-.4 2.5 0z"/>
  </g>
  <defs>
    <path id="aY" d="M1096.2 339.6l28.2-16.4c1-.6 2.5-.5 4.1.4l-28.2 16.4c-1.6-.9-3-1-4.1-.4z"/>
  </defs>
  <clipPath id="aZ">
    <use xlink:href="#aY" overflow="visible"/>
  </clipPath>
  <g clip-path="url(#aZ)">
    <path fill="#CDE8EF" d="M1096.2 339.6l28.2-16.4c.6-.3 1.3-.5 2.1-.3l-28.2 16.4c-.8-.2-1.5-.1-2.1.3"/>
    <path fill="#C5E4ED" d="M1098.4 339.2l28.2-16.4c.6.1 1.2.3 1.9.7l-28.2 16.4c-.7-.3-1.4-.6-1.9-.7"/>
    <path fill="#BDE0EA" d="M1100.3 340l28.2-16.4-28.2 16.4"/>
  </g>
  <path fill="#ACD8E5" d="M1124.3 360.4l28.2-16.3-.1 22.2-28.1 16.4"/>
  <path fill="#C0E2EB" d="M1100.3 340l28.2-16.4 18.3 10.6-28.2 16.3"/>
  <path fill="#E2F1F6" d="M1118.6 350.5c3.2 1.8 5.7 6.3 5.7 9.9l-.1 22.3-29.8-17.2.1-22.3c0-3.6 2.6-5.1 5.8-3.3l18.3 10.6z"/>
  <defs>
    <path id="ba" d="M1118.6 350.5l28.2-16.4c3.2 1.8 5.7 6.3 5.7 9.9l-28.2 16.4c0-3.6-2.5-8-5.7-9.9z"/>
  </defs>
  <clipPath id="bb">
    <use xlink:href="#ba" overflow="visible"/>
  </clipPath>
  <g clip-path="url(#bb)">
    <path fill="#BDE0EA" d="M1118.6 350.5l28.2-16.4c.6.3 1.1.7 1.6 1.2l-28.2 16.4c-.5-.4-1-.8-1.6-1.2"/>
    <path fill="#B4DCE8" d="M1120.2 351.8l28.2-16.4c2.4 2.2 4.1 5.7 4.1 8.7l-28.2 16.4c0-3-1.7-6.6-4.1-8.7"/>
  </g>
  <path fill="#0066AE" d="M1123.7 347.1l-19-11c-2.7-1.6-5.1-.7-5.7 1.8l.6-.3c.8-1.9 2.8-2.4 5.2-1l19 11c3.1 1.8 5.5 6.1 5.5 9.6l-.1 23.9.4.2.1-23.9c-.1-3.8-2.7-8.4-6-10.3z"/>
  <path fill="#0066AE" d="M1130.6 343.1l-19-11c-2.7-1.6-5-.8-5.7 1.8l.6-.3c.8-1.9 2.8-2.4 5.2-1l19 11c3.1 1.8 5.5 6.1 5.5 9.6l-.1 23.9.4.2.1-23.9c-.1-3.8-2.7-8.4-6-10.3z"/>
  <path fill="#0066AE" d="M1137.6 339.1l-19-11c-2.7-1.6-5-.8-5.7 1.8l.6-.3c.8-1.9 2.8-2.4 5.2-1l19 11c3.1 1.8 5.5 6.1 5.5 9.6l-.2 23.8.4.2.1-23.9c0-3.7-2.7-8.3-5.9-10.2z"/>
  <path fill="#0066AE" d="M1144.5 335.1l-19-11c-2.7-1.6-5-.8-5.7 1.7l.6-.3c.8-1.9 2.8-2.3 5.2-1l19 11c3.1 1.8 5.5 6.1 5.5 9.6l-.1 23.9.4.2.1-23.9c-.1-3.7-2.8-8.3-6-10.2z"/>
  <path fill="#9BC183" d="M1184.7 432.8c-21.3-15.9-71.9-22.2-74.7-47.4-4.3-38.6 11.5-47.4 34.9-66.5 18.7-15.3 52.3-9.4 76.7-18.8 24.4-9.4 39.9-30.4 73.4-19.6 33.5 10.9 33.2 27.4 51 37.8 17.8 10.4 45.4-3.5 62.2 10.9 11.1 9.6 41.1 44.2 18.8 65-23.7 22.2-61.5 7.9-80.3 28.8-15.5 17.2-34.3 54.8-73.2 54.1-42-.8-61.5-24-88.8-44.3z"/>
  <path fill="#679358" d="M1241 425.9c1.9.5 3.6 1.7 5.4 2.6 3.9 2 8.7 2.7 12.9 1.3 4.2-1.4 7.7-5.1 8.4-9.4.3-2.2-.1-4.5-.4-6.7-.5-4.5-.3-9.5 2.8-12.7 3.1-3.3 8.1-3.8 12-6.2 6.2-3.7 8.7-12.1 6.4-18.9-2.3-6.8-8.9-11.7-16-12.8-.6 4.2-3 8.5-7.1 9.7-2.1.6-4.3.4-6.4-.1-5.7-1.3-10.8-4.1-16.2-6.3s-11.3-3.9-16.9-2.6c-5.7 1.3-10.9 6.2-10.7 12 .2 5.4 4.6 9.5 7.4 14.1 4 6.5 4.8 15 1.5 21.9-3.3 6.9-10.9 11.7-18.5 11.1 6.8 3.4 14.4 6.9 21.9 5.4 4.5-.9 9-3.6 13.5-2.4zm-67-112.4c-2.4 1-4.7 2.5-5.6 4.9 3.1-.2 6.3 1.6 7.8 4.4.7 1.3 1.1 2.9 2.3 3.8 1 .8 2.4 1 3.6 1.2 6 1.3 11.4 5.6 13.6 11.4 2.2 5.8.8 12.8-3.6 17.1 4.3-2.6 10-1.8 14.4-4.3 3.5-1.9 5.7-5.5 6.7-9.4s.6-7.9 0-11.8c-.8-4.6-2.8-9.9-7.3-10.9-1.4-.3-2.8-.2-4.2-.6-1.2-.4-2.2-1.1-3.3-1.8-7.1-4.8-16.5-7.2-24.4-4zm-17 49.5c.9 0 1.8-.1 2.6-.5.8-.5 1.3-1.3 1.2-2.2-.1-.8-.8-1.4-1.4-1.9-.9-.7-1.9-1.4-2.5-2.4s-1-2.3-.4-3.3c.6-1.1 2-1.7 2.1-2.9.2-1.1-.9-2-1.8-2.7-4.6-3.2-10.1-5.1-15.7-5.6 2.9 1.6 5 4.7 5.3 8 .2 2.1-.1 4.2.3 6.2.9 4.3 5.7 7.3 10.3 7.3z"/>
  <defs>
    <path id="bc" d="M1184.7 432.8c-21.3-15.9-71.9-22.2-74.7-47.4-4.3-38.6 11.5-47.4 34.9-66.5 18.7-15.3 52.3-9.4 76.7-18.8 24.4-9.4 39.9-30.4 73.4-19.6 33.5 10.9 33.2 27.4 51 37.8 17.8 10.4 45.4-3.5 62.2 10.9 11.1 9.6 41.1 44.2 18.8 65-23.7 22.2-61.5 7.9-80.3 28.8-15.5 17.2-34.3 54.8-73.2 54.1-42-.8-61.5-24-88.8-44.3z"/>
  </defs>
  <clipPath id="bd">
    <use xlink:href="#bc" overflow="visible"/>
  </clipPath>
  <path fill="#679358" d="M1381.2 406.5c.4 1.6.2 3.3.8 4.8 1.1 2.9 4.6 4 7.7 4.5 6.9 1.1 14.3 1.3 20.8-1.3 4.8-1.9 9-5.3 12.5-9.1 12.4-13.2 18.1-32.4 14.9-50.3-.3-1.7-.8-3.5-2.3-4.3-1-.5-2.1-.4-3.2-.4-7.3-.1-13.7-4.7-20.3-7.9-1.5-.7-3.6-1.3-4.8-.1-.6.6-.8 1.5-.8 2.3 0 2.7 1.2 5.7-.3 8-1 1.5-3 2.1-4.8 2-1.8-.1-3.5-.8-5.2-1.4-4.3-1.5-9-2.4-13.2-.9-4.3 1.5-7.7 6-6.6 10.4.7 2.7 2.8 4.8 5 6.4 2.2 1.7 4.6 3.2 6.3 5.4s2.5 5.4 1 7.7c-2 3.2-6.6 3.1-10.1 4.3-3.6 1.2-6.7 4.7-6 8.4.9 4.8 7.3 6.8 8.6 11.5zm-15.5-2.8c-2.6-3.4-7.6-3.4-11.8-2.6-4.2.7-8.8 1.8-12.4-.5-2.5-1.6-3.9-4.5-5.5-7-2.4-3.7-5.5-6.8-9.2-9.2-3.6-2.3-8.5-3.9-12.1-1.5-.9.6-1.7 1.4-1.9 2.5-.5 2.5 1.9 4.4 3.9 5.9 4.9 3.6 9 8.4 11.7 13.8 1.1 2.2 2 4.8 1.1 7.1-.8 1.8-2.5 2.8-3.8 4.2-3.1 3.3-3.6 8.5-1.6 12.5s6.6 6.4 11 6.3c2.5-.1 4.9-.9 7.3-1.7 6.6-2.3 13.3-5 18.1-10.1 2.9-3 4.9-6.7 6-10.7.8-3.1 1-6.5-.8-9zm-46 59.8c1.7-3 3.3-6.4 3.2-9.9-.1-3.5-2.2-7.2-5.6-8-2.7-.7-6 .4-7.9-1.7-.7-.7-1-1.7-1.3-2.7-.8-2.3-1.7-4.7-3.5-6.3-1.8-1.7-4.7-2.4-6.7-1-2.5 1.7-2.4 5.2-2.4 8.2.1 4.2-.3 8.4-1.2 12.5-1 4.5-2.7 9.1-6.4 11.9-4 3-9.4 3.3-14.3 2.3-3.8-.8-7.5-2.3-11.4-2.5-3.9-.2-8.3 1.5-9.7 5.1-1.2 3.1.3 6.9 3 8.9 1.9 1.4 4.3 2.1 6.6 2.7 6.8 1.7 13.7 2.9 20.6 3.5 4.3.4 8.6.6 12.7-.5 9-2.3 15.6-10 19.8-18.2m-19.4-116.1c3.7 2.5 9 1.1 12.4-1.8s5.6-7 8.2-10.6c4.5-6.3 10.5-11.6 17.3-15.2 2.7-1.4 5.6-2.7 8-4.6 5-4.2 6.8-11.3 5.5-17.7s-5.6-11.8-10.8-15.6c-3.3-2.4-7-4.2-11-4.5-4-.3-8 .8-12 1.9-1.5.4-3.1.9-4.1 2.1-1.8 2.5.2 5.8 1.9 8.3 2.2 3.3 3.9 7.3 2.8 11.1-1.2 4.2-5.2 6.8-8.7 9.5-3.5 2.7-6.7 5.9-9.5 9.4-.6.8-1.2 1.6-1.4 2.6-.3 1.6.6 3.1 1.1 4.6 1.6 4.6-.4 9.6-1.7 14.2-.2.9-.5 1.8-.4 2.7.1 1.4 1.1 2.7 2.4 3.6zm-155.3 70.8c5.4 2.7 10.8 5.5 16.1 8.2 5.7 2.9 12 5.9 18.2 4.7 5.1-1 9.5-4.8 11.1-9.6 1.7-4.9.6-10.6-2.7-14.5-1.8-2.1-4.1-3.7-5.8-5.9-2.6-3.3-3.4-7.8-3.6-12-.2-4.2 0-8.5-1-12.6s-3.4-8.2-7.4-9.7c1.4 6.5.4 13.5-2.6 19.5-3.1 5.9-8.2 10.8-14.3 13.5-3.9 1.7-8.1 2.6-11.7 4.9-1.7 1.1-3.4 2.8-3.7 4.8-.3 2 .7 4.1 2.1 5.5 1.6 1.3 3.5 2.2 5.3 3.2z" clip-path="url(#bd)"/>
  <path fill="#DEEFF5" d="M1081.7 395.7V412l-.7-21.4v-16.3"/>
  <path fill="#C7E5ED" d="M1084 374.3l.7 20.7L1273 503.8l-2.1 1.2-189.2-109.3-.7-21.4"/>
  <path fill="#ACD8E5" d="M1273 503.8v16.3l-2.1 1.2V505"/>
  <path fill="#E8F4F8" d="M1270.9 505v16.3L1081.7 412v-16.3"/>
</svg>
