<?xml version="1.0" encoding="utf-8"?>
<!-- Generator: Adobe Illustrator 18.1.0, SVG Export Plug-In . SVG Version: 6.00 Build 0)  -->
<svg version="1.1" id="Calque_1" xmlns="http://www.w3.org/2000/svg" xmlns:xlink="http://www.w3.org/1999/xlink" x="0px" y="0px"
	 viewBox="0 0 1440 875.8" enable-background="new 0 0 1440 875.8" xml:space="preserve">
<polygon fill="#FFBD6A" points="383.6,147.5 401.2,137.3 400.9,235.9 383.3,246.2 "/>
<polygon fill="#FFD684" points="373.5,127.7 391.1,117.4 401.2,137.3 383.6,147.5 "/>
<polygon fill="#FFF5D4" points="373.5,127.7 383.6,147.5 383.3,246.2 349.9,226.9 350,173.2 355.8,158.1 356,86.5 373.7,96.7 "/>
<polygon fill="#FFDD8E" points="356,86.5 373.6,76.3 391.3,86.5 373.7,96.7 "/>
<polygon fill="#FFBD6A" points="373.7,96.7 391.3,86.5 391.1,117.4 373.5,127.7 "/>
<g enable-background="new    ">
	<defs>
		<polygon id="SVGID_222_" enable-background="new    " points="358.1,197.7 358.4,94 370.8,101.1 370.5,204.9 		"/>
	</defs>
	<clipPath id="SVGID_1_">
		<use xlink:href="#SVGID_222_"  overflow="visible"/>
	</clipPath>
	<polyline clip-path="url(#SVGID_1_)" fill="#FFFFFF" points="370.8,101.1 358.4,94 358.1,197.7 370.5,204.9 370.8,101.1 	"/>
</g>
<g enable-background="new    ">
	<defs>
		<polygon id="SVGID_221_" enable-background="new    " points="372.9,167.3 373,134.7 380.9,139.3 380.8,171.8 		"/>
	</defs>
	<clipPath id="SVGID_2_">
		<use xlink:href="#SVGID_221_"  overflow="visible"/>
	</clipPath>
	<polyline clip-path="url(#SVGID_2_)" fill="#FFFFFF" points="373,134.7 372.9,167.3 380.8,171.8 380.9,150.4 373,134.7 	"/>
</g>
<g enable-background="new    ">
	<defs>
		<polygon id="SVGID_220_" enable-background="new    " points="372.9,202.4 373,169.8 380.9,174.4 380.8,206.9 		"/>
	</defs>
	<clipPath id="SVGID_3_">
		<use xlink:href="#SVGID_220_"  overflow="visible"/>
	</clipPath>
	<polyline clip-path="url(#SVGID_3_)" fill="#FFFFFF" points="373,169.8 372.9,202.4 380.8,206.9 380.9,174.4 373,169.8 	"/>
</g>
<path fill="#FFBD6A" d="M403.1,271.1c0,1.6,0,3.3,0,4.9c0,3.2-2.1,6.4-6.3,8.9c-8.5,4.9-22.3,4.9-30.8,0c-4.3-2.5-6.4-5.7-6.4-9
	c0-1.6,0-3.3,0-4.9c0,3.3,2.1,6.5,6.4,9c8.5,4.9,22.3,4.9,30.8,0C401,277.5,403.1,274.3,403.1,271.1z"/>
<path fill="#FFD789" d="M396.7,262.1c8.5,4.9,8.6,12.9,0.1,17.9c-8.5,4.9-22.3,4.9-30.8,0c-8.5-4.9-8.6-12.9-0.1-17.8
	C374.4,257.1,388.2,257.1,396.7,262.1z"/>
<g enable-background="new    ">
	<defs>
		<polygon id="SVGID_219_" enable-background="new    " points="353.4,271.5 381.2,255.3 409.3,271.5 381.4,287.7 		"/>
	</defs>
	<clipPath id="SVGID_4_">
		<use xlink:href="#SVGID_219_"  overflow="visible"/>
	</clipPath>
	<path clip-path="url(#SVGID_4_)" fill="#FFD176" d="M395.3,263.4c-7.8-4.5-20.3-4.5-28,0c-7.7,4.5-7.7,11.7,0.1,16.2
		c7.8,4.5,20.3,4.5,28,0C403.1,275.1,403,267.9,395.3,263.4"/>
</g>
<path fill="#F1526B" d="M367.3,267.9c7.7-4.5,20.2-4.5,28,0c2.9,1.7,4.7,3.7,5.4,5.9c1.3-3.6-0.6-7.6-5.4-10.4
	c-7.8-4.5-20.3-4.5-28,0c-4.8,2.8-6.6,6.7-5.4,10.3C362.7,271.6,364.5,269.6,367.3,267.9z"/>
<path fill="#43A4C9" d="M361.8,273.4c0.7,2.2,2.5,4.4,5.5,6.1c7.8,4.5,20.3,4.5,28,0c3-1.7,4.8-3.8,5.4-6.1
	c-0.7-2.3-2.5-4.4-5.5-6.2c-7.8-4.5-20.3-4.5-28,0C364.2,269.1,362.4,271.2,361.8,273.4z"/>
<polygon fill="#FFD789" points="408,178 425.6,167.8 438.5,189.3 420.9,199.5 "/>
<polygon fill="#FFBD6A" points="420.9,199.5 438.5,189.3 438.3,261 420.7,271.3 "/>
<polygon fill="#FFF5D4" points="402.3,158.4 408,178 420.9,199.5 420.7,271.3 390.1,253.6 390.4,151.5 "/>
<polygon fill="#FFBD6A" points="402.3,158.4 420,148.2 425.6,167.8 408,178 "/>
<polygon fill="#FFDD8E" points="390.4,151.5 408,141.3 420,148.2 402.3,158.4 "/>
<polygon fill="#97D2E8" points="400.3,196.5 413.4,204 406,208.3 392.9,200.8 "/>
<polygon fill="#43A4C9" points="413.4,204 413.3,212.2 406,216.5 406,208.3 "/>
<polygon fill="#E4F2F7" points="406,208.3 406,216.5 392.9,208.9 392.9,200.8 "/>
<g enable-background="new    ">
	<defs>
		<polygon id="SVGID_218_" enable-background="new    " points="392.7,202.8 400.2,198.4 413.5,206.1 406,210.5 		"/>
	</defs>
	<clipPath id="SVGID_5_">
		<use xlink:href="#SVGID_218_"  overflow="visible"/>
	</clipPath>
	<polyline clip-path="url(#SVGID_5_)" fill="#0066AE" points="413.5,206.1 413.3,206 406,210.3 392.9,202.7 392.7,202.8 406,210.5 
		413.5,206.1 	"/>
</g>
<g enable-background="new    ">
	<defs>
		<polygon id="SVGID_217_" enable-background="new    " points="392.7,204.8 400.2,200.4 413.5,208.1 406,212.5 		"/>
	</defs>
	<clipPath id="SVGID_6_">
		<use xlink:href="#SVGID_217_"  overflow="visible"/>
	</clipPath>
	<polyline clip-path="url(#SVGID_6_)" fill="#0066AE" points="413.5,208.1 413.3,208 406,212.3 392.9,204.7 392.7,204.8 406,212.5 
		413.5,208.1 	"/>
</g>
<g enable-background="new    ">
	<defs>
		<polygon id="SVGID_216_" enable-background="new    " points="392.7,206.8 400.2,202.4 413.5,210.1 406,214.5 		"/>
	</defs>
	<clipPath id="SVGID_7_">
		<use xlink:href="#SVGID_216_"  overflow="visible"/>
	</clipPath>
	<polyline clip-path="url(#SVGID_7_)" fill="#0066AE" points="413.5,210.1 413.3,210 406,214.3 392.9,206.7 392.7,206.8 406,214.5 
		413.5,210.1 	"/>
</g>
<g enable-background="new    ">
	<defs>
		<polygon id="SVGID_215_" enable-background="new    " points="398.8,258.7 398.9,249.3 409.4,255.4 409.4,264.8 		"/>
	</defs>
	<clipPath id="SVGID_8_">
		<use xlink:href="#SVGID_215_"  overflow="visible"/>
	</clipPath>
	<polyline clip-path="url(#SVGID_8_)" fill="#F59680" points="403.4,252 398.9,249.3 398.8,258.7 403.4,261.4 403.4,252 	"/>
	<polyline clip-path="url(#SVGID_8_)" fill="#F59680" points="409.4,255.4 404.8,252.8 404.8,262.2 409.4,264.8 409.4,255.4 	"/>
</g>
<g enable-background="new    ">
	<defs>
		<polygon id="SVGID_214_" enable-background="new    " points="424.1,258 424,202 436.1,195.1 436.2,251 		"/>
	</defs>
	<clipPath id="SVGID_9_">
		<use xlink:href="#SVGID_214_"  overflow="visible"/>
	</clipPath>
	<polyline clip-path="url(#SVGID_9_)" fill="#FFFFFF" points="436.1,195.1 424,202 424.1,258 436.2,251 436.1,195.1 	"/>
</g>
<g enable-background="new    ">
	<defs>
		<polygon id="SVGID_213_" enable-background="new    " points="425.5,255.7 425.4,216 433.9,211.1 434,250.7 		"/>
	</defs>
	<clipPath id="SVGID_10_">
		<use xlink:href="#SVGID_213_"  overflow="visible"/>
	</clipPath>
	<polyline clip-path="url(#SVGID_10_)" fill="#CEDA91" points="425.4,216 425.5,255.7 434,250.7 425.4,216 	"/>
</g>
<g enable-background="new    ">
	<defs>
		<polygon id="SVGID_212_" enable-background="new    " points="428.5,217.4 428.4,210.5 434.5,207.1 434.5,214 		"/>
	</defs>
	<clipPath id="SVGID_11_">
		<use xlink:href="#SVGID_212_"  overflow="visible"/>
	</clipPath>
	<path clip-path="url(#SVGID_11_)" fill="#F1526B" d="M431.4,208.8c-1.7,1-3,3.3-3,5.2c0,1.9,1.4,2.7,3,1.7c1.7-1,3-3.3,3-5.2
		C434.5,208.6,433.1,207.8,431.4,208.8"/>
</g>
<g enable-background="new    ">
	<defs>
		<polygon id="SVGID_211_" enable-background="new    " points="427.9,211.5 427.9,207.1 431.8,204.9 431.8,209.3 		"/>
	</defs>
	<clipPath id="SVGID_12_">
		<use xlink:href="#SVGID_211_"  overflow="visible"/>
	</clipPath>
	<path clip-path="url(#SVGID_12_)" fill="#F5967F" d="M429.9,206c-1.1,0.6-1.9,2.1-1.9,3.3c0,1.2,0.9,1.7,1.9,1.1
		c1.1-0.6,1.9-2.1,1.9-3.3C431.8,205.8,430.9,205.4,429.9,206"/>
</g>
<g enable-background="new    ">
	<defs>
		<polygon id="SVGID_210_" enable-background="new    " points="394,226.5 394,212.3 400.1,215.8 400,230 		"/>
	</defs>
	<clipPath id="SVGID_13_">
		<use xlink:href="#SVGID_210_"  overflow="visible"/>
	</clipPath>
	<polyline clip-path="url(#SVGID_13_)" fill="#FFFFFF" points="400.1,215.8 394,212.3 394,226.5 400,230 400.1,215.8 	"/>
</g>
<g enable-background="new    ">
	<defs>
		<polygon id="SVGID_209_" enable-background="new    " points="401.5,230.7 401.5,216.5 407.6,220 407.5,234.2 		"/>
	</defs>
	<clipPath id="SVGID_14_">
		<use xlink:href="#SVGID_209_"  overflow="visible"/>
	</clipPath>
	<polyline clip-path="url(#SVGID_14_)" fill="#FFFFFF" points="407.6,220 401.5,216.5 401.5,230.7 407.5,234.2 407.6,220 	"/>
</g>
<g enable-background="new    ">
	<defs>
		<polygon id="SVGID_208_" enable-background="new    " points="409.1,235 409.1,220.8 415.1,224.3 415.1,238.5 		"/>
	</defs>
	<clipPath id="SVGID_15_">
		<use xlink:href="#SVGID_208_"  overflow="visible"/>
	</clipPath>
	<polyline clip-path="url(#SVGID_15_)" fill="#FFFFFF" points="415.1,224.3 409.1,220.8 409.1,235 415.1,238.5 415.1,224.3 	"/>
</g>
<g enable-background="new    ">
	<defs>
		<polygon id="SVGID_207_" enable-background="new    " points="394,241.4 394,227.2 400.1,230.7 400,244.9 		"/>
	</defs>
	<clipPath id="SVGID_16_">
		<use xlink:href="#SVGID_207_"  overflow="visible"/>
	</clipPath>
	<polyline clip-path="url(#SVGID_16_)" fill="#FFFFFF" points="400.1,230.7 394,227.2 394,241.4 400,244.9 400.1,230.7 	"/>
</g>
<g enable-background="new    ">
	<defs>
		<polygon id="SVGID_206_" enable-background="new    " points="401.5,245.6 401.5,231.5 407.6,235 407.5,249.1 		"/>
	</defs>
	<clipPath id="SVGID_17_">
		<use xlink:href="#SVGID_206_"  overflow="visible"/>
	</clipPath>
	<polyline clip-path="url(#SVGID_17_)" fill="#FFFFFF" points="407.6,235 401.5,231.5 401.5,245.6 407.5,249.1 407.6,235 	"/>
</g>
<g enable-background="new    ">
	<defs>
		<polygon id="SVGID_205_" enable-background="new    " points="409.1,249.9 409.1,235.8 415.1,239.2 415.1,253.4 		"/>
	</defs>
	<clipPath id="SVGID_18_">
		<use xlink:href="#SVGID_205_"  overflow="visible"/>
	</clipPath>
	<polyline clip-path="url(#SVGID_18_)" fill="#FFFFFF" points="415.1,239.2 409.1,235.8 409.1,249.9 415.1,253.4 415.1,239.2 	"/>
</g>
<polygon fill="#F1526B" points="381.1,204.4 381.2,247.8 362.7,258.5 362.6,220.2 "/>
<polygon fill="#FFCABE" points="362.7,258.5 334.5,242.1 334.4,203.8 362.6,220.2 "/>
<polygon fill="#F5967F" points="362.6,220.2 334.4,203.8 352.9,188.1 381.1,204.4 "/>
<g enable-background="new    ">
	<defs>
		<polygon id="SVGID_204_" enable-background="new    " points="337.1,223.6 337.1,209.4 359.8,222.5 359.8,236.7 		"/>
	</defs>
	<clipPath id="SVGID_19_">
		<use xlink:href="#SVGID_204_"  overflow="visible"/>
	</clipPath>
	<polyline clip-path="url(#SVGID_19_)" fill="#FFFFFF" points="359.8,222.5 337.1,209.4 337.1,223.6 359.8,236.7 359.8,222.5 	"/>
</g>
<g enable-background="new    ">
	<defs>
		<polygon id="SVGID_203_" enable-background="new    " points="365.9,237.1 365.9,222.9 371.9,219.4 371.9,233.6 		"/>
	</defs>
	<clipPath id="SVGID_20_">
		<use xlink:href="#SVGID_203_"  overflow="visible"/>
	</clipPath>
	<polyline clip-path="url(#SVGID_20_)" fill="#FFFFFF" points="371.9,219.4 365.9,222.9 365.9,237.1 371.9,233.6 371.9,219.4 	"/>
</g>
<g enable-background="new    ">
	<defs>
		<polygon id="SVGID_202_" enable-background="new    " points="372.8,233.1 372.8,218.9 378.8,215.5 378.9,229.6 		"/>
	</defs>
	<clipPath id="SVGID_21_">
		<use xlink:href="#SVGID_202_"  overflow="visible"/>
	</clipPath>
	<polyline clip-path="url(#SVGID_21_)" fill="#FFFFFF" points="378.8,215.5 372.8,218.9 372.8,233.1 378.9,229.6 378.8,215.5 	"/>
</g>
<polygon fill="#F1526B" points="382.8,283.9 382.8,308.3 336.4,335.3 336.5,310.8 "/>
<polygon fill="#F8B9AA" points="382.8,283.9 336.5,310.8 357.8,323.1 326,341.6 227.2,284.6 305.4,239.1 "/>
<polygon fill="#F1526B" points="357.8,323.1 357.7,347.6 325.9,366 326,341.6 "/>
<polygon fill="#FFCABE" points="326,341.6 325.9,366 227.2,309 227.2,284.6 "/>
<polygon fill="#43A4C9" points="388.5,274 388.5,282.2 342.1,309.1 342.1,301 "/>
<polygon fill="#97D2E8" points="388.5,274 342.1,301 363.4,313.3 326,335 221.5,274.7 305.3,226 "/>
<polygon fill="#43A4C9" points="363.4,313.3 363.4,321.4 326,343.2 326,335 "/>
<polygon fill="#EDF6F9" points="326,335 326,343.2 221.5,282.9 221.5,274.7 "/>
<polygon fill="#FFBD6A" points="359,249.6 359.1,275.8 305.7,306.6 305.6,280.4 "/>
<polygon fill="#FFF5D4" points="305.7,306.6 252.2,275.5 252.1,249.3 305.6,280.4 "/>
<polygon fill="#FFDD8E" points="305.6,280.4 252.1,249.3 305.4,218.5 359,249.6 "/>
<polygon fill="#43A4C9" points="359,244.1 359.1,247.4 305.7,278.2 305.7,274.9 "/>
<polygon fill="#EDF6F9" points="305.7,278.2 252.1,247.1 252.1,243.7 305.7,274.9 "/>
<polygon fill="#97D2E8" points="305.7,274.9 252.1,243.7 305.5,212.9 359,244.1 "/>
<g enable-background="new    ">
	<defs>
		<polygon id="SVGID_201_" enable-background="new    " points="257.6,273.5 257.7,257.5 298.4,281 298.3,297 		"/>
	</defs>
	<clipPath id="SVGID_22_">
		<use xlink:href="#SVGID_201_"  overflow="visible"/>
	</clipPath>
	<polyline clip-path="url(#SVGID_22_)" fill="#FFFFFF" points="276.7,268.5 257.7,257.5 257.7,264.6 276.7,275.5 276.7,268.5 	"/>
	<polyline clip-path="url(#SVGID_22_)" fill="#FFFFFF" points="298.4,281 279.4,270 279.3,277.1 298.3,288 298.4,281 	"/>
	<polyline clip-path="url(#SVGID_22_)" fill="#FFFFFF" points="276.7,277.4 257.7,266.5 257.6,273.5 276.6,284.5 276.7,277.4 	"/>
	<polyline clip-path="url(#SVGID_22_)" fill="#FFFFFF" points="298.3,289.9 279.3,279 279.3,286 298.3,297 298.3,289.9 	"/>
</g>
<g enable-background="new    ">
	<defs>
		<polygon id="SVGID_200_" enable-background="new    " points="316.8,293.6 316.8,282.1 351.7,261.9 351.7,273.5 		"/>
	</defs>
	<clipPath id="SVGID_23_">
		<use xlink:href="#SVGID_200_"  overflow="visible"/>
	</clipPath>
	<polyline clip-path="url(#SVGID_23_)" fill="#FFFFFF" points="351.7,261.9 316.8,282.1 316.8,293.6 351.7,273.5 351.7,261.9 	"/>
</g>
<polygon fill="#F5967F" points="287.9,226 297.8,220.2 305.9,223.5 296,229.3 "/>
<polygon fill="#F1526B" points="305.4,242.6 315.3,236.9 316.7,246.9 306.8,252.7 "/>
<polygon fill="#F1526B" points="299.6,223 309.5,217.2 313.1,227.7 303.2,233.4 "/>
<polygon fill="#FFCABE" points="299.6,223 303.2,233.4 311.3,239.5 305.4,242.6 306.8,252.7 299.6,244.1 292.3,244.3 293.7,235.9 
	287.9,226 296,229.3 "/>
<polygon fill="#F5967F" points="303.2,233.4 313.1,227.7 321.2,233.7 311.3,239.5 "/>
<ellipse fill="#FFFFFF" cx="409.4" cy="271.3" rx="0.7" ry="0.8"/>
<path fill="#FFFFFF" d="M409.3,272v0.3c0,0,0.4-0.1,0.5,0.1c0,0,0,0.4-0.5,0.4s-0.6-0.5-0.6-0.5s0.3-0.1,0.4,0c0,0,0-0.4,0-0.4
	L409.3,272z"/>
<path fill="#FFFFFF" d="M410,272.5c0.3,0.3,0.2,3.2,0.2,3.2s0,0.2-0.1,0.2c-0.2,0-0.2-0.2-0.2-0.2l0-2.1L410,272.5z"/>
<path fill="#FFFFFF" d="M408.8,277.1c0,0-0.1,2.5-0.1,2.5s0,0.2-0.2,0.2c-0.2,0-0.2-0.2-0.2-0.2l0.1-2.6L408.8,277.1z"/>
<path fill="#FFFFFF" d="M409.9,277c0,0,0.1,2.5,0.1,2.5s0,0.2-0.1,0.2c-0.2,0-0.2-0.2-0.2-0.2l-0.2-2.6L409.9,277z"/>
<path fill="#FFFFFF" d="M408.6,272.4l-0.1,3.5c0,0,0,0.2-0.1,0.2c-0.2,0-0.1-0.1-0.1-0.2c0-0.1,0.1-3,0.1-3S408.4,272.5,408.6,272.4
	z"/>
<polygon fill="#CEDA91" points="409.9,275.4 410.1,277.6 409.5,277.6 409.5,275.9 408.9,275.9 408.9,277.6 408.4,277.6 408.5,275.4 
	"/>
<path fill="#F1526B" d="M409.7,272.3c0,0,0.2,0,0.2,0.2c0,0,0.1,2.9,0.1,2.9l-1.6,0l0.1-3.1c0,0,0.1-0.1,0.2-0.1c0,0,0,0.3,0.4,0.3
	C409.4,272.6,409.8,272.7,409.7,272.3z"/>
<path fill="#FFE29D" d="M409.4,270.4c0,0,0.8-0.1,0.9,0.6c0,0.8,0.6,2.3,0,3.1c-0.6,0.8-1.7,0.5-2.1,0c-0.3-0.4,0.1-3.1,0.5-3.5
	C409,270.4,409.4,270.4,409.4,270.4z"/>
<g enable-background="new    ">
	<defs>
		<polygon id="SVGID_199_" enable-background="new    " points="389.3,327.6 459.7,286.7 559.1,344.1 488.7,385 		"/>
	</defs>
	<clipPath id="SVGID_24_">
		<use xlink:href="#SVGID_199_"  overflow="visible"/>
	</clipPath>
	<path clip-path="url(#SVGID_24_)" fill="#CEDA91" d="M397.1,327.6l62.6-36.4l91.6,52.9l-15.2,8.8l-6.8,4l-18.5,10.7l-6.8,4
		l-15.2,8.8L397.1,327.6 M559.1,344.1l-99.4-57.4l-70.4,40.9l99.4,57.4L559.1,344.1"/>
	<path clip-path="url(#SVGID_24_)" fill="#CEDA91" d="M451.4,316.1l-11.3,6.6c3.2,1,7.3,0.7,9.9-0.8
		C452.6,320.4,453.2,318,451.4,316.1 M508.3,349c-3.2-1-7.3-0.7-9.9,0.8c-2.6,1.5-3.2,3.9-1.4,5.7L508.3,349 M444.4,308.8l-6.8-3.9
		l-17.1,9.9l6.8,3.9L444.4,308.8 M527.8,356.9L521,353l-17.1,9.9l6.8,3.9L527.8,356.9 M484.1,330.5l-19,11.1
		c5.3,2.8,13.6,2.8,18.7-0.2C488.9,338.4,489,333.6,484.1,330.5 M483.4,330.1c-5.3-2.8-13.6-2.8-18.7,0.2c-5.1,3-5.2,7.8-0.3,10.9
		L483.4,330.1 M534.7,353l-15.9-9.2L488,361.6l15.9,9.2l6.1-3.6l-7.5-4.3l18.5-10.7l7.5,4.3L534.7,353 M460.4,310.1l-15.9-9.2
		l-6.1,3.6l7.5,4.3l-18.5,10.7l-7.5-4.3l-6.1,3.6l15.9,9.2L460.4,310.1 M504.5,317.9L459.7,292l-14.5,8.4l16.7,9.6l-9.7,5.6
		c2.1,2.1,1.6,4.8-1.4,6.6c-3,1.7-7.7,2.1-11.3,0.9l-9.7,5.6l-16.7-9.6l-14.5,8.4l44.7,25.8l20.4-11.8c-5.3-3.3-5.2-8.5,0.3-11.7
		c5.5-3.2,14.5-3.3,20.2-0.2L504.5,317.9 M549.9,344.1l-44.7-25.8l-20.4,11.8c5.3,3.3,5.2,8.5-0.3,11.7c-5.5,3.2-14.5,3.3-20.2,0.2
		l-20.4,11.8l44.8,25.8l14.5-8.4l-16.7-9.6l9.7-5.6c-2.1-2.1-1.6-4.8,1.4-6.6c3-1.7,7.7-2.1,11.3-0.8l9.7-5.6l16.7,9.6L549.9,344.1"
		/>
	<polyline clip-path="url(#SVGID_24_)" fill="#FFFFFF" points="551.3,344.1 459.7,291.2 397.1,327.6 488.7,380.5 503.9,371.6 
		503.2,371.2 488.7,379.7 443.9,353.8 443.4,354.1 442.7,353.7 443.2,353.4 398.5,327.6 413,319.2 412.3,318.7 444.5,300 
		445.2,300.5 459.7,292 504.5,317.9 505,317.6 505.7,318 505.2,318.3 549.9,344.1 535.4,352.5 536.1,352.9 551.3,344.1 	"/>
	<path clip-path="url(#SVGID_24_)" fill="#FFFFFF" d="M464.3,342c-0.1-0.1-0.2-0.1-0.4-0.2c-0.1-0.1-0.2-0.1-0.3-0.2l-20.4,11.8
		l-0.5,0.3l0.7,0.4l0.5-0.3L464.3,342 M483.7,330.3c-0.1-0.1-0.2-0.1-0.4-0.2l-19,11.1c0.1,0.1,0.2,0.1,0.3,0.2
		c0.1,0.1,0.2,0.1,0.4,0.2l19-11.1C484,330.5,483.8,330.4,483.7,330.3 M505.7,318l-0.7-0.4l-0.5,0.3l-20.4,11.8
		c0.1,0.1,0.2,0.1,0.4,0.2c0.1,0.1,0.2,0.1,0.4,0.2l20.4-11.8L505.7,318"/>
	<path clip-path="url(#SVGID_24_)" fill="#FFFFFF" d="M536.1,352.9l-0.7-0.4l-16.7-9.6l-9.7,5.6c0.1,0,0.3,0.1,0.4,0.1l-0.5,0.5
		c-0.2-0.1-0.4-0.1-0.6-0.2l-11.3,6.6c0.1,0.1,0.2,0.2,0.3,0.3l-0.8,0.3c-0.1-0.1-0.1-0.1-0.2-0.2l-9.7,5.6l16.7,9.6l0.7,0.4l6.8-4
		l-0.7-0.4l-6.1,3.6l-15.9-9.2l30.8-17.9l15.9,9.2l-6.1,3.6l0.7,0.4L536.1,352.9"/>
	<path clip-path="url(#SVGID_24_)" fill="#FFFFFF" d="M527.8,356.9l-17.1,9.9l-6.8-3.9L521,353L527.8,356.9 M529.3,356.9l-0.7-0.4
		l-7.5-4.3l-18.5,10.7l7.5,4.3l0.7,0.4L529.3,356.9"/>
	<path clip-path="url(#SVGID_24_)" fill="#FFFFFF" d="M509.4,348.7c-0.1,0-0.3-0.1-0.4-0.1c-3.6-1.2-8.3-0.9-11.3,0.8
		c-3,1.7-3.6,4.5-1.4,6.6c0.1,0.1,0.1,0.1,0.2,0.2l0.8-0.3c-0.1-0.1-0.2-0.2-0.3-0.3c-1.8-1.9-1.2-4.2,1.4-5.7
		c2.6-1.5,6.7-1.8,9.9-0.8c0.2,0.1,0.4,0.1,0.6,0.2L509.4,348.7"/>
	<path clip-path="url(#SVGID_24_)" fill="#FFFFFF" d="M483.4,330.1c0.1,0.1,0.2,0.1,0.4,0.2c0.1,0.1,0.2,0.1,0.4,0.2
		c4.9,3.1,4.9,7.9-0.3,10.9c-5.1,3-13.4,3-18.7,0.2c-0.1-0.1-0.2-0.1-0.4-0.2c-0.1-0.1-0.2-0.1-0.3-0.2c-4.9-3.1-4.9-7.9,0.3-10.9
		C469.7,327.3,478.1,327.3,483.4,330.1 M484.4,329.9c-0.1-0.1-0.2-0.1-0.4-0.2c-5.7-3.1-14.6-3-20.2,0.2c-5.5,3.2-5.6,8.4-0.3,11.7
		c0.1,0.1,0.2,0.1,0.3,0.2c0.1,0.1,0.2,0.1,0.4,0.2c5.7,3.1,14.6,3,20.2-0.2c5.5-3.2,5.6-8.4,0.3-11.7
		C484.7,330,484.5,330,484.4,329.9"/>
	<path clip-path="url(#SVGID_24_)" fill="#FFFFFF" d="M438.3,304.4l6.1-3.6l15.9,9.2L429.7,328l-15.9-9.2l6.1-3.6l-0.7-0.4
		l18.5-10.7L438.3,304.4 M461.8,310.1l-16.7-9.6l-0.7-0.4l-32.2,18.7l0.7,0.4l16.7,9.6l9.7-5.6c-0.1,0-0.3-0.1-0.4-0.1l0.5-0.5
		c0.2,0.1,0.4,0.1,0.6,0.2l11.3-6.6c-0.1-0.1-0.2-0.2-0.3-0.3l0.8-0.3c0.1,0.1,0.1,0.1,0.2,0.2L461.8,310.1"/>
	<path clip-path="url(#SVGID_24_)" fill="#FFFFFF" d="M420.6,314.8l17.1-9.9l6.8,3.9l-17.1,9.9L420.6,314.8 M445.9,308.8l-7.5-4.3
		l-0.7-0.4l-18.5,10.7l0.7,0.4l7.5,4.3L445.9,308.8"/>
	<path clip-path="url(#SVGID_24_)" fill="#FFFFFF" d="M451.9,315.5l-0.8,0.3c0.1,0.1,0.2,0.2,0.3,0.3c1.8,1.9,1.2,4.2-1.4,5.7
		c-2.6,1.5-6.7,1.8-9.9,0.8c-0.2-0.1-0.4-0.1-0.6-0.2L439,323c0.1,0,0.3,0.1,0.4,0.1c3.6,1.2,8.3,0.9,11.3-0.9
		c3-1.7,3.6-4.5,1.4-6.6C452.1,315.6,452,315.6,451.9,315.5"/>
</g>
<g enable-background="new    ">
	<g>
		<polygon fill="#B9DEE9" points="500,241.9 499.3,242.3 498.5,241.9 499.2,241.4 		"/>
	</g>
	<g>
		<polygon fill="#ACD8E5" points="500,241.9 499.9,290.8 499.2,291.2 499.3,242.3 		"/>
	</g>
	<g>
		<polygon fill="#E5F3F7" points="499.3,242.3 499.2,291.2 498.4,290.8 498.5,241.9 		"/>
	</g>
</g>
<g enable-background="new    ">
	<defs>
		<polygon id="SVGID_198_" enable-background="new    " points="493.5,240.4 492,234 502.9,240.3 504.4,246.7 		"/>
	</defs>
	<clipPath id="SVGID_25_">
		<use xlink:href="#SVGID_198_"  overflow="visible"/>
	</clipPath>
	<g clip-path="url(#SVGID_25_)">
		<polyline fill="#FFFFFF" points="502.9,240.3 492,234 493.5,240.4 504.4,246.7 502.9,240.3 		"/>
	</g>
</g>
<g enable-background="new    ">
	<g>
		<polygon fill="#B9DEE9" points="552,267.1 551.2,267.5 550.5,267.1 551.2,266.6 		"/>
	</g>
	<g>
		<polygon fill="#ACD8E5" points="552,267.1 551.8,316 551.1,316.4 551.2,267.5 		"/>
	</g>
	<g>
		<polygon fill="#E5F3F7" points="551.2,267.5 551.1,316.4 550.3,316 550.5,267.1 		"/>
	</g>
</g>
<g enable-background="new    ">
	<defs>
		<polygon id="SVGID_197_" enable-background="new    " points="545.5,265.6 543.9,259.2 554.8,265.5 556.4,271.9 		"/>
	</defs>
	<clipPath id="SVGID_26_">
		<use xlink:href="#SVGID_197_"  overflow="visible"/>
	</clipPath>
	<g clip-path="url(#SVGID_26_)">
		<polyline fill="#FFFFFF" points="554.8,265.5 543.9,259.2 545.5,265.6 556.4,271.9 554.8,265.5 		"/>
	</g>
</g>
<g>
	<polygon fill="#F1526B" points="574.7,324.6 574.7,336.8 561.2,344.6 	"/>
</g>
<g>
	<polygon fill="#F5967F" points="561.2,344.6 459.7,285.6 473.2,265.7 574.7,324.6 	"/>
</g>
<g>
	<polygon fill="#FFCABE" points="375.8,307.5 389.2,327.5 375.8,319.7 	"/>
</g>
<g>
	<polygon fill="#F59781" points="375.8,307.5 446.3,266.5 459.7,286.5 389.2,327.5 	"/>
</g>
<g enable-background="new    ">
	<defs>
		<polygon id="SVGID_196_" enable-background="new    " points="386.9,323.8 378.3,310.6 448.5,269.6 457.1,282.8 		"/>
	</defs>
	<clipPath id="SVGID_27_">
		<use xlink:href="#SVGID_196_"  overflow="visible"/>
	</clipPath>
	<polyline clip-path="url(#SVGID_27_)" fill="#E07868" points="456.6,282.2 386.5,323.1 386.9,323.8 457.1,282.8 456.6,282.2 	"/>
	<polyline clip-path="url(#SVGID_27_)" fill="#F1526B" points="453.9,278 383.7,319 384.2,319.6 454.3,278.6 453.9,278 	"/>
	<polyline clip-path="url(#SVGID_27_)" fill="#F1526B" points="451.2,273.8 381,314.8 381.4,315.4 451.6,274.5 451.2,273.8 	"/>
	<polyline clip-path="url(#SVGID_27_)" fill="#F1526B" points="448.5,269.6 378.3,310.6 378.7,311.3 448.9,270.3 448.5,269.6 	"/>
</g>
<g enable-background="new    ">
	<defs>
		<polygon id="SVGID_195_" enable-background="new    " points="462.5,281.7 470.8,268.2 572.5,327.5 564.2,341 		"/>
	</defs>
	<clipPath id="SVGID_28_">
		<use xlink:href="#SVGID_195_"  overflow="visible"/>
	</clipPath>
	<polyline clip-path="url(#SVGID_28_)" fill="#F1526B" points="564.6,340.3 462.9,281 462.5,281.7 564.2,341 564.6,340.3 	"/>
	<polyline clip-path="url(#SVGID_28_)" fill="#F1526B" points="567.2,336 465.6,276.7 465.2,277.4 566.8,336.7 567.2,336 	"/>
	<polyline clip-path="url(#SVGID_28_)" fill="#F1526B" points="569.8,331.8 468.2,272.5 467.8,273.2 569.4,332.4 569.8,331.8 	"/>
	<polyline clip-path="url(#SVGID_28_)" fill="#F1526B" points="572.5,327.5 470.8,268.2 470.4,268.9 572.1,328.2 572.5,327.5 	"/>
</g>
<g>
	<polygon fill="#F1526B" points="388.8,325.6 460,284.2 460,287 388.8,328.4 	"/>
</g>
<g>
	<polygon fill="#FFCABE" points="460,284.2 560.7,342.3 560.7,345.2 460,287 	"/>
</g>
<g>
	<polygon fill="#F1526B" points="560.7,342.3 560.7,345.2 489.5,386.6 489.5,383.7 	"/>
</g>
<g>
	<polygon fill="#F9C4B7" points="489.5,383.7 489.5,386.6 388.8,328.4 388.8,325.6 	"/>
</g>
<g>
	<polygon fill="#F1526B" points="476,382.1 489.5,386.5 476,394.3 	"/>
</g>
<g>
	<polygon fill="#F1526B" points="476,382.1 374.5,323.1 388,327.6 489.5,386.5 	"/>
</g>
<g>
	<polygon fill="#FFCABE" points="476,394.3 374.5,335.3 374.5,323.1 476,382.1 	"/>
</g>
<g>
	<polygon fill="#FCDBD4" points="502.9,382.1 502.9,394.3 489.5,386.5 	"/>
</g>
<g>
	<polygon fill="#F1526B" points="502.9,382.1 573.4,341.1 573.4,353.3 502.9,394.3 	"/>
</g>
<g>
	<polygon fill="#F8B4A4" points="489.5,386.5 559.9,345.6 573.4,341.1 502.9,382.1 	"/>
</g>
<g enable-background="new    ">
	<defs>
		<polygon id="SVGID_194_" enable-background="new    " points="443.8,334.9 446.6,326.5 457.5,332.8 454.7,341.2 		"/>
	</defs>
	<clipPath id="SVGID_29_">
		<use xlink:href="#SVGID_194_"  overflow="visible"/>
	</clipPath>
	<g clip-path="url(#SVGID_29_)">
		<polyline fill="#FFFFFF" points="457.5,332.8 446.6,326.5 443.8,334.9 454.7,341.2 457.5,332.8 		"/>
	</g>
</g>
<g enable-background="new    ">
	<g>
		<polygon fill="#B9DEE9" points="450.5,334.4 449.7,334.8 449,334.4 449.7,333.9 		"/>
	</g>
	<g>
		<polygon fill="#ACD8E5" points="450.5,334.4 450.3,383.3 449.6,383.7 449.7,334.8 		"/>
	</g>
	<g>
		<polygon fill="#E5F3F7" points="449.7,334.8 449.6,383.7 448.8,383.3 449,334.4 		"/>
	</g>
</g>
<g enable-background="new    ">
	<defs>
		<polygon id="SVGID_193_" enable-background="new    " points="394.8,306.9 397.6,298.5 408.5,304.8 405.7,313.2 		"/>
	</defs>
	<clipPath id="SVGID_30_">
		<use xlink:href="#SVGID_193_"  overflow="visible"/>
	</clipPath>
	<g clip-path="url(#SVGID_30_)">
		<polyline fill="#FFFFFF" points="408.5,304.8 397.6,298.5 394.8,306.9 405.7,313.2 408.5,304.8 		"/>
	</g>
</g>
<g enable-background="new    ">
	<g>
		<polygon fill="#B9DEE9" points="401.5,306.4 400.7,306.8 400,306.4 400.7,305.9 		"/>
	</g>
	<g>
		<polygon fill="#ACD8E5" points="401.5,306.4 401.3,355.3 400.6,355.7 400.7,306.8 		"/>
	</g>
	<g>
		<polygon fill="#E5F3F7" points="400.7,306.8 400.6,355.7 399.8,355.3 400,306.4 		"/>
	</g>
</g>
<g>
	<polygon fill="#43A4C9" points="471.7,380.8 431.7,404 355.8,360.2 395.9,337 	"/>
</g>
<g>
	<polygon fill="#43A4C9" points="471.7,380.8 471.7,405.2 431.6,428.5 431.7,404 	"/>
</g>
<g>
	<polygon fill="#EDF6F9" points="431.7,404 431.6,428.5 355.8,384.7 355.8,360.2 	"/>
</g>
<g enable-background="new    ">
	<defs>
		<polygon id="SVGID_192_" enable-background="new    " points="352,367.2 395.9,341.7 475.7,387.7 431.8,413.3 		"/>
	</defs>
	<clipPath id="SVGID_31_">
		<use xlink:href="#SVGID_192_"  overflow="visible"/>
	</clipPath>
	<polyline clip-path="url(#SVGID_31_)" fill="#0066AE" points="475.7,387.7 472.1,385.7 431.7,409.2 355.5,365.2 352,367.2 
		431.8,413.3 475.7,387.7 	"/>
</g>
<g>
	<polygon fill="#F5967F" points="471.7,370.5 431.7,393.8 355.8,350 395.8,326.7 	"/>
</g>
<g>
	<polygon fill="#F1526B" points="471.7,370.5 471.7,375.4 431.6,398.7 431.7,393.8 	"/>
</g>
<g>
	<polygon fill="#FFCABE" points="431.7,393.8 431.6,398.7 355.8,354.9 355.8,350 	"/>
</g>
<g enable-background="new    ">
	<defs>
		<polygon id="SVGID_191_" enable-background="new    " points="368.7,392.2 368.7,373.8 416.1,401.2 416,419.6 		"/>
	</defs>
	<clipPath id="SVGID_32_">
		<use xlink:href="#SVGID_191_"  overflow="visible"/>
	</clipPath>
	<polyline clip-path="url(#SVGID_32_)" fill="#0066AE" points="369.3,374.1 368.7,373.8 368.7,392.2 369.2,392.5 369.3,374.1 	"/>
	<polyline clip-path="url(#SVGID_32_)" fill="#0066AE" points="384.9,383.1 384.3,382.8 384.3,401.2 384.8,401.5 384.9,383.1 	"/>
	<polyline clip-path="url(#SVGID_32_)" fill="#0066AE" points="400.5,392.2 399.9,391.8 399.9,410.2 400.4,410.5 400.5,392.2 	"/>
	<polyline clip-path="url(#SVGID_32_)" fill="#0066AE" points="416.1,401.2 415.5,400.9 415.5,419.2 416,419.6 416.1,401.2 	"/>
</g>
<g enable-background="new    ">
	<defs>
		<polygon id="SVGID_190_" enable-background="new    " points="444.7,421 444.7,402.6 460.8,393.3 460.8,411.7 		"/>
	</defs>
	<clipPath id="SVGID_33_">
		<use xlink:href="#SVGID_190_"  overflow="visible"/>
	</clipPath>
	<polyline clip-path="url(#SVGID_33_)" fill="#0066AE" points="445.2,402.3 444.7,402.6 444.7,421 445.2,420.7 445.2,402.3 	"/>
	<polyline clip-path="url(#SVGID_33_)" fill="#0066AE" points="460.8,393.3 460.3,393.6 460.3,412 460.8,411.7 460.8,393.3 	"/>
</g>
<g>
	<polygon fill="#F1526B" points="457.1,366.6 457.1,371.6 452.8,374.1 	"/>
</g>
<g>
	<polygon fill="#FFF2D3" points="452.8,374.1 446.2,370.3 450.5,362.8 457.1,366.6 	"/>
</g>
<g>
	<polygon fill="#F59680" points="452.4,372.4 447.9,369.8 450.9,364.6 455.4,367.2 	"/>
</g>
<g>
	<polygon fill="#FFCABE" points="373.2,345.6 373.2,350.6 377.5,353.1 	"/>
</g>
<g>
	<polygon fill="#FFF2D3" points="377.5,353.1 384.1,349.3 379.8,341.8 373.2,345.6 	"/>
</g>
<g>
	<polygon fill="#F1526B" points="377.9,351.4 382.4,348.8 379.4,343.6 374.9,346.2 	"/>
</g>
</svg>
