<?xml version="1.0" encoding="utf-8"?>
<!-- Generator: Adobe Illustrator 18.1.0, SVG Export Plug-In . SVG Version: 6.00 Build 0)  -->
<svg version="1.1" id="Calque_1" xmlns="http://www.w3.org/2000/svg" xmlns:xlink="http://www.w3.org/1999/xlink" x="0px" y="0px"
	 viewBox="0 0 1440 875.8" enable-background="new 0 0 1440 875.8" xml:space="preserve">
<g id="Marché_1_">
	<g>
		<g>
			<g enable-background="new    ">
				<g>
					<polygon fill="#CEDA91" points="512.7,404.5 618.4,343.1 618.3,369.4 512.6,430.9 					"/>
				</g>
				<g>
					<polygon fill="#DFE7B7" points="512,403.6 617.7,342.2 642.9,340.2 537.2,401.6 					"/>
				</g>
				<g>
					<polygon fill="#F0F3DD" points="537.2,401.6 562.3,432.7 562.2,459.5 561.5,459.1 561.6,432.8 537.2,402.6 512.7,404.5 
						512.6,430.9 511.9,430.5 512,403.6 					"/>
				</g>
				<g>
					<polygon fill="#D3DE9C" points="537.2,401.6 642.9,340.2 668,371.3 562.3,432.7 					"/>
				</g>
				<g>
					<polygon fill="#CEDA91" points="562.3,432.7 668,371.3 668,398.1 562.2,459.5 					"/>
				</g>
			</g>
		</g>
	</g>
	<g>
		<g>
			<g enable-background="new    ">
				<g>
					<polygon fill="#A7B986" points="511.9,401.9 513.3,401 538.2,399.1 536.8,399.9 					"/>
				</g>
				<g>
					<polygon fill="#D5DDC5" points="536.8,399.9 561.5,430.5 561.5,440.8 511.9,412.2 511.9,401.9 					"/>
				</g>
				<g>
					<polygon fill="#859E58" points="536.8,399.9 538.2,399.1 562.9,429.7 561.5,430.5 					"/>
				</g>
				<g>
					<polygon fill="#789345" points="561.5,430.5 562.9,429.7 562.9,440 561.5,440.8 					"/>
				</g>
			</g>
		</g>
	</g>
	<g>
		<g>
			<g>
				<g enable-background="new    ">
					<g>
						<polygon fill="#9EB179" points="532.7,390.8 533.4,390.4 559.1,388 558.4,388.4 						"/>
					</g>
					<g>
						<polygon fill="#7D974D" points="558.4,388.4 559.1,388 559.3,388.2 558.6,388.6 						"/>
					</g>
					<g>
						<polygon fill="#D5DEC6" points="558.4,388.4 558.6,388.6 584.3,420.7 584.2,447.9 583.5,447.5 583.6,420.8 558.4,389.3 
							533,391.7 532.7,390.8 						"/>
					</g>
					<g>
						<polygon fill="#7E984D" points="558.6,388.6 559.3,388.2 585,420.3 584.3,420.7 						"/>
					</g>
					<g>
						<polygon fill="#789345" points="584.3,420.7 585,420.3 584.9,447.5 584.2,447.9 						"/>
					</g>
				</g>
			</g>
		</g>
		<g>
			<g>
				<g enable-background="new    ">
					<g>
						<polygon fill="#9EB179" points="549.7,380.8 550.4,380.4 576.1,378 575.4,378.4 						"/>
					</g>
					<g>
						<polygon fill="#7D974D" points="575.4,378.4 576.1,378 576.3,378.2 575.6,378.6 						"/>
					</g>
					<g>
						<polygon fill="#D5DEC6" points="575.4,378.4 575.6,378.6 601.3,410.7 601.2,437.9 600.5,437.5 600.6,410.8 575.4,379.3 
							550,381.7 549.7,380.8 						"/>
					</g>
					<g>
						<polygon fill="#7E984D" points="575.6,378.6 576.3,378.2 602,410.3 601.3,410.7 						"/>
					</g>
					<g>
						<polygon fill="#789345" points="601.3,410.7 602,410.3 601.9,437.5 601.2,437.9 						"/>
					</g>
				</g>
			</g>
		</g>
		<g>
			<g>
				<g enable-background="new    ">
					<g>
						<polygon fill="#9EB179" points="566.7,370.8 567.4,370.4 593.1,368 592.4,368.4 						"/>
					</g>
					<g>
						<polygon fill="#7E984D" points="592.4,368.4 593.1,368 593.3,368.2 592.6,368.6 						"/>
					</g>
					<g>
						<polygon fill="#D5DEC6" points="592.4,368.4 592.6,368.6 618.3,400.7 618.2,427.9 617.5,427.5 617.6,400.8 592.4,369.3 
							567,371.7 566.7,370.8 						"/>
					</g>
					<g>
						<polygon fill="#7E984D" points="592.6,368.6 593.3,368.2 619,400.3 618.3,400.7 						"/>
					</g>
					<g>
						<polygon fill="#789345" points="618.3,400.7 619,400.3 618.9,427.5 618.2,427.9 						"/>
					</g>
				</g>
			</g>
		</g>
		<g>
			<g>
				<g enable-background="new    ">
					<g>
						<polygon fill="#9EB179" points="583.7,360.8 584.4,360.4 610.1,358 609.4,358.4 						"/>
					</g>
					<g>
						<polygon fill="#7E984D" points="609.4,358.4 610.1,358 610.3,358.2 609.6,358.6 						"/>
					</g>
					<g>
						<polygon fill="#D5DEC6" points="609.4,358.4 609.6,358.6 635.3,390.7 635.2,417.9 634.5,417.5 634.6,390.8 609.4,359.3 
							584,361.7 583.7,360.8 						"/>
					</g>
					<g>
						<polygon fill="#7E984D" points="609.6,358.6 610.3,358.2 636,390.3 635.3,390.7 						"/>
					</g>
					<g>
						<polygon fill="#789345" points="635.3,390.7 636,390.3 635.9,417.5 635.2,417.9 						"/>
					</g>
				</g>
			</g>
		</g>
		<g>
			<g>
				<g enable-background="new    ">
					<g>
						<polygon fill="#9EB179" points="600.7,350.8 601.4,350.4 627.1,348 626.4,348.4 						"/>
					</g>
					<g>
						<polygon fill="#7E984D" points="626.4,348.4 627.1,348 627.3,348.2 626.6,348.6 						"/>
					</g>
					<g>
						<polygon fill="#D5DEC6" points="626.4,348.4 626.6,348.6 652.3,380.7 652.2,407.9 651.5,407.5 651.6,380.8 626.4,349.3 
							601,351.7 600.7,350.8 						"/>
					</g>
					<g>
						<polygon fill="#7E984D" points="626.6,348.6 627.3,348.2 653,380.3 652.3,380.7 						"/>
					</g>
					<g>
						<polygon fill="#789345" points="652.3,380.7 653,380.3 652.9,407.5 652.2,407.9 						"/>
					</g>
				</g>
			</g>
		</g>
	</g>
</g>
<g id="Panneau">
	<g>
		<g>
			<g enable-background="new    ">
				<g>
					<path fill="#F5967F" d="M662.9,353l-0.2,57.1c0,0.2-0.1,0.3-0.3,0.4c-0.4,0.2-1.1,0.2-1.5,0c-0.2-0.1-0.3-0.3-0.3-0.5l0.2-57.1
						c0,0.2,0.1,0.3,0.3,0.5c0.4,0.2,1.1,0.2,1.5,0C662.8,353.3,662.9,353.2,662.9,353z"/>
				</g>
				<g>
					<path fill="#F5967F" d="M662.6,352.6c0.4,0.2,0.4,0.6,0,0.9s-1.1,0.2-1.5,0c-0.4-0.2-0.4-0.6,0-0.9S662.1,352.3,662.6,352.6z"
						/>
				</g>
			</g>
		</g>
	</g>
	<g>
		<g>
			<g enable-background="new    ">
				<g>
					<path fill="#F5967F" d="M646.3,362.4l-0.2,57.1c0,0.2-0.1,0.3-0.3,0.4c-0.4,0.2-1.1,0.2-1.5,0c-0.2-0.1-0.3-0.3-0.3-0.5
						l0.2-57.1c0,0.2,0.1,0.3,0.3,0.5c0.4,0.2,1.1,0.2,1.5,0C646.2,362.7,646.3,362.5,646.3,362.4z"/>
				</g>
				<g>
					<path fill="#F5967F" d="M646,361.9c0.4,0.2,0.4,0.6,0,0.9s-1.1,0.2-1.5,0c-0.4-0.2-0.4-0.6,0-0.9S645.6,361.7,646,361.9z"/>
				</g>
			</g>
		</g>
	</g>
	<g>
		<g>
			<g enable-background="new    ">
				<defs>
					<polygon id="SVGID_1_" enable-background="new    " points="630.5,403.3 630.4,366 676.7,339.2 676.8,376.6 					"/>
				</defs>
				<clipPath id="SVGID_2_">
					<use xlink:href="#SVGID_1_"  overflow="visible"/>
				</clipPath>
				<g clip-path="url(#SVGID_2_)">
					<g>
						<g>
							<g>
								<polyline fill="#FFFFFF" points="675.3,341.7 631.8,366.8 631.9,400.9 675.4,375.8 675.3,341.7 								"/>
								<path fill="#F1526B" d="M631.9,400.9l-0.1-34.1l43.5-25.1l0.1,34.1L631.9,400.9 M676.7,339.2L630.4,366l0.1,37.4l46.3-26.7
									L676.7,339.2"/>
							</g>
						</g>
					</g>
				</g>
			</g>
		</g>
	</g>
</g>
<g>
	<g>
		<g enable-background="new    ">
			<defs>
				<polygon id="SVGID_3_" enable-background="new    " points="638.4,389.7 638.3,371.7 670.1,353.4 670.1,371.4 				"/>
			</defs>
			<clipPath id="SVGID_4_">
				<use xlink:href="#SVGID_3_"  overflow="visible"/>
			</clipPath>
			<g clip-path="url(#SVGID_4_)">
				<g>
					<g>
						<g>
							<path fill="#F1526B" d="M641.4,369.9c-1.4,0.8-2.3,2.3-2.3,3.5c0,1.2,0.7,1.4,1.9,1.2c1-0.1,1.3,0.1,1.3,0.8
								c0,0.8-0.5,1.7-1.5,2.3c-0.6,0.4-1.2,0.5-1.6,0.4l-0.2,1c0.4,0.1,1.1-0.1,1.8-0.5c1.7-1,2.5-2.5,2.5-3.8
								c0-1.2-0.6-1.5-1.8-1.4c-1,0.1-1.4,0-1.4-0.8c0-0.6,0.4-1.4,1.3-2c0.6-0.4,1.1-0.4,1.4-0.4l0.2-1
								C642.6,369.4,642.1,369.5,641.4,369.9"/>
							<path fill="#F1526B" d="M645.8,372.3l0.7-2.8c0.1-0.6,0.3-1.1,0.4-1.7l0,0c0.1,0.4,0.2,0.8,0.4,1.3l0.7,2L645.8,372.3
								 M647.5,366.5l-1.1,0.6l-2.4,9.6l1-0.5l0.7-3l2.5-1.5l0.8,2.1l1-0.6L647.5,366.5"/>
							<polyline fill="#F1526B" points="651.9,364 650.9,364.5 651,372.7 654.9,370.4 654.9,369.5 651.9,371.3 651.9,364 							"/>
							<path fill="#F1526B" d="M658.8,367.5c-1.4,0.8-2.3-0.3-2.3-2c0-1.8,0.8-3.8,2.3-4.7c1.5-0.9,2.3,0.4,2.3,2
								C661,364.6,660.2,366.6,658.8,367.5 M658.8,359.9c-1.9,1.1-3.3,3.6-3.3,6.2c0,2.5,1.3,3.4,3.2,2.3c1.8-1.1,3.3-3.4,3.3-6.2
								C662,359.7,660.7,358.7,658.8,359.9"/>
							<path fill="#F1526B" d="M668.5,354.4l-0.9,0.5l0,3.4c0,1.3,0,2.3,0.1,3.3l0,0c-0.3-0.6-0.8-1.3-1.3-1.9l-2.3-2.8l-1,0.6
								l0,8.2l0.9-0.5l0-3.5c0-1.4,0-2.3-0.1-3.3l0,0c0.4,0.7,0.8,1.3,1.3,2l2.3,2.8l0.9-0.5L668.5,354.4"/>
							<path fill="#F1526B" d="M639.7,388.3c-0.3,0.1-0.5,0.3-0.7,0.3l0-4.6c0.2-0.1,0.4-0.3,0.8-0.5c1.4-0.8,2-0.3,2,1.1
								C641.8,386.2,641,387.5,639.7,388.3 M639.7,383c-0.5,0.3-1,0.6-1.4,0.9l0,5.7c0.3-0.1,0.7-0.3,1.2-0.6c1-0.6,1.7-1.3,2.2-2.1
								c0.5-0.8,0.7-1.7,0.7-2.7c0-0.9-0.3-1.5-0.7-1.7C641.3,382.4,640.6,382.5,639.7,383"/>
							<path fill="#F1526B" d="M647,378.9l-0.7,0.4l0,3.4c0,1.3-0.5,2.1-1.2,2.5c-0.7,0.4-1.2,0.1-1.2-1.2l0-3.4l-0.7,0.4l0,3.4
								c0,1.8,0.8,2,1.8,1.4c1.1-0.6,1.9-1.8,1.9-3.6L647,378.9"/>
							<path fill="#F1526B" d="M653.5,375.1l-0.6,0.4l0,2.4c0,0.9,0,1.6,0.1,2.3l0,0c-0.2-0.5-0.5-0.9-0.9-1.4l-1.6-2l-0.7,0.4
								l0,5.8l0.6-0.4l0-2.5c0-1,0-1.6-0.1-2.3l0,0c0.3,0.5,0.6,0.9,0.9,1.4l1.6,2l0.7-0.4L653.5,375.1"/>
							<path fill="#F1526B" d="M655.6,377.3l0.5-2c0.1-0.4,0.2-0.8,0.2-1.2l0,0c0.1,0.3,0.1,0.6,0.3,0.9l0.5,1.4L655.6,377.3
								 M656.7,373.3l-0.8,0.5l-1.7,6.8l0.7-0.4l0.5-2.1l1.8-1l0.5,1.5l0.7-0.4L656.7,373.3"/>
							<path fill="#F1526B" d="M662.8,369.8l-0.7,0.4l-0.8,3.3c-0.2,0.9-0.4,1.7-0.6,2.5l0,0c-0.1-0.6-0.3-1.2-0.5-1.8l-0.8-2.4
								l-0.7,0.4l1.7,4.8l0.7-0.4L662.8,369.8"/>
							<polyline fill="#F1526B" points="666,367.9 663.3,369.5 663.3,375.2 666.1,373.6 666.1,373 664,374.2 664,372.2 665.9,371 
								665.9,370.4 664,371.5 664,369.7 666,368.5 666,367.9 							"/>
							<polyline fill="#F1526B" points="670.1,365.5 666.4,367.7 666.4,368.3 667.9,367.4 667.9,372.6 668.6,372.2 668.6,367 
								670.1,366.2 670.1,365.5 							"/>
						</g>
					</g>
				</g>
			</g>
		</g>
	</g>
</g>
</svg>
