<svg xmlns="http://www.w3.org/2000/svg" x="0px" y="0px" xmlns:xlink="http://www.w3.org/1999/xlink" viewBox="0 0 1440 875.8">
  <path fill="#FFF5D4" d="M601.2 360.5v33l-21.7-12.2.1-32.9"/>
  <path fill="#FFBD6A" d="M579.6 348.4l21.3-12.4 21.7 12.1-21.4 12.4"/>
  <path fill="#97D2E8" d="M601.2 360.6l-21.7-12.2 11-20 21.4 12.2"/>
  <path fill="#FFBD6A" d="M622.6 348.1l-10.7-7.5-10.6 19.9h-.1v33l21.3-12.4.1-33"/>
  <defs>
    <path id="a" d="M601.2 360.6L571 343.4l11-20 29.9 17.2z"/>
  </defs>
  <clipPath id="b">
    <use xlink:href="#a" overflow="visible"/>
  </clipPath>
  <path fill="none" stroke="#348193" stroke-width="0.3355" stroke-miterlimit="10" d="M620.3 344.6l-11.8 22.2m5.6-25.9l-11.9 22.2m5.6-25.8l-11.9 22.1m5.6-25.8l-11.8 22.2m5.6-25.9l-11.9 22.2" clip-path="url(#b)"/>
  <defs>
    <path id="c" d="M584.4 365.3l.1-4.2 2.5 1.5v4.2z"/>
  </defs>
  <clipPath id="d">
    <use xlink:href="#c" overflow="visible"/>
  </clipPath>
  <path fill="#F59680" d="M587 362.6l-2.5-1.5-.1 4.2 2.6 1.5v-4.2" clip-path="url(#d)"/>
  <defs>
    <path id="e" d="M584.4 360.4v-2l2.6 1.5v2z"/>
  </defs>
  <clipPath id="f">
    <use xlink:href="#e" overflow="visible"/>
  </clipPath>
  <path fill="#F59680" d="M587 359.9l-2.6-1.5v2l2.6 1.5v-2" clip-path="url(#f)"/>
  <defs>
    <path id="g" d="M593.2 372.4v-4.2l2.6 1.5v4.2z"/>
  </defs>
  <clipPath id="h">
    <use xlink:href="#g" overflow="visible"/>
  </clipPath>
  <path fill="#F59680" d="M595.8 369.7l-2.6-1.5v4.2l2.6 1.5v-4.2" clip-path="url(#h)"/>
  <defs>
    <path id="i" d="M593.2 367.5v-2l2.6 1.5v2z"/>
  </defs>
  <clipPath id="j">
    <use xlink:href="#i" overflow="visible"/>
  </clipPath>
  <path fill="#F59680" d="M595.8 367l-2.6-1.5v2l2.6 1.5v-2" clip-path="url(#j)"/>
  <defs>
    <path id="k" d="M609.4 378.8v-4.1l2.5-1.5.1 4.1z"/>
  </defs>
  <clipPath id="l">
    <use xlink:href="#k" overflow="visible"/>
  </clipPath>
  <path fill="#F59680" d="M611.9 373.2l-2.5 1.5v4.1l2.6-1.5-.1-4.1" clip-path="url(#l)"/>
  <defs>
    <path id="m" d="M609.4 374v-2.1l2.6-1.5v2.1z"/>
  </defs>
  <clipPath id="n">
    <use xlink:href="#m" overflow="visible"/>
  </clipPath>
  <path fill="#F59680" d="M612 370.4l-2.6 1.5v2.1l2.6-1.5v-2.1" clip-path="url(#n)"/>
  <defs>
    <path id="o" d="M586.6 385.4v-10l4.1 2.4v10z"/>
  </defs>
  <clipPath id="p">
    <use xlink:href="#o" overflow="visible"/>
  </clipPath>
  <path fill="#5198A8" d="M590.7 377.8l-4.1-2.4v10l4.1 2.4v-10" clip-path="url(#p)"/>
  <defs>
    <path id="q" d="M609.9 363.9v-6.7l5.9-3.4v6.7z"/>
  </defs>
  <clipPath id="r">
    <use xlink:href="#q" overflow="visible"/>
  </clipPath>
  <path fill="#F1526B" d="M612.8 355.5c-1.6.9-2.9 3.2-2.9 5.1 0 1.9 1.3 2.6 3 1.7 1.6-.9 2.9-3.2 2.9-5.1 0-1.9-1.4-2.7-3-1.7" clip-path="url(#r)"/>
  <defs>
    <path id="s" d="M568.6 426.1l26.9-15.7 31.5 18.2-26.9 15.7z"/>
  </defs>
  <clipPath id="t">
    <use xlink:href="#s" overflow="visible"/>
  </clipPath>
  <path fill="#0066AE" d="M627 428.6l-31.5-18.2-26.9 15.7 31.5 18.2 26.9-15.7" clip-path="url(#t)"/>
  <path fill="#97D2E8" d="M602.5 384.1l-23.1 13.4-25-14.4 23.2-13.4"/>
  <path fill="#43A4C9" d="M602.5 384.1v24.4L579.3 422l.1-24.5"/>
  <path fill="#EDF6F9" d="M579.4 397.5l-.1 24.5-24.9-14.4v-24.5"/>
  <defs>
    <path id="u" d="M591.6 404.3l-.1-6.5 3.2-1.8v6.5z"/>
  </defs>
  <clipPath id="v">
    <use xlink:href="#u" overflow="visible"/>
  </clipPath>
  <path fill="#FFF" d="M594.7 396l-3.2 1.8.1 6.5 3.1-1.8V396" clip-path="url(#v)"/>
  <defs>
    <path id="w" d="M584 413.4v-6.6l3.1-1.8v6.6z"/>
  </defs>
  <clipPath id="x">
    <use xlink:href="#w" overflow="visible"/>
  </clipPath>
  <path fill="#FFF" d="M587.1 405l-3.1 1.8v6.6l3.1-1.8V405" clip-path="url(#x)"/>
  <path fill="#F1526B" d="M593.3 381.3l.1 3.7-3.2 1.9"/>
  <path fill="#FFF5D4" d="M590.1 386.8l-4.8-2.8 3.2-5.5 4.8 2.8"/>
  <path fill="#F5967F" d="M589.9 385.6l-3.3-2 2.2-3.8 3.3 1.9M681 365l-16.9 9.8-14.2-8.3 16.8-9.7"/>
  <path fill="#FEF4F2" d="M664.1 374.8l-.1 32.3-14.2-8.2.1-32.4"/>
  <path fill="#F5967F" d="M664.7 354.6l-23.2 13.5-24.9-14.4 23.2-13.4"/>
  <path fill="#F1526B" d="M664.6 374.5l.1-19.9-23.2 13.5-.1 52.2 22.6-13.2 16.9-9.8.1-32.3"/>
  <path fill="#FFCABE" d="M641.5 368.1l-.1 52.2-25-14.4.2-52.2"/>
  <path fill="#FFE5A7" d="M638 346.9l-2 1.2-1.8-1.1 1.9-1.2"/>
  <path fill="#FFE29E" d="M638 346.9v9.8l-2 1.1v-9.7"/>
  <path fill="#FFF9EA" d="M636 348.1v9.7l-1.9-1 .1-9.8"/>
  <defs>
    <path id="y" d="M648.3 381v-6.6l3.1-1.8v6.6z"/>
  </defs>
  <clipPath id="z">
    <use xlink:href="#y" overflow="visible"/>
  </clipPath>
  <path fill="#FFF" d="M651.4 372.6l-3.1 1.8v6.6l3.1-1.8v-6.6" clip-path="url(#z)"/>
  <defs>
    <path id="A" d="M657.5 383.4v-6.5l3.1-1.9.1 6.6z"/>
  </defs>
  <clipPath id="B">
    <use xlink:href="#A" overflow="visible"/>
  </clipPath>
  <path fill="#FFF" d="M660.6 375l-3.1 1.9v6.5l3.2-1.8-.1-6.6" clip-path="url(#B)"/>
  <defs>
    <path id="C" d="M651.7 397.1v-6.6l3.1-1.8v6.6z"/>
  </defs>
  <clipPath id="D">
    <use xlink:href="#C" overflow="visible"/>
  </clipPath>
  <path fill="#FFF" d="M654.8 388.7l-3.1 1.8v6.6l3.1-1.8v-6.6" clip-path="url(#D)"/>
  <defs>
    <path id="E" d="M673.4 383.6v-6.5l3.1-1.9v6.6z"/>
  </defs>
  <clipPath id="F">
    <use xlink:href="#E" overflow="visible"/>
  </clipPath>
  <g clip-path="url(#F)">
    <path fill="#FFF" d="M676.5 375.2l-3.1 1.9v6.5l3.1-1.8v-6.6"/>
  </g>
  <defs>
    <path id="G" d="M668.4 396.6v-6.5l3.1-1.9v6.6z"/>
  </defs>
  <clipPath id="H">
    <use xlink:href="#G" overflow="visible"/>
  </clipPath>
  <g clip-path="url(#H)">
    <path fill="#FFF" d="M671.5 388.2l-3.1 1.9v6.5l3.1-1.8v-6.6"/>
  </g>
  <path fill="#97D2E8" d="M641.5 379.5l-14.5 8.4-29.4-17 14.5-8.4"/>
  <path fill="#43A4C9" d="M641.5 379.5l-.1 40.7-14.5 8.4.1-40.7"/>
  <path fill="#EDF6F9" d="M627 387.9l-.1 40.7-29.4-17 .1-40.7"/>
  <path fill="#F1526B" d="M630.6 376.1v3.7l-3.2 1.8"/>
  <path fill="#FFF5D4" d="M627.4 381.6l-4.8-2.8 3.2-5.5 4.8 2.8"/>
  <path fill="#F5967F" d="M627.2 380.3l-3.4-1.9 2.2-3.8 3.4 1.9"/>
  <defs>
    <path id="I" d="M629.4 411.9l-.1-19 4.9-2.8v19z"/>
  </defs>
  <clipPath id="J">
    <use xlink:href="#I" overflow="visible"/>
  </clipPath>
  <path fill="#FFF" d="M634.2 390.1l-4.9 2.8.1 19 4.8-2.8v-19" clip-path="url(#J)"/>
  <defs>
    <path id="K" d="M635 408.7l-.1-19 4.9-2.8v19z"/>
  </defs>
  <clipPath id="L">
    <use xlink:href="#K" overflow="visible"/>
  </clipPath>
  <path fill="#FFF" d="M639.8 386.9l-4.9 2.8.1 19 4.8-2.8v-19" clip-path="url(#L)"/>
  <path fill="#F5967F" d="M592.9 445.2l-63.8 37.1-64.2-37.1 63.8-37"/>
  <path fill="#F1526B" d="M592.9 445.2v3.3l-63.8 37.1v-3.3"/>
  <path fill="#FFCABE" d="M529.1 482.3v3.3l-64.3-37.1.1-3.3"/>
  <path fill="#97D2E8" d="M590.2 434.8l-61.1 35.5-61.5-35.5 61.1-35.5"/>
  <path fill="#43A4C9" d="M590.2 434.8l-.1 9-61.1 35.5.1-9"/>
  <path fill="#EDF6F9" d="M529.1 470.3l-.1 9-61.4-35.5v-9"/>
  <path fill="#FFDD8E" d="M538.8 366.6l-49.8 29-10.3-5.9 49.8-29"/>
  <path fill="#FFBD6A" d="M538.8 366.6l-.1 40.8-49.9 29 .2-40.8"/>
  <path fill="#FFF5D4" d="M489 395.6l-.2 40.8-10.2-6 .1-40.7"/>
  <path fill="#97D2E8" d="M497.5 383l-7.1 4.1-4.2-2.3 7.2-4.2"/>
  <path fill="#43A4C9" d="M497.5 383v4l-7.2 4.2.1-4.1"/>
  <path fill="#EEF7FA" d="M490.4 387.1l-.1 4.1-4.1-2.4v-4"/>
  <defs>
    <path id="M" d="M493.7 428.4v-11.3l16.3-9.4.1 11.3z"/>
  </defs>
  <clipPath id="N">
    <use xlink:href="#M" overflow="visible"/>
  </clipPath>
  <g clip-path="url(#N)">
    <path fill="#FFF" d="M510 407.7l-16.3 9.4v11.3l16.4-9.4-.1-11.3"/>
  </g>
  <defs>
    <path id="O" d="M516 420.6v-8.1l3.4-1.9v8z"/>
  </defs>
  <clipPath id="P">
    <use xlink:href="#O" overflow="visible"/>
  </clipPath>
  <g clip-path="url(#P)">
    <path fill="#F59680" d="M519.4 410.6l-3.4 1.9v8.1l3.4-2v-8"/>
  </g>
  <defs>
    <path id="Q" d="M493.7 428.4v-11.3l16.3-9.4.1 11.3z"/>
  </defs>
  <defs>
    <path id="S" d="M510 407.7l-16.3 9.4v11.3l16.4-9.4-.1-11.3"/>
  </defs>
  <clipPath id="R">
    <use xlink:href="#Q" overflow="visible"/>
  </clipPath>
  <clipPath id="T" clip-path="url(#R)">
    <use xlink:href="#S" overflow="visible"/>
  </clipPath>
  <g clip-path="url(#T)">
    <defs>
      <path id="U" d="M489.9 418.5v-4.2l18.8 10.8v4.2z"/>
    </defs>
    <clipPath id="V">
      <use xlink:href="#U" overflow="visible"/>
    </clipPath>
    <g clip-path="url(#V)">
      <path fill="#EBF6F9" d="M508.7 425.1l-18.8-10.8v4.2l18.8 10.8v-4.2"/>
    </g>
  </g>
  <g clip-path="url(#T)">
    <defs>
      <path id="W" d="M495.7 414.7v-4.2l18.8 10.9v4.2z"/>
    </defs>
    <clipPath id="X">
      <use xlink:href="#W" overflow="visible"/>
    </clipPath>
    <g clip-path="url(#X)">
      <path fill="#EBF6F9" d="M514.5 421.4l-18.8-10.9v4.2l18.8 10.9v-4.2"/>
    </g>
  </g>
  <g opacity="0.6">
    <defs>
      <path id="Y" d="M519.1 421.5l5.8-3.4 5.7 3.3-5.8 3.3z"/>
    </defs>
    <clipPath id="Z">
      <use xlink:href="#Y" overflow="visible"/>
    </clipPath>
    <g clip-path="url(#Z)">
      <path fill="#83BECC" d="M530.6 421.4l-5.7-3.3-5.8 3.4 5.7 3.2 5.8-3.3"/>
    </g>
  </g>
  <g opacity="0.6">
    <defs>
      <path id="aa" d="M526.1 425.5l5.8-3.3 5.7 3.3-5.8 3.3z"/>
    </defs>
    <clipPath id="ab">
      <use xlink:href="#aa" overflow="visible"/>
    </clipPath>
    <g clip-path="url(#ab)">
      <path fill="#83BECC" d="M537.6 425.5l-5.7-3.3-5.8 3.3 5.7 3.3 5.8-3.3"/>
    </g>
  </g>
  <g opacity="0.6">
    <defs>
      <path id="ac" d="M533.1 429.6l5.7-3.3 5.7 3.3-5.7 3.3z"/>
    </defs>
    <clipPath id="ad">
      <use xlink:href="#ac" overflow="visible"/>
    </clipPath>
    <g clip-path="url(#ad)">
      <path fill="#83BECC" d="M544.5 429.6l-5.7-3.3-5.7 3.3 5.7 3.3 5.7-3.3"/>
    </g>
  </g>
  <g opacity="0.6">
    <defs>
      <path id="ae" d="M512.2 425.5l5.7-3.3 5.7 3.3-5.8 3.3z"/>
    </defs>
    <clipPath id="af">
      <use xlink:href="#ae" overflow="visible"/>
    </clipPath>
    <g clip-path="url(#af)">
      <path fill="#83BECC" d="M523.6 425.5l-5.7-3.3-5.7 3.3 5.6 3.3 5.8-3.3"/>
    </g>
  </g>
  <g opacity="0.6">
    <defs>
      <path id="ag" d="M519.2 429.6l5.7-3.3 5.7 3.3-5.7 3.3z"/>
    </defs>
    <clipPath id="ah">
      <use xlink:href="#ag" overflow="visible"/>
    </clipPath>
    <g clip-path="url(#ah)">
      <path fill="#83BECC" d="M530.6 429.6l-5.7-3.3-5.7 3.3 5.7 3.3 5.7-3.3"/>
    </g>
  </g>
  <g opacity="0.6">
    <defs>
      <path id="ai" d="M526.1 433.7l5.7-3.4 5.7 3.3-5.7 3.4z"/>
    </defs>
    <clipPath id="aj">
      <use xlink:href="#ai" overflow="visible"/>
    </clipPath>
    <g clip-path="url(#aj)">
      <path fill="#83BECC" d="M537.5 433.6l-5.7-3.3-5.7 3.4 5.7 3.3 5.7-3.4"/>
    </g>
  </g>
  <g opacity="0.6">
    <defs>
      <path id="ak" d="M505.1 429.6l5.8-3.4 5.6 3.3-5.7 3.3z"/>
    </defs>
    <clipPath id="al">
      <use xlink:href="#ak" overflow="visible"/>
    </clipPath>
    <g clip-path="url(#al)">
      <path fill="#83BECC" d="M516.5 429.5l-5.6-3.3-5.8 3.4 5.7 3.2 5.7-3.3"/>
    </g>
  </g>
  <g opacity="0.6">
    <defs>
      <path id="am" d="M512.1 433.6l5.8-3.3 5.7 3.3-5.8 3.3z"/>
    </defs>
    <clipPath id="an">
      <use xlink:href="#am" overflow="visible"/>
    </clipPath>
    <g clip-path="url(#an)">
      <path fill="#83BECC" d="M523.6 433.6l-5.7-3.3-5.8 3.3 5.7 3.3 5.8-3.3"/>
    </g>
  </g>
  <g opacity="0.6">
    <defs>
      <path id="ao" d="M519.1 437.7l5.7-3.3 5.7 3.3-5.7 3.3z"/>
    </defs>
    <clipPath id="ap">
      <use xlink:href="#ao" overflow="visible"/>
    </clipPath>
    <g clip-path="url(#ap)">
      <path fill="#83BECC" d="M530.5 437.7l-5.7-3.3-5.7 3.3 5.7 3.3 5.7-3.3"/>
    </g>
  </g>
  <g opacity="0.6">
    <defs>
      <path id="aq" d="M498.1 433.6l5.8-3.3 5.7 3.3-5.8 3.3z"/>
    </defs>
    <clipPath id="ar">
      <use xlink:href="#aq" overflow="visible"/>
    </clipPath>
    <g clip-path="url(#ar)">
      <path fill="#83BECC" d="M509.6 433.6l-5.7-3.3-5.8 3.3 5.7 3.3 5.8-3.3"/>
    </g>
  </g>
  <g opacity="0.6">
    <defs>
      <path id="as" d="M505.1 437.7l5.8-3.3 5.7 3.3-5.8 3.3z"/>
    </defs>
    <clipPath id="at">
      <use xlink:href="#as" overflow="visible"/>
    </clipPath>
    <g clip-path="url(#at)">
      <path fill="#83BECC" d="M516.6 437.7l-5.7-3.3-5.8 3.3 5.7 3.3 5.8-3.3"/>
    </g>
  </g>
  <g opacity="0.6">
    <defs>
      <path id="au" d="M512.1 441.8l5.7-3.4 5.7 3.3-5.7 3.4z"/>
    </defs>
    <clipPath id="av">
      <use xlink:href="#au" overflow="visible"/>
    </clipPath>
    <g clip-path="url(#av)">
      <path fill="#83BECC" d="M523.5 441.7l-5.7-3.3-5.7 3.4 5.7 3.3 5.7-3.4"/>
    </g>
  </g>
  <g opacity="0.6">
    <defs>
      <path id="aw" d="M490.9 437.7l5.7-3.3 5.7 3.2-5.7 3.4z"/>
    </defs>
    <clipPath id="ax">
      <use xlink:href="#aw" overflow="visible"/>
    </clipPath>
    <g clip-path="url(#ax)">
      <path fill="#83BECC" d="M502.3 437.6l-5.7-3.2-5.7 3.3 5.7 3.3 5.7-3.4"/>
    </g>
  </g>
  <g opacity="0.6">
    <defs>
      <path id="ay" d="M497.9 441.8l5.7-3.4 5.7 3.3-5.7 3.4z"/>
    </defs>
    <clipPath id="az">
      <use xlink:href="#ay" overflow="visible"/>
    </clipPath>
    <g clip-path="url(#az)">
      <path fill="#83BECC" d="M509.3 441.7l-5.7-3.3-5.7 3.4 5.7 3.3 5.7-3.4"/>
    </g>
  </g>
  <g opacity="0.6">
    <defs>
      <path id="aA" d="M504.8 445.8l5.7-3.3 5.7 3.3-5.7 3.3z"/>
    </defs>
    <clipPath id="aB">
      <use xlink:href="#aA" overflow="visible"/>
    </clipPath>
    <g clip-path="url(#aB)">
      <path fill="#83BECC" d="M516.2 445.8l-5.7-3.3-5.7 3.3 5.7 3.3 5.7-3.3"/>
    </g>
  </g>
  <g opacity="0.6">
    <defs>
      <path id="aC" d="M525.9 441.8l5.8-3.4 5.7 3.3-5.8 3.4z"/>
    </defs>
    <clipPath id="aD">
      <use xlink:href="#aC" overflow="visible"/>
    </clipPath>
    <g clip-path="url(#aD)">
      <path fill="#83BECC" d="M537.4 441.7l-5.7-3.3-5.8 3.4 5.7 3.3 5.8-3.4"/>
    </g>
  </g>
  <g opacity="0.6">
    <defs>
      <path id="aE" d="M519 445.8l5.7-3.3 5.7 3.3-5.7 3.3z"/>
    </defs>
    <clipPath id="aF">
      <use xlink:href="#aE" overflow="visible"/>
    </clipPath>
    <g clip-path="url(#aF)">
      <path fill="#83BECC" d="M530.4 445.8l-5.7-3.3-5.7 3.3 5.7 3.3 5.7-3.3"/>
    </g>
  </g>
  <g opacity="0.6">
    <defs>
      <path id="aG" d="M511.7 449.9l5.7-3.3 5.7 3.3-5.7 3.3z"/>
    </defs>
    <clipPath id="aH">
      <use xlink:href="#aG" overflow="visible"/>
    </clipPath>
    <g clip-path="url(#aH)">
      <path fill="#83BECC" d="M523.1 449.9l-5.7-3.3-5.7 3.3 5.7 3.3 5.7-3.3"/>
    </g>
  </g>
  <g opacity="0.6">
    <defs>
      <path id="aI" d="M533.1 445.8l5.7-3.3 5.7 3.3-5.7 3.3z"/>
    </defs>
    <clipPath id="aJ">
      <use xlink:href="#aI" overflow="visible"/>
    </clipPath>
    <g clip-path="url(#aJ)">
      <path fill="#83BECC" d="M544.5 445.8l-5.7-3.3-5.7 3.3 5.7 3.3 5.7-3.3"/>
    </g>
  </g>
  <g opacity="0.6">
    <defs>
      <path id="aK" d="M525.9 449.9l5.8-3.3 5.7 3.3-5.8 3.3z"/>
    </defs>
    <clipPath id="aL">
      <use xlink:href="#aK" overflow="visible"/>
    </clipPath>
    <g clip-path="url(#aL)">
      <path fill="#83BECC" d="M537.4 449.9l-5.7-3.3-5.8 3.3 5.7 3.3 5.8-3.3"/>
    </g>
  </g>
  <g opacity="0.6">
    <defs>
      <path id="aM" d="M518.8 454l5.8-3.3 5.7 3.2-5.8 3.4z"/>
    </defs>
    <clipPath id="aN">
      <use xlink:href="#aM" overflow="visible"/>
    </clipPath>
    <g clip-path="url(#aN)">
      <path fill="#83BECC" d="M530.3 453.9l-5.7-3.2-5.8 3.3 5.7 3.3 5.8-3.4"/>
    </g>
  </g>
  <path fill="#FFF5D4" d="M544.5 402.9v24.5l-20.2-11.7.1-24.4"/>
  <path fill="#FFE9BC" d="M545.4 408.9v24.5l-.9-6v-24.5"/>
  <path fill="#FFDD8E" d="M580.9 407.4l-14.2 8.3-14.1 8.1-16.5-9.6 9.3-5.3-.9-6-20.1-11.6 14.3-8.3"/>
  <path fill="#FFBD6A" d="M552.6 423.8l-.1 24.4 28.4-16.4v-24.4"/>
  <path fill="#FFF5D4" d="M552.6 423.8l-.1 24.4-16.4-9.5v-24.5"/>
  <path fill="#FFCABE" d="M544.6 399.6v4.1l-20.2-11.6V388"/>
  <path fill="#F9C3B5" d="M545.5 405.6v4.1l-.9-6v-4.1"/>
  <path fill="#F5967F" d="M581 404.1l-14.3 8.3-14 8.1-16.5-9.5 9.3-5.4-.9-6-20.2-11.6 14.3-8.3"/>
  <path fill="#F1526B" d="M552.7 420.5v4.1l28.3-16.4v-4.1"/>
  <path fill="#FFCABE" d="M552.7 420.5v4.1l-16.5-9.5V411"/>
  <path fill="#97D2E8" d="M571.6 400.5l-4.1 2.3-7.2-4.1 4.1-2.4"/>
  <path fill="#43A4C9" d="M571.6 400.5v4l-4.1 2.4v-4.1"/>
  <path fill="#EEF7FA" d="M567.5 402.8v4.1l-7.2-4.2v-4"/>
  <defs>
    <path id="aO" d="M539.8 430.1v-6.6l2.5 1.5v6.6z"/>
  </defs>
  <clipPath id="aP">
    <use xlink:href="#aO" overflow="visible"/>
  </clipPath>
  <g clip-path="url(#aP)">
    <path fill="#F59680" d="M542.3 425l-2.5-1.5v6.6l2.5 1.5V425"/>
  </g>
  <defs>
    <path id="aQ" d="M544.6 436l.1-6.6 2.4 1.4v6.6z"/>
  </defs>
  <clipPath id="aR">
    <use xlink:href="#aQ" overflow="visible"/>
  </clipPath>
  <g clip-path="url(#aR)">
    <path fill="#F59680" d="M547.1 430.8l-2.4-1.4-.1 6.6 2.5 1.4v-6.6"/>
  </g>
  <path fill="#F5967F" d="M518.9 442.1l-4.1 2.4-7.2-4.2 4.1-2.3"/>
  <path fill="#F1526B" d="M518.9 442.1v4.1l-4.1 2.4v-4.1"/>
  <path fill="#FFCABE" d="M514.8 444.5v4.1l-7.2-4.2v-4.1"/>
  <path fill="#FFDD8E" d="M511.2 444.2l-4.1 2.4-7.2-4.2 4.1-2.4"/>
  <path fill="#FFBD6A" d="M511.2 444.2v4l-4.1 2.4v-4"/>
  <path fill="#FFF5D4" d="M507.1 446.6v4l-7.3-4.1.1-4.1"/>
  <path fill="#F5967F" d="M521.6 448.7l-4.1 2.4-7.2-4.1 4.1-2.4"/>
  <path fill="#F1526B" d="M521.5 448.7l.1 4.1-4 2.5-.1-4.1"/>
  <path fill="#FFCABE" d="M517.5 451.1v4.1l-7.2-4.2v-4"/>
  <path fill="#FFDD8E" d="M521.1 444.8l-3.7 2.1-6.6-3.8 3.7-2.1"/>
  <path fill="#FFBD6A" d="M521.1 444.8v3.7l-3.8 2.2.1-3.8"/>
  <path fill="#FFF5D4" d="M517.4 446.9l-.1 3.8-6.5-3.8v-3.8"/>
  <path fill="#F5967F" d="M575.2 431.5c.1 0 .1.1 0 .1h-.2s-.1-.1 0-.1h.2zm.1.1v8.2s0 .1-.1.1h-.2s-.1 0-.1-.1v-8.2s0 .1.1.1.2 0 .3-.1c0 .1 0 0 0 0z"/>
  <g fill="#F5967F">
    <path d="M569 435.2c.1 0 .1.1 0 .1h-.3c-.1 0-.1-.1 0-.1.1-.1.2-.1.3 0z"/>
    <path d="M569 435.2v8.3h-.3v-8.3.1c.1.1.2.1.3-.1 0 .1 0 .1 0 0z"/>
  </g>
  <defs>
    <path id="aS" d="M563.9 440.3v-6.7l12.8-7.3v6.6z"/>
  </defs>
  <clipPath id="aT">
    <use xlink:href="#aS" overflow="visible"/>
  </clipPath>
  <g clip-path="url(#aT)">
    <path fill="#FFF" d="M568.8 433.6c-.1.1-.2.1-.2.1v1.2s.1 0 .2-.1c.4-.2.6-.6.6-1 0-.2-.2-.4-.6-.2m1.5-.8c-.3.2-.4.5-.4.9 0 .3.1.5.4.4.3-.2.4-.5.4-.9 0-.3-.1-.6-.4-.4m1.6.2v-1.2l.2-.1v1.5l-.2.1-.4-.5c-.1-.1-.2-.2-.2-.4v1.2l-.2.1v-1.5l.2-.1.4.5c.1.1.2.2.2.4m.9-.4c.2-.1.3-.3.3-.7v-.9l.2-.1v.9c0 .5-.2.8-.5.9-.3.2-.5.1-.5-.4v-.9l.2-.1v.9c0 .4.2.5.3.4m.7-1.6v-.2l1-.6v.2l-.4.2v1.3l-.2.1v-1.3l-.4.3m-4.7 4c-.1.1-.2.1-.3.2v-1.5c.1-.1.2-.2.4-.2.2-.1.4-.2.5-.1.1.1.2.2.2.4s-.1.5-.2.7c-.2.2-.4.4-.6.5m1.5-.8c-.3.2-.6 0-.6-.4 0-.5.3-.9.6-1.1.4-.2.6 0 .6.4 0 .5-.3.9-.6 1.1m4.5-2.8c.2-.1.3-.3.3-.4 0-.1-.1-.2-.2-.2-.2 0-.3 0-.3-.2s.2-.5.4-.7c.1-.1.2-.1.3-.1l-.1.2s-.1 0-.2.1c-.2.1-.2.3-.2.4 0 .1.1.2.3.1.2 0 .3 0 .3.2s-.2.5-.5.7c-.1.1-.3.1-.3.1v-.2c0 .1.1.1.2 0m1.9-3.7l-9.9 5.7.1 4 9.9-5.7-.1-4m-10 4.3l-2.8 5 2.9 1.6v-5.1l-.1-1.5"/>
    <path fill="#F69E89" d="M568.8 434.9c-.1 0-.1.1-.2.1v-1.2s.1-.1.2-.1c.4-.2.5-.1.5.3.1.3-.1.7-.5.9m0-1.4c-.1.1-.3.2-.4.2v1.5c.1 0 .2-.1.3-.2.2-.1.5-.3.6-.5.1-.2.2-.4.2-.7 0-.2-.1-.4-.2-.4 0-.1-.2 0-.5.1m1.5.5c-.3.2-.4 0-.4-.4 0-.3.1-.7.4-.9s.4.1.4.4c0 .4-.1.8-.4.9m0-1.4c-.3.2-.6.7-.6 1.1 0 .5.2.6.6.4.3-.2.6-.6.6-1.1 0-.4-.3-.6-.6-.4m1.8-1l-.2.1v1.2c-.1-.1-.1-.2-.2-.3l-.4-.5-.2.1v1.5l.2-.1v-1.2c.1.1.2.2.2.4l.4.5.2-.1v-1.6m1.2-.7l-.2.1v.9c0 .3-.1.5-.3.7-.2.1-.3 0-.3-.3v-.9l-.2.1v.9c0 .5.2.5.5.4.3-.2.5-.5.5-.9v-1m1.1-.6l-.9.5v.2l.3-.2.1 1.3.1-.1v-1.3l.4-.3v-.1m.5-.3c-.3.1-.4.4-.4.7 0 .2.1.3.3.2.2 0 .2 0 .2.2 0 .1-.1.3-.3.4-.1.1-.2.1-.3.1v.2c.1 0 .2 0 .3-.1.3-.2.5-.5.5-.7 0-.2-.1-.3-.3-.2-.2 0-.3 0-.3-.1s.1-.3.2-.4c.1-.1.2-.1.2-.1l.1-.2c.1-.1 0-.1-.2 0"/>
  </g>
  <defs>
    <path id="aU" d="M494.4 409.4v-4.2l13.6-7.9v4.3z"/>
  </defs>
  <clipPath id="aV">
    <use xlink:href="#aU" overflow="visible"/>
  </clipPath>
  <g clip-path="url(#aV)">
    <path fill="#FFF" d="M507.1 397.8l-11.8 6.8c-.5.3-.9 1.5-.9 2.7 0 1.2.4 1.9.9 1.6l11.8-6.8c.5-.3.9-1.5.9-2.7 0-1.2-.4-1.9-.9-1.6"/>
  </g>
  <defs>
    <path id="aW" d="M497.2 410.1v-9.7l8.5-4.9v9.7z"/>
  </defs>
  <clipPath id="aX">
    <use xlink:href="#aW" overflow="visible"/>
  </clipPath>
  <g clip-path="url(#aX)">
    <path fill="#F1526B" d="M501.8 406.7l-.4-.3.8-1.6.4.3-.8 1.6m-2.9-.9l-.9-.4.4-.8.9.4-.4.8m5.1-3.5l-.3-1.4.7-.6.3 1.4-.7.6m-2.5 1.9c-.7.4-1.2.1-1.2-.7 0-.8.5-1.7 1.2-2.1.7-.4 1.2-.1 1.2.7 0 .8-.6 1.7-1.2 2.1m-1.8-2.5l-.4-.2.8-1.4.4.2-.8 1.4m1.7-3.8c-2.3 1.3-4.2 4.6-4.2 7.3s1.9 3.8 4.2 2.4 4.2-4.6 4.2-7.3c0-.7-.1-1.3-.4-1.8-.2.2-.4.4-.6.5-.6.3-1.1.1-1.1-.6-.1.1-.2.2-.3.2-.6.3-1.1.1-1.1-.6 0-.2 0-.4.1-.6-.1.2-.4.3-.8.5"/>
  </g>
  <path fill="#3F3F3F" d="M522.4 428.2s-.3-1.4.9-1.7c0 0 1.1-.2 1.1 1.2 0 0 .1 1.1-.7 1.2 0-.1-1 .1-1.3-.7z"/>
  <ellipse cx="523.3" cy="427.4" fill="#FFF" rx="0.7" ry="0.8"/>
  <path fill="#3F3F3F" d="M523.6 426.7s-.1.8-1 .7c0 0 0-1 1-.7z"/>
  <path fill="#FFF" d="M523.4 428.2v.3l-.4.2s-.1.7.4.6c0 0 .7 0 .6-.6l-.3-.2v-.4l-.3.1zm-.5 4.5l.1 2.7s0 .1.1.2c.1 0 .2-.1.2-.1v-2.7h-.4zm.7 0l.1 2.7s0 .1.1.2c.1 0 .2-.1.2-.1v-2.7h-.4z"/>
  <path fill="#F5967F" d="M523 428.7s-.2 0-.2.2l-.1 3.9h1.7l-.1-4.1s-.1-.1-.2-.1c0 0 0 .4-.4.4-.3.1-.7.1-.7-.3z"/>
  <path fill="#FFF" d="M522.7 428.9s-.4 1.8-.4 2.9c0 0 0 .2.1.2 0 0 .2 0 .2-.2 0 .1.1-2.9.1-2.9zm1.4-.2l.1 3.3s0 .2.2.2.1-.1.1-.2-.1-2.8-.1-2.8-.1-.4-.3-.5z"/>
  <ellipse cx="520.7" cy="426.4" fill="#FFF" rx="0.7" ry="0.8"/>
  <path fill="#FFE29D" d="M521.8 425.8s0 .5-.8.5-.8-.4-.8-.4l-.2.2s-.2-.2.1-.6c0 0 .6-.5.9.1.3.3.8.2.8.2z"/>
  <path fill="#FFF" d="M520.6 427.1v.3s.4-.1.6.1c0 0 0 .5-.6.4s-.6-.5-.6-.5.3-.1.4 0v-.4l.2.1zm.9 1.9v2.6s0 .3-.2.2c-.2 0-.2-.2-.2-.2v-2.7l.4.1zm-1.4 3.4l-.1 2.6s0 .3-.2.2c-.2 0-.2-.2-.2-.2l.1-2.7.4.1zm1.1-.1l.2 2.6s0 .3-.1.3c-.2 0-.2-.2-.2-.2l-.2-2.7h.3z"/>
  <path fill="#0066AE" d="M521.2 430.7l.2 2.2h-.6v-1.7h-.6v1.7h-.6v-2.2"/>
  <path fill="#BCE5EC" d="M521 427.5s.6 0 .6 1.7h-.4v1.7h-1.5v-1.6l-.4-.1s-.2-1.6.7-1.7c0 0-.1.4.4.4.1 0 .6 0 .6-.4z"/>
  <path fill="#FFF" d="M519.8 429.2v2.6s0 .3-.2.2c-.2 0-.2-.2-.2-.2v-2.7l.4.1z"/>
  <circle cx="520.4" cy="426.4" r="0.1" fill="#3F3F3F"/>
  <circle cx="521" cy="426.4" r="0.1" fill="#3F3F3F"/>
</svg>
