<?xml version="1.0" encoding="utf-8"?>
<!-- Generator: Adobe Illustrator 19.0.1, SVG Export Plug-In . SVG Version: 6.00 Build 0)  -->
<svg version="1.1" id="Calque_1" xmlns="http://www.w3.org/2000/svg" xmlns:xlink="http://www.w3.org/1999/xlink" x="0px" y="0px"
	 viewBox="0 0 54.2 67.3" style="enable-background:new 0 0 54.2 67.3;" xml:space="preserve">
<style type="text/css">
	.st0{fill:#FFEBD3;}
	.st1{fill:#FCBD87;}
	.st2{fill:#F6995E;}
	.st3{fill:#2D5C6B;}
	.st4{fill:#4696B2;}
	.st5{opacity:0.5;fill:#0D2F49;}
	.st6{opacity:0.3;fill:#0D2D44;}
	.st7{fill:#82D5E8;}
</style>
<path class="st0" d="M6.4,61.3h7.8h2.4c3.1,0,6.1,1.3,8.2,3.6l2.3,2.4l2.3-2.4c2.1-2.3,5.1-3.6,8.2-3.6H40h7.8
	c3.5,0,6.4-2.9,6.4-6.4V0H0v54.9C0,58.4,2.9,61.3,6.4,61.3z"/>
<circle class="st1" cx="27.1" cy="35.8" r="18"/>
<g>
	<circle class="st2" cx="27.1" cy="35.8" r="10.7"/>
</g>
<g>
	<g>
		<path class="st3" d="M42.4,47.7C42.4,47.7,42.4,47.7,42.4,47.7C42.1,47.7,42.1,47.7,42.4,47.7z"/>
		<path class="st3" d="M54.2,48.4V35.8c-1.1-0.1-2.2-0.1-3.4-0.1c-12.4,0-21,2.8-30.1,5.7c7.7,1.4,14.6,4,21.7,6.3
			c0.4,0,1.4-0.1,2.5-0.1C47.9,47.6,51.1,47.9,54.2,48.4z"/>
	</g>
	<path class="st4" d="M42.4,47.7c-10.3-3.4-20.1-7.3-32.5-7.3c-3.5,0-6.8,0.5-9.9,1.3v13.2c0,0.9,0.2,1.7,0.5,2.5
		c4-0.8,8-1.8,12.1-2.8C21.8,52.2,30.5,48.2,42.4,47.7z"/>
	<path class="st5" d="M54.2,51.3v-7.2c-12.4-0.9-21.9-2.7-33.1-2.7c0,0,0,0,0,0c7.9,1.5,15.1,4.3,22.5,6.7
		C47.1,49.2,50.5,50.3,54.2,51.3z"/>
	<path class="st6" d="M36,48.3C22.2,49,10.9,51,0,51.9v3c0,0.9,0.2,1.7,0.5,2.5c4-0.8,8-1.8,12.1-2.8C20.1,52.6,27.2,49.6,36,48.3z"
		/>
	<path class="st7" d="M44.8,47.6c-13.2,0-22.4,4.4-32.2,6.9c-4.1,1-8,2-12.1,2.8c1,2.3,3.2,3.9,5.9,3.9h7.8h2.4
		c3.1,0,6.1,1.3,8.2,3.6l2.3,2.4l2.3-2.4c2.1-2.3,5.1-3.6,8.2-3.6H40h7.8c3.5,0,6.4-2.9,6.4-6.4v-6.4C51.1,47.9,47.9,47.6,44.8,47.6
		z"/>
</g>
</svg>
