<?xml version="1.0" encoding="utf-8"?>
<!-- Generator: Adobe Illustrator 19.0.1, SVG Export Plug-In . SVG Version: 6.00 Build 0)  -->
<svg version="1.1" xmlns="http://www.w3.org/2000/svg" xmlns:xlink="http://www.w3.org/1999/xlink" x="0px" y="0px"
	 viewBox="-682 364 74 74" enable-background="new -682 364 74 74" xml:space="preserve">
<g id="Contour">
	<g>
		<path d="M-645,376c13.8,0,25,11.2,25,25s-11.2,25-25,25s-25-11.2-25-25S-658.8,376-645,376 M-645,375c-14.4,0-26,11.6-26,26
			s11.6,26,26,26s26-11.6,26-26S-630.6,375-645,375L-645,375z"/>
	</g>
	<path d="M-609.8,412.5L-609.8,412.5c1.1-3.6,1.8-7.5,1.8-11.5c0-4.4-0.8-8.7-2.2-12.6c0.8-0.3,1.1-1.2,0.8-1.9
		c-3.9-9.5-11.2-17-20.7-20.9c-0.8-0.3-1.6,0-2,0.8l0,0c-4-1.6-8.4-2.4-12.9-2.4c-4.6,0-8.9,0.8-12.9,2.3l0,0
		c-0.3-0.8-1.2-1.1-2-0.8c-9.5,4-16.8,11.4-20.7,20.9c-0.3,0.8,0.1,1.6,0.8,2l0,0c-1.4,3.9-2.2,8.2-2.2,12.6c0,4,0.6,7.9,1.8,11.5
		h-0.1c-0.8,0.3-1.2,1.2-0.9,1.9c3.7,9.7,10.9,17.3,20.2,21.6c0.2,0.1,0.4,0.1,0.6,0.1c0.6,0,1.1-0.3,1.3-0.8
		c4.4,1.7,9.1,2.7,14.1,2.7c4.9,0,9.7-1,14-2.7c0.3,0.5,0.8,0.8,1.3,0.8c0.2,0,0.4,0,0.6-0.1c9.4-4.2,16.5-11.9,20.2-21.5
		C-608.6,413.7-609,412.8-609.8,412.5z M-680,401c0-19.3,15.7-35,35-35s35,15.7,35,35s-15.7,35-35,35S-680,420.3-680,401z"/>
</g>
<g id="Lock">
	<path d="M-640,399h-1v-4c0-2.2-1.8-4-4-4s-4,1.8-4,4v4h-1c-1.1,0-2,0.9-2,2v8c0,1.1,0.9,2,2,2h10c1.1,0,2-0.9,2-2v-8
		C-638,399.9-638.9,399-640,399z M-647,395c0-1.1,0.9-2,2-2s2,0.9,2,2v4h-4V395z"/>
</g>
</svg>
