<?xml version="1.0" encoding="utf-8"?>
<!-- Generator: Adobe Illustrator 19.0.1, SVG Export Plug-In . SVG Version: 6.00 Build 0)  -->
<svg version="1.1" id="Calque_1" xmlns="http://www.w3.org/2000/svg" xmlns:xlink="http://www.w3.org/1999/xlink" x="0px" y="0px"
	 viewBox="0 0 74 74" enable-background="new 0 0 74 74" xml:space="preserve">
<g>
	<path d="M37,12c13.8,0,25,11.2,25,25S50.8,62,37,62S12,50.8,12,37S23.2,12,37,12 M37,11c-14.4,0-26,11.6-26,26s11.6,26,26,26
		c14.4,0,26-11.6,26-26S51.4,11,37,11L37,11z"/>
</g>
<path d="M72.2,48.5C72.2,48.5,72.2,48.5,72.2,48.5C73.3,44.9,74,41,74,37c0-4.4-0.8-8.7-2.2-12.6c0.8-0.3,1.1-1.2,0.8-1.9
	c-3.9-9.5-11.2-17-20.7-20.9c-0.8-0.3-1.6,0-2,0.8c0,0,0,0,0,0C45.9,0.8,41.5,0,37,0c-4.6,0-8.9,0.8-12.9,2.3c0,0,0,0,0,0
	c-0.3-0.8-1.2-1.1-2-0.8c-9.5,4-16.8,11.4-20.7,20.9c-0.3,0.8,0.1,1.6,0.8,2c0,0,0,0,0,0C0.8,28.3,0,32.6,0,37c0,4,0.6,7.9,1.8,11.5
	c0,0-0.1,0-0.1,0c-0.8,0.3-1.2,1.2-0.9,1.9C4.5,60.1,11.7,67.7,21,72c0.2,0.1,0.4,0.1,0.6,0.1c0.6,0,1.1-0.3,1.3-0.8
	C27.3,73,32,74,37,74c4.9,0,9.7-1,14-2.7c0.3,0.5,0.8,0.8,1.3,0.8c0.2,0,0.4,0,0.6-0.1c9.4-4.2,16.5-11.9,20.2-21.5
	C73.4,49.7,73,48.8,72.2,48.5z M2,37C2,17.7,17.7,2,37,2s35,15.7,35,35S56.3,72,37,72S2,56.3,2,37z"/>
</svg>
