<?xml version="1.0" encoding="utf-8"?>
<!-- Generator: Adobe Illustrator 19.0.1, SVG Export Plug-In . SVG Version: 6.00 Build 0)  -->
<svg version="1.1" id="Calque_1" xmlns="http://www.w3.org/2000/svg" xmlns:xlink="http://www.w3.org/1999/xlink" x="0px" y="0px"
	 viewBox="0 0 58 58" enable-background="new 0 0 58 58" xml:space="preserve">
<path d="M29,15c3.7,0,7.3,1.5,9.9,4.1c5.5,5.5,5.5,14.3,0,19.8C36.3,41.5,32.7,43,29,43c-3.7,0-7.3-1.5-9.9-4.1
	c-5.5-5.5-5.5-14.3,0-19.8C21.7,16.5,25.3,15,29,15 M29,14c-3.8,0-7.7,1.5-10.6,4.4c-5.9,5.9-5.9,15.4,0,21.2
	C21.3,42.5,25.2,44,29,44s7.7-1.5,10.6-4.4c5.9-5.9,5.9-15.4,0-21.2C36.7,15.5,32.8,14,29,14L29,14z"/>
<path d="M56.3,38.8C56.3,38.8,56.3,38.8,56.3,38.8c1.1-3.1,1.7-6.4,1.7-9.8c0-3.5-0.6-6.8-1.7-9.8c0,0,0,0,0,0
	c0.8-0.3,1.1-1.2,0.8-2C54,9.7,48.1,3.8,40.5,0.8c-0.8-0.3-1.6,0.1-2,0.8c0,0,0,0,0,0c-3-1-6.2-1.6-9.6-1.6c-3,0-6,0.5-8.7,1.3
	c0,0,0-0.1,0-0.1c-0.3-0.8-1.2-1.2-1.9-0.9c-7.6,2.9-13.7,8.6-17,16c-0.3,0.7,0,1.6,0.7,2C0.7,21.6,0,25.2,0,29
	c0,3.8,0.7,7.4,2,10.6c-0.7,0.4-1.1,1.2-0.7,2c3.4,7.4,9.4,13.1,17,16c0.2,0.1,0.4,0.1,0.5,0.1c0.6,0,1.2-0.4,1.4-1c0,0,0,0,0-0.1
	C23,57.5,26,58,29,58c3.4,0,6.6-0.6,9.6-1.6c0,0,0,0,0,0c0.2,0.6,0.8,0.9,1.4,0.9c0.2,0,0.4,0,0.6-0.1c7.5-3.1,13.4-8.9,16.6-16.4
	C57.4,40,57.1,39.1,56.3,38.8z M2,29C2,14.1,14.1,2,29,2s27,12.1,27,27c0,14.9-12.1,27-27,27S2,43.9,2,29z"/>
</svg>
