<?xml version="1.0" encoding="utf-8"?>
<!-- Generator: Adobe Illustrator 19.0.1, SVG Export Plug-In . SVG Version: 6.00 Build 0)  -->
<svg version="1.1" id="Calque_1" xmlns="http://www.w3.org/2000/svg" xmlns:xlink="http://www.w3.org/1999/xlink" x="0px" y="0px"
	 viewBox="-269 360 73 73" enable-background="new -269 360 73 73" xml:space="preserve">
<path id="Sombre" opacity="0.5" fill="#2D2E3A" enable-background="new    " d="M-232.5,361.5c-19.3,0-35,15.7-35,35s15.7,35,35,35
	s35-15.7,35-35S-213.2,361.5-232.5,361.5z M-232.5,419.5c-12.7,0-23-10.3-23-23s10.3-23,23-23s23,10.3,23,23
	S-219.8,419.5-232.5,419.5z"/>
<path id="BLanc_clair" opacity="0.35" fill="#FFFFFF" enable-background="new    " d="M-232.5,361.5c-19.3,0-35,15.7-35,35
	s15.7,35,35,35s35-15.7,35-35S-213.2,361.5-232.5,361.5z"/>
<circle id="Orange" fill="none" stroke="#FF5951" stroke-width="12" stroke-miterlimit="10" cx="-232.5" cy="396.5" r="28.2"/>
<circle id="Blanc_contour" fill="none" stroke="#FFFFFF" stroke-width="3" stroke-miterlimit="10" cx="-232.5" cy="396.5" r="35"/>
<circle id="Blanc_centre" fill="#FFFFFF" cx="-232.5" cy="396.5" r="23"/>
<line id="Trait1" fill="none" stroke="#FFFFFF" stroke-miterlimit="10" x1="-232.5" y1="361.5" x2="-232.5" y2="375.1"/>
<line id="Trait_2" fill="none" stroke="#FFFFFF" stroke-miterlimit="10" x1="-265.9" y1="385.9" x2="-252.7" y2="389.9"/>
<line id="Trait_3" fill="none" stroke="#FFFFFF" stroke-miterlimit="10" x1="-199.1" y1="385.9" x2="-212.2" y2="389.9"/>
<line id="Trait_4" fill="none" stroke="#FFFFFF" stroke-miterlimit="10" x1="-252.9" y1="424.9" x2="-245.2" y2="414"/>
<line id="Trait_5" fill="none" stroke="#FFFFFF" stroke-miterlimit="10" x1="-212.1" y1="424.9" x2="-219.9" y2="413.8"/>
</svg>
