<?xml version="1.0" encoding="utf-8"?>
<!-- Generator: Adobe Illustrator 19.0.1, SVG Export Plug-In . SVG Version: 6.00 Build 0)  -->
<svg version="1.1" id="Calque_1" xmlns="http://www.w3.org/2000/svg" xmlns:xlink="http://www.w3.org/1999/xlink" x="0px" y="0px"
	 viewBox="-225.7 360.7 98.4 74" style="enable-background:new -225.7 360.7 98.4 74;" xml:space="preserve">
<g>
	<path d="M-219.3,388.7h-4.8c-0.9,0-1.6-0.7-1.6-1.6v-24.8c0-0.9,0.7-1.6,1.6-1.6h24.8c0.9,0,1.6,0.7,1.6,1.6v4.8
		c0,0.9-0.7,1.6-1.6,1.6h-16.8c-0.9,0-1.6,0.7-1.6,1.6v16.8C-217.7,387.9-218.4,388.7-219.3,388.7z"/>
</g>
<g>
	<path d="M-199.3,434.7h-24.8c-0.9,0-1.6-0.7-1.6-1.6v-24.8c0-0.9,0.7-1.6,1.6-1.6h4.8c0.9,0,1.6,0.7,1.6,1.6v16.8
		c0,0.9,0.7,1.6,1.6,1.6h16.8c0.9,0,1.6,0.7,1.6,1.6v4.8C-197.7,433.9-198.4,434.7-199.3,434.7z"/>
</g>
<g>
	<path d="M-128.9,434.7h-24.8c-0.9,0-1.6-0.7-1.6-1.6v-4.8c0-0.9,0.7-1.6,1.6-1.6h16.8c0.9,0,1.6-0.7,1.6-1.6v-16.8
		c0-0.9,0.7-1.6,1.6-1.6h4.8c0.9,0,1.6,0.7,1.6,1.6v24.8C-127.3,433.9-128.1,434.7-128.9,434.7z"/>
</g>
<g>
	<path d="M-128.9,388.7h-4.8c-0.9,0-1.6-0.7-1.6-1.6v-16.8c0-0.9-0.7-1.6-1.6-1.6h-16.8c-0.9,0-1.6-0.7-1.6-1.6v-4.8
		c0-0.9,0.7-1.6,1.6-1.6h24.8c0.9,0,1.6,0.7,1.6,1.6v24.8C-127.3,387.9-128.1,388.7-128.9,388.7z"/>
</g>
</svg>
