<?xml version="1.0" encoding="utf-8"?>
<!-- Generator: Adobe Illustrator 19.0.1, SVG Export Plug-In . SVG Version: 6.00 Build 0)  -->
<svg version="1.1" id="Calque_1" xmlns="http://www.w3.org/2000/svg" xmlns:xlink="http://www.w3.org/1999/xlink" x="0px" y="0px"
	 viewBox="-711 390 16 22" enable-background="new -711 390 16 22" xml:space="preserve">
<path d="M-698.1,399h-1v-4c0-2.2-1.8-4-4-4c-2.2,0-4,1.8-4,4v4h-1c-1.1,0-2,0.9-2,2v8c0,1.1,0.9,2,2,2h10c1.1,0,2-0.9,2-2v-8
	C-696.1,399.9-697,399-698.1,399z M-705.1,395c0-1.1,0.9-2,2-2s2,0.9,2,2v4h-4V395z"/>
</svg>
