<svg version="1.1" xmlns="http://www.w3.org/2000/svg" xmlns:xlink="http://www.w3.org/1999/xlink" x="0px" y="0px"
	 viewBox="0 0 1024 768" enable-background="new 0 0 1024 768" xml:space="preserve">
<g id="Plan">
	<polygon fill="#444444" points="510.9,155.7 20.6,442.8 510.9,724 1003.1,439.8 	"/>
</g>
<g id="Bleu">
	<g>
		<g enable-background="new    ">
			<g>
				<polygon fill="#218CC1" points="685.9,85.8 686.6,308.3 609.4,352.9 608.8,130.3 				"/>
			</g>
			<g>
				<polygon fill="#176185" points="609.4,352.9 531.9,307.8 531.3,85.3 608.8,130.3 				"/>
			</g>
			<g>
				<polygon fill="#259CD6" points="608.8,130.3 531.3,85.3 608.4,40.7 685.9,85.8 				"/>
			</g>
		</g>
	</g>
	<g>
		<g enable-background="new    ">
			<g>
				<polygon fill="#218CC1" points="752.9,179.6 753.4,347.1 676.2,391.6 675.7,224.1 				"/>
			</g>
			<g>
				<polygon fill="#176185" points="676.2,391.6 608.9,352.5 608.5,185 675.7,224.1 				"/>
			</g>
			<g>
				<polygon fill="#259CD6" points="675.7,224.1 608.5,185 685.6,140.5 752.9,179.6 				"/>
			</g>
		</g>
	</g>
	<g>
		<g enable-background="new    ">
			<g>
				<polygon fill="#218CC1" points="806.5,272.3 806.8,378.2 729.6,422.8 729.3,316.9 				"/>
			</g>
			<g>
				<polygon fill="#176185" points="729.6,422.8 676.1,391.7 675.8,285.8 729.3,316.9 				"/>
			</g>
			<g>
				<polygon fill="#259CD6" points="729.3,316.9 675.8,285.8 753,241.2 806.5,272.3 				"/>
			</g>
		</g>
	</g>
	<g>
		<g enable-background="new    ">
			<defs>
				<polygon id="SVGID_1_" enable-background="new    " points="457.3,351.4 532.1,307.9 607.4,351.4 532.6,394.9 				"/>
			</defs>
			<clipPath id="SVGID_2_">
				<use xlink:href="#SVGID_1_"  overflow="visible"/>
			</clipPath>
			<g clip-path="url(#SVGID_2_)">
				<polyline fill="#282828" points="607.4,351.4 532.1,307.9 457.3,351.4 532.6,394.9 607.4,351.4 				"/>
			</g>
		</g>
	</g>
	<g>
		<g enable-background="new    ">
			<defs>
				<polygon id="SVGID_3_" enable-background="new    " points="382.5,394.8 457.3,351.3 532.7,394.8 457.8,438.3 				"/>
			</defs>
			<clipPath id="SVGID_4_">
				<use xlink:href="#SVGID_3_"  overflow="visible"/>
			</clipPath>
			<g clip-path="url(#SVGID_4_)">
				<polyline fill="#282828" points="532.7,394.8 457.3,351.3 382.5,394.8 457.8,438.3 532.7,394.8 				"/>
			</g>
		</g>
	</g>
	<g>
		<g enable-background="new    ">
			<defs>
				<polygon id="SVGID_5_" enable-background="new    " points="531.4,394.5 606.3,351 681.6,394.5 606.8,438 				"/>
			</defs>
			<clipPath id="SVGID_6_">
				<use xlink:href="#SVGID_5_"  overflow="visible"/>
			</clipPath>
			<g clip-path="url(#SVGID_6_)">
				<polyline fill="#282828" points="681.6,394.5 606.3,351 531.4,394.5 606.8,438 681.6,394.5 				"/>
			</g>
		</g>
	</g>
	<g>
		<g enable-background="new    ">
			<defs>
				<polygon id="SVGID_7_" enable-background="new    " points="474.2,428.4 532.5,394.5 591.2,428.4 532.9,462.3 				"/>
			</defs>
			<clipPath id="SVGID_8_">
				<use xlink:href="#SVGID_7_"  overflow="visible"/>
			</clipPath>
			<g clip-path="url(#SVGID_8_)">
				<polyline fill="#282828" points="591.2,428.4 532.5,394.5 474.2,428.4 532.9,462.3 591.2,428.4 				"/>
			</g>
		</g>
	</g>
	<g>
		<g enable-background="new    ">
			<defs>
				<polygon id="SVGID_9_" enable-background="new    " points="579.9,422.5 654.8,379 730.1,422.5 655.3,465.9 				"/>
			</defs>
			<clipPath id="SVGID_10_">
				<use xlink:href="#SVGID_9_"  overflow="visible"/>
			</clipPath>
			<g clip-path="url(#SVGID_10_)">
				<polyline fill="#282828" points="730.1,422.5 654.8,379 579.9,422.5 655.3,465.9 730.1,422.5 				"/>
			</g>
		</g>
	</g>
</g>
<g id="Rouge">
	<g>
		<g enable-background="new    ">
			<g>
				<polygon fill="#C34747" points="484.1,331.3 409.2,374.8 333.9,331.3 408.8,287.8 				"/>
			</g>
			<g>
				<polygon fill="#AE3F3F" points="484.1,331.3 483.8,421 409,464.5 409.2,374.8 				"/>
			</g>
			<g>
				<polygon fill="#792C2C" points="409.2,374.8 409,464.5 333.7,421 333.9,331.3 				"/>
			</g>
		</g>
	</g>
	<g>
		<g enable-background="new    ">
			<defs>
				<polygon id="SVGID_11_" enable-background="new    " points="258.8,464.4 333.7,420.9 409,464.4 334.1,507.9 				"/>
			</defs>
			<clipPath id="SVGID_12_">
				<use xlink:href="#SVGID_11_"  overflow="visible"/>
			</clipPath>
			<g clip-path="url(#SVGID_12_)">
				<polyline fill="#282828" points="409,464.4 333.7,420.9 258.8,464.4 334.1,507.9 409,464.4 				"/>
			</g>
		</g>
	</g>
</g>
<g id="Jaune">
	<g>
		<g enable-background="new    ">
			<g>
				<polygon fill="#DCC700" points="590,405.5 515.2,449 439.9,405.5 514.7,362 				"/>
			</g>
			<g>
				<polygon fill="#C5B200" points="590,405.5 589.8,495.2 514.9,538.7 515.2,449 				"/>
			</g>
			<g>
				<polygon fill="#897C00" points="515.2,449 514.9,538.7 439.6,495.2 439.9,405.5 				"/>
			</g>
		</g>
	</g>
	<g>
		<g enable-background="new    ">
			<defs>
				<polygon id="SVGID_13_" enable-background="new    " points="365,538.8 439.8,495.3 515.1,538.8 440.3,582.3 				"/>
			</defs>
			<clipPath id="SVGID_14_">
				<use xlink:href="#SVGID_13_"  overflow="visible"/>
			</clipPath>
			<g clip-path="url(#SVGID_14_)">
				<polyline fill="#282828" points="515.1,538.8 439.8,495.3 365,538.8 440.3,582.3 515.1,538.8 				"/>
			</g>
		</g>
	</g>
</g>
<g id="Orange" display="none">
	<g display="inline">
		<g enable-background="new    ">
			<g>
				<polygon fill="#ED8A29" points="685.9,85.8 686.6,308.3 609.4,352.9 608.8,130.3 				"/>
			</g>
			<g>
				<polygon fill="#B75913" points="609.4,352.9 531.9,307.8 531.3,85.3 608.8,130.3 				"/>
			</g>
			<g>
				<polygon fill="#FFA13B" points="608.8,130.3 531.3,85.3 608.4,40.7 685.9,85.8 				"/>
			</g>
		</g>
	</g>
	<g display="inline">
		<g enable-background="new    ">
			<g>
				<polygon fill="#ED8A29" points="752.9,179.6 753.4,347.1 676.2,391.6 675.7,224.1 				"/>
			</g>
			<g>
				<polygon fill="#B75913" points="676.2,391.6 608.9,352.5 608.5,185 675.7,224.1 				"/>
			</g>
			<g>
				<polygon fill="#FFA13B" points="675.7,224.1 608.5,185 685.6,140.5 752.9,179.6 				"/>
			</g>
		</g>
	</g>
	<g display="inline">
		<g enable-background="new    ">
			<g>
				<polygon fill="#ED8A29" points="806.5,272.3 806.8,378.2 729.6,422.8 729.3,316.9 				"/>
			</g>
			<g>
				<polygon fill="#B75913" points="729.6,422.8 676.1,391.7 675.8,285.8 729.3,316.9 				"/>
			</g>
			<g>
				<polygon fill="#FFA13B" points="729.3,316.9 675.8,285.8 753,241.2 806.5,272.3 				"/>
			</g>
		</g>
	</g>
	<g display="inline">
		<g enable-background="new    ">
			<defs>
				<polygon id="SVGID_15_" enable-background="new    " points="457.3,351.4 532.1,307.9 607.4,351.4 532.6,394.9 				"/>
			</defs>
			<clipPath id="SVGID_16_">
				<use xlink:href="#SVGID_15_"  overflow="visible"/>
			</clipPath>
			<g clip-path="url(#SVGID_16_)">
				<polyline fill="#282828" points="607.4,351.4 532.1,307.9 457.3,351.4 532.6,394.9 607.4,351.4 				"/>
			</g>
		</g>
	</g>
	<g display="inline">
		<g enable-background="new    ">
			<defs>
				<polygon id="SVGID_17_" enable-background="new    " points="382.5,394.8 457.3,351.3 532.7,394.8 457.8,438.3 				"/>
			</defs>
			<clipPath id="SVGID_18_">
				<use xlink:href="#SVGID_17_"  overflow="visible"/>
			</clipPath>
			<g clip-path="url(#SVGID_18_)">
				<polyline fill="#282828" points="532.7,394.8 457.3,351.3 382.5,394.8 457.8,438.3 532.7,394.8 				"/>
			</g>
		</g>
	</g>
	<g display="inline">
		<g enable-background="new    ">
			<defs>
				<polygon id="SVGID_19_" enable-background="new    " points="531.4,394.5 606.3,351 681.6,394.5 606.8,438 				"/>
			</defs>
			<clipPath id="SVGID_20_">
				<use xlink:href="#SVGID_19_"  overflow="visible"/>
			</clipPath>
			<g clip-path="url(#SVGID_20_)">
				<polyline fill="#282828" points="681.6,394.5 606.3,351 531.4,394.5 606.8,438 681.6,394.5 				"/>
			</g>
		</g>
	</g>
	<g display="inline">
		<g enable-background="new    ">
			<defs>
				<polygon id="SVGID_21_" enable-background="new    " points="474.2,428.4 532.5,394.5 591.2,428.4 532.9,462.3 				"/>
			</defs>
			<clipPath id="SVGID_22_">
				<use xlink:href="#SVGID_21_"  overflow="visible"/>
			</clipPath>
			<g clip-path="url(#SVGID_22_)">
				<polyline fill="#282828" points="591.2,428.4 532.5,394.5 474.2,428.4 532.9,462.3 591.2,428.4 				"/>
			</g>
		</g>
	</g>
	<g display="inline">
		<g enable-background="new    ">
			<defs>
				<polygon id="SVGID_23_" enable-background="new    " points="579.9,422.5 654.8,379 730.1,422.5 655.3,465.9 				"/>
			</defs>
			<clipPath id="SVGID_24_">
				<use xlink:href="#SVGID_23_"  overflow="visible"/>
			</clipPath>
			<g clip-path="url(#SVGID_24_)">
				<polyline fill="#282828" points="730.1,422.5 654.8,379 579.9,422.5 655.3,465.9 730.1,422.5 				"/>
			</g>
		</g>
	</g>
</g>
<g id="Violet" display="none">
	<g display="inline">
		<g enable-background="new    ">
			<g>
				<polygon fill="#A464FF" points="484.1,331.3 409.2,374.8 333.9,331.3 408.8,287.8 				"/>
			</g>
			<g>
				<polygon fill="#8D58E0" points="484.1,331.3 483.8,421 409,464.5 409.2,374.8 				"/>
			</g>
			<g>
				<polygon fill="#56398E" points="409.2,374.8 409,464.5 333.7,421 333.9,331.3 				"/>
			</g>
		</g>
	</g>
	<g display="inline">
		<g enable-background="new    ">
			<defs>
				<polygon id="SVGID_25_" enable-background="new    " points="258.8,464.4 333.7,420.9 409,464.4 334.1,507.9 				"/>
			</defs>
			<clipPath id="SVGID_26_">
				<use xlink:href="#SVGID_25_"  overflow="visible"/>
			</clipPath>
			<g clip-path="url(#SVGID_26_)">
				<polyline fill="#282828" points="409,464.4 333.7,420.9 258.8,464.4 334.1,507.9 409,464.4 				"/>
			</g>
		</g>
	</g>
</g>
<g id="Vert" display="none">
	<g display="inline">
		<g enable-background="new    ">
			<g>
				<polygon fill="#B9FF33" points="590,405.5 515.2,449 439.9,405.5 514.7,362 				"/>
			</g>
			<g>
				<polygon fill="#96CE1D" points="590,405.5 589.8,495.2 514.9,538.7 515.2,449 				"/>
			</g>
			<g>
				<polygon fill="#577011" points="515.2,449 514.9,538.7 439.6,495.2 439.9,405.5 				"/>
			</g>
		</g>
	</g>
	<g display="inline">
		<g enable-background="new    ">
			<defs>
				<polygon id="SVGID_27_" enable-background="new    " points="365,538.8 439.8,495.3 515.1,538.8 440.3,582.3 				"/>
			</defs>
			<clipPath id="SVGID_28_">
				<use xlink:href="#SVGID_27_"  overflow="visible"/>
			</clipPath>
			<g clip-path="url(#SVGID_28_)">
				<polyline fill="#282828" points="515.1,538.8 439.8,495.3 365,538.8 440.3,582.3 515.1,538.8 				"/>
			</g>
		</g>
	</g>
</g>
</svg>
