<?xml version="1.0" encoding="utf-8"?>
<!-- Generator: Adobe Illustrator 18.1.0, SVG Export Plug-In . SVG Version: 6.00 Build 0)  -->
<svg version="1.1" id="Calque_1" xmlns="http://www.w3.org/2000/svg" xmlns:xlink="http://www.w3.org/1999/xlink" x="0px" y="0px"
	 viewBox="0 0 15.6 11.5" enable-background="new 0 0 15.6 11.5" xml:space="preserve">
<g>
	<g>
		<g enable-background="new    ">
			<defs>
				<polygon id="SVGID_1_" enable-background="new    " points="6.6,11.9 6.6,9.9 8.4,8.9 8.4,10.9 				"/>
			</defs>
			<clipPath id="SVGID_2_">
				<use xlink:href="#SVGID_1_"  overflow="visible"/>
			</clipPath>
			<g clip-path="url(#SVGID_2_)">
				<path fill="#4C4C4C" d="M7.5,9.4C7,9.7,6.6,10.3,6.6,10.9c0,0.5,0.4,0.8,0.9,0.5c0.5-0.3,0.9-0.9,0.9-1.5C8.4,9.3,8,9.1,7.5,9.4
					"/>
			</g>
		</g>
	</g>
	<g>
		<g enable-background="new    ">
			<defs>
				<polygon id="SVGID_3_" enable-background="new    " points="13.2,7.9 13.2,5.9 14.9,4.9 14.9,6.9 				"/>
			</defs>
			<clipPath id="SVGID_4_">
				<use xlink:href="#SVGID_3_"  overflow="visible"/>
			</clipPath>
			<g clip-path="url(#SVGID_4_)">
				<path fill="#4C4C4C" d="M14,5.4c-0.5,0.3-0.9,0.9-0.9,1.5c0,0.5,0.4,0.8,0.9,0.5c0.5-0.3,0.9-0.9,0.9-1.5
					C14.9,5.4,14.5,5.1,14,5.4"/>
			</g>
		</g>
	</g>
	<g>
		<g enable-background="new    ">
			<g>
				<polygon fill="#FEE6B6" points="14.1,4.5 8.6,1.3 10.2,0.6 15.6,3.8 				"/>
			</g>
			<g>
				<polygon fill="#FCFBFA" points="8.1,7.9 2.7,4.7 3.9,1.9 9.3,5.1 				"/>
			</g>
			<g enable-background="new    ">
				<defs>
					<path id="SVGID_5_" enable-background="new    " d="M9.3,5.1L3.9,1.9C3.9,1.9,4,1.8,7,0l5.5,3.2C9.5,5,9.3,5.1,9.3,5.1z"/>
				</defs>
				<clipPath id="SVGID_6_">
					<use xlink:href="#SVGID_5_"  overflow="visible"/>
				</clipPath>
				<g clip-path="url(#SVGID_6_)" enable-background="new    ">
					<polyline fill="#FEE9C1" points="9.3,5.1 3.9,1.9 3.9,1.9 9.3,5.1 9.3,5.1 					"/>
					<path fill="#FEE8BC" d="M9.3,5.1L3.9,1.9c0,0,0.1,0,0.3-0.2l5.5,3.2C9.4,5,9.3,5.1,9.3,5.1"/>
					<path fill="#FEE6B8" d="M9.6,4.9L4.1,1.7C4.5,1.5,5.2,1.1,7,0l5.5,3.2C10.7,4.2,9.9,4.7,9.6,4.9"/>
				</g>
			</g>
			<g>
				<path fill="#FFDA90" d="M12.5,3.2c0,0,0.9,0.6,1.6,1.3l1.6-0.7l0,1.7L5.5,11.4l0-1.3l2.7-2.3l1.2-2.8C9.3,5.1,9.5,5,12.5,3.2z"
					/>
			</g>
			<g>
				<polygon fill="#FDF3DE" points="5.5,11.4 0,8.2 0,7 5.5,10.1 				"/>
			</g>
			<g>
				<polygon fill="#FDF2DB" points="5.5,10.1 0,7 2.7,4.7 8.1,7.9 				"/>
			</g>
		</g>
	</g>
	<g>
		<g enable-background="new    ">
			<defs>
				<polygon id="SVGID_7_" enable-background="new    " points="8.7,7.7 6.9,6.7 11,4.6 11,6.3 				"/>
			</defs>
			<clipPath id="SVGID_8_">
				<use xlink:href="#SVGID_7_"  overflow="visible"/>
			</clipPath>
			<g clip-path="url(#SVGID_8_)">
				<polyline fill="#4C4C4C" points="11,4.6 9.7,5.4 8.8,7.6 11,6.3 11,4.6 				"/>
			</g>
		</g>
	</g>
	<g>
		<g enable-background="new    ">
			<defs>
				<polygon id="SVGID_9_" enable-background="new    " points="11.2,6.2 11.2,4.5 13.2,3.3 13.7,4.8 				"/>
			</defs>
			<clipPath id="SVGID_10_">
				<use xlink:href="#SVGID_9_"  overflow="visible"/>
			</clipPath>
			<g clip-path="url(#SVGID_10_)">
				<polyline fill="#4C4C4C" points="12.5,3.8 11.2,4.5 11.2,6.2 13.7,4.8 12.5,3.8 				"/>
			</g>
		</g>
	</g>
	<polygon fill="#4C4C4C" points="4,2.3 3,4.6 7.9,7.4 8.9,5.2 	"/>
	<g>
		<g enable-background="new    ">
			<defs>
				<polygon id="SVGID_11_" enable-background="new    " points="0,7.7 0,7 1.3,7.8 1.3,8.4 				"/>
			</defs>
			<clipPath id="SVGID_12_">
				<use xlink:href="#SVGID_11_"  overflow="visible"/>
			</clipPath>
			<g clip-path="url(#SVGID_12_)">
				<polyline fill="#F5967F" points="1.3,7.8 0,7 0,7.7 1.3,8.4 1.3,7.8 				"/>
			</g>
		</g>
	</g>
	<g>
		<g enable-background="new    ">
			<defs>
				<polygon id="SVGID_13_" enable-background="new    " points="4.1,10.1 4.1,9.4 5.5,10.2 5.5,10.9 				"/>
			</defs>
			<clipPath id="SVGID_14_">
				<use xlink:href="#SVGID_13_"  overflow="visible"/>
			</clipPath>
			<g clip-path="url(#SVGID_14_)">
				<polyline fill="#F5967F" points="5.5,10.2 4.1,9.4 4.1,10.1 5.5,10.9 5.5,10.2 				"/>
			</g>
		</g>
	</g>
</g>
</svg>
