<?xml version="1.0" encoding="utf-8"?>
<!-- Generator: Adobe Illustrator 18.1.0, SVG Export Plug-In . SVG Version: 6.00 Build 0)  -->
<svg version="1.1" id="Calque_1" xmlns="http://www.w3.org/2000/svg" xmlns:xlink="http://www.w3.org/1999/xlink" x="0px" y="0px"
	 viewBox="0 0 15.6 12.7" enable-background="new 0 0 15.6 12.7" xml:space="preserve">
<g enable-background="new    ">
	<defs>
		<polygon id="SVGID_59_" enable-background="new    " points="6.9,12.9 6.9,11 8.5,10 8.5,11.9 		"/>
	</defs>
	<clipPath id="SVGID_1_">
		<use xlink:href="#SVGID_59_"  overflow="visible"/>
	</clipPath>
	<g clip-path="url(#SVGID_1_)">
		<path fill="#4C4C4C" d="M7.7,10.5c-0.5,0.3-0.8,0.9-0.8,1.4c0,0.5,0.4,0.7,0.8,0.5c0.5-0.3,0.8-0.9,0.8-1.4
			C8.5,10.4,8.2,10.2,7.7,10.5"/>
	</g>
</g>
<g enable-background="new    ">
	<defs>
		<polygon id="SVGID_58_" enable-background="new    " points="12.7,9.5 12.7,7.6 14.3,6.6 14.3,8.5 		"/>
	</defs>
	<clipPath id="SVGID_2_">
		<use xlink:href="#SVGID_58_"  overflow="visible"/>
	</clipPath>
	<g clip-path="url(#SVGID_2_)">
		<path fill="#4C4C4C" d="M13.5,7.1c-0.5,0.3-0.8,0.9-0.8,1.4c0,0.5,0.4,0.7,0.8,0.5c0.5-0.3,0.8-0.9,0.8-1.4
			C14.3,7.1,14,6.9,13.5,7.1"/>
	</g>
</g>
<g enable-background="new    ">
	<g>
		<polygon fill="#C8E5EE" points="13,6.4 7.5,3.2 10.2,2.4 15.6,5.6 		"/>
	</g>
	<g>
		<defs>
			<path id="SVGID_3_" d="M8.6,6.8L3.1,3.6c3-1.7,3.2-1.8,3.2-1.8L11.7,5C11.7,5,11.6,5,8.6,6.8z"/>
		</defs>
		<use xlink:href="#SVGID_3_"  overflow="visible" fill="#C8E5EE"/>
		<clipPath id="SVGID_4_">
			<use xlink:href="#SVGID_3_"  overflow="visible"/>
		</clipPath>
		<g clip-path="url(#SVGID_4_)" enable-background="new    ">
			<path fill="#C8E5EE" d="M8.6,6.8L3.1,3.6c2-1.1,2.7-1.5,3-1.7l5.5,3.2C11.3,5.2,10.6,5.6,8.6,6.8"/>
			<path fill="#C8E5EE" d="M11.6,5.1L6.1,1.9c0.1-0.1,0.1-0.1,0.2-0.1L11.7,5C11.7,5,11.7,5,11.6,5.1"/>
			<polyline fill="#C8E5EE" points="11.7,5 6.3,1.8 6.3,1.8 11.7,5 11.7,5 			"/>
		</g>
	</g>
	<g>
		<defs>
			<path id="SVGID_5_" d="M7,9.8L1.6,6.7c0.7-1.4,1.6-3,1.6-3.1l5.5,3.2C8.6,6.8,7.7,8.4,7,9.8z"/>
		</defs>
		<use xlink:href="#SVGID_5_"  overflow="visible" fill="#F6FBFC"/>
		<clipPath id="SVGID_6_">
			<use xlink:href="#SVGID_5_"  overflow="visible"/>
		</clipPath>
		<g clip-path="url(#SVGID_6_)" enable-background="new    ">
			<path fill="#F6FBFC" d="M7,9.8L1.6,6.7c0.6-1.3,1.4-2.8,1.5-3l5.5,3.2C8.4,7.1,7.6,8.6,7,9.8"/>
			<path fill="#F6FBFC" d="M8.6,6.8L3.1,3.6c0,0,0,0,0,0L8.6,6.8C8.6,6.8,8.6,6.8,8.6,6.8"/>
			<polyline fill="#F6FBFC" points="8.6,6.8 3.1,3.6 3.1,3.6 8.6,6.8 8.6,6.8 			"/>
			<polyline fill="#F6FBFC" points="8.6,6.8 3.1,3.6 3.1,3.6 8.6,6.8 8.6,6.8 			"/>
			<polyline fill="#F6FBFC" points="8.6,6.8 3.1,3.6 3.1,3.6 8.6,6.8 8.6,6.8 			"/>
			<polyline fill="#F6FBFC" points="8.6,6.8 3.1,3.6 3.1,3.6 8.6,6.8 8.6,6.8 			"/>
			<polyline fill="#F6FBFC" points="8.6,6.8 3.1,3.6 3.1,3.6 8.6,6.8 8.6,6.8 			"/>
			<polyline fill="#F6FBFC" points="8.6,6.8 3.1,3.6 3.1,3.6 8.6,6.8 8.6,6.8 			"/>
			<polyline fill="#F6FBFC" points="8.6,6.8 3.1,3.6 3.1,3.6 8.6,6.8 8.6,6.8 			"/>
			<polyline fill="#F6FBFC" points="8.6,6.8 3.1,3.6 3.1,3.6 8.6,6.8 8.6,6.8 			"/>
			<polyline fill="#F6FBFC" points="8.6,6.8 3.1,3.6 3.1,3.6 8.6,6.8 8.6,6.8 			"/>
			<polyline fill="#F6FBFC" points="8.6,6.8 3.1,3.6 3.1,3.6 8.6,6.8 8.6,6.8 			"/>
			<polyline fill="#F6FBFC" points="8.6,6.8 3.1,3.6 3.1,3.6 8.6,6.8 8.6,6.8 			"/>
			<polyline fill="#F6FBFC" points="8.6,6.8 3.1,3.6 3.1,3.6 8.6,6.8 8.6,6.8 			"/>
			<polyline fill="#F6FBFC" points="8.6,6.8 3.1,3.6 3.1,3.6 8.6,6.8 8.6,6.8 			"/>
			<polyline fill="#F6FBFC" points="8.6,6.8 3.1,3.6 3.1,3.6 8.6,6.8 8.6,6.8 			"/>
		</g>
	</g>
	<g>
		<path fill="#8FC5D1" d="M8.6,6.8C11.6,5,11.7,5,11.7,5L13,6.4l2.7-0.8l0,1.3L5.5,12.7l0-1.7L7,9.8C7.7,8.4,8.6,6.8,8.6,6.8z"/>
	</g>
	<g>
		<polygon fill="#F6FBFC" points="5.5,12.7 0,9.5 0,7.8 5.5,11 		"/>
	</g>
	<g>
		<polygon fill="#C8E5EE" points="5.5,11 0,7.8 1.6,6.7 7,9.8 		"/>
	</g>
</g>
<g enable-background="new    ">
	<defs>
		<polygon id="SVGID_7_" enable-background="new    " points="7.6,9.4 5.7,8.5 10,6.3 10,8 		"/>
	</defs>
	<clipPath id="SVGID_8_">
		<use xlink:href="#SVGID_7_"  overflow="visible"/>
	</clipPath>
	<g clip-path="url(#SVGID_8_)">
		<polyline fill="#4C4C4C" points="10,6.3 8.9,6.9 7.7,9.4 10,8 10,6.3 		"/>
	</g>
</g>
<g enable-background="new    ">
	<defs>
		<polygon id="SVGID_9_" enable-background="new    " points="10.3,7.9 10.3,6.2 12.3,4.9 12.8,6.4 		"/>
	</defs>
	<clipPath id="SVGID_10_">
		<use xlink:href="#SVGID_9_"  overflow="visible"/>
	</clipPath>
	<g clip-path="url(#SVGID_10_)">
		<polyline fill="#4C4C4C" points="11.6,5.4 10.3,6.2 10.3,7.9 12.6,6.5 11.6,5.4 		"/>
	</g>
</g>
<polygon fill="#4C4C4C" points="3.3,4.1 2,6.5 6.8,9.3 8.1,6.8 "/>
<g enable-background="new    ">
	<defs>
		<polygon id="SVGID_57_" enable-background="new    " points="0,8.7 0,8.1 1.3,8.8 1.3,9.4 		"/>
	</defs>
	<clipPath id="SVGID_11_">
		<use xlink:href="#SVGID_57_"  overflow="visible"/>
	</clipPath>
	<g clip-path="url(#SVGID_11_)">
		<polyline fill="#F5967F" points="1.3,8.8 0,8.1 0,8.7 1.3,9.4 1.3,8.8 		"/>
	</g>
</g>
<g enable-background="new    ">
	<defs>
		<polygon id="SVGID_56_" enable-background="new    " points="4.2,11.1 4.2,10.5 5.5,11.2 5.5,11.8 		"/>
	</defs>
	<clipPath id="SVGID_12_">
		<use xlink:href="#SVGID_56_"  overflow="visible"/>
	</clipPath>
	<g clip-path="url(#SVGID_12_)">
		<polyline fill="#F5967F" points="5.5,11.2 4.2,10.5 4.2,11.1 5.5,11.8 5.5,11.2 		"/>
	</g>
</g>
<g enable-background="new    ">
	<defs>
		<polygon id="SVGID_54_" enable-background="new    " points="0,8.8 0,8.7 1.3,9.4 1.3,9.5 		"/>
	</defs>
	<clipPath id="SVGID_13_">
		<use xlink:href="#SVGID_54_"  overflow="visible"/>
	</clipPath>
	<g clip-path="url(#SVGID_13_)">
		<polyline fill="#FFD07D" points="1.3,9.4 0,8.7 0,8.8 1.3,9.5 1.3,9.4 		"/>
	</g>
</g>
<g enable-background="new    ">
	<defs>
		<polygon id="SVGID_52_" enable-background="new    " points="4.2,11.2 4.2,11.1 5.5,11.8 5.5,12 		"/>
	</defs>
	<clipPath id="SVGID_14_">
		<use xlink:href="#SVGID_52_"  overflow="visible"/>
	</clipPath>
	<g clip-path="url(#SVGID_14_)">
		<polyline fill="#FFD07D" points="5.5,11.8 4.2,11.1 4.2,11.2 5.5,12 5.5,11.8 		"/>
	</g>
</g>
<g>
	<g>
		<g enable-background="new    ">
			<defs>
				<polygon id="SVGID_15_" enable-background="new    " points="5.8,12.2 5.8,11.7 15.4,6.2 15.4,6.6 				"/>
			</defs>
			<clipPath id="SVGID_16_">
				<use xlink:href="#SVGID_15_"  overflow="visible"/>
			</clipPath>
			<g clip-path="url(#SVGID_16_)">
				<g>
					<g>
						<g>
							<polyline fill="#FFFFFF" points="15.4,6.2 5.8,11.7 5.8,12.2 15.4,6.6 15.4,6.2 							"/>
						</g>
					</g>
				</g>
			</g>
		</g>
	</g>
</g>
<g>
	<g>
		<g enable-background="new    ">
			<defs>
				<polygon id="SVGID_17_" enable-background="new    " points="5.8,11.6 5.8,11.4 15.4,5.8 15.4,6 				"/>
			</defs>
			<clipPath id="SVGID_18_">
				<use xlink:href="#SVGID_17_"  overflow="visible"/>
			</clipPath>
			<g clip-path="url(#SVGID_18_)">
				<g>
					<g>
						<g>
							<polyline fill="#FFFFFF" points="15.4,5.8 5.8,11.4 5.8,11.6 15.4,6 15.4,5.8 							"/>
						</g>
					</g>
				</g>
			</g>
		</g>
	</g>
</g>
<g>
	<g>
		<g enable-background="new    ">
			<g>
				<path fill="#F1526B" d="M10.4,3.9c0-0.4-0.3-0.8-0.8-1.1c-1-0.6-2.7-0.6-3.8,0C5.4,3.1,5.1,3.5,5.1,3.9c0-3.2,2.5-5,4.2-3.1
					c0.5,0.5,0.7,1.2,0.8,1.3C10.4,2.8,10.4,3.2,10.4,3.9z"/>
			</g>
			<g>
				<path fill="#F1526B" d="M7.8,3.8L9.6,5C8.6,5.6,6.9,5.6,5.8,5s-1-1.6,0.1-2.2s2.8-0.6,3.8,0s1,1.6-0.1,2.2L7.8,3.8z"/>
			</g>
			<g>
				<path fill="#F1526B" d="M7.8,3.8c0-2,0-3.4,0-3.5C7.8,0.4,7.8,1.9,7.8,3.8z"/>
			</g>
			<g>
				<path fill="#F1526B" d="M7.8,0.3c0,0.1,0,1.5,0,3.5C7.8,1.9,7.8,0.4,7.8,0.3z"/>
			</g>
			<g>
				<path fill="#F1526B" d="M7.8,3.8c0-2,0-3.4,0-3.5C7.8,0.4,7.8,1.9,7.8,3.8z"/>
			</g>
			<g>
				<path fill="#F1526B" d="M7.8,0.3c0,0.1,0,1.5,0,3.5C7.8,1.9,7.8,0.4,7.8,0.3z"/>
			</g>
			<g>
				<path fill="#F1526B" d="M7.8,3.8c0-2,0-3.4,0-3.5C7.8,0.4,7.8,1.9,7.8,3.8z"/>
			</g>
			<g>
				<path fill="#F1526B" d="M7.8,0.3c0,0.1,0,1.5,0,3.5C7.8,1.9,7.8,0.4,7.8,0.3z"/>
			</g>
			<g>
				<path fill="#F1526B" d="M7.8,3.8c0-2,0-3.4,0-3.5C7.8,0.4,7.8,1.9,7.8,3.8z"/>
			</g>
			<g>
				<path fill="#F1526B" d="M7.8,0.3c0,0.1,0,1.5,0,3.5C7.8,1.9,7.8,0.4,7.8,0.3z"/>
			</g>
			<g>
				<path fill="#F1526B" d="M8.8,0.3c1,0.6,1.6,2,1.6,3.6c0,0.4-0.3,0.8-0.8,1.1c0-2-0.8-4-1.9-4.7C8.8,0.9,9.6,3,9.6,5
					C8.6,5.6,6.9,5.6,5.8,5C5.3,4.6,5.1,4.3,5.1,3.9c0-0.9,0.2-2.2,1.3-3.3C6.9,0.1,7.9-0.3,8.8,0.3z"/>
			</g>
		</g>
	</g>
</g>
</svg>
