<svg xmlns="http://www.w3.org/2000/svg" x="0px" y="0px" xmlns:xlink="http://www.w3.org/1999/xlink" viewBox="0 0 15.6 10.9">
  <defs>
    <path id="a" d="M7.1 10.1V8.2l1.6 1v1.9z"/>
  </defs>
  <clipPath id="b">
    <use xlink:href="#a" overflow="visible"/>
  </clipPath>
  <g clip-path="url(#b)">
    <path fill="#4C4C4C" d="M7.9 8.7c-.5-.3-.8-.1-.8.5 0 .5.4 1.2.8 1.4.5.3.8.1.8-.5 0-.5-.3-1.1-.8-1.4"/>
  </g>
  <defs>
    <path id="c" d="M1.3 6.7V4.8l1.6 1v1.9z"/>
  </defs>
  <clipPath id="d">
    <use xlink:href="#c" overflow="visible"/>
  </clipPath>
  <g clip-path="url(#d)">
    <path fill="#4C4C4C" d="M2.1 5.3c-.5-.3-.8 0-.8.5s.4 1.2.8 1.4c.5.3.8.1.8-.5 0-.5-.3-1.1-.8-1.4"/>
  </g>
  <path fill="#FEE2AA" d="M2.7 4.6l5.4-3.2L5.5.6 0 3.8"/>
  <defs>
    <path id="e" d="M7 5l5.5-3.2C9.5.1 9.3 0 9.3 0L3.9 3.2S4 3.2 7 5z"/>
  </defs>
  <use fill="#FEE6B8" xlink:href="#e" overflow="visible"/>
  <clipPath id="f">
    <use xlink:href="#e" overflow="visible"/>
  </clipPath>
  <g fill="#FEE6B8" clip-path="url(#f)">
    <path d="M7 5l5.5-3.2C10.5.7 9.8.3 9.5.1L4 3.3c.3.1 1 .5 3 1.7"/>
    <path d="M4 3.3L9.5.1C9.4 0 9.3 0 9.3 0L3.9 3.2l.1.1m-.1-.1L9.3 0 3.9 3.2"/>
  </g>
  <defs>
    <path id="g" d="M8.6 8L14 4.9c-.7-1.4-1.6-3-1.6-3.1L7 5s.9 1.6 1.6 3z"/>
  </defs>
  <use fill="#FFD07D" xlink:href="#g" overflow="visible"/>
  <clipPath id="h">
    <use xlink:href="#g" overflow="visible"/>
  </clipPath>
  <g fill="#FFD07D" clip-path="url(#h)">
    <path d="M8.6 8L14 4.9c-.6-1.3-1.4-2.8-1.5-3L7.1 5c.1.3.9 1.8 1.5 3M7.1 5l5.5-3.2L7.1 5C7 5 7 5 7.1 5M7 5l5.5-3.2L7 5m0 0l5.5-3.2L7 5m0 0l5.5-3.2L7 5m0 0l5.5-3.2L7 5m0 0l5.5-3.2L7 5m0 0l5.5-3.2L7 5m0 0l5.5-3.2L7 5m0 0l5.5-3.2L7 5m0 0l5.5-3.2L7 5m0 0l5.5-3.2L7 5m0 0l5.5-3.2L7 5m0 0l5.5-3.2L7 5m0 0l5.5-3.2L7 5m0 0l5.5-3.2L7 5"/>
  </g>
  <path fill="#FFF7E9" d="M7 5C4 3.2 3.9 3.2 3.9 3.2L2.7 4.6 0 3.8V5l10.2 5.9V9.2L8.6 8C7.9 6.6 7 5 7 5z"/>
  <path fill="#FFD07D" d="M10.1 10.9l5.5-3.2V6l-5.4 3.2"/>
  <path fill="#FEE6B8" d="M10.2 9.2L15.6 6 14 4.9 8.6 8"/>
  <defs>
    <path id="i" d="M8 7.6l1.9-.9-4.3-2.2v1.7z"/>
  </defs>
  <clipPath id="j">
    <use xlink:href="#i" overflow="visible"/>
  </clipPath>
  <g clip-path="url(#j)">
    <path fill="#4C4C4C" d="M5.6 4.5l1.1.6 1.2 2.5-2.3-1.4V4.5"/>
  </g>
  <defs>
    <path id="k" d="M5.4 6.1V4.4L3.3 3.1l-.5 1.5z"/>
  </defs>
  <clipPath id="l">
    <use xlink:href="#k" overflow="visible"/>
  </clipPath>
  <g clip-path="url(#l)">
    <path fill="#4C4C4C" d="M4 3.6l1.4.8v1.7L3 4.7l1-1.1"/>
  </g>
  <path fill="#4C4C4C" d="M12.3 2.3l1.3 2.4-4.8 2.8L7.5 5"/>
  <defs>
    <path id="m" d="M14.3 7.7v-.1l1.3-.7V7z"/>
  </defs>
  <clipPath id="n">
    <use xlink:href="#m" overflow="visible"/>
  </clipPath>
  <g clip-path="url(#n)">
    <path fill="#FFF7E9" d="M15.6 6.9l-1.3.7v.1l1.3-.7v-.1"/>
  </g>
  <defs>
    <path id="o" d="M14.3 7.6V7l1.3-.8v.7z"/>
  </defs>
  <clipPath id="p">
    <use xlink:href="#o" overflow="visible"/>
  </clipPath>
  <g clip-path="url(#p)">
    <path fill="#F29481" d="M15.6 6.2l-1.3.8v.6l1.3-.7v-.7"/>
  </g>
  <defs>
    <path id="q" d="M10.2 10v-.6l1.2-.7v.6z"/>
  </defs>
  <clipPath id="r">
    <use xlink:href="#q" overflow="visible"/>
  </clipPath>
  <g clip-path="url(#r)">
    <path fill="#F29481" d="M11.4 8.7l-1.2.7v.6l1.2-.7v-.6"/>
  </g>
  <defs>
    <path id="s" d="M10.2 10.2V10l1.2-.7v.1z"/>
  </defs>
  <clipPath id="t">
    <use xlink:href="#s" overflow="visible"/>
  </clipPath>
  <g clip-path="url(#t)">
    <path fill="#FFF7E9" d="M11.4 9.3l-1.2.7v.2l1.2-.8v-.1"/>
  </g>
</svg>
