<svg xmlns="http://www.w3.org/2000/svg" x="0px" y="0px" xmlns:xlink="http://www.w3.org/1999/xlink" viewBox="0 0 15.6 12.7">
  <defs>
    <path id="a" d="M6.9 12.9V11l1.6-1v1.9z"/>
  </defs>
  <clipPath id="b">
    <use xlink:href="#a" overflow="visible"/>
  </clipPath>
  <g clip-path="url(#b)">
    <path fill="#4C4C4C" d="M7.7 10.5c-.5.3-.8.9-.8 1.4 0 .5.4.7.8.5.5-.3.8-.9.8-1.4 0-.6-.3-.8-.8-.5"/>
  </g>
  <defs>
    <path id="c" d="M12.7 9.5V7.6l1.6-1v1.9z"/>
  </defs>
  <clipPath id="d">
    <use xlink:href="#c" overflow="visible"/>
  </clipPath>
  <g clip-path="url(#d)">
    <path fill="#4C4C4C" d="M13.5 7.1c-.5.3-.8.9-.8 1.4 0 .5.4.7.8.5.5-.3.8-.9.8-1.4 0-.5-.3-.7-.8-.5"/>
  </g>
  <path fill="#C8E5EE" d="M13 6.4L7.5 3.2l2.7-.8 5.4 3.2"/>
  <defs>
    <path id="e" d="M8.6 6.8L3.1 3.6c3-1.7 3.2-1.8 3.2-1.8L11.7 5s-.1 0-3.1 1.8z"/>
  </defs>
  <use fill="#C8E5EE" xlink:href="#e" overflow="visible"/>
  <clipPath id="f">
    <use xlink:href="#e" overflow="visible"/>
  </clipPath>
  <g fill="#C8E5EE" clip-path="url(#f)">
    <path d="M8.6 6.8L3.1 3.6c2-1.1 2.7-1.5 3-1.7l5.5 3.2c-.3.1-1 .5-3 1.7m3-1.7L6.1 1.9c.1-.1.1-.1.2-.1L11.7 5l-.1.1m.1-.1L6.3 1.8 11.7 5"/>
  </g>
  <defs>
    <path id="g" d="M7 9.8L1.6 6.7c.7-1.4 1.6-3 1.6-3.1l5.5 3.2c-.1 0-1 1.6-1.7 3z"/>
  </defs>
  <use fill="#F6FBFC" xlink:href="#g" overflow="visible"/>
  <clipPath id="h">
    <use xlink:href="#g" overflow="visible"/>
  </clipPath>
  <g fill="#F6FBFC" clip-path="url(#h)">
    <path d="M7 9.8L1.6 6.7c.6-1.3 1.4-2.8 1.5-3l5.5 3.2c-.2.2-1 1.7-1.6 2.9m1.6-3L3.1 3.6l5.5 3.2m0 0L3.1 3.6l5.5 3.2m0 0L3.1 3.6l5.5 3.2m0 0L3.1 3.6l5.5 3.2m0 0L3.1 3.6l5.5 3.2m0 0L3.1 3.6l5.5 3.2m0 0L3.1 3.6l5.5 3.2m0 0L3.1 3.6l5.5 3.2m0 0L3.1 3.6l5.5 3.2m0 0L3.1 3.6l5.5 3.2m0 0L3.1 3.6l5.5 3.2m0 0L3.1 3.6l5.5 3.2m0 0L3.1 3.6l5.5 3.2m0 0L3.1 3.6l5.5 3.2m0 0L3.1 3.6l5.5 3.2"/>
  </g>
  <path fill="#8FC5D1" d="M8.6 6.8C11.6 5 11.7 5 11.7 5L13 6.4l2.7-.8v1.3L5.5 12.7V11L7 9.8c.7-1.4 1.6-3 1.6-3z"/>
  <path fill="#F6FBFC" d="M5.5 12.7L0 9.5V7.8L5.5 11"/>
  <path fill="#C8E5EE" d="M5.5 11L0 7.8l1.6-1.1L7 9.8"/>
  <defs>
    <path id="i" d="M7.6 9.4l-1.9-.9L10 6.3V8z"/>
  </defs>
  <clipPath id="j">
    <use xlink:href="#i" overflow="visible"/>
  </clipPath>
  <g clip-path="url(#j)">
    <path fill="#4C4C4C" d="M10 6.3l-1.1.6-1.2 2.5L10 8V6.3"/>
  </g>
  <defs>
    <path id="k" d="M10.3 7.9V6.2l2-1.3.5 1.5z"/>
  </defs>
  <clipPath id="l">
    <use xlink:href="#k" overflow="visible"/>
  </clipPath>
  <g clip-path="url(#l)">
    <path fill="#4C4C4C" d="M11.6 5.4l-1.3.8v1.7l2.3-1.4-1-1.1"/>
  </g>
  <path fill="#4C4C4C" d="M3.3 4.1L2 6.5l4.8 2.8 1.3-2.5"/>
  <defs>
    <path id="m" d="M0 8.7v-.6l1.3.7v.6z"/>
  </defs>
  <clipPath id="n">
    <use xlink:href="#m" overflow="visible"/>
  </clipPath>
  <g clip-path="url(#n)">
    <path fill="#F5967F" d="M1.3 8.8L0 8.1v.6l1.3.7v-.6"/>
  </g>
  <defs>
    <path id="o" d="M4.2 11.1v-.6l1.3.7v.6z"/>
  </defs>
  <clipPath id="p">
    <use xlink:href="#o" overflow="visible"/>
  </clipPath>
  <g clip-path="url(#p)">
    <path fill="#F5967F" d="M5.5 11.2l-1.3-.7v.6l1.3.7v-.6"/>
  </g>
  <defs>
    <path id="q" d="M0 8.8v-.1l1.3.7v.1z"/>
  </defs>
  <clipPath id="r">
    <use xlink:href="#q" overflow="visible"/>
  </clipPath>
  <g clip-path="url(#r)">
    <path fill="#FFD07D" d="M1.3 9.4L0 8.7v.1l1.3.7v-.1"/>
  </g>
  <defs>
    <path id="s" d="M4.2 11.2v-.1l1.3.7v.2z"/>
  </defs>
  <clipPath id="t">
    <use xlink:href="#s" overflow="visible"/>
  </clipPath>
  <g clip-path="url(#t)">
    <path fill="#FFD07D" d="M5.5 11.8l-1.3-.7v.1l1.3.8v-.2"/>
  </g>
  <defs>
    <path id="u" d="M5.8 12.2v-.5l9.6-5.5v.4z"/>
  </defs>
  <clipPath id="v">
    <use xlink:href="#u" overflow="visible"/>
  </clipPath>
  <g clip-path="url(#v)">
    <path fill="#FFF" d="M15.4 6.2l-9.6 5.5v.5l9.6-5.6v-.4"/>
  </g>
  <defs>
    <path id="w" d="M5.8 11.6v-.2l9.6-5.6V6z"/>
  </defs>
  <clipPath id="x">
    <use xlink:href="#w" overflow="visible"/>
  </clipPath>
  <g clip-path="url(#x)">
    <path fill="#FFF" d="M15.4 5.8l-9.6 5.6v.2L15.4 6v-.2"/>
  </g>
  <g fill="#F1526B">
    <path d="M10.4 3.9c0-.4-.3-.8-.8-1.1-1-.6-2.7-.6-3.8 0-.4.3-.7.7-.7 1.1 0-3.2 2.5-5 4.2-3.1.5.5.7 1.2.8 1.3.3.7.3 1.1.3 1.8z"/>
    <path d="M7.8 3.8L9.6 5c-1 .6-2.7.6-3.8 0s-1-1.6.1-2.2 2.8-.6 3.8 0 1 1.6-.1 2.2L7.8 3.8zm0 0V.3v3.5zm0-3.5zm0 3.5V.3v3.5zm0-3.5zm0 3.5V.3v3.5zm0-3.5zm0 3.5V.3v3.5zm0-3.5z"/>
    <path d="M8.8.3c1 .6 1.6 2 1.6 3.6 0 .4-.3.8-.8 1.1 0-2-.8-4-1.9-4.7C8.8.9 9.6 3 9.6 5c-1 .6-2.7.6-3.8 0-.5-.4-.7-.7-.7-1.1 0-.9.2-2.2 1.3-3.3.5-.5 1.5-.9 2.4-.3z"/>
  </g>
</svg>
