<svg xmlns="http://www.w3.org/2000/svg" x="0px" y="0px" xmlns:xlink="http://www.w3.org/1999/xlink" viewBox="0 0 15.6 11.5">
  <defs>
    <path id="a" d="M6.6 11.9v-2l1.8-1v2z"/>
  </defs>
  <clipPath id="b">
    <use xlink:href="#a" overflow="visible"/>
  </clipPath>
  <g clip-path="url(#b)">
    <path fill="#4C4C4C" d="M7.5 9.4c-.5.3-.9.9-.9 1.5 0 .5.4.8.9.5.5-.3.9-.9.9-1.5s-.4-.8-.9-.5"/>
  </g>
  <defs>
    <path id="c" d="M13.2 7.9v-2l1.7-1v2z"/>
  </defs>
  <clipPath id="d">
    <use xlink:href="#c" overflow="visible"/>
  </clipPath>
  <g clip-path="url(#d)">
    <path fill="#4C4C4C" d="M14 5.4c-.5.3-.9.9-.9 1.5 0 .5.4.8.9.5.5-.3.9-.9.9-1.5 0-.5-.4-.8-.9-.5"/>
  </g>
  <path fill="#FEE6B6" d="M14.1 4.5L8.6 1.3l1.6-.7 5.4 3.2"/>
  <path fill="#FCFBFA" d="M8.1 7.9L2.7 4.7l1.2-2.8 5.4 3.2"/>
  <defs>
    <path id="e" d="M9.3 5.1L3.9 1.9S4 1.8 7 0l5.5 3.2C9.5 5 9.3 5.1 9.3 5.1z"/>
  </defs>
  <clipPath id="f">
    <use xlink:href="#e" overflow="visible"/>
  </clipPath>
  <g clip-path="url(#f)">
    <path fill="#FEE9C1" d="M9.3 5.1L3.9 1.9l5.4 3.2"/>
    <path fill="#FEE8BC" d="M9.3 5.1L3.9 1.9s.1 0 .3-.2l5.5 3.2c-.3.1-.4.2-.4.2"/>
    <path fill="#FEE6B8" d="M9.6 4.9L4.1 1.7C4.5 1.5 5.2 1.1 7 0l5.5 3.2c-1.8 1-2.6 1.5-2.9 1.7"/>
  </g>
  <path fill="#FFDA90" d="M12.5 3.2s.9.6 1.6 1.3l1.6-.7v1.7L5.5 11.4v-1.3l2.7-2.3L9.4 5c-.1.1.1 0 3.1-1.8z"/>
  <path fill="#FDF3DE" d="M5.5 11.4L0 8.2V7l5.5 3.1"/>
  <path fill="#FDF2DB" d="M5.5 10.1L0 7l2.7-2.3 5.4 3.2"/>
  <defs>
    <path id="g" d="M8.7 7.7l-1.8-1L11 4.6v1.7z"/>
  </defs>
  <clipPath id="h">
    <use xlink:href="#g" overflow="visible"/>
  </clipPath>
  <g clip-path="url(#h)">
    <path fill="#4C4C4C" d="M11 4.6l-1.3.8-.9 2.2L11 6.3V4.6"/>
  </g>
  <defs>
    <path id="i" d="M11.2 6.2V4.5l2-1.2.5 1.5z"/>
  </defs>
  <clipPath id="j">
    <use xlink:href="#i" overflow="visible"/>
  </clipPath>
  <g clip-path="url(#j)">
    <path fill="#4C4C4C" d="M12.5 3.8l-1.3.7v1.7l2.5-1.4-1.2-1"/>
  </g>
  <path fill="#4C4C4C" d="M4 2.3L3 4.6l4.9 2.8 1-2.2"/>
  <defs>
    <path id="k" d="M0 7.7V7l1.3.8v.6z"/>
  </defs>
  <clipPath id="l">
    <use xlink:href="#k" overflow="visible"/>
  </clipPath>
  <g clip-path="url(#l)">
    <path fill="#F5967F" d="M1.3 7.8L0 7v.7l1.3.7v-.6"/>
  </g>
  <defs>
    <path id="m" d="M4.1 10.1v-.7l1.4.8v.7z"/>
  </defs>
  <clipPath id="n">
    <use xlink:href="#m" overflow="visible"/>
  </clipPath>
  <g clip-path="url(#n)">
    <path fill="#F5967F" d="M5.5 10.2l-1.4-.8v.7l1.4.8v-.7"/>
  </g>
</svg>
