<?xml version="1.0" encoding="utf-8"?>
<!-- Generator: Adobe Illustrator 18.1.0, SVG Export Plug-In . SVG Version: 6.00 Build 0)  -->
<svg version="1.1" id="Calque_1" xmlns="http://www.w3.org/2000/svg" xmlns:xlink="http://www.w3.org/1999/xlink" x="0px" y="0px"
	 viewBox="0 0 15.6 10.9" enable-background="new 0 0 15.6 10.9" xml:space="preserve">
<g enable-background="new    ">
	<defs>
		<polygon id="SVGID_55_" enable-background="new    " points="7.1,10.1 7.1,8.2 8.7,9.2 8.7,11.1 		"/>
	</defs>
	<clipPath id="SVGID_1_">
		<use xlink:href="#SVGID_55_"  overflow="visible"/>
	</clipPath>
	<g clip-path="url(#SVGID_1_)">
		<path fill="#4C4C4C" d="M7.9,8.7C7.4,8.4,7.1,8.6,7.1,9.2c0,0.5,0.4,1.2,0.8,1.4c0.5,0.3,0.8,0.1,0.8-0.5C8.7,9.6,8.4,9,7.9,8.7"
			/>
	</g>
</g>
<g enable-background="new    ">
	<defs>
		<polygon id="SVGID_65_" enable-background="new    " points="1.3,6.7 1.3,4.8 2.9,5.8 2.9,7.7 		"/>
	</defs>
	<clipPath id="SVGID_2_">
		<use xlink:href="#SVGID_65_"  overflow="visible"/>
	</clipPath>
	<g clip-path="url(#SVGID_2_)">
		<path fill="#4C4C4C" d="M2.1,5.3C1.6,5,1.3,5.3,1.3,5.8c0,0.5,0.4,1.2,0.8,1.4c0.5,0.3,0.8,0.1,0.8-0.5C2.9,6.2,2.6,5.6,2.1,5.3"
			/>
	</g>
</g>
<g enable-background="new    ">
	<g>
		<polygon fill="#FEE2AA" points="2.7,4.6 8.1,1.4 5.5,0.6 0,3.8 		"/>
	</g>
	<g>
		<defs>
			<path id="SVGID_3_" d="M7,5l5.5-3.2C9.5,0.1,9.3,0,9.3,0L3.9,3.2C3.9,3.2,4,3.2,7,5z"/>
		</defs>
		<use xlink:href="#SVGID_3_"  overflow="visible" fill="#FEE6B8"/>
		<clipPath id="SVGID_4_">
			<use xlink:href="#SVGID_3_"  overflow="visible"/>
		</clipPath>
		<g clip-path="url(#SVGID_4_)" enable-background="new    ">
			<path fill="#FEE6B8" d="M7,5l5.5-3.2c-2-1.1-2.7-1.5-3-1.7L4,3.3C4.3,3.4,5,3.8,7,5"/>
			<path fill="#FEE6B8" d="M4,3.3l5.5-3.2C9.4,0,9.3,0,9.3,0L3.9,3.2C3.9,3.2,3.9,3.2,4,3.3"/>
			<polyline fill="#FEE6B8" points="3.9,3.2 9.3,0 9.3,0 3.9,3.2 3.9,3.2 			"/>
		</g>
	</g>
	<g>
		<defs>
			<path id="SVGID_5_" d="M8.6,8L14,4.9c-0.7-1.4-1.6-3-1.6-3.1L7,5C7,5,7.9,6.6,8.6,8z"/>
		</defs>
		<use xlink:href="#SVGID_5_"  overflow="visible" fill="#FFD07D"/>
		<clipPath id="SVGID_6_">
			<use xlink:href="#SVGID_5_"  overflow="visible"/>
		</clipPath>
		<g clip-path="url(#SVGID_6_)" enable-background="new    ">
			<path fill="#FFD07D" d="M8.6,8L14,4.9c-0.6-1.3-1.4-2.8-1.5-3L7.1,5C7.2,5.3,8,6.8,8.6,8"/>
			<path fill="#FFD07D" d="M7.1,5l5.5-3.2c0,0,0,0,0,0L7.1,5C7,5,7,5,7.1,5"/>
			<polyline fill="#FFD07D" points="7,5 12.5,1.8 12.5,1.8 7,5 7,5 			"/>
			<polyline fill="#FFD07D" points="7,5 12.5,1.8 12.5,1.8 7,5 7,5 			"/>
			<polyline fill="#FFD07D" points="7,5 12.5,1.8 12.5,1.8 7,5 7,5 			"/>
			<polyline fill="#FFD07D" points="7,5 12.5,1.8 12.5,1.8 7,5 7,5 			"/>
			<polyline fill="#FFD07D" points="7,5 12.5,1.8 12.5,1.8 7,5 7,5 			"/>
			<polyline fill="#FFD07D" points="7,5 12.5,1.8 12.5,1.8 7,5 7,5 			"/>
			<polyline fill="#FFD07D" points="7,5 12.5,1.8 12.5,1.8 7,5 7,5 			"/>
			<polyline fill="#FFD07D" points="7,5 12.5,1.8 12.5,1.8 7,5 7,5 			"/>
			<polyline fill="#FFD07D" points="7,5 12.5,1.8 12.5,1.8 7,5 7,5 			"/>
			<polyline fill="#FFD07D" points="7,5 12.5,1.8 12.5,1.8 7,5 7,5 			"/>
			<polyline fill="#FFD07D" points="7,5 12.5,1.8 12.5,1.8 7,5 7,5 			"/>
			<polyline fill="#FFD07D" points="7,5 12.5,1.8 12.5,1.8 7,5 7,5 			"/>
			<polyline fill="#FFD07D" points="7,5 12.5,1.8 12.5,1.8 7,5 7,5 			"/>
			<polyline fill="#FFD07D" points="7,5 12.5,1.8 12.5,1.8 7,5 7,5 			"/>
		</g>
	</g>
	<g>
		<path fill="#FFF7E9" d="M7,5C4,3.2,3.9,3.2,3.9,3.2L2.7,4.6L0,3.8L0,5l10.2,5.9l0-1.7L8.6,8C7.9,6.6,7,5,7,5z"/>
	</g>
	<g>
		<polygon fill="#FFD07D" points="10.1,10.9 15.6,7.7 15.6,6 10.2,9.2 		"/>
	</g>
	<g>
		<polygon fill="#FEE6B8" points="10.2,9.2 15.6,6 14,4.9 8.6,8 		"/>
	</g>
</g>
<g enable-background="new    ">
	<defs>
		<polygon id="SVGID_7_" enable-background="new    " points="8,7.6 9.9,6.7 5.6,4.5 5.6,6.2 		"/>
	</defs>
	<clipPath id="SVGID_8_">
		<use xlink:href="#SVGID_7_"  overflow="visible"/>
	</clipPath>
	<g clip-path="url(#SVGID_8_)">
		<polyline fill="#4C4C4C" points="5.6,4.5 6.7,5.1 7.9,7.6 5.6,6.2 5.6,4.5 		"/>
	</g>
</g>
<g enable-background="new    ">
	<defs>
		<polygon id="SVGID_9_" enable-background="new    " points="5.4,6.1 5.4,4.4 3.3,3.1 2.8,4.6 		"/>
	</defs>
	<clipPath id="SVGID_10_">
		<use xlink:href="#SVGID_9_"  overflow="visible"/>
	</clipPath>
	<g clip-path="url(#SVGID_10_)">
		<polyline fill="#4C4C4C" points="4,3.6 5.4,4.4 5.4,6.1 3,4.7 4,3.6 		"/>
	</g>
</g>
<polygon fill="#4C4C4C" points="12.3,2.3 13.6,4.7 8.8,7.5 7.5,5 "/>
<g enable-background="new    ">
	<defs>
		<polygon id="SVGID_67_" enable-background="new    " points="14.3,7.7 14.3,7.6 15.6,6.9 15.6,7 		"/>
	</defs>
	<clipPath id="SVGID_11_">
		<use xlink:href="#SVGID_67_"  overflow="visible"/>
	</clipPath>
	<g clip-path="url(#SVGID_11_)">
		<polyline fill="#FFF7E9" points="15.6,6.9 14.3,7.6 14.3,7.7 15.6,7 15.6,6.9 		"/>
	</g>
</g>
<g enable-background="new    ">
	<defs>
		<polygon id="SVGID_69_" enable-background="new    " points="14.3,7.6 14.3,7 15.6,6.2 15.6,6.9 		"/>
	</defs>
	<clipPath id="SVGID_12_">
		<use xlink:href="#SVGID_69_"  overflow="visible"/>
	</clipPath>
	<g clip-path="url(#SVGID_12_)">
		<polyline fill="#F29481" points="15.6,6.2 14.3,7 14.3,7.6 15.6,6.9 15.6,6.2 		"/>
	</g>
</g>
<g enable-background="new    ">
	<defs>
		<polygon id="SVGID_71_" enable-background="new    " points="10.2,10 10.2,9.4 11.4,8.7 11.4,9.3 		"/>
	</defs>
	<clipPath id="SVGID_13_">
		<use xlink:href="#SVGID_71_"  overflow="visible"/>
	</clipPath>
	<g clip-path="url(#SVGID_13_)">
		<polyline fill="#F29481" points="11.4,8.7 10.2,9.4 10.2,10 11.4,9.3 11.4,8.7 		"/>
	</g>
</g>
<g enable-background="new    ">
	<defs>
		<polygon id="SVGID_73_" enable-background="new    " points="10.2,10.2 10.2,10 11.4,9.3 11.4,9.4 		"/>
	</defs>
	<clipPath id="SVGID_14_">
		<use xlink:href="#SVGID_73_"  overflow="visible"/>
	</clipPath>
	<g clip-path="url(#SVGID_14_)">
		<polyline fill="#FFF7E9" points="11.4,9.3 10.2,10 10.2,10.2 11.4,9.4 11.4,9.3 		"/>
	</g>
</g>
</svg>
