<svg xmlns="http://www.w3.org/2000/svg" x="0px" y="0px" xmlns:xlink="http://www.w3.org/1999/xlink" viewBox="0 0 24.7 18.9">
  <defs>
    <path id="a" d="M12.5 17.6v-4.1l3.6 2-.1 4.2z"/>
  </defs>
  <clipPath id="b">
    <use xlink:href="#a" overflow="visible"/>
  </clipPath>
  <g clip-path="url(#b)">
    <path fill="#2A2A2A" d="M14.3 14.5c-1-.6-1.8-.1-1.8 1s.8 2.5 1.8 3.1c1 .6 1.8.1 1.8-1-.1-1.1-.8-2.5-1.8-3.1"/>
  </g>
  <defs>
    <path id="c" d="M1.3 11.2V7.1l3.6 2.1v4.1z"/>
  </defs>
  <clipPath id="d">
    <use xlink:href="#c" overflow="visible"/>
  </clipPath>
  <g clip-path="url(#d)">
    <path fill="#2A2A2A" d="M3.1 8.1c-1-.6-1.8-.1-1.8 1s.8 2.5 1.8 3.1c1 .6 1.8.1 1.8-1s-.8-2.5-1.8-3.1"/>
  </g>
  <path fill="#2A2A2A" d="M0 4.9l6.9-4 3 1.7-6.9 4"/>
  <path fill="#4C4C4C" d="M6.3 6.1l-.1 5.8L0 8.3V4.9l3 1.7L4.4 5"/>
  <path fill="#1B1B1B" d="M6.3 6.1l6.9-4v5.8l-7 4"/>
  <path fill="#2A2A2A" d="M4.4 5l6.9-4 1.9 1.1-6.9 4"/>
  <path fill="#F2F2F2" d="M24.7 6.7l-6.8 4L6.3 3.9 13.1 0"/>
  <path fill="#E9E9E9" d="M24.7 6.7v8l-6.8 4v-8"/>
  <path fill="#F9F9F9" d="M17.9 10.7v8L6.2 11.9l.1-8m-2.7 3l.8-1 1.1.7V8M0 5.4l.8.4v.4L0 5.8"/>
</svg>
