<?xml version="1.0" encoding="utf-8"?>
<!-- Generator: Adobe Illustrator 18.1.0, SVG Export Plug-In . SVG Version: 6.00 Build 0)  -->
<svg version="1.1" id="Calque_1" xmlns="http://www.w3.org/2000/svg" xmlns:xlink="http://www.w3.org/1999/xlink" x="0px" y="0px"
	 viewBox="0 0 24.7 18.9" enable-background="new 0 0 24.7 18.9" xml:space="preserve">
<g enable-background="new    ">
	<defs>
		<polygon id="SVGID_135_" enable-background="new    " points="12.5,17.6 12.5,13.5 16.1,15.5 16,19.7 		"/>
	</defs>
	<clipPath id="SVGID_1_">
		<use xlink:href="#SVGID_135_"  overflow="visible"/>
	</clipPath>
	<g clip-path="url(#SVGID_1_)">
		<path fill="#2A2A2A" d="M14.3,14.5c-1-0.6-1.8-0.1-1.8,1c0,1.1,0.8,2.5,1.8,3.1c1,0.6,1.8,0.1,1.8-1C16,16.5,15.3,15.1,14.3,14.5"
			/>
	</g>
</g>
<g enable-background="new    ">
	<defs>
		<polygon id="SVGID_137_" enable-background="new    " points="1.3,11.2 1.3,7.1 4.9,9.2 4.9,13.3 		"/>
	</defs>
	<clipPath id="SVGID_2_">
		<use xlink:href="#SVGID_137_"  overflow="visible"/>
	</clipPath>
	<g clip-path="url(#SVGID_2_)">
		<path fill="#2A2A2A" d="M3.1,8.1c-1-0.6-1.8-0.1-1.8,1c0,1.1,0.8,2.5,1.8,3.1c1,0.6,1.8,0.1,1.8-1C4.9,10.1,4.1,8.7,3.1,8.1"/>
	</g>
</g>
<g enable-background="new    ">
	<g>
		<polygon fill="#2A2A2A" points="0,4.9 6.9,0.9 9.9,2.6 3,6.6 		"/>
	</g>
	<g>
		<polygon fill="#4C4C4C" points="6.3,6.1 6.2,11.9 0,8.3 0,4.9 3,6.6 4.4,5 		"/>
	</g>
	<g>
		<polygon fill="#1B1B1B" points="6.3,6.1 13.2,2.1 13.2,7.9 6.2,11.9 		"/>
	</g>
	<g>
		<polygon fill="#2A2A2A" points="4.4,5 11.3,1 13.2,2.1 6.3,6.1 		"/>
	</g>
</g>
<g enable-background="new    ">
	<g>
		<polygon fill="#F2F2F2" points="24.7,6.7 17.9,10.7 6.3,3.9 13.1,0 		"/>
	</g>
	<g>
		<polygon fill="#E9E9E9" points="24.7,6.7 24.7,14.7 17.9,18.7 17.9,10.7 		"/>
	</g>
	<g>
		<polygon fill="#F9F9F9" points="17.9,10.7 17.9,18.7 6.2,11.9 6.3,3.9 		"/>
	</g>
</g>
<polygon fill="#F9F9F9" points="3.6,6.9 4.4,5.9 5.5,6.6 5.5,8 "/>
<polygon fill="#F9F9F9" points="0,5.4 0.8,5.8 0.8,6.2 0,5.8 "/>
</svg>
